<svg xmlns="http://www.w3.org/2000/svg" xmlns:xlink="http://www.w3.org/1999/xlink" viewBox="0 0 88.1 55.1">
  <path fill="#FAF8EE" d="M22.8 26c0 .1.1.1.1.2.6 0 1.6-.3 1.9-.6-.4.2-1.4.4-2 .4zm-5.3 9.1c.4-.3.7-1 .8-1.6.2-.6.2-.6.4-.8H18.4c-.3.7-.2 1.9-.9 2.4zm-.1-.8c.6-.4.6-1.1.9-1.7h-.2c-.3.7-.1 1.3-.7 1.7zm5.1-8.7l.2.2c1 0 2.6-.5 3.2-.9-.7.4-2.4.7-3.4.7zm52.9 5.7c.1.7.6 3.5 2.2 5.1-1.4-1.5-1.9-4.5-2-5l-.2-.1zm-48.6-7.2c-.9.8-3.4 1.1-4.7.9v.1l.2.2c1.3.2 3.7-.3 4.5-1.2zM75 30.4c0 .7.3 3.6 1.7 5.3-1.2-1.7-1.5-4.6-1.5-5.2l-.2-.1zm5.8 9.3c-1.2 1.3-.1 3.3 1.3 4.3-1.1-1.2-1.7-3.1-1.3-4.3zM27.6 23.2c-1.4 1.3-3.9 1.7-5.8 1.4.1.1.1.2.2.3 2 .1 4.4-.3 5.6-1.7zm-9.2 10.7c-.2.7-.3 1.3-.7 1.7.4-.3.6-.9.9-1.6.2-.7.6-1.1.8-1.3h-.3c-.3.3-.5.7-.7 1.2zm23.8 19.3c-.1 0-.1 0-.2.1-.2.1-.5.2-.7.3 0 0-.1 0-.1.1.1-.1.2-.1.3-.2.2-.1.4-.1.6-.2.2-.1.3-.1.4-.1h-.2c0-.1 0-.1-.1 0zm33.9-21.4l-.2-.1c.2.8 1.2 4.7 3.6 5.8-2.2-1.1-3.2-5-3.4-5.7zM26.3 49.5c-.1-.1-.2-.1-.2-.2 0 0 0 .1.1.1.3.4.6.6 1.6.6-.6-.1-1.1-.2-1.5-.5zM41.7 53h-.5c-1.4-.1-3.1.5-4.5.6h-1c.3.1.8.1 1.2 0 1.4-.1 3.3-.7 4.6-.5.1-.1.2-.1.2-.1zm-11.5-3.4c-.8-.3-1.5-.4-2.3-.2.9-.2 1.6.1 2.3.2zm48.2-8s.2 1.4.7 2c.5.7 1.4 1.1 2 1.4-1.2-.9-2.3-1.8-2.7-3.4zM42.3 53.1h-.5c-1.7.2-2.4.7-3 1-.1.1-.3.1-.4.2l.6-.3c.2-.1.4-.2.7-.3.3-.1.7-.3 1.1-.4.3-.1.7-.1 1.1-.2h.4zM20.8 27c.2-.6.1-1-.2-1.4-.2-.3-.4-.4-.6-.7.1.2.3.4.4.5.2.3.4.7.3 1.2-.1-.4-.4-.6-.7-.9 0 0 0-.1-.1-.1v.1l.1.1c.3.5.7.7.8 1.2zm55.7 4.4c.1.8 1.2 6.5 4.8 6.7-3.4-.6-4.4-5.9-4.5-6.6l-.3-.1zM41.6 53c-.9 0-1.9.2-2.6.6.7-.3 1.8-.5 2.7-.5h.2l-.3-.1c.1 0 0 0 0 0zm-16.8-6.8c-.1-.1-.3-.2-.5-.3-.2-.1-.5-.2-.8-.2.6.1.9.3 1.2.5.3.2.6.5 1.3.6-.6-.1-.9-.4-1.2-.6zm-8-13.2c.3-.1.5-.6.7-1.1.1-.4.3-.5.5-.7-.1 0-.1 0-.2-.1-.6.7-.4 1.7-1 1.9zm14.8-7.5c-.2 0-.3.1-.3.3 0 .2.1.3.3.3.2 0 .3-.1.3-.3 0-.1-.2-.3-.3-.3zM69.5 34c.2.7.4 1.3.8 1.6-.4-.3-.5-1-.7-1.7-.1-.5-.4-1-.7-1.3h-.3c.3.3.7.7.9 1.4zM31.6 23.9c-.2 0-.3.1-.3.3 0 .2.1.3.3.3.2 0 .3-.1.3-.3 0-.2-.1-.3-.3-.3zm-2.4-13.4c.3.2.5.5 1.1.4.4.3 1.2 1.1 1.3 1.6 0 .3-.2.6-.1.9.1.6.8.6 1.2.8 0 .6-.4.7-.5 1.2.4.2 1.1.2 1.4.6-1.4 1.5 2 2.1 3.2 2.3 3.1.5 6.5.4 10.1.4 1.5 0 3.5-.2 4.7-.5 1.3-.4 2.7-.4 3-1.6 0-.3-.2-.5-.2-.8.3-.3.8-.3 1.2-.6 0-.6-.6-.9-.4-1.4.2-.1.6-.1.8-.2.3-.5.4-1.1.1-1.6.2-.7.8-1 1.6-1 .2-.4.6-.6.4-1.2.4-.8 1.7-1.2 2.7-.8.3-1.1-.9-2.2-2.1-1.7-.2-.2-.2-.6-.4-.7-.5.1-.7.4-1.1.6-.3-.3-.2-1.1-.8-1.2-.3.3-.4.8-.7 1-.3-.1-.5-.5-1-.4-.6.4-.1 1.8-.7 2.1 0-.4.1-.9-.1-1.1-.5-.2-.4.5-.5.9-.4.8-1.8 1.2-1.9-.2 1.6 0 1.7-2.2.7-2.9.8-2.4-2.3-2.9-2.3-.4-.3.1-.6.3-.9.5-.2.5-.3 1.3 0 1.7.2.4.6.3.8.6-.8 1.6-2 .2-2.1-1.1 0-.4.2-.9-.2-1.1-.7.3-.6 1.5-1.2 1.9-.3.2-.5.2-1 .3-.4-.4-1-.9-.8-1.7.6.1 1.4.7 2.1.3.2-.4 0-.8-.1-1.1.5-.2 1-.4 1.3-.8-.2-.6-.9-.6-1.2-1 0-.4.2-.6.2-1-.5-.1-.8.1-1.1-.2.1-.5.1-.7.1-1.1-.3-.2-.8 0-1.2 0-.5-.3-.6-1-1.3-1.1-.4.3-.3 1-.8 1.1-.4.1-.8-.4-1.2-.2-.1.4.2.9.1 1.4-.4.1-.8 0-1.2.1 0 .4.2.6.2 1-.3.5-1 .5-1.3.8.4.8 1.6.7 1.5 2.1.6.6 1.5.1 2.2 0 0 1-.6 1.5-1.2 1.4-.9-.1-1.1-1.7-1.8-1.8-.2 1-.1 2.4-1.1 2.5-.3 0-.7-.2-.8-.5 1.3-.9.5-2.8-1-2.7.2-1.8-2.5-1.8-2.3-.1.1.2.4.3.5.8-1.2.9.1 3.1 1.3 2.1.7 1.6-1.2 1.5-1.8.7-.1-.3-.6-.9-.7-.7.4 1.2 0 2.5-1 2.8-.4.1-1.4.1-1.3-.4 1.5.1 2.5-.7 1.4-1.7.1-.8.6-1.4.6-2.1-.7-.2-1.5.2-2.1.4-.2-.2-.2-.7-.7-.8-.3.1-.4.4-.7.5-.3-.4-.9-.6-1.3-.1-1.1-.5-2.6.4-2.1 1.6 1.7-.7 2.4.7 2.5 2.2zm6.2-2.9c-.2-.2-.3-.3-.3-.6.1-1.7 2.3.7.3.6zm-.1-2.5c-.1-1.2 1.2-.9 1.2-.1-.2.5-1 .6-1.2.1zm-2.5 9.8c0-.2.3-.5.5-.4 0 .3-.2.4-.5.4zm.9-1.2c0-.2.5-.2.5.1-.3.1-.4 0-.5-.1zm.6 1c0 .3-.1.5-.4.5-.2-.2 0-.5.4-.5zm1.4 2.4c.2 0 .2-.2.4-.1.1.1.1.2.1.3-.2.1-.4.1-.5-.2zm1 0c.1-.2.2.2.3.4-.4 0-.2-.3-.3-.4zm1 .5c-.3-.2-.3-.7-.3-1.1.1-.1.2-.1.3-.1-.1.4 0 .7 0 1.2zm.8.1c-.4-.2.3-1.2-.5-1.3.1-.2.5-.1.7-.2-.2.5-.1 1.1-.2 1.5zm.9.1c-.5-.3.2-1.3-.3-1.6.1-.2.5-.3.7-.1-.6.2-.4 1.3-.4 1.7zm.3 0c.1-.1.4-.2.4-.5.2 0 .1.3.2.4-.1.2-.5.2-.6.1zm.6-1.3c-.2-.1-.4-.4-.3-.6.1-.1.3-.1.5-.1-.1.3-.2.5-.2.7zm.6 1.2c0-.6 0-1.3-.1-1.8h.3c0 .6.1 1.5-.2 1.8zm.8.2c0-.2 0-.3.1-.5.2 0 .3.6-.1.5zm.2-1.2c-.1.9-.2.1-.1-.5.1 0 .1.1.1.1.1.3.1.3 0 .4zm.8.1c0-.2 0-.9-.1-1.1.2 0 .3 0 .3.1-.2.3.1 1-.2 1zm.9 1.1c-.5-.4-.1-1.8-.3-2.1.1-.1.3-.1.4-.1-.2.3-.2 1.4-.1 2.2zm.5-.5c-.3-.4.1-1.3-.3-1.6 0-.2.3-.1.4-.1.1.5.1 1.1-.1 1.7zm.9.6c-.1-.1-.2-.1-.4-.1-.2-.7.2-1.6-.1-2.1.1-.2.4 0 .5-.1-.1.8-.2 1.6 0 2.3zm.7 0h-.3c-.1-.6.1-1.5-.1-2.2h.6c-.2.3-.1 1.6-.2 2.2zm1 0H46c.2-.6.2-1.5.1-2.1.3-.1.5 0 .8.1-.2.4-.2 1.3-.2 2zm4.9-.6c-.2-.1-.1-.5-.4-.5-.4 0-.4.3-.3.7-.4-.1.1-.9-.4-.9-.6 0 0 1.2-.7 1.1.1-.2.2-.6.1-1-.1-.2-.2-.2-.5-.2-.3.3-.2 1-.2 1.3-.5 0 0-1-.3-1.4-.1 0-.3-.1-.4 0-.3.3-.2 1.1-.1 1.5-.6-.1-1 .2-1.4.1.2-.6.2-1.5-.1-2.1.3 0 .5 0 .8.1-.1.3-.4 1.3-.1 1.8.5 0 .5-1.4.2-1.6 1.2-.1 2.5.3 3.6.6.5 0 1.1 0 1.2.5-.5.2-.9-.7-1 0zm2.2-.5c-.7-.4-1.5-.9-2.5-1.1-5.2-1.4-11.9-1.1-16.6.8-.3.1-.6.4-1 .3 0-.5.7-.8 1.1-1 2.9-1.1 7.8-1.8 11.6-1.5 2.3.2 4.6.6 6.3 1.4.5.1 1.3.4 1.1 1.1zM34.9 14c.2-.2.6 0 .8.1 0 .3-.2.3-.3.5-.2-.2-.2-.5-.5-.6zm.8-1.2c.2.1.2.4.2.7-.2-.2 0-.5-.2-.7zm.9 0c-.2 0-.2-.2-.3-.2 0-.2.2-.2.3-.1v.3zm0 1.2c0-.2-.1-.2 0-.4.2 0 .3.4 0 .4zm12.2-1.9c-2-.1-1.2 2.5.8 1.8.2 0 .2.2.3.3.3-.3.2-1.1.5-1.3.2.4-.3 1-.1 1.5.5-.3.4-1.3.7-1.8.3.1-.4.7.1 1-.3.2-.5.7-.4 1.1-1.5 0-2.8-.4-4.1-.6-.6-.1-1.3.3-1.9-.2.5-.6 1.4-.6 2.1-1-.6-.7-1.5-.9-2.2-1.4-.1-.3.2-.1.3-.3 1.9.3 4 .4 5.4 1.1-.3.6-.9-.2-1.5-.2zm.8.8c-.1.7-1.1.3-1.6.2 0-1.1 1.4-.7 1.6-.2zm-3.8-.3c-.5.7-1.5.9-2.4 1.1.4-.6 1.4-.6 1.8-1.1-.3-.2-1.2-1.1-1.8-1.1-.6 0-1.5.9-1.9 1.1-.4-.7 1-.7 1.2-1.3 1.4-.4 1.9 1 3.1 1.3zm-2.8 1c-.1.2-.3-.2-.5-.2.2-.1.4.2.5.2zm-.7-.5c-.1.1-.5-.1-.5-.3.2.1.3.2.5.3zm-2-.4c.6.5 1.7.4 2 1.3-1.4.2-2.9.3-4 .4.6-.5 1.9-.3 1.7-1.3-.1-.5-.4-.5-.7-.8-.8-.2-1.4.4-1.8.1 1-.9 3.1-1 4.6-1-.3.7-1.3.8-1.8 1.3zm-2.3.6c-.1-.9 1.1-.9 1.4-.4-.2.6-1.1.8-1.4.4zm-.5 1.2c-.1-.5-.4-1.1-.3-1.7.2.4.7 1.3.3 1.7zm19.7-4.3h-.3c0-.1 0-.2-.1-.2-.1-.8.7-.4.4.2zm-.8-3.1c.8 0 .2 1.5.8 1.6.3-.4.3-1.2.8-1.3 0 .4.1.5.2.7.4-.1.9-.4 1.3-.2-.5.5-1.3.7-1.9 1.2-.6-.2-1.1-.4-1.5-.8.3-.3 0-.8.3-1.2zm-1.1 1.6c0-.5-.5-.8-.2-1.4.4 0 .5.4.8.6-.5.5.3.9.3 1.6-.7.3-1-.3-1.4-.6 0-.2.4 0 .5-.2zm.2 1.7c-.6.5-1.5-.6-1.5-1.5.5.5.9 1.1 1.5 1.5zm-3.1-.3c.3 0 0 .4 0 .6-.1 0-.1-.1-.3-.1.1-.2.3-.3.3-.5zm-.8-.5c.6 0 0 .8.5.9-.2.2-.6 0-.7-.1 0-.3.3-.5.2-.8zm.3-2.1c-.6.2-1.3-.9-.5-1.3.8-.2 1.1 1.1.5 1.3zm-1.4-3.1c.9-1.4 1.8 1.3.1.8 0-.3-.2-.4-.1-.8zM49.6 7c-.3-.3-.4-.8-.1-1.2.3 0 .6-.1.8 0 .3.5.1 1.4-.7 1.2zm-3.5-4c0 .5-.5.4-.5.9.3.3 1 .2 1.2.6-.2.4-.9.3-1.1.8.1.2.3.3.3.7-1.3.6-2.9-1.6-.5-1.4-.1-.5-1-.3-1-.9.5-.3.8-.7 1.6-.7zm-4.9 2.9c-.1-.4.2-.4.2-.7-.3-.4-.7-.5-1-.9.1-.7.9-.3 1.3-.4-.1-.5-.7-.3-.6-1 .8-.2 1 .5 1.6.3 0-.7-.8-.7-.7-1.5.3-.2.7.1.8.3.4-.3.4-1.4 1.1-.8.1.2 0 .7.1.9.5 0 .6-.4 1.1-.4-.1.8-.7 1.1-.9 1.8-.6-.2-.2-1.4-.6-1.8-.4.8-.5 1.8-1 2.3-.6 0-1.3.1-1.6.4.1.3.2.2.3 0 .6.1 1.5 0 1.6.7-.3.6-1.1.9-1.7.8zM43.9 4c.1.4-.3.6-.6.5-.3-.5.3-.9.6-.5zm-6.2 2c.1.2.1.5.1.9-1.2 1-1.4-1.9-.1-.9zm-.5 2.2c.8.8 3 .8 2.9-.9.7.2 1.1.9 1.9.9 1-.1 1.2-1.3 1.4-2.5.1 0 .1.1.2.1.4 1.2.6 2.8 2.1 2.6.6-.1.6-.6 1.2-.8.6.6.8 1.5 1.7 1.6.8 0 1.2-.8 1.8-1.2.2.6.3 1.2.8 1.5-.2.3-.3.7-.3 1-.1 0-.3 0-.3-.1-.3-.1.1-.3 0-.6-.2-.2-.3.3-.3.6-4.9-1.1-10.5-1.1-15 .5.1-.5-.3-.6-.3-1.1 1.3.4 2-.4 2.2-1.6zm-2.3 2.9c-.1-.5-.5-1-.4-1.5.2.4.6.9.4 1.5zm-1.8.5c.1-.3-.2-.2-.1-.4.1 0 .1-.1.3-.1 0 .2.2.3.2.5-.2.2-.8.3-1 .3.2-.1.2-.2.6-.3zm.3.5c1.3-.6 2.9-1.2 4.5-1.6 1.1-.3 2.3-.3 3.5-.4 1.8-.2 3.7-.3 5.7-.1 1.5.1 3 .6 4.5.9.7.2 1.4.4 2.1.7.6.3 1.4.6 1.5 1.3-1.3-.3-2.5-1.1-3.9-1.4-.3-.1-.5 0-.8-.1-2.9-.7-6.4-1.3-9.6-.9-2.3.3-4.7.9-6.6 1.8-.7.3-1.3 1.1-2.1.8 0-.7.7-.8 1.2-1zm-3.7-2.7c.3-.1.5-.1.7.1.2 1-1.1.7-.7-.1zm-.7-2c.3 0 .2-.4.5-.3.7.2.1 1.2.6 1.5.5-.2.1-1.3.7-1.4.3.1.1.7.3.8.5-.2 1.1-.9 1.5-.3.1.8-.3.9-.5 1.3.2.2.6.2.7.5-.1.6-1.3.6-1.7.3-.2-.8.7-1.1 1-1.6-.5-.2-.8.4-1.2.6-1.6.1-2.1-.9-3.1-1.6.3-.3 1-.1 1.2.2zm38.4 19.3c-.2-.5 0-.9.3-1.2.2-.2.3-.4.4-.5-.2.2-.4.4-.6.7-.3.4-.4.8-.2 1.4.1-.5.4-.7.8-1.1l.1-.1v-.2s0 .1-.1.1c-.3.3-.6.5-.7.9zm-33.9-4.9c-.2 0-.3.2-.2.4 0 .2.2.3.4.2.2 0 .3-.2.2-.4-.1-.1-.2-.2-.4-.2zm-2 5.3c-.2 0-.3.1-.3.3 0 .2.1.3.3.3.2 0 .3-.1.3-.3-.1-.1-.2-.3-.3-.3zM70.6 32c.2.5.3 1 .7 1.1-.5-.3-.4-1.3-.9-1.8-.1 0-.1 0-.2.1.1.1.2.2.4.6zM29.4 48.1c.9.3 1.4 1.3 3 1.8.1 0 .3.1.4.1-1-.4-1.8-1-2.4-1.4-.4-.3-.7-.5-1-.5zm41.3-13.7c-.6-.4-.4-1-.7-1.6h-.2c.3.5.2 1.2.9 1.6zM35.1 21.6c-.2 0-.3.2-.3.3 0 .2.2.3.3.3.2 0 .3-.2.3-.3.1-.2-.1-.3-.3-.3zm38.8 25.6l-.3-.4c-1 1.9-2.2 3.4-4.5 4.9 1.9-.8 3.5-2.2 4.8-4.5zm.7-3.9s-1 .5-1.1 1.1c-.2.5-.1 1.4.2 2 .2.6-.7-2.1.9-3.1zM50 9.5c0 .2-.2.1-.2.4.3.2.5-.3.2-.4zm-13.2 12c-.2 0-.3.1-.3.3 0 .2.1.3.3.3.2 0 .3-.1.3-.3 0-.1-.1-.3-.3-.3zm6.5.7c-.2 0-.3.1-.4.3 0 .2.1.3.2.4.2 0 .3-.1.4-.3.1-.2 0-.4-.2-.4zm22.8-6.9c-.2-.5-.7-.6-1.1-.4-.4.2-.6.3-.7.2-.1-.1-.1-.3.2-.4h-.1c-.4.1-.7.5-.5.7.1.1.4.1.7 0 .4-.2 1.1-.5 1.4-.1-.2 0-.5.1-.8.2-.4.1-.7.3-.5.4.1.1.3.2.5.2h.2c-.1-.1-.2-.1-.2-.2s.1-.2.2-.3c.2-.2.6-.4 1-.2l-.3-.1c.1 0 .1 0 0 0zm-27.7 6.3c-.2 0-.3.1-.3.3 0 .2.1.3.3.3.2 0 .3-.1.3-.3.1-.1-.1-.3-.3-.3zm1.7.1c-.2 0-.3.1-.3.3 0 .2.1.3.3.3.2 0 .3-.1.3-.3 0-.1-.1-.3-.3-.3zm1.6.2c-.2 0-.3.1-.4.3 0 .2.1.3.3.3.2 0 .3-.1.4-.3 0-.1-.2-.3-.3-.3zm28 11.7c.2.6.4 1.4.8 1.6-.7-.5-.6-1.7-1.1-2.5h-.2-.1c.4.2.4.3.6.9zm-13-4.8c0 .2.2.3.3.3.2 0 .3-.2.3-.3 0-.2-.2-.3-.3-.3-.2 0-.3.2-.3.3zm17.7.7c0 .7.1 3.6 1.5 5.4-1.2-1.7-1.2-4.7-1.3-5.3l-.2-.1zm-17.9-2.2c0 .2.2.3.3.3.2 0 .3-.2.3-.3 0-.2-.2-.3-.3-.3-.1-.1-.3.1-.3.3zm8.7-1.1c0-.1.1-.2.1-.2-.6 0-1.7-.1-2.1-.4.4.3 1.4.6 2 .6zm-8.5-.9c-.2 0-.3.2-.3.3 0 .2.2.3.3.3.2 0 .3-.2.3-.3 0-.2-.1-.3-.3-.3zm4.6-1.1c.8.9 3.2 1.3 4.5 1.2 0-.1.1-.1.2-.2v-.1c-1.3.2-3.8-.1-4.7-.9zm-15 29h-.2H45.8h.5c.1.1.3.2.5.2.1 0 .2.1.2.2 0 0 0-.1-.1-.1-.1-.1-.4-.2-.6-.3zm14.2-30c1.2 1.4 3.6 1.9 5.6 1.7.1-.1.1-.2.2-.3-1.9.3-4.4-.1-5.8-1.4zm-3.8 1.1c.2 0 .3-.1.3-.3 0-.2-.1-.3-.3-.3-.2 0-.3.1-.3.3 0 .2.1.3.3.3zm5.5.6c.6.5 2.3.9 3.2.9l.2-.2c-1 .1-2.7-.3-3.4-.7zm-10.9-2.7c.2 0 .3-.2.3-.3 0-.2-.1-.3-.3-.3-.2 0-.3.2-.3.3 0 .1.2.3.3.3zm21.2-8c-.1-.1-.2-.2-.3-.4.3.1.5.1.7.1-.3 0-.5 0-.8-.1.2.1.3.3.4.4zm-26 8.3c.2 0 .3-.2.3-.4s-.2-.3-.4-.3-.3.2-.3.3c.1.3.3.5.4.4zm-1.6.3c.2 0 .3-.2.3-.4s-.2-.3-.4-.3-.3.2-.3.4c.1.2.3.3.4.3zm-13.8 7.5c-.2 0-.3.1-.4.3 0 .2.1.3.3.4.2 0 .3-.1.4-.3 0-.2-.2-.4-.3-.4zm17-7.9c.2 0 .3-.2.3-.3 0-.2-.2-.3-.3-.3-.2 0-.3.2-.3.3 0 .1.1.3.3.3zm-16.8 6.3c-.2 0-.3.1-.3.3 0 .2.1.3.3.4.2 0 .3-.1.4-.3-.1-.3-.2-.4-.4-.4zm21.6-6.5c.2 0 .3-.1.3-.3 0-.2-.1-.3-.3-.3-.2 0-.3.1-.3.3 0 .1.1.3.3.3zm1.6.2c.2 0 .3-.1.4-.2 0-.2-.1-.3-.3-.4-.2 0-.3.1-.4.3 0 .1.1.3.3.3zm-4.8-.2c.2 0 .3-.2.3-.3 0-.2-.2-.3-.3-.3-.2 0-.3.2-.3.3 0 .2.2.3.3.3zm7.2 8.3c0 .2.2.3.4.3.1 0 .3-.2.3-.3 0-.2-.2-.3-.3-.3-.3-.1-.4.1-.4.3zM25.6 45.3c0 .1.1.1.1.2.4.5.8.8 1.5.9-.7-.2-1-.6-1.4-.9 0-.1-.1-.1-.2-.2zm.5-.9c-.1-.1-.3-.1-.7-.2.7.2.6.4 1 .5.1 0 .3.1.5.1-.5-.2-.5-.3-.8-.4zm-8-31.5c-.4.2-.9.2-1.3 0s-.8-.6-1.2-.5c.5-.4 1-.3 1.4-.1.4.2.2-.1-.4-.2-.6-.2-1.2-.2-1.8.4.6-.1 1.1.3 1.7.6.5.1 1.1.1 1.6-.2zM27.6 45c0-.1-.1-.1-.1-.1-.1-.1-.2-.2-.4-.2.2.1.3.2.5.3 0 .1 0 .2.1.2l-.1-.1c-.1-.1-.2-.2-.4-.3l.5.5v.1c.1.2.2.2.4.3-.3-.4-.5-.9-.6-1.1-.1-.1-.2-.1-.2-.1-.1-.1-.3-.1-.4-.1.2.1.3.2.4.3.2.1.3.2.3.3zm6 7h-.3c-.2 0-.4.2-.7.3.3 0 .4-.2.7-.3.1.1.2.1.3 0 .3 0 .6.1.9.1-.4-.1-.7-.1-.9-.1zm1.1.1h-.3c.4 0 1 .2 1.6.3-.3.1-1.2.2-1.9-.1.7.3 1.1.3 1.8.2.4-.2 1.1-.4 1.6-.5h-.6c-.4 0-.9-.1-1.3-.3.2.2.5.2.8.3.2 0 .3 0 .4.1-.5.1-.6.1-1-.1.1.1.3.2.5.2-.5 0-.9 0-1.2-.1h-.4zM16.9 13.8c.4.1.8 0 1.1-.3-.2.2-.6.3-.8.2-.3-.1-.6-.3-.9-.2.3-.3.6-.3.9-.2.3.1.2-.1-.3-.1-.4 0-.8 0-1.2.5.4-.2.8 0 1.2.1zm-.2.9c-.4-.1-.8-.2-1.1 0 .3-.5.7-.5 1-.5.4 0 .7.1 1.1 0-.6.1-1-.1-1.5 0-.5 0-1 .2-1.3.9h.1c.4-.2.8-.1 1.4 0 .5 0 .9-.2 1.2-.6-.1.1-.5.3-.9.2zm-2.5 1.1c-.5.1-.9 0-1.2.3.1-.7.5-.9 1-1 .4-.1.8-.1 1.3-.4-.6.4-1.1.3-1.7.5-.5.2-1 .7-1.1 1.6.4-.5 1-.5 1.6-.6.6-.1.9-.6 1.1-1.2-.2.4-.5.8-1 .8zM7.3 39.6c.4 1.3-.3 3.1-1.3 4.3 1.3-1 2.5-3.1 1.3-4.3zM11.4 17c-.1 0 .3-1.2 2.1-1.9 0 0-2.3.4-2.5 2.4 0 0 .6-.1 1.5-.8-.1.1-.5.4-1.1.3zm3.8-3.2c.2 0 .5 0 .7-.1-.1.1-.2.2-.3.4.1-.1.2-.3.3-.4-.2.1-.5.1-.7.1zm6.6 1.6c.3-.1.8.1.9.2.1.1.2.2.2.3 0 .1-.1.1-.2.2h.2c.2-.1.4-.1.5-.2.2-.2-.1-.3-.5-.4-.3-.1-.6-.1-.7-.2.3-.3 1-.1 1.4.1.3.1.6.2.7 0 .1-.2-.1-.6-.5-.7h-.1c.3.1.3.3.2.4-.1.1-.3-.1-.7-.2-.4-.2-.9-.1-1.2.4h-.1l-.1.1zm62 30.3c.3 1.6.3 3.7 0 5.3.6-1.6 1.1-3.7 0-5.3zm-51.3 7.6h-.2.2c.3.1.8 0 1 0 .4-.1.8-.2 1.1-.3-.5.1-.8 0-1.1-.1-.2-.1-.4-.1-.7-.1.4 0 .5.1.7.2.1.1.3.1.4.1-.3 0-.4 0-.8-.1.3.1.5.1.6.1 0 0-.7.2-1.2.2zm-1.4-18.1c0-.1.1-.2.1-.2-.3-.6-1.4-1.1-1.4-1 .5.3 1 .7 1.3 1.2zm-8.8-4.3c.7.6 2.2 1.2 2.9 1.5-1.1-.6-2.3-1.3-2.8-1.6-.5-.4-1.5-.7-2.2-1.2.2.3 1.2.9 2.1 1.3zm-18 20c-.3-1.6-.3-3.7 0-5.3-1.1 1.6-.7 3.7 0 5.3zm13.6-18.6c.2-.5.4-.6.5-.8-.1 0-.2-.1-.3-.1-.2.2-.3.4-.5.8-.1.4-.2 1.1-.6 1.3.5 0 .8-.7.9-1.2zM71.7 13c.6-.3 1.1-.7 1.7-.6-.6-.6-1.3-.6-1.8-.4-.6.2-.8.4-.4.2s.9-.3 1.4.1c-.5-.1-.8.3-1.2.5-.4.2-.9.2-1.3 0 .4.4 1 .5 1.6.2zm9.7 7.8c0 .1-.2.3.2 1 .3.7.4 1.1.4 1.1.2-.1 0-.8-.2-1.3-.3-.3-.4-.8-.4-.8zM6.9 44.9c.7-.3 1.5-.7 2.1-1.4.5-.7.7-2 .7-2-.4 1.6-1.6 2.6-2.8 3.4zm75.6-22.7c.2-.2.1-1.2-.2-1.9l-.4-1.4c0 .2-.2.5.2 1.6s.4 1.7.4 1.7zm-.3.3c.2-.2.1-1.1-.1-1.6l-.4-1.2c0 .1-.2.4.2 1.3.2.9.3 1.5.3 1.5zm-11.9 9.8c-.1-.4-.3-.6-.5-.8-.1 0-.2.1-.3.1.2.2.4.3.5.8.2.5.4 1.1.8 1.2-.2-.1-.3-.8-.5-1.3zm-7.4.1c.7-.3 2.2-.8 2.9-1.4.9-.5 1.8-1 2.1-1.4-.7.5-1.7.8-2.2 1.2-.4.4-1.6 1-2.8 1.6zm8.3-18.5c.4-.1.8-.3 1.2-.2-.3-.4-.8-.5-1.2-.5-.4.1-.6.2-.3.1s.6-.1.9.2c-.3-.1-.5.1-.9.2-.3.1-.6 0-.9-.2.4.4.8.5 1.2.4zm5.5 3.2c-.5.1-1-.2-1-.2.8.6 1.4.8 1.4.8-.2-2-2.5-2.4-2.5-2.4 1.7.6 2.2 1.8 2.1 1.8zm-5.3-2.3c-.4 0-.7-.1-1-.4.3.4.7.6 1.2.6s1-.1 1.4 0c0 0 .1 0 .1.1-.3-.6-.8-.8-1.3-.9-.5 0-.9.2-1.5 0 .4.1.8 0 1.1 0 .4 0 .8.1 1 .5-.3-.1-.6 0-1 .1zm2.7 1.4c.6.2 1.2.1 1.6.6-.1-.9-.6-1.4-1.1-1.6-.5-.2-1.1-.1-1.7-.5.4.3.8.3 1.3.4.4.1.8.4 1 1-.3-.4-.8-.3-1.2-.4-.4-.1-.8-.4-.9-.9 0 .8.4 1.3 1 1.4zM46.6 40.6c0 .1.1.2.4.3.3.1.7.1 1.2.1 1.8 0 5.8-1.7 6.1-3.6l-4.1 1.2c-3 1.1-3.7 1.8-3.6 2zm-17.8 6.2c-.1 0-.2-.1-.3-.1-.2-.1-.5-.2-.8-.3.3.1.6.3 1 .5 0 0 .1 0 .1.1h-.1c-.2-.1-.5-.2-.8-.3.3.1.7.3 1 .5.1.1.3.1.4.2L29 47l-.2-.2zm-.4-.2c.1.1.3.2.4.2l-.2-.2c-.1 0-.2-.1-.3-.1-.3-.1-.6-.2-.8-.3.3 0 .6.2.9.4zM13.1 30.3l-.2.1c-.1.5-.3 3.5-1.6 5.2 1.5-1.7 1.8-4.6 1.8-5.3zM83 22s.5-.1-.1-1.9c-.7-1.8-.6-2.9-.6-2.9-.2.6.1 2 .3 2.9.3 1 .4 1.9.4 1.9zm-69.3 7.4l-.2.1c-.1.5-.1 3.5-1.3 5.2 1.4-1.7 1.6-4.7 1.5-5.3zm-1.1 1.9l-.2.1c-.1.5-.6 3.5-2 5 1.6-1.6 2.2-4.5 2.2-5.1zm17.1 16.8c.2.1.5.2.7.3l-.3-.2c-.1-.1-.3-.2-.6-.3-.3-.2-.7-.3-1.1-.5.5.2.9.4 1.3.7zm-23-10c3.6-.2 4.7-5.9 4.8-6.7l-.2.1c-.2.6-1.2 6-4.6 6.6zm1.9-.6c2.4-1.1 3.4-5.1 3.6-5.8l-.2.1c-.2.6-1.2 4.5-3.4 5.7zm33.7 14.1c.1-.2 0-.3-.2-.4-.2-.1-.3 0-.4.2-.1.1 0 .3.2.4.1 0 .3 0 .4-.2zm16-9.7c.2 0 .3 0 .4-.2 0-.2-.1-.3-.2-.4-.2 0-.3.1-.4.2 0 .2.1.4.2.4zm.4-1.6c.2 0 .3-.1.3-.3 0-.2-.1-.3-.3-.3-.2 0-.3.1-.3.3 0 .1.1.3.3.3zm-27.1 2.2l.1.1.2.2c.2.2.4.5.6.9 0 .1.1.1.1.2 0 0 0-.1-.1-.1-.1-.1-.1-.2-.2-.3.1.1.1.2.2.3 0 0 0 .1.1.1 0 0 0-.1-.1-.1v-.1c0 .1.1.1.1.2-.1-.2-.3-.4-.4-.6-.3-.6-.6-.8-.8-.9h-.1l.2.2c.1-.2.1-.1.1-.1zm26.6.8c.1-.2 0-.3-.2-.4-.2-.1-.4 0-.4.2-.1.2 0 .3.2.4.1 0 .3-.1.4-.2zm-.8 1.5c.1-.1 0-.3-.1-.4-.1-.1-.3 0-.4.1-.1.1 0 .3.1.4.1.1.3 0 .4-.1zm-2.1 2.5c.1-.1.1-.3 0-.4-.1-.1-.3-.1-.5 0-.1.1-.1.3 0 .4.1.2.3.2.5 0zm1.1-1.2c.1-.1.1-.3 0-.4-.1-.1-.3-.1-.4 0-.1.1-.1.3 0 .4.1.2.3.1.4 0zm-23.8-2.3zM54 48.4c.1-.1.2-.3.1-.4-.1-.1-.3-.2-.4-.1-.1.1-.2.3-.1.4.1.2.3.2.4.1zm-21.6-4.3c0 .2.1.3.2.5 0 .1.1.1.1.2.3.6.7 1 1.2 1.5 0 0-.1-.1-.1-.2.1.1.1.1.1.2 0-.1-.1-.1-.1-.2-.1-.1-.1-.2-.2-.2v-.1c-.3-.4-.6-.8-.8-1.2-.2-.2-.3-.3-.4-.5zm1.2 1.9c.1.1.1.2.2.2l-.2-.2c0-.1 0 0 0 0zm7-.2s0 .1 0 0c-.1 0-.2.1-.2.1 0 .1.1.1.2.1h.6s.1 0 .1-.1h-.1c-.5.1-.5 0-.6-.1 0 .1 0 .1 0 0 .2.2.4.2.4.2h.1c-.1 0-.1-.1-.1-.1v-.2h-.1l-.1.1c-.2-.1-.2 0-.2 0zm.4.6c.1 0 .1 0 0 0v-.1h-.2c-.2 0-.2 0-.2-.1v-.1c-.1 0-.1 0-.1.1l-.1.1v.1s0 .1.1.1h.8v-.1h-.1-.1-.1-.1l-.1-.1h.1c-.1.2.1.1.1.1zm-11.1-6.3c0-.2-.2-.3-.3-.3-.2 0-.3.2-.3.3 0 .2.2.3.3.3.2.1.3-.1.3-.3zm9.7 3.3V43.7h.2v-.1-.1-.1c0-.1-.1-.3-.1-.5 0-.1 0-.3.1-.4v.1s-.1.1-.1.2v.3c-.2.1-.1.2-.1.3zm-5.8 2.9zm4.8-1.8c.1 0 .2.1.3.1 0 0-.1 0-.1-.1 0 0 .1 0 .1.1h.2c.1 0 .2.1.4.1l-.1-.1c-.1-.1-.2-.1-.4-.2h-.1-.1-.1-.1-.1l.1.1c-.1-.1-.1-.1 0 0-.1 0-.1 0 0 0zm-2.6-1c.1 0 .1 0 0 0 .1 0 .1 0 .1-.1h.4c.1 0 .3.1.4.3v-.1l-.2-.2c-.1-.1-.3-.2-.4-.2h-.2c-.1 0-.1 0-.2.1.3.1.2.1.1.2.1 0 .1 0 0 0 0 .1 0 .1 0 0 0 .1 0 .1 0 0zM31.4 45c.1-.1.2-.3.1-.4-.1-.1-.3-.2-.4-.1-.1.1-.2.3-.1.4.1.1.3.2.4.1zm5.9 5.2c.2.1.3 0 .4-.2.1-.1 0-.3-.2-.4-.2-.1-.3 0-.4.2 0 .1.1.3.2.4zm-3.7-2.8c.1-.1.1-.3 0-.4-.1-.1-.3-.1-.4 0s-.1.3 0 .4c0 .2.2.2.4 0zm-1.2-1.1c.1-.1.2-.3 0-.4-.1-.1-.3-.1-.4 0-.1.1-.2.3 0 .4.1.1.3.1.4 0zm3.8 3c.1-.1 0-.3-.1-.4-.1-.1-.4 0-.4.1-.1.1 0 .3.1.4.2.1.3.1.4-.1zm-1.4-.8c.1-.1.1-.3-.1-.4-.1-.1-.3-.1-.4.1-.1.1-.1.3.1.4.1 0 .3 0 .4-.1zm17.8.9c.1-.1.2-.3.1-.4-.1-.1-.3-.2-.4-.1-.2.1-.2.3-.1.4.1.1.3.2.4.1zm-11.1-3.1s0 .1 0 0h.1s-.1 0-.1-.1h.2c-.1-.1-.3-.1-.3-.1v.2c0-.1 0-.1.1 0l-.1-.1c0 .1 0 .1.1.1zm-11.3-2.9c.1.2.3.2.4.2.1-.1.2-.3.2-.4-.1-.2-.3-.2-.4-.2-.2.1-.3.3-.2.4zm-.7-4.6c.2 0 .3-.1.3-.3 0-.2-.1-.3-.3-.3-.2 0-.3.1-.3.3 0 .2.1.3.3.3zM48 51.1c.2-.1.2-.2.2-.4-.1-.2-.2-.2-.4-.2-.2.1-.2.2-.2.4.1.2.3.3.4.2zm1.5-.5c.2-.1.3-.2.2-.4 0-.2-.2-.3-.4-.2-.2 0-.3.2-.2.4.1.2.3.3.4.2zm-10.6.1c.2 0 .3 0 .4-.2.1-.2 0-.3-.2-.4-.2-.1-.3.1-.4.2-.1.1 0 .3.2.4zm12.2-.6c.2-.1.2-.2.2-.4-.1-.2-.3-.2-.4-.2-.2.1-.2.3-.2.4.1.2.2.3.4.2zm-10.7 1.1c.2.1.3 0 .4-.2.1-.2 0-.3-.2-.4-.2-.1-.3 0-.4.2 0 .1 0 .3.2.4zm6 1.9H46h.4c.4.1.7.2 1.1.2.5.1.9.3 1.2.4l.6.3c.2.1.5.2.7.3-.1-.1-.3-.1-.4-.2-.7-.3-1.5-.8-3.2-1zm.2-1.4c.2-.1.2-.3.2-.4-.1-.2-.2-.2-.4-.2-.2.1-.2.3-.2.4 0 .2.2.3.4.2zm-5.3-5.1s.1.1.2.1v-.1s-.1 0-.1-.1v.1c-.1-.1-.2-.1-.1 0-.1 0 0 0 0 0zm19.3-1.1s0-.1 0 0c.2-.2.2-.3.5-.6-.1.1-.2.2-.4.3l-.1.1c0-.1.1-.2.2-.3.1-.1.2-.2.4-.3-.2.1-.3.1-.4.2-.1 0-.1.1-.2.1 0-.1.1-.2.2-.3.1-.1.3-.2.5-.3-.1 0-.3.1-.4.1-.1 0-.2.1-.2.1-.1.2-.3.8-.6 1.1.3 0 .4-.1.5-.2zm2-.1l.1-.1c0 .1-.1.1-.1.1-.4.3-.8.7-1.5.9.7-.1 1.1-.4 1.5-.9zm-3 1.6c.3-.2.7-.3 1-.5-.3.1-.6.2-.8.3h-.1s.1 0 .1-.1c.3-.2.6-.4 1-.5-.3.1-.6.2-.8.3-.1.1-.3.1-.3.1l-.4.4-.2.2c.2 0 .3-.1.5-.2zm2.3-2.3c.4-.1.3-.4 1-.5-.4 0-.6.1-.7.2-.2.1-.3.3-.8.4.2-.1.4-.1.5-.1zm-1 1.4c-.3.1-.6.2-.8.3-.1.1-.2.1-.3.1l-.2.2c.1-.1.3-.1.4-.2.2-.1.6-.3.9-.4zm-1 1.3c-.4.2-.7.3-1.1.5l-.6.3-.3.3c.2-.1.5-.2.7-.3.4-.4.9-.6 1.3-.8zm-5.5-1.2l.1-.1c0 .1-.1.1-.1.1.1-.1.3-.2.4-.4.2-.2.3-.4.5-.6 0 0 0-.1.1-.1.1-.1.2-.3.3-.4 0-.1 0-.1.1-.2s.1-.3.2-.4c-.1.1-.1.2-.2.3-.4.7-.8 1.2-1.2 1.6-.2.1-.2.2-.2.2zm.3-.3c0-.1.1-.1 0 0 0-.1 0 0 0 0l-.3.3c0-.1.1-.1.1-.1l.2-.2zm-12.9.2h.4c.2 0 .3-.1.3-.1h0-.2-.1-.4-.1c-.2.1-.1.1.1.1-.1 0-.1 0 0 0zm8.5 1.9s-.1 0-.1.1l.1-.1s-.1 0-.1.1h-.1c-.2.1-.5.2-.8.4-.1 0-.1.1-.2.1 0 0 0-.1.1-.1l.1-.1c.1 0 .1-.1.2-.2.2-.2.5-.4.8-.5 0 0-.1 0-.1.1l.1-.1h-.1c-.1 0-.1.1-.2.1-.2.1-.4.2-.6.4-.1.1-.2.1-.2.2l-.1.1c0 .1-.1.1-.1.2v.1c0 .1-.1.2-.1.2v.1c0 .1-.1.1-.1.2s-.1.1-.1.2v.1l-.1.1s0 .1-.1.1l-.1.1c.1-.1.2-.2.3-.2.1-.1.2-.1.3-.2.2-.1.3-.2.4-.2.1-.1.2-.1.4-.2h-.2c-.2.1-.5.2-.7.3l.1-.1c.2-.2.3-.2.5-.3h-.1H49.1c.1-.1.2-.2.3-.2.1 0 .1-.1.1-.1s.1 0 .1-.1c.1-.1.3-.2.4-.2.1-.2.2-.3.3-.4zm-.1-.3s.1 0 .1-.1l-.1.1c-.1 0-.1 0-.1.1l.1-.1zm-.6 1.3h.2c-.1-.1-.2 0-.2 0-.1 0-.1 0 0 0-.1 0-.1 0 0 0zm-.6.2c-.1 0-.1.1-.2.1.1-.1.1-.1.2-.1zm.4-.4c-.1 0 0 0 0 0zm-.3.1zm.3-.4c-.1 0-.2.1-.3.1.2 0 .2 0 .3-.1zm1.3 3.6c.6.1 1.2.3 1.6.5.7 0 1.1 0 1.8-.2-.7.3-1.5.2-1.9.1.6-.1 1.2-.3 1.6-.3h-.3c-.1 0-.2 0-.4.1-.4.1-.7.1-1.2.1.2 0 .4-.1.5-.2-.4.1-.6.2-1 .1.1 0 .3 0 .4-.1.3 0 .6-.1.8-.3-.4.2-.9.2-1.3.3-.1-.1-.4-.1-.6-.1zm14.1-6.4c-.4 0-.6.1-.8.2-.2.1-.4.2-.5.3-.3.2-.5.5-1.1.6 1.2-.2 1.1-.8 2.4-1.1zm-10 6.4h.2c.3.1.4.2.7.3-.3-.1-.5-.3-.7-.3-.1-.1-.2-.1-.2 0-.3-.1-.6 0-1 0h1zm-5.5 1.5c-.7-.3-1.7-.6-2.7-.5h-.3.1c1 0 2.2.2 2.9.5zm2.2-.1c-1.4-.1-3-.7-4.5-.6l-.3.1h-.1c1.3-.2 3.2.4 4.7.5.5 0 .9.1 1.2 0-.2.1-.6.1-1 0zm9-3.5c1 0 1.4-.2 1.6-.6l.1-.1c-.1.1-.2.1-.2.2-.4.3-.8.4-1.5.5zm-2.3-.4c.7-.1 1.4-.3 2.3-.2-.8-.2-1.5-.1-2.3.2zM53.8 53c.3.1.7.2 1.1.3.2 0 .7.1 1 .1h.2-.2c-.5 0-1.2-.2-1.2-.2.1 0 .3 0 .6-.1-.4.1-.5.1-.8.1.2 0 .3-.1.4-.1.2-.1.3-.2.7-.2-.3 0-.5.1-.7.1-.3 0-.7.1-1.1 0zm5.2-4.9c-.3.1-.6.3-.9.5-.7.4-1.5 1.1-2.5 1.4.2 0 .3-.1.4-.1 1.6-.6 2.1-1.5 3-1.8zm-21-.2c0-.1-.1-.1-.2-.2l-.3-.3-.1-.1c0-.1-.1-.1-.1-.1 0-.1-.1-.1-.1-.2-.1-.2-.1-.3-.2-.4v-.1 0c0 .1 0 .1.1.2 0 .1.1.3.1.4v.1c.1.1.2.2.2.3.1.1.2.1.2.2 0 0 .1 0 .1.1l.1.1h.2zm.5 1c.1 0 .1.1.2.1h.1c.2.1.3.2.5.3.1.1.2.1.3.2.1.1.2.2.3.2l-.1-.1c0-.1-.1-.1-.1-.2v-.1c0-.1-.1-.1-.1-.2 0 0-.1-.1-.1-.2v-.1c0-.1-.1-.2-.1-.3v-.1c0-.1-.1-.1-.1-.2l-.1-.1c-.1-.1-.2-.1-.2-.2-.2-.2-.5-.3-.8-.5 0 0-.1 0-.1-.1 0 0 .1 0 .1.1h-.1c.1 0 .1.1.2.1s.1.1.2.1l.1.1.3.3c.1 0 .1.1.1.1.1.1.1.2.2.2 0 0 0 .1.1.1-.1 0-.1-.1-.2-.1-.2-.1-.5-.3-.7-.4-.1 0-.2-.1-.3-.2l.2.2c-.3.2-.3.1-.4.1.1.1.1.1.2.1l.1.1c.1.1.2.1.3.2h.1l.3.3s.1 0 .1.1c-.1-.1-.2-.1-.3-.1h.1c.1.1.2.1.3.2 0 0 .1.1.1.2h-.1c-.1-.1-.3-.2-.5-.3.1.1 0 .1-.1.1zm-.4-1.2zm.9.8c0 .1.1.1 0 0 .1.1.1.1 0 0 0 .1 0 .1 0 0zm.1.4c0-.1 0-.1 0 0l-.2-.2c.1 0 .2.1.2.2 0 0 .1 0 0 0 .1 0 0 0 0 0zm.2.2l.1.1s-.1 0-.1-.1zm-2.4-2.6zm9.2-.4c.1 0 .1.1 0 0h.4c.1 0 .2 0 .2-.1h-.4-.5.1c0 .1.1.1.2.1zm-6.5 1.4c.1 0 .1.1.2.1h0s-.1-.1-.2-.1l-.1-.1.1.1.1.1-.1-.1h-.1.1c.1.1.2.1.2.2.1.1.2.1.2.2.2.2.4.5.7.8.2.2.4.5.6.7 0 .1.1.1.1.2.1.1.2.2.3.2 0 0 .1.1.2.1.1.1.3.2.4.2h.8c-.1 0-.1-.1-.2-.1s-.1-.1-.2-.1c-.1-.1-.1-.1-.2-.1l-.1-.1-.1-.1c-.1-.1-.2-.2-.3-.4-.1-.1-.2-.3-.3-.4-.1-.1-.1-.2-.2-.3 0 .1.1.1.1.2 0-.1-.1-.2-.1-.2 0 .1.1.3.2.4v.1c.1.1.1.2.2.3.1.1.1.2.2.3l.3.3.1.1c.1 0 .1.1.2.1-.1 0-.2-.1-.3-.1l-.1-.1-.1-.1-.1-.1s-.1 0-.1-.1c-.1-.1-.2-.2-.3-.2-.1-.1-.1-.2-.2-.2l-.1-.1-.1-.1-.3-.3c-.2-.2-.4-.5-.6-.7l-.3-.3c-.1-.1-.3-.2-.4-.3 0 .2 0 .1-.1.1zm3.2 2.7zm-2.6-2.3c-.1 0-.1 0 0 0-.1 0-.1 0 0 0zm8.5-.4zm-7.1.6c.1.3.2.6.4 1 .1.1.1.2.2.3l.3.3s.1.1.1.2l.1.1s.1 0 .1.1l.1.1h.1s-.1 0-.1-.1l-.1-.1-.1-.1s-.1 0-.1-.1l-.1-.1v-.1c-.1-.1-.1-.2-.2-.2l-.1-.1c-.4-.6-.5-1.1-.7-1.4-.1-.1-.1-.2-.2-.3l.2.2c.1.1.1.2.1.3zm5.1-2s-.1 0-.3.1H46.7c.1 0 .1 0 .1-.1h-.1c.1.1.1.1 0 0 .1.1.1.1 0 0 .1.1.1.1 0 0 .1.1.1.1 0 0 .1 0 0 0 0 0zm2.5-1.8c-.2 0-.4.1-.4.2-.1 0-.1.1-.1.1s.1-.1.2-.1h.5l-.1.1h.1s.1 0 .2-.1c0 0-.1 0-.1.1l-.1.1.2-.1s.1 0 .1-.1h-.1-.1c-.2-.2-.2-.2-.3-.2zm-2.4 2.3s-.1 0 0 0c-.1 0-.1 0 0 0-.1.1 0 .1 0 .1s.1-.1.2-.1l.1-.1v-.1c-.2 0-.2.1-.3.2 0-.1 0 0 0 0zm4.4-2.8c.1-.1.2-.1.2-.2.1-.1.2-.1.3-.1h.4v-.1H52s-.1 0-.1-.1h-.2c-.2 0-.3.1-.4.2l-.2.2.1.1zm0 0zm-3.5 2.4c-.1.1-.1 0-.1.1 0 0-.1.1-.2 0h-.2s-.1 0-.1.1v.1s.2.1.5.1h-.1-.1-.1-.1v.1H47.9v-.1-.1-.1h-.1l.1-.1v-.1h-.2zm-.6 0c.1 0 .1 0 0 0h.5c.1 0 .2-.1.2-.1 0-.1-.1-.1-.2-.2 0 0 0 .1-.2.1h-.1c0 .1-.1.1-.2.2.1-.1.1-.1 0 0 0-.1 0-.1 0 0 0-.1 0-.1 0 0 0-.1 0-.1 0 0zm.2-.2c.1 0 .2 0 .3-.1l.1-.1s0-.1-.1-.1h-.1l-.1.1v.1l-.1.1c-.1-.1-.1-.1 0 0-.1 0 0 0 0 0zm.3-.1zm-8.1 1.5zm-33-27.8l-.4 1.2c-.2.5-.4 1.4-.2 1.6 0 0 .1-.6.4-1.5.3-.9.2-1.2.2-1.3zm-.6-2.5s.1 1.1-.6 2.9c-.7 1.9-.2 2-.2 2s.1-1 .4-1.9c.3-.9.5-2.4.4-3zm.3 5.7s.1-.4.4-1.1c.3-.7.2-.9.2-1 0 0-.2.4-.4.9-.2.4-.4 1.1-.2 1.2zm-.8 15.1v.1c.2.5.3 1.1.3 1.1.3 2.2-.4 3.9-3.1 5.7 0 1.4 0 3.2.3 6 .2 1.1.9 2.6 1.1 2.7.1.3.2.5.5.7.6.3 1.2.4 1.7.1.6.3 1.2.3 1.8.1.8.1 1.6-.2 1.6-.5.2 0 .5 0 .6-.1.4-1.2.1-1.9-.6-2.6-.4-.1-.9-.2-1.3-.3C8 49.7 7 48.7 8 47c.6-.5 1.4-1.1 2-1.1-.1.2-.2.7-.2 1 .5 0 1-.5 1.5-.8-.1 0 .1.3.2.4.7-.4 1-1.1 1.3-2 .8.8.6 1.7.1 2.5 1.3 3.5 4.6 5.7 6.4 5.9.4.2 1.1.7 1.7.5.3.3 1.7.5 2 .4.2-.1.5-.2.6-.3.5 0 1-.1 1.4-.3v-.4c.3-.1.5-.2.6-.4-.1-.9-.7-2.9-1.9-3.2-.6.1-2 .4-3.4-.1-.9-.6-1.7-2.1-2.1-3-.4-.9.5-1.8.5-1.8.1.2.2.3.3.5.5-.7.8-1.2.9-2.1 0-.8 0-1.5-.2-2.3-.3-1-.6-1.9-1.9-2.6h.5c.6-.8 1-2 1.1-3.3.3.6.7 1.2 1 1.3.2-.7.3-1.3.9-1.9.7.4 1.9.8 2.9 1 .7.6 2.4 1.7 3.8 2.1-.9 5.3 2 9.7 5.4 12.2-.8-.4-1.6-.8-2.4-1.3-2.1-1.6-3.3-3.6-3.3-5.7v-.3c0-.2-.1-.3-.2-.4-.1-.1-.3-.1-.5 0-.6.4-1.5.8-1.6 1.8h-.6c-.1 0-.2.1-.3.2-.1.1-.1.2-.1.3 0 .2.1.4.2.5-.2-.1-.4-.1-.5-.1-.3 0-.5 0-.8.1-.2 0-.3.2-.3.3-.4.1-.9.4-.9.9 0 .3.2.6.4.8.2.1.4.1.6-.1.1-.1.1-.2.1-.2s.1.1.3.2c.2.1.4.4.7.5.4.2.8.3 1.2.4-.1.1-.1.3-.2.5v.1c-.2.4-.3.7-.3 1 .1 1.1 1.1 1.5 1.9 1.6 0 .1-.1.3-.1.4 0 .7.6 1.4 1.5 1.4h.3v.2c.1 1.3 1.6 1.5 2.6 1.7h.6c1.1 0 2.1-.2 3-.4.6.3 1.3.4 2 .5v.4c.1.1.2.2.4.2h.6c1.3 0 1.8-.5 2.4-.7 0 .1.1.2.1.2.1.2.2.3.4.3s.3 0 .4-.2c.3-.5.9-.7 1.8-.9.4.3.8.6.9.9.2-.3.5-.6 1-.9.9.1 1.5.4 1.8.9.1.1.3.2.4.2.2 0 .3-.1.4-.3 0-.1.1-.1.1-.2.7.3 1.1.7 2.4.7h.6c.2 0 .3-.1.4-.2.1-.1.1-.3 0-.4.6 0 1.3-.2 2-.5.9.2 1.9.4 3 .4h.6c1-.2 2.5-.4 2.7-1.7v-.2h.4c.9 0 1.5-.7 1.5-1.4 0-.1 0-.3-.1-.4.8-.1 1.8-.4 1.9-1.6 0-.3-.1-.7-.3-1v-.2c0-.2-.1-.4-.2-.5.4-.1.9-.2 1.2-.4l-.2-.4.7.8c.3-.2.5-.4.7-.5.1-.1.2-.2.3-.2 0 .1.1.1.1.2.2.2.4.2.6 0 .2-.2.4-.4.4-.8 0-.5-.4-.8-.9-.9 0-.1-.2-.3-.3-.3-.2-.1-.5-.1-.8-.1-.2 0-.4 0-.5.1.1-.1.1-.3.2-.5 0-.3-.2-.5-.4-.5h-.5-.1c-.1-.9-1-1.3-1.6-1.8-.1-.1-.3-.1-.5 0-.1.1-.2.3-.2.4v.3c0 2-1.2 4-3.3 5.7-.8.6-1.6 1-2.5 1.4 3.4-2.6 6.3-6.9 5.4-12.3 1.3-.4 2.9-1.4 3.6-2 1-.3 2.2-.7 2.9-1 .6.5.7 1.2.9 1.9.3-.2.7-.8 1-1.3.1 1.3.5 2.5 1.1 3.3h.5c-1.3.7-1.6 1.6-1.9 2.6-.2.8-.1 1.5-.2 2.3.1.9.4 1.4.9 2.1.1-.2.2-.3.3-.5 0 0 .9.9.5 1.8s-1.2 2.4-2.1 3c-1.4.6-2.8.2-3.4.1-1.3.3-1.9 2.3-1.9 3.2.1.2.3.3.6.4v.4c.4.2.8.3 1.4.3.1.1.4.2.6.3.3.1 1.7-.1 2-.4.6.1 1.3-.3 1.7-.5 1.8-.2 5.2-2.3 6.4-5.9-.5-.8-.6-1.7.1-2.5.3.9.6 1.6 1.3 2l.2-.4c.5.3 1 .7 1.5.8.1-.2-.1-.7-.2-1 .7.1 1.5.6 2 1.1 1 1.7 0 2.7-.3 4-.4.1-.9.2-1.3.3-.7.7-1 1.4-.6 2.6.1.1.4.1.6.1 0 .3.8.6 1.6.5.6.1 1.2.2 1.8-.1.6.3 1.1.2 1.7-.1.3-.2.5-.4.5-.7.2-.2.9-1.7 1.1-2.7.3-2.8.3-4.6.3-6-2.8-1.9-3.5-3.5-3.1-5.7 0 0 .1-.6.3-1.1v-.1c1.4-.9 3-1.5 4.3-2.6.9-.9 1.3-2.1 1.2-3.8-.2-2.6-1.4-4.6-3.2-6.4-1.3-1.2-2.9-1.9-1.3-2.5.8-.3.8-1.1.5-2.2-.8-2.9-1.4-4.6.6-4.4-2.7-2.9-4.2.5-4.7 3-.1 1.5 0 3 .9 4.5 1.7 2.5 4.8 3.1 5.5 6.6.2 1.7.1 3-.9 3.9-.7.6-1.6.9-2.4 1.4-.7.4-1.4.9-1.9 1.6-1.2-.8-2.7-2.2-3.2-5.2v-.9c-.1.3-.1.6-.2.9 0-.3-.1-.6-.1-1 0 4.4 1.7 6.1 4.2 7.1-1.3 4 1.5 6.2 2.9 7.2.4 1.9 0 5.8-.9 7.7h.2c0 .1 0 .3-.1.4h-.3c.1-.1.1-.3.2-.4-.1 0-.1.1-.2.2-.2.6-1 .8-1.2.7-.2-.3-.3-.7-.2-1 0-.1.4-.4.4-.7-.1.3-.5.5-.6.6-.2.4-.2.7-.1 1-.1.2-.2.3-.5.3-.2 0-.6.1-.7-.1 0-.3 0-.8.2-1.2.1-.1.5-.3.5-.7-.2.3-.6.4-.8.5-.3.4-.3.8-.3 1.2-.1.1-.2.2-.5.2-.2 0-.6 0-.7-.2 0-.4.1-.8.3-1.2.1-.1.9-.2 1.1-.6-.3.2-1.2.2-1.3.3-.3.4-.4.8-.4 1.2h-.4c-.4-.4 0-1.4.4-1.7.2-.1 1.1-.1 1.6-.3 2.8-5.8-.9-5.8-3.1-6.2-.1.1-.1.2-.1.5-.5-.5-.7-1.3-.8-1.6-.1.2-.4.3-.3.9-.3-.5-.7-2-.6-2.8-.3.3-.4.5-.5.9-.3-1.4.5-2.7.2-3.6 0 .3-.1.5-.2.7-2.2-2.7-4.2-1.7-5.3-4-.2-.1-.3-.2-.4-.3 0-.1-.1-.2-.1-.3l-.1-.1c0 .1.1.2.1.3l-.3-.6v-.3c.2.2.3.5.3.7l.5.6c-.7-.9-.4-1.8-1.6-2.6.2.6-.3 1.1-.4 1.3-.1-.3-.3-.8-.5-1.1l-.2-.2c.3.5.6 1.2.7 1.6-.1-.4-.7-1.2-1-1.7.6-.2 1.4-.4 2.1-.3.2.2.4.5.5.9.2.8.4 1.5.9 1.8-.5-.4-.6-1.1-.8-1.8-.2-.7-.5-1.3-.9-1.6h.8s.1 0 .1-.1v.1h.2c0-.1.2.1.2 0v.1h.1c-.2-.6-.8-.8-1-.9.1-.2.5-.4 1-.5 0 0 .1-.1.2-.1v.1c.9-.4 1.6-.5 1.9-.5-.4-.6-1.4-.5-2.3-.3.5 0 .7-.1 1.3.2-1.3.1-1.9.5-2.5 1.2.5-.1 1.1 0 1.2.5-.4-.3-2.5-.3-2.5.5.4-.1.9-.1 1.1.2-1 0-2 .2-2.8.5-1.3.7-2.7.5-3.8 1.4-.6.5-1.2.9-1.8 1.2-.2.1-.4.2-.6.2-.2.1-.4.1-.6.1h-.3c-.1 0-.2 0-.3-.1-.1 0-.1-.2-.1-.5.1-.5.4-1.1.8-1.6l.1-.1h-.1l-.5.5c-.1.1-.2.3-.3.4-.1.2-.2.5-.2.7l-.3.1h-.3c-.2.4-.5.6-.6.6l-.2.1c-.2.2-.4.3-.4.3l-.3.1c-.2.4-.5 1.1-1.1 1.6-2.1 2.1-5 3-6.5 3-1.6 0-2.6-.5-2.7-1.3 0-.7.6-1.2 2.9-1.9l5.9-1.7c-.1-1.2-1.2-1.4-2.5-1.5-1.3-.1-2.6.1-2.7-.7.1-1.2 4-1.7 4.1-4 0-.8-.5-1.2-1.1-1.2-1 0-3.4 1.1-6.9 6.4-.6.9-1.3 1.9-1.8 3-.2.3-.3.6-.5.6s-.3-.2-.4-.4l-.3-.7c-.1-.2-.1-.3-.1-.5 0-.4 1.1-1.8 2.3-3.3 1-1.2 1.5-2.4 1.5-3.7 0-.7-.2-1-.5-1.2 0 0-.1 0-.1-.1h-.1-.2-.1c-.5 0-.8.5-1 .7-.2.2-.3.5-.5.5-.1 0-.1-.1-.1-.1v-.1c0-.2.1-.4.1-.5-.1 0-.2-.1-.2-.2s.1-.2.1-.2c.6-.5 1.2-.7 1.6-.7.4 0 .7.1.7.1.7.4 1 1.2 1 2.1 0 .6-.1 1.1-.2 1.4 1.4-1.4 4.1-3.9 6.3-3.9 1.2 0 1.7.9 1.7 1.7 0 2-2.6 3.1-3.2 3.4h1c2.3 0 3.7.7 3.7 2.2v.4c.1 0 .2-.1.3-.1.3-.1.5-.3.7-.4-.1-.1-.1-.2-.1-.4v-.1c0-.1.1-.2.2-.3.3-.5.8-.9 1.3-1.3 0-.1-1 .4-1.4 1-.1.1-.1.2-.1.4 0-.1-.2-.1-.3-.2-.5-.3-.2-.8.1-1.1 0 0 .1 0 .1-.1 0 0 .1 0 .1-.1l.1-.1.6-.3c.2-.1.3-.1.5-.2.2 0 .3-.1.5-.1 0-.1-1.3 0-1.8.5l-.1-.1-.1-.1c-.4-.1-.3-.5-.1-.8.1-.1.2-.2.3-.2.6-.2 1.2 0 1.8.1.2 0 .4.1.6.1h.6c1.2-.2 2.4-.9 3.4-1.6.9-.6 1.4-1.2 2.3-1.8 1-.6 1.2-.4 2.2-1.1.1-.4.5-1 .9-1.6-.1 0-.1 0-.2-.1 0-.6.5-1 .9-1.6.3-.4.4-1 .3-1.5.1-.2.2-.4.2-.6.1-.3.1-.7.1-1v.2c.2.8.6 1.5.3 2.2-.2.3-.4.6-.4.9-.3-.4-.2-.8 0-1.2.1-.2.2-.4.3-.7-.1.3-.3.5-.4.8-.2.4-.2.9.2 1.4-.1-.5.3-.8.5-1.3 0-.1.1-.2.1-.2l.2-.2c-.1.2-.1.5-.1.8.1.7.2 1.3-.1 1.8.6-.3.8-.7.9-1.2.2-.2.4-.4.5-.6.1.5.2 1 0 1.4.6-.4.8-1 .8-1.6.1-.1.2-.3.3-.4.1.5.2.9 0 1.4.7-.5.8-1.1.8-1.7 0-.2 0-.3-.1-.5.2.6.4 1 .2 1.6.5-.4.6-.8.7-1.3.1.4.1.8 0 1.2.7-.5.9-1.2.9-1.9 0-.5-.2-.9-.2-1.3 0 .4.1.7.1 1.1 0 .6 0 1.2-.6 1.6.2-.5 0-1-.2-1.7v-.3.1c.5-.6.5-1.2.3-1.8l-.6-1.2c.1.3.3.6.4.9.2.5.3 1.1-.1 1.7.1-.5-.2-.8-.5-1.2.1-.6-.1-1.2-.4-1.6-.2-.3-.4-.5-.6-.7h-.1c.1.2.3.3.4.5.4.5.7 1.2.3 2-.1-.7-.6-1-1.1-1.5-.3-.3-.4-.8-.4-1.2 0 .5.1 1.1.5 1.5.3.4.6.7.9 1 .1.1.1.3.2.4.2.5.3 1.1-.2 1.7.1-.6-.3-1-.6-1.5-.2-.4-.2-.8-.1-1.2-.2.5-.2 1 0 1.5.3.7.7 1.2.6 1.9.1-.2.3-.3.3-.5 0 .2.1.4.1.7.1.5 0 1.1-.5 1.5.2-.4 0-.8-.1-1.2.1-.3.1-.5 0-.8 0-.4-.2-.7-.3-1.1 0 .3.1.6.2.9.1.5.1 1.1-.4 1.5.2-.5-.1-.9-.3-1.5.4-.6.4-1.3.2-1.8-.1-.2-.2-.5-.3-.7h-.1c0 .1.1.2.1.3.2.6.3 1.3-.2 2 .1-.7-.4-1.1-.7-1.8-.2-.4-.2-.8-.1-1.2-.2.5-.2 1.1.1 1.6.3.7.7 1.2.7 1.9 0-.1-.1-.2-.1-.3 0 .2.1.4.1.5.1.5.1 1.1-.4 1.5.2-.5-.1-.9-.3-1.5v-.5-.2c0-.1 0-.3.1-.4 0 .1-.1.1-.1.2V22c0-.3-.1-.6-.2-.9 0 .2.1.3.1.5.1.6.1 1.3-.6 1.9.2-.6-.1-1.2-.3-1.9-.1-.4 0-.9.1-1.3-.2.4-.3.8-.3 1.2 0 .3-.1.5-.1.8-.1.6-.3 1.3-1.2 1.6.4-.5.2-1.2.3-1.9 0-.5.3-1 .7-1.3-.5.4-.8.9-.9 1.5-.1.7 0 1.4-.3 1.9-.5.4-.9.6-1.1 1.1-.1-.7.2-1.2.6-1.6.2-.2.5-.4.7-.6-.3.3-.6.4-.9.7-.4.5-.7 1.1-.5 1.9.2-.6.8-.9 1.3-1.3h.1l-.1.1-.3.9v.2c0 .3.1.6.2.9h-.1c-.4.5-.8 1.1-.9 1.5-.6.5-1.5.5-2.4 1.3 0-.3-.1-.7-.2-1 0-.1-.1-.3-.1-.4-.4-.2-1.2-.6-1.4-.6l-.2.3c-.5-.4-.7-.7-1.3-.9l-.5-.2c-.4-.4-.7-.6-1.2-1-.3 0-.7-.3-.9-.5v-.1c.1.1.3.1.4.2 0 0-.9-1-1.3-1.4l-.1-.1c-.2-.2-.4-.3-.5-.5-.1-.2-.3-.4-.3-.7-.2-.3-.8-.7-1.3-1.1-.2-.2-.4-.5-.6-.8-.1-.3-.2-.5-.2-.8.1-.1.2-.2.4-.2.4.1.2.3 1.1.5-.6-.3-.7-.7-.9-.8H56c0-.7.5-1 .8-.8.4.2.3.7.9 1.2-.5-.7-.4-1.2-.7-1.5-.2-.1-.3-.2-.5-.2.2-.3.6-.3.7-.3.6.2 1 1.6 1.2 2.1.3.6.4 1.3.9 1.8 1.3 1.3 2.6 2.4 4.4 2.8.8.2 2.1.1 3 .2l.3-.3h-.2H67.1c-.1.1-.1.2-.2.3h-.2l-.1.1h.2l-.2.3h-.2c-.4.2-.4.3-.5.4l-.1.2c-.1.1-.1.2-.2.3h.2l-.2.2h-.2c0 .1-.1.1-.1.2h.2l-.1.2h-.2c-.2.3-.4.6-.6 1 0 .2.1.5.2.8.1 0 .2.1.2.1 0 .1-.1.2-.1.3.1.4.2.7.2.9.1-.1.3-.2.5-.3 0-.3-.5-1.5-.5-1.8 1.8-3.1 3.4-3.7 3.5-4.8.2-1 .3-2.5-.3-2.2 0 0 .1 0 .1-.1l-.1.1c-.5.2-1.3 1-1.3 1.3-.5.4-.9.9-1.2 1-.3 0-.8-.9-1-1.1 0-.1.4-.5.4-.5-.2-.2-.5-.5-.4-1.1.2.4.2.7.7.8 1.3.5 2.4-1.7 1.6-2.8-.6-.8-3.2-.6-4 .4.2.2.4.8.6 1.1-.3-.1-.7-.5-.7-.9-.1.1-.4.1-.5 0-.2-.1-.4-.7-.4-1.3.1-.1.2-.3.2-.4-.2-.4 0-.7.4-.9.4-.3.7-.3 1.2-.4-.1-.4.5-1.1 1.1-1.5.7-.4 1.4-.8 2.2-.8-.7-.1-1.2 0-1.7.2l.2-.1c-.6-.6 1.8-2 2.3-2.3-.2.3-.8 1-.3 1.4 1-1.3 2.7-1.3 3-1.9.2.4-.8.8-.8 1.2.7.1 1.9-1 3.2-.5-1.8.1-1.5.6-1.4.7.4-.5 3.2-.3 3.9.5-.5 0-.8.1-1.1.3-.4-.2-.8-.2-1.1-.1-.4.1-.7.4-1.2.5.4-.1.6-.3.9-.4.3-.1.7-.2 1.1.1-.3 0-.6.2-.9.4-.3.2-.6.1-1 0 .4.3.8.3 1.2.1.3-.1.5-.3.7-.4 1.4-.1 3 .7 3.4 1.9-.4-.2-.8-.1-1.1 0-.5-.8-1.1-1.1-1.8-1.2-.5 0-1 .1-1.5.1h1.2c.6 0 1.3.2 1.7.9-.6-.3-1.2-.1-1.9 0-.5 0-1.1-.2-1.5-.6.4.5 1 .8 1.7.8s1.3-.2 1.9 0c.6.5 1.9 1.9 2 3.6-.2-.4-.6-.8-.9-.8.3.3.7 4.2-.1 5.7 0-.3-.1-.7-.2-.9.7-.8.7-1.7.6-2.5-.1-.6-.4-1-.5-1.6 0 0-.1 0-.1.1h.1c.1.4.2.8.4 1.2.2.7.3 1.6-.4 2.3.2-.8-.3-1.4-.6-2.2-.1-.4-.2-.8-.1-1.2h.1c.3-1.2-1-1.8-1-1.8-.3-.2-1-.4-1-.4 1.4.6 1.8 1.9 1.6 1.8-.2-.1-.6-.2-.8-.2 0-.6-.3-1-.7-1.4-.5-.5-1.1-.6-1.6-1.3.4.5.8.7 1.2 1 .4.3.7.7.6 1.4-.2-.5-.7-.6-1.2-.9-.4-.3-.7-.8-.7-1.3v.4c-.2-.4-.5-.7-.9-.8-.5-.2-1-.2-1.5-.5.4.3.8.3 1.2.4.4.1.8.3.9.9-.3-.3-.7-.3-1.1-.3-.4-.1-.7-.4-.8-.8.2.5.5.9 1 1 .6.2 1.1.2 1.5.6 0-.1-.1-.3-.1-.4.1.4.3.8.7 1.1.6.5 1.3.7 1.5 1.4v-.1c.1.2.3.5.4.7.3.5.5 1.1 0 1.8 0-.6-.5-1-.9-1.5.1-.7-.2-1.2-.6-1.7-.3-.4-.6-.6-1-.9.2.2.5.4.7.7.4.5.8 1.1.6 1.9-.2-.6-.8-.9-1.3-1.4-.2-.2-.4-.5-.5-.7h-.1c.1.4.3.7.6 1 .6.6 1.3.9 1.5 1.7.1-.1.1-.3.1-.4.4.6.9 1.1.9 1.8l-.1.1c0 .1 0 .3.1.4 0 .1.1.2.1.3-.2.4-.2.9-.1 1.4.2.6.6 1.1.5 1.7.5-.6.6-1.2.5-1.8.2-.3.3-.7.3-1 .1.6.2 1.5 0 2 .5-.6.7-1.5.9-2.4.2.2.5.4.6.8-.3-.3-.6-.3-.6-.3 1.8 1.5-.1 8.2-.1 8.2.5-1.3.8-2.4 1-3.3-.1.9-.3 1.9-.6 3.1.9-2.3 1.2-4.3 1.3-6 .1-1.8-1.2-2.3-1.2-2.3.1-.9.1-2.1.1-2.1.1.1.3.2.5.2.2-1.3.2-3.2-.4-4.1.5-1.1-.5-3-2.1-3.7-.6-.7-1.7-1.2-2.7-1.3-.8-.5-1.2-.6-2.6-.3.2-.3 0-.7-.4-1-.6.6-1.5.8-2.2 1.2l-.3-.6c-1.3.7-4 1.3-3.5 2.9-.4.5-.9.9-1.4 1.4-1.2.5-2 1.1-2.4 2.2 0 .3 0 .5.3.5 0 .7.4 1.2.9 1.7.1 0 .4-.1.5-.1.5.3 1 .6 1.6.9.1.3.3.6.4.8l-.3.6c.3.7.7 1.3 1.4 1.9.2 0 .6-.5.8-.6.5-.4.8-.4 1.3-.7-.2.7-.9 1.4-1.6 1.8-.8-.1-2 0-2.7-.3-1.4-.7-2.7-1.6-3.7-2.6-.3-.5-.8-.9-.8-1.3-.1-.5-1-3-2.3-2.6-.5-.4-1.4-.2-1.6.8.2 0 .5-.1.7.1-.5-.1-1.2.3-1.1 1 .2-.1.3-.1.5 0-.4.2-.9.6-.7 1.5-.7-.1-1.5-.1-2.4-.1-4.8 0-7.8.8-7.8.8s-2.2-.8-7.6-.8c-.9 0-1.8 0-2.6.1.2-.9-.3-1.3-.7-1.5.2-.1.4 0 .6 0 .1-.7-.6-1.1-1.1-1 .2-.2.5-.2.7-.2-.2-1-1.1-1.1-1.6-.8-1.3-.4-2.2 2-2.3 2.6-.1.5-.5.9-.8 1.3-1 1-2.3 1.9-3.7 2.6-.8.3-1.9.3-2.7.3-.7-.4-1.4-1.1-1.6-1.8.5.4.8.4 1.3.7.2.2.6.6.8.7.6-.6 1.1-1.2 1.4-1.9l-.3-.6c.1-.3.3-.6.4-.8.6-.3 1.1-.6 1.6-.9.1 0 .4.1.5.1.4-.6.9-1.1.9-1.7.4 0 .3-.2.4-.5-.5-1.1-1.2-1.7-2.4-2.2-.5-.5-.9-.9-1.3-1.4.5-1.6-2.2-2.2-3.5-2.9-.8.3-.8.5-1 .7-.7-.4-1.6-.6-2.2-1.2-.4.3-.6.7-.4 1-1.4-.3-1.7-.2-2.5.3-.9.1-2.1.6-2.7 1.3-1.6.6-2.6 2.5-2.1 3.7-.6.9-.7 2.8-.4 4.1.2 0 .4-.1.5-.2 0 0-.1 1.2.1 2.1 0 0-1.3.6-1.2 2.3.1 1.7.4 3.7 1.2 6-.3-1.2-.5-2.2-.6-3.1.2.9.5 2 1 3.3 0 0-1.9-6.7-.1-8.2 0 0-.3 0-.6.3.2-.3.4-.5.6-.8.1.9.4 1.8.9 2.4-.1-.4-.1-1.4 0-2 0 .3.1.7.3 1-.1.6-.1 1.2.5 1.8-.1-.6.2-1.1.5-1.7.2-.5.1-1-.1-1.4 0-.1.1-.2.1-.3 0-.1.1-.3.1-.4 0 0-.1 0-.1-.1 0-.7.5-1.2.9-1.8 0 .1 0 .3.1.4.1-.8.8-1.1 1.5-1.7.3-.3.5-.7.6-1h-.1c-.1.3-.3.5-.5.7-.6.5-1.2.7-1.3 1.4-.3-.9.1-1.4.6-1.9l.7-.7c-.3.3-.7.5-1 .9-.4.5-.6 1-.6 1.7-.4.5-.9.9-.9 1.5-.5-.7-.3-1.3 0-1.8.1-.2.3-.5.4-.7v.1c.2-.6.9-.9 1.5-1.4.4-.3.6-.6.7-1 0 .1-.1.2-.1.4.3-.4.9-.4 1.5-.6.5-.2.9-.5 1-1-.2.4-.5.7-.9.8-.4.1-.8.1-1.1.3.1-.6.5-.7.9-.9.4-.1.7-.2 1.2-.4-.6.3-1 .3-1.5.5-.4.2-.7.4-.9.8v-.4c0 .5-.2 1-.7 1.3-.5.3-1 .4-1.2.9-.1-.7.2-1.1.6-1.4.4-.3.8-.5 1.2-1-.5.6-1.1.8-1.6 1.3-.4.4-.6.8-.6 1.4-.2 0-.6.2-.8.2-.2.1.2-1.2 1.6-1.8 0 0-.7.2-1 .4 0 0-1.3.7-1 1.8h.1c.1.4 0 .8-.1 1.2-.3.8-.7 1.4-.6 2.2-.7-.8-.6-1.6-.4-2.3.1-.4.3-.8.4-1.2h0c-.2.6-.4 1-.5 1.6-.2.8-.1 1.7.6 2.5-.1.3-.2.6-.2.9-.8-1.5-.4-5.4-.1-5.7-.3 0-.8.4-.9.8.1-1.7 1.4-3.1 2-3.6H12c.6-.2 1.2-.1 1.9-.1s1.3-.3 1.7-.8c-.4.4-.9.7-1.5.6-.7-.1-1.3-.3-1.8 0 .4-.8 1.1-.9 1.7-.9h1.2c-.5 0-1-.1-1.5-.1-.7.1-1.3.4-1.8 1.2-.3-.1-.7-.1-1.1 0 .4-1.2 1.9-1.9 3.4-1.9.2.1.5.2.7.4.4.2.8.1 1.2-.1-.3.2-.7.2-1 0-.3-.2-.5-.5-.9-.4.4-.3.7-.2 1-.1.3.1.5.3.9.4-.5-.1-.8-.4-1.2-.6-.3-.1-.7-.1-1.1.1-.2-.2-.5-.3-1.1-.3.7-.7 3.5-.9 3.9-.5.1-.1.4-.7-1.4-.7 1.3-.4 2.5.7 3.2.6 0-.4-1-.7-.8-1.2.3.6 2 .6 3 1.9.5-.4-.1-1.1-.3-1.4.5.3 2.9 1.7 2.3 2.3l.2.1c-.5-.2-1.1-.3-1.7-.2.9 0 1.6.4 2.2.8.7.4 1.3 1.1 1.1 1.5.4.1.7.1 1.2.4.4.3.6.6.4 1-.1.2 0 .3.1.4-.1.6-.2 1.2-.4 1.3h-.5c0 .4-.5.8-.7.9.2-.3.4-.9.6-1.1-.8-1.1-3.3-1.3-4-.4-.8 1.1.3 3.3 1.6 2.8.4-.2.5-.5.7-.8.1.5-.3.8-.4 1.1 0 0 .4.4.4.5-.2.2-.7 1.1-1 1.1-.3-.1-.6-.6-1.2-1 0-.3-.8-1.1-1.3-1.3l-.1-.1s.1 0 .1.1c-.5-.3-.4 1.2-.3 2.2.1 1.1 1.7 1.7 3.5 4.8 0 .3-.5 1.5-.5 1.8.2.1.4.2.5.3 0-.2.1-.5.2-.9 0-.1 0-.2-.1-.3 0 0 .1-.1.2-.1.1-.3.2-.6.2-.8-.2-.4-.4-.7-.6-1h-.2l-.1-.2h.2c0-.1-.1-.1-.1-.2h-.2l-.2-.2h.2c-.1-.1-.1-.2-.2-.3l-.1-.2c-.1-.1-.1-.2-.2-.3h-.2l-.2-.3h.2c0-.1-.1-.1-.1-.1h-.2c0-.1-.1-.2-.2-.3H21.7h-.2l.3.3c.9-.1 2.2-.1 3-.2 1.8-.4 3.2-1.5 4.4-2.8.5-.5.6-1.1.9-1.8.2-.5.6-1.9 1.2-2.1.1 0 .5 0 .7.3-.2 0-.3.1-.5.2-.3.2-.2.8-.7 1.5.7-.4.6-.9.9-1.2.2-.1.8.1.8.8 0 0-.1 0-.1.1-.2.1-.3.5-.9.8.9-.2.7-.4 1.1-.5.1 0 .3.1.4.2 0 .3-.1.6-.2.9-.2.3-.4.5-.6.8-.5.5-1 .8-1.2 1.1 0 .1-.1.2-.1.4-.2.3-.4.5-.7.8h-.1c-.4.3-1.5 1.6-1.5 1.6.1 0 .3-.1.4-.2v.1c-.3.3-.6.5-.9.5-.5.3-.8.5-1.2.9l-.5.2c-.6.2-.8.5-1.3.9l-.2-.3c-.3 0-1 .4-1.4.6 0 .1-.1.3-.1.4-.1.3-.2.8-.2 1-1-.8-1.8-.8-2.4-1.3-.1-.3-.5-.9-.9-1.5h-.1c.2-.3.2-.6.2-.9V26v-.1c0-.3-.1-.6-.3-.9 0 0 0-.1-.1-.1h.1c.5.5 1.1.7 1.3 1.4.2-.8-.1-1.4-.5-1.9-.3-.3-.6-.5-.9-.8.2.2.4.4.7.6.4.4.7.8.6 1.5-.2-.5-.7-.7-1.1-1.1-.3-.5-.2-1.2-.3-1.9-.1-.7-.4-1.2-.9-1.5.4.4.7.8.7 1.3 0 .7-.1 1.4.3 1.9-.8-.3-1-1-1.1-1.6 0-.2-.1-.5-.1-.8 0-.4-.1-.8-.3-1.2.2.4.3.9.1 1.3-.2.7-.6 1.3-.3 1.9-.7-.6-.7-1.2-.6-1.9 0-.2.1-.4.1-.5h-.1c-.1.3-.2.6-.2.9v.3c0-.1-.1-.1-.1-.2v.1c.1.1.1.3.1.4v.7c-.2.6-.4 1-.3 1.5-.5-.5-.5-1-.4-1.5 0-.2.1-.4.1-.6 0 .1-.1.2-.1.3 0-.6.4-1.2.7-1.9.2-.5.2-1.1.1-1.6.1.4.1.9-.1 1.2-.3.7-.8 1.1-.7 1.8-.6-.7-.4-1.4-.2-2 0-.1.1-.2.1-.3h-.1c-.1.2-.2.4-.3.7-.2.6-.2 1.2.2 1.8-.2.6-.4 1-.3 1.5-.5-.5-.5-1-.4-1.5 0-.3.1-.6.2-.9-.1.4-.2.7-.3 1.1 0 .3 0 .5.1.8-.1.4-.3.8-.1 1.2-.6-.4-.6-1-.5-1.5 0-.2.1-.5.1-.7.1.2.2.3.3.5-.1-.7.3-1.2.6-1.9.2-.5.2-1 0-1.5.1.4.1.8-.1 1.2-.3.6-.7 1-.6 1.5-.5-.6-.4-1.2-.2-1.7.1-.1.1-.3.2-.4.3-.3.6-.6.9-1 .3-.4.5-1 .5-1.5 0 .4-.1.9-.4 1.2-.5.5-1 .9-1.1 1.5-.4-.8-.1-1.4.3-2 .1-.2.3-.3.4-.5h-.1c-.2.2-.4.4-.6.7-.3.5-.5 1-.4 1.6-.3.4-.5.8-.5 1.2-.5-.6-.3-1.2-.1-1.7.1-.3.3-.6.4-.9-.2.4-.4.7-.6 1.2-.2.6-.2 1.2.3 1.8v-.1.3c-.1.6-.4 1.1-.2 1.7-.6-.5-.6-1.1-.6-1.6 0-.4.1-.7.1-1.1-.1.5-.2.9-.2 1.3 0 .7.2 1.4.9 1.9-.2-.4-.1-.8 0-1.2 0 .5.2.9.7 1.3-.2-.5 0-1 .2-1.6 0 .2-.1.3-.1.5 0 .6.1 1.2.8 1.7-.2-.5-.1-.9 0-1.4.1.1.2.3.3.4 0 .6.2 1.1.8 1.6-.2-.5-.1-.9 0-1.4.1.2.2.4.5.6.1.5.4.9.9 1.2-.3-.5-.1-1.1-.1-1.8 0-.3 0-.5-.1-.8l.2.2c0 .1 0 .1.1.2.2.5.5.8.5 1.3.4-.5.3-1 .2-1.4-.1-.3-.3-.5-.4-.8.1.2.2.4.3.7.2.4.3.8 0 1.2 0-.4-.2-.6-.4-.9-.3-.7.1-1.4.3-2.2V22c0 .3 0 .7.1 1 0 .2.1.4.2.6-.1.5 0 1 .3 1.5.4.6.8 1 .9 1.6-.1 0-.1.1-.2.1.5.6.8 1.2.9 1.6 1 .6 1.2.4 2.3 1.1.9.6 1.5 1.2 2.3 1.8 1 .7 2.1 1.3 3.4 1.6h.8c.2 0 .4-.1.6-.1.3-.1.6-.1.9-.1h.3c.2 0 .3 0 .5.1s.4.3.5.5c.1.2.1.4-.1.5h-.1l-.3.1c-.4-.5-1.5-.6-1.7-.5h-.1.1c.3.1.6.1.8.2h.1l.6.3.1.1s.1.1.2.1l.1.1c.3-.5.7-.8 1.1-1 0 0 .1 0 .1-.1 0 0 .5-.2 1.1-.2.2 0 .5 0 .7.1.8.3 1.6.7 1.8 2.2v.1c0 1.1-1.1 1.9-2 1.9-.2 0-.5-.1-.7-.2 0 0-.5-.4-.7-.8l-.6-.2.2.1h.2c.1 0 .2 0 .2-.1.2-.1.8-.6 1.5-.6.3 0 .6.1.8.3v-.4c0-.2 0-.4-.1-.7-.2-.6-1-1.2-1.9-1.2-.2 0-.5 0-.7.1-.1 0-.1.1-.2.1-.1.1-.3.2-.5.3 0 0-.1 0-.1.1-.3.3-.6.8-.6 1.5 0 1.5 1.5 2.6 3.8 2.6 2.9 0 6.5-2.3 6.5-4.6 0-1-.7-1.2-1.8-1.2h-3.3c-1.1 0-3-.4-3-2.5 0-2.5 2.7-4.3 5.7-4.3 1.1 0 1.4.4 1.6.7.1.1.1.3.1.4 0 .6-.7.9-1.1.9-.1 0-.2 0-.2-.2v-.1c.2-.3.3-.5.3-.6 0-.2-.1-.4-1-.4-1.2 0-4 1.1-4 3.1 0 1.1.8 1.2 1.8 1.2h3.1c1.6 0 2.8.4 2.8 2.1 0 2.4-3.5 6.8-8.2 6.8-2.5 0-3.7-1.2-4.1-2.4l-.2.2c.1 0 .1-.1.2-.2.1 0 .1-.3.1-.6v-.3c-.2.1-.3.1-.5.1l-.3-.1c0-.1 0-.3-.1-.5-.1-.1-.1-.3-.2-.4-.2-.2-.3-.4-.5-.6l-.2-.2c.1.1.1.2.2.3.3.4.6.9.7 1.3 0 .3 0 .4-.1.6-.1.1-.2.1-.3.1h-.1c-.2 0-.4 0-.6-.1-.2 0-.4-.1-.6-.2-.7-.3-1.4-.8-2-1.3-1.1-.9-2.5-.7-3.8-1.4-.8-.3-1.8-.5-2.8-.5.2-.3.7-.3 1.1-.2-.1-.9-2.1-.8-2.5-.5.2-.5.7-.6 1.2-.5-.6-.7-1.2-1.1-2.5-1.2.6-.2.8-.2 1.3-.2-.8-.2-1.9-.3-2.3.3.3 0 1 .1 1.7.3l.1-.1s.1.1.2.1c.5.2.9.3 1 .5-.2.1-.8.3-1 .9h.1v-.1c0 .1.2-.1.2 0h.2v-.1s.1 0 .1.1h.8c-.4.3-.8.9-1 1.6-.2.8-.3 1.5-.8 1.8.5-.3.7-.9.9-1.8.1-.4.3-.6.5-.9.7-.1 1.4.1 2.1.3-.3.5-.9 1.3-1 1.7.1-.4.4-1.1.7-1.6l-.3-.1c-.2.4-.4.8-.5 1.1-.2-.3-.6-.8-.4-1.4-1.2.8-.9 1.8-1.6 2.6l.5-.6c.1-.2.2-.5.3-.7V34.8l-.3.6c0-.1.1-.2.1-.3l-.1.1c0 .1-.1.2-.1.3-.1.1-.2.2-.4.3-1.1 2.3-3 1.2-5.3 4-.1-.2-.1-.4-.2-.7-.3.9.5 2.2.2 3.6-.1-.4-.2-.6-.5-.9.1.8-.3 2.3-.6 2.8 0-.5-.2-.7-.3-.9-.1.3-.2 1.2-.8 1.6 0-.3-.1-.4-.1-.5-2.2.4-5.9.4-3.1 6.2.6.2 1.4.2 1.6.3.4.3.8 1.3.4 1.7H9c0-.4-.2-.8-.4-1.2-.1-.1-1-.1-1.3-.3.2.4 1 .5 1.1.6.5.8.6 1.3.6 1.6-.1.2-.5.2-.7.2-.2 0-.4-.1-.5-.2 0-.4 0-.7-.3-1.2-.1-.1-.6-.2-.8-.5 0 .3.4.6.5.7.2.4.2.9.2 1.2-.2.2-.5.1-.7.1-.3 0-.4-.1-.5-.3.1-.3.1-.6 0-1-.1-.1-.4-.3-.6-.6 0 .3.3.6.4.7.1.4 0 .7-.2 1-.2.1-1-.1-1.2-.7-.1 0-.2-.1-.3-.1.1.1.1.3.2.4h-.3c-.1-.1-.1-.3-.1-.4 0 0 .1 0 .2.1-1-1.9-1.3-5.8-.9-7.7 1.5-1 4.3-3.2 3-7.2 2.5-1.1 4.2-2.7 4.2-7.1 0 .4-.1.7-.1 1-.1-.3-.2-.6-.2-.9v.9c-.6 3-2 4.4-3.2 5.1-.6-.6-1.2-1.1-2-1.6-.9-.6-1.8-1-2.5-1.6-1-.9-1.2-2.2-.9-3.9.7-3.5 3.8-4 5.5-6.5.9-1.5 1.1-3 1-4.5-.5-2.5-2.1-5.9-4.7-3 2-.2 1.5 1.5.6 4.4-.3 1-.3 1.9.5 2.2 1.7.6 0 1.3-1.3 2.5-1.8 1.7-3 3.7-3.2 6.4-.1 1.7.2 2.8 1.2 3.8 1.2 1 2.7 1.6 4.1 2.5zm78.1-1.6c.9-.8 3.3-1.5 3.3-4.8 0-.3 0-.6-.1-1-.3-3-2.5-4.4-4.3-5.8-1.5-1.2-2.2-2.8-2.2-4.7v-.8c.3-1.9 1.3-3.8 2.4-3.8.2 0 .5.1.8.2-.3.1-.5.2-.6.3-.2.3-.3.6-.3 1 0 .9.4 2 .8 3.4.1.4.2.8.2 1 0 .7-.4.8-.9 1-.4.2-.6.4-.6.7.1.7 1 1.3 1.6 1.9 1.8 1.5 3.4 3.5 3.6 6.5h.2-.2v.4c0 2.8-2.1 3.8-4.3 4.9-.2.1-.4.2-.5.3.4-.2.7-.4 1.1-.7zm-12.3 1.8h.1c-.8.8-1.5 2-1.4 3.2.1-1.5 1-2.5 1.6-3.1.1 0 .2.1.3.1-.9.8-2.1 2.6-1.3 4.7-.5-2.2.9-3.8 1.6-4.6 0 0 .1 0 .1.1-.6.7-1.5 1.5-1.4 2.9.1-1.2 1.1-2.3 1.6-2.8h.1c-.8.7-1.9 2.9-1.4 4.8-.3-2.3 1.1-4 1.6-4.7h.1c-.6.7-1.4 2.1-1.2 3.3-.1-1.2.9-2.7 1.4-3.2 0 0 .1 0 .1.1-.7.7-1.8 3-1.2 4.8-.4-2.1.9-4.1 1.4-4.6.1 0 .1.1.2.1-.6.7-1.2 1.7-1.2 2.9.1-1.2.8-2.3 1.3-2.8.1 0 .1.1.2.1-.7.7-1.9 3.1-1.3 4.9-.6-2 .9-4.2 1.4-4.7.1.1.2.1.3.2-.6.7-1.3 1.8-1.4 2.8.3-1.2 1-2.3 1.6-2.7 0 .1.1.1.2.2-.8.6-2.1 3.3-1.5 5.2-.5-2.1 1-4.6 1.6-5.1l.3.3c-.7.7-1.4 1.7-1.5 2.6.3-1.1 1-1.9 1.6-2.4v.1c0 .2-.1.3-.1.5-.8.6-1.9 2.6-1.6 4.7-.2-1.8.8-3.7 1.5-4.3-.1.9 0 1.7.2 2.2-1 .5-1.3 1.9-.6 3.3-.6 2-3 4.7-5.8 5.3 0 0-.1 0-.2.1-.4.2-1.1.4-1.4.4-.3.3-1.7.6-1.8.4 0-.4.1-1.1.3-1.5.3-.1 1-.2 1.2-.6-.3.4-1.2.4-1.4.5-.2.4-.3.8-.4 1.2-.1.1-.2.2-.3.2-.2 0-.5-.1-.7-.3 0-.4.5-1.4.7-1.7.3 0 1.1.1 1.5-.4-.5.3-1.3.1-1.7.2-.3.3-.5.9-.7 1.5-.1 0-.3-.1-.4-.1-.2-.5.7-2.1 1.2-2.2.7.3 1.7.2 2.5.1.9.1 3.4-1.8 3.8-4.2.2-1-.8-2.2-1.2-2.9-.2.1-.3.5-.4.9-.3-.5 0-2.1.2-2.4-.4.2-.5.4-.7.6.1-1.1.9-2 1.4-2.5-.3.1-.7.2-1 .5-.2-.9.7-1.8 2-2.2zM67.7 33c.1-.1.2-.1.4-.2.1.1.2.1.3.2h-.7zm5.9-10.2c.1-.4.1-.8 0-1.1.1-.1.1-.3.1-.4.3.4.5.8.5 1.3 0-.1-.1-.3-.1-.4 0 .2.1.4.1.6V23.4c.1.5 0 .9-.4 1.4.2-.5-.1-.9-.3-1.5.2-.3.1-.4.1-.5zm-1.6.9c0-.1 0-.2-.1-.3.1-.1.1-.2.2-.2.2.7.5 1.2.2 1.8.1 0 .1-.1.2-.2 0 .3-.2.7-.5 1 .2-.4 0-.8-.1-1.2.1-.3.1-.6.1-.9zm-1.3.3c.1-.2.3-.4.3-.6v.2c.1.3.2.6.2.8v.2c0 .5-.1 1.1-.7 1.4.2-.5 0-.9 0-1.5.1 0 .1-.3.2-.5zm-2.1.6c.5-.2.8-.5 1-.9 0 .4 0 .9-.3 1.2-.4.5-.8.8-.8 1.4-.3-.7-.2-1.3.1-1.7zm7.6-6zM76 25c.1-.5-.2-.9-.5-1.4-.1-.4-.1-.8 0-1.2.3.7.6 1.2.4 1.9.2-.1.3-.3.4-.5.1.4.1.8-.3 1.2zm.7-2.6V22c-.1-.5-.4-.9-.6-1.4.1.4.3.8.4 1.1.2.6.3 1.3-.4 2 .2-.6-.3-1.2-.5-1.8 0-.1-.1-.1-.1-.2.6-.8.5-1.5.2-2.1-.2-.4-.4-.7-.7-1 0-.2.1-.3 0-.4.4.4.8.5 1 .6-.1.5-.1 1 0 1.5.4.7.8 1.4.7 2.1zm-12.5-2.8c-.2-.4-.5-.7-.5-1.1.3-.4 2-.7 2.5.1.3.5.3 1.5-.6 1.6-.5-.1-.7-.8-1.4-.6zm-52.3-1.1zm.6 5c-.2.5-.6.9-.5 1.4-.3-.4-.4-.8-.3-1.2.1.1.2.3.4.4-.2-.7.1-1.2.4-1.9.2.5.2.9 0 1.3zm-.5-3.4c.2-.5.2-1 0-1.5.2-.1.6-.2 1-.6v.4c-.2.3-.5.6-.7 1-.3.6-.4 1.3.2 2.1 0 .1-.1.1-.1.2-.3.7-.7 1.2-.6 1.8-.6-.6-.5-1.3-.4-2 .1-.4.2-.7.3-1.1-.2.5-.4.9-.6 1.4v.4c.2-.6.6-1.3.9-2.1zm10.5.1c-.9-.2-.9-1.2-.6-1.6.5-.8 2.3-.5 2.5-.1-.1.4-.3.7-.5 1.1-.6-.3-.9.5-1.4.6zm-8.1 2.9c-.2.5-.5 1-.3 1.5-.4-.4-.5-.9-.4-1.4V23v-.1-.2-.1c.1-.2.1-.4.1-.6 0 .1-.1.3-.1.4 0-.5.2-.8.5-1.3 0 .1.1.3.1.4-.1.4-.1.8 0 1.1.2.3.1.3.1.5zm1.7 2.7c-.4-.3-.5-.6-.5-1 0 .1.1.1.2.2-.2-.6.1-1.1.2-1.8v-.1c0 .1.1.2.2.3 0 .1 0 .2-.1.3 0 .3 0 .6.1.9-.1.4-.2.8-.1 1.2zm1.4.4c-.6-.4-.7-.9-.7-1.4v-.2c.1-.3.2-.5.2-.8v-.2l.3.6c.1.2.1.5.1.7.1.3-.2.8.1 1.3zm2.1 0c0-.6-.5-.9-.8-1.4-.2-.3-.3-.8-.3-1.2.2.4.5.7.9.9.4.5.5 1 .2 1.7zm39.5-.5v.2c.8.6 1.7 1.2 2.5 1.7.1 0 .3-.1.4-.1.5.4 1 .7 1.4 1.1l.3-.3c.3.2.6.3.9.5l-.6.7c-.3.6-2.4 2-2.9 2.2-.2.2-.7.5-1.4.5h-.6c-.4-2.3-.7-5.1-.8-7.5.2.3.5.6.8 1zm-4.4-5.4v.2h-.3c.1-.1.2-.1.3-.2zm-20.9.2h-.3v-.2s.2.1.3.2zm-4.6 11.7c-.3 0-.5.1-.8.1-.6 0-1.2-.4-1.4-.5-.6-.2-2.6-1.6-2.9-2.2l-.6-.7c.3-.2.6-.3.9-.5l.3.3c.5-.4.9-.7 1.4-1.1.1 0 .3.1.4.1.8-.6 1.7-1.2 2.5-1.7v-.2c.4-.5.7-.9 1-1.2 0 2.4-.4 5.3-.8 7.6zm7.2-9.2c-2.4 0-3.5.8-3.5.8 0 3.5-.4 6.3-.8 8.5-.2-.2-.6-.3-1-.3l-.1-.1c-.1 0-.2 0-.3.1-.2 0-.5.1-.7.1.4-2.5.8-5.6.8-8.2.3-.3.6-.6.6-1.1.1 0 .2-.1.3-.2.1.2.2.2.4.2.2-.1.2-.2.2-.4 0-.1-.1-.1-.1-.2.2-.2.4-.4.5-.6.2-.2.4-.3.5-.5.9-.1 2-.2 3.3-.2 4 0 7.6.8 7.6.8s3.5-.8 7.8-.8c1.2 0 2.2.1 3.1.2.1.2.3.4.5.5.1.2.3.4.5.6l-.1.1c-.1.2 0 .3.2.4.1 0 .3 0 .4-.1.1.1.2.1.3.2 0 .6.4.9.8 1.3.1 2.6.4 5.6.8 8-.2 0-.4-.1-.7-.1v-.1c0-.2-.2-.3-.4-.3-.1 0-.2.2-.2.3-.4 0-.7.1-.9.2-.4-2.2-.8-5-.8-8.4 0 0-1.1-.8-3.6-.8-3.9 0-7.9.8-7.9.8s-3.5-.7-7.5-.7zm-9.7 22.4c-.3-.8-1.5-.6-1.5-1.4.6-.1 1 0 1.2.1-.4-.4-.5-1 .8-1.8-.1 1 .6 3.4 2.1 4.8 1 1 1.8 2.1 5.9 3.5-.7-.1-1.5-.3-2.2-.5-.8-.2-1.5-.5-2.2-.8l-.6-.3c-.3-.2-.5-.3-.7-.5-1.4-1.1-2.5-1.6-2.6-1.1-.1-.4.3-.5.9-.4.2 0 .5.1.7.2-.3-.3-.9-.4-1.5-.6-.2-.1-.3-.1-.5-.2-.4-.3-1.2-1-1.3-1.5.4 0 1.1.2 1.4.5l.2.2s0-.1-.1-.2zm8.8 6.5c-.2-.2-.3-.4 0-.6-.1.3.9.5 1.6.4h.8c.6 0 1.3.2 1.5.3h-1.2c-.8.1-1.5.3-1.9.4-1.1.4-2.6.3-3.5 0-.2-.1-.3-.1-.4-.2.5-.1.4-.4 1.2-.4h0c-.2-.1-.5-.2-.4-.4.4.1.9.1 1.2.1.6.1.8.3 1 .3h.3c-.1.2-.2.1-.2.1zm-2.8 1c-.1 0-.3 0-.3-.2h.3c.2 0 .4 0 .7.1.4.1 1.2.2 1.6.1-.3.1-1.3.4-1.9.4h-.7c-.3 0-.5-.1-.6-.2.5.1.5-.1.9-.2.1 0 0 0 0 0zM32 51h-.3c-.4 0-.7 0-.9.3-.1-.2 0-.4.1-.5-.5 0-.7.3-1.2 0 .1-.1.3-.2.4-.2h.1c.1 0 .2-.1.3-.1.2 0 .5-.1.7 0 .7 0 1.1.1 1.6.2h.2c.6.1 1.2.1 1.8 0-.6.3-1 .2-1.5.3-.4.1-.9.3-1.3.3-.1-.1 0-.2.2-.3.1-.1.2-.1.2-.2-.2.2-.3.2-.4.2zm-2.9.3c-.2 0-.4 0-.6-.1-.4-.1-.5-.3-.6-.5 0-.2 0-.3.2-.4h.1c.5-.3 1.5-.3 2.1-.3.6.1 1.5.2 2.4.5.2 0 .3.1.5.1-.1 0-.3-.1-.4-.1-.9-.2-2-.2-2.8-.1-.6.1-1.1.2-1.3.4-.2.2 0 .5.4.5zm-2.7-3.2c.1.1.3.2.6.3h.3c.3 0 .5-.1.7-.2 0 .3-.4.6-.9.6-.3 0-.6-.1-.7-.3v-.1c-.2-.3-.2-.6 0-.8-.2.2-.2.4 0 .5zm.5-.9c-.7.5.1 1 .8.9-.2.1-.5.2-.8.1-.1 0-.3-.1-.4-.1-.1-.1-.2-.2-.2-.3-.1-.3.2-.6.6-.6zm-2.3-.8c-.2-.1-.4-.2-.5-.3-.4-.4-1.2-.7-1.3-.2-.5-.7 1-.8 1.5-.4 0-.2-.3-.5-.5-.6.6-.1 1.1.2 1.2.6 0 .1.1.1.1.2.2.4.6.9 1.5 1.1-.7.1-1.5-.1-2-.4zm1.4 1.9c0 .2 0 .3.1.4v.1c.3.3 1.2.5 2.1.4.9-.1 1.7.2 2.5.5.3.1.7.3.9.4-.4-.1-.8-.2-1.2-.2-.8-.1-1.4 0-2.1.2h-.2c-1.4.2-2.9-.8-2.1-1.8zm1.8 3.3c-.4-.4-.4-.7.1-1.1v.4c.1.3.4.5.8.5.4.1.8 0 1.2-.1-.7.6-1.8.7-2.1.3zm1.8.5c.4-.4 1.1-.5 2-.4-.5 0-.9.2-1.2.4-.4.3-.5.7-.3 1 .1.2.3.4.6.5-1.2-.2-1.5-1.1-1.1-1.5zm.8 1.1c0-.1-.1-.1-.1-.2-.1-.4.1-.8.6-1 .3-.2.8-.2 1.2-.1-.9-.1-1.1.7-.8 1.1.2.2.4.4.7.5h.1c.5.2 1.3.2 2.3 0-1.8.4-3.4.5-4-.3zm12 .2c-1 .2-1.3.6-1.3.6 0-.1-.1-.3 0-.4-1.7.3-1.8 1.1-3.4.9.1-.3.3-.4.5-.6.1 0 .1-.1.2-.1h-.2c-.7.1-2 .2-2.9-.4.2 0 .4 0 .6-.1.8-.1 1.5-.5 2.5-.6.7-.1 1.7-.1 2.8.1.4.1.8.1 1.2.2.3.1.6.1 1 .2-.4.1-.7.1-1 .2zm.7-.3c-1-.3-1.9-.5-2.7-.6h-.1c-1.1-.1-2.2 0-3 .3-.5.2-1.1.3-1.7.5-1.1.3-2.3.4-3.2.2h-.2c-.1 0-.2 0-.2-.1H32.9c.5 0 1.1-.1 1.6-.3.8-.2 1.7-.5 2.4-.7.6-.2 1.2-.3 1.8-.4h.5c1.1 0 2.2.2 3.4.7.3.1.7.3 1.1.5-.2 0-.4-.1-.6-.1zm7 .7h-.2c.1.1.1.1.2.1.2.2.4.3.5.6-1.6.2-1.7-.6-3.4-.9.2.2.1.3 0 .5 0 0-.3-.5-1.4-.6-.3-.1-.6-.1-.9-.1.3-.1.6-.2 1-.2.4-.1.7-.1 1-.2 1.2-.2 2.2-.2 3-.1 1 .1 1.7.5 2.5.6.2 0 .4.1.6.1-.9.4-2.1.3-2.9.2zm2.7-.6c-.6-.1-1.2-.3-1.7-.5-.9-.3-1.8-.4-3-.3H48c-.9.1-1.9.3-2.9.6-.1 0-.2.1-.3.1.2-.1.5-.2.7-.3 1.3-.6 2.5-.8 3.7-.8h.5c.6 0 1.2.2 1.8.4.7.2 1.6.5 2.4.7.6.1 1.2.2 1.6.3H56.4 56c-.9.2-2.1.1-3.2-.2zm.1-1.9c.3.2.2.5 0 .6-.1 0-.1.1-.2.1h.3c.2 0 .4-.2 1-.3.4-.1.8 0 1.2-.1.1.2-.2.4-.4.4h-.2.2c.8 0 .6.3 1.2.4-.1.1-.3.1-.4.2-.8.3-2.4.4-3.5 0-.5-.2-1.2-.4-1.9-.4H49c.2-.1.8-.2 1.4-.3h.9c.6-.1 1.6-.3 1.6-.6zm6.7-.6c-.2-.2-.7-.3-1.3-.4-.8-.1-1.8 0-2.8.1-.2 0-.3.1-.5.1.1 0 .3-.1.5-.1.9-.3 1.8-.4 2.4-.5.7-.1 1.6 0 2.1.2 0 0 .1 0 .1.1.1.1.2.3.2.4 0 .2-.2.5-.6.6-.2 0-.3.1-.5.1.4 0 .6-.3.4-.6zm-4.4 0h.2c.5-.1 1-.2 1.6-.2h.7c.1 0 .2 0 .3.1h.1c.2.1.4.1.5.2-.5.3-.7 0-1.2 0 .2.1.3.3.1.5-.2-.4-.6-.2-1.2-.3-.1 0-.2 0-.4-.1l.2.2c.1.1.2.2.2.3-.4 0-.9-.2-1.3-.3-.5-.1-.9 0-1.6-.3.6 0 1.2 0 1.8-.1zm.4 2.2c.5 0 .4.3 1 .2-.1.1-.4.2-.6.2h-.7c-.6-.1-1.6-.3-1.9-.5.4 0 1.3 0 1.6-.1.3-.1.5-.1.7-.1h.3c-.1.3-.3.3-.4.3zm-1.7.6c1 .1 1.7.1 2.2 0h.1c.3-.1.6-.2.7-.5.3-.4.1-1.2-.8-1.1.5-.1.9 0 1.3.1.5.2.7.6.6 1 0 .1-.1.2-.1.2-.6.8-2.2.7-4 .3zm3.7.2c.3-.2.5-.3.6-.5.2-.4.1-.8-.2-1-.3-.2-.6-.3-1.2-.4.9-.1 1.6 0 2 .4.3.3 0 1.2-1.2 1.5zm2.9-2.1c-.4.4-1.4.3-2.1-.3.4.1.8.2 1.1.1.4-.1.7-.2.8-.5 0-.1.1-.3 0-.4.6.4.6.7.2 1.1zm-.2-1.6h-.2c-.7-.1-1.3-.2-2.1-.2-.4 0-.8.1-1.2.2.2-.1.5-.2.9-.4.7-.3 1.6-.6 2.5-.5.9.1 1.7-.1 2.1-.4.1-.1.1-.2.1-.4.7 1-.8 2-2.1 1.7zm.8-1.6h.3c.3 0 .5-.1.6-.3.1-.2.2-.3.1-.5.2.2.2.6 0 .8v.1c-.2.2-.4.3-.7.3-.5 0-.8-.3-.9-.6.1.1.3.1.6.2zm-.5-.3c.7 0 1.5-.5.8-.9.4.1.7.4.5.7 0 .1-.1.2-.2.3-.1.1-.2.1-.4.1s-.5-.1-.7-.2zm3.9-3.1c-.2.1-.5.4-.5.6.5-.4 2-.3 1.5.4-.1-.6-.9-.2-1.3.2-.3.3-1.5.7-2.5.7 1.1-.2 1.5-.9 1.6-1.3.1-.4.6-.7 1.2-.6zm-5.4 2.1c1.5-1.4 2.2-3.8 2.1-4.8 1.3.7 1.1 1.3.8 1.8.2-.1.6-.2 1.2-.1 0 .8-1.3.6-1.5 1.4 0 .1-.1.2-.1.3 0-.1.1-.1.2-.2.4-.3 1-.5 1.4-.5 0 .5-.8 1.2-1.3 1.5-.2.1-.3.2-.5.2-.5.2-1.1.3-1.5.6.2-.1.5-.2.7-.2.6-.1 1 0 .9.4-.1-.5-1.2 0-2.6 1.1-.2.2-.5.3-.7.5l-.6.3c-.7.3-1.4.6-2.1.8-.8.2-1.5.3-2.2.5 4-1.5 4.8-2.5 5.8-3.6zm-3.4-3.5c0-.1.1-.2.1-.2 0-.1.1-.1.1-.2 0 .1-.1.2-.2.4 0 0 0 .1-.1.2 0-.1 0-.2.1-.2zm.2-.4c0 .1-.1.2-.2.3-.1.1-.1.2-.2.3.2-.3.3-.5.4-.6zm-.3.6c0-.1.1-.1.1-.2 0 .1-.1.1-.1.2.1-.2.2-.3.3-.4.2-.2.3-.4.5-.6l.1-.1.1-.1s.1-.1.2-.1c0 0 .1-.1.2-.1h-.1c-.1 0-.2.1-.4.2-.1.1-.2.1-.2.2.2-.2.4-.4.6-.5 0 0 .1 0 .1-.1l.1-.1h.2l.1.1V42.5h-.1-.1c-.2.1-.5.5-.8.9 0 .1-.1.2-.1.2-.2.3-.3.5-.5.8 0 0 0 .1-.1.1-.6 1.1-1.5 1.9-2.1 2.4l-.1.1.3-.3.1-.1c.1-.1.2-.3.3-.4 0-.1.1-.1.1-.2.1-.2.3-.4.4-.6.1-.1.1-.2.2-.3l.3-.6c.1-.1.1-.3.2-.4.1-.2.1-.3.2-.3zm-1 .8v-.1-.1-.1l-.1-.1h-.1-.1c-.1 0-.1.1-.2.1.1-.1.1-.2.2-.2l.1-.1.1-.1h.1c.1-.1.2-.1.2-.1H55.1V44.1c-.1.3-.2.7-.4 1 0 0-.1.1-.1.2s-.1.2-.2.3c-.2.3-.3.5-.5.7-.1.2-.3.3-.4.5l-.2.2v.1c-.3.2-.6.5-.8.7 0 0-.1 0-.1.1.2-.1.3-.3.5-.5l.1-.1c.1-.2.3-.3.4-.5.1-.2.2-.3.3-.5 0 0 .1-.1.1-.2.4-.6.7-1.1.8-1.5zm-.6.6s-.1 0 0 0c-.1.1-.1.1-.2.1.1-.1.1-.1.2-.1-.1 0 0 0 0 0 0-.1 0 0 0 0zm.1-.8s0-.1 0 0l.1-.1c-.1 0-.1 0-.1.1zm-.4.5c0-.1 0-.1 0 0 0-.2 0-.2.1-.3v-.1l.3-.6c.2-.3.4-.6.5-.7.1-.1.1-.1.2-.1s.2-.1.3-.1c.1 0 .1 0 .2.1 0 .1 0 .1.1.2v.2l-.1-.1h-.1-.1s-.1 0-.2.1c-.2.1-.3.3-.5.5 0 .1-.1.1-.1.2 0 0 0 .1-.1.1 0 0-.1.1-.1.2s-.1.1-.1.2c-.2 0-.2 0-.3.2 0-.1 0-.1 0 0zm0 .1c0-.1 0-.1 0 0 .1-.1.1-.2.1-.2.1-.1.1-.2.2-.3 0 .1-.1.1-.1.2-.1.1-.2.2-.2.3-.1 0 0 0 0 0zm.1.4l.1-.1s.1 0 .1-.1V45.5c-.1.2-.2.5-.4.7-.1.2-.2.3-.3.5l-.1.1c-.3.4-.6.7-.9 1l-.3.3-.1.1c-.3.3-.7.6-.9 1v-.1-.1c.1-.2.2-.3.3-.5.1-.1.2-.3.3-.4 0 0 0-.1.1-.1 0-.1.1-.2.2-.3.1-.2.2-.4.3-.5 0-.1.1-.2.2-.2v-.1V47.2c0-.1 0-.1.1-.1.1-.1.1-.2.2-.2.3-.4.5-.6.5-.8V46v-.1l.1.1V46.3c.1-.1.1-.2.2-.3 0-.3.1-.5.3-.6zm-3.7 3.1H50c-.1 0-.1 0-.2.1 0 0-.1 0-.1.1 0 0-.1 0-.1.1H49.9s.1 0 .1.1c0 0 .1.1.1.2v.1h-.2c-.2 0-.5.1-.7.3-.1.1-.3.2-.4.3-.1.1-.2.2-.3.2-.4.3-1 .6-1.2.6 0 0 .1 0 .1-.1.1 0 .1-.1.2-.1.1-.1.1-.1.2-.1l.1-.1.3-.3v-.1l.2-.2c.1-.1.1-.2.2-.3.1-.2.2-.3.3-.5.1-.3.4-.6.6-.9l.3-.3.2-.2s.1 0 .1-.1c.3-.2.5-.4.7-.5 0 0 .1 0 .1-.1 0 0 .1 0 .1-.1h.2V46.9c-.1.1-.1.2-.1.3v.1s0 .1-.1.1c0 0 0 .1-.1.1v-.1c.1-.2.1-.4.2-.6v0l-.1.1c-.1.1-.1.2-.2.3 0 .1-.1.1-.1.2l-.1.1-.1.1-.3.3c-.1 0-.1.1-.2.2.1-.1.2-.1.2-.2l.3-.3h.1c.1 0 .1 0 .2-.1H51.1v.1c-.1 0-.1.1-.2.1-.2.1-.3.3-.5.4v.1l-.1.1c.1 0 0 .1-.2.2.1 0 0 0 0 0zm0 .7zm-.4-.6l-.1.1s.1 0 .1-.1zm-2.6 1.9c-.4.2-.8.3-1.2.3-.4 0-.9-.1-1.4-.4 0 0-.1 0-.1-.1h.2c.2 0 .3.1.5.1h.4c.2 0 .4 0 .5-.1.2 0 .4-.1.6-.2.1 0 .1 0 .2-.1.3-.2.6-.4.8-.6l.5-.5c.1-.1.1-.2.2-.3.1-.1.2-.3.2-.4.3-.5.7-1 1-1.5.2-.2.3-.4.5-.6.1-.2.3-.3.4-.5l.1-.1c.1 0 .1-.1.2-.1l.1-.1c-.1.1-.2.2-.2.3-.1.2-.3.3-.4.5-.2.2-.3.5-.5.7 0 .1-.1.2-.1.2-.1.1-.1.2-.2.3-.2.4-.5.8-.6 1.1 0 0-.1.1-.1.2-.1.2-.2.4-.4.5-.2.3-.5.6-.7.8-.1 0-.1.1-.2.1-.2.5-.3.5-.3.5zm.2.1zm-2.8-.1s-.1 0 0 0c-.1-.1-.2-.1-.3-.1h.1c.1 0 .1.1.2.1zm.7-1.4l-.1.1.1-.1s.1 0 0 0c.1 0 .1 0 0 0 .1-.1.1-.1 0 0 .1-.1.1-.1 0 0 .1-.1.1-.1 0 0 .1-.1.1-.1 0 0 .1-.1.1-.1 0 0 .1-.1.1-.1 0 0 .1 0 .1 0 0 0 .1 0 .1.1.1.1v.2c0 .2-.1.3-.2.5 0 0 0 .1-.1.1 0 0 0 .1-.1.1 0 0 0 .1-.1.1l-.1.1v.1H44.4h-.1.1s.1 0 .1-.1h.1c.2-.1.3-.3.4-.5.2-.4.2-.5.2-.7 0 .1 0 0 0 0 .1 0 .1 0 0 0zm.2.3c.2-.1.3-.3.4-.5.3-.5.3-.9.7-1.2l.2-.2c.1 0 .1-.1.2-.1h.1v1s.1 0 .1-.1.1-.1.2-.2.3-.2.4-.3c.1-.1.2-.1.2-.2 0 0 .1 0 .1-.1.1 0 .2-.1.3-.1H49.1c-.1 0-.1.1-.1.2l-.2.2c-.4.4-.6.9-1 1.4-.1.1-.1.2-.2.2l-.2.2-.2.2c-.2.1-.3.2-.5.3 0 0-.1 0-.1.1-.1 0-.2.1-.3.1-.3.1-.6.2-.9.2H45.1 45.7c.2-.1.3-.1.4-.2.1 0 .1-.1.2-.1.1-.1.2-.1.3-.2 0 0 .1-.1.1-.2l.1-.1c.4-.4.8-1 1.2-1.4l.1-.1.2-.2c.1 0 .1-.1.2-.1s.1-.1.2-.1c-.1 0-.1.1-.2.1s-.1.1-.2.1c-.1.1-.2.1-.2.2l.2-.2s.1-.1.2-.1.1-.1.2-.1c-.1 0-.1.1-.2.1h.1c.1 0 .1-.1.2-.1-.1 0-.1.1-.2.1s-.1.1-.2.1c-.1.1-.2.1-.3.2-.2.1-.3.3-.5.4l-.5.5c-.2.2-.4.5-.6.7 0 0 0 .1-.1.1l-.3.3c-.1 0-.1.1-.2.2-.1 0-.2.1-.2.1s-.1 0-.1.1l.1-.1.1-.1.3-.3c.1-.1.2-.2.3-.4.1-.1.2-.2.2-.3.1-.1.1-.3.2-.4 0 .1-.1.1-.1.2 0-.1.1-.1.1-.2 0 .1-.1.3-.2.4l-.3.3c-.1.2-.3.3-.4.4 0 0-.1 0-.1.1l-.1.1c-.1 0-.1.1-.2.1s-.1.1-.2.1l-.1.1.1-.1.1-.1.1-.1c.1 0 .1-.1.2-.2s.2-.2.2-.3c.1-.1.1-.2.2-.3.1-.3.2-.5.3-.7.1-.2.1-.4.2-.6.1-.1.1-.2.2-.2-.1 0-.1.1-.1.1 0-.1.1-.1.1-.2l-.2.2v.2c-.2.3-.3.9-.7 1.4 0 .1-.1.1-.1.2-.1.1-.1.2-.2.2l-.2.2-.1.1-.1.1v-.1s0-.1.1-.1c0 0 0-.1.1-.1v-.1-.1-.1-.5c0-.1 0-.1-.1-.2.1.1.1.1.1.2zm.4-1.4s0-.1 0 0c.1-.1.1-.1 0 0 .1-.1.1-.1 0 0zm1-.5c.1 0 .1-.1 0 0l.1-.1c.1 0 .1 0-.1.1.1-.1.1 0 0 0zm.2.7v.1c-.1 0-.1-.1 0-.1zm1-3c0-.1 0-.1 0 0v-.1c.1 0 .1.1 0 .1v0zm.5 1.1l-.1-.1.1.1zm.4.2h.4s-.1.2-.2.3l-.1.1c-.1 0-.2 0-.4.1h-.2-.1-.1v-.1-.1-.1l.1-.1c.4-.1.5-.1.6-.1zm-.5-.2l.1.1c0-.1 0-.1-.1-.1 0 .1 0 .1 0 0 0 .1 0 .1 0 0l-.1.1v.1V46.2l.1.1zm-.2.3zm-3.1 3.6l.2-.2.1-.1c.1-.1.2-.1.2-.2l-.2.2-.1.1-.1.1-.1.1zm.3-.1c-.1 0-.1.1-.1.1l.1-.1zm0 .1zm.1 0c.1 0 .1-.1.2-.1s.1 0 .2-.1l-.1.1c-.1 0-.2.1-.3.1zm.7-.4s.1 0 0 0c.1 0 .1 0 0 0zm5-5c.2-.2.4-.3.6-.4h.6l.1.1.1.1c0 .1.1.2.1.3 0 .2 0 .3-.1.5 0 .1-.1.2-.1.3-.1.1-.1.2-.1.2v.1c-.1.1-.1.1-.1.2v-.1-.1-.2-.1-.2c0-.1 0-.2-.1-.2 0-.1-.1-.1-.2-.1h-.1-.1H51.5c-.1 0-.1.1-.2.1h-.1c-.1 0-.1.1-.2.1-.1.1-.2.2-.4.3l-.4.4-.1.1-.2.2c.2-.2.3-.4.5-.7 0-.1.1-.1.1-.1l.3-.3.3-.3c-.1 0 0-.1.1-.2zm0-.4s0 .1 0 0c0 .1 0 0 0 0zm.6-.1h.2c-.1-.1-.2-.1-.2 0zm-.1.9zm-1.9 2.1l.1-.1.4-.4c.1 0 .1-.1.2-.1.2-.1.4-.2.5-.4l-.1.1s.1 0 .1-.1l-.1.1c-.2.1-.2.1-.4.1-.1 0-.1.1-.2.1h-.1s.1 0 .1-.1c.1-.1.2-.2.5-.3h-.1l.1-.1c-.1 0-.1 0-.1.1h-.1-.1c-.1 0-.1.1-.1.1l.1-.1c.1-.1.1-.2.2-.3l.1-.1.3-.3.1-.1s-.1 0-.1.1c-.1 0-.1.1-.2.1l.1-.1s.1 0 .1-.1H51s.1 0 .1-.1h.1c-.1 0-.1.1-.2.1.1-.1.2-.1.2-.2l.1-.1s.1 0 .1-.1h0l-.1.1h-.1s0 .1-.1.1c0 .1-.1.1-.1.2v.1s0 .1-.1.1c0 .1-.1.1-.1.2H51.1l-.1.1c-.2.2-.3.3-.6.4-.3.2-.7.5-1 .8V47c.3.3.3.3.4.3zm.3-.5s.1 0 0 0c.1 0 .1 0 .1-.1 0 .1 0 .1-.1.1zm.1-.2c.1 0 .1 0 0 0 .1 0 0 0 0 0zm.9-.6c-.1.1-.1.1-.1.2h-.1l.2-.2c-.1 0 0 0 0 0zm0 .6c.1 0 .1-.1.1-.1H51.3c-.1 0-.2 0-.2.1-.1 0-.1 0 0 0-.1 0 0 0 0 0zm-1.4-.1l.2-.2.2-.2c-.1.1-.2.2-.2.3-.1.1-.2.2-.3.4l.1-.1v-.2zm1.4.8c0 .1-.1.1-.2.2 0 0 0-.1.1-.1l.1-.1zm1.5-3.4h.4c.1 0 .1 0 .2.1l.1.1v.4c0 .2-.1.4-.2.6v.1c0 .1-.1.1-.1.2 0 0 0 .1-.1.1-.1.2-.2.4-.4.5 0-.1.1-.1.1-.2v-.1c.1-.1.1-.3.2-.4.1-.2.1-.4.1-.5v-.2c0-.1-.1-.2-.1-.2v-.1l-.2-.2h-.2-.1-.1c-.1 0-.2 0-.2.1h.1c.1 0 .1-.1.2-.1 0 0 .1 0 .1-.1.1 0 .1 0 .2-.1-.1 0 0 0 0 0zm-.2-.3c0 .1.1.1 0 0 0 .1 0 .1 0 0 0 .1 0 .1 0 0zm-1.3-1.3zm-.5.8s0-.1 0 0V43c0-.1.1-.2.2-.3v-.1l.2-.2h.1s.1 0 .1-.1h.2v.1c0 .1 0 .2-.1.2-.1.2-.3.4-.4.5h-.1-.1l.1.1.2-.2c.1-.1.1-.2.2-.3 0-.1.1-.2.1-.3v-.1.5c0 .1-.1.2-.1.3-.1.1-.1.2-.2.3 0 0 0 .1.1.1v.1s.1 0 .1-.1c.1-.1.2-.1.2-.1.1 0 .2-.1.2-.1h.2s.1 0 .1.1c0 0 .1 0 .1.1l.1.1.1.1h-.1-.1-.1H51.6c-.1 0-.1 0-.2.1l-.1.1c-.1 0-.1.1-.2.1 0 0 0 .1-.1.1V44.2c0-.2 0-.3-.1-.4 0-.1 0-.1-.1-.2 0 0 0-.1-.1-.1v-.1h-.1c-.1 0-.1-.1-.2-.1.2-.1.2-.1.2-.2 0 .1-.1.1 0 0-.1 0 0 0 0 0zm.1.1zm.3.1c0 .1 0 .1 0 0 0 .1 0 .1 0 0 0 .1 0 .1 0 0 0 .1 0 .1 0 0zm-.5.1zM49 44v-.2-.1-.1c0-.1.1-.1.1-.2.1-.1.2-.1.3-.2.1 0 .2-.1.3-.1.1 0 .3 0 .4.1.1 0 .2.1.3.2.1.1.1.2.2.3l.1.1c0 .2.1.3.1.4v.1l-.5.5c-.2.2-.4.5-.6.8 0 .1-.1.2-.2.2H49.2v-.1h-.1v.1l.1.1c-.1 0-.2-.1-.3-.1v-.1l-.1.1h-.1v.1l-.1-.1-.1-.1-.1-.1s0-.1-.1-.1v-.1-.1h.1s0 .1.1.1l.1.1s.1 0 .1-.1l.1-.1h-.1.1l.1-.1v-.1c-.1 0-.1.1-.2.1h-.1c0-.1 0-.1-.1-.1 0 0 0-.1-.1-.1h-.1c0-.1.1-.1.1-.2v-.1l.1-.1.1-.1H48.8l-.1.1v.2s0 .1-.1.1v0c0-.1.1-.1.1-.2l.1-.1c.1-.1.2-.1.3-.2h.1c.1 0 .1-.1.1-.1v-.1h-.1c-.1-.2-.2-.2-.2-.2 0 .1 0 0 0 0zm.3 1.9zm-.3.2zm-.4-.7zm-.4-2.1c0-.1 0-.2.1-.3v-.1s0-.1.1-.1c0-.1.1-.1.1-.2v.4c0 .2 0 .4-.1.5V43.8h.1v-.1-.1-.1-.1-.2-.3c0-.1-.1-.2-.1-.3v-.1l.1.1.1.1v.1c0 .1.1.2.1.3 0 .1 0 .3-.1.5v.1h-.4l-.1-.1v-.1-.1c.1 0 .1 0 .1-.1zm-.4.7zm0 .2s.1-.1 0 0l.1-.1h.9v.1h-.1-.2-.1-.1-.1c-.3 0-.4.1-.4 0-.1 0-.1 0 0 0-.1 0-.1 0 0 0zm-1.4.9c0-.1.1-.1 0 0 .1-.1.1-.1.1-.2.1-.1.2-.1.2-.1h.4c0 .1-.1.1-.1.2 0 0 0 .1-.1.1l-.1.1c-.1 0-.1.1-.1.1h-.1c-.1 0-.1.1-.2.1h-.1v-.1c0-.1.1-.1.2-.2.2-.1.4-.2.5-.3h0-.1c-.2.1-.3.1-.4.2l-.1.1zm0 .7zm0-.1zm-.3-.5c.1 0 .1 0 0 0 .1 0 .1 0 0 0 .1.1.1 0 .1 0v.2c0 .1 0 .2.1.2v.1s0-.1-.1-.1v-.1s0-.1-.1-.1v-.1c.1 0 0 0 0-.1zm0-.1zm-1 1.6c0-.1 0-.2.1-.4v-.1c0-.1.1-.2.1-.2 0-.1.1-.1.1-.1.1 0 .1-.1.1-.1h.5-.2s-.1 0-.1.1c.3.1.4.1.5.1h.2c.1 0 .2-.1.2-.1.1 0 .1-.1.1-.1s0-.1-.1-.1h-.2s0-.1.1-.1c0 0 .1 0 .1-.1h.7c.1 0 .1.1.1.1s.1 0 .1.1c0 0 0 .1.1.1l.1.1s0 .1.1.2c0 .1 0 .1.1.2V47.2h-.1v-.1-.1-.1-.1h-.4l.1.1h-.1-.1v.2H47.6c-.1 0-.3.1-.4.2v-.1-.1-.1c0-.1-.1-.1-.1-.2 0 0 0-.1-.1-.1l-.1-.1h-.1c-.1 0-.3.1-.5.2 0 0-.1 0-.1.1 0 0-.1 0-.1.1l-.4.4s0 .1-.1.1l-.1-.1c-.1-.1-.2-.3-.4-.5 0-.1-.1-.1-.1-.2v-.1-.1-.1c.1.4.1.4.1.3zm0 .9zm0 0c0-.1 0-.1 0 0 0-.1 0-.1 0 0zm-.9-.3h.5c.1 0 .2.1.3.2-.1-.1-.3-.2-.6-.2h-.1-.1c.1 0 .1 0 0 0 .1 0 .1 0 0 0 .1 0 .1 0 0 0 .1 0 .1 0 0 0h.2c.1 0 .2.1.4.2 0 0 .1 0 .1.1h.1v-.1s0 .1.1.1c0 0 0 .1.1.1v.1c-.1.2-.1.3-.2.5v-.1c.1-.2.1-.4.2-.4l.1.1s0 .1.1.1v.1c0 .1 0 .2-.1.4v.2l-.1.1h-.1v-.1s0-.1-.1-.1v-.1-.1-.3c0-.1 0-.3.1-.4v-.1H45h-.1-.1c-.1 0-.2-.1-.3-.2-.1.1-.2 0-.3-.1zm0 0zm-1.1.2c.1 0 .1 0 0 0 .1-.1.1-.1 0 0 .2-.1.2-.2.3-.2H43.6c-.1 0-.3.1-.5.2.1 0 0 0 0 0zm0 .1c.1 0 .1 0 0 0 .1 0 .1 0 0 0 .1 0 .1 0 0 0 .1-.1.1-.1.2-.1.2-.1.3-.1.4-.2.1 0 .2 0 .2-.1-.1.1-.1.2-.2.3-.1.1-.2.2-.3.2h-.1-.1c0 .2.1.4.1.5v.5s0 .1-.1.1v.1h-.1s0-.1-.1-.1v-.1-.1-.3-.2-.1l.1-.1c0 .1.1.2.1.4V48.4c0-.2-.1-.4-.2-.7v-.1s0-.1.1-.1v.1c0 .1 0 0 0 0zm-4.5 1.2c0-.1 0-.1 0 0-.1-.1-.1-.1-.1-.2 0 0-.1 0-.1-.1h-.1-.1-.1c-.1 0-.2-.1-.4-.2l-.1-.1-.1-.1c-.2-.1-.4-.3-.6-.5l-.1-.1v-.1H37.1c.1 0 .2.1.2.1l-.1-.1h.1l-.3-.3s0-.1-.1-.1v-.1-.1c0-.1 0-.3-.2-.5h.2s.1 0 .1.1h.1c.2.2.5.3.8.6 0 0 .1 0 .1.1.1.1.2.1.2.2l.3.3c.2.3.5.6.6.9.1.1.2.3.3.5.1.1.1.2.2.2 0 .1.1.1.1.1l.1.1.2.2c.1.1.1.1.1.2l.2.2c.1 0 .1.1.1.1l.1.1c-.3 0-.8-.2-1.2-.5l-.3-.3c-.1-.1-.3-.2-.4-.3-.3-.2-.5-.3-.7-.3-.1 0-.1 0-.1.1v-.1-.1-.1l.1-.1h.1c.5.2.6.3.6.3zm0-.1zm-.5.5zm-1.5-4.1h-.1-.1c-.1 0-.1.1-.1.1l-.1.1c0 .1-.1.1-.1.2v.7c0-.1-.1-.1-.1-.2 0 0 0-.1-.1-.1 0-.1-.1-.2-.1-.2 0-.1-.1-.2-.1-.3-.1-.2-.1-.4-.1-.5 0-.1 0-.2.1-.3l.1-.1s0-.1.1-.1h.1c.1 0 .2-.1.2-.1.1 0 .2 0 .4.1s.4.2.6.4l.1.1.2.2.3.3.3.3c.2.2.3.5.5.7.1.1.1.2.2.2l-.2-.2c0-.1-.1-.1-.1-.2-.1-.2-.2-.3-.4-.4l-.4-.4c-.1 0-.1-.1-.2-.1h-.1c-.1 0-.1-.1-.2-.1H37c-.3-.1-.4-.1-.4-.1zm0 .1zm-.3 1.3zm-.4.8c-.1-.2-.2-.3-.2-.5.1.1.1.2.2.3v.2c0-.1 0-.1 0 0 0-.1 0-.1 0 0zm0-1.1zm.5-2l-.1-.1-.1-.1c0 .1.1.1.2.2zm.7.2c0-.1 0-.1 0 0v-.1-.1.2c0-.1 0-.1 0 0zm1 1.6c.1.2.3.4.4.6 0 0 .1.1.1.2-.1-.1-.1-.1-.1-.2s-.1-.1-.1-.2c-.1-.1-.2-.3-.3-.4zm-.5.3c.1 0 .1.1 0 0 0 0 .1.1 0 0l.3.3.1.1c-.1-.1-.1-.1-.2-.1-.2-.1-.3-.1-.5-.3l.1.1s-.1 0-.1-.1c0 0 .1 0 .1.1l.1.1.3.3c.1 0 .1.1.2.1.1.1.3.2.4.3 0 .1.1.1.1.1s0 .1.1.1c0 .1.1.1.1.2l-.1-.1c-.2-.3-.6-.6-.9-.7-.2-.1-.4-.3-.5-.4l-.1-.1c.1 0 .1 0 .2.1h.1c-.1-.1-.1-.1-.1-.2v-.1-.1c0-.1 0-.2-.1-.3v-.1l-.1-.1h.1s.1 0 .1.1l.1.1h.1l.1.1h-.1c.1 0 .1.1.2.2l.2.2.1.1c.1.1.1.2.2.3l.1.1s-.1 0-.1-.1c-.4-.2-.5-.3-.6-.3zm.4.3zm.1.2s0-.1 0 0l-.1-.1s.1 0 .1.1zm.5.6c.1.1.1.2.1.2 0-.1-.1-.1-.1-.2zm-1.7-1.9c0-.1 0-.1 0 0l-.1-.1c.1 0 .1 0 .1.1zm-.1.9s0 .1.1.1c0 0-.1 0-.1-.1zm4 4.1l-.1-.1.1.1c.1 0 .1.1.2.1-.1 0-.1 0-.2-.1.1 0 .1 0 0 0zm.2-.1c-.1 0-.1 0 0 0-.1 0-.1-.1-.2-.1-.3-.3-.6-.6-.9-1-.1-.1-.1-.2-.2-.3 0 0 0-.1-.1-.2-.2-.3-.4-.7-.6-1.1-.1-.1-.1-.2-.2-.3 0-.1-.1-.2-.1-.2-.2-.3-.3-.5-.5-.7-.1-.2-.3-.4-.4-.5l-.3-.3.1.1.1.1.1.1c.1.1.3.3.4.5.2.2.3.4.5.6.4.5.7 1 1 1.5.1.1.2.3.2.4.1.1.1.2.2.3.1.2.3.3.4.5.2.2.5.4.8.6.1 0 .1.1.2.1.2.1.4.1.6.2.2 0 .3.1.5.1h.2c.2 0 .4 0 .6-.1.1 0 .1 0 .2-.1h0c-.5.2-1 .3-1.4.3-.5 0-.9-.1-1.2-.3v-.2zm-1-3.9v.2c0-.1.1-.1 0-.2zm.3 1.1s.1 0 .1.1c.1.1.2.1.3.2.2.2.5.4.6.5l.1.1v-.2-.1-.3-.3c.1 0 .1 0 .2.1h.1c.1 0 .1.1.2.1.5.5.4 1.1 1.1 1.8 0-.1 0-.2.1-.2v-.1c0 .1.1.2.1.4.1.1.1.3.2.4l.1.1s.1 0 .1.1l.1.1H43.4h-.1l-.1-.1-.1-.1s0-.1-.1-.1c0 0 0-.1-.1-.1 0 0 0-.1-.1-.1-.1-.2-.2-.3-.2-.5v-.1-.1.6l.1.1v.1l.1.1.1.1h.1-.2c-.3 0-.7-.1-.9-.2-.1 0-.2-.1-.3-.1h-.1c-.2-.1-.4-.2-.5-.3l-.3-.3h-.1c-.1-.1-.1-.2-.2-.3-.4-.5-.7-1.1-1.1-1.6-.1-.1-.1-.2-.2-.3h.6c.4.4.5.4.6.5zm-.1-2.4c-.1 0-.1-.1 0 0V45v.2s0 .1 0 0c0 .1 0 .1 0 0 0 .1 0 .1 0 0zm.7 2.4zm.2.6c.1 0 .1 0 0 0l.1.1v-.1c0 .1 0 0-.1 0zm1.3-.2zm0 1c.1.2.2.3.3.5-.1-.2-.2-.4-.3-.5zM40 46.5l-.1-.1h-.1-.1.1V46.7l.2-.2zm-.2-.2s-.1 0 0 0c-.1 0 0 0 0 0zm-.1.3l.1.1s0 .1.1.1v.2h-.1-.1H39.1l-.1-.1c-.1-.1-.2-.3-.2-.3h.5c.2-.1.3-.1.4 0zm4.1 3.9s-.1 0 0 0h-.1.1c0-.1 0-.1 0 0 .1 0 .2 0 .3-.1H44c-.1 0-.2 0-.2.1zm-.7-2.9zm-1-2.5s0 .1 0 0zm-.2.5c.1 0 .1-.1.1-.2v-.2h.1V45.5l-.1.1h-.1zm0 .1zm0 .1c-.1 0-.1 0 0 0zm-.1-.7zm-.7-.4c.1 0 .1 0 0 0h.3c.1 0 .3.1.4.3l-.2-.2c-.1-.1-.2-.1-.4-.2 0 .1-.1.1-.1.1zm.7.5l-.1-.1c0 .1.1.1.1.1zm-.7-.5c.1 0 .1 0 .2.1.1 0 .1 0 .2.1h-.2l-.2-.2zm0 0c-.1 0-.1 0 0 0zm-.1 0s.1 0 0 0c.1 0 .1 0 0 0h.1c.1.1.3.2.5.3l.1.1v.1h-.1c-.1 0-.1 0-.2-.1h-.1l-.1-.1-.1-.1s0-.1-.1-.1c.1 0 0 0 0-.1zm0 0zm-.3.9l.1-.1H41.6s.1 0 .1.1.1.1.1.1h-.2-.1l.1.1c.1 0 .1.1.2.1h.2c.2 0 .3 0 .4-.1H42.1 42h.6c.1 0 .1.1.1.1l.1.1c0 .1.1.1.1.2v.1c.1.1.1.3.1.4v.4c0 .1-.1.1-.1.2-.1.2-.3.3-.4.4h-.1l-.1.1c-.1-.2-.2-.3-.3-.4 0 0 0-.1-.1-.1-.1-.1-.1-.1-.2-.1-.2-.1-.4-.2-.5-.3-.1 0-.1.1-.1.2v.1c0 .1-.1.1-.1.2v.1s-.1 0-.1-.1c-.1-.1-.2-.1-.4-.2h.2v-.1-.1h-.2.1c.1 0 .1-.1.1-.1h-.4s0 .1-.1.1V47.3h-.1v-.1-.2-.1V46.6v-.2c0-.1 0-.2.1-.2v-.1-.1-.1-.1c.4-.2.4-.2.5-.2-.1 0-.1 0 0 0zm.1 1.3zm-.3-2.9h-.1.1zm-.1 0c0 .1 0 .1 0 0 0 .1 0 .1 0 0v.1h.1c-.1 0-.2-.1-.4-.2H40h-.4-.1v-.2h.2c.1 0 .3 0 .4.1.2.2.3.2.3.2zm-1-.9c0-.1 0-.2.1-.3 0 0 0-.1.1-.1l.1-.1.1-.1h.1c.1.1.1.1.1.2 0 0 0 .1.1.1v.1c0 .1.1.2.1.4v.4c0 .1-.1.1-.1.1h-.4v-.1c-.3-.2-.3-.4-.3-.6zm.1 1.1zm-1.7-.8c-.1 0-.1 0 0 0-.1 0-.1 0 0 0zm.2-.1c.2-.1.4-.1.5-.1.1 0 .2 0 .3.1.1 0 .2.1.3.2.1.1.1.1.1.2v.4h-.1L39 44v.1l.1.1h.1c.1 0 .2.1.3.2l.1.1c.1 0 .1.1.1.2v0c-.1-.2-.2-.3-.3-.3h.1s.1 0 .1.1l.1.1.1.1s0 .1.1.1c0 .1.1.1.1.2 0 0-.1 0-.1.1 0 0 0 .1-.1.1h-.1v.1c-.1 0-.1 0-.2-.1h-.1v.2h.1l.1.1.1.1h.1l.1-.1v-.1h.2v.1s0 .1-.1.1c0 .1-.1.1-.1.1s0 .1-.1.1h-.1l-.1-.1V46c-.1 0-.2.1-.3.1 0 0 .1-.1.1 0l-.1-.1h-.1v.2h-.3-.1c-.1-.2-.3-.4-.4-.6l-.3-.3c-.3-.4-.6-.6-.6-.6v-.1-.1-.1c0-.1 0-.2.1-.3V44c0-.1.1-.2.2-.3 0-.3.1-.4.2-.4zm1.7 1.4c.1 0 .1 0 0 0 .1 0 .1 0 0 0 .1 0 .1 0 0 0 .1 0 .1 0 0 0 .1 0 .1 0 0 0 .1 0 .1 0 0 0zm.4.5zm0 0zm-.1.3zm0-.3zm-.1 0zm-4.1-1.6c.1 0 .1 0 0 0 .1 0 .1 0 0 0 .1-.1.1-.1 0 0 .1-.1.1-.1.2-.1 0 0 .1 0 .1-.1 0 0 .1 0 .1-.1h.5c.1 0 .1.1.2.2h.1l.1-.1.1-.1-.1-.1c0-.1-.1-.1-.1-.2s-.1-.2-.1-.2v-.2-.1-.2.1c0 .1 0 .2.1.3 0 .1.1.2.2.3 0 .1.1.1.2.2v-.1c-.2-.2-.4-.5-.5-.8h.1s.1 0 .1.1h.1c.1 0 .1.1.2.2 0 0 0 .1.1.1.1.1.1.2.2.3V43.3h-.1s-.1 0-.1.1h-.1v.1l-.1.1s0 .1-.1.1c0 .1-.1.2-.1.4v.1s0-.1-.1-.1c0 0 0-.1-.1-.1-.1-.1-.1-.1-.3-.2-.1 0-.1-.1-.2-.1h-.2-.1-.1c-.1-.1-.1-.1-.2-.1zm1.3-.2c0 .1 0 .1 0 0 .1.1.1.1 0 0 .1.1.1.1 0 0 0 .1 0 .1 0 0zm.2 0zm.2-.1zm-1.7.3h.2-.2c.1.1 0 .1 0 0 0 .1 0 .1 0 0zm-.9.6c0-.1 0-.1.1-.2l.1-.1s.1 0 .1-.1h.4c.1 0 .1 0 .2.1 0 0 .1 0 .1.1.1 0 .1.1.2.1l.1.1c-.1 0-.2-.1-.2-.1H35.7c-.1 0-.2.1-.2.1-.1.1-.1.2-.1.3v.2c0 .2 0 .3.1.5 0 .1.1.2.2.4v.1c0 .1.1.1.1.2-.2-.2-.3-.4-.5-.7 0-.1-.1-.1-.1-.2v-.1c-.2-.2-.3-.4-.3-.7 0 .1 0 .1 0 0 0 .1 0 .1 0 0zm.3 1.6c-.1 0-.1 0 0 0-.1 0-.1 0 0 0zm-.3.2s0 .1 0 0c0 .1 0 .1 0 0v0s0-.1-.1-.1c0 .1.1.1.1.1zm0 .2c.1 0 0 0 0 0 .1 0 .1 0 0 0 .1 0 .1 0 0 0 .1 0 .1 0 0 0 .1-.1.1-.1 0 0v-.1-.1h.1v.2c.1.3.3.5.5.8.1.1.1.3.2.4v-.1-.1-.1c0-.1 0-.1.1-.1 0 .1.1.1.2.2s.2.3.3.5c.1.1.1.2.2.3 0 0 0 .1.1.1.1.1.2.2.2.4.1.2.2.3.3.5v.1s0 .1.1.1c-.3-.3-.6-.7-1-1 0 0 0-.1-.1-.1l-.3-.3c-.3-.3-.6-.5-.9-1v-.1c-.1-.1-.2-.3-.3-.4-.2-.4-.4-.8-.4-1h.1l.1.1c.2.2.2.4.3.6.1 0 .2.1.2.2zm-.9-2c-.1-.1-.2-.1-.2-.1h-.1v.5c.1.4.4.9.8 1.5 0 0 0 .1.1.1.1.2.2.3.3.5.1.2.3.3.4.5 0 .1.1.1.1.2l.5.5s-.1 0-.1-.1c-.3-.2-.6-.5-.8-.7l-.1-.1-.2-.2c-.2-.2-.3-.3-.4-.5-.2-.2-.4-.5-.5-.8 0-.1-.1-.1-.1-.2s-.1-.2-.1-.2c-.2-.4-.3-.7-.4-1V44v-.1c0-.1 0-.1.1-.2H33.6c.1 0 .1.1.2.1l.1.1.1.1.1.1c-.2-.1-.1 0-.1.1zm-.1-.2c.1.1.1.2.2.2l.1.1-.1-.1-.1-.1-.1-.1zm.3 1.1c.1 0 .1 0 0 0 0 .1 0 .2.1.2 0 0 0-.1-.1-.2zm.3-.6c0 .1 0 .2.1.2v-.1c-.1.1-.1 0-.1-.1 0 0 0-.1 0 0zm-1.5-1v-.2c0-.1 0-.2.1-.2 0 0 .1-.1.2-.1s.1 0 .3.1c.1 0 .1.1.2.1.2.1.3.4.5.7l.3.6c0 .1.1.3.1.4v.1c-.1-.1-.1-.2-.2-.3-.1-.1-.1-.2-.2-.4v-.1c0-.1-.1-.2-.1-.2-.3-.3-.5-.5-.7-.5h-.2c-.3-.1-.3 0-.3 0zM31.3 42c0 .1 0 .1 0 0 .1.1.1.1 0 0 .1.1.1.1.2.1.3.2.7.7 1 1.2.1.1.1.2.2.3.1.1.2.3.2.4.1.1.1.3.2.4l.3.6c.1.1.1.2.2.4s.2.4.4.6c0 .1.1.1.1.2.1.1.2.3.3.4l.1.1.3.3-.1-.1c-.6-.5-1.5-1.3-2.1-2.4 0 0 0-.1-.1-.1-.2-.3-.4-.7-.5-1-.3-.5-.6-.9-.8-1h-.1s-.1 0-.1.1v-.1-.1-.1s0-.1.1-.1h.1c0-.1 0-.1.1-.1zm-.4.4c-.1 0-.1 0 0 0zm-2.1-5.1c.3.1.6.4.3 1.1.4-.1 1.4-.7 1.4-1.4.1.2.3.4.3.8-.1 1.3 0 2.4.4 3.6-.4 0-.6.4-.6.7 0 .1.1.2.2.3h.2l.1.1c.3.3.8 1.1 1.2 1.9.7 1.5 2 2.4 2.6 2.8h.1c.4.4.8.7 1.2 1l.1.1h.1c.3.3.6.6.8.9 0 0 .1.1.2.1h.1c.1-.1.1-.2.1-.2v-.2c-.1-.3-.3-.5-.4-.7.1.1.1.1.2.1.2.1.3.2.4.2-.1.1-.1.2-.1.4v.1c0 .1.1.2.2.2 0-.1.1-.1.2-.1s.1 0 .2.1c.2.1.5.3.7.5.3.3.6.5 1 .7.3.1.6.2.7.2H41c.4.2.8.3 1.2.3.4 0 .8-.1 1.2-.3.1 0 .2-.1.3-.1.1 0 .2.1.3.1.1 0 .2-.1.3-.1.2.1.4.2.7.2.3.1.6.1.8.1.4 0 .8-.1 1.2-.3H47.3c.1 0 .3-.1.5-.1.4-.2.9-.4 1.2-.8.2-.2.5-.4.7-.5.1 0 .1-.1.2-.1s.1 0 .2.1c.1 0 .2-.1.2-.3v-.1c0-.2 0-.3-.1-.4.1 0 .3-.1.4-.2l.2-.2c-.1.2-.3.5-.4.8v.1c0 .1.1.2.2.3h.2l.1-.1.1-.1c.2-.3.5-.6.8-.8h.1l.1-.1 1.2-.9h.2c.6-.4 1.8-1.3 2.5-2.7.3-.6.6-1.1.9-1.5.1-.2.3-.3.4-.4l.1-.1H57.6c.1 0 .2-.1.2-.3 0-.3-.2-.7-.5-.7.5-1.4.6-2.7.3-4.2.1-.1.1-.2.2-.3 0 .5.4.9.9 1.2 0 .1-.1.1-.1.2 0 .2.2.3.3.3.2 0 .3-.2.3-.3 0-.1-.1-.2-.1-.2-.1-.6.2-.7.6-.8.4 2.5 0 4.9-1.3 7.2-1.9 3.5-5.3 5.8-7.9 6.6-.1 0-.2.1-.4.1-.5.1-1.1.2-1.5.4-1.3.1-2.2.4-3.3.8.1-.1.2-.3.1-.4-.1-.2-.3-.2-.4-.1-.2.1-.2.3-.1.4.1.1.2.2.4.1-.3.1-.6.3-.9.5-.2-.1-.5-.2-.7-.3.1 0 .2-.1.2-.1.1-.1 0-.3-.1-.4-.2-.1-.3 0-.4.1-.1.1 0 .2 0 .3-1.1-.5-2-.8-3.3-.9-.5-.2-1-.3-1.6-.4-.1 0-.2-.1-.4-.1-2.5-.7-6-3.1-7.9-6.6-1.4-2.4-1.8-4.8-1.4-7.2zm8.6 11.9zm20-6.8zM20 32.8c.1.1.3.1.4.2-.3 0-.5 0-.7.1l.3-.3zm-6.7 8.7c.7.7 1.7 2.5 1.5 4.3.3-2.1-.8-4.1-1.6-4.7 0-.2-.1-.3-.1-.5v-.1c.6.4 1.3 1.3 1.6 2.4-.1-.9-.9-2-1.5-2.6l.3-.3c.6.5 2.2 2.9 1.6 5.1.6-1.9-.7-4.6-1.5-5.2 0-.1.1-.1.2-.2.6.5 1.3 1.6 1.6 2.7-.1-1.1-.8-2.2-1.4-2.8.1-.1.2-.1.3-.2.5.6 2 2.8 1.4 4.7.6-1.8-.6-4.2-1.2-4.9.1 0 .1-.1.2-.1.5.5 1.2 1.6 1.3 2.8 0-1.1-.6-2.2-1.2-2.9.1 0 .1-.1.2-.1.5.6 1.8 2.5 1.4 4.7.5-1.7-.5-4.1-1.2-4.8 0 0 .1 0 .1-.1.5.5 1.5 2 1.4 3.2.2-1.2-.6-2.6-1.2-3.3h.1c.6.6 2 2.4 1.6 4.7.5-1.9-.6-4.1-1.4-4.8h.1c.5.5 1.5 1.6 1.6 2.8 0-1.3-.9-2.2-1.4-2.9l.1-.1c.7.7 2.1 2.3 1.6 4.6.8-2.1-.4-3.8-1.3-4.7.1 0 .2-.1.3-.1.6.5 1.5 1.6 1.6 3.1.1-1.1-.6-2.4-1.4-3.2h.1c1.3.4 2.3 1.3 2.3 2-.2-.3-.7-.5-1-.6.5.5 1.3 1.4 1.4 2.6-.1-.2-.2-.4-.7-.6.2.3.5 1.9.2 2.4-.1-.4-.2-.8-.4-.9-.5.8-1.4 1.9-1.2 2.9.4 2.3 2.9 4.2 3.8 4.2.8.1 1.7.2 2.5-.1.5.1 1.3 1.7 1.1 2.2-.1 0-.3.1-.4.1-.1-.5-.4-1.1-.6-1.5-.4 0-1.2.2-1.7-.2.4.5 1.1.4 1.5.4.2.3.7 1.4.7 1.7-.5.4-.8.4-1 .4-.1 0-.2-.1-.3-.2-.1-.4-.1-.8-.4-1.2-.2-.1-1.1-.1-1.4-.5.1.5.9.5 1.2.6.2.4.3 1.1.3 1.5-.1.2-1.5-.1-1.8-.4-.3.1-1-.2-1.4-.4-.1 0-.1 0-.2-.1-2.7-.6-5.2-3.3-5.8-5.3.7-1.4.4-2.9-.6-3.3.1-.6.2-1.3.1-2.2zM.6 31.4h.2c.2-3 1.9-5 3.6-6.5.6-.5 1.6-1.1 1.6-1.8 0-.3-.2-.5-.6-.7-.5-.2-.9-.3-.9-1 0-.2 0-.6.2-1 .5-1.3.8-2.5.8-3.4 0-.4-.1-.8-.3-1-.2-.2-.4-.3-.6-.4.3-.2.5-.2.8-.2 1.1 0 2.1 1.9 2.4 3.8v.8c0 1.8-.7 3.5-2.2 4.7-1.8 1.4-4 2.7-4.3 5.7 0 .3-.1.7-.1 1 0 3.3 2.4 4 3.2 4.8.4.2.7.5 1.1.8-.2-.1-.3-.2-.5-.3C2.7 35.6.7 34.6.7 31.8v-.4H.6zm13.5 15.7c1.3 2.3 2.9 3.7 4.8 4.5-2.3-1.5-3.5-3-4.5-4.9l-.3.4zm.3-.8c.2-.7.4-1.5.2-2.1-.1-.6-1.1-1.1-1.1-1.1 1.5 1.1.7 3.8.9 3.2zm15.8-4.6c0-.2-.2-.3-.4-.2-.1.1-.3.2-.2.4 0 .2.2.3.4.2.1-.1.2-.3.2-.4zM6.1 18.8s-.2.8-.4 1.4c-.2.7-.4 1.7-.2 1.9 0 0 .1-.7.4-1.7.4-1.1.3-1.4.2-1.6z"/>
  <linearGradient id="a" x1="39.253" x2="39.253" y1="8.882" y2="13.294" gradientUnits="userSpaceOnUse">
    <stop offset="0" stop-color="#735317"/>
    <stop offset=".552" stop-color="#C68217"/>
    <stop offset=".577" stop-color="#855E1D"/>
    <stop offset="1" stop-color="#CA7C08"/>
  </linearGradient>
  <path fill="url(#a)" d="M37.9 12.4c.2.3.5.7 1.2.7.5 0 .9-.3.9-.8 0-1.1-1.9-1-1.9-2.2 0-.8.6-1.1 1.3-1.1h1v.6c-.3-.3-.5-.4-.9-.4-.5 0-.8.2-.8.7 0 1 1.9.9 1.9 2.1 0 .8-.8 1.3-1.5 1.3-.3 0-.8-.1-1.1-.2v-.7z"/>
  <linearGradient id="b" x1="41.706" x2="41.706" y1="9.062" y2="13.187" gradientUnits="userSpaceOnUse">
    <stop offset="0" stop-color="#735317"/>
    <stop offset=".552" stop-color="#C68217"/>
    <stop offset=".577" stop-color="#855E1D"/>
    <stop offset="1" stop-color="#CA7C08"/>
  </linearGradient>
  <path fill="url(#b)" d="M41.8 9.1l.3.4-.5.3-.3-.4.5-.3zm.2 1.1v2.3c0 .2 0 .5.1.7h-.7c.1-.2.1-.5.1-.7v-1.8c0-.2 0-.4-.1-.4l.6-.1z"/>
  <linearGradient id="c" x1="44.066" x2="44.066" y1="8.589" y2="13.294" gradientUnits="userSpaceOnUse">
    <stop offset="0" stop-color="#735317"/>
    <stop offset=".552" stop-color="#C68217"/>
    <stop offset=".577" stop-color="#855E1D"/>
    <stop offset="1" stop-color="#CA7C08"/>
  </linearGradient>
  <path fill="url(#c)" d="M44.8 13.3V13v-.1s-.3.3-.9.3c-.8 0-1.1-.8-1.1-1.5 0-1.1.7-1.7 1.7-1.7h.3v-.6c0-.3 0-.5-.1-.7l.6-.1v3.9c0 .3 0 .5.1.7l-.6.1zm0-2.4c0-.3-.1-.5-.4-.5-.7 0-1.1.6-1.1 1.3 0 .6.3 1.3 1 1.3.4 0 .6-.3.6-.7v-1.4z"/>
  <linearGradient id="d" x1="46.828" x2="46.828" y1="10.152" y2="13.187" gradientUnits="userSpaceOnUse">
    <stop offset="0" stop-color="#735317"/>
    <stop offset=".343" stop-color="#C68217"/>
    <stop offset=".389" stop-color="#855E1D"/>
    <stop offset="1" stop-color="#CA7C08"/>
  </linearGradient>
  <path fill="url(#d)" d="M46.2 11.3c0-.5 0-.9-.2-1.1h.5c.1 0 0 .3.1.3 0 0 .2-.4.6-.4.2 0 .4.1.4.2s-.1.2-.2.2H47c-.3 0-.4.2-.4.5v1.4c0 .2 0 .5.1.7H46c.1-.2.1-.5.1-.7v-1.1z"/>
  <linearGradient id="e" x1="49.106" x2="49.106" y1="10.152" y2="13.294" gradientUnits="userSpaceOnUse">
    <stop offset="0" stop-color="#735317"/>
    <stop offset=".339" stop-color="#C48118"/>
    <stop offset=".365" stop-color="#C68217"/>
    <stop offset=".405" stop-color="#855E1D"/>
    <stop offset="1" stop-color="#CA7C08"/>
  </linearGradient>
  <path fill="url(#e)" d="M49.7 13.2c-.1-.2 0-.4-.1-.4-.2.3-.3.5-.8.5-.4 0-.8-.2-.8-.7 0-.6.7-.8 1.2-1 .4-.2.5-.2.5-.6 0-.3-.1-.6-.5-.6-.6 0-.4.6-.8.6-.1 0-.2-.1-.2-.2 0-.4.7-.6 1.2-.6s.9.1.9.5v1.4c0 .4 0 .8.2 1.1h-.8zm-.7-.3c.4 0 .6-.3.6-.7v-.7l-.4.2c-.5.2-.7.4-.7.7 0 .4.2.5.5.5z"/>
  <g>
    <image width="7194" height="3200" overflow="visible" xlink:href="5CB3E72EBDE967D.png" transform="matrix(.01 0 0 .01 2.408 9.884)"/>
  </g>
  <g>
    <linearGradient id="f" x1="31.49" x2="31.49" y1="44.094" y2="51.678" gradientUnits="userSpaceOnUse">
      <stop offset="0" stop-color="#735317"/>
      <stop offset=".604" stop-color="#C68217"/>
      <stop offset=".66" stop-color="#855E1D"/>
      <stop offset="1" stop-color="#CA7C08"/>
    </linearGradient>
    <path fill="url(#f)" fill-rule="evenodd" d="M33.7 47.9c.1 0 .2.2.2.2 0 .5-.7.5-1 .6.1-.4.5-.8.8-.8zm-5.8-.3c0-.8-.6-1-1.5-1h-1.8c-.6 0-1.1-.1-1.1-.7 0-1.1 1.6-1.6 2.3-1.6.5 0 .6.1.6.2s-.1.2-.2.4c-.1.1.8 0 .5-.5-.1-.2-.2-.3-.8-.3-1.7 0-3.2.9-3.2 2.1 0 1 1 1.2 1.6 1.2h1.9c.6 0 1.1.1 1.1.6 0 1.2-2.1 2.4-3.8 2.4-1.3 0-2.3-.6-2.3-1.4 0-.3.2-.6.4-.8h.1c.1-.1.2-.1.3-.2h.1c.8-.2 1.5.2 1.6.6.1.4 0 .7 0 .7-.4-.5-1.2 0-1.3.1-.1.1-.3 0-.3 0 .1.2.4.4.4.4.5.3 1.5-.2 1.4-.9-.1-.7-.5-.9-1-1-.4-.1-1 0-1 0h-.1c-.4.2-1 .7-1 1.6 0 .7.6 1.5 2.3 1.5 2.9-.1 4.8-2.2 4.8-3.4zm11.2 2.6h.2c.5.1.8.3.8.7 0 .2-.2.3-.2.3-.2 0-.3-.1-.6-.2-.2-.1-.4-.3-.4-.5.1-.1.2-.2.2-.3zm-.2 0c-.2.3-.3.4-.3.6 0 .5.7.8 1.1.8.4 0 .8-.3.8-.7 0-.3-.1-.6-.3-.8 0 0-.2-.2-.7-.2.2-.2.7-.7.7-.8 0 0 0 .2.7.1.7 0 1.2-.3 1.2-.4 0 0 0-.1-.1-.1s-.3.1-.8.1c-.3 0-.4 0-.7-.1l.3-.3c.1-.1.2-.2.2-.3 0-.3-.3-.4-.8-.4-.7-.1-.7-.2-.7-.3v-.2c0-.1 0-.1-.1-.1s-.2.4-.2.7c0 .2 0 .2.1.3h.1s0 .2-.3.5c-.6.6-.8.5-.8.5-.2 0-.2-.1-.3-.7 0-.3-.1-.7-.3-.7-.4 0-1.1.7-1.4.9-.1 0-.3.3-.3.3-.1 0-.1-.1-.1-.1 0-.2.2-.5.3-.7.2-.2.3-.4.3-.4s0-.1-.1-.1c-.2 0-.9.6-1 .8 0 0 0 .1-.1.1-.2.1-.9.6-1.5.6-.1 0-.8 0-.9-.4.9-.1 1.6-.4 1.6-.9 0-.2-.2-.3-.3-.3-.5 0-1.2.5-1.6 1-.2.1-1 .6-1.2.6-.1 0-.1 0-.1-.1v-.3c0-.4-.3-.5-.3-.6 0-.1.1-.4.1-.4 0-.1-.1-.3-.2-.3-.2 0-.2.2-.3.4-.1 0-.2-.1-.4-.1-.7 0-1.4.5-1.7.9-1.2 1.3-2.3 1.4-2.3 1.4h-.1c0 .1.1.1.1.1.9-.1 1.9-.7 2.1-.9 0 .2.2.4.5.4.5 0 1.4-.8 1.8-1.1l.1-.1c.1 0 .1 0 .1.1 0 .2-.3.5-.3.8 0 .2.2.3.3.3.4 0 1.3-.6 1.7-.9v.2c0 .4.4.8 1 .8.4 0 .6-.1.9-.2.4-.2.8-.5 1-.6 0 .2-.1.3-.1.5 0 .3 0 .3.2.3s.5-.3.9-.7c.6-.6.7-.7.9-.7.2 0 .2.1.2.6 0 .2.1.7.4.7.2 0 .3-.1.4-.2.5-.2.9-.7 1-.8.3-.3.4-.4.4-.6.1 0 .2 0 .3.1.4.1.4.1.4.2s-.1.1-.1.2h-.1c-.1 0-.2.1-.2.2s0 .1.1.1c-.3.4-.8.9-.8.9s-.3 0-.5.1c-.6.3-.9.5-1.1.7-.3.3-.3.5-.3.5.3-.4 1-.7 1.5-.8zm-8.4-3.1h.1c.3-.1 1-.3 1-.7 0-.1-.1-.2-.2-.2-.2 0-.2.1-.3.2 0 .1-.1.3-.4.4l-.2.1c0 .1-.1.1 0 .2-.1 0-.1 0 0 0zm-1.3 2.1c-.2 0-.2-.2-.2-.2 0-.3.5-.9 1.2-.9.2 0 .3.1.3.3-.1.3-1 .8-1.3.8z" clip-rule="evenodd"/>
    <g>
      <path fill="#A47122" fill-rule="evenodd" d="M56.3 47.2c.3-.2.4-.4.4-.5 0 0-.1.1-.3.1-.2 0-.3-.1-.5-.1-.1 0-.3.2-.2.3.1.3.4.4.6.2z" clip-rule="evenodd"/>
      <linearGradient id="g" x1="55.858" x2="55.858" y1="44.146" y2="50.58" gradientUnits="userSpaceOnUse">
        <stop offset="0" stop-color="#735317"/>
        <stop offset=".678" stop-color="#C68217"/>
        <stop offset=".74" stop-color="#855E1D"/>
        <stop offset="1" stop-color="#CA7C08"/>
      </linearGradient>
      <path fill="url(#g)" d="M67.6 48c-.1-.1-.1-.1 0 0 0-.1 0-.1.1-.2 0 0 .2-.1.2-.2s-.1-.2-.2-.2c-.2 0-.3.1-.4.2-.3.3-.4.3-.4.4v.1c-.2.2-.3.2-.6.4l-.1.1c-.4.3-.9.7-1.4.7-.1 0-.8 0-.9-.4.9-.1 1.6-.4 1.6-.9 0-.2-.2-.3-.3-.3-.4 0-1.2.4-1.5.9-.3.3-.8.7-1 .7-.2 0-.2-.1-.3-.7 0-.3-.1-.7-.3-.7-.4 0-1.1.7-1.4.9-.1 0-.3.3-.3.3-.1 0-.1-.1-.1-.1 0-.2.2-.5.3-.7.2-.2.3-.4.3-.4s0-.1-.1-.1-.2.1-.4.2v-.1c-.2.3-.8.3-.8.3-.4 0-.6-.2-.9-.3-.1-.1-.2-.1-.2-.1 0-.1-.4-.2-.5.1-.3.1-.9.3-1.3.8l-.1.1-.3.3c-.3.2-.6.3-.8.3-.3 0-.5-.2-.5-.4s.3-.5.5-.8c.1-.1.2-.2.2-.3 0-.1 0-.1-.1-.1s-.2 0-.2.1l-.7.7c-.2.1-.9.7-1.4.7-.2 0-.5-.1-.5-.3 0-.2.4-.3.4-.6 0-.2-.1-.3-.6-.5.1-.1.2-.3.2-.4 0-.1-.1-.2-.1-.2-.1 0-.2.2-.4.3-.1.1-.3.2-.6.3-.2.1-.3.1-.3.1v-.3c0-.7-.8-1.1-2.1-1.1-.4 0-.7 0-.7-.1s1.8-.6 1.9-1.7c0-.4-.3-.8-.9-.8-1.3 0-2.9 1.4-3.7 2 .1-.2.1-.5.1-.9 0-.5-.2-.9-.5-1 0 0-.6-.2-1.3.3 0 0-.1.1 0 .1s0 .2 0 .3c0 .1.1-.1.2-.2s.3-.4.6-.4H45.3c.2.1.3.3.3.7 0 .7-.3 1.3-.8 1.9-.7.7-1.3 1.5-1.3 1.6 0 .1 0 .1.1.2l.2.3c.1.1.1.2.2.2s.2-.1.2-.3c.3-.5.7-1 1-1.5 2-2.6 3.3-3.2 4-3.2.4 0 .7.3.7.7-.1 1.2-2.4 1.5-2.4 2 0 .3.8.3 1.5.3s1.4.2 1.5.8l-3.4.9c-1.3.3-1.6.6-1.6.9 0 .3.5.6 1.5.6.8 0 2.5-.4 3.7-1.5.4-.3.5-.6.6-.8l.2-.1s.2 0 .4-.1c0 .1 0 .1.1.1l.2.1.4.2c.1 0 .1.1.1.2s-.5.4-.5.6c0 .1.1.2.2.4.1.1.2.2.4.2.3 0 .7-.3 1.1-.5.2-.1.4-.3.6-.4v.3c0 .4.2.6.6.6.5 0 1-.5 1.4-.7v.2c0 .3.3.6.8.6.8 0 1.6-.5 1.7-1.3.4 0 .7-.1.9-.2-.1.1-.1.1-.1.2-.2.3-.2.5-.2.9 0 .3.1.3.2.3.2 0 .5-.3.9-.7.6-.6.7-.7.9-.7.2 0 .2.1.2.6 0 .2.1.7.4.7.2 0 .3-.1.4-.2.3-.2.7-.5.9-.7v.1c0 .4.4.8 1 .8.4 0 .6-.1.9-.2.4-.2.8-.7 1.1-.9l.6-.4.4.2c.3.2.3.3.3.4 0 .3-.2.7-.5.7-.2 0-.2-.5-.6-.5-.1 0-.3.1-.3.4 0 .4.4.4.6.4.8 0 1.3-.8 1.3-1.2-.2-.1-.5-.3-.7-.4zm-2.8-.1c.1 0 .1.2.1.2 0 .5-.8.5-1 .6.1-.4.5-.8.9-.8zm-17.7 2.5c-.6 0-1-.1-1-.3 0-.2.4-.5 2.1-1l2.4-.6c0 1-2.4 1.9-3.5 1.9zm10.8-1.1c-.3 0-.8-.2-.8-.5 0-.5.4-.6.8-.8 0 .3.2.4.3.5.1 0 .3.1.6.1-.2.4-.5.7-.9.7z"/>
    </g>
  </g>
  <g>
    <linearGradient id="h" x1="14.025" x2="14.025" y1="15.764" y2="40.163" gradientUnits="userSpaceOnUse">
      <stop offset="0" stop-color="#735317"/>
      <stop offset=".552" stop-color="#C68217"/>
      <stop offset=".577" stop-color="#855E1D"/>
      <stop offset="1" stop-color="#CA7C08"/>
    </linearGradient>
    <path fill="url(#h)" d="M15.8 20v16.5l.2 1c.4 1 1.4 1.5 3.1 1.6.5 0 .8.2.8.4 0 .4-.5.7-1.6.7-.2 0-1-.1-2.4-.2-.7-.1-1.7-.1-2.9-.1s-2.3.1-3.2.2c-.4 0-.6.1-.8.1-.3 0-.5-.2-.5-.5s.2-.4.5-.5c1.3-.2 2.1-.5 2.5-.9.4-.4.6-1.1.6-2.2V21.4c0-1.3-.5-1.9-1.5-1.9-.4 0-.7.1-1.1.2L9 20h-.3c-.3 0-.5-.1-.5-.4 0-.3.1-.5.5-.7.3-.2.9-.4 1.9-.6 1.8-.4 3-.9 3.8-1.6l.9-.8c.1-.1.3-.2.5-.2.3 0 .4.2.4.7v.7l-.1 1.6c-.3.5-.3.8-.3 1.3z"/>
    <linearGradient id="i" x1="31.394" x2="31.394" y1="16.026" y2="40.526" gradientUnits="userSpaceOnUse">
      <stop offset="0" stop-color="#735317"/>
      <stop offset=".552" stop-color="#C68217"/>
      <stop offset=".577" stop-color="#855E1D"/>
      <stop offset="1" stop-color="#CA7C08"/>
    </linearGradient>
    <path fill="url(#i)" d="M31.9 16c1.9 0 3.5.5 4.7 1.5 1.2 1 1.8 2.3 1.8 3.8 0 1-.3 1.9-.9 2.7-.6.8-1.4 1.4-2.4 1.7-.6.2-.9.4-.9.5 0 .1.3.3 1 .6 2.9 1.2 4.3 3.3 4.3 6.2 0 2.2-.7 4-2.3 5.4-1.5 1.4-3.5 2-6 2-2.4 0-4.4-.6-5.9-1.9-1.5-1.2-2.2-2.9-2.2-4.9 0-2.2 1.2-4 3.6-5.4.2-.1.3-.2.3-.3 0-.1-.1-.2-.4-.4-1.7-1.3-2.6-2.9-2.6-5 0-1.9.7-3.5 2.2-4.8 1.7-1.1 3.5-1.7 5.7-1.7zm-3.4 12.7c-.2 0-.4.1-.7.3-.3.2-.6.5-.8.7-.7.8-1 1.8-1 3.2 0 1.9.6 3.4 1.7 4.6 1.1 1.2 2.5 1.8 4.2 1.8 1.4 0 2.6-.4 3.6-1.2.9-.8 1.4-1.8 1.4-3 0-2.2-1.2-3.7-3.5-4.6l-1.9-.7c-.4-.2-1.1-.5-2.1-.9-.6-.1-.8-.2-.9-.2zm2.8-11.5c-1.3 0-2.3.3-3.2 1.1-.8.7-1.3 1.6-1.3 2.6 0 1.2.7 2.2 2 3.1 1.5 1 2.9 1.5 4.2 1.5.9 0 1.6-.4 2.2-1.1.6-.7.9-1.6.9-2.6 0-1.3-.4-2.4-1.4-3.3-.9-.9-2-1.3-3.4-1.3z"/>
    <linearGradient id="j" x1="50.97" x2="50.97" y1="16.026" y2="40.526" gradientUnits="userSpaceOnUse">
      <stop offset="0" stop-color="#735317"/>
      <stop offset=".552" stop-color="#C68217"/>
      <stop offset=".577" stop-color="#855E1D"/>
      <stop offset="1" stop-color="#CA7C08"/>
    </linearGradient>
    <path fill="url(#j)" d="M51.5 16c1.9 0 3.5.5 4.7 1.5 1.2 1 1.9 2.3 1.9 3.8 0 1-.3 1.9-.9 2.7-.6.8-1.4 1.4-2.4 1.7-.6.2-.9.4-1 .5 0 .1.3.3 1 .6 2.9 1.2 4.3 3.3 4.3 6.2 0 2.2-.8 4-2.3 5.4-1.5 1.4-3.5 2-6 2-2.4 0-4.4-.6-5.9-1.9-1.5-1.2-2.2-2.9-2.2-4.9 0-2.2 1.2-4 3.6-5.4.2-.1.3-.2.3-.3 0-.1-.1-.2-.4-.4-1.7-1.3-2.6-2.9-2.6-5 0-1.9.7-3.5 2.2-4.8 1.6-1.1 3.5-1.7 5.7-1.7zM48 28.7c-.2 0-.4.1-.8.3-.3.2-.6.5-.8.7-.7.8-1 1.8-1 3.2 0 1.9.6 3.4 1.7 4.6 1.1 1.2 2.5 1.8 4.2 1.8 1.5 0 2.6-.4 3.6-1.2.9-.8 1.4-1.8 1.4-3 0-2.2-1.2-3.7-3.5-4.6l-1.9-.7c-.5-.2-1.1-.5-2.1-.9-.4-.1-.6-.2-.8-.2zm2.9-11.5c-1.3 0-2.4.3-3.2 1.1-.8.7-1.3 1.6-1.3 2.6 0 1.2.6 2.2 2 3.1 1.5 1 2.9 1.5 4.2 1.5.9 0 1.6-.4 2.2-1.1.6-.7.9-1.6.9-2.6 0-1.3-.5-2.4-1.4-3.3-1-.9-2.1-1.3-3.4-1.3z"/>
    <linearGradient id="k" x1="70.55" x2="70.55" y1="16.026" y2="40.526" gradientUnits="userSpaceOnUse">
      <stop offset="0" stop-color="#735317"/>
      <stop offset=".552" stop-color="#C68217"/>
      <stop offset=".577" stop-color="#855E1D"/>
      <stop offset="1" stop-color="#CA7C08"/>
    </linearGradient>
    <path fill="url(#k)" d="M71.1 16c1.9 0 3.5.5 4.7 1.5 1.2 1 1.8 2.3 1.8 3.8 0 1-.3 1.9-.9 2.7-.6.8-1.4 1.4-2.4 1.7-.6.2-.9.4-.9.5 0 .1.3.3 1 .6 2.9 1.2 4.3 3.3 4.3 6.2 0 2.2-.8 4-2.3 5.4-1.5 1.4-3.5 2-6 2-2.4 0-4.4-.6-5.9-1.9-1.5-1.2-2.2-2.9-2.2-4.9 0-2.2 1.2-4 3.6-5.4.2-.1.3-.2.3-.3 0-.1-.1-.2-.4-.4-1.7-1.3-2.6-2.9-2.6-5 0-1.9.7-3.5 2.2-4.8 1.6-1.1 3.4-1.7 5.7-1.7zm-3.5 12.7c-.2 0-.4.1-.8.3-.3.2-.6.5-.8.7-.7.8-1 1.8-1 3.2 0 1.9.5 3.4 1.7 4.6 1.1 1.2 2.5 1.8 4.2 1.8 1.5 0 2.6-.4 3.6-1.2.9-.8 1.4-1.8 1.4-3 0-2.2-1.2-3.7-3.5-4.6l-1.9-.7c-.5-.2-1.2-.5-2.1-.9-.4-.1-.7-.2-.8-.2zm2.9-11.5c-1.3 0-2.3.3-3.2 1.1-.8.7-1.3 1.6-1.3 2.6 0 1.2.7 2.2 2 3.1 1.5 1 2.9 1.5 4.2 1.5.9 0 1.6-.4 2.2-1.1.6-.7.9-1.6.9-2.6 0-1.3-.5-2.4-1.4-3.3-1-.9-2.1-1.3-3.4-1.3z"/>
  </g>
</svg>
