<svg xmlns="http://www.w3.org/2000/svg" viewBox="0 0 90 32.7">
  <path fill="#004D95" d="M70.9 9h17.9v23.7H70.9z"/>
  <linearGradient id="a" x1="-7718.476" x2="-7725.8" y1="-7685.573" y2="-7685.573" gradientUnits="userSpaceOnUse" gradientTransform="matrix(1.32 0 0 1.32 10266.314 10155.028)">
    <stop offset="0" stop-color="#004D95"/>
    <stop offset=".47" stop-color="#004D95"/>
    <stop offset="1" stop-color="#002A59"/>
  </linearGradient>
  <path fill="url(#a)" d="M70.9 9h18.5v23.7H70.9z"/>
  <linearGradient id="b" x1="-7880.873" x2="-7866.495" y1="-7181.522" y2="-7181.522" gradientUnits="userSpaceOnUse" gradientTransform="matrix(-1.32 0 0 -1.32 -10301.71 -9438.61)">
    <stop offset="0" stop-color="#FFF"/>
    <stop offset=".013" stop-color="#FDFDFD"/>
    <stop offset=".084" stop-color="#F6F7F8"/>
    <stop offset=".281" stop-color="#F4F5F6"/>
    <stop offset=".321" stop-color="#F2F3F4"/>
    <stop offset=".336" stop-color="#ECECEF"/>
    <stop offset=".337" stop-color="#EBEBEE"/>
    <stop offset=".612" stop-color="#9D9CA1"/>
    <stop offset="1" stop-color="#211915"/>
  </linearGradient>
  <path fill="url(#b)" d="M71 31.3h19v-.7H71"/>
  <linearGradient id="c" x1="-7728.341" x2="-7728.341" y1="-7669.779" y2="-7680.126" gradientUnits="userSpaceOnUse" gradientTransform="matrix(1.32 0 0 1.32 10266.314 10146.5)">
    <stop offset="0" stop-color="#004D95"/>
    <stop offset=".47" stop-color="#004D95"/>
    <stop offset="1" stop-color="#002A59"/>
  </linearGradient>
  <path fill="url(#c)" d="M80.5 28.7L71 32.6V20.1"/>
  <path fill="#FFF" d="M71.8 10.3h17.8v.7H71.8"/>
  <path fill="#004D95" d="M.4 9h19v23.7H.4z"/>
  <linearGradient id="d" x1="-7785.519" x2="-7777.679" y1="-7685.583" y2="-7685.583" gradientUnits="userSpaceOnUse" gradientTransform="matrix(1.32 0 0 1.32 10266.314 10155.028)">
    <stop offset="0" stop-color="#004D95"/>
    <stop offset=".47" stop-color="#004D95"/>
    <stop offset="1" stop-color="#002A59"/>
  </linearGradient>
  <path fill="url(#d)" d="M.1 9h19.3v23.7H.1z"/>
  <linearGradient id="e" x1="-7728.341" x2="-7728.341" y1="-7680.127" y2="-7669.78" gradientUnits="userSpaceOnUse" gradientTransform="matrix(1.32 0 0 1.32 10266.314 10146.5)">
    <stop offset="0" stop-color="#004D95"/>
    <stop offset=".47" stop-color="#004D95"/>
    <stop offset="1" stop-color="#002A59"/>
  </linearGradient>
  <path fill="url(#e)" d="M80.5 28.7L71 32.6V20.1"/>
  <path fill="#FFF" d="M18.9 10.3H0v.7h18.9"/>
  <linearGradient id="f" x1="-7785.787" x2="-7771.418" y1="-7671.435" y2="-7671.435" gradientUnits="userSpaceOnUse" gradientTransform="matrix(1.32 0 0 1.32 10266.314 10146.5)">
    <stop offset="0" stop-color="#FFF"/>
    <stop offset=".013" stop-color="#FDFDFD"/>
    <stop offset=".084" stop-color="#F6F7F8"/>
    <stop offset=".281" stop-color="#F4F5F6"/>
    <stop offset=".321" stop-color="#F2F3F4"/>
    <stop offset=".336" stop-color="#ECECEF"/>
    <stop offset=".337" stop-color="#EBEBEE"/>
    <stop offset=".612" stop-color="#9D9CA1"/>
    <stop offset="1" stop-color="#211915"/>
  </linearGradient>
  <path fill="url(#f)" d="M18.9 30.6H0v.7h18.9"/>
  <path fill="#004D95" d="M9.9 28.7l9.5 3.9V20.1"/>
  <linearGradient id="g" x1="-7774.667" x2="-7774.667" y1="-7676.612" y2="-7679.674" gradientUnits="userSpaceOnUse" gradientTransform="matrix(1.32 0 0 1.32 10266.314 10155.028)">
    <stop offset="0" stop-color="#004D95"/>
    <stop offset=".47" stop-color="#004D95"/>
    <stop offset="1" stop-color="#002A59"/>
  </linearGradient>
  <path fill="url(#g)" d="M9.9 28.7l9.5 3.9V20.1"/>
  <path fill="#004D95" d="M80.5 28.7c-9.1-3.4-21.5-5.3-35.4-5.3-14 0-26.1 2.1-35.1 5.3V5.3C18.9 2 31 0 45 0c13.9 0 26.4 2 35.4 5.3V28.7z"/>
  <path fill="#FFF" d="M9.9 7.4C19.3 4 31.8 2.1 45 2.1c13.6 0 26.3 1.9 35.4 5.3v-.8C71.2 3.2 58.7 1.3 45 1.3c-13.5 0-25.5 1.8-35.1 5.3v.8zM9.9 27.4C19.3 24 31.8 22 45 22c13.6 0 26.3 1.9 35.4 5.3v-.8c-9.2-3.4-21.8-5.3-35.4-5.3-13.5 0-25.5 1.8-35.1 5.3v.9z"/>
  <g fill="#FFF">
    <path d="M17.1 10.8c-.1-.5-.2-1-.3-1.4l.9-.3c.5-.1.8-.1 1.1 0 .3.1.5.2.7.5.2.3.4.6.5 1 .1.4.1.8 0 1.1-.1.3-.2.6-.3.8-.2.2-.4.4-.7.5-.3.1-.6.2-1 .3l-.5.1-.3-1.2-.1-1.4zm.6 9.9l2.7-.5c.7-.2 1.3-.4 1.7-.7.4-.3.8-.6 1.1-1 .3-.4.5-.9.7-1.4.1-.5.2-1 0-1.6-.1-.5-.3-1-.7-1.4-.3-.4-.7-.7-1.1-.8-.4-.1-1.1-.2-2.1-.1.8-.4 1.2-.7 1.4-.9.4-.3.6-.7.8-1.2.2-.5.2-1 .1-1.4-.1-.5-.3-.9-.6-1.2-.3-.3-.7-.5-1.2-.6-.5-.1-1.2-.1-2.1.1-.2 0-.7.2-1.5.4-.3.1-.7.2-1.2.3-.5.1-1 .2-1.3.3l-1.1.2c-.1 0-.3 0-.4.1l.1.5c.7-.1 1.1-.1 1.2-.1.1 0 .1.1.1.2.1.1.2.7.4 1.6.3 1.3.5 2.2.6 2.8.5 2.2.8 3.8.9 4.6.1.4.1.8.2 1.1-.2.2-.3.4-.6.7l.1.4c.8-.2 1.4-.3 1.8-.4zm1.1-1.4l-.2-1-.8-3.9c.2-.1.4-.1.6-.2.6-.1 1.1-.2 1.5-.1.4.1.7.3 1 .7.3.3.5.8.6 1.4.2.9.1 1.6-.2 2.2-.3.6-.8.9-1.5 1-.5.1-.8.2-1 .2.1-.2 0-.3 0-.3zM25.5 6.6c.3-.1.7 0 .9.3.3.2.4.5.5.9 0 .4 0 .7-.2 1-.2.3-.5.5-.8.5-.3 0-.6 0-.9-.3-.3-.2-.4-.5-.5-.9-.1-.4 0-.7.2-1 .1-.3.4-.5.8-.5zM25 19.2l-.1-.6c.6-.1.9-.2 1-.3.1-.1.1-.2.1-.3 0-.3-.1-1.2-.2-2.5-.2-1.8-.4-2.9-.5-3.1 0-.1-.1-.2-.1-.2-.1-.1-.5-.1-1.1 0l-.1-.7c.8-.2 1.4-.4 1.8-.5.4-.2.8-.4 1.3-.7l.2.1c.1.9.1 1.8.3 2.6l.4 3c.1 1 .2 1.6.3 1.8 0 .1.1.2.2.2.1.1.5.1 1.1 0l.1.7c-.8.1-1.6.2-2.5.3-.9 0-1.6.1-2.2.2zM33.8 13.3c-.7.1-1.3.1-1.6.1-.1-.9 0-1.6.3-2 .2-.4.6-.6 1-.7.4 0 .8.1 1.1.5.3.3.4 1 .5 1.9-.5.1-.9.2-1.3.2zm2.1 3.6c-.3.1-.5.2-.8.2-.7 0-1.3-.2-1.9-.7-.5-.5-.8-1.2-.9-2.1h.7c.1 0 .4 0 1.1-.1.7 0 1.2-.1 1.6-.2.1 0 .4-.1.7-.2.3-.1.5-.2.6-.2v-.5c-.1-.7-.2-1.3-.4-1.8s-.6-.9-1.1-1.2c-.5-.3-1.1-.4-1.8-.4-.5 0-1 .2-1.3.4-.2.1-.5.3-.9.7-.4.4-.7.6-.8.7-.2.2-.3.5-.4 1-.1.6-.2 1.3-.1 2.1 0 .5.1 1 .3 1.5.1.4.3.8.6 1.2.3.3.5.6.8.8.3.2.7.4 1.1.5.4.1.9.1 1.4.1.4 0 .8-.1 1.2-.2.5-.2.9-.4 1.3-.8l.3-.9-.2-.3c-.5.2-.8.3-1.1.4zM44.9 16.5l.2.2-.3.8c-.5.3-.8.4-1.1.5-.3.1-.6.1-1 .1-.9 0-1.6-.2-2.2-.5-.6-.4-1-.9-1.3-1.6-.2-.5-.3-1.2-.3-2 0-.6 0-1.1.1-1.5.1-.4.2-.8.4-1.1.1-.2.3-.4.5-.6l1.2-.9c.4-.3.7-.5.9-.6.3-.1.6-.2 1-.2.3 0 .7 0 1 .1.3.1.6.1.8.3l.1.2-.2 1.4c0 .1 0 .5-.1 1.2H44c-.1-.5-.1-.9-.1-1.2-.1-.2-.3-.4-.5-.5-.2-.1-.5-.2-.9-.2s-.8.1-1 .3c-.2.2-.4.5-.5.9-.1.4-.2.9-.2 1.4 0 .7.2 1.4.4 2 .2.6.5 1 .9 1.3.4.3.9.4 1.4.4.3 0 .5 0 .7-.1.3.1.5 0 .7-.1zM55.5 17.5v.7c-.2 0-.7 0-1.4-.1h-1.4c-.3-.5-.8-1.3-1.6-2.4-.8-1.1-1.3-1.7-1.4-1.8 0-.1-.1-.1-.2-.1V17c0 .1 0 .1.1.1s.2.1.3.1c.1 0 .3 0 .8.1v.7c-.7-.1-1.4-.1-2.2-.1h-2.3v-.7h.8c.1 0 .2-.1.2-.1s.1-.1.1-.2c.1-.2.1-.7.1-1.4.1-1.1.1-2 .1-2.8l.1-2.9c0-.9.1-1.8 0-2.6v-.7s0-.1-.1-.1-.2-.1-.3-.1c-.1 0-.3-.1-.7-.1v-.6c.8-.1 1.3-.1 1.7-.2.4-.1.9-.2 1.5-.4h.2l-.1 1.9c-.1 1-.1 2.1-.2 3.2l-.1 3.2c.2-.1.4-.3.6-.5.5-.5.9-.8 1.2-1.2l.6-.6c.3-.3.5-.6.8-.8v-.5c.5 0 1 .1 1.5.1h1.1v.7h-.8c-.1 0-.2 0-.3.1-.2.1-.4.3-.8.5-.5.4-.8.6-.9.7l-.2.2-.7.6c.4.6 1.2 1.7 2.3 3.1.6.8 1 1.3 1.2 1.4 0 .3.2.3.4.4zM60.3 13.7c-.7-.1-1.3-.2-1.6-.3.1-.9.3-1.5.6-1.9.3-.4.7-.5 1.1-.5.4 0 .7.3 1 .7.2.4.3 1.1.1 2-.3.1-.7.1-1.2 0zm1.5 4c-.3.1-.6.1-.9 0-.7-.1-1.3-.4-1.7-1-.4-.6-.6-1.3-.6-2.3h.7c.1 0 .4 0 1.1.1.7.1 1.2.1 1.6.1h.8c.3 0 .5-.1.6-.1 0-.2 0-.3.1-.5.1-.7 0-1.4-.1-1.9s-.4-1-.8-1.4c-.4-.4-1-.6-1.7-.7-.5-.1-1 0-1.4.1-.2.1-.6.2-1 .5-.5.3-.8.5-.9.6-.2.2-.4.5-.5.9-.3.6-.4 1.3-.5 2-.1.5-.1 1 0 1.5s.2.9.4 1.2c.2.4.4.7.7.9.2.3.6.5 1 .7.4.2.9.3 1.4.4.4.1.8 0 1.2 0 .5-.1 1-.3 1.4-.5l.5-.8-.2-.3c-.6.3-.9.4-1.2.5zM68 19.1l.6.2-.1.7c-.6-.1-1.3-.3-2-.4-.8-.1-1.7-.3-2.6-.4l.1-.7c.4.1.7.1.9 0 .1 0 .1 0 .2-.1s.1-.3.2-.6l.2-.8c0-.2.1-.4.1-.8l.2-1.1c.1-.5.2-1.2.3-1.9 0-.4.1-.6 0-.6 0-.1-.1-.1-.1-.1-.1-.1-.4-.1-.9-.2l.1-.7c1 0 1.7 0 2-.1.3 0 .7-.1 1.1-.3l.2.2-.3 1.8c.4-.3.7-.6 1-.8.3-.3.6-.5.7-.6.2-.1.5-.1.8-.1.2 0 .4.1.5.2l-.3 1.1c-.1.7-.2 1-.2 1.2l-.4.1c-.1-.2-.2-.4-.3-.5-.2-.2-.4-.3-.6-.3-.3-.1-.6 0-.9.2-.3.2-.4.4-.5.6 0 .1-.1.6-.3 1.5l-.1.9-.2 1.2c-.1.4-.1.7-.1.8 0 .1 0 .2.1.3.1-.1.3 0 .6.1zM71.7 13.6l.1-.4.8-.3c.1 0 .3-.1.4-.2l.3-1.2c.1-.4.2-.9.3-1.5.6-.1.9-.1 1.1-.1 0 0 .4-.1 1.1-.3l.2.2-.3.9-.3 1-.4 1.5.3.1c.7.1 1.2.3 1.6.3l-.4 1.1h-.2l-.8-.2-.8-.2-.7 2.8c-.2.9-.3 1.4-.3 1.6 0 .3 0 .5.1.7.1.2.3.3.6.4.2 0 .3.1.4.1h.4v.4l-.2.2c-.3.2-.6.4-.8.5-.2 0-.4.1-.6 0-.2 0-.3 0-.5-.1-.6-.2-1.1-.4-1.3-.9-.3-.4-.3-.9-.2-1.4l.7-2.8.5-2.1h-.2c-.3 0-.6 0-.9-.1z"/>
  </g>
</svg>
