<svg xmlns="http://www.w3.org/2000/svg" xmlns:xlink="http://www.w3.org/1999/xlink" viewBox="0 0 105.5 32.8">
  <path fill="#B1132F" d="M41.3 24.2L1.7 30.5 20.9 1l26.6 10.3 53.3-9.5-19.5 30.1"/>
  <path fill="#FFF" d="M21.2 2.1L47 11.9l.4.2.5-.1 51.2-9-18.2 28-39.3-7.6-.3-.1H41l-37.5 6M20.5 0L0 31.6 41.3 25l40.5 7.8L102.7.7l-55 9.7L20.5 0z"/>
  <defs>
    <path id="a" d="M2.9 29.7l38.4-6.1 39.8 7.7L99.7 2.6l-52.3 9.2L21.1 1.7z"/>
  </defs>
  <clipPath id="b">
    <use xlink:href="#a" overflow="visible"/>
  </clipPath>
  <path fill="none" stroke="#721818" stroke-width=".181" stroke-miterlimit="10" d="M.9 1.7h104.6M.9 2.9h104.6M.9 4h104.6M.9 5.1h104.6M.9 6.3h104.6M.9 7.4h104.6M.9 8.5h104.6M.9 9.7h104.6M.9 10.8h104.6M.9 11.9h104.6M.9 13.1h104.6M.9 14.2h104.6M.9 15.3h104.6M.9 16.5h104.6M.9 17.6h104.6M.9 18.7h104.6M.9 19.9h104.6M.9 21h104.6M.9 22.1h104.6M.9 23.3h104.6M.9 24.4h104.6M.9 25.6h104.6M.9 26.7h104.6M.9 27.8h104.6M.9 29h104.6M.9 30.1h104.6M.9 31.2h104.6" clip-path="url(#b)"/>
  <g>
    <path fill="#721818" d="M21.5 3.2L47 12.9l.3.1.3-.1 49.5-8.7L80.5 30l-39-7.6h-.4L5.4 28.1M21.1 1.7l-18.2 28 38.3-6.1L81 31.3 99.7 2.6l-52.2 9.2L21.1 1.7z"/>
    <path fill="#A6A7A8" d="M21.2 2.1l26.1 10h.2l51.5-9-18.1 27.8-39.6-7.7h-.2l-37.6 6M21.1 1.7l-18.2 28 38.3-6.1L81 31.3 99.7 2.6l-52.2 9.2L21.1 1.7z"/>
    <path fill="#721818" d="M82.1 14.5c.2 0 .3.1.3.3 0 1.2-1.9 2.8-3.5 3 1.3-2.1 2.4-3.3 3.2-3.3m-12.1-3c0-.6.5-1.3 1.2-1.3.4 0 .8.3.8.9 0 .7-.5 1.3-1.2 1.3-.5 0-.8-.4-.8-.9m3.7 3.6c-.1.5-.3 1.4-.4 1.9-.5 2.6-1.2 4-2.5 4-.4 0-.6-.1-.8-.6-.1-.3-.3-.4-.6-.4-.2 0-.5.2-.5.5 0 .6.7 1 1.7 1 2 0 3.5-1.2 4.6-2.3.6-.5 1.1-1 1.7-1.6-.4.7-.7 1.4-.7 2.2 0 .9.6 1.6 1.9 1.6 2.5 0 4.2-2.3 5.2-3.6 1.4-1.8 2.5-3.1 3.1-3.1.2 0 .2.1.2.2 0 .2-.1.4-.2.7-1.2 2.1-3.2 5.2-3.5 5.7l2-.1c.9-1.5 3.4-4.7 4.6-5.8-.3.4-.4.9-.4 1.3 0 .7.5 1.3 1.4 1.3.5 0 .9-.1 1.3-.3l-.2-.4c-.2.1-.5.2-.7.2-.4 0-.6-.3-.6-.7 0-.8.7-1.8 1.5-2 0-.4-.3-.6-.9-.6-.7 0-1.8.6-3.9 3.3.6-1.2 1-1.7 1-2.4 0-.5-.4-.9-1.1-.9-1.4 0-2.2 1.2-4.1 3.5-1.1 1.5-2.5 3-3.9 3-.5 0-.8-.3-.8-.7 0-.5.3-1.2.5-1.6.5 0 1.2-.2 1.8-.5 1.7-.8 2.8-1.9 2.8-2.9 0-.7-.5-1-1.3-1-1 0-2.2.5-3.5 1.7-1.2 1.2-3.3 3.1-4.4 4 .5-.7.6-1.4.6-2.2 0-.8-.1-1.7-.1-2.4v-.4c.4-.1.7-.3.7-.8 0-.3-.2-.6-.6-.6-.6 0-1.1.5-1.2 1.6l.3.2zm-9.8-.6c.2 0 .4.1.4.3 0 1.3-1.9 2.8-3.5 3.1 1-1.7 2.2-3.4 3.1-3.4m-34.3 1.2c-1.1 1.4-3.4 3.5-5.3 4.7.8-.9 1.6-2.3 1.6-3.7 0-1.7-1.1-2.1-1.7-2.4 0 0 .4-.1.5-.1 1.2-.3 2.2-.9 2.8-1.5.6-.6 1.3-2 1.3-2.9 0-1.1-.7-2.2-2.7-2.2-1.8 0-3.2.8-4.6 2.7-.4-.2-.9-.4-1.3-.6.5-.6.9-1.2 1.1-1.5l-2.4.1c-.2.2-.3.4-.5.6-1.4-.5-3.3-1.1-5.6-1.1-3.5 0-5.7 1.4-5.7 3.5 0 1.6 1.4 2.7 4.1 2.7 1.9 0 3.3-.6 4.4-1.2-1.7 2.4-3.9 5.6-4.7 7-.4.6-.7 1.2-.7 1.7 0 .8.8 1.3 1.8 1.3 1.1 0 2.1-.8 3.2-2.3l.4-.5s-.1.3-.1.6c0 1.2.8 2.3 3.1 2.3 3.3 0 6.6-2.1 9.1-4.5l.6-.6c-.9 1.3-1.3 2.2-1.3 2.7 0 .7.5 1.1 1.2 1.1 1.2 0 2.4-.9 3.4-1.9l.5-.5c-.3.6-.5 1-.5 1.4 0 .6.3 1 1.2 1 1.4 0 2.8-1.3 3.9-2.5-.2.4-.3.9-.3 1.3 0 .8.5 1.2 1.3 1.2 1.1 0 2.2-.6 3.4-2 .2-.2.4-.5.6-.7-.2.5-.5 1-.5 1.6 0 .7.4 1.1 1.2 1.1 1.8 0 3.3-1.9 4.3-3-.5.8-.8 1.3-.8 1.9 0 .8.5 1.1 1.2 1.1.8 0 1.5-.4 2.2-.8.5-.4 1.2-1 1.9-1.9-.3.5-.5 1.1-.5 1.6 0 .7.5 1.2 1.4 1.2.8 0 1.6-.3 2.7-1.3 1-.8 1.7-1.8 2.3-2.8.3.5.7.7 1.2.9-.2.5-.4 1-.4 1.5 0 1 .6 1.6 2 1.6 2.3 0 4.1-1.9 5.3-3.2-.6 1-.8 1.6-.8 2.1 0 .7.5 1.1 1.4 1.1 1.5 0 2.9-1.4 4.3-2.9.5-.5 1.6-1.6 3.3-3.4l.2-.9c-.6.7-1.7 1.8-2.7 2.9-2.1 2.2-3.6 3.5-4.4 3.5-.2 0-.3-.1-.3-.4 0-.4.6-1.5 1.2-2.4 0 0 .5-.9 2.2-3.5l-2 .1c-.2.2-.7 1-.8 1.1-1.4 1.8-4 5.1-6.1 5.1-.7 0-.9-.3-.9-.8s.2-1 .4-1.5c.5-.1 1.1-.2 1.5-.4 1.9-.7 3.2-2 3.2-3 0-.7-.4-1-1.3-1-1.2 0-3 .7-4.6 3.1-.1.2-.3.5-.5.8-.5-.1-.9-.4-1.2-.9.7-1.2 1.2-2.3 1.2-2.7 0-.2-.2-.4-.5-.4-.4 0-.6.2-.8.4-.3.4-.5 1.3-.5 2.2-.5 1.4-2.6 4-3.9 4-.2 0-.4-.1-.4-.3 0-.4.5-1.4 1.5-3 .1-.2 1.3-2.1 1.8-3l-2 .1c-.5.7-.9 1.4-1.4 2.1-2.1 3-3.5 4.1-4.3 4.1-.3 0-.3-.1-.3-.3 0-.2.1-.4.3-.8.6-1.2 2.2-3.5 3.3-5.2l-2 .1c-.2.3-.9 1.3-1.2 1.6-2.8 3.6-4.2 4.6-4.9 4.6-.2 0-.3-.1-.3-.4 0-.4.4-1.2.7-1.7.6-1 1.4-2.4 2.8-4.8.6-1 2.5-4 3.1-5.1l-2.1.1s-.3.4-3.7 6.1c-.3-.5-.7-.8-1.5-.8-1.7 0-3.3 1.1-4.5 2.8l.1.2c-2 2.6-3.3 3.5-3.9 3.5-.3 0-.4-.2-.2-.6.1-.4.6-1.2 1.1-2.1 0 0 .6-.9 2.3-3.5l-2.1.2s-1.8 2.7-2.3 3.4c-1.1 1.4-2.6 2.8-3.4 2.8-.2 0-.3-.1-.3-.2 0-.2.1-.5.4-1 .6-1 3.2-5 3.2-5l-2.1.1c-.2.2-.7.8-.9 1.1m-18.3-2.2c-2.1 0-3.2-.8-3.2-2.2 0-1.7 1.8-3 4.9-3 2.2 0 4 .5 5.2 1 0 0 0 .1-.1.1l-1.2 1.7c-.8.7-2.5 2.4-5.6 2.4m2.2 7.9c-.4.3-.6.5-.9.5-.2 0-.3-.1-.3-.3 0-.2.1-.4.4-1 .4-.7 4.2-6.3 5.6-8.4l1.5-2.1c.4.2.9.4 1.3.6-1 1.4-2.5 3.7-3.9 5.8-1.6 2.4-2.8 4.1-3.7 4.9m7.3-7h.8c1.6 0 2 .9 2 1.9 0 2.3-2.2 5.7-5.4 5.7-1.4 0-1.9-.7-1.9-1.6 0-1.8 1.6-3.5 4.1-3.5v-.5c-.7 0-1.9.2-2.7.8 1.3-2 3.3-4.9 4.1-6.1.6.3 1 .7 1.5 1l.3-.4c-.4-.3-.9-.7-1.4-1 .8-1 2-2.3 3.3-2.3.9 0 1.2.6 1.2 1.3 0 1-.9 3-2.7 3.8-.8.4-1.9.4-3.2.4l-.5.7c.1-.2.3-.2.5-.2m20.1 4.8c-.9 1.1-1.6 1.4-2 1.4-.3 0-.4-.2-.4-.4 0-.8 1-2.5 1.9-3.6 1-1.2 1.8-1.9 2.6-1.9.5 0 .7.3.7.7 0 .1 0 .2-.1.3-.7 1.1-1.7 2.4-2.7 3.5"/>
    <path fill="none" stroke="#721818" stroke-width=".126" stroke-miterlimit="10" d="M82.1 14.5c.2 0 .3.1.3.3 0 1.2-1.9 2.8-3.5 3 1.3-2.1 2.4-3.3 3.2-3.3zm-12.1-3c0-.6.5-1.3 1.2-1.3.4 0 .8.3.8.9 0 .7-.5 1.3-1.2 1.3-.5 0-.8-.4-.8-.9zm3.7 3.6c-.1.5-.3 1.4-.4 1.9-.5 2.6-1.2 4-2.5 4-.4 0-.6-.1-.8-.6-.1-.3-.3-.4-.6-.4-.2 0-.5.2-.5.5 0 .6.7 1 1.7 1 2 0 3.5-1.2 4.6-2.3.6-.5 1.1-1 1.7-1.6-.4.7-.7 1.4-.7 2.2 0 .9.6 1.6 1.9 1.6 2.5 0 4.2-2.3 5.2-3.6 1.4-1.8 2.5-3.1 3.1-3.1.2 0 .2.1.2.2 0 .2-.1.4-.2.7-1.2 2.1-3.2 5.2-3.5 5.7l2-.1c.9-1.5 3.4-4.7 4.6-5.8-.3.4-.4.9-.4 1.3 0 .7.5 1.3 1.4 1.3.5 0 .9-.1 1.3-.3l-.2-.4c-.2.1-.5.2-.7.2-.4 0-.6-.3-.6-.7 0-.8.7-1.8 1.5-2 0-.4-.3-.6-.9-.6-.7 0-1.8.6-3.9 3.3.6-1.2 1-1.7 1-2.4 0-.5-.4-.9-1.1-.9-1.4 0-2.2 1.2-4.1 3.5-1.1 1.5-2.5 3-3.9 3-.5 0-.8-.3-.8-.7 0-.5.3-1.2.5-1.6.5 0 1.2-.2 1.8-.5 1.7-.8 2.8-1.9 2.8-2.9 0-.7-.5-1-1.3-1-1 0-2.2.5-3.5 1.7-1.2 1.2-3.3 3.1-4.4 4 .5-.7.6-1.4.6-2.2 0-.8-.1-1.7-.1-2.4v-.4c.4-.1.7-.3.7-.8 0-.3-.2-.6-.6-.6-.6 0-1.1.5-1.2 1.6l.3.2zm-9.8-.6c.2 0 .4.1.4.3 0 1.3-1.9 2.8-3.5 3.1 1-1.7 2.2-3.4 3.1-3.4zm-34.3 1.2c-1.1 1.4-3.4 3.5-5.3 4.7.8-.9 1.6-2.3 1.6-3.7 0-1.7-1.1-2.1-1.7-2.4 0 0 .4-.1.5-.1 1.2-.3 2.2-.9 2.8-1.5.6-.6 1.3-2 1.3-2.9 0-1.1-.7-2.2-2.7-2.2-1.8 0-3.2.8-4.6 2.7-.4-.2-.9-.4-1.3-.6.5-.6.9-1.2 1.1-1.5l-2.4.1c-.2.2-.3.4-.5.6-1.4-.5-3.3-1.1-5.6-1.1-3.5 0-5.7 1.4-5.7 3.5 0 1.6 1.4 2.7 4.1 2.7 1.9 0 3.3-.6 4.4-1.2-1.7 2.4-3.9 5.6-4.7 7-.4.6-.7 1.2-.7 1.7 0 .8.8 1.3 1.8 1.3 1.1 0 2.1-.8 3.2-2.3l.4-.5s-.1.3-.1.6c0 1.2.8 2.3 3.1 2.3 3.3 0 6.6-2.1 9.1-4.5l.6-.6c-.9 1.3-1.3 2.2-1.3 2.7 0 .7.5 1.1 1.2 1.1 1.2 0 2.4-.9 3.4-1.9l.5-.5c-.3.6-.5 1-.5 1.4 0 .6.3 1 1.2 1 1.4 0 2.8-1.3 3.9-2.5-.2.4-.3.9-.3 1.3 0 .8.5 1.2 1.3 1.2 1.1 0 2.2-.6 3.4-2 .2-.2.4-.5.6-.7-.2.5-.5 1-.5 1.6 0 .7.4 1.1 1.2 1.1 1.8 0 3.3-1.9 4.3-3-.5.8-.8 1.3-.8 1.9 0 .8.5 1.1 1.2 1.1.8 0 1.5-.4 2.2-.8.5-.4 1.2-1 1.9-1.9-.3.5-.5 1.1-.5 1.6 0 .7.5 1.2 1.4 1.2.8 0 1.6-.3 2.7-1.3 1-.8 1.7-1.8 2.3-2.8.3.5.7.7 1.2.9-.2.5-.4 1-.4 1.5 0 1 .6 1.6 2 1.6 2.3 0 4.1-1.9 5.3-3.2-.6 1-.8 1.6-.8 2.1 0 .7.5 1.1 1.4 1.1 1.5 0 2.9-1.4 4.3-2.9.5-.5 1.6-1.6 3.3-3.4l.2-.9c-.6.7-1.7 1.8-2.7 2.9-2.1 2.2-3.6 3.5-4.4 3.5-.2 0-.3-.1-.3-.4 0-.4.6-1.5 1.2-2.4 0 0 .5-.9 2.2-3.5l-2 .1c-.2.2-.7 1-.8 1.1-1.4 1.8-4 5.1-6.1 5.1-.7 0-.9-.3-.9-.8s.2-1 .4-1.5c.5-.1 1.1-.2 1.5-.4 1.9-.7 3.2-2 3.2-3 0-.7-.4-1-1.3-1-1.2 0-3 .7-4.6 3.1-.1.2-.3.5-.5.8-.5-.1-.9-.4-1.2-.9.7-1.2 1.2-2.3 1.2-2.7 0-.2-.2-.4-.5-.4-.4 0-.6.2-.8.4-.3.4-.5 1.3-.5 2.2-.5 1.4-2.6 4-3.9 4-.2 0-.4-.1-.4-.3 0-.4.5-1.4 1.5-3 .1-.2 1.3-2.1 1.8-3l-2 .1c-.5.7-.9 1.4-1.4 2.1-2.1 3-3.5 4.1-4.3 4.1-.3 0-.3-.1-.3-.3 0-.2.1-.4.3-.8.6-1.2 2.2-3.5 3.3-5.2l-2 .1c-.2.3-.9 1.3-1.2 1.6-2.8 3.6-4.2 4.6-4.9 4.6-.2 0-.3-.1-.3-.4 0-.4.4-1.2.7-1.7.6-1 1.4-2.4 2.8-4.8.6-1 2.5-4 3.1-5.1l-2.1.1s-.3.4-3.7 6.1c-.3-.5-.7-.8-1.5-.8-1.7 0-3.3 1.1-4.5 2.8l.1.2c-2 2.6-3.3 3.5-3.9 3.5-.3 0-.4-.2-.2-.6.1-.4.6-1.2 1.1-2.1 0 0 .6-.9 2.3-3.5l-2.1.2s-1.8 2.7-2.3 3.4c-1.1 1.4-2.6 2.8-3.4 2.8-.2 0-.3-.1-.3-.2 0-.2.1-.5.4-1 .6-1 3.2-5 3.2-5l-2.1.1c-.2.2-.7.8-.9 1.1zm-18.3-2.2c-2.1 0-3.2-.8-3.2-2.2 0-1.7 1.8-3 4.9-3 2.2 0 4 .5 5.2 1 0 0 0 .1-.1.1l-1.2 1.7c-.8.7-2.5 2.4-5.6 2.4zm2.2 7.9c-.4.3-.6.5-.9.5-.2 0-.3-.1-.3-.3 0-.2.1-.4.4-1 .4-.7 4.2-6.3 5.6-8.4l1.5-2.1c.4.2.9.4 1.3.6-1 1.4-2.5 3.7-3.9 5.8-1.6 2.4-2.8 4.1-3.7 4.9zm7.3-7h.8c1.6 0 2 .9 2 1.9 0 2.3-2.2 5.7-5.4 5.7-1.4 0-1.9-.7-1.9-1.6 0-1.8 1.6-3.5 4.1-3.5v-.5c-.7 0-1.9.2-2.7.8 1.3-2 3.3-4.9 4.1-6.1.6.3 1 .7 1.5 1l.3-.4c-.4-.3-.9-.7-1.4-1 .8-1 2-2.3 3.3-2.3.9 0 1.2.6 1.2 1.3 0 1-.9 3-2.7 3.8-.8.4-1.9.4-3.2.4l-.5.7c.1-.2.3-.2.5-.2zm20.1 4.8c-.9 1.1-1.6 1.4-2 1.4-.3 0-.4-.2-.4-.4 0-.8 1-2.5 1.9-3.6 1-1.2 1.8-1.9 2.6-1.9.5 0 .7.3.7.7 0 .1 0 .2-.1.3-.7 1.1-1.7 2.4-2.7 3.5z"/>
    <path fill="#721818" d="M82.2 14.6c.2 0 .3.1.3.3 0 1.2-1.9 2.8-3.4 3 1.1-2.1 2.2-3.3 3.1-3.3m-12.2-3c0-.6.5-1.3 1.2-1.3.4 0 .8.3.8.8 0 .7-.5 1.3-1.2 1.3-.5 0-.8-.3-.8-.8m3.7 3.6c-.1.5-.3 1.4-.4 1.9-.5 2.6-1.2 4-2.5 4-.4 0-.6-.1-.8-.6-.1-.3-.3-.4-.6-.4-.2 0-.5.2-.5.5 0 .6.7 1 1.7 1 2 0 3.5-1.2 4.6-2.3.6-.5 1.1-1 1.7-1.6-.4.7-.7 1.4-.7 2.2 0 .9.6 1.6 1.9 1.6 2.5 0 4.2-2.3 5.2-3.6 1.4-1.8 2.5-3.1 3.1-3.1.2 0 .2.1.2.2 0 .2-.1.4-.2.6-1.2 2.1-3.2 5.2-3.5 5.7l2-.1c.9-1.5 3.4-4.7 4.6-5.8-.3.4-.4.9-.4 1.3 0 .7.5 1.3 1.4 1.3.5 0 .9-.1 1.3-.3l-.2-.4c-.2.1-.5.2-.7.2-.4 0-.6-.3-.6-.6 0-.8.7-1.8 1.5-2 0-.4-.3-.6-.9-.6-.7 0-1.8.6-3.9 3.3.6-1.2 1-1.7 1-2.4 0-.5-.4-.9-1.1-.9-1.4 0-2.2 1.2-4.1 3.5-1.1 1.5-2.5 3-3.9 3-.5 0-.8-.3-.8-.7 0-.5.3-1.2.5-1.6.5 0 1.2-.2 1.8-.5 1.7-.8 2.8-1.9 2.8-2.9 0-.7-.5-1-1.3-1-1 0-2.2.5-3.5 1.7-1.2 1.2-3.3 3.1-4.4 4 .5-.7.6-1.4.6-2.2 0-.8-.1-1.7-.1-2.4v-.3c.4-.1.7-.3.7-.8 0-.3-.2-.6-.6-.6-.6 0-1.1.5-1.2 1.6l.3.1zm-9.7-.6c.2 0 .4.1.4.3 0 1.3-1.9 2.8-3.5 3.1.9-1.7 2.1-3.4 3.1-3.4m-34.4 1.2c-1.1 1.4-3.4 3.5-5.3 4.7.8-.9 1.6-2.3 1.6-3.7 0-1.7-1.1-2.1-1.7-2.4 0 0 .4-.1.5-.1 1.2-.3 2.2-.9 2.8-1.5.6-.6 1.3-2 1.3-2.9 0-1.1-.7-2.2-2.7-2.2-1.8 0-3.2.8-4.6 2.7-.4-.2-.9-.4-1.3-.7.5-.6.9-1.2 1.1-1.5l-2.4.1c-.2.2-.3.4-.5.6-1.4-.5-3.3-1.1-5.6-1.1-3.5 0-5.7 1.4-5.7 3.5 0 1.6 1.4 2.7 4.1 2.7 1.9 0 3.3-.6 4.4-1.2-1.7 2.4-3.9 5.6-4.7 7-.4.7-.7 1.2-.7 1.7 0 .8.8 1.3 1.8 1.3 1.1 0 2.1-.8 3.2-2.3l.4-.5s-.1.3-.1.6c0 1.2.8 2.3 3.1 2.3 3.3 0 6.6-2.1 9.1-4.5l.6-.6c-.9 1.3-1.3 2.2-1.3 2.7 0 .7.5 1.1 1.2 1.1 1.2 0 2.4-.9 3.4-1.9l.5-.5c-.3.6-.5 1-.5 1.4 0 .6.3 1 1.2 1 1.4 0 2.8-1.3 3.9-2.5-.2.4-.3.9-.3 1.3 0 .8.5 1.2 1.3 1.2 1.1 0 2.2-.6 3.4-2 .2-.2.4-.5.6-.7-.2.5-.5 1-.5 1.6 0 .7.4 1.1 1.2 1.1 1.8 0 3.3-1.9 4.3-3-.5.8-.8 1.3-.8 1.9 0 .8.5 1.1 1.2 1.1.8 0 1.5-.4 2.2-.8.5-.4 1.2-1 1.9-1.9-.3.5-.5 1.1-.5 1.6 0 .7.5 1.2 1.4 1.2.8 0 1.6-.3 2.7-1.3 1-.8 1.7-1.8 2.3-2.8.3.5.7.7 1.2.9-.2.5-.4 1-.4 1.5 0 1 .6 1.7 2 1.7 2.3 0 4.1-1.9 5.3-3.2-.6 1-.8 1.6-.8 2.1 0 .7.5 1.1 1.4 1.1 1.5 0 2.9-1.4 4.4-2.9.5-.5 1.6-1.6 3.3-3.4l.2-.9c-.6.7-1.7 1.8-2.7 2.9-2.1 2.2-3.6 3.5-4.4 3.5-.2 0-.3-.1-.3-.4 0-.4.6-1.5 1.2-2.4 0 0 .5-.9 2.2-3.5l-2 .1c-.2.3-.7 1-.8 1.1-1.4 1.8-4 5.1-6.1 5.1-.7 0-.9-.3-.9-.8s.2-1 .4-1.5c.5-.1 1.1-.2 1.5-.4 1.9-.7 3.2-2 3.2-3 0-.7-.4-1-1.3-1-1.2 0-3 .7-4.6 3.1-.1.2-.3.5-.5.8-.5-.1-.9-.4-1.2-.9.7-1.2 1.2-2.3 1.2-2.7 0-.2-.2-.4-.5-.4-.4 0-.6.2-.8.4-.3.4-.5 1.3-.5 2.2-.5 1.4-2.6 4-3.9 4-.2 0-.4-.1-.4-.3 0-.4.5-1.4 1.5-3 .1-.2 1.3-2.1 1.8-3l-2 .1c-.5.7-.9 1.4-1.4 2.1-2.1 3-3.5 4.1-4.3 4.1-.3 0-.3-.1-.3-.3 0-.2.1-.4.3-.8.6-1.2 2.2-3.5 3.3-5.2l-2 .1c-.2.3-.9 1.3-1.2 1.6-2.8 3.6-4.2 4.6-4.9 4.6-.2 0-.3-.1-.3-.4 0-.4.4-1.2.7-1.7.6-1 1.4-2.4 2.8-4.8.6-1 2.5-4 3.1-5.1l-2.1.1s-.3.4-3.7 6.1c-.3-.5-.7-.8-1.5-.8-1.7 0-3.3 1.1-4.5 2.8l-.2.3c-2 2.6-3.3 3.5-3.9 3.5-.3 0-.4-.2-.2-.6.1-.4.6-1.2 1.1-2.1 0 0 .6-.9 2.3-3.5H35s-1.8 2.7-2.3 3.4c-1.1 1.4-2.6 2.8-3.4 2.8-.2 0-.3-.1-.3-.2 0-.2.1-.5.4-1 .6-1 3.2-5 3.2-5l-2.1.1c-.2.3-.6.9-.9 1.2m-18.3-2.3c-2.1 0-3.2-.8-3.2-2.2 0-1.7 1.8-3 4.9-3 2.2 0 4 .5 5.2 1 0 0 0 .1-.1.1l-1.2 1.7c-.7.8-2.5 2.4-5.6 2.4m2.2 7.9c-.4.3-.6.5-.9.5-.2 0-.3-.1-.3-.3 0-.2.1-.4.4-1 .4-.7 4.2-6.3 5.6-8.4l1.5-2.1c.4.2.9.4 1.3.6-1 1.4-2.5 3.7-3.9 5.8-1.5 2.4-2.7 4.1-3.7 4.9m7.4-6.9h.7c1.6 0 2 .9 2 1.9 0 2.3-2.2 5.7-5.4 5.7-1.4 0-1.9-.7-1.9-1.6 0-1.8 1.6-3.5 4.1-3.5v-.5c-.7 0-1.9.2-2.7.8 1.3-2 3.3-4.9 4.1-6.1.6.3 1 .7 1.5 1l.3-.4c-.4-.3-.9-.7-1.4-1 .8-1 2-2.3 3.3-2.3.9 0 1.2.6 1.2 1.3 0 1-.9 3-2.7 3.8-.8.4-1.9.4-3.2.4l-.5.7c.1-.2.3-.2.6-.2m20 4.7c-.9 1.1-1.6 1.4-2 1.4-.3 0-.4-.2-.4-.4 0-.7 1-2.5 1.9-3.6 1-1.2 1.8-1.9 2.6-1.9.5 0 .7.3.7.7 0 .1 0 .2-.1.3-.7 1.2-1.7 2.5-2.7 3.5"/>
    <path fill="none" stroke="#721818" stroke-width=".126" stroke-miterlimit="10" d="M82.2 14.6c.2 0 .3.1.3.3 0 1.2-1.9 2.8-3.4 3 1.1-2.1 2.2-3.3 3.1-3.3zm-12.2-3c0-.6.5-1.3 1.2-1.3.4 0 .8.3.8.8 0 .7-.5 1.3-1.2 1.3-.5 0-.8-.3-.8-.8zm3.7 3.6c-.1.5-.3 1.4-.4 1.9-.5 2.6-1.2 4-2.5 4-.4 0-.6-.1-.8-.6-.1-.3-.3-.4-.6-.4-.2 0-.5.2-.5.5 0 .6.7 1 1.7 1 2 0 3.5-1.2 4.6-2.3.6-.5 1.1-1 1.7-1.6-.4.7-.7 1.4-.7 2.2 0 .9.6 1.6 1.9 1.6 2.5 0 4.2-2.3 5.2-3.6 1.4-1.8 2.5-3.1 3.1-3.1.2 0 .2.1.2.2 0 .2-.1.4-.2.6-1.2 2.1-3.2 5.2-3.5 5.7l2-.1c.9-1.5 3.4-4.7 4.6-5.8-.3.4-.4.9-.4 1.3 0 .7.5 1.3 1.4 1.3.5 0 .9-.1 1.3-.3l-.2-.4c-.2.1-.5.2-.7.2-.4 0-.6-.3-.6-.6 0-.8.7-1.8 1.5-2 0-.4-.3-.6-.9-.6-.7 0-1.8.6-3.9 3.3.6-1.2 1-1.7 1-2.4 0-.5-.4-.9-1.1-.9-1.4 0-2.2 1.2-4.1 3.5-1.1 1.5-2.5 3-3.9 3-.5 0-.8-.3-.8-.7 0-.5.3-1.2.5-1.6.5 0 1.2-.2 1.8-.5 1.7-.8 2.8-1.9 2.8-2.9 0-.7-.5-1-1.3-1-1 0-2.2.5-3.5 1.7-1.2 1.2-3.3 3.1-4.4 4 .5-.7.6-1.4.6-2.2 0-.8-.1-1.7-.1-2.4v-.3c.4-.1.7-.3.7-.8 0-.3-.2-.6-.6-.6-.6 0-1.1.5-1.2 1.6l.3.1zm-9.7-.6c.2 0 .4.1.4.3 0 1.3-1.9 2.8-3.5 3.1.9-1.7 2.1-3.4 3.1-3.4zm-34.4 1.2c-1.1 1.4-3.4 3.5-5.3 4.7.8-.9 1.6-2.3 1.6-3.7 0-1.7-1.1-2.1-1.7-2.4 0 0 .4-.1.5-.1 1.2-.3 2.2-.9 2.8-1.5.6-.6 1.3-2 1.3-2.9 0-1.1-.7-2.2-2.7-2.2-1.8 0-3.2.8-4.6 2.7-.4-.2-.9-.4-1.3-.7.5-.6.9-1.2 1.1-1.5l-2.4.1c-.2.2-.3.4-.5.6-1.4-.5-3.3-1.1-5.6-1.1-3.5 0-5.7 1.4-5.7 3.5 0 1.6 1.4 2.7 4.1 2.7 1.9 0 3.3-.6 4.4-1.2-1.7 2.4-3.9 5.6-4.7 7-.4.7-.7 1.2-.7 1.7 0 .8.8 1.3 1.8 1.3 1.1 0 2.1-.8 3.2-2.3l.4-.5s-.1.3-.1.6c0 1.2.8 2.3 3.1 2.3 3.3 0 6.6-2.1 9.1-4.5l.6-.6c-.9 1.3-1.3 2.2-1.3 2.7 0 .7.5 1.1 1.2 1.1 1.2 0 2.4-.9 3.4-1.9l.5-.5c-.3.6-.5 1-.5 1.4 0 .6.3 1 1.2 1 1.4 0 2.8-1.3 3.9-2.5-.2.4-.3.9-.3 1.3 0 .8.5 1.2 1.3 1.2 1.1 0 2.2-.6 3.4-2 .2-.2.4-.5.6-.7-.2.5-.5 1-.5 1.6 0 .7.4 1.1 1.2 1.1 1.8 0 3.3-1.9 4.3-3-.5.8-.8 1.3-.8 1.9 0 .8.5 1.1 1.2 1.1.8 0 1.5-.4 2.2-.8.5-.4 1.2-1 1.9-1.9-.3.5-.5 1.1-.5 1.6 0 .7.5 1.2 1.4 1.2.8 0 1.6-.3 2.7-1.3 1-.8 1.7-1.8 2.3-2.8.3.5.7.7 1.2.9-.2.5-.4 1-.4 1.5 0 1 .6 1.7 2 1.7 2.3 0 4.1-1.9 5.3-3.2-.6 1-.8 1.6-.8 2.1 0 .7.5 1.1 1.4 1.1 1.5 0 2.9-1.4 4.4-2.9.5-.5 1.6-1.6 3.3-3.4l.2-.9c-.6.7-1.7 1.8-2.7 2.9-2.1 2.2-3.6 3.5-4.4 3.5-.2 0-.3-.1-.3-.4 0-.4.6-1.5 1.2-2.4 0 0 .5-.9 2.2-3.5l-2 .1c-.2.3-.7 1-.8 1.1-1.4 1.8-4 5.1-6.1 5.1-.7 0-.9-.3-.9-.8s.2-1 .4-1.5c.5-.1 1.1-.2 1.5-.4 1.9-.7 3.2-2 3.2-3 0-.7-.4-1-1.3-1-1.2 0-3 .7-4.6 3.1-.1.2-.3.5-.5.8-.5-.1-.9-.4-1.2-.9.7-1.2 1.2-2.3 1.2-2.7 0-.2-.2-.4-.5-.4-.4 0-.6.2-.8.4-.3.4-.5 1.3-.5 2.2-.5 1.4-2.6 4-3.9 4-.2 0-.4-.1-.4-.3 0-.4.5-1.4 1.5-3 .1-.2 1.3-2.1 1.8-3l-2 .1c-.5.7-.9 1.4-1.4 2.1-2.1 3-3.5 4.1-4.3 4.1-.3 0-.3-.1-.3-.3 0-.2.1-.4.3-.8.6-1.2 2.2-3.5 3.3-5.2l-2 .1c-.2.3-.9 1.3-1.2 1.6-2.8 3.6-4.2 4.6-4.9 4.6-.2 0-.3-.1-.3-.4 0-.4.4-1.2.7-1.7.6-1 1.4-2.4 2.8-4.8.6-1 2.5-4 3.1-5.1l-2.1.1s-.3.4-3.7 6.1c-.3-.5-.7-.8-1.5-.8-1.7 0-3.3 1.1-4.5 2.8l-.2.3c-2 2.6-3.3 3.5-3.9 3.5-.3 0-.4-.2-.2-.6.1-.4.6-1.2 1.1-2.1 0 0 .6-.9 2.3-3.5H35s-1.8 2.7-2.3 3.4c-1.1 1.4-2.6 2.8-3.4 2.8-.2 0-.3-.1-.3-.2 0-.2.1-.5.4-1 .6-1 3.2-5 3.2-5l-2.1.1c-.2.3-.6.9-.9 1.2zm-18.3-2.3c-2.1 0-3.2-.8-3.2-2.2 0-1.7 1.8-3 4.9-3 2.2 0 4 .5 5.2 1 0 0 0 .1-.1.1l-1.2 1.7c-.7.8-2.5 2.4-5.6 2.4zm2.2 7.9c-.4.3-.6.5-.9.5-.2 0-.3-.1-.3-.3 0-.2.1-.4.4-1 .4-.7 4.2-6.3 5.6-8.4l1.5-2.1c.4.2.9.4 1.3.6-1 1.4-2.5 3.7-3.9 5.8-1.5 2.4-2.7 4.1-3.7 4.9zm7.4-6.9h.7c1.6 0 2 .9 2 1.9 0 2.3-2.2 5.7-5.4 5.7-1.4 0-1.9-.7-1.9-1.6 0-1.8 1.6-3.5 4.1-3.5v-.5c-.7 0-1.9.2-2.7.8 1.3-2 3.3-4.9 4.1-6.1.6.3 1 .7 1.5 1l.3-.4c-.4-.3-.9-.7-1.4-1 .8-1 2-2.3 3.3-2.3.9 0 1.2.6 1.2 1.3 0 1-.9 3-2.7 3.8-.8.4-1.9.4-3.2.4l-.5.7c.1-.2.3-.2.6-.2zm20 4.7c-.9 1.1-1.6 1.4-2 1.4-.3 0-.4-.2-.4-.4 0-.7 1-2.5 1.9-3.6 1-1.2 1.8-1.9 2.6-1.9.5 0 .7.3.7.7 0 .1 0 .2-.1.3-.7 1.2-1.7 2.5-2.7 3.5z"/>
    <path fill="#721818" d="M82.2 14.6c.2 0 .3.1.3.3 0 1.2-1.9 2.8-3.5 3 1.2-2 2.4-3.3 3.2-3.3m-12.1-2.9c0-.6.5-1.3 1.2-1.3.4 0 .8.3.8.8 0 .7-.5 1.3-1.2 1.3-.6 0-.8-.3-.8-.8m3.6 3.6c-.1.5-.3 1.4-.4 1.9-.5 2.6-1.2 4-2.5 4-.4 0-.6-.1-.8-.6-.1-.3-.3-.4-.6-.4-.2 0-.5.2-.5.5 0 .6.7 1 1.7 1 2 0 3.5-1.2 4.6-2.2.6-.5 1.1-1 1.7-1.6-.4.7-.7 1.4-.7 2.2 0 .9.6 1.6 1.9 1.6 2.5 0 4.2-2.3 5.2-3.6 1.4-1.8 2.5-3.1 3.1-3.1.1 0 .2.1.2.2 0 .2-.1.4-.2.6-1.2 2.1-3.2 5.2-3.5 5.7l2-.1c.9-1.5 3.4-4.7 4.6-5.8-.3.4-.4.9-.4 1.3 0 .7.5 1.3 1.4 1.3.5 0 .9-.1 1.3-.3l-.2-.4c-.2.1-.5.2-.7.2-.4 0-.6-.3-.6-.6 0-.8.7-1.8 1.5-2 0-.4-.3-.6-.9-.6-.7 0-1.8.6-3.9 3.3.6-1.2 1-1.7 1-2.4 0-.5-.4-.9-1.1-.9-1.4 0-2.2 1.2-4.1 3.5-1.1 1.5-2.5 3-3.9 3-.5 0-.8-.3-.8-.7 0-.5.3-1.2.5-1.6.5 0 1.2-.2 1.8-.5 1.7-.8 2.8-1.9 2.8-2.9 0-.7-.5-1-1.3-1-1 0-2.2.5-3.5 1.7-1.2 1.2-3.3 3.1-4.4 4 .5-.7.6-1.4.6-2.2 0-.8-.1-1.7-.1-2.4v-.3c.4-.1.7-.3.7-.8 0-.3-.2-.6-.6-.6-.6 0-1.1.5-1.2 1.6h.3zm-9.7-.7c.2 0 .4.1.4.3 0 1.3-1.9 2.8-3.5 3.1 1-1.7 2.2-3.4 3.1-3.4m-34.4 1.3c-1.1 1.4-3.4 3.5-5.3 4.7.8-.9 1.6-2.3 1.6-3.7 0-1.7-1.1-2.1-1.7-2.4 0 0 .4-.1.5-.1 1.2-.3 2.2-.9 2.8-1.5.6-.6 1.3-2 1.3-2.9 0-1.1-.7-2.2-2.7-2.2-1.8 0-3.2.8-4.6 2.7-.4-.2-.9-.4-1.3-.7.5-.6.9-1.2 1.1-1.5l-2.3.1c-.2.2-.3.4-.5.6-1.4-.5-3.3-1.1-5.6-1.1-3.5 0-5.7 1.4-5.7 3.5 0 1.6 1.4 2.7 4.1 2.7 1.9 0 3.3-.6 4.4-1.2-1.7 2.4-3.9 5.6-4.7 7-.4.7-.7 1.2-.7 1.7 0 .8.8 1.3 1.8 1.3 1.1 0 2.1-.8 3.2-2.3l.4-.5s-.1.3-.1.6c0 1.2.8 2.3 3.1 2.3 3.3 0 6.6-2.1 9.1-4.5l.6-.6c-.9 1.3-1.3 2.1-1.3 2.7 0 .7.5 1.1 1.2 1.1 1.2 0 2.4-.9 3.4-1.9l.5-.5c-.3.6-.5 1-.5 1.4 0 .6.3 1 1.2 1 1.4 0 2.8-1.3 3.9-2.5-.2.4-.3.9-.3 1.3 0 .8.5 1.2 1.3 1.2 1.1 0 2.2-.6 3.4-2 .2-.2.4-.5.6-.7-.2.5-.5 1-.5 1.6 0 .7.4 1.1 1.2 1.1 1.8 0 3.3-1.9 4.3-3-.5.8-.8 1.3-.8 1.9 0 .8.5 1.1 1.2 1.1.8 0 1.5-.4 2.2-.8.5-.4 1.2-1 1.9-1.9 0 .4-.3 1-.3 1.4 0 .7.5 1.2 1.4 1.2.8 0 1.6-.3 2.7-1.3 1-.8 1.7-1.8 2.3-2.8.3.5.7.7 1.2.9-.2.5-.4 1-.4 1.5 0 1 .6 1.7 2 1.7 2.3 0 4.1-1.9 5.3-3.2-.6 1-.8 1.6-.8 2.1 0 .7.5 1.1 1.4 1.1 1.5 0 2.9-1.4 4.4-2.9.5-.5 1.6-1.6 3.3-3.4l.2-.9c-.6.7-1.7 1.8-2.7 2.9-2.1 2.2-3.6 3.5-4.4 3.5-.2 0-.3-.1-.3-.4 0-.4.6-1.5 1.2-2.4 0 0 .5-.9 2.2-3.5l-2 .1c-.2.3-.7 1-.8 1.1-1.4 1.8-4 5.1-6.1 5.1-.7 0-.9-.3-.9-.8s.2-1 .4-1.5c.5-.1 1.1-.2 1.5-.4 1.9-.7 3.2-2 3.2-3 0-.7-.4-1-1.3-1-1.2 0-3 .7-4.6 3.1-.1.2-.3.5-.5.8-.5-.1-.9-.4-1.2-.9.7-1.2 1.2-2.3 1.2-2.7 0-.2-.2-.3-.5-.3-.4 0-.6.2-.8.4-.3.5-.5 1.3-.5 2.2-.5 1.4-2.6 4-3.9 4-.2 0-.4-.1-.4-.3 0-.4.5-1.4 1.5-3 .1-.2 1.3-2.1 1.8-3l-2 .1c-.5.7-.9 1.4-1.4 2.1-2.1 3-3.5 4.1-4.3 4.1-.3 0-.3-.1-.3-.3 0-.2.1-.4.3-.8.6-1.2 2.2-3.5 3.3-5.2l-2 .1c-.2.3-.9 1.3-1.2 1.6-2.8 3.6-4.2 4.6-4.9 4.6-.2 0-.3-.1-.3-.4 0-.4.4-1.2.7-1.7.6-1 1.4-2.4 2.8-4.8.6-1 2.5-4 3.1-5.1l-2.1.1s-.3.4-3.7 6.1c-.3-.5-.7-.8-1.5-.8-1.7 0-3.3 1.1-4.6 2.8l-.2.3c-2 2.6-3.3 3.5-3.9 3.5-.3 0-.4-.2-.2-.6.1-.4.6-1.2 1.1-2.1 0 0 .6-.9 2.3-3.5l-2.1.1s-1.8 2.7-2.3 3.3c-1.1 1.4-2.6 2.8-3.4 2.8-.2 0-.3-.1-.3-.2 0-.2.1-.5.4-1 .6-1 3.2-5 3.2-5l-2.1.1c-.1.3-.6 1-.9 1.3m-18.2-2.3c-2.1 0-3.2-.8-3.2-2.2 0-1.7 1.9-3 4.9-3 2.2 0 4 .5 5.2 1 0 0 0 .1-.1.1L17 11.2c-.8.8-2.5 2.4-5.6 2.4m2.2 7.9c-.4.3-.6.5-.9.5-.2 0-.3-.1-.3-.3 0-.2.1-.4.4-1 .4-.7 4.2-6.3 5.6-8.4l1.5-2.1c.4.2.9.4 1.3.6-1 1.4-2.5 3.7-3.9 5.8-1.6 2.4-2.8 4.1-3.7 4.9m7.3-6.9h.8c1.6 0 2 .9 2 1.9 0 2.3-2.2 5.7-5.4 5.7-1.4 0-1.9-.7-1.9-1.6 0-1.8 1.6-3.5 4.1-3.5v-.5c-.7 0-1.9.2-2.7.8 1.3-2 3.3-4.9 4.1-6.1.6.3 1 .7 1.5 1l.3-.4c-.4-.3-.9-.7-1.4-1 .8-1 2-2.3 3.3-2.3.9 0 1.2.6 1.2 1.3 0 1-.9 3-2.7 3.8-.8.4-1.9.4-3.2.4l-.5.7c.1-.2.3-.2.5-.2M41 19.3c-.9 1.1-1.6 1.4-2 1.4-.3 0-.4-.2-.4-.4 0-.8 1-2.5 1.9-3.6 1-1.2 1.8-1.9 2.6-1.9.5 0 .7.3.7.7 0 .1 0 .2-.1.3-.7 1.2-1.8 2.5-2.7 3.5"/>
    <path fill="none" stroke="#721818" stroke-width=".126" stroke-miterlimit="10" d="M82.2 14.6c.2 0 .3.1.3.3 0 1.2-1.9 2.8-3.5 3 1.2-2 2.4-3.3 3.2-3.3zm-12.1-2.9c0-.6.5-1.3 1.2-1.3.4 0 .8.3.8.8 0 .7-.5 1.3-1.2 1.3-.6 0-.8-.3-.8-.8zm3.6 3.6c-.1.5-.3 1.4-.4 1.9-.5 2.6-1.2 4-2.5 4-.4 0-.6-.1-.8-.6-.1-.3-.3-.4-.6-.4-.2 0-.5.2-.5.5 0 .6.7 1 1.7 1 2 0 3.5-1.2 4.6-2.2.6-.5 1.1-1 1.7-1.6-.4.7-.7 1.4-.7 2.2 0 .9.6 1.6 1.9 1.6 2.5 0 4.2-2.3 5.2-3.6 1.4-1.8 2.5-3.1 3.1-3.1.1 0 .2.1.2.2 0 .2-.1.4-.2.6-1.2 2.1-3.2 5.2-3.5 5.7l2-.1c.9-1.5 3.4-4.7 4.6-5.8-.3.4-.4.9-.4 1.3 0 .7.5 1.3 1.4 1.3.5 0 .9-.1 1.3-.3l-.2-.4c-.2.1-.5.2-.7.2-.4 0-.6-.3-.6-.6 0-.8.7-1.8 1.5-2 0-.4-.3-.6-.9-.6-.7 0-1.8.6-3.9 3.3.6-1.2 1-1.7 1-2.4 0-.5-.4-.9-1.1-.9-1.4 0-2.2 1.2-4.1 3.5-1.1 1.5-2.5 3-3.9 3-.5 0-.8-.3-.8-.7 0-.5.3-1.2.5-1.6.5 0 1.2-.2 1.8-.5 1.7-.8 2.8-1.9 2.8-2.9 0-.7-.5-1-1.3-1-1 0-2.2.5-3.5 1.7-1.2 1.2-3.3 3.1-4.4 4 .5-.7.6-1.4.6-2.2 0-.8-.1-1.7-.1-2.4v-.3c.4-.1.7-.3.7-.8 0-.3-.2-.6-.6-.6-.6 0-1.1.5-1.2 1.6h.3zm-9.7-.7c.2 0 .4.1.4.3 0 1.3-1.9 2.8-3.5 3.1 1-1.7 2.2-3.4 3.1-3.4zm-34.4 1.3c-1.1 1.4-3.4 3.5-5.3 4.7.8-.9 1.6-2.3 1.6-3.7 0-1.7-1.1-2.1-1.7-2.4 0 0 .4-.1.5-.1 1.2-.3 2.2-.9 2.8-1.5.6-.6 1.3-2 1.3-2.9 0-1.1-.7-2.2-2.7-2.2-1.8 0-3.2.8-4.6 2.7-.4-.2-.9-.4-1.3-.7.5-.6.9-1.2 1.1-1.5l-2.3.1c-.2.2-.3.4-.5.6-1.4-.5-3.3-1.1-5.6-1.1-3.5 0-5.7 1.4-5.7 3.5 0 1.6 1.4 2.7 4.1 2.7 1.9 0 3.3-.6 4.4-1.2-1.7 2.4-3.9 5.6-4.7 7-.4.7-.7 1.2-.7 1.7 0 .8.8 1.3 1.8 1.3 1.1 0 2.1-.8 3.2-2.3l.4-.5s-.1.3-.1.6c0 1.2.8 2.3 3.1 2.3 3.3 0 6.6-2.1 9.1-4.5l.6-.6c-.9 1.3-1.3 2.1-1.3 2.7 0 .7.5 1.1 1.2 1.1 1.2 0 2.4-.9 3.4-1.9l.5-.5c-.3.6-.5 1-.5 1.4 0 .6.3 1 1.2 1 1.4 0 2.8-1.3 3.9-2.5-.2.4-.3.9-.3 1.3 0 .8.5 1.2 1.3 1.2 1.1 0 2.2-.6 3.4-2 .2-.2.4-.5.6-.7-.2.5-.5 1-.5 1.6 0 .7.4 1.1 1.2 1.1 1.8 0 3.3-1.9 4.3-3-.5.8-.8 1.3-.8 1.9 0 .8.5 1.1 1.2 1.1.8 0 1.5-.4 2.2-.8.5-.4 1.2-1 1.9-1.9 0 .4-.3 1-.3 1.4 0 .7.5 1.2 1.4 1.2.8 0 1.6-.3 2.7-1.3 1-.8 1.7-1.8 2.3-2.8.3.5.7.7 1.2.9-.2.5-.4 1-.4 1.5 0 1 .6 1.7 2 1.7 2.3 0 4.1-1.9 5.3-3.2-.6 1-.8 1.6-.8 2.1 0 .7.5 1.1 1.4 1.1 1.5 0 2.9-1.4 4.4-2.9.5-.5 1.6-1.6 3.3-3.4l.2-.9c-.6.7-1.7 1.8-2.7 2.9-2.1 2.2-3.6 3.5-4.4 3.5-.2 0-.3-.1-.3-.4 0-.4.6-1.5 1.2-2.4 0 0 .5-.9 2.2-3.5l-2 .1c-.2.3-.7 1-.8 1.1-1.4 1.8-4 5.1-6.1 5.1-.7 0-.9-.3-.9-.8s.2-1 .4-1.5c.5-.1 1.1-.2 1.5-.4 1.9-.7 3.2-2 3.2-3 0-.7-.4-1-1.3-1-1.2 0-3 .7-4.6 3.1-.1.2-.3.5-.5.8-.5-.1-.9-.4-1.2-.9.7-1.2 1.2-2.3 1.2-2.7 0-.2-.2-.3-.5-.3-.4 0-.6.2-.8.4-.3.5-.5 1.3-.5 2.2-.5 1.4-2.6 4-3.9 4-.2 0-.4-.1-.4-.3 0-.4.5-1.4 1.5-3 .1-.2 1.3-2.1 1.8-3l-2 .1c-.5.7-.9 1.4-1.4 2.1-2.1 3-3.5 4.1-4.3 4.1-.3 0-.3-.1-.3-.3 0-.2.1-.4.3-.8.6-1.2 2.2-3.5 3.3-5.2l-2 .1c-.2.3-.9 1.3-1.2 1.6-2.8 3.6-4.2 4.6-4.9 4.6-.2 0-.3-.1-.3-.4 0-.4.4-1.2.7-1.7.6-1 1.4-2.4 2.8-4.8.6-1 2.5-4 3.1-5.1l-2.1.1s-.3.4-3.7 6.1c-.3-.5-.7-.8-1.5-.8-1.7 0-3.3 1.1-4.6 2.8l-.2.3c-2 2.6-3.3 3.5-3.9 3.5-.3 0-.4-.2-.2-.6.1-.4.6-1.2 1.1-2.1 0 0 .6-.9 2.3-3.5l-2.1.1s-1.8 2.7-2.3 3.3c-1.1 1.4-2.6 2.8-3.4 2.8-.2 0-.3-.1-.3-.2 0-.2.1-.5.4-1 .6-1 3.2-5 3.2-5l-2.1.1c-.1.3-.6 1-.9 1.3zm-18.2-2.3c-2.1 0-3.2-.8-3.2-2.2 0-1.7 1.9-3 4.9-3 2.2 0 4 .5 5.2 1 0 0 0 .1-.1.1L17 11.2c-.8.8-2.5 2.4-5.6 2.4zm2.2 7.9c-.4.3-.6.5-.9.5-.2 0-.3-.1-.3-.3 0-.2.1-.4.4-1 .4-.7 4.2-6.3 5.6-8.4l1.5-2.1c.4.2.9.4 1.3.6-1 1.4-2.5 3.7-3.9 5.8-1.6 2.4-2.8 4.1-3.7 4.9zm7.3-6.9h.8c1.6 0 2 .9 2 1.9 0 2.3-2.2 5.7-5.4 5.7-1.4 0-1.9-.7-1.9-1.6 0-1.8 1.6-3.5 4.1-3.5v-.5c-.7 0-1.9.2-2.7.8 1.3-2 3.3-4.9 4.1-6.1.6.3 1 .7 1.5 1l.3-.4c-.4-.3-.9-.7-1.4-1 .8-1 2-2.3 3.3-2.3.9 0 1.2.6 1.2 1.3 0 1-.9 3-2.7 3.8-.8.4-1.9.4-3.2.4l-.5.7c.1-.2.3-.2.5-.2zM41 19.3c-.9 1.1-1.6 1.4-2 1.4-.3 0-.4-.2-.4-.4 0-.8 1-2.5 1.9-3.6 1-1.2 1.8-1.9 2.6-1.9.5 0 .7.3.7.7 0 .1 0 .2-.1.3-.7 1.2-1.8 2.5-2.7 3.5z"/>
    <path fill="#721818" d="M82.2 14.7c.2 0 .3.1.3.4 0 1.2-1.9 2.8-3.4 3 1.2-2.1 2.3-3.4 3.1-3.4m-12.1-2.9c0-.6.5-1.3 1.2-1.3.4 0 .8.3.8.9 0 .7-.5 1.3-1.2 1.3-.5-.1-.8-.5-.8-.9m3.7 3.6c-.1.5-.3 1.4-.4 1.9-.5 2.6-1.2 4-2.5 4-.4 0-.6-.1-.8-.6-.1-.3-.3-.4-.5-.4s-.5.2-.5.5c0 .6.7 1 1.7 1 2 0 3.5-1.2 4.6-2.2.6-.5 1.1-1 1.7-1.6-.4.7-.7 1.4-.7 2.2 0 .9.6 1.6 1.9 1.6 2.5 0 4.2-2.3 5.2-3.6C85 16.3 86 15 86.7 15c.2 0 .2.1.2.2 0 .2-.1.4-.2.7-1.2 2.1-3.2 5.2-3.5 5.7l2-.1c.9-1.5 3.4-4.7 4.6-5.8-.3.4-.4.9-.4 1.3 0 .7.5 1.3 1.4 1.3.5 0 .9-.1 1.3-.3l-.2-.4c-.3.1-.5.2-.7.2-.4 0-.6-.3-.6-.7 0-.8.7-1.8 1.5-2 0-.4-.3-.6-.9-.6-.7 0-1.8.6-3.9 3.3.6-1.2 1-1.7 1-2.4 0-.5-.4-.9-1.1-.9-1.4 0-2.2 1.2-4.1 3.5-1.1 1.5-2.5 3-3.9 3-.5 0-.8-.3-.8-.7 0-.6.3-1.2.5-1.6.5 0 1.2-.2 1.8-.5 1.7-.8 2.8-1.9 2.8-2.9 0-.7-.5-1-1.3-1-1 0-2.2.5-3.5 1.7-1.2 1.2-3.3 3.1-4.4 3.9.5-.7.6-1.4.6-2.2 0-.8-.1-1.7-.1-2.4V15c.4-.1.7-.3.7-.8 0-.3-.2-.6-.6-.6-.6 0-1.1.5-1.2 1.6l.1.2zm-9.7-.7c.2 0 .4.1.4.3 0 1.3-1.9 2.8-3.5 3.1.9-1.7 2.1-3.4 3.1-3.4M29.7 16c-1.1 1.4-3.4 3.5-5.3 4.7.8-.9 1.6-2.3 1.6-3.7 0-1.7-1.1-2.1-1.7-2.4 0 0 .4-.1.5-.1 1.2-.3 2.2-.9 2.8-1.5.6-.6 1.3-2 1.3-2.9 0-1.1-.7-2.2-2.7-2.2-1.8 0-3.2.8-4.6 2.7-.4-.2-.9-.4-1.3-.6.5-.6.9-1.2 1.1-1.5L19 8.4c-.2.2-.3.4-.5.6-1.4-.5-3.2-1-5.6-1-3.5 0-5.7 1.4-5.7 3.5 0 1.6 1.4 2.7 4.1 2.7 1.9 0 3.3-.6 4.4-1.2-1.7 2.4-3.9 5.6-4.7 7-.4.7-.7 1.2-.7 1.7 0 .8.8 1.3 1.8 1.3 1.1 0 2.1-.8 3.2-2.3l.4-.5s-.1.3-.1.6c0 1.2.8 2.3 3.1 2.3 3.3 0 6.6-2.1 9.1-4.5l.6-.6c-.9 1.3-1.3 2.2-1.3 2.7 0 .7.5 1.1 1.2 1.1 1.2 0 2.4-.9 3.4-1.9l.5-.5c-.3.6-.5 1-.5 1.4 0 .6.3 1 1.1 1 1.4 0 2.8-1.3 3.9-2.5-.2.4-.3.9-.3 1.3 0 .8.5 1.2 1.3 1.2 1.1 0 2.2-.6 3.4-2 .2-.2.4-.5.6-.7-.2.5-.5 1-.5 1.6 0 .7.4 1.1 1.2 1.1 1.8 0 3.3-1.9 4.3-3-.5.8-.8 1.3-.8 1.9 0 .8.5 1.1 1.2 1.1.8 0 1.5-.4 2.2-.8.5-.4 1.2-1 1.9-1.9-.3.5-.5 1.1-.5 1.6 0 .7.5 1.2 1.4 1.2.8 0 1.6-.3 2.7-1.3 1-.8 1.7-1.8 2.3-2.8.3.5.7.8 1.2.9-.2.5-.4 1-.4 1.5 0 1 .6 1.7 2 1.7 2.3 0 4.1-1.9 5.3-3.2-.6 1-.8 1.6-.8 2.1 0 .7.5 1.1 1.4 1.1 1.5 0 2.9-1.4 4.4-2.9.5-.5 1.6-1.6 3.3-3.4l.2-.9c-.6.7-1.7 1.8-2.7 2.9-2.1 2.2-3.6 3.5-4.4 3.5-.2 0-.3-.1-.3-.4 0-.4.6-1.5 1.2-2.4 0 0 .5-.9 2.2-3.5l-2 .1c-.2.3-.7 1-.8 1.1-1.4 1.8-4 5.1-6.1 5.1-.7 0-.9-.3-.9-.8s.2-1 .4-1.5c.5-.1 1.1-.2 1.5-.4 1.9-.7 3.2-2 3.2-3 0-.7-.4-1-1.3-1-1.2 0-3 .7-4.6 3.1-.1.2-.3.5-.5.8-.5-.1-.9-.4-1.2-.9.7-1.2 1.2-2.3 1.2-2.7 0-.2-.2-.4-.5-.4-.4 0-.6.2-.8.4-.3.5-.5 1.3-.5 2.2-.5 1.4-2.6 4-3.9 4-.2 0-.4-.1-.4-.3 0-.4.5-1.4 1.5-3 .1-.2 1.3-2.1 1.8-3l-2 .1c-.5.7-.9 1.4-1.4 2.1-2.1 3-3.5 4.1-4.3 4.1-.3 0-.3-.1-.3-.3 0-.2.1-.4.3-.8.6-1.2 2.2-3.5 3.3-5.2l-2 .1c-.2.3-.9 1.3-1.2 1.6-2.8 3.6-4.2 4.6-4.9 4.6-.2 0-.3-.1-.3-.4 0-.4.4-1.2.7-1.7.6-1 1.4-2.4 2.8-4.8.6-1 2.5-4 3.1-5.1l-1.7.1s-.3.4-3.7 6.1c-.3-.5-.7-.8-1.5-.8-1.7 0-3.3 1.1-4.6 2.8l-.2.3c-2 2.6-3.3 3.5-3.9 3.5-.3 0-.4-.2-.2-.6.1-.4.6-1.2 1.1-2.1 0 0 .6-.9 2.3-3.5l-2.1.1s-1.8 2.7-2.3 3.4c-1.1 1.4-2.6 2.8-3.4 2.8-.2 0-.3-.1-.3-.2 0-.2.1-.5.4-1 .6-1 3.2-5 3.2-5l-2.1.1c-.2.1-.7.7-.9 1.1m-18.3-2.3c-2.1 0-3.2-.8-3.2-2.2 0-1.7 1.8-3 4.9-3 2.2 0 4 .5 5.2 1 0 0 0 .1-.1.1L17 11.3c-.7.8-2.5 2.4-5.6 2.4m2.2 7.9c-.4.3-.6.5-.9.5-.2 0-.3-.1-.3-.3 0-.2.1-.4.4-1 .4-.7 4.2-6.3 5.6-8.4l1.5-2.1c.4.2.9.4 1.3.6-1 1.4-2.5 3.7-3.9 5.8-1.6 2.4-2.7 4.1-3.7 4.9m7.3-7h.8c1.6 0 2 .9 2 1.9 0 2.3-2.2 5.7-5.4 5.7-1.4 0-1.9-.7-1.9-1.6 0-1.8 1.6-3.5 4.1-3.5v-.5c-.7 0-1.9.2-2.7.8 1.3-2 3.3-4.9 4.1-6.1.6.3 1 .6 1.4 1l.3-.4c-.4-.3-.9-.7-1.4-1 .8-1 2-2.3 3.3-2.3.9 0 1.2.6 1.2 1.3 0 1-.9 3-2.7 3.8-.8.4-1.9.4-3.2.4l-.5.7c.2-.2.4-.2.6-.2M41 19.4c-.9 1.1-1.6 1.4-2 1.4-.3 0-.4-.2-.4-.4 0-.8 1-2.5 1.9-3.6 1-1.2 1.8-1.9 2.6-1.9.5 0 .7.3.7.7 0 .1 0 .2-.1.3-.7 1.2-1.7 2.4-2.7 3.5"/>
    <path fill="none" stroke="#721818" stroke-width=".126" stroke-miterlimit="10" d="M82.2 14.7c.2 0 .3.1.3.4 0 1.2-1.9 2.8-3.4 3 1.2-2.1 2.3-3.4 3.1-3.4zm-12.1-2.9c0-.6.5-1.3 1.2-1.3.4 0 .8.3.8.9 0 .7-.5 1.3-1.2 1.3-.5-.1-.8-.5-.8-.9zm3.7 3.6c-.1.5-.3 1.4-.4 1.9-.5 2.6-1.2 4-2.5 4-.4 0-.6-.1-.8-.6-.1-.3-.3-.4-.5-.4s-.5.2-.5.5c0 .6.7 1 1.7 1 2 0 3.5-1.2 4.6-2.2.6-.5 1.1-1 1.7-1.6-.4.7-.7 1.4-.7 2.2 0 .9.6 1.6 1.9 1.6 2.5 0 4.2-2.3 5.2-3.6C85 16.3 86 15 86.7 15c.2 0 .2.1.2.2 0 .2-.1.4-.2.7-1.2 2.1-3.2 5.2-3.5 5.7l2-.1c.9-1.5 3.4-4.7 4.6-5.8-.3.4-.4.9-.4 1.3 0 .7.5 1.3 1.4 1.3.5 0 .9-.1 1.3-.3l-.2-.4c-.3.1-.5.2-.7.2-.4 0-.6-.3-.6-.7 0-.8.7-1.8 1.5-2 0-.4-.3-.6-.9-.6-.7 0-1.8.6-3.9 3.3.6-1.2 1-1.7 1-2.4 0-.5-.4-.9-1.1-.9-1.4 0-2.2 1.2-4.1 3.5-1.1 1.5-2.5 3-3.9 3-.5 0-.8-.3-.8-.7 0-.6.3-1.2.5-1.6.5 0 1.2-.2 1.8-.5 1.7-.8 2.8-1.9 2.8-2.9 0-.7-.5-1-1.3-1-1 0-2.2.5-3.5 1.7-1.2 1.2-3.3 3.1-4.4 3.9.5-.7.6-1.4.6-2.2 0-.8-.1-1.7-.1-2.4V15c.4-.1.7-.3.7-.8 0-.3-.2-.6-.6-.6-.6 0-1.1.5-1.2 1.6l.1.2zm-9.7-.7c.2 0 .4.1.4.3 0 1.3-1.9 2.8-3.5 3.1.9-1.7 2.1-3.4 3.1-3.4zM29.7 16c-1.1 1.4-3.4 3.5-5.3 4.7.8-.9 1.6-2.3 1.6-3.7 0-1.7-1.1-2.1-1.7-2.4 0 0 .4-.1.5-.1 1.2-.3 2.2-.9 2.8-1.5.6-.6 1.3-2 1.3-2.9 0-1.1-.7-2.2-2.7-2.2-1.8 0-3.2.8-4.6 2.7-.4-.2-.9-.4-1.3-.6.5-.6.9-1.2 1.1-1.5L19 8.4c-.2.2-.3.4-.5.6-1.4-.5-3.2-1-5.6-1-3.5 0-5.7 1.4-5.7 3.5 0 1.6 1.4 2.7 4.1 2.7 1.9 0 3.3-.6 4.4-1.2-1.7 2.4-3.9 5.6-4.7 7-.4.7-.7 1.2-.7 1.7 0 .8.8 1.3 1.8 1.3 1.1 0 2.1-.8 3.2-2.3l.4-.5s-.1.3-.1.6c0 1.2.8 2.3 3.1 2.3 3.3 0 6.6-2.1 9.1-4.5l.6-.6c-.9 1.3-1.3 2.2-1.3 2.7 0 .7.5 1.1 1.2 1.1 1.2 0 2.4-.9 3.4-1.9l.5-.5c-.3.6-.5 1-.5 1.4 0 .6.3 1 1.1 1 1.4 0 2.8-1.3 3.9-2.5-.2.4-.3.9-.3 1.3 0 .8.5 1.2 1.3 1.2 1.1 0 2.2-.6 3.4-2 .2-.2.4-.5.6-.7-.2.5-.5 1-.5 1.6 0 .7.4 1.1 1.2 1.1 1.8 0 3.3-1.9 4.3-3-.5.8-.8 1.3-.8 1.9 0 .8.5 1.1 1.2 1.1.8 0 1.5-.4 2.2-.8.5-.4 1.2-1 1.9-1.9-.3.5-.5 1.1-.5 1.6 0 .7.5 1.2 1.4 1.2.8 0 1.6-.3 2.7-1.3 1-.8 1.7-1.8 2.3-2.8.3.5.7.8 1.2.9-.2.5-.4 1-.4 1.5 0 1 .6 1.7 2 1.7 2.3 0 4.1-1.9 5.3-3.2-.6 1-.8 1.6-.8 2.1 0 .7.5 1.1 1.4 1.1 1.5 0 2.9-1.4 4.4-2.9.5-.5 1.6-1.6 3.3-3.4l.2-.9c-.6.7-1.7 1.8-2.7 2.9-2.1 2.2-3.6 3.5-4.4 3.5-.2 0-.3-.1-.3-.4 0-.4.6-1.5 1.2-2.4 0 0 .5-.9 2.2-3.5l-2 .1c-.2.3-.7 1-.8 1.1-1.4 1.8-4 5.1-6.1 5.1-.7 0-.9-.3-.9-.8s.2-1 .4-1.5c.5-.1 1.1-.2 1.5-.4 1.9-.7 3.2-2 3.2-3 0-.7-.4-1-1.3-1-1.2 0-3 .7-4.6 3.1-.1.2-.3.5-.5.8-.5-.1-.9-.4-1.2-.9.7-1.2 1.2-2.3 1.2-2.7 0-.2-.2-.4-.5-.4-.4 0-.6.2-.8.4-.3.5-.5 1.3-.5 2.2-.5 1.4-2.6 4-3.9 4-.2 0-.4-.1-.4-.3 0-.4.5-1.4 1.5-3 .1-.2 1.3-2.1 1.8-3l-2 .1c-.5.7-.9 1.4-1.4 2.1-2.1 3-3.5 4.1-4.3 4.1-.3 0-.3-.1-.3-.3 0-.2.1-.4.3-.8.6-1.2 2.2-3.5 3.3-5.2l-2 .1c-.2.3-.9 1.3-1.2 1.6-2.8 3.6-4.2 4.6-4.9 4.6-.2 0-.3-.1-.3-.4 0-.4.4-1.2.7-1.7.6-1 1.4-2.4 2.8-4.8.6-1 2.5-4 3.1-5.1l-1.7.1s-.3.4-3.7 6.1c-.3-.5-.7-.8-1.5-.8-1.7 0-3.3 1.1-4.6 2.8l-.2.3c-2 2.6-3.3 3.5-3.9 3.5-.3 0-.4-.2-.2-.6.1-.4.6-1.2 1.1-2.1 0 0 .6-.9 2.3-3.5l-2.1.1s-1.8 2.7-2.3 3.4c-1.1 1.4-2.6 2.8-3.4 2.8-.2 0-.3-.1-.3-.2 0-.2.1-.5.4-1 .6-1 3.2-5 3.2-5l-2.1.1c-.2.1-.7.7-.9 1.1zm-18.3-2.3c-2.1 0-3.2-.8-3.2-2.2 0-1.7 1.8-3 4.9-3 2.2 0 4 .5 5.2 1 0 0 0 .1-.1.1L17 11.3c-.7.8-2.5 2.4-5.6 2.4zm2.2 7.9c-.4.3-.6.5-.9.5-.2 0-.3-.1-.3-.3 0-.2.1-.4.4-1 .4-.7 4.2-6.3 5.6-8.4l1.5-2.1c.4.2.9.4 1.3.6-1 1.4-2.5 3.7-3.9 5.8-1.6 2.4-2.7 4.1-3.7 4.9zm7.3-7h.8c1.6 0 2 .9 2 1.9 0 2.3-2.2 5.7-5.4 5.7-1.4 0-1.9-.7-1.9-1.6 0-1.8 1.6-3.5 4.1-3.5v-.5c-.7 0-1.9.2-2.7.8 1.3-2 3.3-4.9 4.1-6.1.6.3 1 .6 1.4 1l.3-.4c-.4-.3-.9-.7-1.4-1 .8-1 2-2.3 3.3-2.3.9 0 1.2.6 1.2 1.3 0 1-.9 3-2.7 3.8-.8.4-1.9.4-3.2.4l-.5.7c.2-.2.4-.2.6-.2zM41 19.4c-.9 1.1-1.6 1.4-2 1.4-.3 0-.4-.2-.4-.4 0-.8 1-2.5 1.9-3.6 1-1.2 1.8-1.9 2.6-1.9.5 0 .7.3.7.7 0 .1 0 .2-.1.3-.7 1.2-1.7 2.4-2.7 3.5z"/>
    <path fill="#721818" d="M82.3 14.8c.2 0 .3.1.3.4 0 1.2-1.9 2.8-3.5 3 1.2-2.2 2.4-3.4 3.2-3.4m-12.2-3c0-.6.5-1.3 1.2-1.3.4 0 .8.3.8.9 0 .7-.5 1.3-1.2 1.3-.5 0-.8-.4-.8-.9m3.7 3.6c-.1.5-.3 1.4-.4 1.9-.5 2.6-1.2 4-2.5 4-.4 0-.6-.1-.8-.6-.1-.3-.3-.4-.6-.4-.2 0-.5.2-.5.5 0 .6.7 1 1.7 1 2 0 3.5-1.2 4.6-2.3.6-.5 1.1-1 1.7-1.6-.4.7-.7 1.4-.7 2.2 0 .9.6 1.6 1.9 1.6 2.5 0 4.2-2.3 5.2-3.6 1.4-1.8 2.5-3.1 3.1-3.1.2 0 .2.1.2.2 0 .2-.1.4-.2.7-1.2 2.1-3.2 5.2-3.5 5.7l2-.1c.9-1.5 3.4-4.7 4.6-5.8-.3.4-.4.9-.4 1.3 0 .7.5 1.3 1.4 1.3.5 0 .9-.1 1.3-.3l-.2-.4c-.2.1-.5.2-.7.2-.4 0-.6-.3-.6-.7 0-.8.7-1.8 1.5-2 0-.4-.3-.6-.9-.6-.7 0-1.8.6-3.9 3.3.6-1.2 1-1.7 1-2.4 0-.5-.4-.9-1.1-.9-1.4 0-2.2 1.2-4.1 3.5-1.1 1.5-2.5 3-3.9 3-.5 0-.8-.3-.8-.7 0-.5.3-1.2.5-1.6.5 0 1.2-.2 1.8-.5 1.7-.8 2.8-1.9 2.8-2.9 0-.7-.5-1-1.3-1-1 0-2.2.5-3.5 1.7-1.2 1.2-3.3 3.1-4.4 3.9.5-.7.6-1.4.6-2.2 0-.8-.1-1.7-.1-2.4V15c.4-.1.7-.3.7-.8 0-.3-.2-.6-.6-.6-.6 0-1.1.5-1.2 1.6l.3.2zm-9.7-.6c.2 0 .4.1.4.3 0 1.3-1.9 2.8-3.5 3.1.9-1.7 2.2-3.4 3.1-3.4M29.7 16c-1.1 1.4-3.4 3.5-5.3 4.7.8-.9 1.6-2.3 1.6-3.7 0-1.7-1.1-2.1-1.7-2.4 0 0 .4-.1.5-.1 1.2-.3 2.2-.9 2.8-1.5.6-.6 1.3-2 1.3-2.9 0-1.1-.7-2.2-2.7-2.2-1.8 0-3.2.8-4.6 2.7-.4-.2-.9-.4-1.3-.6.5-.6.9-1.2 1.1-1.5l-2.4.1c-.2.2-.3.4-.5.6-1.4-.5-3.3-1.1-5.6-1.1-3.5 0-5.7 1.4-5.7 3.5 0 1.6 1.4 2.7 4.1 2.7 1.9 0 3.3-.6 4.4-1.2-1.7 2.4-3.9 5.6-4.7 7-.4.6-.7 1.2-.7 1.7 0 .8.8 1.3 1.8 1.3 1.1 0 2.1-.8 3.2-2.3l.4-.5s-.1.3-.1.6c0 1.2.8 2.3 3.1 2.3 3.3 0 6.6-2.1 9.1-4.5l.6-.6c-.9 1.3-1.3 2.2-1.3 2.7 0 .7.5 1.1 1.2 1.1 1.2 0 2.4-.9 3.4-1.9l.5-.5c-.3.6-.5 1-.5 1.4 0 .6.3 1 1.1 1 1.4 0 2.8-1.3 3.9-2.5-.2.4-.3.9-.3 1.3 0 .8.5 1.2 1.3 1.2 1.1 0 2.2-.6 3.4-2 .2-.2.4-.5.6-.7-.2.5-.5 1-.5 1.6 0 .7.4 1.1 1.2 1.1 1.8 0 3.3-1.9 4.3-3-.5.8-.8 1.3-.8 1.9 0 .8.5 1.1 1.2 1.1.8 0 1.5-.4 2.2-.8.5-.4 1.2-1 1.9-1.9-.3.5-.5 1.1-.5 1.6 0 .7.5 1.2 1.4 1.2.8 0 1.6-.3 2.7-1.3 1-.8 1.7-1.8 2.3-2.8.3.5.7.8 1.2.9-.2.5-.4 1-.4 1.5 0 1 .6 1.6 2 1.6 2.3 0 4.1-1.9 5.3-3.2-.6 1-.8 1.6-.8 2.1 0 .7.5 1.1 1.4 1.1 1.5 0 2.9-1.4 4.3-2.9.5-.5 1.6-1.6 3.3-3.4l.2-.9c-.6.7-1.7 1.8-2.7 2.9-2.1 2.2-3.6 3.5-4.4 3.5-.2 0-.3-.1-.3-.4 0-.4.6-1.5 1.2-2.4 0 0 .5-.9 2.2-3.5l-2 .1c-.2.2-.7 1-.8 1.1-1.4 1.8-4 5.1-6.1 5.1-.7 0-.9-.3-.9-.8s.2-1 .4-1.5c.5-.1 1.1-.2 1.5-.4 1.9-.7 3.2-2 3.2-3 0-.7-.4-1-1.3-1-1.2 0-3 .7-4.6 3.1-.1.2-.3.5-.5.8-.5-.1-.9-.4-1.2-.9.7-1.2 1.2-2.3 1.2-2.7 0-.2-.2-.4-.5-.4-.4 0-.6.2-.8.4-.3.5-.5 1.3-.5 2.2-.5 1.4-2.6 4-3.9 4-.2 0-.4-.1-.4-.3 0-.4.5-1.4 1.5-3 .1-.2 1.3-2.1 1.8-3l-2 .1c-.5.7-.9 1.4-1.4 2.1-2.1 3-3.5 4.1-4.3 4.1-.3 0-.3-.1-.3-.3 0-.2.1-.4.3-.8.6-1.2 2.2-3.5 3.3-5.2l-2 .1c-.2.3-.9 1.3-1.2 1.6-2.8 3.6-4.2 4.6-4.9 4.6-.2 0-.3-.1-.3-.4 0-.4.4-1.2.7-1.7.6-1 1.4-2.4 2.8-4.8.6-1 2.5-4 3.1-5.1L48 9s-.2.4-3.7 6.1c-.3-.5-.7-.8-1.5-.8-1.7 0-3.3 1.1-4.5 2.8l-.3.2c-2 2.6-3.3 3.5-3.9 3.5-.3 0-.4-.2-.2-.6.1-.4.6-1.2 1.1-2.1 0 0 .6-.9 2.3-3.5l-2.1.1s-1.8 2.7-2.3 3.4c-1.1 1.4-2.6 2.8-3.4 2.8-.2 0-.3-.1-.3-.2 0-.2.1-.5.4-1 .6-1 3.2-5 3.2-5l-2.1.1c-.3.3-.7.9-1 1.2m-18.3-2.2c-2.1 0-3.2-.8-3.2-2.2 0-1.7 1.8-3 4.9-3 2.2 0 4 .5 5.2 1 0 0 0 .1-.1.1L17 11.4c-.7.7-2.5 2.4-5.6 2.4m2.3 7.9c-.4.3-.6.5-.9.5-.2 0-.3-.1-.3-.3 0-.2.1-.4.4-1 .4-.7 4.2-6.3 5.6-8.4l1.5-2.1c.4.2.9.4 1.3.6-1 1.4-2.5 3.7-3.9 5.8-1.6 2.4-2.8 4.1-3.7 4.9m7.3-7h.8c1.6 0 2 .9 2 1.9 0 2.3-2.2 5.7-5.4 5.7-1.4 0-1.9-.7-1.9-1.6 0-1.8 1.6-3.5 4.1-3.5v-.5c-.7 0-1.9.2-2.7.8 1.3-2 3.3-4.9 4.1-6.1.6.3 1 .6 1.4 1l.3-.4c-.4-.3-.9-.7-1.4-1 .8-1 2-2.3 3.3-2.3.9 0 1.2.6 1.2 1.3 0 1-.9 3-2.7 3.8-.8.4-1.9.4-3.2.4l-.5.7c.1-.2.3-.2.6-.2m20.1 4.8c-.9 1.1-1.6 1.4-2 1.4-.3 0-.4-.2-.4-.4 0-.8 1-2.5 1.9-3.6 1-1.2 1.8-1.9 2.6-1.9.5 0 .7.3.7.7 0 .1 0 .2-.1.3-.8 1.1-1.8 2.4-2.7 3.5"/>
    <path fill="none" stroke="#721818" stroke-width=".126" stroke-miterlimit="10" d="M82.3 14.8c.2 0 .3.1.3.4 0 1.2-1.9 2.8-3.5 3 1.2-2.2 2.4-3.4 3.2-3.4zm-12.2-3c0-.6.5-1.3 1.2-1.3.4 0 .8.3.8.9 0 .7-.5 1.3-1.2 1.3-.5 0-.8-.4-.8-.9zm3.7 3.6c-.1.5-.3 1.4-.4 1.9-.5 2.6-1.2 4-2.5 4-.4 0-.6-.1-.8-.6-.1-.3-.3-.4-.6-.4-.2 0-.5.2-.5.5 0 .6.7 1 1.7 1 2 0 3.5-1.2 4.6-2.3.6-.5 1.1-1 1.7-1.6-.4.7-.7 1.4-.7 2.2 0 .9.6 1.6 1.9 1.6 2.5 0 4.2-2.3 5.2-3.6 1.4-1.8 2.5-3.1 3.1-3.1.2 0 .2.1.2.2 0 .2-.1.4-.2.7-1.2 2.1-3.2 5.2-3.5 5.7l2-.1c.9-1.5 3.4-4.7 4.6-5.8-.3.4-.4.9-.4 1.3 0 .7.5 1.3 1.4 1.3.5 0 .9-.1 1.3-.3l-.2-.4c-.2.1-.5.2-.7.2-.4 0-.6-.3-.6-.7 0-.8.7-1.8 1.5-2 0-.4-.3-.6-.9-.6-.7 0-1.8.6-3.9 3.3.6-1.2 1-1.7 1-2.4 0-.5-.4-.9-1.1-.9-1.4 0-2.2 1.2-4.1 3.5-1.1 1.5-2.5 3-3.9 3-.5 0-.8-.3-.8-.7 0-.5.3-1.2.5-1.6.5 0 1.2-.2 1.8-.5 1.7-.8 2.8-1.9 2.8-2.9 0-.7-.5-1-1.3-1-1 0-2.2.5-3.5 1.7-1.2 1.2-3.3 3.1-4.4 3.9.5-.7.6-1.4.6-2.2 0-.8-.1-1.7-.1-2.4V15c.4-.1.7-.3.7-.8 0-.3-.2-.6-.6-.6-.6 0-1.1.5-1.2 1.6l.3.2zm-9.7-.6c.2 0 .4.1.4.3 0 1.3-1.9 2.8-3.5 3.1.9-1.7 2.2-3.4 3.1-3.4zM29.7 16c-1.1 1.4-3.4 3.5-5.3 4.7.8-.9 1.6-2.3 1.6-3.7 0-1.7-1.1-2.1-1.7-2.4 0 0 .4-.1.5-.1 1.2-.3 2.2-.9 2.8-1.5.6-.6 1.3-2 1.3-2.9 0-1.1-.7-2.2-2.7-2.2-1.8 0-3.2.8-4.6 2.7-.4-.2-.9-.4-1.3-.6.5-.6.9-1.2 1.1-1.5l-2.4.1c-.2.2-.3.4-.5.6-1.4-.5-3.3-1.1-5.6-1.1-3.5 0-5.7 1.4-5.7 3.5 0 1.6 1.4 2.7 4.1 2.7 1.9 0 3.3-.6 4.4-1.2-1.7 2.4-3.9 5.6-4.7 7-.4.6-.7 1.2-.7 1.7 0 .8.8 1.3 1.8 1.3 1.1 0 2.1-.8 3.2-2.3l.4-.5s-.1.3-.1.6c0 1.2.8 2.3 3.1 2.3 3.3 0 6.6-2.1 9.1-4.5l.6-.6c-.9 1.3-1.3 2.2-1.3 2.7 0 .7.5 1.1 1.2 1.1 1.2 0 2.4-.9 3.4-1.9l.5-.5c-.3.6-.5 1-.5 1.4 0 .6.3 1 1.1 1 1.4 0 2.8-1.3 3.9-2.5-.2.4-.3.9-.3 1.3 0 .8.5 1.2 1.3 1.2 1.1 0 2.2-.6 3.4-2 .2-.2.4-.5.6-.7-.2.5-.5 1-.5 1.6 0 .7.4 1.1 1.2 1.1 1.8 0 3.3-1.9 4.3-3-.5.8-.8 1.3-.8 1.9 0 .8.5 1.1 1.2 1.1.8 0 1.5-.4 2.2-.8.5-.4 1.2-1 1.9-1.9-.3.5-.5 1.1-.5 1.6 0 .7.5 1.2 1.4 1.2.8 0 1.6-.3 2.7-1.3 1-.8 1.7-1.8 2.3-2.8.3.5.7.8 1.2.9-.2.5-.4 1-.4 1.5 0 1 .6 1.6 2 1.6 2.3 0 4.1-1.9 5.3-3.2-.6 1-.8 1.6-.8 2.1 0 .7.5 1.1 1.4 1.1 1.5 0 2.9-1.4 4.3-2.9.5-.5 1.6-1.6 3.3-3.4l.2-.9c-.6.7-1.7 1.8-2.7 2.9-2.1 2.2-3.6 3.5-4.4 3.5-.2 0-.3-.1-.3-.4 0-.4.6-1.5 1.2-2.4 0 0 .5-.9 2.2-3.5l-2 .1c-.2.2-.7 1-.8 1.1-1.4 1.8-4 5.1-6.1 5.1-.7 0-.9-.3-.9-.8s.2-1 .4-1.5c.5-.1 1.1-.2 1.5-.4 1.9-.7 3.2-2 3.2-3 0-.7-.4-1-1.3-1-1.2 0-3 .7-4.6 3.1-.1.2-.3.5-.5.8-.5-.1-.9-.4-1.2-.9.7-1.2 1.2-2.3 1.2-2.7 0-.2-.2-.4-.5-.4-.4 0-.6.2-.8.4-.3.5-.5 1.3-.5 2.2-.5 1.4-2.6 4-3.9 4-.2 0-.4-.1-.4-.3 0-.4.5-1.4 1.5-3 .1-.2 1.3-2.1 1.8-3l-2 .1c-.5.7-.9 1.4-1.4 2.1-2.1 3-3.5 4.1-4.3 4.1-.3 0-.3-.1-.3-.3 0-.2.1-.4.3-.8.6-1.2 2.2-3.5 3.3-5.2l-2 .1c-.2.3-.9 1.3-1.2 1.6-2.8 3.6-4.2 4.6-4.9 4.6-.2 0-.3-.1-.3-.4 0-.4.4-1.2.7-1.7.6-1 1.4-2.4 2.8-4.8.6-1 2.5-4 3.1-5.1L48 9s-.2.4-3.7 6.1c-.3-.5-.7-.8-1.5-.8-1.7 0-3.3 1.1-4.5 2.8l-.3.2c-2 2.6-3.3 3.5-3.9 3.5-.3 0-.4-.2-.2-.6.1-.4.6-1.2 1.1-2.1 0 0 .6-.9 2.3-3.5l-2.1.1s-1.8 2.7-2.3 3.4c-1.1 1.4-2.6 2.8-3.4 2.8-.2 0-.3-.1-.3-.2 0-.2.1-.5.4-1 .6-1 3.2-5 3.2-5l-2.1.1c-.3.3-.7.9-1 1.2zm-18.3-2.2c-2.1 0-3.2-.8-3.2-2.2 0-1.7 1.8-3 4.9-3 2.2 0 4 .5 5.2 1 0 0 0 .1-.1.1L17 11.4c-.7.7-2.5 2.4-5.6 2.4zm2.3 7.9c-.4.3-.6.5-.9.5-.2 0-.3-.1-.3-.3 0-.2.1-.4.4-1 .4-.7 4.2-6.3 5.6-8.4l1.5-2.1c.4.2.9.4 1.3.6-1 1.4-2.5 3.7-3.9 5.8-1.6 2.4-2.8 4.1-3.7 4.9zm7.3-7h.8c1.6 0 2 .9 2 1.9 0 2.3-2.2 5.7-5.4 5.7-1.4 0-1.9-.7-1.9-1.6 0-1.8 1.6-3.5 4.1-3.5v-.5c-.7 0-1.9.2-2.7.8 1.3-2 3.3-4.9 4.1-6.1.6.3 1 .6 1.4 1l.3-.4c-.4-.3-.9-.7-1.4-1 .8-1 2-2.3 3.3-2.3.9 0 1.2.6 1.2 1.3 0 1-.9 3-2.7 3.8-.8.4-1.9.4-3.2.4l-.5.7c.1-.2.3-.2.6-.2zm20.1 4.8c-.9 1.1-1.6 1.4-2 1.4-.3 0-.4-.2-.4-.4 0-.8 1-2.5 1.9-3.6 1-1.2 1.8-1.9 2.6-1.9.5 0 .7.3.7.7 0 .1 0 .2-.1.3-.8 1.1-1.8 2.4-2.7 3.5z"/>
    <path fill="#721818" d="M82.3 14.9c.2 0 .3.1.3.3 0 1.2-1.9 2.8-3.4 3 1.2-2.1 2.3-3.3 3.1-3.3m-12.1-3c0-.6.5-1.3 1.2-1.3.4 0 .8.3.8.8 0 .7-.5 1.3-1.2 1.3-.5 0-.8-.3-.8-.8m3.7 3.6c-.1.5-.3 1.4-.4 1.9-.5 2.6-1.2 4-2.5 4-.4 0-.6-.1-.8-.6-.1-.3-.3-.4-.6-.4-.2 0-.5.2-.5.5 0 .6.7 1 1.7 1 2 0 3.5-1.2 4.6-2.3.6-.5 1.1-1 1.7-1.6-.4.7-.7 1.4-.7 2.2 0 .9.6 1.6 1.9 1.6 2.5 0 4.2-2.3 5.2-3.6 1.4-1.8 2.5-3.1 3.1-3.1.2 0 .2.1.2.2 0 .2-.1.4-.2.7-1.2 2.1-3.2 5.2-3.5 5.7l2-.1c.9-1.5 3.4-4.7 4.6-5.8-.3.4-.4.9-.4 1.3 0 .7.5 1.3 1.4 1.3.5 0 .9-.1 1.3-.3v-.5c-.3.1-.5.2-.7.2-.4 0-.6-.3-.6-.7 0-.8.7-1.8 1.5-2 0-.4-.3-.6-.9-.6-.7 0-1.8.6-3.9 3.3.6-1.2 1-1.7 1-2.4 0-.5-.4-.9-1.1-.9-1.4 0-2.2 1.2-4.1 3.5-1.1 1.5-2.5 3-3.9 3-.5 0-.8-.3-.8-.7 0-.5.3-1.2.5-1.6.5 0 1.2-.2 1.8-.5 1.7-.8 2.8-1.9 2.8-2.9 0-.7-.5-1-1.3-1-1 0-2.2.5-3.5 1.7-1.2 1.2-3.3 3.1-4.4 3.9.5-.7.6-1.4.6-2.2 0-.8-.1-1.7-.1-2.4V15c.4-.1.7-.3.7-.8 0-.3-.2-.6-.6-.6-.6 0-1.1.5-1.2 1.6l.1.3zm-9.8-.6c.2 0 .4.1.4.3 0 1.3-1.9 2.8-3.5 3.1 1-1.7 2.2-3.4 3.1-3.4m-34.3 1.2c-1.1 1.4-3.4 3.5-5.3 4.7.8-.9 1.6-2.3 1.6-3.7 0-1.7-1.1-2.1-1.7-2.4 0 0 .4-.1.5-.1 1.2-.3 2.2-.9 2.8-1.5.6-.6 1.3-2 1.3-2.9 0-1.1-.7-2.2-2.7-2.2-1.8 0-3.2.8-4.6 2.7-.4-.2-.9-.4-1.3-.6.5-.6.9-1.2 1.1-1.5l-2.4.1-.5.5c-1.4-.5-3.3-1.1-5.6-1.1-3.5 0-5.7 1.4-5.7 3.5 0 1.6 1.4 2.7 4.1 2.7 1.9 0 3.3-.6 4.4-1.2-1.7 2.4-3.9 5.6-4.7 7-.4.6-.7 1.2-.7 1.7 0 .8.8 1.3 1.8 1.3 1.1 0 2.1-.8 3.2-2.3l.4-.5s-.1.3-.1.6c0 1.2.8 2.3 3.1 2.3 3.3 0 6.6-2.1 9.1-4.5l.6-.6c-.9 1.3-1.3 2.2-1.3 2.7 0 .7.5 1.1 1.2 1.1 1.2 0 2.4-.9 3.4-1.9l.5-.5c-.3.6-.5 1-.5 1.4 0 .6.3 1 1.2 1 1.4 0 2.8-1.3 3.9-2.5-.2.4-.3.9-.3 1.3 0 .8.5 1.2 1.3 1.2 1.1 0 2.2-.6 3.4-2 .2-.2.4-.5.6-.7-.2.5-.5 1-.5 1.6 0 .7.4 1.1 1.2 1.1 1.8 0 3.3-1.9 4.3-3-.5.8-.8 1.3-.8 1.9 0 .8.5 1.1 1.2 1.1.8 0 1.5-.4 2.2-.8.5-.4 1.2-1 1.9-1.9-.3.5-.5 1.1-.5 1.6 0 .7.5 1.2 1.4 1.2.8 0 1.6-.3 2.7-1.3 1-.8 1.7-1.8 2.3-2.8.3.5.7.8 1.2.9-.2.5-.4 1-.4 1.5 0 1 .6 1.6 2 1.6 2.3 0 4.1-1.9 5.3-3.2-.6 1-.8 1.6-.8 2.1 0 .7.5 1.1 1.4 1.1 1.5 0 2.9-1.4 4.3-2.9.5-.5 1.6-1.6 3.3-3.4l.2-.9c-.6.7-1.7 1.8-2.7 2.9-2.1 2.2-3.6 3.5-4.4 3.5-.2 0-.3-.1-.3-.4 0-.4.6-1.5 1.2-2.4 0 0 .5-.9 2.2-3.5l-2 .1c-.2.3-.7 1-.8 1.1-1.4 1.8-4 5.1-6.1 5.1-.7 0-.9-.3-.9-.8s.2-1 .4-1.5c.5-.1 1.1-.2 1.5-.4 1.9-.7 3.2-2.1 3.2-3.1 0-.7-.4-1-1.3-1-1.2 0-3 .7-4.6 3.1-.1.2-.3.5-.5.8-.5-.1-.9-.4-1.2-.9.7-1.2 1.2-2.3 1.2-2.7 0-.2-.2-.4-.5-.4-.4 0-.6.2-.8.4-.3.4-.5 1.3-.5 2.2-.5 1.4-2.6 4-3.9 4-.2 0-.4-.1-.4-.3 0-.4.5-1.4 1.4-3 .1-.2 1.3-2.1 1.8-3l-2 .1c-.5.7-.9 1.4-1.4 2.1-2.1 3-3.5 4.1-4.3 4.1-.3 0-.3-.1-.3-.3 0-.2.1-.4.3-.8.6-1.2 2.2-3.5 3.3-5.2l-2 .1c-.2.3-.9 1.3-1.1 1.6-2.5 3.8-3.8 4.8-4.5 4.8-.2 0-.3-.1-.3-.4 0-.4.4-1.2.7-1.7.6-1 1.4-2.4 2.8-4.8.6-1 2.5-4 3.1-5.1l-2.1.1s-.3.4-3.7 6.1c-.3-.5-.7-.8-1.5-.8-1.7 0-3.3 1.1-4.6 2.8l-.2.2C36 20 34.7 21 34.1 21c-.3 0-.4-.2-.2-.6.1-.4.6-1.2 1.1-2.1 0 0 .6-.9 2.3-3.5l-2.1.1s-1.8 2.7-2.3 3.4c-1.1 1.4-2.6 2.8-3.4 2.8-.2 0-.3-.1-.3-.2 0-.2.1-.5.4-1 .6-1 3.2-5 3.2-5l-2.1.1c-.2.2-.7.8-.9 1.1m-18.3-2.3c-2.1 0-3.2-.8-3.2-2.2 0-1.7 1.8-3 4.9-3 2.2 0 4 .5 5.2 1 0 0 0 .1-.1.1L17 11.5c-.7.7-2.4 2.3-5.5 2.3m2.2 7.9c-.4.3-.6.5-.9.5-.2 0-.3-.1-.3-.3 0-.2.1-.4.4-1 .4-.7 4.2-6.3 5.6-8.4l1.5-2.1c.4.2.9.4 1.3.6-1 1.4-2.5 3.7-3.9 5.8-1.6 2.4-2.8 4.1-3.7 4.9m7.3-6.9h.8c1.6 0 2 .9 2 1.9 0 2.3-2.2 5.7-5.4 5.7-1.4 0-1.9-.7-1.9-1.6 0-1.8 1.6-3.5 4.1-3.5v-.5c-.7 0-1.9.2-2.7.8 1.3-2 3.3-4.9 4.1-6.1.6.3 1 .7 1.4 1l.3-.4c-.4-.3-.9-.7-1.4-1 .8-1 2-2.3 3.3-2.3.9 0 1.2.6 1.2 1.3 0 1-.9 3-2.7 3.8-.8.4-1.9.4-3.2.4l-.5.7c.2-.2.4-.2.6-.2m20.1 4.7c-.9 1.1-1.6 1.4-2 1.4-.3 0-.4-.2-.4-.4 0-.7 1-2.5 1.9-3.6 1-1.2 1.8-1.9 2.6-1.9.5 0 .7.3.7.7 0 .1 0 .2-.1.3-.7 1.2-1.7 2.5-2.7 3.5"/>
    <path fill="none" stroke="#721818" stroke-width=".126" stroke-miterlimit="10" d="M82.3 14.9c.2 0 .3.1.3.3 0 1.2-1.9 2.8-3.4 3 1.2-2.1 2.3-3.3 3.1-3.3zm-12.1-3c0-.6.5-1.3 1.2-1.3.4 0 .8.3.8.8 0 .7-.5 1.3-1.2 1.3-.5 0-.8-.3-.8-.8zm3.7 3.6c-.1.5-.3 1.4-.4 1.9-.5 2.6-1.2 4-2.5 4-.4 0-.6-.1-.8-.6-.1-.3-.3-.4-.6-.4-.2 0-.5.2-.5.5 0 .6.7 1 1.7 1 2 0 3.5-1.2 4.6-2.3.6-.5 1.1-1 1.7-1.6-.4.7-.7 1.4-.7 2.2 0 .9.6 1.6 1.9 1.6 2.5 0 4.2-2.3 5.2-3.6 1.4-1.8 2.5-3.1 3.1-3.1.2 0 .2.1.2.2 0 .2-.1.4-.2.7-1.2 2.1-3.2 5.2-3.5 5.7l2-.1c.9-1.5 3.4-4.7 4.6-5.8-.3.4-.4.9-.4 1.3 0 .7.5 1.3 1.4 1.3.5 0 .9-.1 1.3-.3v-.5c-.3.1-.5.2-.7.2-.4 0-.6-.3-.6-.7 0-.8.7-1.8 1.5-2 0-.4-.3-.6-.9-.6-.7 0-1.8.6-3.9 3.3.6-1.2 1-1.7 1-2.4 0-.5-.4-.9-1.1-.9-1.4 0-2.2 1.2-4.1 3.5-1.1 1.5-2.5 3-3.9 3-.5 0-.8-.3-.8-.7 0-.5.3-1.2.5-1.6.5 0 1.2-.2 1.8-.5 1.7-.8 2.8-1.9 2.8-2.9 0-.7-.5-1-1.3-1-1 0-2.2.5-3.5 1.7-1.2 1.2-3.3 3.1-4.4 3.9.5-.7.6-1.4.6-2.2 0-.8-.1-1.7-.1-2.4V15c.4-.1.7-.3.7-.8 0-.3-.2-.6-.6-.6-.6 0-1.1.5-1.2 1.6l.1.3zm-9.8-.6c.2 0 .4.1.4.3 0 1.3-1.9 2.8-3.5 3.1 1-1.7 2.2-3.4 3.1-3.4zm-34.3 1.2c-1.1 1.4-3.4 3.5-5.3 4.7.8-.9 1.6-2.3 1.6-3.7 0-1.7-1.1-2.1-1.7-2.4 0 0 .4-.1.5-.1 1.2-.3 2.2-.9 2.8-1.5.6-.6 1.3-2 1.3-2.9 0-1.1-.7-2.2-2.7-2.2-1.8 0-3.2.8-4.6 2.7-.4-.2-.9-.4-1.3-.6.5-.6.9-1.2 1.1-1.5l-2.4.1-.5.5c-1.4-.5-3.3-1.1-5.6-1.1-3.5 0-5.7 1.4-5.7 3.5 0 1.6 1.4 2.7 4.1 2.7 1.9 0 3.3-.6 4.4-1.2-1.7 2.4-3.9 5.6-4.7 7-.4.6-.7 1.2-.7 1.7 0 .8.8 1.3 1.8 1.3 1.1 0 2.1-.8 3.2-2.3l.4-.5s-.1.3-.1.6c0 1.2.8 2.3 3.1 2.3 3.3 0 6.6-2.1 9.1-4.5l.6-.6c-.9 1.3-1.3 2.2-1.3 2.7 0 .7.5 1.1 1.2 1.1 1.2 0 2.4-.9 3.4-1.9l.5-.5c-.3.6-.5 1-.5 1.4 0 .6.3 1 1.2 1 1.4 0 2.8-1.3 3.9-2.5-.2.4-.3.9-.3 1.3 0 .8.5 1.2 1.3 1.2 1.1 0 2.2-.6 3.4-2 .2-.2.4-.5.6-.7-.2.5-.5 1-.5 1.6 0 .7.4 1.1 1.2 1.1 1.8 0 3.3-1.9 4.3-3-.5.8-.8 1.3-.8 1.9 0 .8.5 1.1 1.2 1.1.8 0 1.5-.4 2.2-.8.5-.4 1.2-1 1.9-1.9-.3.5-.5 1.1-.5 1.6 0 .7.5 1.2 1.4 1.2.8 0 1.6-.3 2.7-1.3 1-.8 1.7-1.8 2.3-2.8.3.5.7.8 1.2.9-.2.5-.4 1-.4 1.5 0 1 .6 1.6 2 1.6 2.3 0 4.1-1.9 5.3-3.2-.6 1-.8 1.6-.8 2.1 0 .7.5 1.1 1.4 1.1 1.5 0 2.9-1.4 4.3-2.9.5-.5 1.6-1.6 3.3-3.4l.2-.9c-.6.7-1.7 1.8-2.7 2.9-2.1 2.2-3.6 3.5-4.4 3.5-.2 0-.3-.1-.3-.4 0-.4.6-1.5 1.2-2.4 0 0 .5-.9 2.2-3.5l-2 .1c-.2.3-.7 1-.8 1.1-1.4 1.8-4 5.1-6.1 5.1-.7 0-.9-.3-.9-.8s.2-1 .4-1.5c.5-.1 1.1-.2 1.5-.4 1.9-.7 3.2-2.1 3.2-3.1 0-.7-.4-1-1.3-1-1.2 0-3 .7-4.6 3.1-.1.2-.3.5-.5.8-.5-.1-.9-.4-1.2-.9.7-1.2 1.2-2.3 1.2-2.7 0-.2-.2-.4-.5-.4-.4 0-.6.2-.8.4-.3.4-.5 1.3-.5 2.2-.5 1.4-2.6 4-3.9 4-.2 0-.4-.1-.4-.3 0-.4.5-1.4 1.4-3 .1-.2 1.3-2.1 1.8-3l-2 .1c-.5.7-.9 1.4-1.4 2.1-2.1 3-3.5 4.1-4.3 4.1-.3 0-.3-.1-.3-.3 0-.2.1-.4.3-.8.6-1.2 2.2-3.5 3.3-5.2l-2 .1c-.2.3-.9 1.3-1.1 1.6-2.5 3.8-3.8 4.8-4.5 4.8-.2 0-.3-.1-.3-.4 0-.4.4-1.2.7-1.7.6-1 1.4-2.4 2.8-4.8.6-1 2.5-4 3.1-5.1l-2.1.1s-.3.4-3.7 6.1c-.3-.5-.7-.8-1.5-.8-1.7 0-3.3 1.1-4.6 2.8l-.2.2C36 20 34.7 21 34.1 21c-.3 0-.4-.2-.2-.6.1-.4.6-1.2 1.1-2.1 0 0 .6-.9 2.3-3.5l-2.1.1s-1.8 2.7-2.3 3.4c-1.1 1.4-2.6 2.8-3.4 2.8-.2 0-.3-.1-.3-.2 0-.2.1-.5.4-1 .6-1 3.2-5 3.2-5l-2.1.1c-.2.2-.7.8-.9 1.1zm-18.3-2.3c-2.1 0-3.2-.8-3.2-2.2 0-1.7 1.8-3 4.9-3 2.2 0 4 .5 5.2 1 0 0 0 .1-.1.1L17 11.5c-.7.7-2.4 2.3-5.5 2.3zm2.2 7.9c-.4.3-.6.5-.9.5-.2 0-.3-.1-.3-.3 0-.2.1-.4.4-1 .4-.7 4.2-6.3 5.6-8.4l1.5-2.1c.4.2.9.4 1.3.6-1 1.4-2.5 3.7-3.9 5.8-1.6 2.4-2.8 4.1-3.7 4.9zm7.3-6.9h.8c1.6 0 2 .9 2 1.9 0 2.3-2.2 5.7-5.4 5.7-1.4 0-1.9-.7-1.9-1.6 0-1.8 1.6-3.5 4.1-3.5v-.5c-.7 0-1.9.2-2.7.8 1.3-2 3.3-4.9 4.1-6.1.6.3 1 .7 1.4 1l.3-.4c-.4-.3-.9-.7-1.4-1 .8-1 2-2.3 3.3-2.3.9 0 1.2.6 1.2 1.3 0 1-.9 3-2.7 3.8-.8.4-1.9.4-3.2.4l-.5.7c.2-.2.4-.2.6-.2zm20.1 4.7c-.9 1.1-1.6 1.4-2 1.4-.3 0-.4-.2-.4-.4 0-.7 1-2.5 1.9-3.6 1-1.2 1.8-1.9 2.6-1.9.5 0 .7.3.7.7 0 .1 0 .2-.1.3-.7 1.2-1.7 2.5-2.7 3.5z"/>
    <path fill="#721818" d="M82.4 14.9c.2 0 .3.1.3.4 0 1.2-1.9 2.8-3.5 3 1.2-2.1 2.4-3.4 3.2-3.4M70.2 12c0-.6.5-1.3 1.2-1.3.4 0 .8.3.8.8 0 .7-.5 1.3-1.2 1.3-.5 0-.8-.3-.8-.8m3.7 3.6c-.1.5-.3 1.4-.4 1.9-.5 2.6-1.2 4-2.5 4-.4 0-.6-.1-.8-.6-.1-.3-.3-.4-.6-.4-.2 0-.5.2-.5.5 0 .6.7 1 1.7 1 2 0 3.5-1.2 4.6-2.3.6-.5 1.1-1 1.7-1.6-.4.7-.7 1.4-.7 2.2 0 .9.6 1.6 1.9 1.6 2.5 0 4.2-2.3 5.2-3.6 1.4-1.8 2.5-3.1 3.1-3.1.2 0 .2.1.2.2 0 .2-.1.4-.2.6-1.2 2.1-3.2 5.2-3.5 5.7l2-.1c.9-1.5 3.4-4.7 4.6-5.8-.3.4-.4.9-.4 1.3 0 .7.5 1.3 1.4 1.3.5 0 .9-.1 1.3-.3v-.4c-.2.1-.5.2-.7.2-.4 0-.6-.3-.6-.6 0-.8.7-1.8 1.5-2 0-.4-.3-.6-.9-.6-.7 0-1.8.6-3.9 3.3.6-1.2 1-1.7 1-2.4 0-.5-.4-.9-1.1-.9-1.4 0-2.2 1.2-4.1 3.5-1.1 1.5-2.5 3-3.9 3-.5 0-.8-.3-.8-.7 0-.5.3-1.2.5-1.6.5 0 1.2-.2 1.8-.5 1.7-.8 2.8-1.9 2.8-2.9 0-.7-.5-1-1.3-1-1 0-2.2.5-3.5 1.7-1.2 1.2-3.3 3.1-4.4 4 .5-.7.6-1.4.6-2.2 0-.8-.1-1.7-.1-2.4v-.3c.4-.1.7-.3.7-.8 0-.3-.2-.6-.6-.6-.6 0-1.1.5-1.2 1.6l.1.1zm-9.7-.7c.2 0 .4.1.4.3 0 1.3-1.9 2.8-3.5 3.1.9-1.7 2.1-3.4 3.1-3.4m-34.4 1.3c-1.1 1.4-3.4 3.5-5.3 4.7.8-.9 1.6-2.3 1.6-3.7 0-1.7-1.1-2.1-1.7-2.4 0 0 .4-.1.5-.1 1.2-.3 2.2-.9 2.8-1.5.6-.6 1.3-2 1.3-2.9 0-1.2-.7-2.3-2.6-2.3-1.8 0-3.2.8-4.6 2.7-.4-.2-.9-.4-1.3-.6.5-.6.9-1.2 1.1-1.5l-2.4.1c-.2.2-.3.4-.5.6-1.4-.5-3.3-1.1-5.6-1.1-3.5 0-5.7 1.4-5.7 3.5 0 1.6 1.4 2.7 4.1 2.7 1.9 0 3.3-.6 4.4-1.2-1.7 2.4-3.9 5.6-4.7 7-.4.6-.7 1.2-.7 1.7 0 .8.8 1.3 1.8 1.3 1.1 0 2.1-.8 3.2-2.3l.4-.5s-.1.3-.1.6c0 1.2.8 2.3 3.1 2.3 3.3 0 6.6-2.1 9.1-4.5l.6-.6c-.9 1.3-1.3 2.2-1.3 2.7 0 .7.5 1.1 1.2 1.1 1.2 0 2.4-.9 3.4-1.9l.5-.5c-.3.6-.5 1-.5 1.4 0 .6.3 1 1.2 1 1.4 0 2.8-1.3 3.9-2.5-.2.4-.3.9-.3 1.3 0 .8.5 1.2 1.3 1.2 1.1 0 2.2-.6 3.4-2 .2-.2.4-.5.6-.7-.2.5-.5 1-.5 1.6 0 .7.4 1.1 1.2 1.1 1.8 0 3.3-1.9 4.3-3-.5.8-.8 1.3-.8 1.9 0 .8.5 1.1 1.2 1.1.8 0 1.5-.4 2.2-.8.5-.4 1.2-1 1.9-1.9-.3.5-.5 1.1-.5 1.6 0 .7.5 1.2 1.4 1.2.8 0 1.6-.3 2.7-1.3 1-.8 1.7-1.8 2.3-2.8.3.5.7.7 1.2.9-.2.5-.4 1-.4 1.5 0 1 .6 1.6 2 1.6 2.3 0 4.1-1.9 5.3-3.2-.6 1-.8 1.6-.8 2.1 0 .7.5 1.1 1.4 1.1 1.5 0 2.9-1.4 4.4-2.9.5-.5 1.6-1.6 3.3-3.4l.2-.9c-.6.7-1.7 1.8-2.7 2.9-2.1 2.2-3.6 3.5-4.4 3.5-.2 0-.3-.1-.3-.4 0-.4.6-1.5 1.2-2.4 0 0 .5-.9 2.2-3.5l-2 .1c-.2.3-.7 1-.8 1.1-1.4 1.8-4 5.1-6.1 5.1-.7 0-.9-.3-.9-.8s.2-1 .4-1.5c.5-.1 1.1-.2 1.5-.4 1.9-.7 3.2-2 3.2-3 0-.7-.4-1-1.3-1-1.2 0-3 .7-4.6 3.1-.1.2-.3.5-.5.8-.5-.1-.9-.4-1.2-.9.7-1.2 1.2-2.3 1.2-2.7 0-.2-.2-.4-.5-.4-.4 0-.6.2-.8.4-.3.5-.5 1.3-.5 2.2-.5 1.4-2.6 4-3.9 4-.2 0-.4-.1-.4-.3 0-.4.5-1.4 1.5-3 .1-.2 1.3-2.1 1.8-3l-2 .1c-.5.7-.9 1.4-1.4 2.1-2.1 3-3.5 4.1-4.3 4.1-.3 0-.3-.1-.3-.3 0-.2.1-.4.3-.8.6-1.2 2.2-3.5 3.3-5.2l-2 .1c-.2.3-.9 1.3-1.2 1.6-2.6 3.6-4 4.6-4.7 4.6-.2 0-.3-.1-.3-.4 0-.4.4-1.2.7-1.7.6-1 1.4-2.4 2.8-4.8.6-1 2.5-4 3.1-5.1l-2.1.2s-.3.4-3.7 6.1c-.3-.5-.7-.8-1.5-.8-1.7 0-3.3 1.1-4.6 2.8l-.2.3c-2 2.6-3.3 3.5-3.9 3.5-.3 0-.4-.2-.2-.6.1-.4.6-1.2 1.1-2.1 0 0 .6-.9 2.3-3.5l-2.1.1s-1.8 2.7-2.3 3.4c-1.1 1.4-2.6 2.8-3.4 2.8-.2 0-.3-.1-.3-.2 0-.2.1-.5.4-1 .6-1 3.2-5 3.2-5l-2.1.1c-.2.1-.6.8-.9 1.1m-18.3-2.3c-2.1 0-3.2-.8-3.2-2.2 0-1.7 1.8-3 4.9-3 2.2 0 4 .5 5.2 1 0 0 0 .1-.1.1L17 11.6c-.6.7-2.4 2.3-5.5 2.3m2.2 7.9c-.4.3-.6.5-.9.5-.2 0-.3-.1-.3-.3 0-.2.1-.4.4-1 .4-.7 4.2-6.3 5.6-8.4l1.5-2.1c.4.2.9.4 1.3.6-1 1.4-2.5 3.7-3.9 5.8-1.5 2.4-2.7 4.1-3.7 4.9m7.4-6.9h.8c1.6 0 2 .9 2 1.9 0 2.3-2.2 5.7-5.4 5.7-1.4 0-1.9-.7-1.9-1.6 0-1.8 1.6-3.5 4.1-3.5v-.5c-.7 0-1.9.2-2.7.8 1.3-2 3.3-4.9 4.1-6.1.6.3 1 .7 1.5 1l.3-.4c-.4-.3-.9-.7-1.4-1 .8-1 2-2.3 3.3-2.3.9 0 1.2.6 1.2 1.3 0 1-.9 3-2.7 3.8-.8.4-1.9.4-3.2.4l-.5.7c0-.2.2-.2.5-.2m20 4.7c-.9 1.1-1.6 1.4-2 1.4-.3 0-.4-.2-.4-.4 0-.7 1-2.5 1.9-3.6 1-1.2 1.8-1.9 2.6-1.9.5 0 .7.3.7.7 0 .1 0 .2-.1.3-.7 1.2-1.7 2.5-2.7 3.5"/>
    <path fill="none" stroke="#721818" stroke-width=".126" stroke-miterlimit="10" d="M82.4 14.9c.2 0 .3.1.3.4 0 1.2-1.9 2.8-3.5 3 1.2-2.1 2.4-3.4 3.2-3.4zM70.2 12c0-.6.5-1.3 1.2-1.3.4 0 .8.3.8.8 0 .7-.5 1.3-1.2 1.3-.5 0-.8-.3-.8-.8zm3.7 3.6c-.1.5-.3 1.4-.4 1.9-.5 2.6-1.2 4-2.5 4-.4 0-.6-.1-.8-.6-.1-.3-.3-.4-.6-.4-.2 0-.5.2-.5.5 0 .6.7 1 1.7 1 2 0 3.5-1.2 4.6-2.3.6-.5 1.1-1 1.7-1.6-.4.7-.7 1.4-.7 2.2 0 .9.6 1.6 1.9 1.6 2.5 0 4.2-2.3 5.2-3.6 1.4-1.8 2.5-3.1 3.1-3.1.2 0 .2.1.2.2 0 .2-.1.4-.2.6-1.2 2.1-3.2 5.2-3.5 5.7l2-.1c.9-1.5 3.4-4.7 4.6-5.8-.3.4-.4.9-.4 1.3 0 .7.5 1.3 1.4 1.3.5 0 .9-.1 1.3-.3v-.4c-.2.1-.5.2-.7.2-.4 0-.6-.3-.6-.6 0-.8.7-1.8 1.5-2 0-.4-.3-.6-.9-.6-.7 0-1.8.6-3.9 3.3.6-1.2 1-1.7 1-2.4 0-.5-.4-.9-1.1-.9-1.4 0-2.2 1.2-4.1 3.5-1.1 1.5-2.5 3-3.9 3-.5 0-.8-.3-.8-.7 0-.5.3-1.2.5-1.6.5 0 1.2-.2 1.8-.5 1.7-.8 2.8-1.9 2.8-2.9 0-.7-.5-1-1.3-1-1 0-2.2.5-3.5 1.7-1.2 1.2-3.3 3.1-4.4 4 .5-.7.6-1.4.6-2.2 0-.8-.1-1.7-.1-2.4v-.3c.4-.1.7-.3.7-.8 0-.3-.2-.6-.6-.6-.6 0-1.1.5-1.2 1.6l.1.1zm-9.7-.7c.2 0 .4.1.4.3 0 1.3-1.9 2.8-3.5 3.1.9-1.7 2.1-3.4 3.1-3.4zm-34.4 1.3c-1.1 1.4-3.4 3.5-5.3 4.7.8-.9 1.6-2.3 1.6-3.7 0-1.7-1.1-2.1-1.7-2.4 0 0 .4-.1.5-.1 1.2-.3 2.2-.9 2.8-1.5.6-.6 1.3-2 1.3-2.9 0-1.2-.7-2.3-2.6-2.3-1.8 0-3.2.8-4.6 2.7-.4-.2-.9-.4-1.3-.6.5-.6.9-1.2 1.1-1.5l-2.4.1c-.2.2-.3.4-.5.6-1.4-.5-3.3-1.1-5.6-1.1-3.5 0-5.7 1.4-5.7 3.5 0 1.6 1.4 2.7 4.1 2.7 1.9 0 3.3-.6 4.4-1.2-1.7 2.4-3.9 5.6-4.7 7-.4.6-.7 1.2-.7 1.7 0 .8.8 1.3 1.8 1.3 1.1 0 2.1-.8 3.2-2.3l.4-.5s-.1.3-.1.6c0 1.2.8 2.3 3.1 2.3 3.3 0 6.6-2.1 9.1-4.5l.6-.6c-.9 1.3-1.3 2.2-1.3 2.7 0 .7.5 1.1 1.2 1.1 1.2 0 2.4-.9 3.4-1.9l.5-.5c-.3.6-.5 1-.5 1.4 0 .6.3 1 1.2 1 1.4 0 2.8-1.3 3.9-2.5-.2.4-.3.9-.3 1.3 0 .8.5 1.2 1.3 1.2 1.1 0 2.2-.6 3.4-2 .2-.2.4-.5.6-.7-.2.5-.5 1-.5 1.6 0 .7.4 1.1 1.2 1.1 1.8 0 3.3-1.9 4.3-3-.5.8-.8 1.3-.8 1.9 0 .8.5 1.1 1.2 1.1.8 0 1.5-.4 2.2-.8.5-.4 1.2-1 1.9-1.9-.3.5-.5 1.1-.5 1.6 0 .7.5 1.2 1.4 1.2.8 0 1.6-.3 2.7-1.3 1-.8 1.7-1.8 2.3-2.8.3.5.7.7 1.2.9-.2.5-.4 1-.4 1.5 0 1 .6 1.6 2 1.6 2.3 0 4.1-1.9 5.3-3.2-.6 1-.8 1.6-.8 2.1 0 .7.5 1.1 1.4 1.1 1.5 0 2.9-1.4 4.4-2.9.5-.5 1.6-1.6 3.3-3.4l.2-.9c-.6.7-1.7 1.8-2.7 2.9-2.1 2.2-3.6 3.5-4.4 3.5-.2 0-.3-.1-.3-.4 0-.4.6-1.5 1.2-2.4 0 0 .5-.9 2.2-3.5l-2 .1c-.2.3-.7 1-.8 1.1-1.4 1.8-4 5.1-6.1 5.1-.7 0-.9-.3-.9-.8s.2-1 .4-1.5c.5-.1 1.1-.2 1.5-.4 1.9-.7 3.2-2 3.2-3 0-.7-.4-1-1.3-1-1.2 0-3 .7-4.6 3.1-.1.2-.3.5-.5.8-.5-.1-.9-.4-1.2-.9.7-1.2 1.2-2.3 1.2-2.7 0-.2-.2-.4-.5-.4-.4 0-.6.2-.8.4-.3.5-.5 1.3-.5 2.2-.5 1.4-2.6 4-3.9 4-.2 0-.4-.1-.4-.3 0-.4.5-1.4 1.5-3 .1-.2 1.3-2.1 1.8-3l-2 .1c-.5.7-.9 1.4-1.4 2.1-2.1 3-3.5 4.1-4.3 4.1-.3 0-.3-.1-.3-.3 0-.2.1-.4.3-.8.6-1.2 2.2-3.5 3.3-5.2l-2 .1c-.2.3-.9 1.3-1.2 1.6-2.6 3.6-4 4.6-4.7 4.6-.2 0-.3-.1-.3-.4 0-.4.4-1.2.7-1.7.6-1 1.4-2.4 2.8-4.8.6-1 2.5-4 3.1-5.1l-2.1.2s-.3.4-3.7 6.1c-.3-.5-.7-.8-1.5-.8-1.7 0-3.3 1.1-4.6 2.8l-.2.3c-2 2.6-3.3 3.5-3.9 3.5-.3 0-.4-.2-.2-.6.1-.4.6-1.2 1.1-2.1 0 0 .6-.9 2.3-3.5l-2.1.1s-1.8 2.7-2.3 3.4c-1.1 1.4-2.6 2.8-3.4 2.8-.2 0-.3-.1-.3-.2 0-.2.1-.5.4-1 .6-1 3.2-5 3.2-5l-2.1.1c-.2.1-.6.8-.9 1.1zm-18.3-2.3c-2.1 0-3.2-.8-3.2-2.2 0-1.7 1.8-3 4.9-3 2.2 0 4 .5 5.2 1 0 0 0 .1-.1.1L17 11.6c-.6.7-2.4 2.3-5.5 2.3zm2.2 7.9c-.4.3-.6.5-.9.5-.2 0-.3-.1-.3-.3 0-.2.1-.4.4-1 .4-.7 4.2-6.3 5.6-8.4l1.5-2.1c.4.2.9.4 1.3.6-1 1.4-2.5 3.7-3.9 5.8-1.5 2.4-2.7 4.1-3.7 4.9zm7.4-6.9h.8c1.6 0 2 .9 2 1.9 0 2.3-2.2 5.7-5.4 5.7-1.4 0-1.9-.7-1.9-1.6 0-1.8 1.6-3.5 4.1-3.5v-.5c-.7 0-1.9.2-2.7.8 1.3-2 3.3-4.9 4.1-6.1.6.3 1 .7 1.5 1l.3-.4c-.4-.3-.9-.7-1.4-1 .8-1 2-2.3 3.3-2.3.9 0 1.2.6 1.2 1.3 0 1-.9 3-2.7 3.8-.8.4-1.9.4-3.2.4l-.5.7c0-.2.2-.2.5-.2zm20 4.7c-.9 1.1-1.6 1.4-2 1.4-.3 0-.4-.2-.4-.4 0-.7 1-2.5 1.9-3.6 1-1.2 1.8-1.9 2.6-1.9.5 0 .7.3.7.7 0 .1 0 .2-.1.3-.7 1.2-1.7 2.5-2.7 3.5z"/>
    <path fill="#721818" d="M82.4 15c.2 0 .3.1.3.4 0 1.2-1.9 2.8-3.5 3 1.3-2.1 2.4-3.4 3.2-3.4m-12.1-2.9c0-.6.5-1.3 1.2-1.3.4 0 .8.3.8.9 0 .7-.5 1.3-1.2 1.3-.6-.1-.8-.5-.8-.9m3.7 3.6c-.1.5-.3 1.4-.4 1.9-.5 2.6-1.2 4-2.5 4-.4 0-.6-.1-.8-.6-.1-.3-.3-.4-.6-.4-.2 0-.5.2-.5.5 0 .6.7 1 1.7 1 2 0 3.5-1.2 4.6-2.2.6-.5 1.1-1 1.7-1.6-.4.7-.7 1.4-.7 2.2 0 .9.6 1.6 1.9 1.6 2.5 0 4.2-2.3 5.2-3.6 1.4-1.8 2.5-3.1 3.1-3.1.2 0 .2.1.2.2 0 .2-.1.4-.2.6-1.2 2.1-3.2 5.2-3.5 5.7l2-.1c.9-1.5 3.4-4.7 4.6-5.8-.3.4-.4.9-.4 1.3 0 .7.5 1.3 1.4 1.3.5 0 .9-.1 1.3-.3l-.2-.4c-.3.1-.5.2-.7.2-.4 0-.6-.3-.6-.7 0-.8.7-1.8 1.5-2 0-.4-.3-.6-.9-.6-.7 0-1.8.6-3.9 3.3.6-1.2 1-1.7 1-2.4 0-.5-.4-.9-1.1-.9-1.4 0-2.2 1.2-4.1 3.5-1.1 1.5-2.5 3-3.9 3-.5 0-.8-.3-.8-.7 0-.6.3-1.2.5-1.6.5 0 1.2-.2 1.8-.5 1.7-.8 2.8-1.9 2.8-2.9 0-.7-.5-1-1.3-1-1 0-2.2.5-3.5 1.7-1.2 1.2-3.3 3.1-4.4 4 .5-.7.6-1.4.6-2.2 0-.8-.1-1.7-.1-2.4v-.3c.4-.1.7-.3.7-.8 0-.3-.2-.6-.6-.6-.6 0-1.1.5-1.2 1.6l.3.1zm-9.8-.7c.2 0 .4.1.4.3 0 1.3-1.9 2.8-3.5 3.1 1-1.7 2.2-3.4 3.1-3.4m-34.4 1.3c-1.1 1.4-3.4 3.5-5.3 4.7.8-.9 1.6-2.3 1.6-3.7 0-1.7-1.1-2.1-1.7-2.4 0 0 .4-.1.5-.1 1.2-.3 2.2-.9 2.8-1.5.6-.6 1.3-2 1.3-2.9 0-1.1-.7-2.2-2.7-2.2-1.8 0-3.2.8-4.6 2.7-.4-.2-.9-.4-1.3-.6.5-.6.9-1.2 1.1-1.5l-2.4.1c-.2.2-.3.4-.5.6-1.4-.5-3.3-1.1-5.6-1.1-3.5 0-5.7 1.4-5.7 3.5 0 1.6 1.4 2.7 4.1 2.7 1.9 0 3.3-.6 4.4-1.2-1.7 2.4-3.9 5.6-4.7 7-.4.6-.7 1.2-.7 1.7 0 .8.8 1.3 1.8 1.3 1.1 0 2.1-.8 3.2-2.3l.4-.5s-.1.3-.1.6c0 1.2.7 2.3 3.1 2.3 3.3 0 6.6-2.1 9.1-4.5l.6-.6c-.9 1.3-1.3 2.2-1.3 2.7 0 .7.5 1.1 1.2 1.1 1.2 0 2.4-.9 3.4-1.9l.5-.5c-.3.6-.5 1-.5 1.4 0 .6.3 1 1.2 1 1.4 0 2.8-1.3 3.9-2.5-.2.4-.3.9-.3 1.3 0 .8.5 1.2 1.3 1.2 1.1 0 2.2-.6 3.4-2 .2-.2.4-.5.6-.7-.2.5-.5 1-.5 1.6 0 .7.4 1.1 1.2 1.1 1.8 0 3.3-1.9 4.3-3-.5.8-.8 1.3-.8 1.9 0 .8.5 1.1 1.2 1.1.8 0 1.5-.4 2.2-.8.5-.4 1.2-1 1.9-1.9-.3.5-.5 1.1-.5 1.6 0 .7.5 1.2 1.4 1.2.8 0 1.6-.3 2.7-1.3 1-.8 1.7-1.8 2.3-2.8.3.5.7.7 1.2.9-.2.5-.4 1-.4 1.5 0 1 .6 1.7 2 1.7 2.3 0 4.1-1.9 5.3-3.2-.6 1-.8 1.6-.8 2.1 0 .7.5 1.1 1.4 1.1 1.5 0 2.9-1.4 4.3-2.9.5-.5 1.6-1.6 3.3-3.4l.2-.9c-.6.7-1.7 1.8-2.7 2.9-2.1 2.2-3.6 3.5-4.4 3.5-.2 0-.3-.1-.3-.4 0-.4.6-1.5 1.2-2.4 0 0 .5-.9 2.2-3.5l-2 .1c-.2.2-.7 1-.8 1.1-1.4 1.8-4 5.1-6.1 5.1-.7 0-.9-.3-.9-.8s.2-1 .4-1.5c.5-.1 1.1-.2 1.5-.4 1.9-.7 3.2-2 3.2-3 0-.7-.4-1-1.3-1-1.2 0-3 .7-4.6 3.1-.1.2-.3.5-.5.8-.5-.1-.9-.4-1.2-.9.7-1.2 1.2-2.3 1.2-2.7 0-.2-.2-.4-.5-.4-.4 0-.6.2-.8.4-.3.5-.5 1.3-.5 2.2-.5 1.4-2.6 4-3.9 4-.2 0-.4-.1-.4-.3 0-.4.5-1.4 1.4-3 .1-.2 1.3-2.1 1.8-3l-2 .1c-.5.7-.9 1.4-1.4 2.1-2.1 3-3.5 4.1-4.3 4.1-.3 0-.3-.1-.3-.3 0-.2.1-.4.3-.8.6-1.2 2.2-3.5 3.3-5.2l-2 .1c-.2.3-.9 1.3-1.2 1.6-2.8 3.6-4.2 4.6-4.9 4.6-.3 0-.3-.1-.3-.4 0-.4.4-1.2.7-1.7.6-1 1.4-2.4 2.8-4.8.6-1 2.5-4 3.1-5.1l-2.1.1s-.3.4-3.7 6.1c-.3-.5-.7-.8-1.5-.8-1.7 0-3.3 1.1-4.5 2.8l-.2.3c-2 2.6-3.3 3.5-3.9 3.5-.3 0-.4-.2-.2-.6.1-.4.6-1.2 1.1-2.1 0 0 .6-.9 2.3-3.5l-1.7-.1s-1.8 2.7-2.3 3.4c-1.1 1.4-2.6 2.8-3.4 2.8-.2 0-.3-.1-.3-.2 0-.2.1-.5.4-1 .6-1 3.2-5 3.2-5h-2c-.2.3-.7.9-1 1.3M11.6 14c-2.1 0-3.2-.8-3.2-2.2 0-1.7 1.8-3 4.9-3 2.2 0 4 .5 5.2 1 0 0 0 .1-.1.1l-1.2 1.7c-.8.8-2.5 2.4-5.6 2.4m2.2 7.9c-.4.3-.6.5-.9.5-.2 0-.3-.1-.3-.3 0-.2.1-.4.4-1 .4-.7 4.2-6.3 5.6-8.4l1.5-2.1c.4.2.9.4 1.3.6-1 1.4-2.5 3.7-3.9 5.8-1.6 2.4-2.8 4.1-3.7 4.9m7.3-7h.7c1.6 0 2 .9 2 1.9 0 2.3-2.2 5.7-5.4 5.7-1.4 0-1.9-.7-1.9-1.6 0-1.8 1.6-3.5 4.1-3.5v-.5c-.7 0-1.9.2-2.7.8 1.3-2 3.3-4.9 4.1-6.1.6.3 1 .7 1.5 1l.3-.4c-.4-.3-.9-.7-1.4-1 .8-1 2-2.3 3.3-2.3.9 0 1.2.6 1.2 1.3 0 1-.9 3-2.7 3.8-.8.4-1.9.4-3.2.4l-.5.6c.2-.1.4-.1.6-.1m20.1 4.8c-.9 1.1-1.6 1.4-2 1.4-.3 0-.4-.2-.4-.4 0-.8 1-2.5 1.9-3.6 1-1.2 1.8-1.9 2.6-1.9.5 0 .7.3.7.7 0 .1 0 .2-.1.3-.7 1.1-1.8 2.4-2.7 3.5"/>
    <path fill="none" stroke="#721818" stroke-width=".126" stroke-miterlimit="10" d="M82.4 15c.2 0 .3.1.3.4 0 1.2-1.9 2.8-3.5 3 1.3-2.1 2.4-3.4 3.2-3.4zm-12.1-2.9c0-.6.5-1.3 1.2-1.3.4 0 .8.3.8.9 0 .7-.5 1.3-1.2 1.3-.6-.1-.8-.5-.8-.9zm3.7 3.6c-.1.5-.3 1.4-.4 1.9-.5 2.6-1.2 4-2.5 4-.4 0-.6-.1-.8-.6-.1-.3-.3-.4-.6-.4-.2 0-.5.2-.5.5 0 .6.7 1 1.7 1 2 0 3.5-1.2 4.6-2.2.6-.5 1.1-1 1.7-1.6-.4.7-.7 1.4-.7 2.2 0 .9.6 1.6 1.9 1.6 2.5 0 4.2-2.3 5.2-3.6 1.4-1.8 2.5-3.1 3.1-3.1.2 0 .2.1.2.2 0 .2-.1.4-.2.6-1.2 2.1-3.2 5.2-3.5 5.7l2-.1c.9-1.5 3.4-4.7 4.6-5.8-.3.4-.4.9-.4 1.3 0 .7.5 1.3 1.4 1.3.5 0 .9-.1 1.3-.3l-.2-.4c-.3.1-.5.2-.7.2-.4 0-.6-.3-.6-.7 0-.8.7-1.8 1.5-2 0-.4-.3-.6-.9-.6-.7 0-1.8.6-3.9 3.3.6-1.2 1-1.7 1-2.4 0-.5-.4-.9-1.1-.9-1.4 0-2.2 1.2-4.1 3.5-1.1 1.5-2.5 3-3.9 3-.5 0-.8-.3-.8-.7 0-.6.3-1.2.5-1.6.5 0 1.2-.2 1.8-.5 1.7-.8 2.8-1.9 2.8-2.9 0-.7-.5-1-1.3-1-1 0-2.2.5-3.5 1.7-1.2 1.2-3.3 3.1-4.4 4 .5-.7.6-1.4.6-2.2 0-.8-.1-1.7-.1-2.4v-.3c.4-.1.7-.3.7-.8 0-.3-.2-.6-.6-.6-.6 0-1.1.5-1.2 1.6l.3.1zm-9.8-.7c.2 0 .4.1.4.3 0 1.3-1.9 2.8-3.5 3.1 1-1.7 2.2-3.4 3.1-3.4zm-34.4 1.3c-1.1 1.4-3.4 3.5-5.3 4.7.8-.9 1.6-2.3 1.6-3.7 0-1.7-1.1-2.1-1.7-2.4 0 0 .4-.1.5-.1 1.2-.3 2.2-.9 2.8-1.5.6-.6 1.3-2 1.3-2.9 0-1.1-.7-2.2-2.7-2.2-1.8 0-3.2.8-4.6 2.7-.4-.2-.9-.4-1.3-.6.5-.6.9-1.2 1.1-1.5l-2.4.1c-.2.2-.3.4-.5.6-1.4-.5-3.3-1.1-5.6-1.1-3.5 0-5.7 1.4-5.7 3.5 0 1.6 1.4 2.7 4.1 2.7 1.9 0 3.3-.6 4.4-1.2-1.7 2.4-3.9 5.6-4.7 7-.4.6-.7 1.2-.7 1.7 0 .8.8 1.3 1.8 1.3 1.1 0 2.1-.8 3.2-2.3l.4-.5s-.1.3-.1.6c0 1.2.7 2.3 3.1 2.3 3.3 0 6.6-2.1 9.1-4.5l.6-.6c-.9 1.3-1.3 2.2-1.3 2.7 0 .7.5 1.1 1.2 1.1 1.2 0 2.4-.9 3.4-1.9l.5-.5c-.3.6-.5 1-.5 1.4 0 .6.3 1 1.2 1 1.4 0 2.8-1.3 3.9-2.5-.2.4-.3.9-.3 1.3 0 .8.5 1.2 1.3 1.2 1.1 0 2.2-.6 3.4-2 .2-.2.4-.5.6-.7-.2.5-.5 1-.5 1.6 0 .7.4 1.1 1.2 1.1 1.8 0 3.3-1.9 4.3-3-.5.8-.8 1.3-.8 1.9 0 .8.5 1.1 1.2 1.1.8 0 1.5-.4 2.2-.8.5-.4 1.2-1 1.9-1.9-.3.5-.5 1.1-.5 1.6 0 .7.5 1.2 1.4 1.2.8 0 1.6-.3 2.7-1.3 1-.8 1.7-1.8 2.3-2.8.3.5.7.7 1.2.9-.2.5-.4 1-.4 1.5 0 1 .6 1.7 2 1.7 2.3 0 4.1-1.9 5.3-3.2-.6 1-.8 1.6-.8 2.1 0 .7.5 1.1 1.4 1.1 1.5 0 2.9-1.4 4.3-2.9.5-.5 1.6-1.6 3.3-3.4l.2-.9c-.6.7-1.7 1.8-2.7 2.9-2.1 2.2-3.6 3.5-4.4 3.5-.2 0-.3-.1-.3-.4 0-.4.6-1.5 1.2-2.4 0 0 .5-.9 2.2-3.5l-2 .1c-.2.2-.7 1-.8 1.1-1.4 1.8-4 5.1-6.1 5.1-.7 0-.9-.3-.9-.8s.2-1 .4-1.5c.5-.1 1.1-.2 1.5-.4 1.9-.7 3.2-2 3.2-3 0-.7-.4-1-1.3-1-1.2 0-3 .7-4.6 3.1-.1.2-.3.5-.5.8-.5-.1-.9-.4-1.2-.9.7-1.2 1.2-2.3 1.2-2.7 0-.2-.2-.4-.5-.4-.4 0-.6.2-.8.4-.3.5-.5 1.3-.5 2.2-.5 1.4-2.6 4-3.9 4-.2 0-.4-.1-.4-.3 0-.4.5-1.4 1.4-3 .1-.2 1.3-2.1 1.8-3l-2 .1c-.5.7-.9 1.4-1.4 2.1-2.1 3-3.5 4.1-4.3 4.1-.3 0-.3-.1-.3-.3 0-.2.1-.4.3-.8.6-1.2 2.2-3.5 3.3-5.2l-2 .1c-.2.3-.9 1.3-1.2 1.6-2.8 3.6-4.2 4.6-4.9 4.6-.3 0-.3-.1-.3-.4 0-.4.4-1.2.7-1.7.6-1 1.4-2.4 2.8-4.8.6-1 2.5-4 3.1-5.1l-2.1.1s-.3.4-3.7 6.1c-.3-.5-.7-.8-1.5-.8-1.7 0-3.3 1.1-4.5 2.8l-.2.3c-2 2.6-3.3 3.5-3.9 3.5-.3 0-.4-.2-.2-.6.1-.4.6-1.2 1.1-2.1 0 0 .6-.9 2.3-3.5l-1.7-.1s-1.8 2.7-2.3 3.4c-1.1 1.4-2.6 2.8-3.4 2.8-.2 0-.3-.1-.3-.2 0-.2.1-.5.4-1 .6-1 3.2-5 3.2-5h-2c-.2.3-.7.9-1 1.3zM11.6 14c-2.1 0-3.2-.8-3.2-2.2 0-1.7 1.8-3 4.9-3 2.2 0 4 .5 5.2 1 0 0 0 .1-.1.1l-1.2 1.7c-.8.8-2.5 2.4-5.6 2.4zm2.2 7.9c-.4.3-.6.5-.9.5-.2 0-.3-.1-.3-.3 0-.2.1-.4.4-1 .4-.7 4.2-6.3 5.6-8.4l1.5-2.1c.4.2.9.4 1.3.6-1 1.4-2.5 3.7-3.9 5.8-1.6 2.4-2.8 4.1-3.7 4.9zm7.3-7h.7c1.6 0 2 .9 2 1.9 0 2.3-2.2 5.7-5.4 5.7-1.4 0-1.9-.7-1.9-1.6 0-1.8 1.6-3.5 4.1-3.5v-.5c-.7 0-1.9.2-2.7.8 1.3-2 3.3-4.9 4.1-6.1.6.3 1 .7 1.5 1l.3-.4c-.4-.3-.9-.7-1.4-1 .8-1 2-2.3 3.3-2.3.9 0 1.2.6 1.2 1.3 0 1-.9 3-2.7 3.8-.8.4-1.9.4-3.2.4l-.5.6c.2-.1.4-.1.6-.1zm20.1 4.8c-.9 1.1-1.6 1.4-2 1.4-.3 0-.4-.2-.4-.4 0-.8 1-2.5 1.9-3.6 1-1.2 1.8-1.9 2.6-1.9.5 0 .7.3.7.7 0 .1 0 .2-.1.3-.7 1.1-1.8 2.4-2.7 3.5z"/>
    <path fill="#721818" d="M82.5 15.1c.2 0 .3.1.3.4 0 1.2-1.9 2.8-3.5 3 1.2-2.2 2.3-3.4 3.2-3.4m-12.2-3c0-.6.5-1.3 1.2-1.3.4 0 .8.3.8.9 0 .7-.5 1.3-1.2 1.3-.5 0-.8-.4-.8-.9m3.7 3.6c-.1.5-.3 1.4-.4 1.9-.5 2.6-1.2 4-2.5 4-.4 0-.6-.1-.8-.6-.1-.3-.3-.4-.6-.4-.2 0-.5.2-.5.5 0 .6.7 1 1.7 1 2 0 3.5-1.2 4.6-2.2.6-.5 1.1-1 1.7-1.6-.4.7-.7 1.4-.7 2.2 0 .9.6 1.6 1.9 1.6 2.5 0 4.2-2.3 5.2-3.6 1.4-1.8 2.5-3.1 3.1-3.1.2 0 .2.1.2.2 0 .2-.1.4-.2.7-1.2 2.1-3.2 5.2-3.5 5.7l2-.1c.9-1.5 3.4-4.7 4.6-5.8-.3.4-.4.9-.4 1.3 0 .7.5 1.3 1.4 1.3.5 0 .9-.1 1.3-.3l-.2-.4h-.6c-.4 0-.6-.3-.6-.7 0-.8.7-1.8 1.5-2 0-.4-.3-.6-.9-.6-.7 0-1.8.6-3.9 3.3.6-1.2 1-1.7 1-2.4 0-.5-.4-.9-1.1-.9-1.4 0-2.2 1.2-4.1 3.5-1.1 1.5-2.5 3-3.9 3-.5 0-.8-.3-.8-.7 0-.5.3-1.2.5-1.6.5 0 1.2-.2 1.8-.5 1.7-.8 2.8-1.9 2.8-2.9 0-.7-.5-1-1.3-1-1 0-2.2.5-3.5 1.7-1.2 1.2-3.3 3.1-4.4 3.9.5-.7.6-1.4.6-2.2 0-.8-.1-1.7-.1-2.4v-.3c.4-.1.7-.3.7-.8 0-.3-.2-.6-.6-.6-.6 0-1.1.5-1.2 1.6l.2.3zm-9.7-.6c.2 0 .4.1.4.3 0 1.3-1.9 2.8-3.5 3.1.9-1.7 2.1-3.4 3.1-3.4m-34.4 1.2c-1.1 1.4-3.4 3.5-5.3 4.7.8-.9 1.6-2.3 1.6-3.7 0-1.7-1.1-2.1-1.7-2.4 0 0 .4-.1.5-.1 1.2-.3 2.2-.9 2.8-1.5.6-.6 1.3-2 1.3-2.9 0-1.1-.7-2.2-2.7-2.2-1.8 0-3.2.8-4.6 2.7-.4-.2-.9-.4-1.3-.6.5-.7.9-1.3 1.1-1.6l-2.4.1c-.2.2-.3.4-.5.6-1.4-.5-3.3-1.1-5.6-1.1-3.5 0-5.7 1.4-5.7 3.5 0 1.6 1.4 2.7 4.1 2.7 1.9 0 3.3-.6 4.4-1.2-1.7 2.4-3.9 5.6-4.7 7-.4.7-.7 1.2-.7 1.7 0 .8.8 1.3 1.8 1.3 1.1 0 2.1-.8 3.2-2.3l.4-.5s-.1.3-.1.6c0 1.2.8 2.3 3.1 2.3 3.3 0 6.6-2.1 9.1-4.5l.6-.6c-.9 1.3-1.3 2.2-1.3 2.7 0 .7.5 1.1 1.2 1.1 1.2 0 2.4-.9 3.4-1.9l.5-.5c-.3.6-.5 1-.5 1.4 0 .6.3 1 1.2 1 1.4 0 2.8-1.3 3.9-2.5-.2.4-.3.9-.3 1.3 0 .8.5 1.2 1.3 1.2 1.1 0 2.2-.6 3.4-2 .2-.2.4-.5.6-.7-.2.5-.5 1-.5 1.6 0 .7.4 1.1 1.2 1.1 1.8 0 3.4-1.9 4.3-3-.5.8-.8 1.3-.8 1.9 0 .8.5 1.1 1.2 1.1.8 0 1.5-.4 2.2-.8.5-.4 1.2-1 1.9-1.9-.3.5-.5 1.1-.5 1.6 0 .7.5 1.2 1.4 1.1.8 0 1.6-.3 2.7-1.3 1-.8 1.7-1.8 2.3-2.8.3.5.7.8 1.2.9-.2.5-.4 1-.4 1.5 0 1 .6 1.7 2 1.7 2.3 0 4.1-1.9 5.3-3.2-.6 1-.8 1.6-.8 2.1 0 .7.5 1.1 1.4 1.1 1.5 0 2.9-1.4 4.4-2.9.5-.5 1.6-1.6 3.3-3.4l.2-.9c-.6.7-1.7 1.8-2.7 2.9-2.1 2.2-3.6 3.5-4.4 3.5-.2 0-.3-.1-.3-.4 0-.4.6-1.5 1.2-2.4 0 0 .5-.9 2.2-3.5l-2 .1c-.2.2-.7 1-.8 1.1-1.4 1.8-4 5.1-6.1 5.1-.7 0-.9-.3-.9-.8s.2-1 .4-1.5c.5-.1 1.1-.2 1.5-.4 1.9-.7 3.2-2 3.2-3 0-.7-.4-1-1.3-1-1.2 0-3 .7-4.6 3.1-.1.2-.3.5-.5.8-.5-.1-.9-.4-1.2-.9.7-1.2 1.2-2.3 1.2-2.7 0-.2-.2-.4-.5-.4-.4 0-.6.2-.8.4-.3.4-.5 1.3-.5 2.2-.5 1.4-2.6 4-3.9 4-.2 0-.4-.1-.4-.3 0-.4.5-1.4 1.5-3 .1-.2 1.3-2.1 1.8-3l-2 .1c-.5.7-.9 1.4-1.4 2.1-2.1 3-3.5 4.1-4.3 4.1-.3 0-.3-.1-.3-.3 0-.2.1-.4.3-.8.6-1.2 2.2-3.5 3.3-5.2l-2 .1c-.2.3-.9 1.3-1.2 1.6-2.8 3.6-4.2 4.6-4.9 4.6-.2 0-.3-.1-.3-.4 0-.4.4-1.2.7-1.7.6-1 1.4-2.4 2.8-4.8.6-1 2.5-4 3.1-5.1l-2.1.1s-.3.4-3.7 6.1c-.3-.5-.7-.8-1.5-.8-1.7 0-3.3 1.1-4.6 2.8l-.2.3c-2 2.6-3.3 3.5-3.9 3.5-.3 0-.4-.2-.2-.6.1-.4.6-1.2 1.1-2.1 0 0 .6-.9 2.3-3.5L35 15s-1.8 2.7-2.3 3.4c-1.1 1.4-2.6 2.8-3.4 2.8-.2 0-.3-.1-.3-.2 0-.2.1-.5.4-1 .6-1 3.2-5 3.2-5h-1.8c-.2.4-.7 1-.9 1.3m-18.3-2.2c-2.1 0-3.3-.8-3.2-2.2 0-1.7 1.8-3 4.9-3 2.2 0 4 .5 5.2 1 0 0 0 .1-.1.1l-1.2 1.7c-.7.7-2.5 2.4-5.6 2.4m2.2 7.9c-.4.3-.6.5-.9.5-.2 0-.3-.1-.3-.3 0-.2.1-.4.4-1 .4-.7 4.2-6.3 5.6-8.4l1.5-2.1c.4.2.9.4 1.3.6-1 1.4-2.5 3.7-3.9 5.8-1.6 2.4-2.7 4.1-3.7 4.9m7.3-7h.8c1.6 0 2 .9 2 1.9 0 2.3-2.2 5.7-5.4 5.7-1.4 0-1.9-.7-1.9-1.6 0-1.8 1.6-3.5 4.1-3.5V17c-.7 0-1.9.2-2.7.8 1.3-2 3.3-4.9 4.1-6.1.6.3 1 .7 1.5 1l.3-.4c-.4-.3-.9-.7-1.4-1 .8-1 2-2.3 3.3-2.3.9 0 1.2.6 1.2 1.3 0 1-.9 3-2.7 3.8-.8.4-1.9.4-3.2.4l-.5.7c.1-.2.3-.2.5-.2m20.1 4.8c-.9 1.1-1.6 1.4-2 1.4-.3 0-.4-.2-.4-.4 0-.8 1-2.5 1.9-3.6 1-1.2 1.8-1.9 2.6-1.9.5 0 .7.3.7.7 0 .1 0 .2-.1.3-.7 1.1-1.7 2.4-2.7 3.5"/>
    <path fill="none" stroke="#721818" stroke-width=".126" stroke-miterlimit="10" d="M82.5 15.1c.2 0 .3.1.3.4 0 1.2-1.9 2.8-3.5 3 1.2-2.2 2.3-3.4 3.2-3.4zm-12.2-3c0-.6.5-1.3 1.2-1.3.4 0 .8.3.8.9 0 .7-.5 1.3-1.2 1.3-.5 0-.8-.4-.8-.9zm3.7 3.6c-.1.5-.3 1.4-.4 1.9-.5 2.6-1.2 4-2.5 4-.4 0-.6-.1-.8-.6-.1-.3-.3-.4-.6-.4-.2 0-.5.2-.5.5 0 .6.7 1 1.7 1 2 0 3.5-1.2 4.6-2.2.6-.5 1.1-1 1.7-1.6-.4.7-.7 1.4-.7 2.2 0 .9.6 1.6 1.9 1.6 2.5 0 4.2-2.3 5.2-3.6 1.4-1.8 2.5-3.1 3.1-3.1.2 0 .2.1.2.2 0 .2-.1.4-.2.7-1.2 2.1-3.2 5.2-3.5 5.7l2-.1c.9-1.5 3.4-4.7 4.6-5.8-.3.4-.4.9-.4 1.3 0 .7.5 1.3 1.4 1.3.5 0 .9-.1 1.3-.3l-.2-.4h-.6c-.4 0-.6-.3-.6-.7 0-.8.7-1.8 1.5-2 0-.4-.3-.6-.9-.6-.7 0-1.8.6-3.9 3.3.6-1.2 1-1.7 1-2.4 0-.5-.4-.9-1.1-.9-1.4 0-2.2 1.2-4.1 3.5-1.1 1.5-2.5 3-3.9 3-.5 0-.8-.3-.8-.7 0-.5.3-1.2.5-1.6.5 0 1.2-.2 1.8-.5 1.7-.8 2.8-1.9 2.8-2.9 0-.7-.5-1-1.3-1-1 0-2.2.5-3.5 1.7-1.2 1.2-3.3 3.1-4.4 3.9.5-.7.6-1.4.6-2.2 0-.8-.1-1.7-.1-2.4v-.3c.4-.1.7-.3.7-.8 0-.3-.2-.6-.6-.6-.6 0-1.1.5-1.2 1.6l.2.3zm-9.7-.6c.2 0 .4.1.4.3 0 1.3-1.9 2.8-3.5 3.1.9-1.7 2.1-3.4 3.1-3.4zm-34.4 1.2c-1.1 1.4-3.4 3.5-5.3 4.7.8-.9 1.6-2.3 1.6-3.7 0-1.7-1.1-2.1-1.7-2.4 0 0 .4-.1.5-.1 1.2-.3 2.2-.9 2.8-1.5.6-.6 1.3-2 1.3-2.9 0-1.1-.7-2.2-2.7-2.2-1.8 0-3.2.8-4.6 2.7-.4-.2-.9-.4-1.3-.6.5-.7.9-1.3 1.1-1.6l-2.4.1c-.2.2-.3.4-.5.6-1.4-.5-3.3-1.1-5.6-1.1-3.5 0-5.7 1.4-5.7 3.5 0 1.6 1.4 2.7 4.1 2.7 1.9 0 3.3-.6 4.4-1.2-1.7 2.4-3.9 5.6-4.7 7-.4.7-.7 1.2-.7 1.7 0 .8.8 1.3 1.8 1.3 1.1 0 2.1-.8 3.2-2.3l.4-.5s-.1.3-.1.6c0 1.2.8 2.3 3.1 2.3 3.3 0 6.6-2.1 9.1-4.5l.6-.6c-.9 1.3-1.3 2.2-1.3 2.7 0 .7.5 1.1 1.2 1.1 1.2 0 2.4-.9 3.4-1.9l.5-.5c-.3.6-.5 1-.5 1.4 0 .6.3 1 1.2 1 1.4 0 2.8-1.3 3.9-2.5-.2.4-.3.9-.3 1.3 0 .8.5 1.2 1.3 1.2 1.1 0 2.2-.6 3.4-2 .2-.2.4-.5.6-.7-.2.5-.5 1-.5 1.6 0 .7.4 1.1 1.2 1.1 1.8 0 3.4-1.9 4.3-3-.5.8-.8 1.3-.8 1.9 0 .8.5 1.1 1.2 1.1.8 0 1.5-.4 2.2-.8.5-.4 1.2-1 1.9-1.9-.3.5-.5 1.1-.5 1.6 0 .7.5 1.2 1.4 1.1.8 0 1.6-.3 2.7-1.3 1-.8 1.7-1.8 2.3-2.8.3.5.7.8 1.2.9-.2.5-.4 1-.4 1.5 0 1 .6 1.7 2 1.7 2.3 0 4.1-1.9 5.3-3.2-.6 1-.8 1.6-.8 2.1 0 .7.5 1.1 1.4 1.1 1.5 0 2.9-1.4 4.4-2.9.5-.5 1.6-1.6 3.3-3.4l.2-.9c-.6.7-1.7 1.8-2.7 2.9-2.1 2.2-3.6 3.5-4.4 3.5-.2 0-.3-.1-.3-.4 0-.4.6-1.5 1.2-2.4 0 0 .5-.9 2.2-3.5l-2 .1c-.2.2-.7 1-.8 1.1-1.4 1.8-4 5.1-6.1 5.1-.7 0-.9-.3-.9-.8s.2-1 .4-1.5c.5-.1 1.1-.2 1.5-.4 1.9-.7 3.2-2 3.2-3 0-.7-.4-1-1.3-1-1.2 0-3 .7-4.6 3.1-.1.2-.3.5-.5.8-.5-.1-.9-.4-1.2-.9.7-1.2 1.2-2.3 1.2-2.7 0-.2-.2-.4-.5-.4-.4 0-.6.2-.8.4-.3.4-.5 1.3-.5 2.2-.5 1.4-2.6 4-3.9 4-.2 0-.4-.1-.4-.3 0-.4.5-1.4 1.5-3 .1-.2 1.3-2.1 1.8-3l-2 .1c-.5.7-.9 1.4-1.4 2.1-2.1 3-3.5 4.1-4.3 4.1-.3 0-.3-.1-.3-.3 0-.2.1-.4.3-.8.6-1.2 2.2-3.5 3.3-5.2l-2 .1c-.2.3-.9 1.3-1.2 1.6-2.8 3.6-4.2 4.6-4.9 4.6-.2 0-.3-.1-.3-.4 0-.4.4-1.2.7-1.7.6-1 1.4-2.4 2.8-4.8.6-1 2.5-4 3.1-5.1l-2.1.1s-.3.4-3.7 6.1c-.3-.5-.7-.8-1.5-.8-1.7 0-3.3 1.1-4.6 2.8l-.2.3c-2 2.6-3.3 3.5-3.9 3.5-.3 0-.4-.2-.2-.6.1-.4.6-1.2 1.1-2.1 0 0 .6-.9 2.3-3.5L35 15s-1.8 2.7-2.3 3.4c-1.1 1.4-2.6 2.8-3.4 2.8-.2 0-.3-.1-.3-.2 0-.2.1-.5.4-1 .6-1 3.2-5 3.2-5h-1.8c-.2.4-.7 1-.9 1.3zm-18.3-2.2c-2.1 0-3.3-.8-3.2-2.2 0-1.7 1.8-3 4.9-3 2.2 0 4 .5 5.2 1 0 0 0 .1-.1.1l-1.2 1.7c-.7.7-2.5 2.4-5.6 2.4zm2.2 7.9c-.4.3-.6.5-.9.5-.2 0-.3-.1-.3-.3 0-.2.1-.4.4-1 .4-.7 4.2-6.3 5.6-8.4l1.5-2.1c.4.2.9.4 1.3.6-1 1.4-2.5 3.7-3.9 5.8-1.6 2.4-2.7 4.1-3.7 4.9zm7.3-7h.8c1.6 0 2 .9 2 1.9 0 2.3-2.2 5.7-5.4 5.7-1.4 0-1.9-.7-1.9-1.6 0-1.8 1.6-3.5 4.1-3.5V17c-.7 0-1.9.2-2.7.8 1.3-2 3.3-4.9 4.1-6.1.6.3 1 .7 1.5 1l.3-.4c-.4-.3-.9-.7-1.4-1 .8-1 2-2.3 3.3-2.3.9 0 1.2.6 1.2 1.3 0 1-.9 3-2.7 3.8-.8.4-1.9.4-3.2.4l-.5.7c.1-.2.3-.2.5-.2zm20.1 4.8c-.9 1.1-1.6 1.4-2 1.4-.3 0-.4-.2-.4-.4 0-.8 1-2.5 1.9-3.6 1-1.2 1.8-1.9 2.6-1.9.5 0 .7.3.7.7 0 .1 0 .2-.1.3-.7 1.1-1.7 2.4-2.7 3.5z"/>
    <path fill="#721818" d="M82.5 15.2c.2 0 .3.1.3.3 0 1.2-1.9 2.8-3.4 3 1.1-2.1 2.3-3.3 3.1-3.3m-12.2-3c0-.6.5-1.3 1.2-1.3.4 0 .8.3.8.8 0 .7-.5 1.3-1.2 1.3-.5 0-.8-.3-.8-.8m3.7 3.6c-.1.5-.3 1.4-.4 1.9-.5 2.6-1.2 4-2.5 4-.4 0-.6-.1-.8-.6-.1-.3-.3-.4-.5-.4s-.5.2-.5.5c0 .6.7 1 1.7 1 2 0 3.5-1.2 4.6-2.3.6-.5 1.1-1 1.7-1.6-.4.7-.7 1.4-.7 2.2 0 .9.6 1.6 1.9 1.6 2.5 0 4.2-2.3 5.2-3.6 1.4-1.8 2.5-3.1 3.1-3.1.2 0 .2.1.2.2 0 .2-.1.4-.2.7-1.2 2.1-3.2 5.2-3.5 5.7l2-.1c.9-1.5 3.4-4.7 4.6-5.8-.3.4-.4.9-.4 1.3 0 .7.5 1.3 1.4 1.3.5 0 .9-.1 1.3-.3L92 18c-.2.1-.5.2-.7.2-.4 0-.6-.3-.6-.7 0-.8.7-1.8 1.5-2 0-.4-.3-.6-.9-.6-.7 0-1.8.6-3.9 3.3.6-1.2 1-1.7 1-2.4 0-.5-.4-.9-1.1-.9-1.4 0-2.2 1.2-4.1 3.5-1.1 1.5-2.5 3-3.9 3-.5 0-.8-.3-.8-.7 0-.5.3-1.2.5-1.6.5 0 1.2-.2 1.8-.5 1.7-.8 2.8-1.9 2.8-2.9 0-.7-.5-1-1.3-1-1 0-2.2.5-3.5 1.7-1.2 1.2-3.3 3.1-4.4 3.9.5-.7.6-1.4.6-2.2 0-.8-.1-1.7-.1-2.4v-.3c.4-.1.7-.3.7-.8 0-.3-.2-.6-.6-.6-.6 0-1.1.5-1.2 1.6l.2.2zm-9.7-.6c.2 0 .4.1.4.3 0 1.3-1.9 2.8-3.5 3.1.9-1.7 2.2-3.4 3.1-3.4m-34.4 1.2c-1.1 1.4-3.4 3.5-5.3 4.7.8-.9 1.6-2.3 1.6-3.7 0-1.7-1.1-2.1-1.7-2.4 0 0 .4-.1.5-.1 1.2-.3 2.2-.9 2.8-1.5.6-.6 1.3-2 1.3-2.9 0-1.1-.7-2.2-2.7-2.2-1.8 0-3.2.8-4.6 2.7-.4-.2-.9-.4-1.3-.7.5-.6.9-1.2 1.1-1.5l-2.4.1c-.2.2-.3.4-.5.6-1.4-.5-3.3-1.1-5.6-1.1-3.5 0-5.7 1.4-5.7 3.5 0 1.6 1.4 2.7 4.1 2.7 1.9 0 3.3-.6 4.4-1.2-1.7 2.4-3.9 5.6-4.7 7-.4.7-.7 1.2-.7 1.7 0 .8.8 1.3 1.8 1.3 1.1 0 2.1-.8 3.2-2.3l.4-.5s-.1.3-.1.6c0 1.2.8 2.3 3.1 2.3 3.3 0 6.6-2.1 9.1-4.5l.6-.6c-.9 1.3-1.3 2.2-1.3 2.7 0 .7.5 1.1 1.2 1.1 1.2 0 2.4-.9 3.4-1.9l.5-.5c-.3.6-.5 1-.5 1.4 0 .6.3 1 1.2 1 1.4 0 2.8-1.3 3.9-2.5-.2.4-.3.9-.3 1.3 0 .8.5 1.2 1.3 1.2 1.1 0 2.2-.6 3.4-2 .2-.2.4-.5.6-.7-.2.5-.5 1-.5 1.6 0 .7.4 1.1 1.2 1.1 1.8 0 3.3-1.9 4.3-3-.5.8-.8 1.3-.8 1.9 0 .8.5 1.1 1.2 1.1.8 0 1.5-.4 2.2-.8.5-.4 1.2-1 1.9-1.9-.3.5-.5 1.1-.5 1.6 0 .7.5 1.2 1.4 1.2.8 0 1.6-.3 2.7-1.3 1-.8 1.7-1.8 2.3-2.8.3.5.7.8 1.2.9-.2.5-.4 1-.4 1.5 0 1 .6 1.6 2 1.6 2.3 0 4.1-1.9 5.3-3.2-.6 1-.8 1.6-.8 2.1 0 .7.5 1.1 1.4 1.1 1.5 0 2.9-1.4 4.3-2.9.5-.5 1.6-1.6 3.3-3.4l.2-.9c-.6.7-1.7 1.8-2.7 2.9-2.1 2.2-3.6 3.5-4.4 3.5-.2 0-.3-.1-.3-.4 0-.4.6-1.5 1.2-2.4 0 0 .5-.9 2.2-3.5l-2 .1c-.2.2-.7 1-.8 1.1-1.4 1.8-4 5.1-6.1 5.1-.7 0-.9-.3-.9-.8s.2-1 .4-1.5c.5-.1 1.1-.2 1.5-.4 1.9-.7 3.2-2 3.2-3 0-.7-.4-1-1.3-1-1.2 0-3 .7-4.6 3.1-.1.2-.3.5-.5.8-.5-.1-.9-.4-1.2-.9.7-1.2 1.2-2.3 1.2-2.7 0-.2-.2-.4-.5-.4-.4 0-.6.2-.8.4-.3.4-.5 1.3-.5 2.2-.5 1.4-2.6 4-3.9 4-.2 0-.4-.1-.4-.3 0-.4.5-1.4 1.5-3 .1-.2 1.3-2.1 1.8-3l-2 .1c-.5.7-.9 1.4-1.4 2.1-2.1 3-3.5 4.1-4.3 4.1-.3 0-.3-.1-.3-.3 0-.2.1-.4.3-.8.6-1.2 2.2-3.5 3.3-5.2l-2 .1c-.2.3-.9 1.3-1.2 1.6-2.8 3.6-4.2 4.6-4.9 4.6-.2 0-.3-.1-.3-.4 0-.4.4-1.2.7-1.7.6-1 1.4-2.4 2.8-4.8.6-1 2.5-4 3.1-5.1l-2.1.1s-.3.4-3.7 6.1c-.3-.5-.7-.8-1.5-.8-1.7 0-3.3 1.1-4.6 2.8l-.2.3c-2 2.6-3.3 3.5-3.9 3.5-.3 0-.4-.2-.2-.6.1-.4.6-1.2 1.1-2.1 0 0 .6-.9 2.3-3.5l-2.1.1s-1.8 2.7-2.3 3.4c-1.1 1.4-2.6 2.8-3.4 2.8-.2 0-.3-.1-.3-.2 0-.2.1-.5.4-1 .6-1 3.2-5 3.2-5l-2.1.1c.2.3-.2.9-.5 1.2m-18.2-2.3c-2.1 0-3.2-.8-3.2-2.2 0-1.7 1.8-3 4.9-3 2.2 0 4 .5 5.2 1 0 0 0 .1-.1.1l-1.2 1.7c-.8.8-2.6 2.4-5.6 2.4m2.2 7.9c-.4.3-.6.5-.9.5-.2 0-.3-.1-.3-.3 0-.2.1-.4.4-1 .4-.7 4.2-6.3 5.6-8.4l1.5-2.1c.4.2.9.4 1.3.6-1 1.4-2.5 3.7-3.9 5.8-1.6 2.4-2.8 4.1-3.7 4.9m7.3-6.9h.8c1.6 0 2 .9 2 1.9 0 2.3-2.2 5.7-5.4 5.7-1.4 0-1.9-.7-1.9-1.6 0-1.8 1.6-3.5 4.1-3.5V17c-.7 0-1.9.2-2.7.8 1.3-2 3.3-4.9 4.1-6.1.6.3 1 .7 1.4 1l.3-.4c-.4-.3-.9-.7-1.4-1 .8-1 2-2.3 3.3-2.3.9 0 1.2.6 1.2 1.3 0 1-.9 3-2.7 3.8-.8.4-1.9.4-3.2.4l-.5.7c.2-.1.4-.1.6-.1m20.1 4.7c-.9 1.1-1.6 1.4-2 1.4-.3 0-.4-.2-.4-.4 0-.8 1-2.5 1.9-3.6 1-1.2 1.8-1.9 2.6-1.9.5 0 .7.3.7.7 0 .1 0 .2-.1.3-.8 1.2-1.8 2.5-2.7 3.5"/>
    <path fill="none" stroke="#721818" stroke-width=".126" stroke-miterlimit="10" d="M82.5 15.2c.2 0 .3.1.3.3 0 1.2-1.9 2.8-3.4 3 1.1-2.1 2.3-3.3 3.1-3.3zm-12.2-3c0-.6.5-1.3 1.2-1.3.4 0 .8.3.8.8 0 .7-.5 1.3-1.2 1.3-.5 0-.8-.3-.8-.8zm3.7 3.6c-.1.5-.3 1.4-.4 1.9-.5 2.6-1.2 4-2.5 4-.4 0-.6-.1-.8-.6-.1-.3-.3-.4-.5-.4s-.5.2-.5.5c0 .6.7 1 1.7 1 2 0 3.5-1.2 4.6-2.3.6-.5 1.1-1 1.7-1.6-.4.7-.7 1.4-.7 2.2 0 .9.6 1.6 1.9 1.6 2.5 0 4.2-2.3 5.2-3.6 1.4-1.8 2.5-3.1 3.1-3.1.2 0 .2.1.2.2 0 .2-.1.4-.2.7-1.2 2.1-3.2 5.2-3.5 5.7l2-.1c.9-1.5 3.4-4.7 4.6-5.8-.3.4-.4.9-.4 1.3 0 .7.5 1.3 1.4 1.3.5 0 .9-.1 1.3-.3L92 18c-.2.1-.5.2-.7.2-.4 0-.6-.3-.6-.7 0-.8.7-1.8 1.5-2 0-.4-.3-.6-.9-.6-.7 0-1.8.6-3.9 3.3.6-1.2 1-1.7 1-2.4 0-.5-.4-.9-1.1-.9-1.4 0-2.2 1.2-4.1 3.5-1.1 1.5-2.5 3-3.9 3-.5 0-.8-.3-.8-.7 0-.5.3-1.2.5-1.6.5 0 1.2-.2 1.8-.5 1.7-.8 2.8-1.9 2.8-2.9 0-.7-.5-1-1.3-1-1 0-2.2.5-3.5 1.7-1.2 1.2-3.3 3.1-4.4 3.9.5-.7.6-1.4.6-2.2 0-.8-.1-1.7-.1-2.4v-.3c.4-.1.7-.3.7-.8 0-.3-.2-.6-.6-.6-.6 0-1.1.5-1.2 1.6l.2.2zm-9.7-.6c.2 0 .4.1.4.3 0 1.3-1.9 2.8-3.5 3.1.9-1.7 2.2-3.4 3.1-3.4zm-34.4 1.2c-1.1 1.4-3.4 3.5-5.3 4.7.8-.9 1.6-2.3 1.6-3.7 0-1.7-1.1-2.1-1.7-2.4 0 0 .4-.1.5-.1 1.2-.3 2.2-.9 2.8-1.5.6-.6 1.3-2 1.3-2.9 0-1.1-.7-2.2-2.7-2.2-1.8 0-3.2.8-4.6 2.7-.4-.2-.9-.4-1.3-.7.5-.6.9-1.2 1.1-1.5l-2.4.1c-.2.2-.3.4-.5.6-1.4-.5-3.3-1.1-5.6-1.1-3.5 0-5.7 1.4-5.7 3.5 0 1.6 1.4 2.7 4.1 2.7 1.9 0 3.3-.6 4.4-1.2-1.7 2.4-3.9 5.6-4.7 7-.4.7-.7 1.2-.7 1.7 0 .8.8 1.3 1.8 1.3 1.1 0 2.1-.8 3.2-2.3l.4-.5s-.1.3-.1.6c0 1.2.8 2.3 3.1 2.3 3.3 0 6.6-2.1 9.1-4.5l.6-.6c-.9 1.3-1.3 2.2-1.3 2.7 0 .7.5 1.1 1.2 1.1 1.2 0 2.4-.9 3.4-1.9l.5-.5c-.3.6-.5 1-.5 1.4 0 .6.3 1 1.2 1 1.4 0 2.8-1.3 3.9-2.5-.2.4-.3.9-.3 1.3 0 .8.5 1.2 1.3 1.2 1.1 0 2.2-.6 3.4-2 .2-.2.4-.5.6-.7-.2.5-.5 1-.5 1.6 0 .7.4 1.1 1.2 1.1 1.8 0 3.3-1.9 4.3-3-.5.8-.8 1.3-.8 1.9 0 .8.5 1.1 1.2 1.1.8 0 1.5-.4 2.2-.8.5-.4 1.2-1 1.9-1.9-.3.5-.5 1.1-.5 1.6 0 .7.5 1.2 1.4 1.2.8 0 1.6-.3 2.7-1.3 1-.8 1.7-1.8 2.3-2.8.3.5.7.8 1.2.9-.2.5-.4 1-.4 1.5 0 1 .6 1.6 2 1.6 2.3 0 4.1-1.9 5.3-3.2-.6 1-.8 1.6-.8 2.1 0 .7.5 1.1 1.4 1.1 1.5 0 2.9-1.4 4.3-2.9.5-.5 1.6-1.6 3.3-3.4l.2-.9c-.6.7-1.7 1.8-2.7 2.9-2.1 2.2-3.6 3.5-4.4 3.5-.2 0-.3-.1-.3-.4 0-.4.6-1.5 1.2-2.4 0 0 .5-.9 2.2-3.5l-2 .1c-.2.2-.7 1-.8 1.1-1.4 1.8-4 5.1-6.1 5.1-.7 0-.9-.3-.9-.8s.2-1 .4-1.5c.5-.1 1.1-.2 1.5-.4 1.9-.7 3.2-2 3.2-3 0-.7-.4-1-1.3-1-1.2 0-3 .7-4.6 3.1-.1.2-.3.5-.5.8-.5-.1-.9-.4-1.2-.9.7-1.2 1.2-2.3 1.2-2.7 0-.2-.2-.4-.5-.4-.4 0-.6.2-.8.4-.3.4-.5 1.3-.5 2.2-.5 1.4-2.6 4-3.9 4-.2 0-.4-.1-.4-.3 0-.4.5-1.4 1.5-3 .1-.2 1.3-2.1 1.8-3l-2 .1c-.5.7-.9 1.4-1.4 2.1-2.1 3-3.5 4.1-4.3 4.1-.3 0-.3-.1-.3-.3 0-.2.1-.4.3-.8.6-1.2 2.2-3.5 3.3-5.2l-2 .1c-.2.3-.9 1.3-1.2 1.6-2.8 3.6-4.2 4.6-4.9 4.6-.2 0-.3-.1-.3-.4 0-.4.4-1.2.7-1.7.6-1 1.4-2.4 2.8-4.8.6-1 2.5-4 3.1-5.1l-2.1.1s-.3.4-3.7 6.1c-.3-.5-.7-.8-1.5-.8-1.7 0-3.3 1.1-4.6 2.8l-.2.3c-2 2.6-3.3 3.5-3.9 3.5-.3 0-.4-.2-.2-.6.1-.4.6-1.2 1.1-2.1 0 0 .6-.9 2.3-3.5l-2.1.1s-1.8 2.7-2.3 3.4c-1.1 1.4-2.6 2.8-3.4 2.8-.2 0-.3-.1-.3-.2 0-.2.1-.5.4-1 .6-1 3.2-5 3.2-5l-2.1.1c.2.3-.2.9-.5 1.2zm-18.2-2.3c-2.1 0-3.2-.8-3.2-2.2 0-1.7 1.8-3 4.9-3 2.2 0 4 .5 5.2 1 0 0 0 .1-.1.1l-1.2 1.7c-.8.8-2.6 2.4-5.6 2.4zm2.2 7.9c-.4.3-.6.5-.9.5-.2 0-.3-.1-.3-.3 0-.2.1-.4.4-1 .4-.7 4.2-6.3 5.6-8.4l1.5-2.1c.4.2.9.4 1.3.6-1 1.4-2.5 3.7-3.9 5.8-1.6 2.4-2.8 4.1-3.7 4.9zm7.3-6.9h.8c1.6 0 2 .9 2 1.9 0 2.3-2.2 5.7-5.4 5.7-1.4 0-1.9-.7-1.9-1.6 0-1.8 1.6-3.5 4.1-3.5V17c-.7 0-1.9.2-2.7.8 1.3-2 3.3-4.9 4.1-6.1.6.3 1 .7 1.4 1l.3-.4c-.4-.3-.9-.7-1.4-1 .8-1 2-2.3 3.3-2.3.9 0 1.2.6 1.2 1.3 0 1-.9 3-2.7 3.8-.8.4-1.9.4-3.2.4l-.5.7c.2-.1.4-.1.6-.1zm20.1 4.7c-.9 1.1-1.6 1.4-2 1.4-.3 0-.4-.2-.4-.4 0-.8 1-2.5 1.9-3.6 1-1.2 1.8-1.9 2.6-1.9.5 0 .7.3.7.7 0 .1 0 .2-.1.3-.8 1.2-1.8 2.5-2.7 3.5z"/>
    <path fill="#721818" d="M17.1 8.7l1.8.7-2.5 3.1-1.4-.6"/>
    <path fill="#FFF" d="M73.7 15.1c-.1.5-.3 1.4-.4 1.9-.5 2.6-1.2 4-2.5 4-.4 0-.6-.1-.8-.6-.1-.3-.3-.4-.6-.4-.2 0-.5.2-.5.5 0 .6.7 1 1.7 1 2 0 3.5-1.2 4.6-2.3.6-.5 1.1-1 1.7-1.6-.4.7-.7 1.4-.7 2.2 0 .9.6 1.6 1.9 1.6 2.5 0 4.2-2.3 5.2-3.6 1.4-1.8 2.5-3.1 3.1-3.1.2 0 .2.1.2.2 0 .2-.1.4-.2.7-1.2 2.1-3.2 5.2-3.5 5.7l2-.1c.9-1.5 3.4-4.7 4.6-5.8-.3.4-.4.9-.4 1.3 0 .7.5 1.3 1.4 1.3.5 0 .9-.1 1.3-.3l-.2-.4c-.2.1-.5.2-.7.2-.4 0-.6-.3-.6-.7 0-.8.7-1.8 1.5-2 0-.4-.3-.6-.9-.6-.7 0-1.8.6-3.9 3.3.6-1.2 1-1.7 1-2.4 0-.5-.4-.9-1.1-.9-1.4 0-2.2 1.2-4.1 3.5-1.1 1.5-2.5 3-3.9 3-.5 0-.8-.3-.8-.7 0-.5.3-1.2.5-1.6.5 0 1.2-.2 1.8-.5 1.7-.8 2.8-1.9 2.8-2.9 0-.7-.5-1-1.3-1-1 0-2.2.5-3.5 1.7-1.2 1.2-3.3 3.1-4.4 4 .5-.7.6-1.4.6-2.2 0-.8-.1-1.7-.1-2.4v-.4c.4-.1.7-.3.7-.8 0-.3-.2-.6-.6-.6-.6 0-1.1.5-1.2 1.6m-43.8.8c-1.1 1.4-3.4 3.5-5.3 4.7.8-.9 1.6-2.3 1.6-3.7 0-1.7-1.1-2.1-1.7-2.4 0 0 .4-.1.5-.1 1.2-.3 2.2-.9 2.8-1.5.6-.6 1.3-2 1.3-2.9 0-1.1-.7-2.2-2.7-2.2-1.8 0-3.2.8-4.6 2.7-.4-.2-.9-.4-1.3-.6.5-.6.9-1.2 1.1-1.5l-2.4.1c-.2.2-.3.4-.5.6-1.4-.5-3.3-1.1-5.6-1.1-3.5 0-5.7 1.4-5.7 3.5 0 1.6 1.4 2.7 4.1 2.7 1.9 0 3.3-.6 4.4-1.2-1.7 2.4-3.9 5.6-4.7 7-.4.6-.7 1.2-.7 1.7 0 .8.8 1.3 1.8 1.3 1.1 0 2.1-.8 3.2-2.3l.4-.5s-.1.3-.1.6c0 1.2.8 2.3 3.1 2.3 3.3 0 6.6-2.1 9.1-4.5l.6-.6c-.9 1.3-1.3 2.2-1.3 2.7 0 .7.5 1.1 1.2 1.1 1.2 0 2.4-.9 3.4-1.9l.5-.5c-.3.6-.5 1-.5 1.4 0 .6.3 1 1.1 1 1.4 0 2.8-1.3 3.9-2.5-.2.4-.3.9-.3 1.3 0 .8.5 1.2 1.3 1.2 1.1 0 2.2-.6 3.4-2 .2-.2.4-.5.6-.7-.2.5-.5 1-.5 1.6 0 .7.4 1.1 1.2 1.1 1.8 0 3.3-1.9 4.3-3-.5.8-.8 1.3-.8 1.9 0 .8.5 1.1 1.2 1.1.8 0 1.5-.4 2.2-.8.5-.4 1.2-1 1.9-1.9-.3.5-.5 1.1-.5 1.6 0 .7.5 1.2 1.4 1.2.8 0 1.6-.3 2.7-1.3 1-.8 1.7-1.8 2.3-2.8.3.5.7.7 1.2.9-.2.5-.4 1-.4 1.5 0 1 .6 1.6 2 1.6 2.3 0 4.1-1.9 5.3-3.2-.6 1-.8 1.6-.8 2.1 0 .7.5 1.1 1.4 1.1 1.5 0 2.9-1.4 4.3-2.9.5-.5 1.6-1.6 3.3-3.4l.2-.9c-.6.7-1.7 1.8-2.7 2.9-2.1 2.2-3.6 3.5-4.4 3.5-.2 0-.3-.1-.3-.4 0-.4.6-1.5 1.2-2.4 0 0 .5-.9 2.2-3.5l-2 .1c-.2.2-.7 1-.8 1.1-1.4 1.8-4 5.1-6.1 5.1-.7 0-.9-.3-.9-.8s.2-1 .4-1.5c.5-.1 1.1-.2 1.5-.4 1.9-.7 3.2-2 3.2-3 0-.7-.4-1-1.3-1-1.2 0-3 .7-4.6 3.1-.1.2-.3.5-.5.8-.5-.1-.9-.4-1.2-.9.7-1.2 1.2-2.3 1.2-2.7 0-.2-.2-.4-.5-.4-.4 0-.6.2-.8.4-.3.4-.5 1.3-.5 2.2-.5 1.4-2.6 4-3.9 4-.2 0-.4-.1-.4-.3 0-.4.5-1.4 1.5-3 .1-.2 1.3-2.1 1.8-3l-2 .1c-.5.7-.9 1.4-1.4 2.1-2.1 3-3.5 4.1-4.3 4.1-.3 0-.3-.1-.3-.3 0-.2.1-.4.3-.8.6-1.2 2.2-3.5 3.3-5.2l-2 .1c-.2.3-.9 1.3-1.2 1.6-2.8 3.6-4.2 4.6-4.9 4.6-.2 0-.3-.1-.3-.4 0-.4.4-1.2.7-1.7.6-1 1.4-2.4 2.8-4.8.6-1 2.5-4 3.1-5.1l-2.1.1s-.3.4-3.7 6.1c-.3-.5-.7-.8-1.5-.8-1.7 0-3.3 1.1-4.5 2.8l.2.2c-2 2.6-3.3 3.5-3.9 3.5-.3 0-.4-.2-.2-.6.1-.4.6-1.2 1.1-2.1 0 0 .6-.9 2.3-3.5l-2.1.2s-1.8 2.7-2.3 3.4c-1.1 1.4-2.6 2.8-3.4 2.8-.2 0-.3-.1-.3-.2 0-.2.1-.5.4-1 .6-1 3.2-5 3.2-5l-2.1.1c-.2.2-.7.8-.9 1.1m-18.3-2.2c-2.1 0-3.2-.8-3.2-2.2 0-1.7 1.8-3 4.9-3 2.2 0 4 .5 5.2 1 0 0 0 .1-.1.1l-1.2 1.7c-.8.7-2.5 2.4-5.6 2.4m2.2 7.9c-.4.3-.6.5-.9.5-.2 0-.3-.1-.3-.3 0-.2.1-.4.4-1 .4-.7 4.2-6.3 5.6-8.4l1.5-2.1c.4.2.9.4 1.3.6-1 1.4-2.5 3.7-3.9 5.8-1.6 2.4-2.8 4.1-3.7 4.9m7.3-7h.8c1.6 0 2 .9 2 1.9 0 2.3-2.2 5.7-5.4 5.7-1.4 0-1.9-.7-1.9-1.6 0-1.8 1.6-3.5 4.1-3.5v-.5c-.7 0-1.9.2-2.7.8 1.3-2 3.3-4.9 4.1-6.1.6.3 1 .7 1.5 1l.3-.4c-.4-.3-.9-.7-1.4-1 .8-1 2-2.3 3.3-2.3.9 0 1.2.6 1.2 1.3 0 1-.9 3-2.7 3.8-.8.4-1.9.4-3.2.4l-.5.7c.1-.2.3-.2.5-.2m61.3.1c.2 0 .3.1.3.3 0 1.2-1.9 2.8-3.5 3 1.3-2.1 2.4-3.3 3.2-3.3m-18.2 0c.2 0 .4.1.4.3 0 1.3-1.9 2.8-3.5 3.1 1-1.7 2.2-3.4 3.1-3.4m-23 4.7c-.9 1.1-1.6 1.4-2 1.4-.3 0-.4-.2-.4-.4 0-.8 1-2.5 1.9-3.6 1-1.2 1.8-1.9 2.6-1.9.5 0 .7.3.7.7 0 .1 0 .2-.1.3-.7 1.1-1.7 2.4-2.7 3.5M70 11.5c0-.6.5-1.3 1.2-1.3.4 0 .8.3.8.9 0 .7-.5 1.3-1.2 1.3-.5 0-.8-.4-.8-.9"/>
    <path fill="none" stroke="#A6A7A8" stroke-width=".126" stroke-miterlimit="10" d="M73.7 15.1c-.1.5-.3 1.4-.4 1.9-.5 2.6-1.2 4-2.5 4-.4 0-.6-.1-.8-.6-.1-.3-.3-.4-.6-.4-.2 0-.5.2-.5.5 0 .6.7 1 1.7 1 2 0 3.5-1.2 4.6-2.3.6-.5 1.1-1 1.7-1.6-.4.7-.7 1.4-.7 2.2 0 .9.6 1.6 1.9 1.6 2.5 0 4.2-2.3 5.2-3.6 1.4-1.8 2.5-3.1 3.1-3.1.2 0 .2.1.2.2 0 .2-.1.4-.2.7-1.2 2.1-3.2 5.2-3.5 5.7l2-.1c.9-1.5 3.4-4.7 4.6-5.8-.3.4-.4.9-.4 1.3 0 .7.5 1.3 1.4 1.3.5 0 .9-.1 1.3-.3l-.2-.4c-.2.1-.5.2-.7.2-.4 0-.6-.3-.6-.7 0-.8.7-1.8 1.5-2 0-.4-.3-.6-.9-.6-.7 0-1.8.6-3.9 3.3.6-1.2 1-1.7 1-2.4 0-.5-.4-.9-1.1-.9-1.4 0-2.2 1.2-4.1 3.5-1.1 1.5-2.5 3-3.9 3-.5 0-.8-.3-.8-.7 0-.5.3-1.2.5-1.6.5 0 1.2-.2 1.8-.5 1.7-.8 2.8-1.9 2.8-2.9 0-.7-.5-1-1.3-1-1 0-2.2.5-3.5 1.7-1.2 1.2-3.3 3.1-4.4 4 .5-.7.6-1.4.6-2.2 0-.8-.1-1.7-.1-2.4v-.4c.4-.1.7-.3.7-.8 0-.3-.2-.6-.6-.6-.6 0-1.1.5-1.2 1.6l.3.2zm-44.1.6c-1.1 1.4-3.4 3.5-5.3 4.7.8-.9 1.6-2.3 1.6-3.7 0-1.7-1.1-2.1-1.7-2.4 0 0 .4-.1.5-.1 1.2-.3 2.2-.9 2.8-1.5.6-.6 1.3-2 1.3-2.9 0-1.1-.7-2.2-2.7-2.2-1.8 0-3.2.8-4.6 2.7-.4-.2-.9-.4-1.3-.6.5-.6.9-1.2 1.1-1.5l-2.4.1c-.2.2-.3.4-.5.6-1.4-.5-3.3-1.1-5.6-1.1-3.5 0-5.7 1.4-5.7 3.5 0 1.6 1.4 2.7 4.1 2.7 1.9 0 3.3-.6 4.4-1.2-1.7 2.4-3.9 5.6-4.7 7-.4.6-.7 1.2-.7 1.7 0 .8.8 1.3 1.8 1.3 1.1 0 2.1-.8 3.2-2.3l.4-.5s-.1.3-.1.6c0 1.2.8 2.3 3.1 2.3 3.3 0 6.6-2.1 9.1-4.5l.6-.6c-.9 1.3-1.3 2.2-1.3 2.7 0 .7.5 1.1 1.2 1.1 1.2 0 2.4-.9 3.4-1.9l.5-.5c-.3.6-.5 1-.5 1.4 0 .6.3 1 1.1 1 1.4 0 2.8-1.3 3.9-2.5-.2.4-.3.9-.3 1.3 0 .8.5 1.2 1.3 1.2 1.1 0 2.2-.6 3.4-2 .2-.2.4-.5.6-.7-.2.5-.5 1-.5 1.6 0 .7.4 1.1 1.2 1.1 1.8 0 3.3-1.9 4.3-3-.5.8-.8 1.3-.8 1.9 0 .8.5 1.1 1.2 1.1.8 0 1.5-.4 2.2-.8.5-.4 1.2-1 1.9-1.9-.3.5-.5 1.1-.5 1.6 0 .7.5 1.2 1.4 1.2.8 0 1.6-.3 2.7-1.3 1-.8 1.7-1.8 2.3-2.8.3.5.7.7 1.2.9-.2.5-.4 1-.4 1.5 0 1 .6 1.6 2 1.6 2.3 0 4.1-1.9 5.3-3.2-.6 1-.8 1.6-.8 2.1 0 .7.5 1.1 1.4 1.1 1.5 0 2.9-1.4 4.3-2.9.5-.5 1.6-1.6 3.3-3.4l.2-.9c-.6.7-1.7 1.8-2.7 2.9-2.1 2.2-3.6 3.5-4.4 3.5-.2 0-.3-.1-.3-.4 0-.4.6-1.5 1.2-2.4 0 0 .5-.9 2.2-3.5l-2 .1c-.2.2-.7 1-.8 1.1-1.4 1.8-4 5.1-6.1 5.1-.7 0-.9-.3-.9-.8s.2-1 .4-1.5c.5-.1 1.1-.2 1.5-.4 1.9-.7 3.2-2 3.2-3 0-.7-.4-1-1.3-1-1.2 0-3 .7-4.6 3.1-.1.2-.3.5-.5.8-.5-.1-.9-.4-1.2-.9.7-1.2 1.2-2.3 1.2-2.7 0-.2-.2-.4-.5-.4-.4 0-.6.2-.8.4-.3.4-.5 1.3-.5 2.2-.5 1.4-2.6 4-3.9 4-.2 0-.4-.1-.4-.3 0-.4.5-1.4 1.5-3 .1-.2 1.3-2.1 1.8-3l-2 .1c-.5.7-.9 1.4-1.4 2.1-2.1 3-3.5 4.1-4.3 4.1-.3 0-.3-.1-.3-.3 0-.2.1-.4.3-.8.6-1.2 2.2-3.5 3.3-5.2l-2 .1c-.2.3-.9 1.3-1.2 1.6-2.8 3.6-4.2 4.6-4.9 4.6-.2 0-.3-.1-.3-.4 0-.4.4-1.2.7-1.7.6-1 1.4-2.4 2.8-4.8.6-1 2.5-4 3.1-5.1l-2.1.1s-.3.4-3.7 6.1c-.3-.5-.7-.8-1.5-.8-1.7 0-3.3 1.1-4.5 2.8l.2.2c-2 2.6-3.3 3.5-3.9 3.5-.3 0-.4-.2-.2-.6.1-.4.6-1.2 1.1-2.1 0 0 .6-.9 2.3-3.5l-2.1.2s-1.8 2.7-2.3 3.4c-1.1 1.4-2.6 2.8-3.4 2.8-.2 0-.3-.1-.3-.2 0-.2.1-.5.4-1 .6-1 3.2-5 3.2-5l-2.1.1c-.2.2-.7.8-.9 1.1zm-18.3-2.2c-2.1 0-3.2-.8-3.2-2.2 0-1.7 1.8-3 4.9-3 2.2 0 4 .5 5.2 1 0 0 0 .1-.1.1l-1.2 1.7c-.8.7-2.5 2.4-5.6 2.4zm2.2 7.9c-.4.3-.6.5-.9.5-.2 0-.3-.1-.3-.3 0-.2.1-.4.4-1 .4-.7 4.2-6.3 5.6-8.4l1.5-2.1c.4.2.9.4 1.3.6-1 1.4-2.5 3.7-3.9 5.8-1.6 2.4-2.8 4.1-3.7 4.9zm7.3-7h.8c1.6 0 2 .9 2 1.9 0 2.3-2.2 5.7-5.4 5.7-1.4 0-1.9-.7-1.9-1.6 0-1.8 1.6-3.5 4.1-3.5v-.5c-.7 0-1.9.2-2.7.8 1.3-2 3.3-4.9 4.1-6.1.6.3 1 .7 1.5 1l.3-.4c-.4-.3-.9-.7-1.4-1 .8-1 2-2.3 3.3-2.3.9 0 1.2.6 1.2 1.3 0 1-.9 3-2.7 3.8-.8.4-1.9.4-3.2.4l-.5.7c.1-.2.3-.2.5-.2zm61.3.1c.2 0 .3.1.3.3 0 1.2-1.9 2.8-3.5 3 1.3-2.1 2.4-3.3 3.2-3.3zm-18.2 0c.2 0 .4.1.4.3 0 1.3-1.9 2.8-3.5 3.1 1-1.7 2.2-3.4 3.1-3.4zm-23 4.7c-.9 1.1-1.6 1.4-2 1.4-.3 0-.4-.2-.4-.4 0-.8 1-2.5 1.9-3.6 1-1.2 1.8-1.9 2.6-1.9.5 0 .7.3.7.7 0 .1 0 .2-.1.3-.7 1.1-1.7 2.4-2.7 3.5zM70 11.5c0-.6.5-1.3 1.2-1.3.4 0 .8.3.8.9 0 .7-.5 1.3-1.2 1.3-.5 0-.8-.4-.8-.9z"/>
    <path fill="#FFF" d="M73.7 15.1c-.1.5-.3 1.4-.4 1.9-.5 2.6-1.2 4-2.5 4-.4 0-.6-.1-.8-.6-.1-.3-.3-.4-.6-.4-.2 0-.5.2-.5.5 0 .6.7 1 1.7 1 2 0 3.5-1.2 4.6-2.3.6-.5 1.1-1 1.7-1.6-.4.7-.7 1.4-.7 2.2 0 .9.6 1.6 1.9 1.6 2.5 0 4.2-2.3 5.2-3.6 1.4-1.8 2.5-3.1 3.1-3.1.2 0 .2.1.2.2 0 .2-.1.4-.2.7-1.2 2.1-3.2 5.2-3.5 5.7l2-.1c.9-1.5 3.4-4.7 4.6-5.8-.3.4-.4.9-.4 1.3 0 .7.5 1.3 1.4 1.3.5 0 .9-.1 1.3-.3l-.2-.4c-.2.1-.5.2-.7.2-.4 0-.6-.3-.6-.7 0-.8.7-1.8 1.5-2 0-.4-.3-.6-.9-.6-.7 0-1.8.6-3.9 3.3.6-1.2 1-1.7 1-2.4 0-.5-.4-.9-1.1-.9-1.4 0-2.2 1.2-4.1 3.5-1.1 1.5-2.5 3-3.9 3-.5 0-.8-.3-.8-.7 0-.5.3-1.2.5-1.6.5 0 1.2-.2 1.8-.5 1.7-.8 2.8-1.9 2.8-2.9 0-.7-.5-1-1.3-1-1 0-2.2.5-3.5 1.7-1.2 1.2-3.3 3.1-4.4 4 .5-.7.6-1.4.6-2.2 0-.8-.1-1.7-.1-2.4v-.4c.4-.1.7-.3.7-.8 0-.3-.2-.6-.6-.6-.6 0-1.1.5-1.2 1.6m-43.8.8c-1.1 1.4-3.4 3.5-5.3 4.7.8-.9 1.6-2.3 1.6-3.7 0-1.7-1.1-2.1-1.7-2.4 0 0 .4-.1.5-.1 1.2-.3 2.2-.9 2.8-1.5.6-.6 1.3-2 1.3-2.9 0-1.1-.7-2.2-2.7-2.2-1.8 0-3.2.8-4.6 2.7-.4-.2-.9-.4-1.3-.6.5-.6.9-1.2 1.1-1.5l-2.4.1c-.2.2-.3.4-.5.6-1.4-.5-3.3-1.1-5.6-1.1-3.5 0-5.7 1.4-5.7 3.5 0 1.6 1.4 2.7 4.1 2.7 1.9 0 3.3-.6 4.4-1.2-1.7 2.4-3.9 5.6-4.7 7-.4.6-.7 1.2-.7 1.7 0 .8.8 1.3 1.8 1.3 1.1 0 2.1-.8 3.2-2.3l.4-.5s-.1.3-.1.6c0 1.2.8 2.3 3.1 2.3 3.3 0 6.6-2.1 9.1-4.5l.6-.6c-.9 1.3-1.3 2.2-1.3 2.7 0 .7.5 1.1 1.2 1.1 1.2 0 2.4-.9 3.4-1.9l.5-.5c-.3.6-.5 1-.5 1.4 0 .6.3 1 1.2 1 1.4 0 2.8-1.3 3.9-2.5-.2.4-.3.9-.3 1.3 0 .8.5 1.2 1.3 1.2 1.1 0 2.2-.6 3.4-2 .2-.2.4-.5.6-.7-.2.5-.5 1-.5 1.6 0 .7.4 1.1 1.2 1.1 1.8 0 3.3-1.9 4.3-3-.5.8-.8 1.3-.8 1.9 0 .8.5 1.1 1.2 1.1.8 0 1.5-.4 2.2-.8.5-.4 1.2-1 1.9-1.9-.3.5-.5 1.1-.5 1.6 0 .7.5 1.2 1.4 1.2.8 0 1.6-.3 2.7-1.3 1-.8 1.7-1.8 2.3-2.8.3.5.7.7 1.2.9-.2.5-.4 1-.4 1.5 0 1 .6 1.6 2 1.6 2.3 0 4.1-1.9 5.3-3.2-.6 1-.8 1.6-.8 2.1 0 .7.5 1.1 1.4 1.1 1.5 0 2.9-1.4 4.3-2.9.5-.5 1.6-1.6 3.3-3.4l.2-.9c-.6.7-1.7 1.8-2.7 2.9-2.1 2.2-3.6 3.5-4.4 3.5-.2 0-.3-.1-.3-.4 0-.4.6-1.5 1.2-2.4 0 0 .5-.9 2.2-3.5l-2 .1c-.2.2-.7 1-.8 1.1-1.4 1.8-4 5.1-6.1 5.1-.7 0-.9-.3-.9-.8s.2-1 .4-1.5c.5-.1 1.1-.2 1.5-.4 1.9-.7 3.2-2 3.2-3 0-.7-.4-1-1.3-1-1.2 0-3 .7-4.6 3.1-.1.2-.3.5-.5.8-.5-.1-.9-.4-1.2-.9.7-1.2 1.2-2.3 1.2-2.7 0-.2-.2-.4-.5-.4-.4 0-.6.2-.8.4-.3.4-.5 1.3-.5 2.2-.5 1.4-2.6 4-3.9 4-.2 0-.4-.1-.4-.3 0-.4.5-1.4 1.5-3 .1-.2 1.3-2.1 1.8-3l-2 .1c-.5.7-.9 1.4-1.4 2.1-2.1 3-3.5 4.1-4.3 4.1-.3 0-.3-.1-.3-.3 0-.2.1-.4.3-.8.6-1.2 2.2-3.5 3.3-5.2l-2 .1c-.2.3-.9 1.3-1.2 1.6-2.8 3.6-4.2 4.6-4.9 4.6-.2 0-.3-.1-.3-.4 0-.4.4-1.2.7-1.7.6-1 1.4-2.4 2.8-4.8.6-1 2.5-4 3.1-5.1l-2.1.1s-.3.4-3.7 6.1c-.3-.5-.7-.8-1.5-.8-1.7 0-3.3 1.1-4.5 2.8l.1.2c-2 2.6-3.3 3.5-3.9 3.5-.3 0-.4-.2-.2-.6.1-.4.6-1.2 1.1-2.1 0 0 .6-.9 2.3-3.5l-2.1.2s-1.8 2.7-2.3 3.4c-1.1 1.4-2.6 2.8-3.4 2.8-.2 0-.3-.1-.3-.2 0-.2.1-.5.4-1 .6-1 3.2-5 3.2-5l-2.1.1c-.2.2-.7.8-.9 1.1m-18.3-2.2c-2.1 0-3.2-.8-3.2-2.2 0-1.7 1.8-3 4.9-3 2.2 0 4 .5 5.2 1 0 0 0 .1-.1.1l-1.2 1.7c-.8.7-2.5 2.4-5.6 2.4m2.2 7.9c-.4.3-.6.5-.9.5-.2 0-.3-.1-.3-.3 0-.2.1-.4.4-1 .4-.7 4.2-6.3 5.6-8.4l1.5-2.1c.4.2.9.4 1.3.6-1 1.4-2.5 3.7-3.9 5.8-1.6 2.4-2.8 4.1-3.7 4.9m7.3-7h.8c1.6 0 2 .9 2 1.9 0 2.3-2.2 5.7-5.4 5.7-1.4 0-1.9-.7-1.9-1.6 0-1.8 1.6-3.5 4.1-3.5v-.5c-.7 0-1.9.2-2.7.8 1.3-2 3.3-4.9 4.1-6.1.6.3 1 .7 1.5 1l.3-.4c-.4-.3-.9-.7-1.4-1 .8-1 2-2.3 3.3-2.3.9 0 1.2.6 1.2 1.3 0 1-.9 3-2.7 3.8-.8.4-1.9.4-3.2.4l-.5.7c.1-.2.3-.2.5-.2m61.3.1c.2 0 .3.1.3.3 0 1.2-1.9 2.8-3.5 3 1.3-2.1 2.4-3.3 3.2-3.3m-18.2 0c.2 0 .4.1.4.3 0 1.3-1.9 2.8-3.5 3.1 1-1.7 2.2-3.4 3.1-3.4m-23 4.7c-.9 1.1-1.6 1.4-2 1.4-.3 0-.4-.2-.4-.4 0-.8 1-2.5 1.9-3.6 1-1.2 1.8-1.9 2.6-1.9.5 0 .7.3.7.7 0 .1 0 .2-.1.3-.7 1.1-1.7 2.4-2.7 3.5M70 11.5c0-.6.5-1.3 1.2-1.3.4 0 .8.3.8.9 0 .7-.5 1.3-1.2 1.3-.5 0-.8-.4-.8-.9"/>
    <path fill="#D3D1CF" d="M34 20.6c-.4.1-.5-.1-.4-.6.1-.4.6-1.2 1.1-2.1 0 0 .6-.9 2.3-3.5l-1.3.8c-.8 1.2-1.6 2.3-2.1 3.2-.6 1-.7 1.5-.7 1.8 0 .4.3.5.4.5.4 0 .5-.1.7-.1M66.9 20.6c-.3 0-.4-.2-.4-.3 0-.4.4-1.2 1.2-2.4 0 0 .5-.9 2.2-3.6l-1.1.7c-.8 1.2-1.5 2.4-2.1 3.3-.6 1.1-.7 1.5-.7 1.8 0 .4.2.6.5.6.1 0 .2 0 .4-.1M53.3 20.6h-.2c-.3 0-.4-.2-.4-.4 0-.5.6-1.6 1.1-2.3.2-.3.6-1 2.2-3.6l-1.2.7c-.8 1.2-1.5 2.3-2 3.2-.6 1.1-.7 1.5-.7 1.9 0 .4.2.6.5.6s.5-.1.7-.1M43.8 20.6h-.2c-.3 0-.3-.2-.3-.3 0-.6.6-1.7 1.9-3.8.2-.3 3.1-5.2 4.7-7.8l-1.2.7c-.8 1.3-4.8 7.9-5.3 8.8-.6 1.1-.7 1.5-.7 1.9 0 .4.2.6.5.6.2 0 .4-.1.6-.1M12.9 21.8h-.2c-.2 0-.3-.1-.3-.2 0-.5.5-1.2 2.8-4.6.2-.4 3.9-5.9 6.1-8.9l-1.4.8c-1 1.4-6.3 9.1-7 10.2-.8 1.3-1.1 2-1.1 2.3 0 .3.2.5.5.5.2 0 .4 0 .6-.1M31.3 15.1c-.4.6-1.7 2.6-2.5 3.9-.3.5-.5.9-.5 1.2 0 .3.1.5.4.5.3 0 .5-.1.5-.1-.3 0-.4-.1-.4-.3 0-.2.1-.4.5-1.1.4-.7 1.4-2.2 3.2-4.9M50.3 15.1c-.4.6-1.7 2.5-2.4 3.8-.3.5-.5 1-.5 1.2 0 .4.2.5.5.5s.5-.1.5-.1h-.1c-.3 0-.3-.1-.3-.3 0-.2 0-.4.6-1.4.5-.8 1.4-2.2 3-4.6M26.9 8c1 0 1.9.6 1.9 1.8 0 .9-.7 2.3-1.3 2.9-.6.7-1.6 1.2-2.8 1.5-.1 0-.5.1-.5.1.6.3 1.7.8 1.7 2.4 0 1.4-.8 2.7-1.6 3.7-.6.4-1.4.8-2.1 1.1.5-.3 1.3-1.1 1.5-1.4.7-.9 1.4-2.1 1.4-3.4 0-1.7-1.3-2.2-1.9-2.4 0 0 .4-.1.5-.1 1.2-.2 2.3-.8 3-1.5.6-.6 1.3-2 1.3-2.9 0-.8-.3-1.6-1.1-1.8M39 20.5c-.1 0-.4.1-.6.1-.4 0-.5-.3-.5-.6 0-.8.8-2.3 1.7-3.5 1-1.2 1.8-2 2.8-2 .3 0 .6.1.8.2h-.3c-.8 0-1.7.7-2.6 1.9-.9 1.2-1.9 2.9-1.9 3.6 0 .2.1.4.4.4.2 0 .2 0 .2-.1M63.6 14.4c-1.2 0-2.5 1.6-3.4 3.4-.5.9-.7 1.5-.7 2s.3.9.8.9c.4 0 .6 0 .8-.1h-.2c-.7 0-.9-.3-.9-.8s.2-1 .4-1.5l.3-.5c.9-1.7 2.2-3.4 3.1-3.4h.1c0 .1-.1 0-.3 0M81.8 14.4c-1 0-2.5 1.6-3.4 3.4-.5.9-.7 1.5-.7 2s.3.9.8.9c.4 0 .6 0 .8-.1H79c-.6 0-.8-.4-.8-.7 0-.5.2-1.1.5-1.6l.3-.5c1-1.8 2.2-3.4 3.1-3.4h.1c-.1.1-.2 0-.4 0M71.9 10.5c.1.1.2.3.2.5 0 .7-.5 1.3-1.2 1.3-.2 0-.4-.1-.6-.2 0 0 .3 0 .5-.3s.2-.6.2-.6M74.3 19.6c.5-.7.6-1.4.6-2.2 0-.8-.1-1.7-.1-2.4v-.4c.4-.1.7-.3.7-.8 0-.2-.1-.3-.2-.5 0 .5-.2.7-.6.8-.7 1 0 4.8-1.4 6 .4 0 .6-.2 1-.5M87 14.4c.6-.1 1.1.1 1.1.7 0 .7-.3 1.2-1 2.4l-.9 1L85 20c.9-1.4 1.5-2.4 2.1-3.5.3-.6.5-1.2.5-1.5.1-.4-.2-.6-.6-.6M91.2 17.4c-.1 0-.2.1-.4.1-.5 0-.7-.3-.7-.8 0-.8.4-1.6 1.3-2.1 0-.1-.3-.2-.6-.2.1 0 .3-.1.4-.1.4 0 .8.2.8.4-.8.2-1.5 1.2-1.5 2 0 .3.1.7.6.7h.1"/>
  </g>
</svg>
