<svg xmlns="http://www.w3.org/2000/svg" xmlns:xlink="http://www.w3.org/1999/xlink" viewBox="0 0 76.2 37">
  <defs>
    <path id="a" d="M0 2.7h76.2V37H0z"/>
  </defs>
  <clipPath id="b">
    <use xlink:href="#a" overflow="visible"/>
  </clipPath>
  <g clip-path="url(#b)">
    <path fill="#FFF" d="M69.1 26.2C89 20.5 102.5 6.1 102.5-6.4v-16.9C102.5-10.8 89 .1 69.2 5.8c-.3.1-.5.4-.5.7v13.4l.4 6.3z"/>
    <path fill="#003D7A" d="M69.1 25.3C89 19.6 102.5 5.2 102.5-7.4v-15.1C102.5-9.9 89 1 69.1 6.7c-.3.1-.5.4-.5.7v13.4l.5 4.5z"/>
    <linearGradient id="c" x1="68.77" x2="78.401" y1="-747.702" y2="-747.702" gradientUnits="userSpaceOnUse" gradientTransform="matrix(1 0 0 -1 0 -746.282)">
      <stop offset="0" stop-color="#717175"/>
      <stop offset=".155" stop-color="#78787C"/>
      <stop offset=".386" stop-color="#8D8B90"/>
      <stop offset=".507" stop-color="#9A989D"/>
      <stop offset=".508" stop-color="#9A989D"/>
      <stop offset=".608" stop-color="#BEBDC0"/>
      <stop offset=".708" stop-color="#DBDADC"/>
      <stop offset=".807" stop-color="#EFEFEF"/>
      <stop offset=".905" stop-color="#FBFBFB"/>
      <stop offset="1" stop-color="#FFF"/>
    </linearGradient>
    <path fill="url(#c)" d="M69.1 26.2c19.9-5.7 33.4-17.9 33.4-34v-15.6C102.5-10.9 89 0 69.2 5.7c-.3.1-.5.4-.5.7v13.4l.4 6.4z"/>
    <path fill="#003D7A" d="M72.2 8c-1.2.4-2.4.7-3.6 1.1V6.5c0 .4.3.8.8.8h.2c.5-.2 1.5-.5 2.1-.7h.2c.4 0 .8.3.8.8-.1.2-.3.5-.5.6z"/>
    <linearGradient id="d" x1="68.592" x2="72.624" y1="-754.09" y2="-754.09" gradientUnits="userSpaceOnUse" gradientTransform="matrix(1 0 0 -1 0 -746.282)">
      <stop offset="0" stop-color="#FFF"/>
      <stop offset=".156" stop-color="#ECECEC"/>
      <stop offset=".474" stop-color="#BABABB"/>
      <stop offset=".921" stop-color="#6A6A6E"/>
      <stop offset="1" stop-color="#5B5B5F"/>
    </linearGradient>
    <path fill="url(#d)" d="M72.2 8c-1.2.4-2.4.7-3.6 1.1V6.5c0 .4.3.8.8.8h.2c.5-.2 1.5-.5 2.1-.7h.2c.4 0 .8.3.8.8-.1.2-.3.5-.5.6z"/>
    <path fill="#FFF" d="M7 26.2C-12.9 20.5-26.3 6.1-26.3-6.4v-16.9C-26.3-10.8-12.9.1 7 5.8c.3.1.5.4.5.7v13.4L7 26.2z"/>
    <path fill="#003D7A" d="M7 25.3C-12.9 19.6-26.3 5.2-26.3-7.4v-15.1C-26.3-9.9-12.9 1 7 6.7c.3.1.5.4.5.7v13.4L7 25.3z"/>
    <linearGradient id="e" x1="1578.049" x2="1587.682" y1="-747.702" y2="-747.702" gradientUnits="userSpaceOnUse" gradientTransform="rotate(180 792.697 -373.14)">
      <stop offset="0" stop-color="#717175"/>
      <stop offset=".155" stop-color="#78787C"/>
      <stop offset=".386" stop-color="#8D8B90"/>
      <stop offset=".507" stop-color="#9A989D"/>
      <stop offset=".508" stop-color="#9A989D"/>
      <stop offset=".608" stop-color="#BEBDC0"/>
      <stop offset=".708" stop-color="#DBDADC"/>
      <stop offset=".807" stop-color="#EFEFEF"/>
      <stop offset=".905" stop-color="#FBFBFB"/>
      <stop offset="1" stop-color="#FFF"/>
    </linearGradient>
    <path fill="url(#e)" d="M7 26.2C-12.9 20.5-26.3 6.1-26.3-6.4v-16.9C-26.3-10.8-12.9.1 7 5.8c.3.1.5.4.5.7v13.4L7 26.2z"/>
    <path fill="#003D7A" d="M3.9 8c1.2.4 2.4.7 3.6 1.1V6.5c0 .4-.3.8-.8.8h-.2c-.5-.2-1.5-.5-2-.7h-.2c-.4 0-.8.3-.8.8 0 .2.2.5.4.6z"/>
    <linearGradient id="f" x1="1577.871" x2="1581.906" y1="-754.09" y2="-754.09" gradientUnits="userSpaceOnUse" gradientTransform="rotate(180 792.697 -373.14)">
      <stop offset="0" stop-color="#FFF"/>
      <stop offset=".156" stop-color="#ECECEC"/>
      <stop offset=".474" stop-color="#BABABB"/>
      <stop offset=".921" stop-color="#6A6A6E"/>
      <stop offset="1" stop-color="#5B5B5F"/>
    </linearGradient>
    <path fill="url(#f)" d="M3.9 8c1.2.4 2.4.7 3.6 1.1V6.5c0 .4-.3.8-.8.8h-.2c-.5-.2-1.5-.5-2-.7h-.2c-.4 0-.8.3-.8.8 0 .2.2.5.4.6z"/>
    <path fill="#FFF" d="M72.2 28.5c-9.9 3.2-21.6 5-34.1 5s-24.2-1.8-34.1-5c-.3-.1-.5-.4-.5-.7V7.3c0 .3.2.6.5.7 9.9 3.2 21.6 5 34.1 5s24.2-1.8 34.1-5c.3-.1.5-.4.5-.7v20.4c-.1.4-.3.6-.5.8z"/>
    <path fill="#003D7A" d="M72.2 27.6c-9.9 3.2-21.6 5-34.1 5s-24.2-1.8-34.1-5c-.3-.1-.5-.4-.5-.7V8.3c0 .3.2.6.5.7 9.9 3.2 21.6 5 34.1 5s24.2-1.8 34.1-5c.3-.1.4-.4.4-.7v18.6c0 .3-.2.5-.4.7z"/>
    <linearGradient id="g" x1="3.489" x2="72.624" y1="-766.701" y2="-766.701" gradientUnits="userSpaceOnUse" gradientTransform="matrix(1 0 0 -1 0 -746.282)">
      <stop offset="0" stop-color="#ADACB2"/>
      <stop offset=".03" stop-color="#B5B4BA"/>
      <stop offset=".19" stop-color="#DDDDDF"/>
      <stop offset=".316" stop-color="#F6F6F6"/>
      <stop offset=".393" stop-color="#FFF"/>
      <stop offset=".59" stop-color="#FFF"/>
      <stop offset=".601" stop-color="#FFF"/>
      <stop offset="1" stop-color="#ADACB2"/>
    </linearGradient>
    <path fill="url(#g)" d="M72.2 28.5c-9.9 3.2-21.6 5-34.1 5s-24.2-1.8-34.1-5c-.3-.1-.5-.4-.5-.7V7.3c0 .3.2.6.5.7 9.9 3.2 21.6 5 34.1 5s24.2-1.8 34.1-5c.3-.1.5-.4.5-.7v20.4c-.1.4-.3.6-.5.8z"/>
  </g>
  <path fill="#003D7A" d="M43.7 1l-.2-.1C42.4.4 40.4 0 38 0c-2.3 0-4.3.3-5.4.9l-.2.1.1.1s.5 1.2.4 2.4c0 .2-.1.5-.1.8-.3 1.8-1 5.7 2.1 6.8.7.2 2.8.7 3 1.4 0 .1.1.2.2.2s.2-.1.2-.2c.2-.6 1.9-1.2 3-1.4 3.1-1.2 2.4-5 2.1-6.9-.1-.3-.1-.6-.1-.8-.1-1.2.4-2.4.4-2.4z"/>
  <g fill="#89764B">
    <path d="M39.9 2.9c-.1 0-.2 0-.3-.1h-.2c-.1 0-.2 0-.2-.1s0-.2.1-.4c0-.1 0-.2.1-.3 0-.1.1-.1.3-.1.1-.1.2-.3.5-.3s.4.1.5.2c.1 0 .1-.1.2-.1s.2 0 .3.2h.2c.2 0 .2.1.3.1.1.1.1.2.1.4l-.2.3h-1.1c-.3.1-.4.2-.6.2zm-.3-.3c.1.1.2.2.3.2.2 0 .3-.2.3-.2h1.1l.1-.2v-.2l-.1-.1H41V2c0-.2-.1-.2-.2-.2s-.2.1-.2.1l-.1.1v-.1s-.1-.2-.3-.2c-.3 0-.3.3-.3.3v.1H39.6v.2l-.1.2c-.1.1 0 .1.1.1z"/>
    <path d="M40.4 5.6c-.6 0-1-.1-1-.1h-.1l.1-.1c0-.1.1-.4.2-.7.1-.9 0-1.9 0-1.9h.2s.1 1.1 0 2c0 .1-.1.5-.1.7.1 0 .4.1.9.1.4 0 .8 0 1-.1-.1-.1-.2-.4-.2-.7V2.9h.2v1.9c0 .4.2.7.2.7l.1.1h-.1c-.3-.1-.8 0-1.4 0z"/>
    <path d="M40 4.6h-.2V3.4c0-.1 0-.2.1-.2.1-.1.2 0 .2 0v.2-.1.1H40V4.6zM40.1 4.7V3.4c0-.1 0-.2.1-.3h.2l-.1.1v-.1 1.5l-.2.1zM40.4 4.7V3.3s0-.2.1-.2h.2l-.1.1v1.5h-.2z"/>
    <path d="M40.7 4.7s-.1-1.2-.1-1.4c0-.1 0-.2.1-.2.1-.1.2 0 .2 0l-.1.1v-.1.1h-.1v1.5zM41 4.6V3.2v-.1c.1 0 .1 0 .2.1l-.1.1v1.4l-.1-.1zM41.3 4.7v-.2c.3 0 .3-.2.3-.2V3.1c0-.1-.2-.1-.2-.1v-.2c.1 0 .3 0 .4.2.1.2 0 1.1 0 1.3 0 .2-.1.4-.5.4zM40.5 5h-.9v-.2s.7.1 1.7 0V5h-.8z"/>
  </g>
  <g fill="#89764B">
    <path d="M36.9 2.4h-2.5v-.6h.6V2h.3v-.2h.7V2h.2v-.2h.7v.6zm-2.4-.1h2.2V2h-.3v.2h-.6V2h-.4v.2h-.6V2h-.3v.3zM34.4 2.6h2.4l-.1.1h-2.1M34.1 5.6v-.1s.4-1.5.4-2.6v-.1h2.1v.1s.1 1.9.4 2.6l.1.1H37s-.6-.1-.8-.1h-.1v-.1s-.1-.7-.5-.7-.5.7-.5.7v.1H35s-.6.1-.8.1h-.1zm.6-2.7c0 .9-.3 2.1-.4 2.4.2 0 .5-.1.7-.1 0-.2.2-.8.7-.8.5 0 .6.6.7.8h.6c-.3-.7-.4-2.1-.4-2.4h-1.9z"/>
    <path d="M35.4 3.2h.4v.7h-.4z"/>
  </g>
  <defs>
    <path id="h" d="M32.8 6.9c-.1 2.1.6 3.4 2.1 4 .4.1 2.4.5 3.1 1.3l.1.1.1-.1c.7-.8 2.7-1.2 3.1-1.3 1.5-.6 2.2-1.9 2.1-4H32.8z"/>
  </defs>
  <clipPath id="i">
    <use xlink:href="#h" overflow="visible"/>
  </clipPath>
  <g fill="#89764B" fill-rule="evenodd" clip-path="url(#i)" clip-rule="evenodd">
    <path d="M36 7.5l1.1 1.6-1.1 1.6-1-1.6M33.9 7.5L35 9.1l-1 1.6-1.1-1.6M38.1 7.5l1 1.6-1 1.6-1-1.6M40.1 7.4l1.1 1.7-1 1.6-1.1-1.6M36 10.7l1.1 1.6-1 1.6-1.1-1.6"/>
    <path d="M38.1 10.6l1.1 1.6-1.1 1.7-1-1.6M40.2 10.7l1 1.6-1 1.6-1-1.6M42.1 7.5l1.1 1.6-1 1.6-1.1-1.6M36 4.2l1 1.6-1 1.7-1-1.6M33.9 4.2L35 5.8l-1.1 1.7-1-1.6M38 4.2l1.1 1.6-1 1.7L37 5.9M40.1 4.2l1 1.6-1 1.7-1-1.7"/>
    <path d="M42.1 4.2l1.1 1.6-1.1 1.7-1-1.6"/>
  </g>
  <path fill="#89764B" d="M43.7 1l-.2-.1C42.4.4 40.4 0 38 0c-2.3 0-4.3.3-5.4.9l-.2.1.1.1s.5 1.2.4 2.4c0 .2-.1.5-.1.8-.3 1.8-1 5.7 2.1 6.8.7.2 2.8.7 3 1.4 0 .1.1.2.2.2s.2-.1.2-.2c.2-.6 1.9-1.2 3-1.4 3.1-1.2 2.4-5 2.1-6.9-.1-.3-.1-.6-.1-.8-.1-1.2.4-2.4.4-2.4zM32.8 6.5c.1-.7.2-1.4.3-2 .1-.3.1-.6.1-.8.1-1.1-.2-2-.4-2.4v-.1h.1c1.1-.5 2.9-.8 5-.8h.1v6.2l-5.2-.1zm10.5.4c.1 2.1-.6 3.4-2.1 4-.4.1-2.4.5-3.1 1.3l-.1.1v-.1c-.7-.7-2.6-1.2-3-1.3-1.5-.6-2.2-1.9-2.1-4v-.1l10.4.1zm0-5.7c-.1.4-.5 1.3-.4 2.4 0 .2.1.5.1.8.1.6.2 1.2.3 2v.1h-5V.3h.1c2 .1 3.8.4 4.9.9z"/>
  <image width="13" height="14" overflow="visible" opacity=".56" xlink:href="3CAF780124AE5104.png" transform="translate(31.654 -.238)"/>
  <path fill="#FFF" d="M37.6 13.2l.2.1.1.3.4-.4h.2l.1.3.1.9-.3.3-.6-.1h-.3l-.1-.2"/>
  <g>
    <g fill="#89764B">
      <path d="M45.8 5.8v-.4s.2.4.2.6c0 0 .3-.7-.3-1-.1 0-.2.7.1.8zM45.1 5.5c0 .7.3 1.1.6 1.4 0 0-.1-.8-.2-1 .2.3.3.7.4 1 0-.3.1-.6-.1-.9-.2-.3-.6-.6-.7-.5zM45.9 7.8c.2-.4.3-1 .5-1.4-.1.7-.2 1-.4 1.4.4-.3.7-1.1.5-1.8-.7.5-.6 1.7-.6 1.8zM45.4 8.7c.1-.4.1-.8.1-1.2.1.3.1.6 0 .9.1-.3.4-1-.1-1.5v1.8zM45.4 9.1l.9-.9c-.2.6-.7.9-1 1.2.1 0 .7-.2 1.2-.7.2-.3.4-.7.2-1-.5.1-1 .7-1.3 1.4zM44.8 9.7c.1-.3.3-.6.4-.9-.2.4-.3.8-.5 1.2 0 0 .8-.7.6-2 0 .1-.4 1-.5 1.7z"/>
      <path d="M44.2 10.8c.5-.3 1.5-.8 1.6-.8-.4.5-1.1.6-1.5.9.1 0 1.3.7 2.3-1.3-1.3-.5-2.4 1.2-2.4 1.2zM44.7 9.4c-.2.4-1 1.4-1.1 1.6l.5-.5s-.4.6-.7.8c1.1-.4 1.4-2 1.3-1.9zM43.3 11.6c-.1.1-.2.1-.3.2 0 0 1-.3 1.6 0-.6-.1-1.4.1-2 .3 0 0 .5.6 1.3.5.4-.1.8-.3 1.2-.9-.6-.6-1.1-.6-1.8-.1zM42.2 12.4c-.4 0-1.3.3-1.3.3.5 0 1.1-.1 1.5.1-.6.2-1.1 0-1.6.1.1.1.5.5 1.2.5s1.1-.5 1.2-.5c-.2-.4-.5-.5-1-.5z"/>
      <path d="M42.3 11.8c-.4.2-1.3.7-1.5.8.4-.2.5-.2.8-.4-.3.3-.6.4-.8.5.8-.1 1.6-.9 1.5-.9z"/>
      <path d="M43 11.7c.4-.4.7-.8.6-.8-.7.8-.5.3-1.5 1.2.2-.1.6-.4.6-.3 0 0-.6.4-.8.5.4-.1.9-.5 1.1-.6zM39.8 13.1h-.3s.8.2 1.1.8c-.4-.3-.8-.5-1.3-.6-.2.2-.1.4 0 .5.7.7 1.8.3 1.8.2-.2-.6-.6-.9-1.3-.9z"/>
      <path fill-rule="evenodd" d="M40.9 12.3s-.2.8-1.4.7c.7-.1 1.3-.7 1.4-.7z" clip-rule="evenodd"/>
      <g>
        <path d="M30.3 5.8v-.4s-.2.4-.2.6c0 0-.3-.7.3-1 .1 0 .2.7-.1.8zM31 5.5c0 .7-.3 1.1-.6 1.4 0 0 .1-.8.2-1-.2.3-.3.7-.4 1 0-.3-.1-.6.1-.9.2-.3.6-.6.7-.5zM30.2 7.8c-.3-.4-.3-1-.5-1.4.1.7.2 1 .4 1.4-.4-.3-.7-1.1-.5-1.8.7.5.6 1.7.6 1.8zM30.7 8.7c-.1-.4-.1-.8-.1-1.2-.1.3-.1.6 0 .9-.1-.3-.4-1 .1-1.5v1.8zM30.7 9.1l-.9-.9c.2.6.7.9 1 1.2-.1 0-.7-.2-1.2-.7-.2-.3-.4-.7-.2-1 .5.1 1 .7 1.3 1.4zM31.4 9.7c-.1-.3-.3-.6-.4-.9.1.4.2.8.5 1.2 0 0-.7-.7-.6-2-.1.1.3 1 .5 1.7zM31.9 10.8c-.5-.3-1.5-.8-1.6-.8.4.5 1.1.6 1.5.9-.1 0-1.3.7-2.3-1.3 1.4-.5 2.4 1.2 2.4 1.2z"/>
        <path d="M31.4 9.4c.2.4 1 1.4 1.1 1.6l-.5-.5s.4.6.7.8c-1.1-.4-1.4-2-1.3-1.9zM32.9 11.6c.1.1.2.1.3.2 0 0-1-.3-1.6 0 .6-.1 1.4.1 2 .3 0 0-.5.6-1.3.5-.4-.1-.8-.3-1.2-.9.5-.6 1-.6 1.8-.1zM33.9 12.4c.4 0 1.3.3 1.3.3-.5 0-1.1-.1-1.5.1.7.2 1.1 0 1.6.1-.1.1-.5.5-1.2.5s-1.1-.5-1.2-.5c.2-.4.5-.5 1-.5z"/>
        <path d="M33.8 11.8c.4.2 1.4.7 1.5.8-.4-.2-.5-.2-.8-.4.3.3.6.4.8.5-.8-.1-1.6-.9-1.5-.9z"/>
        <path d="M33.1 11.7c-.4-.4-.7-.8-.6-.8.8.8.6.3 1.5 1.2-.2-.1-.6-.4-.6-.3 0 0 .6.4.8.5-.4-.1-.9-.5-1.1-.6zM36.3 13.1h.3s-.8.2-1.1.8c.4-.3.8-.5 1.3-.6.2.2.1.4 0 .5-.7.7-1.8.3-1.8.2.2-.6.6-.9 1.3-.9z"/>
        <path fill-rule="evenodd" d="M35.2 12.3s.3.8 1.4.7c-.7-.1-1.3-.7-1.4-.7z" clip-rule="evenodd"/>
      </g>
    </g>
    <path fill="#89764B" fill-rule="evenodd" d="M38.5 13.1c-.1 0-.3.1-.5.1s-.4-.2-.5-.1c-.3.1-.3.2-.3.2v1.2l.8.5h.2l.7-.5v-1.2c-.1 0 0-.1-.4-.2zm-1 1.4s.2-.2.2-1.2c0 0 .2.4.2.9 0 0 0 .3-.4.3zm.8-.3c0-.5.2-.9.2-.9 0 1 .2 1.2.2 1.2-.5 0-.4-.3-.4-.3z" clip-rule="evenodd"/>
    <g>
      <radialGradient id="j" cx="-402.421" cy="119.418" r="12.644" gradientTransform="matrix(.775 0 0 .775 349.953 -87.433)" gradientUnits="userSpaceOnUse">
        <stop offset=".853" stop-color="#FFF"/>
        <stop offset=".878" stop-color="#F4F4F4"/>
        <stop offset=".924" stop-color="#D7D6D8"/>
        <stop offset=".983" stop-color="#A8A7AB"/>
        <stop offset="1" stop-color="#99989D"/>
      </radialGradient>
      <path fill="url(#j)" d="M45.8 5.8v-.4s.2.4.2.6c0 0 .3-.7-.3-1-.1 0-.2.7.1.8z"/>
      <radialGradient id="k" cx="-402.403" cy="119.415" r="12.623" gradientTransform="matrix(.775 0 0 .775 349.953 -87.433)" gradientUnits="userSpaceOnUse">
        <stop offset=".853" stop-color="#FFF"/>
        <stop offset=".878" stop-color="#F4F4F4"/>
        <stop offset=".924" stop-color="#D7D6D8"/>
        <stop offset=".983" stop-color="#A8A7AB"/>
        <stop offset="1" stop-color="#99989D"/>
      </radialGradient>
      <path fill="url(#k)" d="M45.1 5.5c0 .7.3 1.1.6 1.4 0 0-.1-.8-.2-1 .2.3.3.7.4 1 0-.3.1-.6-.1-.9-.2-.3-.6-.6-.7-.5z"/>
      <radialGradient id="l" cx="-402.357" cy="119.416" r="12.573" gradientTransform="matrix(.775 0 0 .775 349.953 -87.433)" gradientUnits="userSpaceOnUse">
        <stop offset=".853" stop-color="#FFF"/>
        <stop offset=".878" stop-color="#F4F4F4"/>
        <stop offset=".924" stop-color="#D7D6D8"/>
        <stop offset=".983" stop-color="#A8A7AB"/>
        <stop offset="1" stop-color="#99989D"/>
      </radialGradient>
      <path fill="url(#l)" d="M45.9 7.8c.2-.4.3-1 .5-1.4-.1.7-.2 1-.4 1.4.4-.3.7-1.1.5-1.8-.7.5-.6 1.7-.6 1.8z"/>
      <radialGradient id="m" cx="-402.385" cy="119.41" r="12.608" gradientTransform="matrix(.775 0 0 .775 349.953 -87.433)" gradientUnits="userSpaceOnUse">
        <stop offset=".853" stop-color="#FFF"/>
        <stop offset=".878" stop-color="#F4F4F4"/>
        <stop offset=".924" stop-color="#D7D6D8"/>
        <stop offset=".983" stop-color="#A8A7AB"/>
        <stop offset="1" stop-color="#99989D"/>
      </radialGradient>
      <path fill="url(#m)" d="M45.4 8.7c.1-.4.1-.8.1-1.2.1.3.1.6 0 .9.1-.3.4-1-.1-1.5v1.8z"/>
      <radialGradient id="n" cx="-402.381" cy="119.431" r="12.588" gradientTransform="matrix(.775 0 0 .775 349.953 -87.433)" gradientUnits="userSpaceOnUse">
        <stop offset=".853" stop-color="#FFF"/>
        <stop offset=".878" stop-color="#F4F4F4"/>
        <stop offset=".924" stop-color="#D7D6D8"/>
        <stop offset=".983" stop-color="#A8A7AB"/>
        <stop offset="1" stop-color="#99989D"/>
      </radialGradient>
      <path fill="url(#n)" d="M45.4 9.1l.9-.9c-.2.6-.7.9-1 1.2.1 0 .7-.2 1.2-.7.2-.3.4-.7.2-1-.5.1-1 .7-1.3 1.4z"/>
      <radialGradient id="o" cx="-402.382" cy="119.406" r="12.604" gradientTransform="matrix(.775 0 0 .775 349.953 -87.433)" gradientUnits="userSpaceOnUse">
        <stop offset=".853" stop-color="#FFF"/>
        <stop offset=".878" stop-color="#F4F4F4"/>
        <stop offset=".924" stop-color="#D7D6D8"/>
        <stop offset=".983" stop-color="#A8A7AB"/>
        <stop offset="1" stop-color="#99989D"/>
      </radialGradient>
      <path fill="url(#o)" d="M44.8 9.7c.1-.3.3-.6.4-.9-.2.4-.3.8-.5 1.2 0 0 .8-.7.6-2 0 .1-.4 1-.5 1.7z"/>
      <radialGradient id="p" cx="-402.382" cy="119.425" r="12.593" gradientTransform="matrix(.775 0 0 .775 349.953 -87.433)" gradientUnits="userSpaceOnUse">
        <stop offset=".853" stop-color="#FFF"/>
        <stop offset=".878" stop-color="#F4F4F4"/>
        <stop offset=".924" stop-color="#D7D6D8"/>
        <stop offset=".983" stop-color="#A8A7AB"/>
        <stop offset="1" stop-color="#99989D"/>
      </radialGradient>
      <path fill="url(#p)" d="M44.2 10.8c.5-.3 1.5-.8 1.6-.8-.4.5-1.1.6-1.5.9.1 0 1.3.7 2.3-1.3-1.3-.5-2.4 1.2-2.4 1.2z"/>
      <radialGradient id="q" cx="-402.363" cy="119.389" r="12.605" gradientTransform="matrix(.775 0 0 .775 349.953 -87.433)" gradientUnits="userSpaceOnUse">
        <stop offset=".853" stop-color="#FFF"/>
        <stop offset=".878" stop-color="#F4F4F4"/>
        <stop offset=".924" stop-color="#D7D6D8"/>
        <stop offset=".983" stop-color="#A8A7AB"/>
        <stop offset="1" stop-color="#99989D"/>
      </radialGradient>
      <path fill="url(#q)" d="M44.7 9.4c-.2.4-1 1.4-1.1 1.6l.5-.5s-.4.6-.7.8c1.1-.4 1.4-2 1.3-1.9z"/>
      <radialGradient id="r" cx="-402.413" cy="119.406" r="12.63" gradientTransform="matrix(.775 0 0 .775 349.953 -87.433)" gradientUnits="userSpaceOnUse">
        <stop offset=".853" stop-color="#FFF"/>
        <stop offset=".878" stop-color="#F4F4F4"/>
        <stop offset=".924" stop-color="#D7D6D8"/>
        <stop offset=".983" stop-color="#A8A7AB"/>
        <stop offset="1" stop-color="#99989D"/>
      </radialGradient>
      <path fill="url(#r)" d="M43.3 11.6c-.1.1-.2.1-.3.2 0 0 1-.3 1.6 0-.6-.1-1.4.1-2 .3 0 0 .5.6 1.3.5.4-.1.8-.3 1.2-.9-.6-.6-1.1-.6-1.8-.1z"/>
      <radialGradient id="s" cx="-402.392" cy="119.443" r="12.58" gradientTransform="matrix(.775 0 0 .775 349.953 -87.433)" gradientUnits="userSpaceOnUse">
        <stop offset=".853" stop-color="#FFF"/>
        <stop offset=".878" stop-color="#F4F4F4"/>
        <stop offset=".924" stop-color="#D7D6D8"/>
        <stop offset=".983" stop-color="#A8A7AB"/>
        <stop offset="1" stop-color="#99989D"/>
      </radialGradient>
      <path fill="url(#s)" d="M42.2 12.4c-.4 0-1.3.3-1.3.3.5 0 1.1-.1 1.5.1-.6.2-1.1 0-1.6.1.1.1.5.5 1.2.5s1.1-.5 1.2-.5c-.2-.4-.5-.5-1-.5z"/>
      <radialGradient id="t" cx="-402.393" cy="119.43" r="12.586" gradientTransform="matrix(.775 0 0 .775 349.953 -87.433)" gradientUnits="userSpaceOnUse">
        <stop offset=".853" stop-color="#FFF"/>
        <stop offset=".878" stop-color="#F4F4F4"/>
        <stop offset=".924" stop-color="#D7D6D8"/>
        <stop offset=".983" stop-color="#A8A7AB"/>
        <stop offset="1" stop-color="#99989D"/>
      </radialGradient>
      <path fill="url(#t)" d="M42.3 11.8c-.4.2-1.3.7-1.5.8.4-.2.5-.2.8-.4-.3.3-.6.4-.8.5.8-.1 1.6-.9 1.5-.9z"/>
      <radialGradient id="u" cx="-402.373" cy="119.408" r="12.601" gradientTransform="matrix(.775 0 0 .775 349.953 -87.433)" gradientUnits="userSpaceOnUse">
        <stop offset=".853" stop-color="#FFF"/>
        <stop offset=".878" stop-color="#F4F4F4"/>
        <stop offset=".924" stop-color="#D7D6D8"/>
        <stop offset=".983" stop-color="#A8A7AB"/>
        <stop offset="1" stop-color="#99989D"/>
      </radialGradient>
      <path fill="url(#u)" d="M43 11.7c.4-.4.7-.8.6-.8-.7.8-.5.3-1.5 1.2.2-.1.6-.4.6-.3 0 0-.6.4-.8.5.4-.1.9-.5 1.1-.6z"/>
      <radialGradient id="v" cx="-402.385" cy="119.618" r="12.571" gradientTransform="matrix(.775 0 0 .775 349.953 -87.433)" gradientUnits="userSpaceOnUse">
        <stop offset=".853" stop-color="#FFF"/>
        <stop offset=".878" stop-color="#F4F4F4"/>
        <stop offset=".924" stop-color="#D7D6D8"/>
        <stop offset=".983" stop-color="#A8A7AB"/>
        <stop offset="1" stop-color="#99989D"/>
      </radialGradient>
      <path fill="url(#v)" d="M39.8 13.1h-.3s.8.2 1.1.8c-.4-.3-.8-.5-1.3-.6-.2.2-.1.4 0 .5.7.7 1.8.3 1.8.2-.2-.6-.6-.9-1.3-.9z"/>
      <radialGradient id="w" cx="-402.543" cy="119.594" r="12.597" gradientTransform="matrix(.775 0 0 .775 349.953 -87.433)" gradientUnits="userSpaceOnUse">
        <stop offset=".853" stop-color="#FFF"/>
        <stop offset=".878" stop-color="#F4F4F4"/>
        <stop offset=".924" stop-color="#D7D6D8"/>
        <stop offset=".983" stop-color="#A8A7AB"/>
        <stop offset="1" stop-color="#99989D"/>
      </radialGradient>
      <path fill="url(#w)" fill-rule="evenodd" d="M40.9 12.3s-.2.8-1.4.7c.7-.1 1.3-.7 1.4-.7z" clip-rule="evenodd"/>
      <g>
        <radialGradient id="x" cx="-402.349" cy="119.418" r="12.643" gradientTransform="matrix(.775 0 0 .775 349.953 -87.433)" gradientUnits="userSpaceOnUse">
          <stop offset=".853" stop-color="#FFF"/>
          <stop offset=".878" stop-color="#F4F4F4"/>
          <stop offset=".924" stop-color="#D7D6D8"/>
          <stop offset=".983" stop-color="#A8A7AB"/>
          <stop offset="1" stop-color="#99989D"/>
        </radialGradient>
        <path fill="url(#x)" d="M30.3 5.8v-.4s-.2.4-.2.6c0 0-.3-.7.3-1 .1 0 .2.7-.1.8z"/>
        <radialGradient id="y" cx="-402.451" cy="119.415" r="12.52" gradientTransform="matrix(.775 0 0 .775 349.953 -87.433)" gradientUnits="userSpaceOnUse">
          <stop offset=".853" stop-color="#FFF"/>
          <stop offset=".878" stop-color="#F4F4F4"/>
          <stop offset=".924" stop-color="#D7D6D8"/>
          <stop offset=".983" stop-color="#A8A7AB"/>
          <stop offset="1" stop-color="#99989D"/>
        </radialGradient>
        <path fill="url(#y)" d="M31 5.5c0 .7-.3 1.1-.6 1.4 0 0 .1-.8.2-1-.2.3-.3.7-.4 1 0-.3-.1-.6.1-.9.2-.3.6-.6.7-.5z"/>
        <radialGradient id="z" cx="-402.405" cy="119.416" r="12.576" gradientTransform="matrix(.775 0 0 .775 349.953 -87.433)" gradientUnits="userSpaceOnUse">
          <stop offset=".853" stop-color="#FFF"/>
          <stop offset=".878" stop-color="#F4F4F4"/>
          <stop offset=".924" stop-color="#D7D6D8"/>
          <stop offset=".983" stop-color="#A8A7AB"/>
          <stop offset="1" stop-color="#99989D"/>
        </radialGradient>
        <path fill="url(#z)" d="M30.2 7.8c-.3-.4-.3-1-.5-1.4.1.7.2 1 .4 1.4-.4-.3-.7-1.1-.5-1.8.7.5.6 1.7.6 1.8z"/>
        <radialGradient id="A" cx="-402.31" cy="119.41" r="12.682" gradientTransform="matrix(.775 0 0 .775 349.953 -87.433)" gradientUnits="userSpaceOnUse">
          <stop offset=".853" stop-color="#FFF"/>
          <stop offset=".878" stop-color="#F4F4F4"/>
          <stop offset=".924" stop-color="#D7D6D8"/>
          <stop offset=".983" stop-color="#A8A7AB"/>
          <stop offset="1" stop-color="#99989D"/>
        </radialGradient>
        <path fill="url(#A)" d="M30.7 8.7c-.1-.4-.1-.8-.1-1.2-.1.3-.1.6 0 .9-.1-.3-.4-1 .1-1.5v1.8z"/>
        <radialGradient id="B" cx="-402.394" cy="119.431" r="12.583" gradientTransform="matrix(.775 0 0 .775 349.953 -87.433)" gradientUnits="userSpaceOnUse">
          <stop offset=".853" stop-color="#FFF"/>
          <stop offset=".878" stop-color="#F4F4F4"/>
          <stop offset=".924" stop-color="#D7D6D8"/>
          <stop offset=".983" stop-color="#A8A7AB"/>
          <stop offset="1" stop-color="#99989D"/>
        </radialGradient>
        <path fill="url(#B)" d="M30.7 9.1l-.9-.9c.2.6.7.9 1 1.2-.1 0-.7-.2-1.2-.7-.2-.3-.4-.7-.2-1 .5.1 1 .7 1.3 1.4z"/>
        <radialGradient id="C" cx="-402.46" cy="119.406" r="12.537" gradientTransform="matrix(.775 0 0 .775 349.953 -87.433)" gradientUnits="userSpaceOnUse">
          <stop offset=".853" stop-color="#FFF"/>
          <stop offset=".878" stop-color="#F4F4F4"/>
          <stop offset=".924" stop-color="#D7D6D8"/>
          <stop offset=".983" stop-color="#A8A7AB"/>
          <stop offset="1" stop-color="#99989D"/>
        </radialGradient>
        <path fill="url(#C)" d="M31.4 9.7c-.1-.3-.3-.6-.4-.9.1.4.2.8.5 1.2 0 0-.7-.7-.6-2-.1.1.3 1 .5 1.7z"/>
        <radialGradient id="D" cx="-402.381" cy="119.425" r="12.592" gradientTransform="matrix(.775 0 0 .775 349.953 -87.433)" gradientUnits="userSpaceOnUse">
          <stop offset=".853" stop-color="#FFF"/>
          <stop offset=".878" stop-color="#F4F4F4"/>
          <stop offset=".924" stop-color="#D7D6D8"/>
          <stop offset=".983" stop-color="#A8A7AB"/>
          <stop offset="1" stop-color="#99989D"/>
        </radialGradient>
        <path fill="url(#D)" d="M31.9 10.8c-.5-.3-1.5-.8-1.6-.8.4.5 1.1.6 1.5.9-.1 0-1.3.7-2.3-1.3 1.4-.5 2.4 1.2 2.4 1.2z"/>
        <radialGradient id="E" cx="-402.378" cy="119.389" r="12.635" gradientTransform="matrix(.775 0 0 .775 349.953 -87.433)" gradientUnits="userSpaceOnUse">
          <stop offset=".853" stop-color="#FFF"/>
          <stop offset=".878" stop-color="#F4F4F4"/>
          <stop offset=".924" stop-color="#D7D6D8"/>
          <stop offset=".983" stop-color="#A8A7AB"/>
          <stop offset="1" stop-color="#99989D"/>
        </radialGradient>
        <path fill="url(#E)" d="M31.4 9.4c.2.4 1 1.4 1.1 1.6l-.5-.5s.4.6.7.8c-1.1-.4-1.4-2-1.3-1.9z"/>
        <radialGradient id="F" cx="-402.377" cy="119.406" r="12.615" gradientTransform="matrix(.775 0 0 .775 349.953 -87.433)" gradientUnits="userSpaceOnUse">
          <stop offset=".853" stop-color="#FFF"/>
          <stop offset=".878" stop-color="#F4F4F4"/>
          <stop offset=".924" stop-color="#D7D6D8"/>
          <stop offset=".983" stop-color="#A8A7AB"/>
          <stop offset="1" stop-color="#99989D"/>
        </radialGradient>
        <path fill="url(#F)" d="M32.9 11.6c.1.1.2.1.3.2 0 0-1-.3-1.6 0 .6-.1 1.4.1 2 .3 0 0-.5.6-1.3.5-.4-.1-.8-.3-1.2-.9.5-.6 1-.6 1.8-.1z"/>
        <radialGradient id="G" cx="-402.371" cy="119.443" r="12.571" gradientTransform="matrix(.775 0 0 .775 349.953 -87.433)" gradientUnits="userSpaceOnUse">
          <stop offset=".853" stop-color="#FFF"/>
          <stop offset=".878" stop-color="#F4F4F4"/>
          <stop offset=".924" stop-color="#D7D6D8"/>
          <stop offset=".983" stop-color="#A8A7AB"/>
          <stop offset="1" stop-color="#99989D"/>
        </radialGradient>
        <path fill="url(#G)" d="M33.9 12.4c.4 0 1.3.3 1.3.3-.5 0-1.1-.1-1.5.1.7.2 1.1 0 1.6.1-.1.1-.5.5-1.2.5s-1.1-.5-1.2-.5c.2-.4.5-.5 1-.5z"/>
        <radialGradient id="H" cx="-402.387" cy="119.43" r="12.58" gradientTransform="matrix(.775 0 0 .775 349.953 -87.433)" gradientUnits="userSpaceOnUse">
          <stop offset=".853" stop-color="#FFF"/>
          <stop offset=".878" stop-color="#F4F4F4"/>
          <stop offset=".924" stop-color="#D7D6D8"/>
          <stop offset=".983" stop-color="#A8A7AB"/>
          <stop offset="1" stop-color="#99989D"/>
        </radialGradient>
        <path fill="url(#H)" d="M33.8 11.8c.4.2 1.4.7 1.5.8-.4-.2-.5-.2-.8-.4.3.3.6.4.8.5-.8-.1-1.6-.9-1.5-.9z"/>
        <radialGradient id="I" cx="-402.377" cy="119.408" r="12.613" gradientTransform="matrix(.775 0 0 .775 349.953 -87.433)" gradientUnits="userSpaceOnUse">
          <stop offset=".853" stop-color="#FFF"/>
          <stop offset=".878" stop-color="#F4F4F4"/>
          <stop offset=".924" stop-color="#D7D6D8"/>
          <stop offset=".983" stop-color="#A8A7AB"/>
          <stop offset="1" stop-color="#99989D"/>
        </radialGradient>
        <path fill="url(#I)" d="M33.1 11.7c-.4-.4-.7-.8-.6-.8.8.8.6.3 1.5 1.2-.2-.1-.6-.4-.6-.3 0 0 .6.4.8.5-.4-.1-.9-.5-1.1-.6z"/>
        <radialGradient id="J" cx="-402.386" cy="119.618" r="12.567" gradientTransform="matrix(.775 0 0 .775 349.953 -87.433)" gradientUnits="userSpaceOnUse">
          <stop offset=".853" stop-color="#FFF"/>
          <stop offset=".878" stop-color="#F4F4F4"/>
          <stop offset=".924" stop-color="#D7D6D8"/>
          <stop offset=".983" stop-color="#A8A7AB"/>
          <stop offset="1" stop-color="#99989D"/>
        </radialGradient>
        <path fill="url(#J)" d="M36.3 13.1h.3s-.8.2-1.1.8c.4-.3.8-.5 1.3-.6.2.2.1.4 0 .5-.7.7-1.8.3-1.8.2.2-.6.6-.9 1.3-.9z"/>
        <radialGradient id="K" cx="-402.216" cy="119.594" r="12.595" gradientTransform="matrix(.775 0 0 .775 349.953 -87.433)" gradientUnits="userSpaceOnUse">
          <stop offset=".853" stop-color="#FFF"/>
          <stop offset=".878" stop-color="#F4F4F4"/>
          <stop offset=".924" stop-color="#D7D6D8"/>
          <stop offset=".983" stop-color="#A8A7AB"/>
          <stop offset="1" stop-color="#99989D"/>
        </radialGradient>
        <path fill="url(#K)" fill-rule="evenodd" d="M35.2 12.3s.3.8 1.4.7c-.7-.1-1.3-.7-1.4-.7z" clip-rule="evenodd"/>
      </g>
      <radialGradient id="L" cx="-402.387" cy="119.419" r="12.597" gradientTransform="matrix(.775 0 0 .775 349.953 -87.433)" gradientUnits="userSpaceOnUse">
        <stop offset=".853" stop-color="#FFF"/>
        <stop offset=".878" stop-color="#F4F4F4"/>
        <stop offset=".924" stop-color="#D7D6D8"/>
        <stop offset=".983" stop-color="#A8A7AB"/>
        <stop offset="1" stop-color="#99989D"/>
      </radialGradient>
      <path fill="url(#L)" fill-rule="evenodd" d="M38.5 13.1c-.1 0-.3.1-.5.1s-.4-.2-.5-.1c-.3.1-.3.2-.3.2v1.2l.8.5h.2l.7-.5v-1.2c-.1 0 0-.1-.4-.2zm-1 1.4s.2-.2.2-1.2c0 0 .2.4.2.9 0 0 0 .3-.4.3zm.8-.3c0-.5.2-.9.2-.9 0 1 .2 1.2.2 1.2-.5 0-.4-.3-.4-.3z" clip-rule="evenodd"/>
    </g>
  </g>
  <g>
    <g fill="none" stroke="#C2C3C8" stroke-width=".352" stroke-miterlimit="10">
      <path d="M7.9 22.5c0-3.6 1.8-4.9 4.5-4.3 1.4.3 2.3.8 3 1.4v1.9l-1.5-.3c-.2-1.1-.5-1.8-1.5-2-1.3-.3-2 .5-2 3.7 0 3.5.8 4.3 2 4.6 1.1.2 1.5-.2 1.6-1.3l1.4.3v1.9c-.6.3-1.8.4-3.2.1-2.7-.7-4.3-2.8-4.3-6zM20.1 29.9c-2.8-.4-4.4-2.5-4.4-5.7 0-3.6 1.8-5 4.4-4.6 2.7.4 4.4 2.5 4.4 5.9 0 3.2-1.6 4.8-4.4 4.4zm0-9.3c-1.3-.2-2 .7-2 3.8 0 3.3.7 4.3 2 4.5 1.2.2 1.9-.5 1.9-3.9.1-3-.5-4.2-1.9-4.4zM33.5 30.3v.7l-2.9-.2c-.5-1.3-.8-2-1.4-3.1-.5-.9-.8-1.2-1.5-1.3v2.5c0 .8.2 1 1 1.1v.7l-4.2-.3v-.7c.8.1 1-.1 1-.9v-6.5c0-.8-.2-1-1-1.1v-.7l4.5.3c2 .1 3.5 1 3.5 3.1 0 1.8-1.2 2.4-2.8 2.4v.1c.7.2 1.3.7 1.6 1.1.4.6.6 1.1 1.1 2 .3.5.4.8 1.1.8zm-4.9-8.6l-.9-.1v3.7l.8.1c1.1.1 1.6-.3 1.6-1.8.1-1.3-.4-1.8-1.5-1.9zM42.5 26c0 3.2-1.6 4.9-4.8 5h-4.1v-.6c.8 0 1-.2 1-1v-6.5c0-.8-.2-1-1-1v-.7h4.1c3-.2 4.8 1.2 4.8 4.8zm-4.9-3.9h-.7v8h.7c1.8 0 2.5-.7 2.5-3.9 0-3.3-.8-4.2-2.5-4.1zM47.3 30.8c-2.8.2-4.5-1.5-4.5-4.7 0-3.6 1.9-5.4 4.5-5.6 2.7-.2 4.4 1.5 4.4 5 .1 3.2-1.6 5.1-4.4 5.3zm0-9.2c-1.4.1-2 1.1-2 4.2 0 3.3.7 4.2 2 4.1 1.2-.1 2-.9 2-4.3 0-3.1-.6-4.1-2-4zM59.7 21.9c0 1.3-.8 2.1-2.1 2.5v.1c1.7-.1 2.5.7 2.5 2.1 0 1.7-1.1 2.7-3.3 3.1l-4.9.7v-.7c.7-.1 1-.3 1-1.2V22c0-.8-.2-1-1-.9v-.7l4.5-.7c2-.3 3.3.4 3.3 2.2zm-3.9-1.1l-.8.1v3.4l.9-.1c1.1-.2 1.5-.6 1.5-1.9-.1-1.2-.5-1.6-1.6-1.5zm.3 4.4l-1.1.1v3.6l1.1-.2c1.2-.2 1.7-.6 1.7-2 0-1.3-.5-1.7-1.7-1.5zM65.4 25.3l-3 .7-.4 1.3c-.2.7 0 .7.8.6v.7l-3.1.7v-.7c.6-.2.8-.4 1-1.2l2.6-8.9 1.8-.4 2.8 7.7c.2.6.4.8.9.7v.7L65 28v-.7c.8-.2.9-.5.8-1l-.4-1zm-2.7-.5l2.4-.5-.8-2.2c-.3-.8-.4-1.3-.4-1.5h-.1c0 .2-.1.7-.4 1.7l-.7 2.5z"/>
    </g>
  </g>
  <g>
    <g fill="#FFF">
      <path d="M7.9 22.2c0-3.6 1.8-4.9 4.5-4.3 1.4.3 2.3.8 3 1.4v1.9l-1.5-.2c-.2-1.1-.5-1.8-1.5-2-1.3-.3-2 .5-2 3.7 0 3.5.8 4.3 2 4.6 1.1.2 1.5-.2 1.6-1.3l1.4.3v1.9c-.6.3-1.8.4-3.2.1-2.7-.7-4.3-2.9-4.3-6.1zM20.1 29.6c-2.8-.4-4.4-2.5-4.4-5.7 0-3.6 1.8-5 4.4-4.6 2.7.4 4.4 2.5 4.4 5.9 0 3.3-1.6 4.9-4.4 4.4zm0-9.2c-1.3-.2-2 .7-2 3.8 0 3.3.7 4.3 2 4.5 1.2.2 1.9-.5 1.9-3.9.1-3.1-.5-4.2-1.9-4.4zM33.5 30.1v.7l-2.9-.2c-.5-1.3-.8-2-1.4-3.1-.5-.9-.8-1.2-1.5-1.3v2.5c0 .8.2 1 1 1.1v.7l-4.2-.3v-.7c.8.1 1-.1 1-.9V22c0-.8-.2-1-1-1.1v-.7l4.5.3c2 .2 3.5 1 3.5 3.1 0 1.8-1.2 2.4-2.8 2.4v.1c.7.2 1.3.7 1.6 1.1.4.6.6 1.1 1.1 2 .3.6.4.8 1.1.9zm-4.9-8.6l-.9-.1v3.7l.8.1c1.1.1 1.6-.3 1.6-1.8.1-1.3-.4-1.8-1.5-1.9zM42.5 25.8c0 3.2-1.6 4.9-4.8 5h-4.1v-.6c.8 0 1-.2 1-1v-6.5c0-.8-.2-1-1-1V21h4.1c3-.2 4.8 1.2 4.8 4.8zm-4.9-4h-.7v8h.7c1.8 0 2.5-.7 2.5-3.9 0-3.3-.8-4.1-2.5-4.1zM47.3 30.6c-2.8.2-4.5-1.5-4.5-4.7 0-3.6 1.9-5.4 4.5-5.6 2.7-.2 4.4 1.5 4.4 4.9.1 3.2-1.6 5.2-4.4 5.4zm0-9.3c-1.4.1-2 1.1-2 4.2 0 3.3.7 4.2 2 4.1 1.2-.1 2-.9 2-4.3 0-3-.6-4.1-2-4zM59.7 21.6c0 1.3-.8 2.1-2.1 2.5v.1c1.7-.1 2.5.7 2.5 2.1 0 1.7-1.1 2.7-3.3 3.1l-4.9.7v-.7c.7-.1 1-.3 1-1.2v-6.5c0-.8-.2-1-1-.9v-.7l4.5-.6c2-.3 3.3.4 3.3 2.1zm-3.9-1l-.8.1v3.4l.9-.1c1.1-.2 1.5-.6 1.5-1.9-.1-1.3-.5-1.7-1.6-1.5zm.3 4.3l-1.1.2v3.6l1.1-.2c1.2-.2 1.7-.6 1.7-2 0-1.3-.5-1.8-1.7-1.6zM65.4 25l-3 .7L62 27c-.2.7 0 .7.8.6v.7l-3 .7v-.7c.6-.2.8-.4 1-1.2l2.6-8.9 1.8-.4 2.8 7.7c.2.6.4.8.9.7v.7l-4 .9v-.7c.8-.2.9-.4.8-1l-.3-1.1zm-2.7-.4l2.4-.5-.8-2.2c-.3-.8-.4-1.3-.4-1.5h-.1c0 .2-.1.7-.4 1.7l-.7 2.5z"/>
    </g>
  </g>
  <g>
    <path fill="#DEDBD4" d="M14 28.1c-.5 0-1.1-.1-1.6-.2-2.7-.6-4.2-2.6-4.2-5.7 0-1.9.5-4.1 3-4.1.4 0 .7 0 1.1.1 1.2.3 2.1.7 2.8 1.2v1.4l-1-.2c-.2-1.1-.6-1.8-1.7-2-.2 0-.4-.1-.5-.1-1.6 0-1.9 2.1-1.9 4.1 0 3.1.6 4.5 2.3 4.9.2 0 .4.1.6.1.9 0 1.2-.6 1.4-1.3l.9.2V28c-.3.1-.7.1-1.2.1zM20.9 29.4c-.2 0-.5 0-.8-.1C17.5 29 16 27 16 24c0-2.9 1.1-4.4 3.3-4.4.2 0 .5 0 .7.1 2.6.4 4.2 2.4 4.2 5.6 0 2.6-1.2 4.1-3.3 4.1zm-1.1-9.3c-1.7 0-1.9 2-1.9 4.1 0 3.2.6 4.6 2.2 4.8h.4c.7 0 1.1-.3 1.5-1 .3-.7.5-1.7.5-3.2 0-2.7-.4-4.5-2.2-4.8-.3.1-.4.1-.5.1zM30.9 30.3c-.5-1.1-.8-1.9-1.3-2.9-.5-.9-.8-1.3-1.7-1.5l-.3-.1v2.9c0 .8.3 1.2 1 1.4v.1l-3.6-.3v-.1c.9 0 1-.6 1-1.3V22c0-.9-.3-1.2-1-1.4v-.1l4.2.3c2.1.2 3.2 1.1 3.2 2.8 0 1.7-1.3 2.1-2.4 2.1h-.3v.5l.2.1c.6.2 1.1.6 1.4 1 .4.5.6 1 1.1 2 .2.5.4.9 1.1 1v.1l-2.6-.1zm-3.4-4.9l1.1.1h.3c.4 0 .9-.1 1.2-.5.3-.3.4-.8.4-1.6 0-1.5-.5-2.2-1.8-2.3l-1.2-.1v4.4zM33.9 30.4c.7-.1 1-.5 1-1.3v-6.5c0-.9-.3-1.2-1-1.3v-.1h3.8c3 0 4.4 1.5 4.4 4.7 0 3.1-1.5 4.6-4.5 4.7l-3.7-.2zm2.6-8.9v8.6h1c2.1 0 2.8-1.1 2.8-4.2 0-3.2-.7-4.4-2.7-4.4h-1.1zM46.9 30.3c-2.4 0-3.7-1.6-3.7-4.4 0-3.2 1.5-5.1 4.2-5.3h.4c2.4 0 3.7 1.7 3.7 4.7s-1.5 4.8-4.2 5h-.4zm.4-9.3c-1.9.1-2.3 1.9-2.3 4.5 0 3.1.6 4.4 2.1 4.4h.2c1.6-.1 2.2-1.4 2.2-4.6 0-2.3-.3-4.4-2.1-4.4 0 .1 0 .1-.1.1zM52.1 29.7c.7-.2 1-.5 1-1.4v-6.5c0-.6-.1-1.2-.9-1.2v-.1l4.3-.6c.3 0 .6-.1.8-.1 1.4 0 2.2.6 2.2 1.9 0 1.1-.6 1.8-1.9 2.2l-.2.1v.5h.5c1.3 0 2 .6 2 1.8 0 1.6-1 2.5-3.1 2.8l-4.7.6zm4.5-5.1h-.5l-1.4.2V29l1.5-.2c1.4-.2 1.9-.8 1.9-2.3 0-.8-.2-1.9-1.5-1.9zm-.4-4.4h-.5l-1.1.2v4l1.2-.2c1.3-.2 1.7-.8 1.7-2.2.1-.8 0-1.8-1.3-1.8zM60.1 28.5c.6-.2.8-.5 1-1.3l2.6-8.7 1.3-.3 2.7 7.4c.2.5.4.9.9 1v.1l-3.4.8v-.1c.4-.1.6-.3.8-.5.1-.3.1-.5 0-.8l-.5-1.4-3.4.8-.4 1.5c-.1.3-.1.6 0 .8.3.2.5.2.6.2h.3l-2.5.5zm3.4-8.5v.2c0 .2-.2.7-.4 1.7l-.8 3 3.2-.7-.9-2.6c-.2-.7-.3-1.2-.4-1.4l-.1-.2h-.6z"/>
  </g>
  <g>
    <g fill="none" stroke="#C2C3C8" stroke-width=".135" stroke-miterlimit="10">
      <path d="M30.9 19v.3l-1.7-.1V19c.3 0 .4 0 .4-.4V16c0-.3-.1-.4-.4-.4v-.3l1.7.1c.9.1 1.4.5 1.4 1.3 0 .6-.3 1.2-1.3 1.1h-.5v.8c0 .3 0 .4.4.4zm-.1-3.2h-.3v1.5h.4c.4 0 .6-.1.6-.7-.1-.5-.3-.7-.7-.8zM33.7 18.8c0 .3.1.4.4.4v.2l-1.6-.1v-.2c.3 0 .4-.1.4-.4v-2.5c0-.3-.1-.4-.4-.4v-.3l1.6.1v.3c-.3 0-.4.1-.4.4v2.5zM36.2 19.2c.4 0 .5-.1.6-.7h.4l-.1 1-2.7-.1v-.2c.3 0 .4-.1.4-.4v-2.5c0-.3-.1-.4-.4-.4v-.3l1.6.1v.3c-.3 0-.4.1-.4.4v2.8h.6zM38.9 18.1l-.4-.1c-.6-.2-.9-.5-.9-1.1 0-.8.5-1.2 1.3-1.2.6 0 .9.2 1.1.3v.7h-.6c-.1-.4-.2-.7-.6-.7-.4 0-.5.2-.5.5s.1.5.5.6l.4.1c.6.2 1 .5 1 1.2 0 .8-.5 1.2-1.4 1.2-.7 0-1-.2-1.2-.3v-.7h.6c.1.5.3.7.7.7.4 0 .6-.2.6-.6 0-.3-.2-.5-.6-.6zM40.5 19.4c.3 0 .4-.1.4-.4v-2.5c0-.3-.1-.4-.4-.4v-.3l2.7-.1.1.9h-.4c-.1-.4-.2-.5-.6-.5h-.6v1.3h.3c.3 0 .4-.1.4-.4h.4v1.1h-.4c0-.3-.1-.4-.4-.4h-.3v1.4h.7c.4 0 .5-.1.5-.6h.4v1l-2.9.1v-.2zM46.4 19.3l-1.3-2c-.2-.4-.4-.7-.5-.8v2.2c0 .3.1.4.4.4v.3l-1.2.1v-.3c.3 0 .4-.1.4-.4v-2.5c0-.3-.1-.4-.4-.4v-.3l1.3-.1 1.2 1.7c.2.3.3.6.4.7 0-.1-.1-.4-.1-.8V16c0-.3-.1-.4-.4-.4v-.3l1.2-.1v.3c-.3 0-.4.1-.4.4V19l-.6.3z"/>
    </g>
    <g fill="#FFF">
      <path d="M30.9 19v.3l-1.7-.1V19c.3 0 .4 0 .4-.4V16c0-.3-.1-.4-.4-.4v-.3l1.7.1c.9.1 1.4.5 1.4 1.3 0 .6-.3 1.2-1.3 1.1h-.5v.8c0 .3 0 .4.4.4zm-.1-3.2h-.3v1.5h.4c.4 0 .6-.1.6-.7-.1-.5-.3-.7-.7-.8zM33.7 18.8c0 .3.1.4.4.4v.2l-1.6-.1v-.2c.3 0 .4-.1.4-.4v-2.5c0-.3-.1-.4-.4-.4v-.3l1.6.1v.3c-.3 0-.4.1-.4.4v2.5zM36.2 19.2c.4 0 .5-.1.6-.7h.4l-.1 1-2.7-.1v-.2c.3 0 .4-.1.4-.4v-2.5c0-.3-.1-.4-.4-.4v-.3l1.6.1v.3c-.3 0-.4.1-.4.4v2.8h.6zM38.9 18.1l-.4-.1c-.6-.2-.9-.5-.9-1.1 0-.8.5-1.2 1.3-1.2.6 0 .9.2 1.1.3v.7h-.6c-.1-.4-.2-.7-.6-.7-.4 0-.5.2-.5.5s.1.5.5.6l.4.1c.6.2 1 .5 1 1.2 0 .8-.5 1.2-1.4 1.2-.7 0-1-.2-1.2-.3v-.7h.6c.1.5.3.7.7.7.4 0 .6-.2.6-.6 0-.3-.2-.5-.6-.6zM40.5 19.4c.3 0 .4-.1.4-.4v-2.5c0-.3-.1-.4-.4-.4v-.3l2.7-.1.1.9h-.4c-.1-.4-.2-.5-.6-.5h-.6v1.3h.3c.3 0 .4-.1.4-.4h.4v1.1h-.4c0-.3-.1-.4-.4-.4h-.3v1.4h.7c.4 0 .5-.1.5-.6h.4v1l-2.9.1v-.2zM46.4 19.3l-1.3-2c-.2-.4-.4-.7-.5-.8v2.2c0 .3.1.4.4.4v.3l-1.2.1v-.3c.3 0 .4-.1.4-.4v-2.5c0-.3-.1-.4-.4-.4v-.3l1.3-.1 1.2 1.7c.2.3.3.6.4.7 0-.1-.1-.4-.1-.8V16c0-.3-.1-.4-.4-.4v-.3l1.2-.1v.3c-.3 0-.4.1-.4.4V19l-.6.3z"/>
    </g>
    <path fill="#DEDBD4" d="M29.2 19.1c.3 0 .4-.3.4-.5v-2.5c0-.3-.1-.5-.4-.5l1.6.1c.8.1 1.3.4 1.3 1.1 0 .6-.4 1-1.1 1h-.8v.9c0 .3.1.5.5.5l-1.5-.1zm1-1.6h.6c.1 0 .3 0 .5-.2.1-.1.1-.3.1-.6 0-.6-.2-.9-.7-.9h-.4v1.7zM32.4 19.3c.3-.1.4-.3.4-.5v-2.5c0-.3-.1-.5-.4-.5l1.4.1c-.3 0-.4.2-.4.5v2.5c0 .3.1.5.4.5l-1.4-.1zM34.4 19.4c.3-.1.4-.2.4-.5v-2.5c0-.3-.1-.5-.4-.5h1.4c-.3 0-.4.2-.4.5v2.9h.6c.4 0 .6-.2.7-.7h.2l-.1.8h-2.4zM38.6 19.5c-.5 0-.8-.1-1-.2v-.5h.3c.1.4.3.6.7.7.6-.1.9-.4.9-.8s-.2-.6-.7-.7l-.4-.1c-.6-.2-.8-.4-.8-1 0-.7.4-1.1 1.2-1.1.4 0 .7.1 1 .2v.6h-.3c-.1-.3-.2-.7-.7-.7-.4 0-.7.3-.7.7 0 .4.2.6.6.7l.4.1c.6.2.9.5.9 1 0 .9-.8 1.1-1.4 1.1zM40.5 19.4c.3 0 .4-.2.4-.5v-2.5c0-.3-.1-.5-.4-.5l2.5-.1v.7h-.2c-.1-.3-.2-.5-.6-.5h-.8v1.5h.5c.4 0 .5-.1.5-.4h.1v.9h-.1c0-.2-.2-.4-.5-.4h-.5v1.6h.8c.4 0 .6-.2.6-.7h.2v.8l-2.5.1zM43.7 19.3c.3 0 .4-.2.4-.5v-2.5c0-.3-.1-.5-.4-.5l1.1-.1 1.1 1.7c.2.3.3.6.3.7v.1h.2v-.1V16.2c0-.3-.1-.5-.4-.5l1-.1c-.3.1-.4.2-.4.5v3h-.4L45 17.2c-.3-.4-.4-.7-.4-.8v-.1h-.2v.1c0 .1.1.5.1.8v1.4c0 .3.1.5.4.5l-1.2.2z"/>
  </g>
</svg>
