<svg xmlns="http://www.w3.org/2000/svg" viewBox="0 0 89.5 56.7">
  <g fill="#B49E5F">
    <path d="M2.6 54.9l2.3.2c1.2.1 2.4-.3 3.3-1h.1l-.8 2.3H0v-.1c.9-.3.8-1.6.8-2.4v-6.7c0-.8.1-2.1-.8-2.4v-.1h5.7c.3 0 .6 0 .8-.1h.1v2.1h-.1C6 46 5.2 46 4.4 46c-.6 0-1.2 0-1.8.1v3.3h2.1c.3 0 .6 0 .8-.1v1.9c-.3-.5-1-.5-1.6-.5H2.6v4.2zM14.2 55.1c1.2.1 2.2-.3 3.1-1.1h.1l-.9 2.4H9.2v-.1c.9-.3.8-1.6.8-2.4v-6.7c0-.8.1-2.1-.8-2.4v-.1h3.4v.1c-.9.3-.8 1.6-.8 2.4v7.7l2.4.2zM26.4 52l-.9 2.5c-.4 1-.5 1.5.4 1.8v.1h-3.3v-.1c1-.5 1.3-1.5 1.7-2.5l3-7.4c.2-.6.6-1.4-.3-1.6v-.1h2.8l3.7 9.1c.4 1 .7 2 1.7 2.5v.1h-3.6v-.1c.9-.4.7-.6.3-1.8l-1-2.5h-4.5zm2.2-5.8l-1.8 4.5h3.5l-1.7-4.5zM36.9 47.2c0-.8.1-2.1-.8-2.4v-.1h4.2c2.3 0 3.7 1 3.7 2.6 0 1.2-.8 1.9-1.8 2.3 1.6.3 2.9 1.4 2.9 3.1 0 1.4-.9 2.5-2.1 3.1-1.2.6-2.6.6-4 .6h-2.9v-.1c.9-.3.8-1.6.8-2.4v-6.7zm2.4 2.2c1.2 0 2.8-.4 2.8-1.8 0-1.2-1.1-1.9-2.2-1.8l-1.2.1v3.5h.6zm.9 5.7c1.5.1 2.9-.5 2.9-2.2 0-1.7-1.7-2.5-3.2-2.4l-1.2.1V55l1.5.1zM61.1 54.9l2.3.2c1.2.1 2.4-.3 3.3-1h.1l-.8 2.3h-7.4v-.1c.9-.3.8-1.6.8-2.4v-6.7c0-.8.1-2.1-.8-2.4v-.1h5.7c.3 0 .6 0 .8-.1v2.1c-.7-.7-1.4-.7-2.2-.7-.6 0-1.2 0-1.8.1v3.3h2.1c.3 0 .6 0 .8-.1v1.9c-.3-.5-1-.5-1.6-.5h-1.3v4.2zM72.7 55.1c1.2.1 2.3-.3 3.1-1.1h.1l-.9 2.3h-7.3v-.1c.9-.3.8-1.6.8-2.4v-6.7c0-.8.1-2.1-.8-2.4v-.1h3.4v.1c-.9.3-.8 1.6-.8 2.4v7.7l2.4.3zM89.5 50.4c0 3.6-3 6.2-6.5 6.2s-6.5-2.5-6.5-6.2c0-3.4 2.9-6.2 6.6-6.1 3.8.1 6.4 2.9 6.4 6.1zm-10.9-.1c0 2.5 1.8 5 4.5 5s4.4-2 4.4-4.6c0-2.6-1.6-5.1-4.5-5.1-2.7.1-4.4 2-4.4 4.7zM53.5 44.6c1 .4.8 1.7.8 2.5v4.8c0 2.3-.9 3.5-2.7 3.5-1.8 0-2.7-1.2-2.7-3.5v-4.8c0-.8-.1-2.1.8-2.5h-3.6v.1c1 .3.8 1.6.8 2.5V52c0 1.3 0 2.5 1 3.5.9.9 2.2 1.3 3.4 1.2h.6c1.3 0 2.6-.4 3.4-1.3 1-1 .9-2.2.9-3.5v-4.8c0-.8-.1-2.1.8-2.5h-3.5z"/>
  </g>
  <path fill="#FFF" stroke="#FFF" stroke-width=".594" d="M18.6 12.1l.4-.2-.2-.4.3-.2.2.4.4-.2.2.3-.4.2.2.3c.3-.1.8 0 1 .3.2.4.1.9-.2 1.1-.4.2-.9.1-1.1-.2-.2-.3-.2-.7.1-1l-.2-.3-.4.3-.3-.4zm-.2 6.1c.1.2.3.3.5.2 0 .1 0 .1.1.2.1.2.5.3.7.2 0 0 .1-.1.2-.1.2.2.5.4 1-.2.2-.3.3-.5.2-.7.2.1.5 0 .8-.3.4-.3.3-.7.3-1 .2.2.6.4 1.2 0 .3-.2.4-.4.4-.6.1.1.3.2.6.1.4 0 .6-.3.7-.5.1 0 .2 0 .2-.1.2-.1.3-.5.2-.7 0-.1-.1-.1-.1-.2.2-.1.2-.4.1-.6-.1-.1-.1-.2-.2-.2.1-.1.1-.3 0-.4-.1-.1-.2-.2-.4-.2 0-.1 0-.1-.1-.2-.1-.2-.3-.2-.5-.1v-.1c-.1-.1-.3-.2-.4-.1 0 0-.1 0-.1.1v-.1c-.1-.2-.3-.2-.4-.1l-.1.1c-.1-.2-.3-.2-.4-.1l-.1.1c-.1-.1-.3-.2-.4-.1 0 0-.1 0-.1.1-.1-.1-.2-.1-.4-.1 0 0-.1 0-.1.1-.1-.1-.2-.1-.4 0s-.2.3-.1.4c.1.1.3.2.4.1 0 0 .1 0 .1-.1.1.1.2.1.4 0 0 0 .1 0 .1-.1.1.1.2.1.4 0l.1-.1c.1.1.3.2.4.1 0 0 .1 0 .1-.1.1.1.3.2.4.1 0 0 .1 0 .1-.1v.1c.1.1.3.2.4.1v.1c.1.1.2.2.3.2 0 .1 0 .2.1.2 0 .1.1.1.2.2-.1.1-.1.3 0 .5 0 0 0 .1.1.1-.2.1-.3.5-.2.7.1.1.2.2.3.2-.2.1-.3.2-.5.2s-.4-.1-.5-.2c.2-.2.3-.5.2-.7-.1-.1-.2-.2-.3-.2V14c-.1-.2-.3-.2-.4-.2v-.2c-.1-.2-.3-.2-.4-.2v-.1c-.1-.2-.3-.2-.5-.1l-.1.1c-.1-.2-.3-.2-.4-.1l-.1.1c-.1-.1-.3-.2-.4-.1-.1.1-.2.3-.1.4.1.2.3.2.4.1l.1-.1c.1.1.3.2.4.1 0 0 .1 0 .1-.1v.1c.1.1.2.2.4.2v.1c.1.1.2.2.3.2 0 .1 0 .2.1.3.1.1.1.2.2.2-.1.1-.1.3 0 .5s.3.3.5.3c-.1.2-.2.4-.5.5-.3.1-.5.1-.8.1v-.4c-.1-.2-.2-.2-.4-.2v-.3c-.1-.1-.2-.2-.4-.2.1-.1.1-.3 0-.4-.1-.1-.2-.2-.4-.2.1-.1.1-.2 0-.3-.1-.2-.3-.2-.4-.1-.1.1-.2.3-.1.4 0 .1.1.2.2.2-.1.1-.1.3 0 .4.1.1.2.2.3.2-.1.1-.1.3 0 .4.1.1.2.2.3.2-.1.2-.1.3 0 .5s.3.3.5.3c-.1.2-.2.4-.4.5-.3.2-.6.2-.8.2.1-.2.1-.4 0-.5-.1-.2-.3-.2-.4-.3v-.3c-.1-.1-.1-.2-.2-.2.1-.1.1-.3 0-.4l-.1-.1c.1-.1.1-.3 0-.4h.1c.1-.1.2-.3.1-.4h.1c.1-.1.2-.3.1-.4-.1-.1-.3-.2-.4-.1-.1.1-.2.3-.1.4h-.1c-.1.1-.2.3-.1.4H20c-.2.1-.2.3-.1.5 0 0 0 .1.1.1-.1.1-.2.3-.1.5 0 .1.1.1.2.1-.1.1-.1.3 0 .5.1.1.2.2.3.2v.4c.1.2.5.3.7.2.1.2.1.4 0 .6-.1.2-.3.3-.5.3 0-.1 0-.2-.1-.3-.1-.3-.5-.3-.7-.2 0 0 0-.1-.1-.1-.1-.2-.3-.2-.4-.2 0-.1 0-.2-.1-.2 0-.1-.1-.1-.2-.2.1-.1.1-.2 0-.3l-.1-.1c.2-.1.2-.3.1-.4v-.1h.1c.1-.1.2-.3.1-.4h.1c.1-.1.2-.3.1-.4h.2c.1-.1.2-.2.1-.4h.1c.1-.1.2-.2.2-.3h.1c.1-.1.2-.3.1-.4-.1-.2-.3-.2-.4-.1-.1.1-.2.2-.2.3h-.1c-.1.1-.2.2-.1.4h-.1c-.1.1-.2.3-.1.4H19c-.1.1-.2.3-.1.4h-.1c-.8 0-.8.2-.7.3l.1.1h-.1c-.2.1-.2.3-.1.4 0 0 0 .1.1.1-.2.1-.2.3-.1.5 0 .1.1.1.1.1-.1.1-.1.3 0 .4.1.1.2.2.3.2-.1.1-.1.2 0 .3zm6.5-1c.6-.2 1-.2 1 0 .1.3-.6.2-2.5 1.4s-1.9 2-2.2 1.7c-.1-.1 0-.4.3-.8-.2 0-.3-.1-.4-.2-.1-.1-.1-.2-.1-.3-.4.3-.5.5-.6.4-.3-.3.5-1.2 2-2.1 1.5-.9 2.6-1.3 2.7-1 .1.2-.1.2-.6.4.1 0 .2.1.2.2.3.1.3.2.2.3zm43.6-1.9c-.3-.3-.4-.8-.2-1.1.2-.3.6-.4.9-.3l.2-.3-.4-.3.2-.3.4.3.3-.4.3.2-.2.4.4.3-.2.3-.4-.3-.2.3c.2.3.3.7 0 1-.3.4-.8.4-1.1.2zm-4.2 3c.2-.2.2-.6-.1-.8-.2-.2-.6-.2-.8.1-.2.2-.2.6.1.8.3.2.6.1.8-.1zm6.1.2s.1-.1 0 0c.2-.2.1-.4 0-.5h-.1l.1-.1c.1-.1.1-.3 0-.4 0 0-.1 0-.1-.1.1-.1.1-.3 0-.4 0 0-.1-.1-.2-.1.1-.1.1-.3-.1-.4h-.1c.1-.1 0-.3-.1-.4 0 0-.1 0-.1-.1s0-.3-.1-.3c-.1-.1-.3-.1-.4 0-.1.1-.1.3.1.4 0 0 .1 0 .1.1s0 .3.1.3h.1c-.1.1 0 .3.1.4l.1.1c-.1.1-.1.3.1.4 0 0 .1 0 .1.1-.1.1-.1.3.1.4h.1l-.1.1c-.1.1-.1.3 0 .4 0 0-.1 0-.1.1-.1.1-.1.2 0 .3-.1 0-.1.1-.2.1 0 .1-.1.1-.1.2-.2 0-.3 0-.4.1 0 0 0 .1-.1.1-.2-.2-.5-.1-.7.1-.1.1-.1.2-.1.3-.1-.1-.3-.3-.3-.4v-.1c.1 0 .1-.1.2-.2s.1-.3.1-.4c.2-.3.5-.7.7-1.1.3-.9-.1-1.8-.1-1.8h-.2s.1 1-.2 1.5c-.2.4-.4.7-.7 1-.2 0-.4 0-.5.2-.1 0-.1-.1-.2-.1-.1-.1-.1-.1-.1-.2.1 0 .1-.1.1-.1.1-.1.1-.4 0-.5l.1-.1c.1-.1.1-.3.1-.5.1 0 .2-.1.3-.2.1-.1.1-.3.1-.4.1 0 .2 0 .3-.1.1-.1.1-.3 0-.4.1 0 .2 0 .3-.1.1-.1.1-.3-.1-.4-.1-.1-.3-.1-.4 0-.1.1-.1.2-.1.3-.1 0-.3 0-.4.1-.1.1-.1.2-.1.3-.2 0-.3 0-.4.2-.1.1-.1.2-.1.3-.2 0-.3 0-.4.2 0 0 0 .1-.1.1-.1.2-.3.2-.4.3-.1.1-.1.2-.1.3-.1 0-.2-.1-.2-.2 0 0 .1 0 .1-.1.1-.2.1-.4 0-.6.2-.3.5-.6.8-.8.4-.4 1.4-.6 1.4-.6v-.2s-.9-.1-1.8.4c-.3.2-.7.6-.9 1-.1 0-.2.1-.3.2-.1.1-.1.2-.1.3h-.2c-.2 0-.4-.2-.4-.4.1 0 .2-.1.2-.2.2-.2.1-.5-.1-.7 0 0 .1 0 .1-.1.1-.1.1-.3 0-.5.1 0 .1-.1.2-.1.1-.1.1-.2.1-.2.1 0 .2 0 .3-.1 0 0 0-.1.1-.1.1.1.3.1.4 0v-.1l.1.1c.1.1.3.1.4 0 0 0 0 .1.1.1.1.1.3.1.4 0 0 0 0 .1.1.1.1.1.3.1.4 0l.1.1c.1.1.3.1.4 0 0 0 0 .1.1.1.1.1.3.1.4-.1.1-.1.1-.3 0-.4-.1-.1-.2-.1-.3 0l-.1-.1c-.1-.1-.3-.1-.4 0 0 0 0-.1-.1-.1-.1-.1-.3-.1-.4 0 0 0 0-.1-.1-.1-.1-.1-.3-.1-.4.1 0 0 0-.1-.1-.1-.1-.1-.3-.1-.4.1v.1s0-.1-.1-.1c-.1-.1-.3-.1-.4.1 0 0 0 .1-.1.1-.1-.1-.3-.1-.5.1 0 .1-.1.1-.1.2-.1 0-.3 0-.4.1-.1.1-.1.2-.1.4-.1 0-.2.1-.3.2-.1.2-.1.4 0 .5-.1 0-.1.1-.2.1-.2.2-.1.5.1.7.1 0 .1.1.2.1-.1.3-.1.6.5.8 0 0 1.1.5 1.8 1s1.8 1.7 1.8 1.7.2.1.3.1h.2c0 .1.1.1.1.2.2.2.5.1.7-.1 0-.1.1-.1.1-.2.2.1.4.1.5-.1.1-.1.1-.2.1-.3.1 0 .3 0 .4-.1.1-.1.1-.3 0-.4.1 0 .1-.1.2-.1.1-.4.1-.6-.1-.7zm-4.4.8c.2-.3.2-.6-.1-.8-.3-.2-.6-.2-.8.1-.2.3-.2.6.1.8.2.2.6.2.8-.1zm.6.6c-.2.3-.2.6.1.8.2.2.6.2.8-.1.2-.2.2-.6-.1-.8-.2-.2-.6-.2-.8.1zm1 4.7c0 2-.7 4.1-2.1 6l-.1.1c-1.4 1.9-3.1 3.2-4.9 3.8-1.8.6-3.9.3-5.9-1-.1-.1-.2-.1-.3-.2-.7-.5-1.2-1.2-1.6-2-.6.4-4 2.4-8.6 2.4-3.3 0-6.4-1-9-2.6-.7.5-1.2.8-1.5 1-.6.4-.6 1.1-.6 1.1v.2l-.2-.1s-.6-.2-1.3.2c-.3.2-1.1.7-2.3 1.5-2.1 1.3-3.5-.8-3.5-.8l-7.5-11.5 9.2-6C27.6 7.7 35 .4 44.1.4c9.2 0 16.7 7.5 16.7 16.7 0 .4 0 .8-.1 1.3 1.5-.1 3 .3 4.5 1.3.1 0 .1.1.2.1 1.5 1 2.3 2.9 2.2 4.8z" stroke-linecap="round" stroke-linejoin="round"/>
  <path fill="#B49E5F" d="M64.1 21c-3-2.1-6-.7-8.3 2.3-2.3 3-2.6 7-.1 8.6 3.1 2 6 .7 8.3-2.3 2.3-3 2.4-7 .1-8.6zm-.5 8.3c-2.2 2.8-4.9 4-7.7 2.2-2.3-1.5-2-5.2.2-8s5-4.1 7.7-2.2c2.2 1.5 2 5.2-.2 8z"/>
  <path fill="#B49E5F" d="M64 21.3l-.3-.2-3.8 5-3.9-2.9-.3.3 3.9 3-3.8 5.1.3.3 3.9-5.2 3.8 2.9.2-.4-3.7-2.8"/>
  <path fill="#B49E5F" fill-rule="evenodd" d="M58.3 25.9c-.1.1-.4.1-.6.2-.1.1-.4.2-.5.4v.2c.3 0 .5.2.5.5.3.1.5.2.5.5 0 .2-.1.4-.2.4-.1.1-.2.1-.4.1 0 .3-.3.5-.6.5 0 .3-.1.5-.4.5v.4s.1.1.1.2c0 .2-.1.4-.2.4s-.2 0-.2.1c-.1.2-.2.3-.3.5-.2.1-.4 0-.6-.1-.1-.1-.2-.2-.2-.4v-.1c0-.1-.1-.1-.1-.1-.1-.1-.1-.4 0-.5-.2-.1-.4-.7-.1-.8-.1-.1-.1-.3-.1-.4 0-.1-.1-.2-.1-.4 0-.1.1-.2.2-.3 0-.1 0-.2.1-.3 0-.1-.1-.1-.1-.2-.1-.2-.1-.4 0-.6 0 0 .1 0 .1-.1.1 0 .2-.1.3-.1.1-.1.2-.3.5-.3 0-.6 1-.6 1 .1.1.1.2 0 .2-.1.1-.1.4-.3.6-.3 0-.2-.1-.6-.3-.4 0 .1.1.1.2.2.1.2-.2.3-.3.2v-.3c-.2 0-.2.3-.4.3-.1 0-.1-.1-.1-.2 0 0 .2-.2.2-.1s-.1.1-.1.1c0 .1 0 0 .1.1.1 0 .1-.1.2-.2s.1 0 .2-.1c.1 0 .1-.2.2-.2.2-.1.3 0 .4.1 0 .1 0 .3.1.4.2 0 .3-.1.4-.1-.3 0-.2.2-.2.3zm-.3-.1c-.1 0-.2.1-.3.1-.1 0-.1-.1-.1-.1v.2c-.2.1-.5.2-.6.5 0 0 .1 0 .1.1.2-.3.6-.5 1-.6 0-.2 0-.2-.1-.2zm-.4 2.2c.5.1.5-.8 0-.7l-.1.1v.5c0 .1.1.1.1.1zm-.4-1.2c-.2 0-.3.3-.3.5.1.2.4.2.6.1.1-.3 0-.6-.3-.6zm.2.7h-.3c-.1 0-.1-.1-.2-.1v.3c.2 0 .2.2.3.3.1 0 .3-.2.2-.5zm0 .5c-.1 0-.2.1-.3.1 0 .2-.1.3-.2.3.3.2.6 0 .5-.4zm-.3-2.4c0 .1 0 .3.1.2.1-.1 0-.2-.1-.2zm-.3 1.6c0-.3.2-.3.3-.5-.1-.1-.2-.3-.4-.2.1.2.1.3 0 .5 0 0-.1.1-.1.2.1 0 .2.1.2 0zm-.1 1.2c.3 0 .3-.5 0-.6-.1.1-.3.2-.4.2-.1.2.2.4.4.4zm0-1.1c-.1 0-.1-.1-.2-.1-.5-.2-.7.5-.3.7.3 0 .6-.3.5-.6zm-.4 1.7c.1 0 .1.1 0 0 .2.1.3 0 .4-.1 0-.2 0-.4-.2-.4 0 .2-.2.3-.4.4 0 .1.1.1.2.1zm-.3-2.1c0 .1.1.2.2.2h.3c.1 0 .3-.2.2-.4-.2-.4-.8-.2-.7.2zm.4-.9c-.3-.2-.6.2-.3.5.1 0 .3-.1.5 0 0-.3-.1-.5-.2-.5zm0 2.4l-.3-.3c-.1 0-.1.1-.2.1s-.1.1-.2.1c0 .5.8.6.7.1zm0 1.2c.1-.1.1-.3 0-.4-.1 0-.1-.1-.2-.1-.1.2-.2.3-.3.4-.1.3.3.3.5.1zm.1.3c0-.2-.3 0-.5-.1 0 .1-.1.2-.2.3.2.3.7 0 .7-.2zm-.5-2.8c0-.1-.1-.1-.1-.2-.2-.1-.3.1-.4.2 0 .1 0 .3.1.3h.3c0-.1.1-.2.1-.3zm0-.6c-.2-.2-.7.1-.5.4.1-.1.2-.1.4-.1 0-.2.1-.2.1-.3zm0 1.6c.1-.1.1-.3 0-.5-.2-.1-.6 0-.6.2-.1.4.4.6.6.3zm-.5 2.5c.1.1.4.1.5 0 0-.1.1-.2.1-.2-.2 0-.2-.1-.4-.2-.1 0-.1.1-.2 0-.1.2-.1.3 0 .4zm0-1.2h.2c.1-.1.1 0 .2-.1.2-.2.1-.5-.1-.6-.1.1-.2.1-.4.1-.2.2 0 .5.1.6zm.3.3c-.1 0-.1-.1-.2-.2-.2-.1-.5 0-.5.2 0 .1 0 .3.2.4.3.1.6-.1.5-.4 0 .1 0 0 0 0zm-.4-1.4c-.1 0-.1-.1-.2-.1s-.1.1-.2.2c0 .2 0 .3.1.4.2.2.6 0 .5-.3.1-.2-.1-.2-.2-.2zm-.3-1.1h.2s0-.1.1-.1v-.2c-.1-.1-.1-.2-.1-.3-.3 0-.5.4-.2.6zm.3.3s0-.1-.1-.2c-.3 0-.4.4-.1.5.1-.1.1-.2.2-.3zm-.2 1.3c-.2 0-.2.2-.2.4 0 .1.2.2.3.2-.1-.1-.1-.4-.1-.6zm0-.8c0-.1-.1-.1-.2-.2-.1.1-.2.3 0 .5 0-.1.2-.2.2-.3z" clip-rule="evenodd"/>
  <path fill="#B49E5F" d="M64.3 25.7c.3-.2.8-1 .8-1l-1.9-1.5s-.6.6-.7 1c-.1.3-.3.8.2 1.4 0 0-.4.7-.7.7-.3 0-.7-.2-.7-.2-.1.1.2.5.6.8.4.3.8.5.9.4 0-.1-.3-.4-.4-.7-.1-.3.5-.8.5-.8.7.4 1.2.1 1.4-.1zm-1.8 1.4c.2.2-.3-.1-.5-.3-.3-.2-.7-.7-.4-.5.5.3.8 0 .8 0s-.3.5.1.8zm.4-1.5c-1-.7.3-2 .3-2l1.6 1.2s-.8 1.6-1.9.8z"/>
  <g fill="#B49E5F">
    <path d="M61.5 23.4c-.3 0-.6 0-.8.1-.1 0-.2 0-.3.1.2-.2.4-.5.5-.7.1-.2.1-.3.1-.5 0-.3-.1-.5-.2-.8-.2-.4-.4-.9-.8-1.2v-.2.1c-.1.1-.2.2-.2.3-.1.2-.2.4-.2.5-.1.3-.1.6-.1.9v.6c-.1-.2-.4-.5-.5-.6-.1-.2-.2-.4-.4-.5l-.1-.1-.1.1c-.2.3-.3.8-.3 1.2v.2c.1.4.4.8.5 1.1 0 .1.1.1.1.2s-.1.2-.3.4c-.1 0-.1.1-.2.1s-.1.1-.1.2v.2c.1.1.3.2.3.2.2-.2.2-.3.5-.3H60c.2 0 .4 0 .6-.1.2-.2.3-.4.5-.6.3-.3.6-.5 1-.6v-.1c-.2-.2-.4-.2-.6-.2zm-2.1.5c.1-.1.1-.2.1-.3 0-.1.1-.3.1-.4 0-.1.1-.1 0-.3 0-.1-.1-.3-.1-.5.1.1.1.3.2.3-.1-.2-.2-.5-.2-.7 0-.2-.1-.6 0-.7.1.1.2.3.3.4 0-.1 0-.2-.1-.3 0-.1-.1-.2-.1-.3 0-.1.1-.4.2-.5l.3-.3c.1.1.2.2.2.3.1.1.1.2.2.4.1.1.1.2.1.3 0 .2-.1.3-.2.5.2 0 .2-.3.3-.3l.1.2c0 .1.1.1.1.2v.6c0 .2-.2.4-.4.5-.1 0-.2.1-.2.1-.1 0 0 0-.1.1.1 0 .4-.1.6-.2 0 .1-.2.3-.5.5-.1.1-.2.1-.3.2-.2.1-.4.3-.6.2zm-.8-.5h.2c0-.1-.2-.1-.3-.2-.1-.1-.1-.2-.2-.3 0-.1-.1-.3-.1-.4.1-.1.2.1.3 0-.2-.1-.3-.2-.2-.5 0-.1.1-.5.2-.5s.2.3.3.4c0 .1.1.1.1.2v.3c.1 0 .1-.1.1-.2.1.1.1.2.2.3v.3c0 .1-.1.2-.2.3.1 0 .2-.1.2-.2 0 .1 0 .3-.1.4-.1.1-.1.2-.1.3v.2c0 .1-.1.1-.2 0 0-.1 0-.2-.1-.3 0 0-.1 0-.1-.1zm.8 0c0 .1-.1.2-.1.3 0-.1 0-.2.1-.3zm-.8 1.3c-.1 0-.2.3-.3.2-.3-.2.6-.5.6-.7.2.1.3-.1.5-.1 0 .2-.1.2-.3.3-.1.1-.1.2.1.2-.2 0-.4 0-.6.1zm2.5-.9c-.1.1-.1.2-.2.2h-.5c.1.1.3 0 .4.1-.1.1-.2.4-.4.4s-.5-.1-.6-.1c.1 0 .2.1.3.1-.2.1-.4.1-.6 0-.1 0-.3-.1-.3-.2l.4-.4c.1-.1.3-.1.4-.2 0 0-.1.1-.1.2.1 0 .2-.2.3-.2.1 0 .2-.1.3-.1v.1c.2-.1.3-.2.5-.2.1 0 .3-.1.4-.1h.5c-.4.2-.7.3-.8.4z"/>
    <path d="M60.1 20.7s.1.8.1 1.7c-.1.4-.3.9-.5 1.2.3-.4.6-.8.6-1.6 0-.9-.2-1.3-.2-1.3z"/>
  </g>
  <path fill="#B49E5F" d="M60.6 30c-.1.1-.1 0 0 0 0-.1.1-.3 0-.3 0 .1-.1.2-.2.3 0 .1-.1.2-.1.2-.1-.1 0-.2 0-.3v-.4.4c0 .1 0 .3-.1.3 0-.1-.1-.1-.1-.2s-.1-.2-.1-.3c0-.1-.1-.2-.1-.3.1.2.2.4.2.7v.1s-.1 0-.2.1c-.1 0-.1 0-.2-.1s-.1-.2-.2-.3c-.1-.1-.1-.2-.2-.2 0 .1.1.2.1.3.1.1.1.2.2.3h-.2c-.1-.1-.2-.2-.4-.3 0 .1.1.1.2.2.1 0 .1.1.2.2-.1.1-.3-.1-.4-.1.1 0 .2 0 .2.1.1 0 .1 0 0 .1l-.1.1s-.2.1-.1.1c0 0 .1-.1.2-.1 0 0 .1.1.1.2s0 .2-.1.3c.1 0 .1-.1.1-.2v-.3c0-.1.1 0 .2 0h.1c.2.2.2.4.2.6.1-.1 0-.3 0-.4 0-.1-.1-.1-.1-.2 0 0-.1-.1 0-.1l.2-.1.1.1c.2.1.2.3.3.5 0-.2 0-.3-.1-.4 0-.1-.1-.1-.1-.1l-.1-.1h.1c.1 0 .1-.1.2 0 .1 0 .1.1.2.1l.1.1.1.1c0-.1-.2-.3-.2-.3s-.1-.1-.2-.1c0-.1.1-.1.2-.1h.4l-.1-.1c-.1 0-.2-.1-.2-.1.1-.1.3 0 .5 0-.1 0-.2-.1-.3-.1-.3.2-.2.2-.2.1zm1.2-.2c0-.1-.2-.3-.3-.3h-.1c0-.1 0-.1-.1-.1.2 0 .4-.1.5-.4-.2-.1-.4-.2-.6-.2.2-.1.3-.1.4-.3-.1-.1-.3-.1-.4-.1.1-.2.2-.3.2-.5s-.1-.2-.2-.1c-.1 0-.2.1-.4.1-.1 0-.1 0-.1-.1s-.1-.3-.2-.3c-.1.1-.1.1-.1.2s0 .2-.1.3c0-.2-.3-.5-.5-.6v.4c0 .1 0 .2.1.3-.1 0-.3-.2-.4-.2-.1 0-.3-.1-.4-.1 0 0 .2.5.3.6-.1-.1-.2-.1-.4-.1h-.6s.2.3.3.3c.1.1.2.2.4.2h.1c-.2 0-.3.1-.4.2-.1.1-.2.2-.3.4h.3c0 .1 0 .1.1.2 0 .1.1.1.1.2-.1-.1-.3-.2-.4-.1.1.1.2.4.4.5-.2-.1-.4 0-.6 0 0 .1.2.3.3.3.1.1.2 0 .3.1-.1.2-.5.3-.8.2 0 .1 0 .2.1.2h.3c.1 0 .3-.1.4-.2-.1.1-.1.4-.1.7.1 0 .3-.1.4-.1.1 0 .1-.1.2-.2-.1.1 0 .6 0 .8l.4-.2c.2-.1.3-.2.2-.4v.1c0 .1.1.2.2.4 0 .1.2.3.3.3 0 0 .1-.4.1-.5 0-.1 0-.3-.1-.4.1.1.5.4.6.4.1-.1 0-.3 0-.4 0-.2-.2-.3-.2-.4 0 .1.2.1.3.1h.4c0-.2-.3-.5-.5-.6.1 0 .3.1.4 0l-.1-.1c.1 0 .1 0 .2-.1 0-.1-.2-.2-.3-.2-.1 0-.1 0-.1-.1.1.1.3 0 .5-.1zm-3.2-.5c.1 0 .1.1 0 0 0 .1 0 .1 0 0zm2.8.3l.2.2h-.1-.1-.1s.1-.1.1-.2zm-2.5-.5c.1 0 .2-.1.3-.2v-.1s-.1-.1-.2-.1c-.1-.1-.3-.2-.3-.3h.3c.1 0 .2 0 .2.1h.2c0-.1-.1-.2-.1-.3 0-.1-.1-.2-.1-.3.1 0 .3.1.4.1.1.1.2.2.3.2 0-.1-.1-.2-.1-.3 0-.1 0-.3.1-.4.1.1.2.2.3.4 0 .1.1.2.1.3 0 0 .1 0 .1-.1v-.2c0-.1.1-.2.2-.2 0 .1.1.1.1.2v.2c.1-.1.2-.1.2-.1.1 0 .2-.1.3-.1 0 0 .1-.1.2-.1-.1.2-.3.2-.6.6.1 0 .3-.3.3-.3.1 0 .1-.1.2-.1 0 0 .1-.1.2-.1v.1c0 .1 0 .1-.1.2 0 .1-.1.2-.2.2h.4c-.1 0-.1 0-.2.1 0 0-.2.1-.2.2h.1c.1 0 .1 0 .1.1.1 0 .2.1.3.1l-.1.1c-.1 0-.1.1-.2.1s-.1 0-.2.1v.1c-.1 0-.2.1-.4.1v-.2l.1.1c-.1 0-.1-.1-.1-.1 0-.1 0-.1-.1-.2-.1 0-.1 0-.1.1-.1 0-.1 0-.2-.1-.1 0-.1 0-.1-.1.1-.1.2-.1.3-.1h.4c-.1 0-.2-.1-.4-.1-.1 0-.2 0-.3-.1 0-.1.2-.1.2-.1.1-.1.2-.2.4-.2-.1 0-.2 0-.3.1-.1 0-.1 0-.1-.1-.1 0-.1.1-.1.1 0-.1-.1-.2-.1-.3 0 .1.1.4-.1.5 0-.1-.1-.2-.1-.2s0-.1-.1-.2v.4c0 .1 0 .1-.1.2l-.1-.1c-.1-.1-.2-.3-.3-.3l.1.1.1.1c0 .1.1.1.1.2-.1 0-.1.1-.2.2l-.1-.1c-.1-.1-.3-.1-.4-.2.2.1.3.2.4.3 0 .1-.1.1-.1.2 0-.1-.1-.2-.1-.3 0-.1-.2-.3-.3-.3-.1.1-.2.3-.2.4v.3c0-.1-.1-.2-.2-.3.4.2.3.2.3.1zm1.7.1c-.1.1-.1.2-.2.2v-.3c0 .1.1.1.2.1zm-1.4.5zm2.1.7zm-.1-.3c.1 0 .1.1.2.1 0 0-.1 0-.1.1h-.1-.1-.1-.1c0 .1.2.1.3.2l.3.3h-.4c-.1 0-.2-.1-.3-.1 0 .1.1.3.1.3 0 .1.1.3.1.4-.1-.1-.2-.1-.3-.2-.1 0-.2-.1-.3-.2v.7c-.2-.1-.2-.2-.3-.3l-.1-.2h-.1c-.1.1-.2.2-.2.3-.1.1-.2.2-.2.3-.1-.1-.1-.2-.1-.3v-.3-.2c0 .1-.2.2-.3.3 0 0-.1.1-.2.1v-.1-.2c0-.1.1-.2 0-.3h-.2c0-.1.1-.1.1-.2s-.1-.1-.1-.1c-.1 0-.3 0-.4-.1 0-.1 0-.1.1-.1h.4s0-.1-.1-.1c-.1-.1-.1-.2-.2-.3H58.8c0-.1-.1-.2-.1-.4v-.1-.2c.1 0 .1.1.1.1.1.1.1.1.1.2v.1c.1.1.1.2.2.2v-.2-.1-.2-.1-.1-.1l.2.2c0 .1.1.1.1.2 0 0 0 .1.1.1s.1-.1.1-.2v-.1-.1l.1-.1s0 .1.1.1v.5c.1 0 .2-.1.2-.1 0-.1.1-.1.1-.2v.4c.1 0 .2-.1.2-.1H60.6c0 .1-.1.1-.1.2-.1 0-.1.1-.1.1l-.1.1c-.1.1-.2.1-.2.2 0 0 .1 0 .1-.1 0 0 .1 0 .1-.1.2-.2.3-.3.5-.4l-.1.1c0 .1-.1.2-.1.3l-.1.1-.1.1c.7-.1.7-.1.8-.1zM59.4 22.2V22v-.3l-.3.4.2.2.1-.1zm1.2-2.1l-.3.4c.1.1.1.2.2.3l.4-.5-.3-.2zm1.4.3l-.2-.2-1 1.3c.1.1.1.2.1.3l1.1-1.4zm.9.1l-2.1 2.9c.1 0 .2 0 .4-.1l2-2.7-.3-.1zm-4.5 4.6s-.1 0-.2-.1l.2.2.3-.4c-.1.1-.1.2-.3.3zm1.5-.2h-.2l-.6.8.2.2.7-.9c0-.1 0-.1-.1-.1zm-1.4-3.5h.1s0 .1.1.1l.5-.7-.2-.2-2.6 3.4.2.2 1.5-2.1c.2-.3.3-.5.4-.7zm-.2 1.8l-1 1.3.2.2.9-1.2c0-.1-.1-.2-.1-.3z"/>
  <path fill="#B49E5F" d="M59.7 28.1s.1 0 0 0c.1 0 .1-.1 0 0zm-.6.8zm2.2.4l.1.1h.1l1-1.3-.2-.2-.6.8s.1 0 .1.1c-.1.4-.3.5-.5.5zm.1-1.4v.2l.3-.3-.2-.2-.1.2c-.1-.1 0 0 0 .1zm-.9-.9l-.5.6c.1.1.1.2.2.2l.5-.7-.2-.1zm-1.1 5.2V32l-.4.5.2.2.5-.7c-.1.1-.2.1-.3.2zm3.7-3.5l-1.6 2.2c0 .1.1.1.1.2h-.2l-.3.3c0 .1.1.3 0 .3 0 0-.1 0-.2-.1l-.3.4.2.2 2.5-3.4-.2-.1zm-5.3 3.7l.2.2.8-1.1c0-.2 0-.4.1-.4 0 0-.1 0-.1.1l-1 1.2zm.4-2h.1l.2-.3c-.1-.1-.1-.1-.1-.2h.3l.1-.1c0-.1-.1-.1-.1-.2h-.1l-1.9 2.5.2.2 1.3-1.9z"/>
  <g fill="#B49E5F">
    <path d="M26.5 33.4c-.2-.3-1.8-2.8-3.5-5.3-1.6-2.5-3.2-4.9-3.2-4.9l.1-.1.1.2-.1-.3-.1.1c-.1-.1 0-.2 0-.2l8.9-5.8c.1-.1.2 0 .3 0 0 0 1.7 2.5 3.3 5.1 1.7 2.6 3.4 5.1 3.5 5.3.2.2.3.5.3.7 0 .4-.2.9-.5 1.1-.5.4-1.9 1.4-3.2 2.2-1 .6-3.3 2.1-3.9 2.4-.1.1-.3.1-.4.1-.7.2-1.3-.2-1.6-.6zm.3-.2c.2.4.8.7 1.2.6.1 0 .2 0 .3-.1.5-.3 2.9-1.8 3.9-2.4 1.3-.8 2.7-1.8 3.2-2.2.3-.2.4-.5.4-.8 0-.2-.1-.4-.2-.5-.2-.3-5.9-9-6.7-10.2L20.2 23c.7 1.2 6.2 9.7 6.6 10.2z"/>
    <path d="M28.3 21.6l-.2-.2.2.2zm6.3 7.6l-.3-.6c0-.1-.1-.2-.1-.3 0 0 0-.1-.1-.1l-.1-.1-.1-.1c-.1-.1-.1-.2-.2-.3l-.4-.8c-.2-.4-.9-1.1-1.1-1.3l-.7-.7-.2-.2-.3-.3-.2-.2.1.1-.1-.1c-.3-.3-.5-.5-.7-.6-.1 0-.1-.1-.2-.1-.2-.1-.5-.2-.5-.2s-.2-.3-.5-.6c-.2-.2-.3-.2-.4-.2v-.6s0-.1-.1-.1c-.2-.2-.4-.4-.5-.6.1-.1.3-.2.4-.3.1-.1.2-.3.2-.4v-.1-.2.2c0-.1 0-.2-.1-.2v-.1h-.1c-.1 0-.1.1-.2.1 0-.1-.1-.3-.2-.4l.1.1-.1-.2c-.1-.1-.1-.2-.2-.3-.1 0-.2.1-.3.2l-.1.1v.2c-.1 0-.2.2-.3.2-.1-.1-.2-.2-.2-.3l.1.1c.2.1.1.1.1 0-.1-.1-.2-.1-.3-.1h-.2c-.2 0-.5.1-.8.2-.4.2-.4.3-.8.2-.1 0-.2-.1-.2-.2l-.1-.1c-.1 0-.2.1-.3.1l-.4.4v.1c.1.2.3.3.3.4 0 0-.1.2-.1.3 0 .1.1.2.1.3h-.1s-.1 0-.2.1c-.2.1-.4.3-.4.6 0 .1.1.3.2.4.1 0 .1.1.1.1s-.1 0-.2.2 0 .3-.2.3c-.1 0-.2-.1-.4-.1-.2-.1-.3-.2-.3-.3-.1-.2.1-.6.1-.8v-.1-.1c-.1-.1-.2-.2-.4-.3h-.2c-.2 0-.3.1-.4.3v.1s0 .1.1.1c0 0 .1-.2.4-.1.1 0 .2.1.2.2s-.1.3-.2.4c0 .1-.1.3-.2.5v.5c.1.1.3.3.4.3l.1.1c.2.2.2.3.3.4.2.1.3.1.3.1s.1.2.2.5c.1.2.1.3.2.4.1.1.3.4.5.5.2.1.3.1.4.2.1 0 .1.1.2.1 0 0 .2.2.2.4V26.8c.2.4.6.7.7 1 .1.1.1.3.2.4 0 .1 0 .1.1.2 0 .1 0 .1.1.2.1.2.2.5.2.6 0 .1.1.2.1.2.2.3.7.8.9 1.2.1.1.1.3.2.4 0 .1 0 .2.1.2 0 .1.1.3.1.4 0 .1.1.2.1.3 0 .1.1.2.1.3.1.1.1.3.2.4.1.1.2.3.2.4l.2.4c.2-.1.2-.2.2-.2.9-.6 2.5-1.6 3.2-2 .8-.5 1.7-1.1 2.4-1.6 0 0 .1-.1.2-.1l.2-.3zm-4.4-5.3c0 .5.7.5 1 1-1-.3-2.1-.9-3.3-.8.1 0 .1.3.3.2 0 .2 0 .5.3.6-.1.5 0 1.1 0 1.6-.4 0-.9-.5-1.2-.8.3-.2.5-.3.7-.2.1-.9-1.4-1.4-1.1-2.2.2 0 .1.4.4.5.1-.1.1-.5.3-.2.4-.4 1.1-.4 1.5.1-.7 0-.9-.4-1.3-.2-.1.1.1.1.2.2.7-.2 1.2.4 2 .6 0-.2-.4-.4-.6-.4.1-.2.5 0 .8 0zm-.8 7.9l-.8-.8c-.3-.6.2.2.4.3-.8-1.1-2-2.6-2.1-3.9-.2-.1-.1.4-.2.3-.2-.5-.5-1-.2-1.5.9 1.2 1.9 2.4 3.1 2.3.2-.5.4-1.4.5-2 0 1.5-.8 3.5-.7 5.3zm-2.3-6c.8.9 1.2.8 2 1.2-.7-.5-.5-1.4-.6-1.9 1.4.2 1.3 2.1.7 2.9-.1 0 0 .1 0 .2-.9 0-2.1-1-2.6-2 .2-.2.2.1.3.1.1-.4.2-.4.2-.5zm-1.3-2.1c.5-.1.9-.4 1.1-.7-.2.7.2 1.6.9 2.1-.6.4-1.2 0-1.6-.6.1-.1-.2-.5-.4-.8zm-1.2-.9c.2-.1.2.2.4.3.1-.1.3-.1.1-.3.2-.1.1.2.2.2-.1 0-.2 0-.1.1-.3.1-.5-.2-.6-.3zm0 .4l-.2-.2c.1 0 .2.1.2.2zm.4-1.1c.1.1.1.4.1.6 0 0-.2-.3-.1 0-.3-.1.1-.4 0-.6zm-.2 1.2c.2.1.3.1.4.2-.1 0-.3 0-.4.1v-.2-.1zm.4-1.4c.1 0 .3.3.3 0 .4.1-.1.8.4.8.1-.1-.1-.2-.2-.2.1-.3.2-.6.1-1-.1.1-.1.2 0 .3-.2-.1-.3-.2-.5-.1 0-.1 0-.1-.1-.2.2 0 .3.1.5 0-.1-.2-.3 0-.3-.2.1-.1.2 0 .4-.3.2.1.4.4.7.4 0 .2-.2-.1-.3.1.2.1.4.1.6.1.2.2.1.6.3.4.2.2-.4.6-.2.9-.3.4-.8.6-1.2.6-.6-.6-.5-1.1-.5-1.6zm.2-1c.1 0 .1-.1.2-.1.1.1 0 .2.2.2.1 0-.4.1-.4-.1zm.6 0c.5.3.4.6 0 0zm1.3 1.3c.1 0 .3.5-.1.5.2-.3-.2 0-.2.1.1.3 1.3-.2.5-.8.1 0 .2 0 .1-.1.3.2.2.6 0 .8.1.1.2.1.4 0-.2.4-.7.2-1 .1-.1-.2.5-.3.3-.6zm-1.2 2.3c0 .3-.7-.5-.6-.6 0 0 .7.4.6.6zm1.5.7c0 .1-.5.4-.6.1.2-.1.4 0 .6-.1zm1-.3c.2-.3.5.2.7.3.2.2.2.4 0 .1-.2-.2-.4-.5-.7-.4zm1.1.4c-.4-.4-.8-.5-1.2-.8.2-.2.8-.1 1.1 0 .2.3.2.6.1.8zm-.4-1.8c-.5-.3-1-.6-1.6-.2.3-.4 1.5-.6 1.6.2zm-1.1-.6c.1-.3.1-.3 0-.8-.1.1.1.3 0 .4-.1-.1-.2-.7-.5-.8.2 0 .3.2.5.2.1-.1-.1-.1-.1-.2.4.3.5 1 .1 1.2zm-.7-1.3c.3-.2.6.3 0 0zm.3-1.3c0 .1.1.3-.1.4 0-.2-.1-.1-.2-.2.1-.2.2-.1.3-.2zm-.3.4h.2s.1 0 .2-.1h.1c.1-.1.1-.2.1-.3h.1c-.1-.1-.2-.2-.2-.3.2.1.4.4.4.6.1 0 .1-.1.2-.1.1.1 0 .3-.2.4h-.2-.1s.1 0 0 .1c0 0-.1.1-.2 0-.1 0-.2 0-.3-.1 0 .1.3.2.1.3-.1-.1-.1-.2-.2-.3 0 0-.1-.1 0-.2zm-.2.1c-.2 0-.1.1-.3.2-.1-.1 0-.2-.1-.3.2 0 .3 0 .4.1zm-.3-.2c-.1.1-.2.2-.2.4 0 .1.1.2.2.2.2.1.4 0 .4-.2l.1.1c.1.1 0 .2-.1.3l-.1.1h.3c.1 0 .3.1.4.2-.1.1-.1 0-.2 0h-.2c-.1 0-.2 0-.2.1-.1.1 0 .1.1.1.1.1.2.2 0 .2 0 0-.2-.1-.2 0 0 0 .1.1.1.2-.1 0-.3-.2-.4-.3 0 .1.1.2 0 .4 0 .1-.1.2-.2.3.1-.1.1-.3.1-.4 0-.1 0-.1-.1-.2 0 0-.1 0-.1-.1v-.1l.2-.1c0-.1-.3-.1-.4-.1h.2c.1 0 .1 0 0-.1 0-.1 0-.1-.1-.1 0-.1 0-.1-.1-.2s-.1-.1-.1-.2c0 0 0-.1-.1-.1.3-.3.6-.4.7-.4zm-.5-.5c.2 0 .3.2.5.3-.5 0-.6.8-.1.9-.1.2-.2.2-.4.1 0-.2.2.1.3 0-.4-.1-.5-.6-.8-.8 0 .1 0 .1-.1.2-.1-.2.1-.3.2-.5.1.1.4 0 .4-.2zm-.6.2c-.2.2-.3.5-.7.5.1-.3.4-.6.7-.5zm-.6.5c0 .1-.1.2 0 .4-.3.1-.7.3-.9-.2.2.1.5.2.7-.1-.1-.1-.3 0-.2-.2.2-.1.2.2.4.1zm-.2-.4zm-.8.3c-.1-.1-.1-.2-.1-.3 0-.1.1-.2.1-.2.1-.1.2-.2.4-.1 0 0 0 .1-.1.1.1 0 .2 0 .3.1h-.1c0 .1.2.1.3.1h-.2c-.1 0 0 .1 0 .1-.1 0-.2 0-.2.1v.2s.2.1.1.1-.3 0-.3-.1c-.1.1-.1-.1-.2-.1zm0 1.1c.1 0 .2 0 .3-.1 0-.1-.1-.1-.1-.2s-.1-.2 0-.3c.1 0 .1.1.2.1s.4 0 .5-.1v.1c0 .2-.1.3-.1.4-.1 0 0-.1 0-.2 0 0 0 .1-.1.1 0 .1-.1.1 0 .2.1 0 .2 0 .2-.1 0 .1-.1.1-.2.2s-.1.1-.1.2v.1c.1.1-.1.3.1.5-.2 0-.2-.3-.1-.4-.1.1-.1.2-.1.3-.2-.1 0-.4 0-.5 0-.1.1-.2.1-.2-.1-.1-.4 0-.5 0-.1 0-.1-.1-.1-.1zm.3.2c0 .1-.2.2-.1.4 0 0-.3-.4-.2 0-.1 0-.1-.1-.2-.2.2-.2.4-.2.5-.2zm-.5 0c.1.2-.2.5.1.6-.2.2-.5-.4-.1-.6zm.1 1c.2.2.2.3.2.5-.1 0-.1-.1-.2-.1 0-.1 0-.2.1-.2-.2-.2-.3.1-.4.2-.1-.2.1-.5.3-.4zm-1.7.3c-.2-.3 0-.8.1-.8v.2s-.1.4.2.8c0 .1.1.3.2.4-.2-.2-.3-.3-.5-.6zm.4.4c.6.4.7.1 1.1.2.3 0 .3.2.3.3h-.1s0-.1-.2-.2-.3-.1-.6 0c-.2 0-.4-.2-.5-.3zm.2.3c.1.1.2.1.4.1.6 0 .6.1.6.1h-.2c-.3.1-.6 0-.8-.2zm.7.8c-.1.1-.1-.2-.1-.3.1 0 .1-.1.2-.1 0 .1-.1.2-.1.4zm.2-.2c.2-.2.2-.2.5-.2v-.1c0-.1 0-.4-.4-.5-.4-.1-.8.2-1.1 0-.2-.2-.3-.4-.4-.6v.1c.1.1.3.3.5.3.3.1.5.1.9.2s.5.4.5.4v.1c0 .1.1.2 0 0 .2-.2.5-.4.8-.2-.2.3.6.6.3.9-.3-.4-.6-.4-1-.5-.4.4.4.7.6 1-.2.1-.3-.4-.6-.2.1.7 1.1.7 1 1.3-.5-.7-2-1-1.6-2zm1.5.8c-.2 0-.4-.1-.6-.3.2.1.6.1.6.3zm-.7-1c.2.2.6.3.7.6-.3-.1-.5-.4-.7-.6zm0-.1c.3 0 .4.1.7.3-.1.3-.5-.2-.7-.3zm.5 1.8c.1 0 .2.2.3.2.3-.1.2-.4.4-.3.2.4 0 1 .1 1.5-.3-.3-.5-.9-.8-1.4zm.9-.1c-.2-.1-.3-.3-.5-.3-.2-.3 0-.6-.1-.9.3-.1.5 0 .8 0 .2.3.6.6.8.9-.2.1-.3-.2-.4-.3-.2.1.1.2 0 .3-.1 0-.1-.2-.2-.1 0-.3-.3.1 0 .1.2.2.1.3.1.4.2.4-.1-.1-.1-.1-.3-.2-.3.1-.4 0zm0 1.3v-.2c.1 0 .4 1.2 0 .2zm.2.6c.5.7.6 1.5 1 2.2-.5-.5-.9-1.6-1-2.2zm6.8 2.4c.2-.4.1-.8.2-1.2.3.2.4.5.5.8-.3.1-.5.2-.7.4zm.1-1.5c.1-.2.6.4.6.6-.2-.1-.3-.5-.6-.6zm.8.8c0-.5-.4-1-.8-1.1 0-.5-.1-1-.4-1.5-.1.4.4 1 .2 1.4-.3-.1-.6-.2-.8-.5-.3.2-.3.3-.1.6.2-.1 0-.2.1-.3.1.3.5.3.5.4-.3-.1-.6.3-.6.5 0 .1.1.1.2.2 0 .4.2.4.3 0 .1 0 .1 0 .2.1.2-.1 0-.3.3-.4.4.6-.5 1.9-.5 1.9-.2.1-.3.2-.5.3-.7.4-2.3 1.5-3.1 2-.1-.1-.1-.2-.2-.3.1 0 .1 0 .2.1-.1-.5-.6-.8-.7-1.2 0-.2.6.8.7.8-1-1.3-1.9-3.1-2.4-4.7.1-.1.3.4.3.1.1.6.6 1.7 1.3 2.8.4.6.5.7.9 1.3.1.1.5.6.5.7 0-1.3.3-3.6.3-3.6l.3-.5s.5-2 0-3c1.2 1.3 1.7 4.5 2 4.7-.1-1.8-.6-3.7-2.2-5.6.9.1 2.6 1.6 2.5 1.4.3.2 1.2 1.4 1.2 1.9.4.5.7 1 .9 1.5-.4-.1-.5 0-.6 0zm-9.8-9.2s0 .1 0 0c-.1.1-.1.1 0 0zm2.2 5.4c-.1-.1-.2-.2-.4-.1.2.2.3.2.4.1zm1.6-5.4zm-1.9 1.7c.2 0 .3.1.5 0-.1-.1 0-.2-.1-.3-.2 0-.3-.1-.5 0 .2.2 0 .2.1.3zm4.2 6c-.1.5.1.7.1.7s.1 0 .1-.8 0-1.2-.2-1.6c.1.6 0 1.5 0 1.7zm-4.7-5c.3-.1.5 0 .5-.2-.3 0-.5-.2-.8 0 .3.2.4 0 .3.2z"/>
  </g>
  <path fill="#B49E5F" d="M39.6 15.9h.3c.1 0 .2-.1.2-.1l-.2.1c-.2-.1-.3-.1-.3 0zm1.6-6.6c-.1.1-.2.3-.3.3.1 0 .2 0 .2-.1.1 0 .1-.1.1-.2.1 0 .1-.1.2-.1l.2-.2c-.2.1-.3.2-.4.3zm-1.7 13.9c.2 0 .4-.3.4-.5-.1.1-.2.3-.3.3v-.1c0 .1-.2.2-.2.2-.1 0 .1-.1.1.1zm.5-1.8c.2.1.4.2.7.1-.2 0-.6-.1-.7-.1.1-.1.2-.1.3-.1-.1 0-.2 0-.3-.1-.1 0-.1-.1-.2-.2 0 .2 0 .3.2.4zm4-7.4c-.1-.3-.4-.5-.4-.8v.3c0 .2.3.3.4.5zm-.2-.7zm-1.5 2.2c-.2.2-.4.1-.6.2h.2c.1 0 .3-.1.4-.2zM40 20.6zm-1-5.9c.2-.1.3-.1.5-.1.1 0 .2.1.2.1s-.1-.1-.2-.1h-.2c-.1 0-.3-.2-.4 0 0 0 .1 0 .1.1zm1.8-5.4s-.1.1-.1.2c-.1.1-.2.2-.3.2.1 0 .3-.1.3-.2s.1-.1.1-.2c.1 0 .1-.1.2-.2-.1 0-.1.1-.2.2zm.1.1l-.1.1c.1 0 .2-.2.3-.3-.1.1-.1.2-.2.2zm1.9-.3c.1 0 .2-.1.3-.1H44h-.4c-.2 0-.4 0-.6.1-.2 0-.3.2-.4.3-.1 0-.1.1-.2.1h-.2c.1 0 .1-.1.2-.1.1-.1.2-.1.3-.2.2-.1.3-.2.5-.3.3-.1.5-.1.8 0 .1 0 .2.1.3.1.1 0 .2.1.3.1h-.1c-.3-.1-.6-.2-.9-.2-.3 0-.5 0-.7.2-.2.1-.3.2-.5.4l-.2.2-.1.1H42.4c.1 0 .2 0 .3-.1-.1-.4 0-.5.1-.6zm-1.3 9.5c-.1.7-.4 1.2-1.2 1.2-.1.2.4 0 .5 0 .3 0 .5 0 .7-.2h-.2c.2-.1.4-.2.4-.4-.1.1-.2.2-.3.2.1-.1.2-.5.1-.8zm-.7 2.2h.4c-.2 0-.5-.1-.7-.2 0 0 .2 0 .3-.1-.1 0-.4 0-.4-.2v.1s.1 0 .1.1h-.1-.1s-.1 0-.1-.1c0 0 0-.1-.1-.1 0 .1.1.2.1.3-.1 0-.3-.1-.4-.2v.1l-.1-.1c0 .1.1.2.2.3.1 0 .2.1.3.1-.1-.1-.2-.1-.2-.3.1 0 .2.1.2.1.1.1.3.1.4.1-.1 0-.2-.1-.2-.1-.1 0-.1-.1-.2-.1.1 0 .1 0 .2.1.2.2.3.2.4.2zm.9-4.7l-.2-.2c-.1 0-.1-.1-.2-.1h-.2.1c.1 0 .2.1.3.1.1.2.1.2.2.2l.1.1s-.1 0-.1-.1zm6.1-1.6c-.1-.1-.2-.1-.3-.2-.1 0-.1-.1-.2-.1.1.1.3.2.5.3l.3.3c.1 0 .1.1.2.2 0-.1-.2-.2-.2-.2-.1-.2-.2-.3-.3-.3zm1.1-.1c-.1-.1-.2-.1-.3-.2-.1-.1-.1-.2-.2-.3-.1-.1-.1-.2-.2-.2l-.1-.1.1-.1c-.1-.1-.2-.1-.3-.2 0 0-.1 0-.1-.1v-.1c-.1 0-.3-.1-.4-.2-.1-.1-.2-.2-.4-.3-.1-.1-.2-.2-.4-.3 0 .1.1.1.1.2-.1 0-.2-.1-.3-.1l-.3-.3c0 .2.1.3.2.5.1.1.3.2.3.3v.1h-.1c0 .1.1.1.1.1l.2.2.3.3s.1.2.2.2 0-.2.1-.1c.2.2.3.5.6.4l-.1-.1-.2-.2s-.2-.2-.1-.3c.1-.1.3.1.4.1 0 0-.2-.1-.1-.2.1 0 .1 0 .2.1l.3.3c.1.5.4.7.5.6zm-.2 2.8c-.1-.2-.1-.3-.1-.5l-.1-.1v.5c0 .1 0 .1.1.1 0-.1-.1-.2 0-.2 0 0 .1.1.1.2zm-4.4-3.6c-.1-.1-.1-.1-.1-.2 0 .1.1.2.2.3 0 .1.1.1.2.2v.1c-.1-.1-.3-.3-.3-.4zm-.6-.5c-.1-.1-.2-.3-.2-.5v-.2c-.2.1.1.7.2.7zm.4.8c0 .1.1.2.1.2 0 .1.1.1.1.2l.1.1c0-.1-.1-.3-.2-.4 0-.1 0-.1-.1-.1zm-.7-2.5v-.2c-.1.2-.2.5-.2.7 0 .2.1.5.1.7v-.5c0-.2.1-.3.1-.5v-.2zm5.4-1.8l-.4-.4-.2-.1c.2.1.3.2.4.3.1 0 .1.1.2.2s.2.2.3.2c.2.1.5.2.7.3.2.1.4.2.5.3-.1-.2-.4-.3-.6-.4l-.2-.2c-.1-.1-.2-.1-.3-.2-.2-.1-.3-.2-.4-.4-.1-.1-.2-.2-.4-.2 0 .1.1.1.2.1v.1c.1 0 .1.1.2.1.1.1.2.2.3.4.1.1.2.1.2.2s-.4-.3-.5-.3zm1.1 9.4c.1-.1.1-.2.1-.2 0-.1.1-.2.1-.3 0-.2 0-.3-.1-.4 0 0-.1-.3-.1-.2.1.1.1.4.1.5 0 .2 0 .5-.1.6zm.7-5.7c.1-.1.1-.4.1-.6 0-.2 0-.4-.1-.5-.1-.2-.3-.4-.5-.4l.1.1c.2.1.3.4.4.5v.4c0 .1.1.2.1.3-.1 0-.1.1-.1.2zm-1.1 5.6c0 .2.1.3.1.5v.1c.1-.2.2-.5-.1-.6zm-.6-3.2zm-.1 1.3zm1.2.6c0-.2 0-.2.2 0v-.2-.4-.5c0-.2-.2-.3-.3-.5-.1-.2-.4-.4-.6-.6-.1-.2-.3-.3-.5-.4-.1-.1-.3-.2-.4-.2 0 .1.2.2.3.3.1.1.3.2.4.4 0 .1 0 .1.1.2l.1.1c.1.1.1.2.2.3-.1 0-.3-.2-.4-.3-.1 0-.2-.1-.3-.2l.3.3.3.3c.1.2.3.4.3.6-.3-.2-.4-.6-.7-.8 0 .1.4.5.3.5-.1.1-.3-.2-.4-.3 0 .2.3.5.5.6l.2.2.1.1c.2.3.3.4.3.5zm-6.2-4.3c0 .1.1.2.2.2-.1-.1-.1-.2-.2-.2zm5.3 4.2c-.1-.2-.2-.3-.3-.5.1.2.2.4.2.6v.4c.1-.1.2-.5.1-.5 0-.1 0 0 0 0zm-4.6 3.7l-.1.1s.1 0 .1-.1zm.9.3c-.1 0-.1 0 0 0-.1 0 0 0 0 0zm-1 .1c0 .1 0 0 0 0-.1 0-.1-.2 0-.3 0 0 0 .1-.1.1-.1.1-.2.2-.3.2-.2.1-.4.1-.7.1.2.1.6 0 .8-.1 0 .1-.2.2-.3.2.2.2.5 0 .6-.2zm-1 2.3c-.1.2-.2.5-.3.7 0-.1.2-.1.3-.2.1-.1.3-.8.4-1 .2-.3.3-.6.3-1-.1 0-.2.2-.2.2-.1.1-.1.4-.2.6l-.2.2c0 .1.1.1.1.1 0 .1-.1.1-.1.2s0 .2-.1.2zm-4.9-4.5c0 .1-.1.1-.1.1v-.2s-.1.1-.1.2c0 0 0-.1.1-.1 0-.1.1-.1.1-.2s.1-.1.1-.2c0 .1-.1.3-.2.4-.1.1-.1.2-.2.2.1 0 .1-.1.1-.1.1-.1.1 0 0 .1l.1-.1v.1s.1-.1.1-.2zm.7.7l.1-.1c.1-.1.1-.1.1-.2v-.2c0 .1.1.2.1.3 0 .1-.1.2-.2.2.1 0 .2.1.3.1 0 .5.2.6.4.7-.1-.1-.3-.3-.3-.4v-.1l.1.1c-.1 0-.1-.1-.1-.2l.1.1-.1-.1s0-.1-.1-.1v0h-.1v-.1c0-.1.2-.2.2-.4 0 0-.1 0-.1-.1-.1-.2-.1-.4-.3-.5-.2-.2-.3-.2-.5-.2l.1.1.2.2v.4c.1 0 .1-.1.1-.1v.2c0 .1.1 0 .1 0 .1.1.1.2 0 .3l-.1.1zm1.7 2.7c.1 0 .1 0 0 0 .2 0 .2 0 .3-.1.1-.1.4-.2.5-.3-.1 0-.2 0-.3.1-.1.1-.2.1-.3.2-.1 0-.2 0-.2-.1-.1.1-.2.3-.3.2v-.2c0 .1-.1.3-.2.2 0 0 0-.1.1-.2v-.3c-.1.1-.1.3-.2.4-.1.1-.2.3-.3.3h.3c.1 0 .2-.2.3-.2v.1h.1c.1 0 .2-.1.2-.1zm4.7-1.7v-.4l.1.1c.2-.2-.1-.7-.2-.8.1 0 .1.1.1.1-.1-.1-.2-.2-.2-.4v-.3-.2l.1.1c0-.1-.4-.8-.3-.9v.1c0-.1-.1-.2-.1-.3 0-.1-.1-.2-.1-.3 0-.2 0-.4.1-.6 0-.1.1-.2.1-.3-.1.1-.2.2-.2.3-.1.1-.1.2-.1.4s.1.6 0 .8v-.1c0 .3.1.7.1 1.1.1.3.2.5.2.8 0-.1-.1-.1-.1-.2 0 .2.2.8 0 .9v-.2c0 .2 0 .3-.1.5 0 .1 0 .2-.1.3v.1c-.1.2-.1.3-.2.4-.1.1-.4.2-.5.2.2-.1.4 0 .5-.2.2-.2.4-.3.6-.5 0-.1.1-.1.1-.2.1-.1.2-.2.2-.3zm-7.2-2.3c.1-.1.1 0 0 0 .1 0 .1 0 .2.1v.2c.1 0 0-.1.1-.2h.1s.1.1.1 0v.1c.1 0 0-.1 0-.1-.1-.1-.1-.2-.3-.2h-.1-.1v.1l-.1.1c.1 0 .1-.1.1-.1zm3.3 8.8s-.1 0 0 0c-.1 0-.1 0 0 0-.1 0 0 0 0 0zM52 14.1v0zM42 27.5h-.3c0 .1.1.1.3 0-.1.1 0 .1 0 0zm2-21.4C38 6.1 33.1 11 33.1 17c0 4.5 2.7 8.3 6.6 9.9-.1-.1-.1-.2-.1-.3.1-.2.2-.3.3-.5l.1-.1c.4-.3.5 0 .6.1.1.4.5 1 .5 1.1 0 .1 0 .1.1.2.2 0 .3.1.5.1 0 0 0-.1-.1-.1v-.1h-.1c.1-.1.5-.1.6-.2-.1 0-.3 0-.4.1 0 0-.3.1-.3 0s.3-.1.3-.1c.1 0 .6-.2.6-.3-.2 0-.3.1-.4.2-.2.1-.4.2-.6.2v-.1c.1-.1.3-.1.4-.2.1-.1.6-.2.6-.3-.1 0-.2.1-.3.1-.1 0-.3.1-.4.2-.1 0-.2.1-.3.1-.1-.1.1-.2.1-.2.1-.1.2-.1.3-.1.1 0 .4-.2.5-.2-.1 0-.4.1-.5.2-.2.1-.4.3-.7.2 0-.1.2-.1.3-.1.1-.1.6-.3.8-.4-.2 0-.4.2-.6.2-.1 0-.5.2-.5.1s.3-.1.3-.1c.1 0 .5-.2.5-.2-.1 0-.9.3-1 .2 0-.1.7-.2.7-.3-.1 0-.2 0-.3.1-.1 0-.2.1-.3.1h-.2c0-.1.1-.2.2-.2h-.2c0-.1.4-.2.5-.3.5-.2 1.1-.4 1.6-.6.8-.3 1.6-.6 2.3-.9-.4.1-.9.3-1.3.5-.6.2-1.1.4-1.7.5-.3.1-.7.3-1 .4-.2.1-.3.1-.5.2-.1 0-.1.1-.2.2v-.4-.5c.1 0 .6.2.7.1-.1 0-.5-.3-.6-.3-.1-.1-.3-.2-.4-.3 0-.1-.1-.3-.1-.3.3-.2.7-.2.8-.3.3-.2.6-.3.9-.4.2-.1.5-.2.7-.3.1 0 .3 0 .4-.1l.1-.1c.1 0 .1-.1.2-.2 0 0 .1-.1.2-.1s.3-.2.4-.3c-.1 0-.1.1-.2.1l.2-.1c-.1.1-.3.1-.5.2-.2.2-.4.2-.7.3h.2c-.1 0-.1.1-.2.1H42l.1-.1c-.1 0-.2 0-.2.1 0 0 0-.1.1-.1-.1 0-.2.1-.3.2h-.2-.1v-.1c-.1.1-.1.2-.2.2h-.1c0-.1.1-.1.1-.2-.1.1-.2.2-.4.3v-.1c-.1 0-.1.1-.2.1-.1.1-.2.1-.3.2h-.1-.1c.1 0 .3-.1.3-.2-.2 0-.3 0-.5.2h-.3l.1-.1c-.1 0-.1.1-.2.1h-.2v-.1.1h-.1v-.1c0 .1-.1.1-.1.2H39h-.1v-.1c0-.1 0-.2-.1-.3 0 .2-.2.5-.4.6h-.1s.1-.1.1-.2c-.2.1-.3.3-.5.3v-.1c-.2.2-.7.3-1 .1l-.1-.1v.1c.1.1.2.1.3.1-.1 0-.1 0-.2-.1 0 0-.1-.1-.1-.2h-.1c-.1 0-.1-.1-.1-.2s-.1-.1-.1-.2l-.2-.2c0-.1 0-.2-.1-.3v.1c-.1-.2-.1-.5 0-.7.1-.3.4-.5.4-.9v-.1.1c0-.1.1-.2.1-.2v-.2c-.2.1 0-.3 0-.3v-.1c0 .1 0 .1 0 0l.1.1v.4c0 .1 0 .2.1.3v-.1c.1 0 .1.1.2.2s.1 0 .1.1c0 0 .1.1.2.1 0-.2.4.1.4 0 0 0-.1-.1 0-.1s.2.1.3 0c0 0-.1 0-.1-.1.1 0 .2.1.3 0h-.1c.1-.1.2-.1.3-.2.1-.1.1-.3.1-.4 0-.1.1-.2.1-.3 0-.1 0-.2-.1-.2v-.1-.1c.1 0 .1 0 .1-.1h-.1v-.1l-.1.1v-.1l.1-.1c0 .1-.2.2-.2.1l.1-.1c0-.1 0 0 .1-.1 0-.1.1-.2.1-.3 0 .1-.2.2-.2.3l-.1.1c.1-.1.1-.2.1-.3-.1.1-.1.2-.2.3 0 0 0-.1-.1-.1 0 0-.1 0 0-.1s.1-.1.1-.2c-.1.1-.2.2-.3.2 0-.1.1-.1.1-.2l.1-.1s0-.1.1-.1c0 .1-.4.4-.4.3 0-.1.1-.1.1-.2 0 0-.1 0-.1.1h-.1l-.1-.1c.1-.1.2-.2.2-.3.1-.1.1-.2.1-.3 0 .1-.1.1-.1.1 0 .1-.1.1-.1.2-.1.1-.1.2-.2.2 0-.1.1-.1.1-.2 0 .1-.1.2-.2.2v-.1c0 .1-.1.1-.2.1v-.1l.1-.1c.1-.1.2-.2.2-.4l-.2.2c0 .1-.1.2-.1.3h-.1v-.1c0-.1.1-.2.1-.2 0-.1.1-.2.1-.2 0 .1-.1.2-.1.3 0 .1-.1.1-.1.2h-.1-.1v-.1-.1c-.1 0-.2.3-.2.1h-.1c-.1 0 0-.1 0-.1s0-.1.1-.2c0-.1.1-.1.1-.2-.1.1-.1.2-.2.3 0 .1-.1.1-.1 0l-.1.1v-.2s.1-.1.1-.2c-.1 0-.2.2-.3.2 0 0 0-.1.1-.1-.1.1-.1.2-.1.2v-.1-.1c0-.1.1 0 .1-.1l-.1.1-.1.1v0c0-.1.1-.1.1-.2 0 0 .1 0 .1-.1-.1.1-.1.2-.2.2v-.1c-.1 0-.1.2-.1.3 0 0-.1 0-.1-.1V19v-.1c0-.1-.1-.1 0-.2 0-.1.1-.1.1-.1l.2-.2s.1-.1 0-.1v-.1-.1c.1 0 .1-.1.2-.1v.1h.1v.1s.1 0 .1-.1l-.1.1.2-.1-.1.1.1-.1s.1 0 .1-.1v.1h.1c0 .1-.1.1-.1.1v.1c.1 0 .2-.1.2-.2V18h.1v-.1s.1 0 .1-.1v.1c0 .1-.1.2-.1.3 0-.1.1-.2.2-.2v.2s.1 0 .1-.1c.1 0 .1-.1.2-.1 0 0 .1 0 .1.1l.1.1c0-.1-.2-.2-.2-.2-.1-.1-.2-.2-.1-.3h.1c.1 0 .3 0 .4.1 0-.1-.1-.1 0-.2.1 0 .1.1.2.2v-.2s.1 0 .1.1c0-.1-.1-.3-.1-.5v-.1.1c.1.2.1.3.2.5 0 .1.1.2.1.2-.1-.1-.1-.3-.1-.5s-.1-.4-.1-.5c-.1-.1-.1-.2-.2-.2h-.1s-.1 0-.1-.1c-.1 0-.1 0-.2-.1 0 0 .1 0 .1.1l.1.1.1.1v.2c0-.1-.1-.1-.1-.1s.1.1.1.2L38 17l.1.1-.1-.1.1.1-.1-.1s.1.1 0 .1l-.1-.1c-.1 0 0 .1 0 .1 0 .2-.1 0-.1 0-.2-.1 0 .1 0 .2v.1s0-.1-.1-.1v.2s0-.2-.1-.2.1.1 0 .2c0 0 0-.1-.1-.1v.1c-.1-.1-.2-.1-.2-.2-.1 0-.2-.1-.3-.1h-.3c-.1 0-.5 0-.4.1 0 .1.1.1.2.1s.2.1.3.1v.1c-.1 0-.3-.1-.4-.1-.2 0-.3-.1-.5-.2 0 0-.1-.1-.2-.1v-.1-.2-.1-.1s0-.1.1-.2.3-.3.3-.5c0 0-.1 0-.1.1.1-.1.2-.2.2-.3l.2-.2.2-.2.2-.2c.1-.1.1-.2.2-.2.1-.1.2-.3.3-.4.1-.1.1-.2.1-.3 0-.2.1-.4.1-.5 0-.1 0-.1-.1-.1 0-.1-.1-.1-.2-.2 0 0 0-.1-.1-.1-.2-.4.1-.9.3-1.3.1-.2.2-.4.3-.5s.7-1.2 1-1.6c.3-.4.6-.7.8-.8h.1c.4.6.4.5.4.5h.1v-.1c0-.1.1-.2.1-.3 0 .1 0 .1.1 0 0 0 .1-.1.1-.2s.1-.2.1-.2c0-.1.1-.2.1-.2-.2.1-.3.3-.4.5V9s0-.1.1-.1l.1-.1c.3-.3.6-.4.9-.6.1 0 .2-.1.4-.2h-.1c-.1 0-.2.1-.2.1-.1 0-.2.1-.2.2s-.1.2 0 .1c0 0 .1 0 .1-.1.1-.1.2-.1.3-.2.1-.1.3-.2.5-.2h.4c.4 0 .5.1.8.1.8 0 1-.2 1.7 0 .4.1.7.2 1 .4 0-.1-.1-.1 0-.1h.1c.1 0 .2.1.4.1.3.1.5.2.8.3-.1-.1-.2-.1-.4-.2.1 0 .2.1.4.1.1 0 .2.1.3.1.1 0 .2 0 .3.1.1.1.2.1.3.2.1 0 .2.1.3.1.1 0 .2.1.3.1.3-.1.2-.1.1-.2s-.2-.1-.3-.2h.3c.2 0 .3.1.5.2s.3.2.4.3c.1.1.3.2.3.4v.1c.1.3.5.6.7.9.1.2.4.5.4.7v-.1.1c-.1-.2-.2-.2-.3-.4.1.1.1.2.1.3-.2-.1-.2-.3-.4-.3.2.2.3.5.4.7v-.2c.1.1.1.2.2.3 0 .1 0 .2.1.3v.3c-.1 0-.2-.3-.2-.4-.1-.1-.2-.4-.3-.3 0 .1.1.2.1.3.1.2.2.3.3.5.1.1.1.3.1.4v.4c0 .1.1.1.2.2v.1c0 .1.1.2.1.3 0 .1.1.2.1.3h.1c0 .2 0 .5-.1.7.2-.2.2-.4.2-.6v.1c0-.1.1-.2.1-.3v-.2-.4c.1 0 .2.3.2.6v0c0 .4-.2.8-.3 1.2 0 0 0-.1.1-.1 0 .1 0 .3.1.4 0-.1 0-.2.1-.3.1.1.1.4.1.5v.5c.1-.1 0 .3-.1.2 0 .1.1.3 0 .5-.1 0-.1-.1-.2-.2 0 .1.1.3.1.4 0-.1-.2-.2-.2-.4l-.3-.3c.1.2.1.3.2.4.1.1.2.3.2.4v.2c0 .1-.1.2-.1.3 0-.2-.1-.4-.2-.5-.1-.2-.2-.3-.3-.4 0 .2.2.4.3.6 0 .1.2.3.1.4 0 0 0-.1-.1-.1-.1-.1-.1-.2-.2-.2.1.2.2.5.2.8 0 .2.1.4-.1.6 0 .1 0 .1-.1.1V19c-.2.4-.3.7-1 1.4.2-.4.3-.5.2-.6-.1.1-.1.2-.2.3l-.3.4s.2-.4.2-.5c0 0-.1-.1-.1-.2v.2c-.2-.1-.1-.3-.2-.5-.1 0 0 .2 0 .3-.1-.1-.1-.4-.1-.6v.4l-.1-.1c-.1-.1-.1-.2-.2-.4 0 .1-.1.3-.2.3-.1-.1-.1-.3-.2-.5 0 0-.1-.1-.2-.1l-.1.2c-.1.1-.2.2-.3.2-.1-.2 0-.4 0-.6 0-.2.1-.4.2-.7-.1.1-.3.3-.3.4 0 .1 0 .1-.1.2-.1-.2-.2-.5-.2-.8 0-.2.1-.3 0-.5v-.1-.1c0-.2 0-.4-.1-.6v-.2c.1 0 0-.3.1-.3 0 0 0 .1.1.1.1-.1.1-.3.1-.4v-.1-.2l.1-.1c0-.1 0-.2-.1-.3-.1-.1-.2-.2-.4-.3-.1-.1-.2-.2-.4-.3-.1 0-.1-.1-.2-.2s-.2-.1-.2-.1c-.1-.1-.1-.1-.2-.1s-.2-.1-.3-.2c-.1-.1 0-.1 0-.2h-.1c-.1 0-.1 0-.2-.1s-.1-.2-.2-.3l-.2-.2s-.1-.1-.3-.2c.1.1.2.2.2.3 0 .1.1.1.1.1v.1c-.1 0-.1-.1-.2-.2s-.2-.1-.2-.2c-.2-.1-.3-.2-.5-.4 0 .1.1.1.1.2.1.1.3.2.4.4.1.1.1.2.2.3.1.1.1.1.1.2 0 0 .1.1.1.2s-.1 0-.2 0l-.3-.3c-.1-.1-.2-.3-.4-.4 0-.1-.1-.1-.2-.2.1.1.1.2.2.3.1.1.1.2.2.3.1.2.3.3.4.4.1.1.3.2.4.3.1.1 0 .1-.1.1s-.3-.1-.4-.2c-.1-.1-.2-.2-.2-.3-.2-.2-.3-.4-.6-.4.1.1.1.2.2.2.1.1.2.1.2.2-.1 0-.2-.1-.3-.1.1.1.2.1.2.1.1.1.2.2.3.2l.2.2c.1.1.3.1.4.2 0 0 .2 0 .2.1h-.5c-.3-.1-.5-.3-.7-.5-.1-.1-.3-.2-.4-.3-.1-.1-.2-.3-.4-.3l.1.1c0 .1.1.1.1.2l.2.2c0 .1-.2 0-.2-.1 0 0-.1 0-.1-.1l-.1-.1c0 .1.1.1.2.2s.1.2.2.3l.3.3c.1.1.4.1.4.3-.2.1-.3-.1-.5-.2-.1-.1-.2-.1-.3-.2-.1-.1-.3-.2-.4-.3.1.3.3.5.5.7.1.1.2.2.3.2 0 0 .1.1.1.2-.1 0-.3-.1-.4-.2-.2-.1-.2-.3-.4-.4v-.1c0 .1.1.1.1.2.1.1.1.2.2.3.1.1.2.2.4.2.1.1 0 .1 0 .2 0 0 0 .1-.1.1 0-.1.1-.1.1-.2h-.2c0-.1-.1-.1-.2-.1-.2-.2-.4-.5-.5-.8-.1-.1-.1-.2-.1-.3 0-.1-.1-.1-.2-.2 0-.1-.1-.1-.1-.1 0 .1.1.1.1.2.1.1.1.2.1.2.1.1.1.2.2.3.1.1.2.3.2.4-.1 0-.1-.1-.1-.1 0-.1-.1-.2-.1-.2-.1-.2-.2-.5-.3-.7-.1-.2-.2-.3-.4-.4-.1-.1-.2-.3-.3-.4 0 .1.3.4.4.5.1.1.1.2.2.3l.2.2v.1c0 .3.1.6-.1.9.1 0 .1-.2.2-.2v.1h-.1c0 .1-.1.1-.1.2 0 0 0 .1-.1.1.3.8.2.8.3.9 0 0 0-.1.1-.1l.1-.1c.1-.1.1-.2.2-.2v.1c0 .1-.1.1-.1.2v-.1c0 .4-.4.9-.6 1.1l.4-.4c.1-.1.1-.2.2-.3v.1c0 .1 0 .2-.1.2.1 0 .1-.1.2-.2 0-.1.1-.1.1-.2 0 0 .1-.1.1 0s-.1.3-.1.4l.2-.2.1-.1c.1.1 0 .2 0 .3.1 0 .1-.3.2-.3 0 .1-.1.3-.2.4-.1.1-.2.3-.3.4-.1.2-.2.4-.2.7v.4c.1-.6.2-.7.4-1.1.1-.1.1-.2.2-.3 0-.1.1-.2.2-.2v.1c-.1.1-.1.3-.1.4 0-.1.1-.2.2-.4 0 0 .1-.1.1-.2 0 0 0-.1.1-.1-.1.2-.1.4-.1.5v.3c0 .1 0 .1.1.2h-.1c0 .1.1.2.2.2 0-.1-.1-.2-.1-.3 0 0 0-.1-.1-.2.1 0 .1.1.2.1 0-.1-.1-.3 0-.4 0 .1 0 .1.1.2 0-.3.2-.5.4-.7.2-.2.3-.3.5-.4.1-.1.2-.3.3-.3.1-.1.2-.1.3-.1.2 0 .4 0 .5.1h.1c.1 0 .1.1.2.1.1.1.2.2.3.4 0 .1 0 .1.1.2v.4l-.1.3v-.2c0-.1 0-.2-.1-.3v.7c-.1.2-.2.5-.3.7 0 .1-.1.2-.1.3v-.2c-.1.4-.5.7-.8.9-.2.1-.3.3-.4.4-.1.1-.2.1-.3.1h-.1-.1v.1h-.1c-.1.1-.2 0-.3-.1 0 .1.1.1.1.2h-.1c0 .1.1.1.2.1h.3s.1 0 .1.1h.1c.1 0 .4-.1.6-.1h.1c.3 0 .5-.3.8-.5 0 .1.2.1.3.1 0 0 .1.2.1.3l.1-.1c.1.1.2.6.4.7.1.1.2-.1.3 0 .1.1.2.2.4.3.1 0 .2.1.3.1.2-.3.4.6.2.8-.2.2-.4.3-.4.3-.5.3-.8.6-1.3.9-.5.3-1.3.9-1.6 1-.2.1-.7.6-1 .6.1 0 .1 0 .2-.1.3-.1.6-.3.8-.4.2-.1 3.6-2.3 3.8-2.4v.3c-.4.5-.8.7-.9.9-.9.8-1.4 1-3.5 2.6-.6.5-1.7 1.6-2.6 2.2-.2.1-.5.4-.8.5h-.1c.5.1 1.1.1 1.7.1 6 0 10.9-4.9 10.9-10.9S50.1 6.1 44 6.1zm-.5 16.4c0 .1 0 .1 0 0 0 .1 0 0 0 0zm-6.6-2.7s.1 0 0 0H37.2c.1 0 .2.1.3.1h.2c.1 0 .2.1.3.1h.3c.1 0 .1.1.1.1.1 0 .1.1.2.1h.1l.1.1c0 .1-.1.1-.1.2l.1-.1c.1.1 0 .1-.1.2h.1c0 .1-.1.1-.1.1.1 0 .2-.1.2-.2 0 .1 0 .1-.1.2 0 .1-.3.1-.3.2h.1c-.1.1-.3.2-.4.3h-.3c-.1 0-.2 0-.2-.1-.1 0-.2 0-.2-.1h-.1-.1-.1l.1-.1h-.1l.1-.1h-.1v-.1h.2c-.1 0-.3-.1-.3-.2 0 0 .1.1.2 0-.1 0-.2-.1-.3-.2h.2c-.1 0-.2-.1-.3-.2-.1-.1-.1-.2 0-.3zm-.6-1s.1 0 0 0c.1 0 0 0 0 0zm14-9.2c0 .1 0 .1 0 0 0 .1 0 .1 0 0zm1.8 13.2c-.2 0-.5.3-.8.5.1-.2.4-.4.3-.6-.3 0-1.3 1.2-1.6 1.3.1-.2 1.2-1.4 1.2-1.5-.2-.1-1.8 1.6-2 1.7.1-.1 1.5-1.7 1.5-1.9l-2.2 2c.2-.4 2-2.2 2.2-2.4l-.3-.4c.3.2 1 .8 1.4 1 .3.1.5.2.8.3h-.5zm-6.9-5.9v0zm-.3 4.7zm-6.2-6.2s0-.1.1-.1c0 0 0 .2.1.2 0 .1.1.2.1.2s.1.2.2.1c-.2 0-.2-.1-.2-.2v-.1c0 .1.1.1.2.1h-.1.1s-.1 0-.1-.1c.1 0 .2.1.3 0-.3 0-.2 0-.2-.1l-.1-.1v-.1s0 .1.1.1c0 .1 0 .1.1.1h.2c.1 0 .2-.1.2-.3V15c.1 0 .3 0 .4.1.1 0 .2.1.3.2 0 0-.2 0-.2.1H40s-.1 0 0 0h.1c.1 0 .2 0 .3-.1h.1s.1 0 .1-.1c0 .1 0 .2.1.2 0 .1.1.1.1.1l.1.1-.1-.1-.1-.1c-.1-.1-.1-.1-.1-.2l.1.1c.1.1.1.1.2.1s.2 0 .2.1h0c-.1 0-.3-.1-.4-.2 0 0-.1 0 0-.1 0 0 .1 0 .1.1 0 0 .1 0 .1.1l-.1-.1h.5c-.1 0-.1-.1-.2-.1H41s0-.1-.1-.1h.1c-.2 0-.3-.2-.5-.3v-.1c0-.1-.1-.2-.2-.1.1.1.2.1.2.2h-.1-.1c-.1 0-.2-.1-.2-.1 0 .1.3.1.3.2h-.8l.1-.1h-.1c0-.1.1-.1.1-.1-.1 0-.1.1-.2.1s-.1-.1-.1-.1v-.2c0-.1.1-.1.1-.2.1 0 .1 0 .2-.1H40c.1 0 .2 0 .3.1.2.1.3.2.5.3 0 0 .1.1.2.1l.1.1v-.1-.2-.1h.1c0-.1-.1-.2-.2-.2-.1-.1-.1-.1-.2-.1 0 0-.1 0-.1-.1h-.1c.1 0-.1-.1-.1-.1-.1 0-.2 0-.3-.1l.1-.1h-.2-.1-.1c-.1 0 0-.1 0-.1-.1 0-.2 0-.2.1-.1 0 0 .1-.1 0s-.1 0-.1 0h-.2c-.2 0-.3.1-.3.3-.1 0-.1-.1-.1-.2V14.1l-.1-.1c0-.1-.1-.1-.1-.2s0-.2.1-.3c-.1.1-.1.3-.1.5-.2-.1-.2-.3-.1-.4 0-.1.1-.2.1-.3-.1.1-.2.3-.2.5s.1.4.2.5c-.1 0-.1 0-.1-.1 0 .1.2.2.3.2l-.1.1s.1.1 0 .1c0 0 .1.1.1 0 0 .1.2.1.2.3 0 .1-.4.4-.3.4h.1s-.1 0-.1.1h.3s-.1 0-.1.1h.2s-.1 0-.1.1h.2s-.1 0-.1.1c-.7-.2-.6-.3-.5-.3zm.5-.3h.1v.1c.1 0-.2 0-.1-.1-.1 0 0 0 0 0zm-.1 0c-.1 0-.1 0 0 0-.1 0-.1 0 0 0zm2.2.5c.1 0 .2.1.2.1 0-.1-.1-.1-.2-.1zm-.5-1.5c.1.1.1.2.1.3v-.2c0-.1 0-.2-.1-.2s-.1 0-.1-.1l-.2-.1.1.1c.1 0 .2.1.2.2zm.5 1.6zm.4-6.3c-.1.1-.2.1-.3.1.1.1.3 0 .3-.1zm-.6 5.9h-.5s.1 0 .1.1c.1.1.2 0 .3 0 .2-.1.4-.1.6-.2-.2 0-.3.1-.5.1zm1.1-7.2h.1-.1c.2-.1.4-.2.6-.1h.2l-.3-.1c-.1.1-.5 0-.5.2zm-.4 1.1c0-.1.1-.1.2-.2s.2-.2.4-.3c.2-.2.4-.3.9-.3-.3 0-.7.1-.8.2-.1.1-.2.1-.3.2-.2.1-.2.2-.3.2-.1.1-.1.1-.2.3.1 0 .1-.1.1-.1zm-1.7.5c.1.1.1 0 .1-.1s.1-.2.1-.2c.1-.1.2-.3.4-.4-.1 0-.3.2-.3.3 0 .1-.1.1-.1.1s-.1 0-.1.1c-.1 0-.1.1-.1.2zm-1 10c0 .1-.2.2-.2.3.2 0 .2-.2.2-.3zm-.1-.4s.1-.1.1-.2c-.1 0-.1.2-.2.2-.1.1-.2.2-.2.4.1-.1.2-.3.3-.4zm2.5-10.6l-.1.1s-.1 0-.1.1c.2 0 .2-.1.2-.2.1 0 .2-.2.5-.4.1 0 .3-.1.3-.1.2 0 .2 0 .3-.1h-.4c-.2 0-.3.1-.4.2-.1.2-.2.3-.3.4zm-2.3 4.8H39c0-.1-.1 0-.2 0h-.1c-.1 0-.1 0-.1.1h-.1s-.1 0-.1.1l-.1.1s.1-.1.2-.1c0 0 .1 0 .2-.1.1 0 .2-.1.3 0 0 0 .1-.1.2-.1zm-.5 5.5s-.1.1 0 0c-.1.2-.2.3-.2.3.1 0 .2-.2.2-.3zm-.9-2.2c-.2-.1-.4 0-.6.1-.1 0-.1.1-.2.2-.1 0 .2 0 .3-.1.2-.1.5-.2.7-.1 0 .1-.1 0-.2-.1zm2.2-1.1zm3.7-7.8c.2.1.4.2.7.2-.2-.1-.3-.1-.4-.1-.1-.1-.2-.1-.3-.1zm-.2 9.1l.3-.3c.1-.1.2-.3.2-.4-.2.2-.4.5-.7.6 0-.1.1-.1.1-.2.1-.1.2-.2.2-.3-.1.2-.3.3-.5.5-.1.1-.2.1-.3.2.1 0 .2-.1.3-.1 0 0-.2.1-.2.2-.1.1-.2.1-.3.1.2 0 .4-.1.5-.1.2 0 .3-.1.4-.2zm0-8.6c.2 0 .3.1.4.2.2.1.3.1.5.2.2 0 .4.1.5.2h.3c-.1 0-.2-.1-.2-.1-.1-.1-.3-.1-.4-.2l.1.1.1.1c-.1 0-.3 0-.4-.1-.1 0-.2-.1-.3-.2-.2-.1-.4-.2-.6-.2zm.7-.1c.2.1.4.2.5.3.1 0 .2.1.3.2-.1-.2-.3-.2-.5-.4.1 0 .3.1.5.1.2.1.4.1.5.2-.2-.1-.5-.2-.8-.3-.1 0-.2-.1-.3-.1 0 0-.1-.1-.2 0zm-.6-.4zm-1.1 9.5c.1 0 .1 0 0 0 .1 0 .1 0 0 0zm.3-7.5h.3c.1 0 .1.1.2.1.2.1.4.1.6 0h.5s-.1 0-.1-.1h-.8c0-.1.1-.1.1-.1h-.1.2v-.1h.1l.1-.1H44.2 44s-.2 0-.1-.1h-.1c-.1 0-.1.1-.2.1s-.1 0-.2.1h-.1c-.1 0-.1 0-.1.1-.1 0-.1 0-.2-.1s-.3-.1-.4-.2c.1.1.2 0 .2-.1l.1-.1c-.1 0-.1.1-.2.1 0 0-.1.1-.1 0 0 0 0-.1.1-.1l.1-.1s.1-.1.2-.1c0 0 .1 0 .1-.1h.2c.1 0 .1-.1.1-.1.3.1.4.1.5.1h-.1c-.2 0-.3 0-.5.1s-.3.1-.5.2c-.1 0-.2.1-.3.1-.1 0-.1 0-.2.1v.1c.1 0 .2.1.2.1.2.1.2.1.3.2zm1.3 0H44.4c-.2-.1-.3 0-.3 0zm1.2-.9c.1 0 .2 0 .3.1-.1-.1-.2-.1-.3-.1zm5 9.3v.3c.1-.1.1-.4 0-.5 0-.1-.1-.2-.1-.3 0 .2 0 .4.1.5zm-1.6-8.2c0-.1 0-.1 0 0zm-2.4-1.5l-.9-.3c-.2-.1-.5-.1-.8-.1h.2c.1 0 .2 0 .3.1.1 0 .2.1.4.2s.5.2.7.3c.4.1.7.2 1.1.2h.7c-.2-.1-.5-.1-.8-.2-.4-.1-.7-.1-.9-.2zm-8 13.4c.1-.1.1-.1 0 0h-.6.4v.1c.2 0 .4-.1.5-.2-.1 0-.2 0-.3.1zm12.2-6.4c.1-.3-.1-.4-.2-.7v.4c0-.1-.1-.2-.2-.3-.1-.1-.1-.2-.2-.3.1.2.2.4.2.6-.1-.2-.1-.3-.3-.5-.1-.1-.3-.2-.5-.3l.3.3c.1.2.3.4.4.6.1.2.1.5.1.7v.1c0-.1.1-.2.1-.3.2-.1.2-.2.3-.3zm-.7-5c-.1-.1-.2-.1-.3-.2-.3-.1-.5-.2-.7-.4.1.2.2.2.4.3.1.2.3.3.6.3l.4.4c.1.2.3.3.4.5 0-.2-.2-.4-.3-.6-.1 0-.3-.2-.5-.3zm-2.5-1.4h-.5c-.1 0-.2 0-.3.1.3-.1.5-.1.8-.1.1.1.3.2.4.2.2.1.3.1.5.2.1 0 .2.1.3.1-.2-.1-.3-.2-.5-.3-.2-.1-.5-.2-.7-.2zm1.2.5s0 .1 0 0c0 .1 0 0 0 0zm-1.9 2.5s-.1-.1 0-.1l.1.1.1.1c-.1-.1-.2-.2-.2-.3-.1-.1-.2-.2-.2-.3-.1-.1-.2-.3-.3-.4l-.3-.3.1.1c0 .1.1.1.1.2.1.1.1.2.2.3.1.2.2.5.4.6zm-8.9 11.4h.7c-.4 0-.7 0-.9-.4 0 .1-.1.1-.1.1-.2 0-.3-.3-.4-.4 0 .1.1.4.2.5v-.1c.1 0 .2.3.3.2v-.1c0 .1.1.1.2.2zm-1.1-1v.4c0 .1.1.1.1.2 0 0 0-.1-.1-.1v-.2-.3zm.4-.8c.1-.2.1-.3.1-.5 0 .3-.1.5-.2.7-.1.1-.1.2-.1.3 0 0 0-.1.1-.1v.2c.1-.1.1-.2.1-.3-.2-.1-.1-.2 0-.3zm14-6.9c.1-.3.1-.6.1-.9.1.1.1.2.1.4 0-.3 0-.6-.3-.8v.2c0 .1.1.3.1.4v.3c.1.2 0 .3 0 .4zm-14.3 3.9c.1-.1.3-.1.2-.3 0 .1-.1.2-.2.3zm1 3.1zm6.2-4.5c.2 0 .2-.4.2-.6-.2.4-.8.9-1.3.9.5 0 .8-.2 1.2-.5-.1.1-.1.1-.1.2zm-6.6 4c0 .1-.1.1 0 .2.1.2.2.3.4.3-.1 0-.2-.1-.3-.2.1 0 .2.1.3.1-.1 0-.2-.1-.3-.2l.1.1c-.1-.1-.1-.2-.2-.3l.1.1c-.1 0-.1-.1-.1-.1zm-.3 1.3c.1 0 .1.1.2.2-.1 0-.1-.1-.2-.2 0-.1.1-.2 0-.3 0-.2 0-.4.1-.6v-.5c0-.1 0-.2-.1-.3 0 .2.1.4 0 .7-.1.2-.2.4-.2.6v-.1c.1.2.1.4.2.5zm13.8-3.9c0 .3.1.6 0 .9.1-.1.1-.3.2-.5v0h.2v.1c0-.1.1-.2.1-.3-.1.1-.1 0-.1-.1s.1-.2 0-.3c0 .1-.1.3-.2.4 0-.1.1-.3-.1-.3 0 0 0 .3-.1.1 0-.2 0-.4-.1-.7 0 .3.1.5.1.7zm-6 .6c0-.4-.3-.8-.3-1.2v.5c0 .2.1.5.1.7.1.3.1.6.1.9.2-.3 0-.7-.1-1 .1-.1.1 0 .2.1zm-.8 1.2c.1 0 .2-.1.3-.2 0 .3-.5.6-.8.6.2.1.4 0 .6-.1-.2.3-.4.3-.8.3.4.1.8-.1 1-.5.1-.3.3-.8.1-1.1v.1c0 .4-.1.8-.4.9zm1.2-3c-.1.2 0 .4 0 .6 0-.1 0-.2.1-.2v-.1.1c.1-.1.1-.2.1-.3 0 .1.1.1.1.2v-.2c0-.1-.1-.3-.1-.4 0 .1 0 .1.1.2v.3l-.1-.1v.4l-.2-.1c.1-.1 0-.2 0-.4zm5.6-5v1.2c0 .1.1.2.1.3 0-.1-.1-.3-.1-.4v-.5c.1-.2.1-.4 0-.6zM46 17.4c0 .1 0 .1 0 0-.1.1-.2.1-.2.2-.1.1-.2.1-.2.2 0-.1.1-.1.2-.1 0 0 .1 0 .1-.1h.1v.1c-.1.1-.3.2-.2.4.1.1 0 .1-.1.1 0 0-.1.2 0 .2 0 .1.1.1.1 0s0-.2.1-.2c0 0 .1 0 .2-.1 0 0 .1 0 .1-.1h.1s0-.1.1-.1.1 0 .2-.1h.2c.1 0 .1 0 .2-.1 0 .2-.1.3-.2.4-.1.1 0 .1 0 .2h.2v.1c.1.1.2 0 .2-.1l.3-.3s.1-.1.1-.2c.1-.1.1-.2.2-.2.1-.1.2-.2.2-.4s.1-.3.1-.5v-.9c0-.2-.4-.5-.6-.5-.2 0-.5.2-.5.4v.2c0 .1 0 .2.1.3.1-.1.1-.2.1-.3 0-.1.1-.1.2-.2l.1.1h.1c.1 0 0 .2.1.2 0 0-.1.1-.1.2l-.1.1c0 .1 0 .2.1.2h.1c.1 0 .1-.1.1-.2s0-.3.1-.4c.2.1.2.3.2.5v.5c0 .1 0 .1-.1.2 0 .1-.1.1-.1.1-.1-.1 0-.2-.1-.3v-.1c-.1.1 0 .4-.1.5l-.1.1v.1c0 .1-.1.1-.1.2s-.1.1-.1.2h-.1c-.1 0-.1-.1 0-.1v-.2-.1l.1-.1c.2-.2.1-.5 0-.7 0-.1-.1-.2-.2-.2l-.1-.1s-.1-.1-.1 0v.1c0 .1-.1 0-.2 0s-.1.2-.1.2c-.1 0-.1 0-.2-.1 0 0-.1-.1-.2 0 0 .1.1.2.2.3v.2c-.5.2-.5.3-.5.3zm.3 1.3c.1 0 .1 0 0 0 .1-.1.2-.1.2-.1 0-.1-.1-.1-.1-.2s0-.1-.1-.1c0-.1 0-.2-.2-.2-.1 0-.2.2-.2.2 0 .1 0 .1.1.1 0 0 0-.1.1-.1h.1c.1 0 0 .1 0 .2 0 .2 0 .3.1.2zm-.2-6.4c0-.2-.1-.4-.3-.5 0 .1.1.1.1.2.1.1.2.2.2.3zm3.2-1.3c-.1 0-.1-.1-.2-.1s-.2-.1-.2-.1c-.1 0-.3-.3-.4-.3-.1 0-.1-.1-.2-.2s-.2-.2-.3-.2l.4.4c.1.1.3.2.4.3.4.3.9.4 1.2.7-.1-.2-.5-.3-.7-.5zm.6 2.7l.2.2c.2.2.2.4.3.6v.1c0-.5-.4-.9-.7-1.1 0 .1.1.2.2.2zm-3.8-3.9c-.1 0-.2 0-.3-.1h-.2v.1c.1.1.2.2.3.2.1 0 .2.1.4.1.1.1.2.1.3.2.1 0 .2.2.3.2 0-.1-.2-.2-.2-.3-.1-.1-.2-.1-.2-.1.2 0 .4 0 .5.1l.6.3c.1.1.1.1.2.1l.2.2c.1.1.3.2.4.3.3.2.6.4 1 .4-.1 0-.2-.1-.3-.1-.1 0-.2-.1-.2-.1H49.2c-.1 0-.2-.1-.3-.1-.1 0-.2-.1-.3-.2l-.6-.6c-.1-.1-.2-.2-.3-.2-.1-.1-.3-.1-.4-.2h-.6s.1 0 .1-.1c-.2-.1-.5-.1-.7-.1zm.1-.9c-.2 0-.3 0-.5-.1-.1 0-.2 0-.3-.1l-.1-.1c.1.1.3.1.4.2.1.2.3.2.5.1zm2.9 4.6zm-2.7-3l-.2-.2c-.1 0-.2-.1-.3-.2-.1 0-.1-.1-.2-.1-.1-.1-.3-.1-.4-.1H45c.1 0 .2 0 .3.1.2.1.3.1.5.2.1.1.2.1.3.2 0-.1.2 0 .3.1zm2.3 2.6c-.1-.1-.3-.2-.4-.2-.2-.1-.4-.2-.6-.4-.2-.1-.4-.3-.5-.5-.4-.4-.7-.8-.8-1-.1-.1-.1-.2-.2-.3l-.2-.2c.2.2.3.6.5.8.1.1.4.6.5.7 0 .1.1.1.2.1.1.1.1.2.2.3.1.1.1.2.3.3.1.1.2.1.3.2.1.1.2.1.3.2.1.1.2.1.3.2.1.1.2.1.3.2 0-.1-.2-.2-.2-.3.1 0 .1.1.2.1 0-.1-.1-.1 0-.1.2 0 .3.2.5.3-.3-.1-.6-.3-.7-.4zm-1.4-1.9c-.1-.2-.2-.2-.4-.4h.1c.3.3.3.5.5.6.1.1.2.3.4.3-.1-.1-.2-.2-.3-.2-.2-.1-.3-.2-.3-.3zm-2.4-1.9c.1.1.3.2.5.2l-.1-.1h.4c.2 0 .3-.1.5-.1h-.7c-.3 0-.5-.1-.7-.3 0 .1.1.1.1.3-.2-.1-.3-.2-.4-.2.2.1.3.1.4.2zm-.9 3.3v-.2c-.1-.2-.1-.4-.1-.7v.3c0 .3 0 .5.1.6zm0 .4l-.1-.1c0 .1.1.2.2.2 0 0-.1 0-.1-.1zm-.1-1.9c-.1-.1-.1-.1-.1-.2v-.1-.3c0-.2.1-.1.2-.2 0-.1-.1 0-.2-.1.1-.3.7-.1.8-.1-.2-.3-.6-.2-.8-.1-.1.1-.2.2-.3.4-.1.2-.2.5-.2.7.1-.1.1-.3.2-.4.1-.1.1-.2.2-.3 0 .1 0 .2.1.2 0 .2.2.4.3.5l.1.1c-.1.1-.2 0-.3-.1zm.6-1.7c-.1 0-.1-.1-.2-.1s-.1 0-.2-.1h-.3H43.5c-.1 0-.2.1-.3.2h.1c.1 0 .2-.1.3-.1.1 0 .2-.1.3-.1.1 0 .2.1.3.1.1.1.2.1.3.1zm-.9 2.8c0 .1 0 .2.1.3 0 .1.1.2.2.3 0 0 0 .1.1.1 0-.1-.1-.2-.1-.3-.2-.1-.3-.2-.3-.4zm-.1-2.6l-.3.2c.1 0 .1-.1.2-.1.1-.1.2-.1.2-.1.1 0 .2-.1.3-.1h-.1c0-.1-.2 0-.3.1zm1.3-.5zm.3 1.4c0 .1.1.1.1.1l.1.1c0 .1.1.1.1.2 0-.1-.1-.2-.2-.3.1 0 0-.1-.1-.1zm-.7-.1c.1 0 .2 0 .2.1-.1-.1-.3-.1-.4-.1 0 0-.1 0-.1.1v.1c0-.2.2-.2.3-.2zm.4.3c0-.1-.1-.1-.1-.1s0 .1.1.1c0 .1.1.1.1.2s.1.1.1.1c0-.1-.1-.1-.1-.2s-.1-.1-.1-.1zm-.6 1.6c-.1.1 0 .3.1.4-.1-.1-.1-.3-.1-.4zm.6 1.2l.3.3c0-.1-.2-.2-.3-.3 0-.1-.1-.2-.2-.3-.1-.1-.2-.3-.2-.4v.1c0 .3.2.5.4.6zm1-1s.1.2.2.2c0-.1-.2-.2-.2-.3-.1-.2-.2-.3-.3-.5 0 .1 0 .3.1.4.1.1.1.2.2.2zm-.5-2.5c-.2-.1-.3-.1-.4-.1.2 0 .3.1.4.1.2.1.4.3.4.4-.1-.3-.3-.4-.4-.4zm-.6 2c-.1-.1-.1-.2-.2-.2v.1c.1.2.2.3.3.4l.3.3-.3-.3c0-.1 0-.2-.1-.3zm.7 1.6s.1 0 .1.1l-.1-.1c.1 0 0-.1-.1-.2 0-.1-.1-.1-.2-.2 0-.1-.1-.1-.1-.2l-.1-.1c0 .1.1.2.1.3.1.1.1.2.2.3.1 0 .1 0 .2.1zm2-4.1zm2 3.8c-.1-.2-.3-.4-.5-.5-.2-.1-.4-.2-.6-.1.2 0 .5.2.6.2.1.1.2.1.3.2.1.1.2.1.2.2zm-1.6-1.7c.1.1.2.2.3.2l.6.3s-.1-.1-.2-.1c-.1-.1-.2-.1-.3-.2-.1 0-.2-.1-.4-.2 0-.1-.1-.2-.3-.2.2.1.2.2.3.2zm-1.2-.8s.1.2.4.7c.1.2.2.3.3.4l.3.3c.1.1.2.2.4.1 0-.1-.1-.2.1-.2.1 0 .3 0 .4.1.1 0 .2.1.3.1.1 0 .3.1.4.2 0-.1-.3-.2-.4-.3-.1-.1-.3-.1-.4-.1-.1-.1-.3-.1-.4-.2 0 .1.1.1.1.2-.1 0-.2-.1-.3-.1-.1 0-.1-.1-.2-.1s-.1-.1-.2-.2c-.2-.2-.3-.3-.4-.5-.1-.1-.1-.2-.2-.3-.1 0-.1 0-.2-.1zm.4-1c.5.2.7.5 1 .7.3.3.6.7 1 .8-.1 0-.2-.1-.3-.1-.1-.1-.2-.2-.3-.2-.2-.2-.3-.4-.5-.6-.2-.4-.6-.6-.9-.6zm2.1.8c-.1 0-.3-.1-.4-.2-.2-.1-.3-.2-.4-.4-.1-.1-.2-.2-.2-.3-.1 0-.1-.1-.2-.1-.2-.1-.3-.1-.5-.1.1 0 .2.1.2.1l.1.1s-.2-.1-.2 0l.2.1c.2.1.4.2.5.4.3.3.6.5 1 .6.1-.1 0-.2-.1-.2zm-4.5-1.2c.1.2.4.3.6.3-.1 0-.3-.1-.4-.2-.1 0-.2 0-.2-.1zm.8 2.4c0-.1-.1-.2-.2-.2l-.3-.3c-.1-.1-.1-.2-.2-.3-.1-.1-.1-.2-.2-.2-.1-.1-.2-.2-.3-.1l-.1.2.1.1v-.2s0-.1.1-.1h.1c.1 0 .2.1.2.2.1.1.1.2.2.2l.3.3.2.2c.1.1.1.1.1.2zm-2.1 2.3c.5.5.7.8.7.8s.1-.2-.5-.8c-.6-.6-.4-.9-.4-1.1 0-.1-.3.5.2 1.1z"/>
  <g fill="#B49E5F">
    <path d="M29.8 37.5c0-.3 0-.7-.2-.7h1.3c1.2 0 2 .7 2 1.8s-.8 1.8-2 1.8h-1.3c.3-.2.2-.5.2-.8v-2.1zm.6 2.3h.4c.8 0 1.5-.4 1.5-1.4 0-1-.5-1.4-1.4-1.4-.2 0-.3 0-.5.1v2.7zM33.9 38.9c0 .7.5 1.1 1.1 1.1.3 0 .6-.1.9-.3l-.3.5c-.2.1-.5.1-.7.1-.9 0-1.6-.6-1.6-1.3 0-.8.5-1.3 1.4-1.3.7 0 1.2.5 1.2 1.2h-2zm1.4-.3c-.1-.4-.3-.6-.7-.6-.4 0-.6.2-.7.6h1.4zM38 38.2c-.2-.1-.4-.2-.7-.2-.2 0-.5 0-.5.3 0 .5 1.5.3 1.5 1.2 0 .5-.5.8-1.2.8-.2 0-.5 0-.7-.1l-.2-.5c.3.2.6.3 1 .3.2 0 .6-.1.6-.4 0-.5-1.5-.4-1.5-1.2 0-.6.6-.7 1.1-.7.2 0 .4 0 .6.1v.4zM40.9 36.7c.1 0 .2 0 .3-.1v3.1c0 .2 0 .5.2.6h-.7v-1.2c0-.2 0-.5-.1-.7-.1-.3-.4-.4-.7-.4-.4 0-.8.4-.8.9 0 .6.4 1 1 1 .2 0 .3-.1.5-.2l-.3.5H40c-.8 0-1.4-.5-1.4-1.3 0-.7.5-1.3 1.3-1.3.3 0 .6.1.8.3v-.7c0-.2 0-.4-.2-.6h.4zM42.5 38.9c0 .7.5 1.1 1.1 1.1.3 0 .6-.1.9-.3l-.3.5c-.2.1-.5.1-.7.1-.9 0-1.6-.6-1.6-1.3 0-.8.5-1.3 1.4-1.3.7 0 1.2.5 1.2 1.2h-2zm1.4-.3c-.1-.4-.3-.6-.7-.6-.4 0-.6.2-.7.6h1.4zM47 37.4c.5-.2.9-.5 1.2-.9v3.1c0 .3 0 .6.3.8h-1.1c.3-.2.3-.4.3-.8v-2.1l-.7-.1zM49.7 37.5c0-.6.5-.9 1.3-.9.6 0 1.3.3 1.3.9 0 .4-.3.6-.7.8.5.2.9.4.9 1s-.6 1-1.5 1c-.8 0-1.4-.4-1.4-1 0-.5.4-.8.8-1-.4-.1-.7-.3-.7-.8zm.4 1.8c0 .4.4.7.9.7.4 0 .9-.2.9-.6 0-.5-.8-.7-1.2-.8-.3.1-.6.4-.6.7zm1.6-1.7c0-.3-.3-.6-.8-.6-.3 0-.7.1-.7.5 0 .5.7.6 1 .7.3-.1.5-.4.5-.6zM52.8 37.5c0-.6.5-.9 1.3-.9.6 0 1.3.3 1.3.9 0 .4-.4.6-.7.8.5.2.9.4.9 1s-.6 1-1.5 1c-.8 0-1.4-.4-1.4-1 0-.5.4-.8.8-1-.4-.1-.7-.3-.7-.8zm.4 1.8c0 .4.4.7.9.7.4 0 .9-.2.9-.6 0-.5-.8-.7-1.2-.8-.3.1-.6.4-.6.7zm1.6-1.7c0-.3-.3-.6-.8-.6-.3 0-.7.1-.7.5 0 .5.7.6 1 .7.3-.1.5-.4.5-.6zM56 37.5c0-.6.5-.9 1.3-.9.6 0 1.3.3 1.3.9 0 .4-.3.6-.7.8.5.2.9.4.9 1s-.6 1-1.5 1c-.8 0-1.4-.4-1.4-1 0-.5.4-.8.8-1-.4-.1-.7-.3-.7-.8zm.4 1.8c0 .4.4.7.9.7.4 0 .9-.2.9-.6 0-.5-.8-.7-1.2-.8-.3.1-.6.4-.6.7zm1.6-1.7c0-.3-.3-.6-.8-.6-.3 0-.7.1-.7.5 0 .5.7.6 1 .7.3-.1.5-.4.5-.6z"/>
  </g>
  <g fill="#B49E5F">
    <path d="M58.2 16.7c-.1 0-.3 0-.4.1-.5.2-.8.6-.8 1.1 0 .1 0 .3.1.4.2.5.6.8 1.1.8.1 0 .3 0 .4-.1.5-.2.8-.6.8-1.1 0-.1 0-.3-.1-.4-.1-.5-.6-.8-1.1-.8zm.3 2c-.1 0-.2.1-.3.1-.4 0-.7-.2-.8-.6l-.1.1.1-.1v-.3c0-.4.2-.7.6-.8.1 0 .2-.1.3-.1.4 0 .7.2.8.6 0 .1.1.2.1.3-.1.4-.3.7-.7.8zM58 15c.1 0 .3 0 .4-.1.5-.2.8-.6.8-1.1 0-.1 0-.3-.1-.4-.2-.5-.6-.8-1.1-.8-.1 0-.3 0-.4.1-.5.2-.8.6-.8 1.1 0 .1 0 .3.1.4.2.5.6.8 1.1.8zm-1-.8l.1-.1c0-.1-.1-.2-.1-.3 0-.3.2-.7.6-.8h.3c.4 0 .7.2.8.6v.3c0 .4-.2.7-.6.8h-.3c-.4 0-.7-.2-.8-.6v.1zM24 29.9h-.1s-.1.1 0 .1l.1.1h.1s.1-.1 0-.1-.1 0-.1-.1zm28.8 1.3c.1.2 0 0 0 0zM20 23.9s-.1-.1-.1 0c0 0-.1.1 0 .1 0 .1.1.1.1.2h.1v-.1c0-.1 0-.2-.1-.2zm37.7-8.6c.1.4.1.8.1 1.3.1 0 .2 0 .3-.1 0-.4 0-.8-.1-1.2h-.3zm1.2 1.3c.1.1.2.1.3.2 0-.7-.1-1.3-.2-2 0 .2-.1.2-.2.3 0 .5.1 1 .1 1.5zm-38.6 7.7h-.1v.1l.1.1h.1v-.1s0-.1-.1-.1zm37.9-7.1H58c-.3.1-.5.4-.5.7v.2c.1.3.4.5.7.5h.2c.3-.1.5-.4.5-.7v-.2c-.1-.3-.4-.5-.7-.5zm.2 1.2h-.2c-.2 0-.5-.1-.5-.4h-.1.1v-.2c0-.2.1-.5.4-.5h.2c.2 0 .4.2.5.4v.2c0 .2-.2.5-.4.5zm-35.5 9.8s-.1-.1-.1 0c0 0-.1.1 0 .1 0 .1.1.1.1.2h.1s.1-.1 0-.1c-.1-.1-.1-.2-.1-.2zm-.3-.4s-.1-.1-.1 0c0 0-.1.1 0 .1l.1.1h.1s.1-.1 0-.1-.1-.1-.1-.1zm-1.9-2.9l-.1-.1h-.1s-.1.1 0 .1l.1.1h.1v-.1zm2.7 4.2h-.1s-.1.1 0 .1l.1.1h.1s.1-.1 0-.1c0 0 0-.1-.1-.1zM22 26.9s-.1-.1-.1 0v.1l.1.1h.1V27l-.1-.1zm1.1 1.7H23s-.1.1 0 .1l.1.1h.1v-.1l-.1-.1zm-.7-1.1l-.1-.1s-.1-.1-.1 0c0 0-.1.1 0 .1l.1.1h.1v-.1zM34 30.8l-.1.1s-.1.1 0 .1h.1l.1-.1s.1-.1 0-.1H34zm-13.1-5.6h-.1v.1l.1.1h.1v-.1c-.1 0-.1-.1-.1-.1zm.6.8s-.1-.1-.1 0c0 0-.1.1 0 .1 0 .1.1.1.1.2h.1v-.1c-.1-.1-.1-.1-.1-.2zm2.2 3.5h-.1v.1l.1.1h.1v-.1l-.1-.1zm-2-3h-.1s-.1.1 0 .1c0 .1.1.1.1.2h.1c.1 0 .1-.1 0-.1 0-.1 0-.2-.1-.2zm2.6 3.9s-.1-.1-.1 0v.1l.1.1h.1s.1-.1 0-.1-.1-.1-.1-.1zm-5.5-18l.4-.3.2.3c-.3.3-.3.7-.1 1 .2.4.7.5 1.1.2.4-.2.5-.8.2-1.1-.2-.3-.6-.4-1-.3l-.2-.3.4-.3-.2-.3-.4.2-.2-.4-.3.2.2.4-.4.2.3.5zm1.2.1c.3 0 .5.2.5.5s-.2.5-.5.5-.5-.2-.5-.5.2-.5.5-.5zm27.4-9.1c0 .1-.1.2-.2.3.6.1 1.1.3 1.6.5v-.3c-.4-.2-.9-.4-1.4-.5zm6.5 4.3c.5 0 1-.3 1.1-.8v-.4c0-.5-.3-1-.8-1.1-.1 0-.2-.1-.4-.1-.5 0-1 .3-1.1.8 0 .1-.1.2-.1.4 0 .5.3 1 .8 1.1v-.1.1c.2.1.3.1.5.1zM53 6.5v-.3c.1-.4.5-.6.8-.6h.3c.4.1.6.5.6.8v.3c-.1.4-.5.6-.8.6-.1 0-.2 0-.3-.1-.4 0-.6-.3-.6-.7zm-8.1-4.6h-2.1c.1.2.2.2.2.4h1.8c0-.2.1-.3.1-.4zm-2.9.3h-.2c-.3 0-.6.2-.7.5v.2c0 .3.2.6.5.7v-.1.1h.2c.3 0 .6-.2.7-.5v-.2c0-.3-.2-.6-.5-.7zm.3.9c-.1.2-.3.4-.5.4h-.2c-.2-.1-.4-.3-.4-.5v-.2c.1-.2.3-.4.5-.4h.2c.2.1.4.3.4.5v.2zm15.1 9.5c-.1-.4-.3-.9-.5-1.3h-.3c.2.4.4.9.5 1.4.1 0 .2-.1.3-.1zM42.1 1.8c-.1 0-.3-.1-.4-.1-.5 0-1 .3-1.1.8 0 .1-.1.2-.1.4 0 .5.3 1 .8 1.1.1 0 .2.1.4.1.5 0 1-.3 1.1-.8v-.4c.1-.5-.2-1-.7-1.1zm.5 1.4c-.1.4-.5.6-.8.6h-.3c-.4-.1-.6-.5-.6-.8v-.3c.2-.4.5-.7.9-.7h.3c.4.1.6.5.6.8-.1.2-.1.3-.1.4zm11.1 3.9c.1.1.1.1.2.1.3 0 .6-.2.7-.5v-.2c0-.3-.2-.6-.5-.7h-.2c-.3 0-.6.2-.7.5v.2c0 .3.2.6.5.6zm-.4-.6v-.2c.1-.2.3-.3.6-.3h.2c.2.1.4.3.4.5v.2c-.1.2-.3.4-.5.4h-.2c-.3-.1-.5-.3-.5-.6zm2.5 3.6c.1.3.4.5.7.5h.2c.3-.1.5-.4.5-.7v-.2c-.1-.3-.4-.5-.7-.5h-.2c-.3.1-.5.4-.5.7v.2zm.2-.2c0-.2.1-.5.4-.5h.2c.2 0 .5.1.5.4v.2c0 .2-.1.4-.4.5h-.2c-.2 0-.4-.2-.5-.4h-.1.1v-.2zm2 4.6h.2c.3-.1.5-.4.5-.7v-.2c-.1-.3-.4-.5-.7-.5h-.2c-.3.1-.5.4-.5.7v.2c.1.4.4.5.7.5zm-.6-.5c.1-.1 0-.2 0-.2 0-.2.1-.4.4-.5h.2c.2 0 .5.1.5.4v.2c0 .2-.1.5-.4.5h-.2c-.1 0-.3-.2-.5-.4zm-.9-2.9c.1 0 .3 0 .4-.1.5-.2.8-.6.8-1.1 0-.1 0-.3-.1-.4-.1-.5-.6-.8-1.1-.8-.1 0-.3 0-.4.1-.5.2-.8.6-.8 1.1 0 .1 0 .3.1.4.2.5.6.8 1.1.8zm-.8-1.2c0-.4.2-.7.6-.8 0-.1.1-.1.2-.1.4 0 .7.2.8.6v.3c0 .4-.2.7-.6.8h-.3c-.4 0-.7-.2-.8-.6h-.1.1c.1 0 .1-.1.1-.2zm-37.3 8.3c.1.2.3.3.5.2 0 .1 0 .1.1.2.1.2.5.3.7.2 0 0 .1-.1.2-.1.2.2.5.4 1-.2.2-.3.3-.5.2-.7.2.1.5 0 .8-.3.4-.3.3-.7.3-1 .2.2.6.4 1.2 0 .3-.2.4-.4.4-.6.1.1.3.2.6.1.4 0 .6-.3.7-.5.1 0 .2 0 .2-.1.2-.1.3-.5.2-.7 0-.1-.1-.1-.1-.2.2-.1.2-.4.1-.6-.1-.1-.1-.2-.2-.2.1-.1.1-.3 0-.4-.1-.1-.2-.2-.4-.2 0-.1 0-.1-.1-.2-.1-.2-.3-.2-.5-.1v-.1c-.1-.1-.3-.2-.4-.1 0 0-.1 0-.1.1v-.1c-.1-.2-.3-.2-.4-.1 0 0-.1 0-.1.1-.1-.2-.3-.2-.4-.1l-.1.1c-.1-.1-.3-.2-.4-.1 0 0-.1 0-.1.1-.1-.1-.2-.1-.4-.1l-.1.1c-.1-.1-.2-.1-.4 0s-.2.3-.1.4c.1.1.3.2.4.1 0 0 .1 0 .1-.1.1.1.2.1.4 0 0 0 .1 0 .1-.1.1.1.2.1.4 0l.1-.1c.1.1.3.2.4.1 0 0 .1 0 .1-.1.1.1.3.2.4.1 0 0 .1 0 .1-.1v.1c.1.1.3.2.4.1v.1c.1.1.2.2.3.2 0 .1 0 .2.1.2 0 .1.1.1.2.2-.1.1-.1.3 0 .5 0 0 0 .1.1.1-.2.1-.3.5-.2.7.1.1.2.2.3.2-.2.1-.3.2-.5.2s-.4-.1-.5-.2c.2-.2.3-.5.2-.7-.1-.1-.2-.2-.3-.2V14c-.1-.2-.3-.2-.4-.2v-.2c-.1-.2-.3-.2-.4-.2v-.1c-.1-.2-.3-.2-.5-.1l-.1.1c-.1-.2-.3-.2-.4-.1l-.1.1c-.1-.1-.3-.2-.4-.1-.1.1-.2.3-.1.4.1.2.3.2.4.1l.1-.1c.1.1.3.2.4.1 0 0 .1 0 .1-.1v.1c.1.1.2.2.4.2v.1c.1.1.2.2.3.2 0 .1 0 .2.1.3.1.1.1.2.2.2-.1.1-.1.3 0 .5s.3.3.5.3c-.1.2-.2.4-.5.5-.3.1-.5.1-.8.1v-.4c-.1-.2-.2-.2-.4-.2v-.3c-.1-.1-.2-.2-.4-.2.1-.1.1-.3 0-.4-.1-.1-.2-.2-.4-.2.1-.1.1-.2 0-.3-.1-.2-.3-.2-.4-.1-.1.1-.2.3-.1.4 0 .1.1.2.2.2-.1.1-.1.3 0 .4.1.1.2.2.3.2-.1.1-.1.3 0 .4.1.1.2.2.3.2-.1.2-.1.3 0 .5s.3.3.5.3c-.1.2-.2.4-.4.5-.3.2-.6.2-.8.2.1-.2.1-.4 0-.5-.1-.2-.3-.2-.4-.3v-.3c-.1-.1-.1-.2-.2-.2.1-.1.1-.3 0-.4l-.1-.1c.1-.1.1-.3 0-.4h.1c.1-.1.2-.3.1-.4h.1c.1-.1.2-.3.1-.4-.1-.1-.3-.2-.4-.1-.1.1-.2.3-.1.4h-.1c-.1.1-.2.3-.1.4H20c-.2.1-.2.3-.1.5 0 0 0 .1.1.1-.1.1-.2.3-.1.5 0 .1.1.1.2.1-.1.1-.1.3 0 .5.1.1.2.2.3.2v.4c.1.2.5.3.7.2.1.2.1.4 0 .6-.1.2-.3.3-.5.3 0-.1 0-.2-.1-.3-.1-.3-.5-.3-.7-.2 0 0 0-.1-.1-.1-.1-.2-.3-.2-.4-.2 0-.1 0-.2-.1-.2 0-.1-.1-.1-.2-.2.1-.1.1-.2 0-.3l-.1-.1c.2-.1.2-.3.1-.4v-.1h.1c.1-.1.2-.3.1-.4h.1c.1-.1.2-.3.1-.4h.2c.1-.1.2-.2.1-.4h.1c.1-.1.2-.2.2-.3h.1c.1-.1.2-.3.1-.4-.1-.2-.3-.2-.4-.1-.1.1-.2.2-.2.3h-.1c-.1.1-.2.2-.1.4h-.1c-.1.1-.2.3-.1.4H19c-.1.1-.2.3-.1.4h-.1c-.8 0-.8.2-.7.3l.1.1h-.1c-.2.1-.2.3-.1.4 0 0 0 .1.1.1-.2.1-.2.3-.1.5 0 .1.1.1.1.1-.1.1-.1.3 0 .4.1.1.2.2.3.2-.1.1-.1.2 0 .3zM43.2 3c0 .1 0 .2-.1.3h1.6c0-.1-.1-.2-.1-.3h-1.4zm12.3 5.9c-.3-.4-.6-.8-.9-1.1-.1.1-.2.1-.3.1.3.4.7.8 1 1.2l.2-.2zm-2-3.7c-.5-.4-1.1-.8-1.7-1.2v.4c.5.3.9.6 1.4.9 0-.1.1-.1.3-.1zm-29 25.6s-.1-.1-.1 0v.1l.1.1h.1v-.1s0-.1-.1-.1zm34-18.3c-.2-.6-.4-1.3-.7-1.9-.1.1-.1.2-.2.3l.6 1.5c.1 0 .2.1.3.1zm-2-4c-.4-.6-.8-1.1-1.3-1.6 0 .1-.1.2-.1.3.4.4.7.9 1 1.3h.4zM50 5.2c.1 0 .2.1.4.1.5 0 1-.3 1.1-.8 0-.1.1-.2.1-.4 0-.5-.3-1-.8-1.1-.1 0-.3-.1-.4-.1-.5 0-1 .3-1.1.8 0 .1-.1.2-.1.4 0 .5.3 1 .8 1.1zm-.5-1.3c.1-.4.5-.6.8-.6h.3c.4.1.6.5.6.8v.3c-.2.4-.5.6-.9.6H50c-.4-.1-.6-.5-.6-.8.1-.2.1-.3.1-.3zm3.1 2c-.4-.3-.8-.5-1.1-.8l-.2.2c.4.3.9.6 1.3.9-.1-.1-.1-.3 0-.3zm-27.7 11c-.1-.1-.1-.2-.2-.2.5-.2.7-.2.6-.4-.1-.4-1.2 0-2.7 1-1.5 1-2.4 1.8-2 2.1.1.1.2 0 .6-.4 0 .1 0 .2.1.3.1.1.2.2.4.2-.3.4-.5.6-.3.8.3.3.3-.5 2.2-1.7 1.9-1.2 2.7-1.1 2.5-1.4-.1-.2-.5-.2-1 0-.1-.1-.1-.2-.2-.3zM22 19.1c0-.1 0-.2-.1-.3-.1-.1-.2-.2-.4-.2.2-.2.6-.5 1-.8v.3c.1.1.2.2.3.2-.2.3-.5.6-.8.8zm1.4-1.1v-.3c-.1-.1-.2-.2-.3-.2.4-.3.8-.5 1.1-.6-.1.1-.1.3 0 .4 0 .1.1.1.2.2-.3.1-.7.3-1 .5zM50.1 4.8h.2c.3 0 .6-.2.7-.5v-.2c0-.3-.2-.6-.5-.7h-.2c-.3 0-.6.2-.7.5v.2c0 .3.2.6.5.7zm-.3-.8c.1-.2.3-.4.5-.4h.2c.2.1.4.3.4.5v.2c-.1.2-.3.4-.5.4h-.2c-.2-.1-.4-.3-.4-.5V4zm-3.9-.5h.2c.3 0 .6-.2.7-.5v-.2c0-.3-.2-.6-.5-.7h-.2c-.3 0-.6.2-.7.5v.2c0 .3.2.6.5.7zm-.4-.8c.1-.2.3-.4.5-.4h.2c.2.1.4.3.4.5V3c-.1.2-.3.4-.5.4h-.2c-.2-.1-.4-.3-.4-.5v-.2zm4.1.2c-.7-.3-1.4-.5-2.2-.7.1.1.1.2.1.3.6.2 1.2.3 1.8.5.1.1.2 0 .3-.1zm-3.9 1c.1.1.3.1.4.1.5 0 1-.3 1.1-.8 0-.1.1-.2.1-.4 0-.5-.3-1-.8-1.1-.1 0-.2-.1-.4-.1-.5 0-1 .3-1.1.8 0 .1-.1.2-.1.4 0 .5.3 1 .8 1.1zm-.4-1.3c.1-.4.5-.6.8-.6.1 0 .2 0 .3.1.3 0 .6.4.6.7v.3c-.1.4-.5.6-.8.6h-.3c-.4-.1-.6-.5-.6-.8-.1-.2-.1-.3 0-.3zm-24.1 23h-.1v.1l.1.1h.1v-.1c-.1 0-.1-.1-.1-.1zm12.1-2.3c.1.1.1.1 0 0h.1v-.1s-.1-.1-.1-.2h-.1v.1l.1.2zm-1.9-3c0 .1 0 .1 0 0h.1s.1-.1 0-.1l-.1-.1s-.1-.1-.1 0c0 0-.1.1 0 .1 0 0 0 .1.1.1zm.3.5h.1s.1-.1 0-.1c0-.1-.1-.1-.1-.1h-.1s-.1.1 0 .1l.1.1zM28.3 17l.2-.1v-.1s-.1-.1-.1 0l-.1.1c-.1-.1-.1 0 0 .1-.1-.1 0 0 0 0zm4.2 5.1h.1V22c0-.1-.1-.1-.1-.1s-.1-.1-.1 0c0 0-.1.1 0 .1 0 0 .1 0 .1.1zm.3.4h.1s.1-.1 0-.1l-.1-.1s-.1-.1-.1 0c0 0-.1.1 0 .1l.1.1zm.3.4c0 .1 0 .1 0 0h.1s.1-.1 0-.1l-.1-.1s-.1-.1-.1 0v.1s0 .1.1.1zm-.9-1.3c0 .1.1.1 0 0h.1s.1-.1 0-.1l-.1-.1h-.1s-.1.1 0 .1.1.1.1.1zm-1.4-2.1s.1 0 0 0h.1v-.1l-.1-.1s-.1-.1-.1 0c0 0-.1.1 0 .1 0 0 .1 0 .1.1zm1.1 1.7c.1 0 .1 0 0 0h.1s.1-.1 0-.1V21c0-.1-.1-.1-.1 0v.2zm-2.3-3.6c0 .1.1.1.1.2h.1v-.1c0-.1-.1-.1-.1-.2h-.1v.1zm-.6-.9l.1.1h.1v-.1l-.1-.1H29v.1zm.3.5c0 .1.1.1.1.2h.1s.1-.1 0-.1c0-.1-.1-.1-.1-.1h-.1c0-.1 0-.1 0 0zm-.6-.5c.1 0 .1 0 0 0l.2-.1s.1-.1 0-.1c0 0-.1-.1-.1 0l-.1.1c-.1-.1-.1 0 0 .1zm1.7 2.2l.1.1h.1s.1-.1 0-.1l-.1-.1h-.1v.1zm-.2-.3c.1 0 .1.1 0 0h.1s.1-.1 0-.1l-.1-.1s-.1-.1-.1 0c0 0-.1.1 0 .1s.1.1.1.1zm-.2-.4h.1v-.1s-.1-.1-.1-.2h-.1s-.1.1 0 .1c0 .1 0 .1.1.2zm3.6 12.9l-.1.1s-.1.1 0 .1h.1l.1-.1s.1-.1 0-.1h-.1zm-2.5-11.2s0 .1 0 0h.1s.1-.1 0-.1c0-.1-.1-.1-.1-.1s-.1-.1-.1 0v.1l.1.1zm5.4 8.9s-.1 0-.1.1c0 0 0 .1-.1.1v.1h.2c0-.1 0-.1.1-.2-.1 0-.1 0-.1-.1zm-.4.5l-.1.1v.1h.1l.1-.1v-.1h-.1zm.3-.9v.2s0 .1.1.1c0 0 .1 0 .1-.1v-.2s0-.1-.2 0c.1-.1 0 0 0 0zm-.1-.4v.2l.1.1.1-.1c0-.1 0-.1-.1-.2 0 0-.1-.1-.1 0 .1-.1 0-.1 0 0zm-.1-.4s0 .1 0 0c0 .1 0 .1 0 0 .1.1.1.1.1 0v-.1s0-.1-.1-.1c0 0-.1-.1-.1 0 0 0-.1.1 0 .1 0 .1.1.1.1.1zm-11.4 3.6s-.1-.1-.1 0v.1c0 .1.1.1.1.1h.1s.1-.1 0-.1l-.1-.1zm10.1-1l-.1.1v.1h.1c.1 0 .1-.1.1-.1s.1-.1 0-.1h-.1zm-.4.3l-.1.1v.1h.1l.1-.1s.1-.1 0-.1h-.1zm.8-.6l-.1.1v.1h.1l.1-.1v-.1h-.1zm0-3.5c.1 0 .1 0 0 0h.1s.1-.1 0-.1l-.1-.1s-.1-.1-.1 0v.1c.1 0 .1 0 .1.1zm.5.7c0 .1.1.1.1.2h.1v-.1l-.1-.1h-.1c0-.1 0 0 0 0zm-1.3-2h.1V25l-.1-.1s-.1-.1-.1 0c0 0-.1.1 0 .1 0 0 .1 0 .1.1zm.3.4s0 .1 0 0h.1s.1-.1 0-.1l-.1-.1s-.1-.1-.1 0c-.1 0-.1.1 0 .1 0 0 0 .1.1.1zm-.9-1.3s.1.1 0 0h.1s.1-.1 0-.1V24h-.1v.2zm.3.4c0 .1 0 .1 0 0h.1v-.1c0-.1-.1-.1-.1-.1h-.1s-.1.1 0 .1l.1.1zm.8 1.2s.1.1.1.2h.1v-.1l-.1-.1s-.1-.1-.1 0c-.1-.1-.1 0 0 0zm.6 1s.1 0 0 0h.1v-.1s-.1-.1-.1-.2h-.1s-.1.1 0 .1c.1.1.1.2.1.2zm-2-3c.1 0 .1 0 0 0h.1v-.1c0-.1-.1-.1-.1-.1s-.1-.1-.1 0c0 0-.1.1 0 .1s.1 0 .1.1zm2.1 5.8l-.1.1v.1h.1l.1-.1c.1 0 .1-.1 0-.1h-.1zm-7.3 4.8s-.1 0-.1.1l-.1.1.1.1c.1 0 .1 0 .2-.1.1 0 .1-.1 0-.1 0-.1-.1-.1-.1-.1zm.4-.2c-.1 0-.1.1-.1.1s-.1.1 0 .1h.1c.1 0 .1-.1.2-.1 0 0 .1-.1 0-.1-.1-.1-.1-.1-.2 0zm.5-.3c-.1 0-.1.1-.1.1v.1h.1c.1 0 .1-.1.2-.1v-.1c-.1 0-.2-.1-.2 0zm-1.4.6h-.2c-.1 0-.1 0-.1.1 0 0 0 .1.1.1h.2c.1 0 .1-.1 0-.2.1.1.1 0 0 0zm2.2-1.2c-.1 0-.1.1-.1.1s-.1.1 0 .1h.1l.1-.1s.1-.1 0-.1h-.1zm.5-.3c-.1 0-.1.1-.1.1s-.1.1 0 .1h.1l.1-.1V33h-.1zm.4-.2c-.1 0-.1.1-.1.1s-.1.1 0 .1h.1l.1-.1v-.1s-.1-.1-.1 0zm.4-.3l-.1.1s-.1.1 0 .1h.1l.1-.1s.1-.1 0-.1h-.1zm-1.7 1.1l-.1.1v.1h.1l.1-.1s.1-.1 0-.1h-.1zm-2.3.8h-.2-.1v.1h.2s.1 0 .1-.1c.1.1.1.1 0 0zm-2.3-2.7s-.1-.1-.1 0v.1l.1.1h.1s.1-.1 0-.1l-.1-.1zm.3.4s-.1-.1-.1 0v.1c0 .1.1.1.1.1h.1v-.1l-.1-.1zm2.5-14.9l.2-.1s.1-.1 0-.1c0 0-.1-.1-.1 0l-.1.1c-.1 0-.1.1 0 .1-.1 0-.1 0 0 0zM27 34.3l-.1-.1h-.1v.1c.1 0 .1.1.2.1h.2l-.2-.1zm-.4-.3l-.1-.1c0-.1-.1-.1-.1 0 0 0-.1.1 0 .1l.1.1h.2l-.1-.1zm-.4-.6s-.1-.1-.1 0c0 0-.1.1 0 .1 0 .1.1.1.1.1h.1s.1-.1 0-.1c0 0 0-.1-.1-.1zm-.2-.3l-.1-.1h-.1v.1c0 .1.1.1.1.1h.1c.1 0 .1-.1 0-.1zm-.3-.6h-.1s-.1.1 0 .1c0 .1.1.1.1.1h.1c.1 0 .1-.1 0-.1s-.1 0-.1-.1zm0-13.8s.1 0 0 0l.2-.1v-.1h-.1l-.1.1c-.1-.1-.1 0 0 .1 0-.1 0 0 0 0zm.5-.3l.2-.1s.1-.1 0-.1h-.1l-.1.1c-.1-.1-.2 0 0 .1-.1 0-.1 0 0 0zm.4-.3l.2-.1s.1-.1 0-.1h-.1l-.1.1c-.1 0-.1 0 0 .1-.1 0 0 0 0 0zm-1.3.8l.2-.1s.1-.1 0-.1h-.1l-.2.1s0 .1.1.1c-.1 0 0 0 0 0zm2.2-1.4l.2-.1v-.1h-.1l-.1.1c-.1 0-.2 0 0 .1-.1 0-.1 0 0 0zm-.5.3l.2-.1s.1-.1 0-.1h-.1l-.1.1c-.1 0-.1 0 0 .1zm6.2 13.6l-.1.1v.1h.1l.1-.1s.1-.1 0-.1h-.1zm-.5.3l-.1.1s-.1.1 0 .1c0 0 .1.1.1 0 0 0 .1-.1.2-.1v-.1c-.1 0-.1-.1-.2 0zm-7.8-12.5l.2-.1s.1-.1 0-.1c0 0-.1-.1-.1 0l-.1.1c-.1 0-.1 0 0 .1-.1 0-.1 0 0 0zm-2.6 1.7l.2-.1s.1-.1 0-.1c0 0-.1-.1-.1 0l-.1.1c-.1 0-.1 0 0 .1-.1 0-.1 0 0 0zm-.4.3l.2-.1V21H22l-.1.1c-.1 0-.2 0 0 .1-.1 0-.1 0 0 0zm2.5-1.7s.1 0 0 0l.2-.1v-.1s-.1-.1-.1 0l-.1.1c-.1 0-.1 0 0 .1zm7.9 12.4l-.1.1s-.1.1 0 .1h.1l.1-.1s.1-.1 0-.1h-.1zm-.4.3l-.1.1s-.1.1 0 .1h.1l.1-.1s.1-.1 0-.1h-.1zm-7.7-12.5v-.1h-.1l-.1.1v.1h.1l.1-.1zm-.6.4l.2-.1s.1-.1 0-.1h-.1l-.1.1c-.1-.1-.1 0 0 .1-.1 0-.1 0 0 0zm-.5.3c.1 0 .1-.1 0 0l.2-.1s.1-.1 0-.1c0 0-.1-.1-.1 0l-.1.1c-.1-.1-.1 0 0 .1 0-.1 0 0 0 0zm-.4.2l.2-.1v-.1h-.1l-.1.1c-.1 0-.1.1 0 .1zm21-12.7zm-2.5 23.2c0 .7.5 1.2 1.2 1.2.6 0 1.2-.5 1.2-1.2s-.5-1.2-1.2-1.2-1.2.5-1.2 1.2zm2.1 0c0 .5-.4.9-.9.9s-.9-.4-.9-.9.4-.9.9-.9.9.4.9.9zm3.6.6c.4 0 .7-.3.7-.7 0-.4-.3-.7-.7-.7-.4 0-.7.3-.7.7 0 .4.3.7.7.7zm0-1.3c.3 0 .6.3.6.6s-.2.6-.6.6c-.3 0-.6-.3-.6-.6.1-.3.3-.6.6-.6zm-1.4.5v-.3c-.5 0-1 .1-1.4.1h-.3v.3h.3c.5 0 .9 0 1.4-.1zm.4 1.1c-.1-.1-.2-.2-.2-.3-.5.1-1 .1-1.6.1h-.4c-.1.1-.1.2-.2.3h.7c.5 0 1.1 0 1.7-.1zm-4.2-.9c0 .4.3.7.7.7.4 0 .7-.3.7-.7 0-.4-.3-.7-.7-.7-.4 0-.7.3-.7.7zm1.2 0c0 .3-.2.6-.6.6-.3 0-.6-.2-.6-.6 0-.3.3-.6.6-.6.4 0 .6.3.6.6zM41 31.5c-.6-.1-1.1-.3-1.7-.5-.1.1-.2.2-.3.2l2.1.6c0-.1-.1-.2-.1-.3zm.1-1.1c-.5-.1-.9-.2-1.4-.4v.3c.4.1.9.3 1.3.4.1-.1.1-.2.1-.3zm-2.8-1.6c-.7 0-1.2.5-1.2 1.2 0 .6.5 1.2 1.2 1.2s1.2-.5 1.2-1.2-.5-1.2-1.2-1.2zm0 2.1c-.5 0-.9-.4-.9-.9s.4-.9.9-.9.9.4.9.9-.4.9-.9.9zm14.1-2.8v-.2c-.2.2-.5.4-.8.5.1.1.2.1.2.2.2-.1.3-.2.5-.4v-.1zm-5.5 4.1c.7 0 1.2-.5 1.2-1.2s-.5-1.2-1.2-1.2c-.6 0-1.2.5-1.2 1.2 0 .6.6 1.2 1.2 1.2zm0-2.1c.5 0 .9.4.9.9s-.4.9-.9.9-.9-.4-.9-.9c.1-.5.4-.9.9-.9zm2.9.5c-.5.2-.9.4-1.4.5 0 .1 0 .2-.1.3l1.8-.6c-.1 0-.2-.1-.3-.2zm2.2-1c0-.7-.5-1.2-1.2-1.2-.6 0-1.2.5-1.2 1.2 0 .6.5 1.2 1.2 1.2s1.2-.5 1.2-1.2zm-2 0c0-.5.4-.9.9-.9s.9.4.9.9-.4.9-.9.9-.9-.4-.9-.9zm-.6.4v-.3c-.4.2-.8.3-1.3.5.1.1.1.2.2.3.3-.2.7-.4 1.1-.5zm2.2-.4c0-.4-.3-.7-.7-.7-.4 0-.7.3-.7.7 0 .4.3.7.7.7.3 0 .7-.3.7-.7zm-1.3 0c0-.3.2-.6.6-.6.3 0 .6.3.6.6s-.2.6-.6.6c-.4 0-.6-.3-.6-.6zm-12-.3c-.4 0-.7.3-.7.7 0 .4.3.7.7.7.4 0 .7-.3.7-.7s-.3-.7-.7-.7zm0 1.3c-.3 0-.6-.2-.6-.6 0-.3.2-.6.6-.6.3 0 .6.3.6.6s-.3.6-.6.6zm-8.1-19.4c-.2.6-.5 1.2-.6 1.8.1 0 .2-.1.3-.1.1-.5.3-1 .5-1.4-.1-.1-.2-.2-.2-.3zm6.5-5.7c-.1-.1-.2-.1-.2-.2-.4.2-.7.5-1.1.8.1.1.1.2.1.3.4-.4.8-.7 1.2-.9zm3.9-1.7c-.1-.1-.1-.2-.2-.3-.5.1-1 .3-1.4.5v.3c.5-.2 1-.4 1.6-.5zm-.2-1.4c-.7.2-1.5.4-2.1.7.1.1.2.1.3.2.6-.2 1.2-.4 1.7-.6 0-.1.1-.2.1-.3zM52 14.1v.1c.1 0 .1 0 0-.1zM32.8 7.4c0-.1-.1-.2-.1-.3-.5.6-1 1.2-1.4 1.9h.4c.3-.5.7-1.1 1.1-1.6zm-1.7 4.5c-.2.4-.3.8-.4 1.2.1 0 .2.1.3.2.1-.5.3-.9.5-1.3-.2-.1-.3-.1-.4-.1zm5-7.6v-.2c-.6.4-1.1.9-1.7 1.3.1 0 .2.1.3.1.4-.3.9-.7 1.4-1v-.2zM33.3 8c-.4.4-.7.9-1 1.3.1.1.1.2.2.2.3-.5.7-1 1.1-1.4-.1 0-.2 0-.3-.1zm8.4 19.6zm-21.1-5.5l.2-.1s.1-.1 0-.1c0 0-.1-.1-.1 0l-.1.1c-.1-.1-.1 0 0 .1-.1-.1-.1 0 0 0zm.4-.3l.2-.1s.1-.1 0-.1h-.1l-.1.1c-.1-.1-.1 0 0 .1-.1 0 0 0 0 0zm10.2-7.4c0-.4-.2-.7-.5-.9-.2-.2-.5-.2-.7-.2-.4 0-.7.2-.9.4-.2.2-.2.5-.2.7 0 .3.2.7.5.9.2.2.5.2.7.2.3 0 .7-.2.9-.5h-.2l.1.1c.2-.2.3-.5.3-.7zm-.5.5c-.2.2-.4.3-.7.3-.2 0-.4-.1-.5-.2-.2-.2-.3-.4-.3-.7 0-.2.1-.4.2-.5.2-.2.4-.3.7-.3.2 0 .4.1.5.2.2.2.3.4.3.7 0 .2-.1.3-.2.5zM19.4 23v.1s0 .1.1.2h.1c.1 0 .1-.1 0-.1 0-.1-.1-.1-.1-.1 0-.1-.1-.1-.1-.1zm.3.7s.1 0 0 0h.1v-.1c0-.1-.1-.1-.1-.2 0 0-.1-.1-.1 0v.1c.1.1.1.1.1.2zm0-1.1l.2-.1s.1-.1 0-.1h-.1l-.1.1c-.1 0-.1 0 0 .1-.1 0 0 0 0 0zm1.7-1.1l.2-.1s.1-.1 0-.1c0 0-.1-.1-.1 0l-.1.1c-.1 0-.1 0 0 .1zm-1.3.8s.1 0 0 0l.2-.1v-.1h-.1l-.1.1c-.1 0-.1.1 0 .1zM31.8 9.9c-.1-.1-.3-.2-.4-.2-.2 0-.4.1-.6.3-.1.1-.1.3-.1.4 0 .2.1.4.3.6.1.1.3.2.4.2.2 0 .4-.1.6-.3.1-.1.2-.3.2-.4-.1-.3-.2-.5-.4-.6zm0 .9c-.1.1-.3.2-.4.2-.1 0-.2 0-.3-.1-.1-.1-.2-.3-.2-.4 0-.1 0-.2.1-.3.1-.1.3-.2.4-.2.1 0 .2 0 .4.1.1.1.2.3.2.4 0 .1-.1.2-.2.3zm.8-.4c0-.4-.2-.7-.5-.9-.2-.2-.5-.3-.7-.3-.3 0-.7.2-.9.5-.2.2-.2.5-.2.7 0 .3.2.7.4.9.2.2.5.2.7.2.3 0 .7-.2.9-.4l-.1-.1.1.1c.2-.1.3-.4.3-.7zm-.5.6c-.2.2-.4.3-.7.3-.2 0-.4-.1-.5-.2-.2-.2-.3-.4-.3-.7 0-.2.1-.4.2-.5.2-.2.4-.3.7-.3.2 0 .4.1.5.2.2.2.3.4.3.7 0 .1-.1.3-.2.5zm-1.6 2.8c-.1-.1-.3-.1-.4-.1-.2 0-.4.1-.6.3-.1.1-.2.3-.2.4 0 .2.1.4.3.6.1.1.3.2.4.2.2 0 .4-.1.6-.3h-.1.1c.1-.1.2-.3.2-.4 0-.3-.1-.5-.3-.7zm0 .9c-.1.2-.3.2-.4.2-.1 0-.2 0-.3-.1-.1-.1-.2-.3-.2-.4 0-.1 0-.2.1-.3.1-.1.3-.2.4-.2.1 0 .2 0 .4.1.1.1.2.3.2.4-.1.1-.1.2-.2.3zm-11.3 8.2l.3-.1s.1-.1 0-.1h-.1l-.1.1c-.1 0-.1 0-.1.1zM35.3 6.8c0-.3-.2-.7-.5-.9-.2-.2-.5-.3-.7-.3-.3 0-.7.2-.9.5-.2.2-.3.5-.3.7 0 .3.2.7.5.9.2.2.5.3.7.3.3 0 .7-.2.9-.5l-.1-.1.1.1c.2-.2.3-.4.3-.7zm-.5.6c-.2.2-.4.3-.7.3-.2 0-.4-.1-.5-.2-.2-.2-.3-.4-.3-.7 0-.2.1-.4.2-.5.2-.2.4-.3.7-.3.2 0 .4.1.5.2.2.1.3.4.3.6 0 .2-.1.4-.2.6zM38 3.8c-.1-.1-.3-.2-.4-.2-.2 0-.4.1-.6.3-.1.1-.2.3-.2.4 0 .2.1.4.3.6.2.1.3.1.5.1s.4-.1.6-.3l-.1-.1.1.1c.1-.1.2-.3.2-.4-.1-.2-.2-.4-.4-.5zm0 .9c-.1.1-.3.2-.4.2-.1 0-.2 0-.4-.1-.1-.1-.2-.3-.2-.5 0-.1 0-.2.1-.3.1-.1.3-.2.4-.2.1 0 .2 0 .3.1.1.1.2.3.2.4.1.1.1.3 0 .4zm-3.4 1.6c-.1-.1-.3-.2-.4-.2-.2 0-.4.1-.6.3-.1.1-.2.3-.2.4 0 .2.1.4.3.6.1.1.3.2.4.2.2 0 .4-.1.6-.3h-.1.1c.1-.1.1-.3.1-.4 0-.3-.1-.5-.2-.6zm0 .9c-.1.1-.3.2-.4.2-.1 0-.2 0-.3-.1-.1-.1-.2-.3-.2-.4 0-.1 0-.2.1-.3.1-.1.3-.2.4-.2.1 0 .2 0 .3.1.1.1.2.3.2.4 0 0-.1.2-.1.3zM44.1.3C35 .3 27.6 7.6 27.4 16.6l-9.2 6 7.5 11.5s1.4 2.1 3.5.8c1.2-.8 2-1.3 2.3-1.5.7-.4 1.3-.2 1.3-.2l.2.1v-.2s.1-.7.6-1.1c.3-.2.8-.5 1.5-1 2.6 1.7 5.7 2.6 9 2.6 4.9 0 8.4-2.2 8.7-2.4-.1-.1-.1-.3-.3-.8-2.4 1.5-5.3 2.4-8.4 2.4-3 0-5.8-.8-8.2-2.3.1 0 .1-.1.2-.1.3-.2 1.1-.8 1.2-1.7 0-.4-.1-1.1-.4-1.5 2 1.4 4.5 2.3 7.2 2.3 3.2 0 6.2-1.2 8.4-3.2.2-.5.3-1.1.6-1.7-.2.2-.4.5-.6.7-2.2 2.1-5.1 3.5-8.4 3.5-3.3 0-6.3-1.3-8.4-3.5-.1-.1-.2-.2-.2-.3-.7-1-1.5-2.3-2.3-3.6-.6-1.4-.9-3-.9-4.6 0-3.3 1.3-6.2 3.5-8.4 2.1-2.2 5.1-3.5 8.4-3.5 3.3 0 6.3 1.3 8.4 3.5 2.1 2.2 3.5 5.1 3.5 8.4 0 1.7-.4 3.3-1 4.7.4-.5.8-.9 1.2-1.3.3-1.1.5-2.3.5-3.5 0-7-5.6-12.6-12.6-12.6S31.6 9.7 31.6 16.7c0 .8.1 1.6.2 2.4-.2-.3-.8-1.2-1.3-2.1v-.3c0-.4 0-.8.1-1.3-.1 0-.2 0-.3.1v1c-.5-.7-.8-1.2-.8-1.2l-.1-.1-.4.4-1.2.8.4-.3c.2-4 2-7.6 4.6-10.3 2.9-2.9 6.8-4.7 11.2-4.7 4.4 0 8.3 1.8 11.2 4.7 3 2.9 4.8 6.8 4.8 11.2 0 .5 0 1-.1 1.4-.1 0 .4-.1.8-.1 0-.4.1-.9.1-1.3C60.8 7.8 53.3.3 44.1.3zm-15 15.8c.8 1.2 6.9 10.5 7.2 11.1.1.2.5.7.5 1.2 0 .6-.3 1.2-1 1.7-1.2.8-2 1.3-2.4 1.6-.5.3-.7.8-.7 1-.3-.1-.8 0-1.4.4-.3.2-1.1.7-2.3 1.5-1.8 1.1-3-.6-3-.7 0 0-6.4-9.8-7.2-11.1.2-.2 10-6.6 10.3-6.7zm9.7-11.8c0-.3-.2-.7-.5-.9-.2-.2-.5-.3-.7-.3-.4 0-.7.2-.9.5-.2.2-.2.5-.2.7 0 .3.2.7.4.9.2.2.5.2.7.2.3 0 .7-.2.9-.5l-.1.1.1.1c.2-.3.3-.5.3-.8zm-.5.6c-.2.2-.4.3-.7.3-.2 0-.4-.1-.5-.2-.2-.2-.3-.4-.3-.7 0-.2.1-.4.2-.5.2-.2.4-.3.7-.3.2 0 .4.1.5.2.2.2.3.4.3.7 0 .1-.1.3-.2.5zM64.3 17.4c-.2-.2-.6-.2-.8.1-.2.2-.2.6.1.8.3.2.6.2.8-.1.1-.2.1-.5-.1-.8zm4.2-2.1c.4.3.8.2 1.1-.2.2-.3.2-.7 0-1l.2-.3.4.3.2-.3-.4-.3.3-.4-.4-.1-.3.4-.3-.4-.2.3.4.3-.2.3c-.3-.1-.7 0-.9.3-.4.3-.3.8.1 1.1zm.1-.9c.2-.2.4-.3.6-.1.2.2.3.4.1.7-.2.2-.4.3-.6.1-.2-.2-.3-.5-.1-.7zm1.8 4.1s.1-.1 0 0c.2-.2.1-.4 0-.5h-.1l.1-.1c.1-.1.1-.3 0-.4 0 0-.1 0-.1-.1.1-.1.1-.3 0-.4 0 0-.1-.1-.2-.1.1-.1.1-.3-.1-.4h-.1c.1-.1 0-.3-.1-.4 0 0-.1 0-.1-.1s0-.3-.1-.3c-.1-.1-.3-.1-.4 0-.1.1-.1.3.1.4 0 0 .1 0 .1.1s0 .3.1.3h.1c-.1.1 0 .3.1.4l.1.1c-.1.1-.1.3.1.4 0 0 .1 0 .1.1-.1.1-.1.3.1.4h.1l-.1.1c-.1.1-.1.3 0 .4 0 0-.1 0-.1.1-.1.1-.1.2 0 .3-.1 0-.1.1-.2.1 0 .1-.1.1-.1.2-.2 0-.3 0-.4.1 0 0 0 .1-.1.1-.2-.2-.5-.1-.7.1-.1.1-.1.2-.1.3-.1-.1-.3-.3-.3-.4v-.1c.1 0 .1-.1.2-.2s.1-.3.1-.4c.2-.3.5-.7.7-1.1.3-.9-.1-1.8-.1-1.8h-.2s.1 1-.2 1.5c-.2.4-.4.7-.7 1-.2 0-.4 0-.5.2-.1 0-.1-.1-.2-.1-.1-.1-.1-.1-.1-.2.1 0 .1-.1.1-.1.1-.1.1-.4 0-.5l.1-.1c.1-.1.1-.3.1-.5.1 0 .2-.1.3-.2.1-.1.1-.3.1-.4.1 0 .2 0 .3-.1.1-.1.1-.3 0-.4.1 0 .2 0 .3-.1.1-.1.1-.3-.1-.4-.1-.1-.3-.1-.4 0-.1.1-.1.2-.1.3-.1 0-.3 0-.4.1-.1.1-.1.2-.1.3-.2 0-.3 0-.4.2-.1.1-.1.2-.1.3-.2 0-.3 0-.4.2 0 0 0 .1-.1.1-.1.2-.3.2-.4.3-.1.1-.1.2-.1.3-.1 0-.2-.1-.2-.2 0 0 .1 0 .1-.1.1-.2.1-.4 0-.6.2-.3.5-.6.8-.8.4-.4 1.4-.6 1.4-.6v-.2s-.9-.1-1.8.4c-.3.2-.7.6-.9 1-.1 0-.2.1-.3.2-.1.1-.1.2-.1.3h-.2c-.2 0-.4-.2-.4-.4.1 0 .2-.1.2-.2.2-.2.1-.5-.1-.7 0 0 .1 0 .1-.1.1-.1.1-.3 0-.5.1 0 .1-.1.2-.1.1-.1.1-.2.1-.2.1 0 .2 0 .3-.1 0 0 0-.1.1-.1.1.1.3.1.4 0v-.1l.1.1c.1.1.3.1.4 0 0 0 0 .1.1.1.1.1.3.1.4 0 0 0 0 .1.1.1.1.1.3.1.4 0l.1.1c.1.1.3.1.4 0 0 0 0 .1.1.1.1.1.3.1.4-.1.1-.1.1-.3 0-.4-.1-.1-.2-.1-.3 0l-.1-.1c-.1-.1-.3-.1-.4 0 0 0 0-.1-.1-.1-.1-.1-.3-.1-.4 0 0 0 0-.1-.1-.1-.1-.1-.3-.1-.4.1 0 0 0-.1-.1-.1-.1-.1-.3-.1-.4.1v.1s0-.1-.1-.1c-.1-.1-.3-.1-.4.1 0 0 0 .1-.1.1-.1-.1-.3-.1-.5.1 0 .1-.1.1-.1.2-.1 0-.3 0-.4.1-.1.1-.1.2-.1.4-.1 0-.2.1-.3.2-.1.2-.1.4 0 .5-.1 0-.1.1-.2.1-.2.2-.1.5.1.7.1 0 .1.1.2.1-.1.3-.1.6.5.8 0 0 1.1.5 1.8 1s1.8 1.7 1.8 1.7.2.1.3.1h.2c0 .1.1.1.1.2.2.2.5.1.7-.1 0-.1.1-.1.1-.2.2.1.4.1.5-.1.1-.1.1-.2.1-.3.1 0 .3 0 .4-.1.1-.1.1-.3 0-.4.1 0 .1-.1.2-.1.1-.4.1-.6-.1-.7zm-3 1.3c-.2-.2-.6-.2-.8.1-.2.3-.2.6.1.8.2.2.6.2.8-.1.2-.2.2-.6-.1-.8zm-1.5-1.3c-.3-.2-.6-.2-.8.1-.2.3-.2.6.1.8.3.2.6.2.8-.1.2-.2.2-.6-.1-.8z"/>
    <path d="M65.4 19.7c-.1 0-.1-.1-.2-.1-2-1.3-4-1.6-5.8-1.1-1.9.6-3.5 1.9-5 3.8l-.1.1c-1.4 1.8-2.1 3.9-2.2 5.9-.1 2 .6 3.8 2.1 4.9.1.1.2.2.3.2 2 1.3 4 1.6 5.9 1 1.8-.6 3.5-1.9 4.9-3.8l.1-.1c1.4-1.9 2.1-4 2.1-6 .2-1.8-.6-3.7-2.1-4.8zm1.8 3.2c.1.2.1.4.1.5 0 .1-.1.3-.2.5 0-.2-.1-.4-.2-.6-.1-.2-.3-.3-.4-.5-.1-.1-.2-.3-.2-.5 0-.1 0-.2-.1-.3.4.3.8.5 1 .9zm-1 1.8c0 1.6-.6 3.4-1.8 5l-.1.1c-1.3 1.6-2.7 2.7-4.1 3.2-1.5.4-3 .2-4.7-.9-.1-.1-.2-.1-.2-.2-1.2-.9-1.7-2.3-1.6-3.9 0-1.6.7-3.4 1.8-5l.1-.1c1.3-1.6 2.7-2.8 4.2-3.2 1.5-.4 3-.3 4.7.9l.1.1c1 1 1.6 2.4 1.6 4zm-.9-4.8c-.3.4.1.6.3.7.3.1.5.1.6.5.2.4.3.6.4 1-.2-.2-1.1-.7-1.4-.9-.4-.4-.6-1 .1-1.3zm-.8-.4c.2 0 .4.2.4.4s-.2.4-.4.4-.4-.2-.4-.4c-.1-.2.1-.4.4-.4zm-1.8-.8c.4.1.5.2.7.5.2.2.5.5.7.1 0 .7-.6.8-1.2.4-.2-.2-1-.9-1.3-1h1.1zm-2.6-.1c.1-.1.4-.1.5-.1.5 0 .8.4 1.2.7-.1 0-.2.1-.3 0-.2 0-.3 0-.5-.1s-.4-.1-.7-.2c-.2-.1-.4-.1-.6 0 .1-.1.3-.2.4-.3zm-1.7.5c.1-.1.3-.2.5-.2.5 0 .9.2 1.3.5-.1 0-.2.1-.3.1h-.5c-.2 0-.5-.1-.7-.1-.2 0-.4 0-.6.1 0-.1.2-.3.3-.4zm-1.5 1c.1-.1.3-.3.4-.3.5-.2.9 0 1.3.2-.1.1-.1.1-.3.2-.2.1-.3.1-.5.1-.2.1-.5 0-.7.1-.2 0-.4.1-.6.2.2-.3.3-.4.4-.5zm-1.2 1c.1-.2.3-.3.4-.4.4-.2.9-.1 1.4 0l-.2.2c-.2.1-.3.2-.5.2-.2.1-.5.1-.7.1-.2.1-.4.1-.5.3-.1-.1.1-.2.1-.4zm-1.1 1.3c.1-.2.2-.3.4-.4.4-.3.9-.2 1.4-.1l-.2.2c-.1.1-.3.2-.4.2-.2.1-.4.2-.6.2-.2.1-.3.2-.5.3-.3-.1-.2-.3-.1-.4zm-.9 1.4c0-.2.2-.4.3-.5.3-.3.8-.3 1.3-.4-.1.1-.1.2-.2.3-.1.1-.2.2-.4.3l-.6.3c-.2.1-.3.2-.4.4-.1-.1 0-.3 0-.4zm-.5 1c.3-.4.8-.5 1.2-.6 0 .1 0 .2-.1.3-.1.2-.2.3-.3.4-.2.2-.4.3-.5.4-.2.2-.3.3-.3.5-.2-.1-.2-.3-.2-.5 0-.1.1-.4.2-.5zm-.5 1.7c.2-.4.7-.7 1.1-.8 0 .1 0 .2-.1.3-.1.2-.1.3-.2.5s-.3.3-.4.5c-.1.2-.2.3-.2.6-.1-.1-.1-.3-.2-.5s0-.5 0-.6zm-.3 2.5c-.1-.1-.1-.4 0-.5.1-.5.5-.8.8-1.1v.3c0 .2-.1.3-.1.5l-.3.6c-.1.2-.1.4-.1.6-.1-.1-.2-.3-.3-.4zm.8 1.9c-.2 0-.3-.2-.4-.3-.1-.1-.1-.3-.1-.5 0-.5.3-.9.6-1.2 0 .1.1.2.1.3v.5c0 .2-.1.4-.2.7-.1.1-.1.3 0 .5zm4.4 3.2c-1 0-1.9-.3-2-.4-.2-.1-.3-.2-.4-.4 0 .1-.2-.1-.2-.1-.2 0-.4-.1-.5-.2-.1-.1-.9-.5-1.1-1.8-.1-.4.1-.7.1-.8.1.3.3.6.5.9.2.2.5.4.7.6.3.2.3.7.4 1 0-.1.1-.3.2-.3s.4.2.4.3c0 .1-.1.3-.2.3.3 0 .7-.2 1 0 .3.1.5.3.8.4.3.1.7.2 1.1.2-.2 0-.3.3-.8.3zm1.5.3c-.1.1-.4.1-.5 0-.1 0-.4-.1-.5-.2.2 0 .4-.1.6-.2.2-.1.4-.3.6-.4.2-.1.3-.1.5-.2h.3c-.3.4-.5.8-1 1zm1.6-.3c-.1.1-.4.2-.5.1-.1 0-.4 0-.5-.1.2-.1.4-.1.5-.3l.5-.5c.1-.1.3-.2.4-.3.1-.1.2-.1.3-.1-.1.5-.3 1-.7 1.2zm1.7-1c-.1.1-.3.2-.5.3-.1 0-.4.1-.5 0 .2-.1.3-.2.4-.4l.3-.6c.1-.1.2-.3.3-.4.1-.1.2-.1.2-.2.2.5.1 1-.2 1.3zm1.4-1l-.4.4c-.1 0-.3.1-.5.1.2-.1.3-.3.4-.5.1-.2.1-.4.2-.6.1-.2.2-.3.3-.4l.2-.2c.1.3.1.8-.2 1.2zm1.2-1.2c-.1.2-.2.3-.3.4-.1.1-.3.2-.5.2.1-.2.2-.3.3-.6 0-.2 0-.5.1-.7 0-.2.1-.3.2-.5 0-.1.1-.1.2-.2 0 .5.2.9 0 1.4zm.9-1.4c0 .2-.1.4-.3.5-.1.1-.3.3-.4.3.1-.2.2-.3.2-.6V29c0-.2 0-.3.1-.5 0-.1.1-.2.1-.3.2.4.4.8.3 1.3zm.5-1c-.1.1-.2.3-.4.3.1-.2.1-.4.1-.6 0-.2-.1-.5-.1-.7V27c0-.1.1-.2.1-.3.3.4.5.8.5 1.3 0 .1-.1.4-.2.5zM67 27c-.1.1-.2.3-.4.4.1-.2.1-.4 0-.6-.1-.2-.1-.4-.2-.7v-.5c0-.1 0-.2.1-.3.3.3.6.7.6 1.2 0 .1 0 .3-.1.5zm.1-1.3c0-.2 0-.4-.1-.6l-.3-.6c-.1-.2-.1-.3-.1-.5v-.3c.4.3.8.6.9 1v.5c-.2.2-.3.4-.4.5z"/>
  </g>
</svg>
