<svg xmlns="http://www.w3.org/2000/svg" viewBox="0 0 83.8 43.5">
  <g fill="#448035">
    <path d="M81.8 28.5c-1.1 0-2 .9-2 1.9 0 1.1.9 1.9 2 1.9s1.9-.9 1.9-1.9c.1-1-.8-1.9-1.9-1.9zm0 3.5c-.9 0-1.6-.7-1.6-1.6 0-.9.7-1.6 1.6-1.6.9 0 1.6.7 1.6 1.6 0 .9-.7 1.6-1.6 1.6z"/>
    <path d="M82.3 30.4c.2-.1.3-.3.3-.5 0-.4-.4-.6-.6-.6h-1v2.1h.5v-.8h.2c.2 0 .4.1.5.3 0 .2.1.3.2.5h.5c-.1-.1-.2-.3-.2-.5-.1-.2-.2-.3-.4-.5zm-.4-.2h-.4v-.5h.3c.1 0 .3.1.3.2.1.2-.1.3-.2.3z"/>
    <g>
      <path d="M21.5 40.1c-.6.6-1.3 1.1-2 1.3-.7.2-2.6.4-3.1-1.2-.1-.3 0-.4.3-.5.5-.1 1.6-.5 2.9-.9 1.1-.4 2.1-.9 2.5-1.2.6-.4.7-.9.4-1.5-.8-1.8-2.6-3.6-5.6-3.1-2.4.5-4.1 2.6-4.1 5 0 3 1.8 4.8 4.1 5.3 2.1.5 4.7-.5 5.7-2.3.5-.6-.7-1.4-1.1-.9zm-5.4-2.4c-.2-.6 0-2.6 1-3 1.1-.4 1.8.2 2.2 1.3.1.4.1.9 0 1-.2.2-.6.4-.9.5l-.9.3c-.8.4-1.2.4-1.4-.1zM49.2 40.1c-.6.6-1.3 1.1-2 1.3-.7.2-2.6.4-3.1-1.2-.1-.3 0-.4.3-.5.5-.1 1.6-.5 2.9-.9 1.1-.4 2.1-.9 2.5-1.2.6-.4.6-.9.4-1.5-.8-1.8-2.6-3.6-5.6-3.1-2.4.5-4.1 2.6-4.1 5 0 3 1.8 4.8 4.1 5.3 2.1.5 4.7-.5 5.7-2.3.5-.6-.7-1.4-1.1-.9zm-5.3-2.4c-.1-.4-.1-1.2.1-1.9.2-.5.4-.8.9-1 .5-.2 1-.2 1.3 0 .4.2.7.7.9 1.3.1.4.1.9 0 1-.2.2-.5.4-.9.5-.4.1-.7.2-.9.3-.8.2-1.2.3-1.4-.2zM70.4 40.1c-.6.6-1.3 1.1-2 1.3-.7.2-2.6.4-3.1-1.2-.1-.3 0-.4.3-.5.5-.1 1.6-.5 2.9-.9 1.1-.4 2.1-.9 2.5-1.2.6-.4.7-.9.4-1.5-.8-1.8-2.6-3.6-5.6-3.1-2.4.5-4.1 2.6-4.1 5 0 3 1.8 4.8 4.1 5.3 2.1.5 4.7-.5 5.7-2.3.5-.6-.7-1.4-1.1-.9zm-5.3-2.4c-.1-.4-.1-1.2.1-1.9.2-.5.4-.8.9-1 .5-.2 1-.2 1.3 0 .4.2.7.7.9 1.3.1.4.1.9 0 1-.2.2-.5.4-.9.5-.4.1-.7.2-.9.3-.9.2-1.3.3-1.4-.2zM8 40.6c0 .4-.1.9-.4 1l-.7.3c-.1.1-.2.1-.2.3v.1l.1.8c0 .2.2.2.5.2h4.9c.3 0 .4 0 .5-.2l.1-.8v-.1c0-.1 0-.2-.2-.3l-.7-.3c-.3-.1-.4-.6-.4-1v-8.5c0-.4.1-.8.4-1l.7-.3c.1-.1.2-.1.2-.3v-.1l-.1-.6c0-.2-.2-.2-.5-.2H7.5c-.3 0-.4 0-.5.2l-.1.6v.1c0 .1 0 .2.2.3l.6.3c.3.2.3.6.3 1v2.4c0 .2-.1.3-.3.3H5c-.2 0-.3-.1-.3-.3v-2.4c0-.4 0-.8.3-1l.6-.3c.1-.1.2-.1.2-.3v-.1l-.1-.6c0-.2-.2-.2-.5-.2H.5c-.3 0-.4 0-.5.2V30.6c0 .1 0 .2.2.3l.7.3c.3.1.4.6.4 1v8.5c0 .4-.1.9-.4 1l-.7.3c-.2 0-.2.1-.2.2v.1l.1.8c0 .2.2.2.5.2h4.9c.3 0 .4 0 .5-.2v-.8-.1c0-.1 0-.2-.2-.3l-.7-.3c-.3-.1-.4-.6-.4-1v-3.4c0-.2.1-.3.3-.3h2.7c.1 0 .3.1.3.3v3.4z"/>
      <ellipse cx="25.5" cy="31.1" rx="1.8" ry="1.7"/>
      <path d="M23.6 43.3c-.3 0-.4 0-.4-.2l-.1-.8v-.1c0-.1 0-.2.1-.3l.5-.3c.3-.1.4-.6.4-1v-4.8c0-.4-.1-.9-.4-1.1l-.3-.2c-.1-.1-.2-.1-.2-.3v-.1l.1-.6c0-.2.2-.2.5-.2h3.3c.2 0 .3.1.3.3v7c0 .4.1.8.4 1l.5.3c.1.1.1.1.1.3v.1l-.1.8c0 .2-.2.2-.4.2h-4.3zM33.6 33.9s.2-.1.5-.3c.7-.3 2-.9 3-.5.9.3 1.7 1 1.7 2.7v5.4c0 .2 0 .3.1.4.1.1.4-.2.6-.3.2-.1.4 0 .5.2.1.1.3.3.2.6-.4.8-1.3 1.3-2.3 1.3-1 0-2.2-.6-2.2-2v-5.2c0-.8-.6-1.1-1-1-.7.1-1.2.6-1.2 1.6v3.9c0 .4.1.8.4 1l.5.3c.1.1.1.1.1.3v.1l-.1.8c0 .2-.2.2-.4.2h-4.4c-.3 0-.4 0-.4-.2l-.1-.8v-.1c0-.1 0-.2.1-.3l.5-.3c.3-.1.4-.6.4-1v-4.8c0-.4-.1-.9-.4-1.1l-.3-.2c-.1-.1-.2-.1-.2-.3v-.1l.1-.6c0-.2.2-.2.5-.2h3.1c.2 0 .3.1.4.3l.3.2zM76.4 33.9s.2-.1.5-.3c.7-.3 2-.9 3-.5.9.3 1.7 1 1.7 2.7v5.4c0 .2 0 .3.1.4.1.1.4-.2.6-.3.2-.1.4 0 .5.2.1.1.3.3.2.6-.4.8-1.3 1.3-2.3 1.3-1 0-2.2-.6-2.2-2v-5.2c0-.8-.6-1.1-1-1-.7.1-1.2.6-1.2 1.6v3.9c0 .4.1.8.4 1l.5.3c.1.1.1.1.1.3v.1l-.1.8c0 .2-.2.2-.4.2h-4.4c-.3 0-.4 0-.4-.2v-.9-.1c0-.1 0-.2.1-.3l.5-.3c.3-.1.4-.6.4-1v-4.8c0-.4-.1-.9-.4-1.1l-.3-.2c-.1-.1-.2-.1-.2-.3v-.1l.1-.6c0-.2.2-.2.5-.2h3.1c.2 0 .3.1.4.3l.2.3zM60.5 40.8c.2.4.5.7.8.8l.5.3c.1.1.1.1.1.3v.1l-.1.8c0 .2-.2.2-.4.2h-2.6c-.5 0-.5-.1-.7-.5l-2.2-4-.8.8v1.1c0 .4.2.8.5 1l.5.3c.1.1.1.1.1.3v.1l-.1.8c0 .2-.2.2-.4.2h-4.4c-.3 0-.4 0-.4-.2l-.1-.8v-.1c0-.1 0-.2.1-.3l.5-.3c.3-.1.4-.6.4-1V32c0-.4-.1-.8-.4-.9l-.5-.3c-.1-.1-.1-.1-.1-.3v-.1l.1-.5c0-.2.2-.2.4-.2h3.2c.3 0 .6.3.6.6v6.6l1.4-1.3c.2-.2.5-.5.7-.6.1-.1.2-.3 0-.4l-.5-.2c-.1-.1-.1-.1-.1-.3V34l.1-.7c0-.2.2-.2.4-.2h3.8c.3 0 .4 0 .4.2l.1.7v.1c0 .2-.2.2-.3.3 0 0-.3.1-.5.2s-.5.4-.8.6l-1.5 1.4 2.2 4.2z"/>
    </g>
  </g>
  <g fill="#B7B8BD">
    <path d="M57.1 22.2l-.4-.1c0 .4.2.6.6.6.4 0 .7-.3.7-.7 0-.2-.1-.5-.4-.6.2-.1.3-.3.3-.5 0-.4-.2-.6-.6-.6-.4 0-.6.3-.5.7h.4c0-.1 0-.2.2-.2.1 0 .2.1.2.2 0 .3-.1.3-.4.3v.4c.3 0 .4.1.4.3 0 .1 0 .3-.2.3-.2.1-.3 0-.3-.1M56.4 20.5h-1.3v.4h.7l-.8 1.9h.5M54.2 21.5c.2-.1.3-.3.3-.5 0-.3-.2-.6-.6-.6-.4 0-.6.3-.6.6 0 .2.1.4.3.5-.3.1-.4.3-.4.6 0 .4.3.7.7.7.4 0 .7-.3.7-.7 0-.2-.1-.5-.4-.6m-.3-.7c.1 0 .1.2.1.2 0 .1 0 .3-.1.3s-.1-.2-.1-.3c0-.1 0-.2.1-.2m0 1.6c-.2 0-.2-.2-.2-.3 0-.1 0-.3.2-.3s.2.2.2.3c0 .1 0 .3-.2.3M52.6 20.5h-.7v.4h.3v1.9h.4"/>
  </g>
  <g fill="#B7B8BD">
    <path d="M26.5 20.5h-1v2.3h1v-.4H26v-.6h.4v-.4H26v-.5h.5M31 22.2c-.2 0-.3.1-.3.3 0 .2.1.3.3.3.2 0 .3-.1.3-.3 0-.1-.1-.3-.3-.3M30.4 20.5h-1.3v.4h.4v1.9h.5v-1.9h.4M28.4 21v-.5c-.1-.1-.3-.1-.5-.1-.4 0-.7.3-.7.7 0 .3.2.5.5.7.1.1.3.2.3.3 0 .2-.1.3-.3.3-.1 0-.3 0-.4-.1v.4c.1.1.3.1.4.1.5 0 .7-.3.7-.7 0-.6-.8-.7-.8-1 0-.1.1-.2.3-.2.2-.1.4 0 .5.1"/>
  </g>
  <path fill="#B7B8BD" d="M50.2 24.6c.1.2 0 .4-.2.5-.1.1-.2.1-.2.1s-.1.1-.2.1c-.1.1-.4.1-.5 0 0 0-.3-.2-.8-.5-1.5-1-5-3.4-6.8-4.7-1.9 1.3-5.3 3.6-6.8 4.7-.5.3-.8.5-.8.5-.2.1-.4.1-.5 0-.1-.1-.2-.1-.2-.1s-.1-.1-.2-.1c-.1-.1-.2-.3-.2-.5v-.2c0 .1.1.1.1.1.1.1.2.1.2.1s.1.1.2.1c.1.1.3.1.5 0 0 0 .3-.2.8-.5 1.5-1 5-3.4 6.8-4.7 1.9 1.3 5.3 3.6 6.8 4.7.5.3.8.5.8.5.2.1.4.1.5 0 .1-.1.2-.1.2-.1s.1-.1.2-.1l.1-.1.2.2zm-14.7-9.4c-1.8-1.4-5.1-3.9-6.6-5-.5-.4-.7-.6-.7-.6-.1 0-.1-.1-.1-.2 0 0 0 .1-.1.2 0 .1 0 .4.2.5 0 0 .3.2.7.6 1.4 1.1 4.6 3.5 6.4 4.9.2-.1.2-.2.2-.4zM55 9.5c0 .1-.1.1-.1.2 0 0-.3.2-.7.6-1.5 1.1-4.7 3.7-6.6 5 0 .1.1.3.1.4 1.9-1.4 5-3.8 6.4-4.9.5-.4.7-.6.7-.6.2-.1.2-.4.2-.5.1-.1 0-.2 0-.2z"/>
  <path fill="#BE0411" d="M36.7 14.9L33.8 24l7.7-5.6 7.7 5.6-2.9-9.1L54 9.3v-.1-.1h-9.5L41.7 0h-.1-.1l-2.9 9.1h-9.5v.2l7.6 5.6z"/>
</svg>
