<svg xmlns="http://www.w3.org/2000/svg" viewBox="0 0 103.3 36.2">
  <path fill="#E0BD2F" fill-rule="evenodd" d="M100.1 19.4c0-.4.2-.8.5-1.1.3-.3.7-.5 1.1-.5.4 0 .8.2 1.1.5.3.3.5.7.5 1.1 0 .4-.2.8-.5 1.1-.3.3-.7.5-1.1.5-.4 0-.8-.2-1.1-.5-.3-.3-.5-.7-.5-1.1zm3 0c0-.4-.1-.7-.4-1-.3-.3-.6-.4-1-.4s-.7.1-1 .4c-.3.3-.4.6-.4 1s.1.7.4 1c.3.3.6.4 1 .4s.7-.2 1-.4c.2-.3.4-.6.4-1zm-2.1.7h.1v-1.3-.1h-.1v-.1h.8c.2 0 .3 0 .4.1.1 0 .2.1.2.2s.1.1.1.2 0 .1-.1.2c0 .1-.1.1-.1.2-.1 0-.1.1-.2.1 0 0 .1 0 .1.1l.1.1.1.1s0 .1.1.1c.1.2.1.3.2.3h.1v.1h-.5s-.1-.2-.2-.3c-.1-.1-.1-.2-.1-.3 0 0-.1 0-.1-.1h-.1-.1v.6h.1v.1l-.8-.3zm.6-.8c.2 0 .3 0 .3-.1.1-.1.1-.2.1-.3 0-.1 0-.2-.1-.3-.1-.1-.1-.1-.3-.1h-.1v.7c0 .1 0 .1.1.1z" clip-rule="evenodd"/>
  <path fill="#E0BD2F" fill-rule="evenodd" d="M49.8 10.3h-2.7v-2l-4.7 3.9c.4.1 1-.2 1.4.2l.1 8.7c0 1.3.5 2.4 1.4 3.2L48 22c.1 0 .2-.2.1-.3l-.2.2c-.2.1-.6 0-.8-.2v-9.2c.2-.5.8-.2 1.2-.3l1.5-1.9zm-41.7 14c-.3 0-.6-.4-.7-.7l-1.9-5.8c-.2-.3-.6-.4-.9-.2l-.3.3v3.8c.2.2.4.3.6.2.1 0 .3-.2.4-.2l-.1.2-2.9 2.4c-.5-.2-.7-.7-1-1-.3-.7-.6-1.4-.5-2.2V7c0-.2-.3-.3-.5-.2-.1 0-.2.2-.3.2v-.2l3.3-2.7c.4.1.6.5.8.9l.2 1v10.7c.1.2.2 0 .4 0 .8-.8 1.5-1.7 1.3-2.8-.1-.5-.7-.8-1.1-1L8.3 10c.6.1.8.8 1 1.3.1 1.9-1.5 3.1-2.6 4.5-.2.2-.5.4-.6.6.8 0 1.9-.7 2.5.2.8 1.6 1.1 3.4 1.7 5 .2.3.5.3.8.2l.2-.2v.2l-3.2 2.5zm3.7-4.2c.2 1.7.7 3.2 2.5 4.2 1-.8 2.2-1.9 3.3-2.6.2.6.4 1.2.7 1.8.2.3.5.7.9.8l2.8-2.4v-.1l-.3.2c-.3 0-.5-.1-.7-.3v-9.9c-.1-.7-.5-1.4-1.1-1.7-1.1 1-2.2 1.8-3.2 2.7v.1c.2-.1.4-.3.7-.2.2.1.4.3.4.5v7.4l-.3.4c-.5.4-1.2.5-1.7.3-.4-.2-.6-.6-.6-1l.1-8.5-.5-1c-.2-.3-.4-.7-.7-.7-1.1.9-2.2 1.8-3.2 2.7v.1c.1 0 .2-.1.3-.2.3-.1.6.1.8.3v7.1zm11.4 1.7c.2.9.7 1.8 1.5 2.3l2.8-2.4v-.1l-.5.1c-.2-.1-.4-.3-.5-.5v-7.7l.1-.2c.4-.4 1.1-.6 1.8-.4.3.1.5.5.6.8V20c.1 1 0 2.2.5 3 .3.4.5 1 1.1 1.2l2.9-2.4v-.2c-.2 0-.4.3-.7.2-.2-.1-.4-.3-.4-.5v-7.1c.1-1.8-1.1-3.3-2.5-4.4l-3 2.5h-.3c0-1-.3-2-1.2-2.6-1.1.9-2.2 1.9-3.3 2.8v.2c.2-.1.4-.2.7-.2.2.1.2.2.4.4v8.9zm16.1 1.9c-.9.6-2.3.8-3.4.4-1-.4-1.8-1.4-1.8-2.4l2.7-2.3c0 1.1.6 2.1 1.6 2.5.3.1.9.2 1.2-.1.4-.2.5-.5.5-.9-.2-1.9-2.4-1.8-3.5-2.7-1-.6-2.2-1.6-2.3-3-.3-2.5 2.6-3.4 4-4.9.8.7 1.6 1.3 2.7 1.1.4-.2.8-.3 1.1-.5h.1c-1 1.2-2.2 2.9-3.9 2.5-.7.2-1.2-1.7-1.6-.4-.1.4-.1.9.2 1.2 1.8 1.8 5.2 1.8 5.5 4.9.2 2.1-1.6 3.6-3.1 4.6zm14.5-2.1c.1.2.3.4.6.3.2 0 .3-.1.5-.2v.2l-3 2.5c-.9-.7-1.4-1.8-1.5-2.9l-.1-8.4c-.1-.2-.2-.3-.4-.4l-.6.2v-.1l3.2-2.7c.4-.2.6.4.8.6.3.5.5 1.1.4 1.8.1.2.3 0 .4-.1L57 9.9c.9.7 1.9 1.6 2.3 2.7.2.3.4 0 .6-.1L63 9.9c1.1 1 2.4 2.1 2.6 3.5v8.1c.1.1.2.3.4.3.3.1.5-.1.7-.2v.2L64 24.3c-.6-.2-1-.9-1.3-1.4l-.4-1.2v-8.1c-.1-.2-.5-.5-.8-.5-.7-.1-1.4.1-1.8.6v8c.2.3.6.4.9.2.1-.1.2-.1.3-.1v.2L58 24.3c-.4-.1-.7-.6-1-1-.4-.7-.7-1.4-.6-2.3v-7.4c-.1-.3-.5-.5-.8-.6-.6-.1-1.3.1-1.8.6v8zm25-8.5c-.1-.3-.6-.5-.8-.3-.1.1-.2.1-.2.2-.1 0 0-.1 0-.2l3.4-2.8c.8.6 1.2 1.5 1.1 2.5.2.2.3 0 .5-.1l2.9-2.4c1.6 1.2 2.7 2.7 2.6 4.7v6.8c.1.2.2.4.5.5.2 0 .4-.2.6-.2v.2c-.9.8-1.9 1.5-2.9 2.3-1.1-.7-1.6-2-1.5-3.3v-7.2c0-.3-.4-.5-.6-.7-.7-.2-1.4 0-1.9.5v7.9c.1.1.1.3.3.3l.7.1v.1l-2.8 2.3c-.8-.5-1.4-1.5-1.6-2.5v-8.7zm20.6.5c-.1-.7-.5-1.4-1-2-.5-.5-1-1-1.5-1.4L94 12.6c-.1.1-.4.3-.5 0 0-1-.3-1.9-1.1-2.5l-3.3 2.8v.2l.3-.2c.3-.1.6-.1.7.2V21l.2 1.3c.3.7.6 1.7 1.5 2 .9-.8 1.9-1.6 2.8-2.3v-.2c-.3.2-.8.1-1-.3v-7.9c.2-.5.8-.5 1.2-.6.5-.1 1 .2 1.2.6V21c0 1.3.5 2.5 1.5 3.4.6-.2 1.1-.7 1.6-1.2l1.4-1.1c.2-.5-.4.1-.7-.1-.3-.2-.4-.7-.5-1.1v-7.3zm-28.6 6.7c0 .4.3.8.6 1 .6.1 1-.2 1.4-.6l.6-.6v-3.6c-.1-.6 0-1.2-.3-1.8-.5-.8-1.5-1.5-2.3-1.7v7.3zm-3.2-.3c.2 1.7.8 3.2 2.6 4.3 1.1-.8 2.2-1.9 3.3-2.6.2.6.4 1.2.7 1.8.2.3.5.7.9.8l2.8-2.4v-.1l-.4.2c-.2 0-.6 0-.7-.2V15.1c0-2.6-2.9-4.2-4.9-5-1.6 1.3-3.3 2.8-4.9 4 .2 0 .5 0 .6.2V20z" clip-rule="evenodd"/>
  <path fill="#211915" fill-rule="evenodd" d="M65.9 2.9h1.4l-.7-1.7-.7 1.7zm-1.5 1.7v-.2h.4s0-.1.1-.1c0-.1.1-.2.2-.5.1-.1.2-.4.3-.8l.9-2.1.3-.9h.4l1.5 3.4.2.5.1.3s0 .1.1.1h.4v.3h-2.1v-.2c.3 0 .4 0 .4-.1 0 0 .1 0 .1-.1s0-.1-.1-.3l-.3-.7h-1.7l-.1.4c-.1.3-.2.5-.2.6v.1c.1 0 .2.1.5.1v.3h-.7l-.7-.1zm-5.4 0v-.2c.1-.1.3-.3.5-.6.3-.5.6-.8.7-1.1l.6-.9c.2-.3.3-.5.5-.7.3-.4.4-.6.4-.7h-1.9-.1s0 .2-.1.4V1h-.3V.3v-.4H62.9v.2c-.4.5-.7 1-1 1.4l-1 1.4c-.1.1-.1.2-.3.4l-.2.7-.2.2h1.9c.2 0 .3 0 .3-.1 0 0 .1-.2.1-.4v-.3h.5c-.1.4-.1.8-.1 1.2H59zm-4.8 0v-.1c.1-.1.2-.1.3-.2v-.4V.9c0-.2 0-.4-.1-.5V.3c-.1 0-.2 0-.5-.1V.1H57.4l-.1.5v.5H57V.6.5h-1.5v1.6h1.2V2v-.4h.3V3h-.3c0-.3 0-.4-.1-.5 0-.1-.1-.1-.1-.1h-1.1V4.2H56.7c.2 0 .3 0 .4-.1V4c0-.1.1-.3.1-.6h.3c-.1.4-.1.8-.1 1.1h-2.2l-1 .1zm-4.2.1c-.2-.5-.4-.9-.5-1.3L49 2.3c-.4-.9-.6-1.4-.7-1.5-.1-.2-.2-.3-.2-.3-.1 0-.2-.1-.4-.1V.1h2.1v.3h-.4-.1v.1c0 .1.1.3.2.6.1.2.1.3.1.3v.1l.8 2 .7-1.8s.1-.2.2-.6c.1-.3.2-.4.2-.5V.5.4h-.1-.4V.1h1.5v.3c-.2 0-.3 0-.4.1 0 0-.2.3-.4.7l-.2.5-.4 1c-.4.9-.6 1.5-.8 1.9H50zM42.5.3V.1H44.9c.3 0 .6 0 .8.1.2.1.3.2.4.3.1.2.2.3.2.6s-.1.5-.2.7c-.2.2-.4.4-.8.5.1.1.1.2.2.3.1.1.1.2.1.2v.1l.5.8.2.3c.2.2.3.3.3.4l.1.1h.2v.3h-1.2s0-.1-.1-.2L45 3.3c-.2-.3-.4-.6-.5-.8-.1-.1-.1-.2-.2-.2v-.1c.3 0 .5 0 .6-.1.1 0 .2-.1.3-.3.1-.2.1-.3.1-.5s0-.4-.1-.5l-.3-.3h-.8V4.3h.5v.3h-2.1v-.3h.5v-.1V.9.4.3c0 .1-.2.1-.5 0zm-4.9 4.3v-.1c.1-.1.2-.1.3-.2v-.4V.9c0-.2 0-.4-.1-.5V.3c-.1 0-.2 0-.5-.1V.1H40.8l-.1.5v.5h-.3V.6.5h-1.5c0 .3-.1.6-.1.9v.7H40V2v-.4h.3V3H40v-.5c0-.1-.1-.1-.1-.1h-1.1V4.2H40.1c.2 0 .3 0 .4-.1V4c0-.1.1-.3.1-.6h.4c-.1.4-.1.8-.1 1.1h-2.2l-1.1.1zM36 4l-.1.3c-.3.1-.5.2-.7.3-.2.1-.5.1-.8.1-.4 0-.8-.1-1.2-.2-.3-.1-.5-.3-.7-.5-.2-.2-.3-.4-.4-.6-.2-.3-.2-.7-.2-1.1 0-.7.2-1.2.7-1.7.5-.4 1.1-.6 2-.6.3 0 .6 0 .8.1.2 0 .5.1.8.2 0 .1-.1.2-.1.4v.7h-.3V.8c-.1-.1-.3-.3-.5-.3-.2-.1-.4-.1-.7-.1-.5 0-.9.2-1.2.5-.3.3-.4.8-.4 1.4 0 .3.1.7.1.9.1.3.2.5.4.6.2.2.3.3.5.4.2.1.5.1.9.1.2 0 .4 0 .6-.1 0 0 .2-.1.5-.2z" clip-rule="evenodd"/>
  <g fill="#BE0411">
    <path d="M24.9 32.6c.3 0 .5.2.5.5s-.2.5-.5.5-.5-.2-.5-.5.2-.5.5-.5zM22.6 32.6c.3 0 .5.2.5.5s-.2.5-.5.5-.5-.2-.5-.5.2-.5.5-.5zM20.3 32.6c.3 0 .5.2.5.5s-.2.5-.5.5-.5-.2-.5-.5c-.1-.3.2-.5.5-.5zM73.6 32.6c.3 0 .5.2.5.5s-.2.5-.5.5-.5-.2-.5-.5.2-.5.5-.5z"/>
    <path fill-rule="evenodd" d="M43 30.8c-.7.3-1.1 1-1.3 1.7v.4c0 .1 0 .2.1.3h.4c.7-.5 1.2-1.3 1.2-2.2 0-.1-.2-.2-.4-.2zm10.1.1c-.5.3-.8.7-1 1.2.1 0 .1 0 .2-.1.1 0 .3-.1.4-.2.4-.2.7-.6.7-1-.1.1-.2.1-.3.1zM51 32.8l-.3.3c-.2.2-.3.3-.5.4-.4.2-.8.4-1.3.1-.1-.1-.2-.4-.2-.6-.4.4-.9.7-1.4.7-.2 0-.5-.2-.5-.4v-.4l-.2.2c-.1.1-.3.2-.4.3-.3.2-.7.3-1.1.2-.2-.2-.3-.4-.2-.6-.2.2-.5.4-.7.5-.3.1-.6.3-.8.4-.8 1.4-2.3 2.5-4.1 2.2-.4-.1-.9-.3-1-.8 0-.3 0-.6.1-.8.3-.5.9-.5 1.4-.5v.2c-.3.1-.6.2-.6.4-.1.3-.1.8.2 1 .3.2.8.2 1.2.1.5-.3 1-.7 1.4-1.2.3-.4.5-.8.8-1.2-.1 0-.2.1-.3.2-.1 0-.1.1-.2.1s-.1 0-.2.1c-.2 0-.3 0-.5-.1-.3-.1-.4-.3-.4-.6v-.3-.3c.3-1 1.2-1.8 2.3-1.9.2 0 .4.1.6.3l.1.1c.1-.1.2-.2.4-.2h.7l-.1.2-1.5 2.7c.1 0 .2-.1.3-.1.2-.1.3-.2.5-.3.5-.3.7-.7 1-1.1.1-.2.2-.4.4-.6.1-.2.2-.4.4-.6h1l-.1.2c-.2.4-.5.8-.7 1.2-.2.4-.5.8-.6 1.2v.2H46.2c.5-.3.9-.7 1.2-1.1.3-.5.6-1 .9-1.4v-.1h1l-.1.2c-.2.4-.5.8-.8 1.2-.2.4-.5.8-.6 1.3v.1c.6-.2 1-.6 1.4-1 .2-.2.3-.5.5-.8.1-.2.2-.5.4-.7H50h-.1-.2l-.2-.1.1-.1c.1-.1.2-.1.3-.1H50.2c.1-.1.2-.3.3-.4.1-.2.2-.3.3-.5.1 0 .2 0 .4-.1h.5l-.1.1c-.1.2-.2.3-.3.5-.1.1-.1.2-.2.3 0 0 0 .1-.1.1h.9v.2h-1.1c-.5.7-1 1.4-1.3 2.2v.2h.1c.7-.3 1.4-.9 1.7-1.6.6-.7 1.4-1.2 2.3-1.1.2 0 .5.2.6.4 0 .2 0 .4-.1.5-.1.2-.3.3-.4.4-.3.2-.6.3-.9.3-.3.1-.6.1-.9.3-.1.1-.1.1-.1.3 0 .1 0 .1.1.2 0 .1 0 .1.1.2.1.2.3.3.5.3.4 0 .7-.2 1-.4.1-.1.3-.2.5-.4l.4-.4c.3-.2.4-.5.6-.8v-.1h.1c.2 0 .2.2.1.3l-.1.1v.1c-.8.9-1.8 1.9-3 2.1l-.5-.1c-.4-.1-.6-.4-.7-.8.1-.5.1-.6.1-.7 0 .1 0 0 0 0zM29.9 31.6c.1-.2.1-.5 0-.7-.1-.1-.2-.1-.4-.1-.7.4-1.2 1.2-1.3 2 0 .2.1.3.2.4.1.1.2 0 .3 0 .1 0 .1-.1.2-.1s.1-.1.2-.1l.5-.6c.1-.3.2-.6.3-.8zm4.1-.1c.1-.2.1-.4 0-.6-.1-.1-.3-.1-.4-.1-.7.4-1.1 1.2-1.3 2 0 .2.1.3.2.4.1 0 .3 0 .4-.1.1-.1.3-.2.4-.3l.5-.6c.1-.3.2-.5.2-.7zm2.2.7c.1.2 0 .4-.1.5-.1.1-.2.1-.3.1h-.2v.2c0 .1 0 .1.1.2l.1.1s.1 0 .1.1c.2 0 .5-.1.7-.3.1-.2.1-.5 0-.7-.1-.1-.1-.2-.2-.3 0-.1-.1-.2-.2-.2l-.1.1c.1.1.1.2.1.2zm1.3 1c.1 0 .1-.1 0 0 .2-.1.4-.2.5-.3.3-.2.5-.4.7-.7.2-.3.4-.5.6-.8v-.1l.2.1-.1.1c-.3.6-.8 1.2-1.4 1.6 0 .1-.1.1-.1.1l.1.1c-.7.5-1.7.8-2.5.3-.1-.1-.2-.2-.3-.4-.1.1-.2.1-.2.2-.1.1-.2.2-.4.2-.3.1-.6.2-.9.1-.1-.1-.2-.2-.2-.3v-.2c-.1.1-.2.1-.2.2-.1.1-.3.2-.4.2-.3.1-.6.2-1-.1-.2-.1-.3-.3-.3-.5v-.3c-.4.4-.8.8-1.3 1H30c-.1 0-.2 0-.3-.1-.1-.1-.2-.2-.2-.3v-.2c-.1 0-.1.1-.2.1-.1.1-.2.1-.3.2-.2.1-.5.2-.8.1-.1 0-.2-.1-.3-.2-.1-.1-.1-.2-.2-.2-.2-.9.2-1.6.8-2.1.5-.4 1.2-.8 2-.5.1 0 .1.1.2.1v.1l1.8-3h1l-3.1 5v.2c0 .1-.1.1-.1.2v.2c.8-.2 1.4-1 1.8-1.8.5-.6 1.3-1.2 2.2-1.1.2 0 .4.2.5.4v-.1l.1-.1h.9l-.1.2c-.2.4-.5.8-.7 1.2-.2.4-.5.8-.6 1.2v.2c.3-.1.6-.3.9-.6 0-.3.1-.5.4-.7.1-.1.2-.1.3-.1h.1s.1-.1.1-.2c.1-.1.1-.1.1-.2.1-.1.1-.2.1-.3v-.1c.2-.4.6-.7 1-.8.4-.1.9 0 1.2.4v.5c-.1.2-.3.3-.5.3l-.4-.1v-.1c.1-.1.1-.3.2-.4 0-.2 0-.3-.1-.4-.1 0-.1-.1-.1-.1h-.2c-.1.1-.2.1-.3.3 0 .2 0 .3.1.5s.2.3.3.5c0 .6.2 1-.1 1.4zM68.5 30.9c-.5.2-.9.7-1.1 1.3.1 0 .1 0 .2-.1.1 0 .2-.1.3-.1.4-.3.8-.6.8-1 0-.1 0-.1-.2-.1zm3.2.4c-.8.6-1.4 1.4-1.8 2.3v.1l-.9.1v-.2c0-.1 0-.2.1-.2 0-.1.1-.1.1-.2-.1.1-.2.1-.3.2-.2.1-.4.3-.7.3-.5.2-1 .2-1.5-.1-.2-.2-.3-.4-.3-.7-.1.1-.2.2-.3.2-.1.1-.3.2-.4.3-.3.2-.6.3-1 .3-.2 0-.4-.2-.4-.4v-.5c.1-.2.1-.3.2-.5l1-1.6h1l-.1.2c-.2.4-.5.8-.7 1.2-.2.4-.5.8-.6 1.2v.1c.7-.2 1.5-.8 1.6-1.6.6-.8 1.5-1.4 2.5-1.2.2.1.3.3.4.4-.1.5-.4.8-.8.9-.2.1-.4.1-.5.2-.2.1-.4.1-.5.2-.1 0-.1 0-.2.1h-.1c-.1 0-.1 0-.2.1 0 .3.1.6.4.7.4.2.9-.1 1.3-.3.5-.2.7-.6.9-1l.3-.6c.1-.2.2-.4.4-.6l1.1-.1-.1.2c0 .1-.1.2-.2.2 0 .1-.1.1-.1.2.3-.2.5-.4.8-.5.1-.1.3-.1.4-.1h.5l-.1.2-.3.6c-.1.2-.1.3 0 .5 0 0 .1.1.1 0h.2l.5-.3.1.2c-.3.4-.8.7-1.3.7-.2-.1-.6-.2-.6-.5.1-.4.1-.5.1-.7 0 .1 0 .1 0 0z" clip-rule="evenodd"/>
    <path d="M66.8 29.9h-.1c-.2-.1-.4-.2-.4-.4s.2-.5.4-.6h.4s.1 0 .1.1c.3.2.2.6 0 .8-.1.1-.2.1-.4.1.1 0 0 0 0 0zM64 28.4s0 .1 0 0c.4.4.6.9.4 1.4-.2.6-.8.8-1.3 1 .2.1.4.1.5.2.4.3.4.9.3 1.3-.2.6-.8 1.2-1.4 1.4-.4.1-1.1.2-1.6-.1l-.1-.1-.1-.1c-.1-.1-.1-.2-.1-.4s.1-.4.3-.5c.2-.1.5-.1.7.1l.1.1-.1.1c-.2.2-.3.4-.2.6.1.1.2.2.4.2.5 0 .9-.6 1.1-1.1.1-.4.1-1-.2-1.3-.2-.2-.5-.2-.7-.2v-.2h.1c.5 0 1-.3 1.3-.8.2-.3.2-.8 0-1.1-.1-.1-.1-.1-.3 0-.4.4-.7 1-1 1.6-.3.6-.7 1.2-1.1 1.8-.8 1.1-1.9 1.9-3.5 1.5-.3-.1-.6-.3-.8-.6V33v-.2c0-.2 0-.3.1-.4.2-.2.4-.2.6-.1.1 0 .1.1.2.1 0 0 0 .1.1.1.1.2.1.3.1.4l-.1.1v.1c-.1.1-.2.1-.1.3l.3.3c.8.2 1.5-.2 2-.9.3-.3.5-.7.7-1.1l.6-1.2c.4-.7.9-1.4 1.7-1.9-.3-.3-.8-.4-1.3-.4-1.3 0-2.7.7-3.2 2-.1.5-.2 1.1.1 1.5.1.2.3.3.6.4.4 0 .9-.4 1.1-.9.2-.3.2-.9.2-1.3h.2c.2.9-.1 1.8-.9 2.3-.5.3-1.2.3-1.7-.1-.3-.3-.6-.8-.5-1.3.2-1.3 1.6-2.3 2.7-2.7 1.1-.4 2.4-.2 3.4.1.2-.1.4-.2.6-.2.2-.1.4-.1.6-.1h.1l.1.2c-.2 0-.4.1-.5.2-.1.1-.3.1-.4.2-.2-.1-.1-.1-.1-.1z"/>
  </g>
</svg>
