<svg xmlns="http://www.w3.org/2000/svg" viewBox="0 0 81.9 73.2">
  <path fill="#211915" fill-rule="evenodd" d="M32.4 64c-.4.1-.8.3-1.2.4-.8.2-1.8.4-3.1.4-6.5 0-8.8-4.8-8.8-8.4 0-4.3 3.4-8.7 8.9-8.7 1 0 2 .1 3 .4 1.9.5 2.8 1.3 3.3 1.7l-1.8 1.7-.7.1.6-.9c-.7-.8-2.1-2.3-4.6-2.3-3 0-6.3 2.5-6.3 7 0 3.7 2.4 8.4 8.1 8.4 1.6 0 2.7-.4 3.7-.8l-1.1 1zm14.3-2.5l-1 .3c-.4.2-.8.4-1.7.5-.6.1-1.2.1-1.8.1-.5 0-1.8 0-2.1-.4-.2-.2-.2-.5-.2-.9v-4.4c0-.5.2-.6.6-.6h2.2c.1 0 .2 0 .2.1 0 0 0 .1-.2.4l.5-.2 1.1-1.1h-4.4l.2-5.4H43.8c.1 0 .2.1.2.1s-.2.3-.3.4l.5-.1 1.2-1.1h-8l-1.4.7h2c-.2 3.7-.2 7.4-.2 11.1 0 .8-.1 1-.7 1.7h7.7l1.9-1.2zm12.1 0l-1 .3c-.5.3-.9.5-2 .6-.6.1-1.3.1-1.9.1-.5 0-1.8 0-2.1-.3-.2-.2-.2-.4-.2-.6v-.8c0-.3 0-3.4.1-3.9v-2.7c.1-2.5.1-2.8.1-3.2 0-.5.1-.6.4-.9l.4-.4h-3.3l-1.3.6h1.9v.3c0 .8-.1 1.7-.1 2.5-.1 2.2-.1 4.4-.1 5.2v3.6c-.1.5-.3.7-.7 1.2h8.1l1.7-1.6zm6.3 1.2l-1.4-.1c-.7-.1-.7-.2-.7-1.4V60v-2.5l.1-2.8c0-1 .1-2.7.1-3.7 0-.4 0-.5.1-.5 0-.1.1-.2.2-.3l.5-.4h-3.5l-1.3.7h1.9C61 53 61 57.2 61 61.7c0 .6-.1.6-.7 1.5h4l.8-.5zm9.6-5.5c.6 0 .8-.1 1.2-.1-.5-1.3-2-4.5-2.3-5.2-.5 1.1-.8 1.8-1.1 2.6-.3.7-.7 1.4-1 2.1l-.3.6h3.5zM72 49.7l2.7-.2c.2.5 1.3 2.9 1.5 3.3.4.9 1 2.4 1.4 3.3l.7 1.7c1.6 3.4 2.2 4.3 3.6 5.3-.5.1-.8.2-1.3.2s-1-.1-1.5-.5c-1-.7-1.5-1.7-2-2.8L76 57.4c-.7.2-1 .3-1.5.5h-3c-.4 0-.6.1-.7.3l-1.8 3c-.1.1-.1.3-.1.4 0 .2.1.3.3.4.5.3 1.4.5 2 .6l-1.6.5c-1.4.1-2-.3-2.5-.6 1-1.3 1.7-2.2 3-5.1l.7-1.5c.8-1.6.8-1.6 1.6-3.4.3-.8.4-1 .6-1.5-.3-.8-1.4-.9-2.3-.8l1.3-.5zm-60.7 6.8h.8c-.3-.8-1.2-2.9-1.5-3.3-.3.7-.5 1.2-.7 1.6-.2.4-.4.9-.6 1.3-.2.2-.3.3-.3.4h2.3zm-1.8-4.7l1.7-.1c.1.3.9 1.8 1 2.1.3.6.7 1.5.9 2.1l.5 1.1c1 2.2 1.4 2.7 2.3 3.4-.3.1-.5.1-.8.1-.3 0-.6-.1-1-.3-.7-.4-1-1.1-1.3-1.8l-.7-1.7c-.5.1-.6.2-1 .3H9.2c-.3 0-.4 0-.5.2l-1.1 2c0 .1-.1.2-.1.3 0 .1.1.2.2.2.3.1.9.2 1.3.3l-1 .3c-.9 0-1.3-.2-1.6-.4.6-.8 1.1-1.4 1.9-3.2l.4-1c.5-1 .5-1 1-2.2.2-.5.3-.6.4-1-.2-.5-.9-.6-1.5-.5l.9-.2zm.7 9.9l-1 .3c-.5.3-.8.4-1.8.5-.6.1-1.2.1-1.8.1-.5 0-1.7 0-2-.3-.1-.1-.2-.4-.2-.5V61c0-.3 0-3.2.1-3.7V54c.1-2.4.1-2.6.1-3 0-.4.1-.5.4-.8l.4-.4H1.3l-1.2.7h1.7v.3c0 .8-.1 1.6-.1 2.3-.1 2-.1 4.9-.1 5.6v3.4c-.1.5-.2.7-.7 1.1h7.6l1.7-1.5z" clip-rule="evenodd"/>
  <g fill="#87807E">
    <path d="M2.6 22.2c.2-.3.2-.3.1-.5-.1-.1-.2-.2-.6-.5l-.7-.5c-.5-.4-.8-.7-1-.7-.1 0-.1 0-.3.2l-.1-.1.4-.4c.1-.1.4-.5.5-.6.2-.2.5-.5.9-.6.4-.1.7.1.8.2.3.2.4.5.4.8 0 .4-.2.9-.5 1.2-.1.1-.1.2-.2.2l.1.1c.1.1.3.2.5.4.1.1.2.1.3 0 .1 0 .2-.2.3-.3h.1c.1 0 .1.1.1.1-.3.4-.5.6-.5.7-.2.1-.3.3-.4.4h-.1l-.1-.1zM2.3 19c-.1 0-.7-.5-1.3.2-.1.2-.2.3-.2.3s0 .1.1.1c.1.1 1 .8 1.2 1h.1c.1 0 .1-.1.2-.2s.2-.3.2-.4c.1-.3 0-.7-.3-1zM3.5 16.3c-.3.4-.3.5-.2.5.1.1.2.2.7.6l.7.6c.3.3.5.5.7.6.1.1.1.1.2 0 0 0 .2-.1.2-.2h.1l.1.1-.6.6c-.2.2-.3.4-.3.4H5l-.1-.1c.1-.1.1-.2 0-.3 0-.1-.2-.2-.7-.7l-.8-.7c-.6-.5-.7-.6-.8-.5-.1 0-.1.1-.2.2l-.1-.1v-.1s0-.1.1-.1l.4-.4c.2-.2.4-.5.5-.5 0-.1.1-.1.1 0l.1.1zM5.2 14.2c.7-.7 1.9-.7 2.6 0 .5.5.6 1.1.6 1.5 0 .5-.3.9-.5 1.1-.4.4-1 .7-1.6.6-.4 0-.9-.2-1.2-.6-.3-.3-.5-.8-.5-1.4 0-.4.3-.9.6-1.2zm0 .2c-.2.2-.4.5-.3.9 0 .4.3.8.5 1.1.3.4.8.5 1.2.6.5 0 .8-.1 1.1-.4.4-.4.4-1.2-.2-1.9-.3-.3-.8-.6-1.3-.6-.3-.1-.6 0-1 .3zM7.2 12.4c.2-.2.3-.2.6-.5H8c.1 0 .4.1.5.1.5.1 1.6.2 3 .3-.1-.2-.4-.5-.7-.8-.4-.4-.5-.7-.7-.9-.1-.1-.2-.2-.3-.1-.1 0-.2.1-.3.2h-.1l-.1-.1.5-.4c.2-.1.3-.3.4-.4h.1l.1.1c-.1.1-.2.2-.2.3 0 .1 0 .3.5.9.3.4.5.7.9 1.2.2.3.4.5.5.6v.1H12c-.6-.2-1.3-.2-2-.3-.6-.1-1.2-.2-1.8-.2.2.3.4.5.6.8.3.4.8.9.9 1.1.1.1.3 0 .5-.1l.1.1v.1c-.2.1-.4.3-.6.4 0 0-.1.1-.2.1l-.1-.1c.2-.3.2-.3.1-.5-.1-.1-.3-.5-.7-1l-.4-.6c-.3-.4-.4-.5-.5-.5-.1 0-.2 0-.4.1H7.2zM13.2 9.9c.2-.1.4-.2.4-.3.3-.2.3-.2.2-.5l.1-.1c.1.1.2.4.3.5.1.2.2.3.3.4l-.1.1h-.1s-.1-.1-.2-.1c-.1-.1-.2-.1-.4 0-.1.1-.3.2-.5.3-.2.1-.3.2-.3.2v.1l.3.6c.2.3.3.4.4.5.1.1.3 0 .7-.3.5-.3.8-.5.6-1.1l.1-.1c.1.2.2.5.3.7v.1s-.1 0-.2.1-.5.3-.8.5c-.4.2-.7.5-1.1.7l-.1-.1c.2-.2.2-.2.1-.3 0-.1-.2-.4-.5-.8l-.5-.8c-.4-.6-.5-.8-.6-.8h-.1s-.1.1-.3.1l-.1-.1.1-.1c.3-.2.5-.3.8-.5l.4-.3c.3-.2.6-.4.8-.6.1 0 .1-.1.1-.1.1 0 .1 0 .1.1.1.3.3.5.3.6-.1.1-.1.1-.2.1-.3-.3-.4-.4-.7-.2l-.3.2c-.3.2-.4.3-.5.3v.2l.6.9s.1.1.1 0l.5-.1zM14.3 7.3c.3-.2.5-.3.7-.4.2-.1.4-.2.5-.3.3-.2.6-.3.9-.2.3 0 .5.2.7.4.2.4 0 .8-.1 1v.1c.1.1.3.3.7.5.4.2.8.3 1.3.3h.1v.1c-.5.2-.8.2-1.3.1-.3-.1-.6-.3-1-.5-.2-.1-.3-.1-.6 0-.1.1-.2.1-.2.1v.1c.2.3.3.6.5.9 0 .1.1.1.1.1.1 0 .3-.1.4-.1v.1l-.1.1s-.4.2-.7.4c-.2.1-.2.2-.3.2h-.1l-.1-.1c.1-.1.2-.2.2-.3 0-.1-.2-.5-.5-1.1l-.3-.5c.1-.3-.1-.6-.2-.8-.1-.1-.1-.1-.5 0l-.1-.2zm2.3-.3c-.2-.4-.6-.5-1.1-.3-.1.1-.2.2-.3.2V7l.4.8.3.5s.1 0 .2-.1c.3-.2.6-.4.6-.6.1-.1 0-.4-.1-.6zM19.6 4.4c.9-.4 2-.1 2.4.8.3.6.2 1.2 0 1.6-.2.5-.6.8-.8.9-.5.3-1.2.3-1.7.1-.4-.2-.7-.5-.9-.9-.2-.4-.2-.9 0-1.4.2-.5.6-.9 1-1.1zm0 .3c-.2.1-.5.4-.6.7-.1.4 0 .9.1 1.2.2.4.5.8.9.9.5.2.8.2 1.2 0 .5-.2.8-1 .4-1.8-.2-.4-.5-.8-1-1-.3-.2-.6-.2-1 0zM23.5 6.8c-.1 0-.1-.1-.1-.2-.1-.3-.2-.5-.4-.7v-.1s.1 0 .1-.1h.1c.1.1.1.2.3.3.2.2.6.2 1 .1.4-.2.7-.5.5-1-.1-.2-.2-.3-.4-.4-.1 0-.3-.1-.7-.1-.5 0-.7 0-.9-.2-.1-.1-.3-.2-.3-.4-.1-.4 0-.6.2-.9.1-.1.4-.3.7-.4.2-.1.4-.1.5-.1h.1l.1-.1h.1c.1.3.2.5.3.8v.1l-.1.1c-.1-.2-.2-.3-.4-.4-.1 0-.4 0-.7.1-.5.1-.6.4-.5.7 0 .1.2.2.3.3.2.1.3.1.8.1.4 0 .7 0 .9.1.3.1.4.3.5.5.1.4.1.7-.2.9-.2.2-.6.4-.8.5-.2.1-.5.1-.7.2h-.1c0 .1-.1.2-.2.3.1-.1.1 0 0 0zM28.5 3.1c.2 0 .4-.1.5-.1.3-.1.3-.1.3-.4l.2-.1c0 .2.1.4.1.6 0 .2.1.3.2.5h-.1-.1c0-.1-.1-.1-.1-.2-.1-.1-.1-.1-.3-.1-.1 0-.3.1-.6.1l-.3.1s0 .2.1.6c.1.4.1.5.2.6.1.1.3.1.7-.1.6-.1.9-.2.9-.8h.1c.1.3.1.6 0 .8v.1s-.1 0-.2.1c-.2 0-.5.1-1 .2l-1.2.3v-.2c.1-.1.1-.2.1-.3 0-.1-.1-.4-.2-.9l-.2-.9c-.2-.7-.3-.9-.3-.9h-.4V2h.2c.2 0 .4-.1.7-.2l.5-.1c.3-.1.7-.2 1-.3h.1c.1 0 0 0 .1.1 0 .3.1.5.1.7h-.2c-.2-.4-.2-.5-.6-.4l-.4.1c-.3.1-.5.1-.5.2-.1 0-.1.1 0 .2.1.4.2.7.3 1.1 0 0 0 .1.1.1l.2-.4zM30.4 1c.3 0 .4 0 .8-.1h.1l.1.1c0 .1.3.3.4.4.4.3 1.3.9 2.5 1.8 0-.2-.1-.7-.2-1.1-.1-.6-.2-.9-.2-1.1 0-.1-.1-.2-.2-.2h-.3V.7l.6-.1c.2 0 .4-.1.6-.1l.1.1c-.2.1-.2.1-.3.2-.1.1-.1.2 0 1 .1.5.1.8.2 1.5.1.3.1.7.1.7l-.1.1h-.1c-.4-.4-1-.8-1.6-1.3-.5-.4-1-.7-1.5-1.1 0 .3.1.7.1 1 0 .3.1 1.1.2 1.3.1.1.2.1.4.1l.1.1v.1c-.2 0-.5.1-.7.1-.2 0-.3.1-.4.1l-.1-.2c.3-.1.3-.2.3-.4 0-.1 0-.6-.1-1.2l-.1-.7c-.1-.6-.1-.7-.2-.8-.1-.1-.2-.1-.4-.1h-.1V1zM38.2 1.7h.5c.3 0 .4 0 .4-.4h.2v.6c0 .2 0 .3.1.5h-.1-.1c0-.1 0-.1-.1-.2 0-.1-.1-.2-.3-.2h-1-.1v.6c0 .4 0 .5.1.6.1.1.3.1.7.1.6 0 .9-.1 1.1-.6h.1c0 .3-.1.6-.1.8h-.1-1.3c-.4 0-.9.1-1.3.1v-.2c.2-.1.3-.1.3-.2V1.4c0-.7-.1-.9-.1-1 0 0 0-.1-.1-.1s-.1 0-.3-.1V.1h1.4c.4 0 .7-.1 1-.1h.1V.8H39c-.1-.4-.1-.6-.5-.5h-1c-.1 0-.1 0-.1.2 0 .4 0 .7.1 1.1 0 0 0 .1.1.1h.6zM43.1 2.7s.1 0 .1.1v.1c-.1.2-.1.4-.2.7 0 .1 0 .1-.1.1h-.3c-.2 0-.5 0-1.4-.1h-.7-.1v-.2c.2 0 .4-.1.5-.2 0-.1 0-.3.1-.8V1.3.4c0-.1-.1-.1-.4-.1 0 0-.1 0 0-.1V0H42v.2c-.3 0-.5 0-.5.3 0 .2 0 .5-.1.9V3.1c0 .1 0 .1.1.1h.5c.4 0 .7 0 .9-.2.1 0 .1-.1.2-.3zM49.1.9H49c-.1.1-.2.2-.4.5s-1 1.5-1.3 2.1c0 .1-.1.1-.1.2-.1.1-.2.2-.2.3-.1 0-.1 0-.1-.1 0 0 0-.1-.1-.5-.3-1.3-.6-2.2-.7-2.6-.1-.4-.1-.4-.4-.5l.1-.1c.3.1.6.1.7.1h.3v.1c0 .1 0 .1-.1.1-.2 0-.2 0-.2.1s.1.4.3 1c.2.6.4 1.2.5 1.6h.1c.1-.2.5-.9.9-1.5.3-.5.4-.6.4-.8.1-.2 0-.2-.1-.2h-.2c.1-.1.1-.2.1-.2.1 0 .3.1.5.1h.4c.1 0 .1.1.1.2h-.1l-.3.1zM51.8 1.2s.1.1 0 0c.1.6.2.9.2 1.5.1.5.3 1.6.3 1.8 0 .2.1.4.4.5 0 0-.1.1-.1.2-.4-.2-.5-.2-.7-.3-.2 0-.3-.1-.4-.1v-.2c.3 0 .3 0 .3-.3 0-.1-.1-.5-.1-.7 0-.1 0-.1-.1-.1-.4-.1-.8-.2-1.1-.2-.1 0-.1 0-.2.1 0 .1-.3.5-.3.7 0 .1 0 .2.2.3 0 0 0 .1-.1.1-.2-.1-.6-.1-.7-.2h-.2v-.2c.2 0 .3-.1.5-.3.2-.3 1.1-1.6 1.6-2.2.1-.1.1-.2.2-.3.2-.1.2-.1.3-.1zm-1.1 1.9s.1 0 .4.1c.2.1.4.1.5.1 0 0 .1 0 .1-.1-.1-.6-.1-1-.2-1.4-.5.6-.6.8-.8 1.3-.1 0-.1 0 0 0zM56 5.2l.1.1v.1c-.1.2-.3.4-.4.6h-.1c-.1 0-.1 0-.3-.1-.2-.1-.5-.2-1.3-.4-.3-.1-.5-.1-.6-.2h-.1v-.2c.2 0 .4 0 .5-.1 0-.1.1-.2.3-.8l.3-1c.1-.4.2-.7.2-.8 0-.1 0-.1-.4-.3V2h.1c.4.1.8.2 1.3.4v.2c-.3 0-.5-.1-.5.1-.1.2-.2.5-.3.9l-.2.6c-.3.8-.3 1-.3 1 0 .1 0 .1.1.2.1 0 .3.1.5.2.4.1.7.2.9 0 0-.1 0-.2.2-.4-.1 0 0 0 0 0zM59.1 6.4l.1.1v.1c-.1.2-.3.4-.4.6 0 .1-.1.1-.1 0-.1 0-.1 0-.3-.1-.2-.1-.4-.2-1.3-.6-.3-.1-.5-.2-.6-.2h-.1v-.2c.2.1.4.1.5-.1.1 0 .1-.2.3-.7l.4-1c.2-.4.3-.7.3-.8 0-.1 0-.1-.3-.3v-.1l.1-.1c.4.2.8.3 1.3.4v.2c-.3-.1-.5-.1-.6.1-.1.2-.2.5-.4.9l-.2.6c-.3.8-.4.9-.4 1v.2c.1.1.2.1.5.2.4.1.7.2.9.1.1 0 .2-.1.3-.3zM61.4 6.3c.2.1.4.2.5.2.3.1.3.1.5-.1 0 0 .2 0 .2.1-.1.1-.2.3-.3.5-.1.2-.1.3-.2.5H62v-.1-.2c0-.1 0-.2-.2-.3-.1-.1-.3-.1-.5-.3-.2-.2-.3-.2-.3-.2h-.1l-.3.6c-.2.3-.2.5-.2.6 0 .1.2.2.6.4.5.2.9.4 1.2-.1 0 0 .1 0 .1.1-.1.2-.3.5-.5.6h-.1s-.1 0-.2-.1c-.2-.1-.5-.2-.9-.4s-.8-.4-1.2-.5c0 0 0-.1.1-.2.2.1.3 0 .3 0 0-.1.2-.3.4-.8l.4-.8c.4-.8.5-1 .5-1.1v-.1l-.2-.2.1-.1.2.1c.2.1.3.2.6.3l.5.2c.3.2.7.3.9.4.1 0 .1 0 .1.1v.1c-.2.3-.3.5-.4.6l-.1-.1c.1-.4.1-.6-.2-.7l-.3-.2c-.3-.1-.5-.2-.5-.2-.1 0-.1 0-.1.1-.2.3-.3.7-.5 1v.1l.2.2zM67.8 10.1c-.2.3-.5.6-1 .7-.5.1-.8.1-1.1 0-.3-.1-.4-.2-.8-.4-.2-.1-.7-.5-.8-.5-.1-.1-.3-.2-.3-.2s.1-.1.1-.2c.3.1.3.1.4 0 .2-.3.7-1.1 1.1-1.7.3-.5.4-.6.4-.7 0-.1 0-.2-.2-.3v-.1l.1-.1c.1.2.3.3.5.4.3.2.5.3.7.4.3.2.9.6 1.1 1.3.2.5.1 1-.2 1.4zm-1-2.5c-.2-.1-.5-.2-.6-.2 0 0-.1 0-.1.1-.1.2-.4.6-.7 1-.4.7-.7 1.1-.8 1.4v.1c.1.1.2.2.4.3.2.1.5.3 1 .3s1-.3 1.3-.8c.3-.5.3-1 .2-1.3-.1-.5-.4-.7-.7-.9zM69.6 11.2c.2.1.3.2.4.3.3.2.3.2.6 0 0 0 .1.1.2.1l-.4.4c-.1.1-.2.3-.3.4 0 0-.1 0-.1-.1v-.1c0-.1 0-.1.1-.2s0-.2-.1-.3c-.1-.1-.2-.2-.5-.4-.2-.2-.3-.2-.3-.2h-.1s-.2.2-.4.5-.3.4-.3.5c0 .1.1.2.5.5.5.3.8.5 1.2.2l.1.1c-.2.2-.4.4-.6.5h-.1s-.1 0-.2-.2c-.1-.1-.4-.3-.8-.6-.3-.3-.7-.5-1.1-.7l.1-.1c.2.1.3.1.3 0s.3-.3.6-.7l.6-.7c.4-.6.5-.8.6-.8v-.1l-.2-.2.1-.1.1.1c.1.1.3.2.6.4l.4.3c.3.2.6.4.8.6.1 0 .1.1.1.1 0 .1 0 .1-.1.1l-.5.5.1-.1c.2-.4.3-.5-.1-.8l-.3-.2c-.2-.2-.4-.3-.5-.3-.1 0-.1 0-.2.1-.2.3-.4.6-.7.9v.1l.4.2zM76.2 15c-.1 0-.1-.1-.2-.1h-.1c-.1.1-.3.3-1 .9-.4.4-.7.6-1.1.7-.4.1-1-.1-1.3-.4-.4-.3-.5-.8-.5-1 0-.4.2-.7.4-.9.2-.3.5-.5.8-.8.4-.4.5-.6.6-.6 0-.1 0-.2-.1-.3l.1-.1h.1l.3.3c.2.2.4.3.6.5l-.1.1c-.3-.2-.4-.3-.5-.2-.1 0-.2.1-.4.4l-.9.9c-.3.3-.3.5-.3.8 0 .2.2.5.4.7.4.4.7.4.9.3.3-.1.7-.4 1-.7.3-.4.7-.8.8-1 .1-.1.1-.2-.2-.4V14h.2l.4.4.4.4-.3.2zM75.6 16.6c.3-.3.7-.5 1.2-.5.4 0 .8.2 1 .4.2.1.5.4.6.5.2.2.3.4.4.5 0 .1.1.1.2.1v.2c-.3.1-.5.3-.7.5h-.1c-.1 0-.1-.1 0-.1 0-.1.1-.2.2-.3 0-.1.1-.1.1-.2s-.1-.4-.4-.7c-.3-.3-.6-.5-1.1-.4-.4 0-.8.2-1.1.5-.4.4-.9 1.3-.1 2.2.2.3.5.3.8.3h.4v.2c-.2.1-.5.2-.6.2h-.1c-.1-.1-.4-.3-.6-.6-1-1.1-.7-2.2-.1-2.8zM80.9 20c.6.8.5 2-.3 2.6-.5.4-1.1.4-1.5.4-.5-.1-.9-.4-1.1-.6-.4-.5-.5-1.1-.4-1.7.1-.4.4-.8.7-1.1.4-.3.9-.4 1.4-.3.5 0 1 .3 1.2.7zm-.2 0c-.2-.2-.5-.4-.8-.4-.4 0-.9.2-1.1.4-.4.3-.6.7-.7 1.1-.1.5 0 .9.3 1.2.3.4 1.1.6 1.9 0 .4-.3.7-.7.8-1.2-.1-.4-.2-.7-.4-1.1z"/>
  </g>
  <path fill="#A1BC31" fill-rule="evenodd" d="M71.2 44.1c-30.2-3.9-58.8-.5-58.8-.5l-2.3.2c.1 0 27.7-6.4 61.1.3zm-13.6-6.9l-1.9.5c-.2-.2-.3-.4-.3-.8 0-.7.1-.4 0-.6 0-.2 0-.3-.2-.3-.1 0-.1.4-.4.3-.2 0-.5-.3-1.1-.7-.6-.4-1-.7-1-.7s-.1.8-.2.9c-.1.1-.2.2-.4.3-.1.1-.3.2-.3.4v.5c0 .1 0 .4-.2.5-.2.1-.2.1-.3.2-.1.1-.4.4-.7.6l-.7-1.6s.3-.6.4-.7c.1-.1.4 0 .5-.1.1 0 .4-.2.3-.4-.1-.2-.2-.4-.1-.5.1-.1.2-.4.3-.5.1-.2.1-.3.1-.3s-.1-.2-.4-.2h-.6c-.2 0-.7-.3-1-.4-.2-.1-.3-.2-.4-.4-.1-.1-.3-.4-.5-.4s-.8-.1-1.3 0c-.6 0-1.7.2-2.2.2-.5 0-1.2 0-1.5-.1-.4-.1-.6-.3-.8-.5-.1-.2-.2-.2-.2-.2s-.2 0-1.1.1c-.8.1-1.4.1-1.8 0-.4 0-1.1-.1-1.6-.1s-1.4-.2-1.8-.3c-.4-.1-1.3-.2-1.6-.3-.3-.1-.5-.2-.7.1-.2.3-.4.6-.6.8l-.7.7c-.3.2-.4.3-.6.5-.2.2-.3.3-.4.5-.1.2-.1.3-.1.4 0 .1-.1.3.2.4.2.1.7.3.9.4.2.1 1 .3 1.4.4.4.1 1.2.3 1.5.4.3.1.5.2.6.3.1.2.2.7.2.7s.2.2.5.4c.2.2.5.4.6.6 0 .2.1.4.1.6v.5l-1.9-.2-.1-.1c-.3-.4-.1-.8 0-1 .1-.3.1-.5 0-.5-.1-.1-.2 0-.5.1s-.5 0-.8-.3c-.4-.2-.5-.3-1.6-.6-1.1-.2-1.8-.2-2.4-.3-.6 0-.8-.4-.9-.7-.2-.3-.1-.5.1-.8.2-.3.2-.2.4-.6.2-.4.3-.8.3-1.3s-.2-.8-.2-.8-.2.2-.5.4-.7.5-1.1.7c-.4.2-.4.6-.6 1-.2.4-.3.7-.2.9.1.2.2.4.3.5.1.1.2.3.5.8.3.4.7.7 1.2 1.1.5.4.6.7.6 1 0 .3.5.6.5.6s.4.1.7.2c.5.2.8 1 .9 1.7l-1 .2s-.9-.4-1.2-.5c-.2-.1-.1-.8-.1-.9 0-.1-.1-.3-.3-.3-.2-.1-.2.1-.2.1 0 .1-.1.2-.2.2s-.4-.2-.6-.4c-.2-.3-.3-.7-.6-1.3-.2-.6-.9-1.6-1.3-2.2-.4-.6-.5-.6-.7-.7-.3-.1-.4-.5-.4-.7-.1-.2.1-.4.2-.5.1-.1.1-.1.3-.5.2-.4.5-1.5.6-2.5.2-1.1-.3-1.5-.6-2.4-.4-.9.1-1.8.1-1.8h-.7c-.5 0-.9.4-1.5.8-.5.4-1.3 1.3-1.8 1.7-.5.4-1.5 1.2-2.2 1.4-.7.2-1.6-.3-1.8-.4-.2-.1.7-.2 1.3-.4.6-.3.9-.6.9-.6l-.4.2s-.1.1-.5.3c-.4.2-1.1.6-2.2.5-1.1 0-2.5-.9-2.7-1-.2-.1-.1-.1-.1-.1s1-.2 2-.6c1-.4 1.6-1 2.1-1.4.5-.4 1.6-1.6 3.6-1.8 2-.2 3.8.9 3.8.9l.2-.2c.2-.2 1.3-1.1 2-1.5.6-.3 1.9-.8 2.8-1 .8-.2 2.1.1 2.6.3.4.1.7.3 1.5.3 1.4.1 2.3 0 3.8-.1 1.6-.1 2-.5 2-.5s0-.1.2-.4c.2-.3.3-.4.3-.4l-.4-.2c-.3-.2-.6-.5-.6-.6-.1-.1-.1-.2 0-.2s.5.1.9.1 1.2-.1 1.2-.1l.5-.4h-.5c-.4 0-.8-.1-1.4-.3-.6-.3-.9-1.1-.9-1.1s0-.1.1 0 .3.2.9.4c.6.2 1 .1 1.7 0h1.5l.2-.1c.2-.1.4-.4.4-.4h-.2c-.1 0-.3.1-1.5 0s-1.7-1-1.8-1c-.1-.1-.2-.3.1-.1.3.2.5.2 1.2.2.6 0 1.5-.2 2.3-.3.8-.1 1.3 0 1.3 0 .4 0 .8-.5.8-.5s-1.4.1-2.4-.1c-.9-.2-1.2-.9-1.3-1-.1-.1-.2-.4.3-.2s1 .2 1.6.2c.6 0 2.1-.4 2.7-.5.6-.1 1.5 0 1.5 0s-.2-.4-.1-.8.2-.5.3-.5c.1 0 .1 0 .1.1s.2.5.4.8c.3.3.4.4.5.4h.1s0-.4.2-.7c.1-.2.3-.4.4-.4.1 0 .2-.1.2.1s0 .5.1.8c.1.3.3.5.4.6l.1.1.1.1c.1 0 .1 0 .1.1s.8.5 1 .7c.2.2.3.4.5.6.1.2.2.3.4.6.2.2.6.5.6.6l.4.4c.2.2.5.5.7.8.1.3.3.6.4.8v.2s-.3-.2-.5-.2-.3 0-.3.1 0 .2.1.3c.1.1.3-.1.3-.1s.3.1.3.2c.1 0 .1.2 0 .3-.1.1-.2.5-.4.6-.2.1-.4.1-.6.1h-.2s-.1.1-.4.1c-.3 0-.4-.1-.4-.2s-.1-.3-.4-.5c-.3-.2-.6-.3-.9-.4-.2-.1-.3-.1-.5-.1s-.4.2-.8.1-1.3-.4-1.3-.4-.1 0-.2.2c.5-.2-.6 2.8-.6 2.8s-.3.7-.5.9c-.1.3-.3.6-.3.7.1.1.2.3.2.6s0 .8-.2 1.5-.5 1.3-.5 1.3.7.2 1.5.3H51c.2 0 .9-.2 1.4 0 .5.3.7.5.7.8v.6c0 .1-.1.2-.1.3v.1l-.1.8c0 .2-.1.4-.1.4s-.3-.1-.6-.3c-.3-.2-.4-.3-.5-.4v-.2s-.2-.3-.2-.4c-.1-.1-.1-.2-.1-.2s-.5 0-1.2-.1-1.2-.2-1.6-.2h-.3v.2l.6.2h.3s.2-.1.4-.1c.1 0 .2.1.2.1s.3 0 .6.1c.2.1.8.5 1 .7l.2.3s1.9 1.2 2.3 1.4c.4.2.5.2.8.3.2.1.8.3.9.6.1.2.1.4.2.4s.4.2.7.3c-.1-.1.6-.1 1.1 1.2zm-23.2-9.4c0-.2-.1-.8-.2-1.2-.1-.4-.2-.6-.9-1.4-.8-.8-1.6-.7-1.6-.7s-.1 0-.1.1.1.1.3.2c.1.1.3.2.5.3.4.3.4.3.9.9.6.7.8 1.4.9 1.7.1.2.1.4.2.4v-.3zm13.1.3s-.1-.4-.3-.9c-.2-.5-.6-1.1-1-1.5-.9-.9-.9-.9-1.4-1.2-.3-.2-.8-.3-1-.4-.2 0-.6.1-.3.2.3.2 1.3.9 2 1.6.7.7 1.3 1.3 1.5 1.6.2.3.4.6.5.6z" clip-rule="evenodd"/>
  <linearGradient id="a" x1="10.153" x2="71.228" y1="29.604" y2="29.604" gradientUnits="userSpaceOnUse">
    <stop offset="0" stop-color="#A96238"/>
    <stop offset=".009" stop-color="#AE683E"/>
    <stop offset=".066" stop-color="#C98A60"/>
    <stop offset=".112" stop-color="#D99F74"/>
    <stop offset=".143" stop-color="#DFA77C"/>
    <stop offset=".254" stop-color="#DDA175"/>
    <stop offset=".419" stop-color="#D89161"/>
    <stop offset=".585" stop-color="#D17B46"/>
    <stop offset=".623" stop-color="#BB6F40"/>
    <stop offset=".669" stop-color="#A9653C"/>
    <stop offset=".724" stop-color="#9D5D38"/>
    <stop offset=".797" stop-color="#955937"/>
    <stop offset=".955" stop-color="#935836"/>
  </linearGradient>
  <path fill="url(#a)" fill-rule="evenodd" d="M71.2 44.1c-30.2-3.9-58.8-.5-58.8-.5l-2.3.2c.1 0 27.7-6.4 61.1.3zm-13.6-6.9l-1.9.5c-.2-.2-.3-.4-.3-.8 0-.7.1-.4 0-.6 0-.2 0-.3-.2-.3-.1 0-.1.4-.4.3-.2 0-.5-.3-1.1-.7-.6-.4-1-.7-1-.7s-.1.8-.2.9c-.1.1-.2.2-.4.3-.1.1-.3.2-.3.4v.5c0 .1 0 .4-.2.5-.2.1-.2.1-.3.2-.1.1-.4.4-.7.6l-.7-1.6s.3-.6.4-.7c.1-.1.4 0 .5-.1.1 0 .4-.2.3-.4-.1-.2-.2-.4-.1-.5.1-.1.2-.4.3-.5.1-.2.1-.3.1-.3s-.1-.2-.4-.2h-.6c-.2 0-.7-.3-1-.4-.2-.1-.3-.2-.4-.4-.1-.1-.3-.4-.5-.4s-.8-.1-1.3 0c-.6 0-1.7.2-2.2.2-.5 0-1.2 0-1.5-.1-.4-.1-.6-.3-.8-.5-.1-.2-.2-.2-.2-.2s-.2 0-1.1.1c-.8.1-1.4.1-1.8 0-.4 0-1.1-.1-1.6-.1s-1.4-.2-1.8-.3c-.4-.1-1.3-.2-1.6-.3-.3-.1-.5-.2-.7.1-.2.3-.4.6-.6.8l-.7.7c-.3.2-.4.3-.6.5-.2.2-.3.3-.4.5-.1.2-.1.3-.1.4 0 .1-.1.3.2.4.2.1.7.3.9.4.2.1 1 .3 1.4.4.4.1 1.2.3 1.5.4.3.1.5.2.6.3.1.2.2.7.2.7s.2.2.5.4c.2.2.5.4.6.6 0 .2.1.4.1.6v.5l-1.9-.2-.1-.1c-.3-.4-.1-.8 0-1 .1-.3.1-.5 0-.5-.1-.1-.2 0-.5.1s-.5 0-.8-.3c-.4-.2-.5-.3-1.6-.6-1.1-.2-1.8-.2-2.4-.3-.6 0-.8-.4-.9-.7-.2-.3-.1-.5.1-.8.2-.3.2-.2.4-.6.2-.4.3-.8.3-1.3s-.2-.8-.2-.8-.2.2-.5.4-.7.5-1.1.7c-.4.2-.4.6-.6 1-.2.4-.3.7-.2.9.1.2.2.4.3.5.1.1.2.3.5.8.3.4.7.7 1.2 1.1.5.4.6.7.6 1 0 .3.5.6.5.6s.4.1.7.2c.5.2.8 1 .9 1.7l-1 .2s-.9-.4-1.2-.5c-.2-.1-.1-.8-.1-.9 0-.1-.1-.3-.3-.3-.2-.1-.2.1-.2.1 0 .1-.1.2-.2.2s-.4-.2-.6-.4c-.2-.3-.3-.7-.6-1.3-.2-.6-.9-1.6-1.3-2.2-.4-.6-.5-.6-.7-.7-.3-.1-.4-.5-.4-.7-.1-.2.1-.4.2-.5.1-.1.1-.1.3-.5.2-.4.5-1.5.6-2.5.2-1.1-.3-1.5-.6-2.4-.4-.9.1-1.8.1-1.8h-.7c-.5 0-.9.4-1.5.8-.5.4-1.3 1.3-1.8 1.7-.5.4-1.5 1.2-2.2 1.4-.7.2-1.6-.3-1.8-.4-.2-.1.7-.2 1.3-.4.6-.3.9-.6.9-.6l-.4.2s-.1.1-.5.3c-.4.2-1.1.6-2.2.5-1.1 0-2.5-.9-2.7-1-.2-.1-.1-.1-.1-.1s1-.2 2-.6c1-.4 1.6-1 2.1-1.4.5-.4 1.6-1.6 3.6-1.8 2-.2 3.8.9 3.8.9l.2-.2c.2-.2 1.3-1.1 2-1.5.6-.3 1.9-.8 2.8-1 .8-.2 2.1.1 2.6.3.4.1.7.3 1.5.3 1.4.1 2.3 0 3.8-.1 1.6-.1 2-.5 2-.5s0-.1.2-.4c.2-.3.3-.4.3-.4l-.4-.2c-.3-.2-.6-.5-.6-.6-.1-.1-.1-.2 0-.2s.5.1.9.1 1.2-.1 1.2-.1l.5-.4h-.5c-.4 0-.8-.1-1.4-.3-.6-.3-.9-1.1-.9-1.1s0-.1.1 0 .3.2.9.4c.6.2 1 .1 1.7 0h1.5l.2-.1c.2-.1.4-.4.4-.4h-.2c-.1 0-.3.1-1.5 0s-1.7-1-1.8-1c-.1-.1-.2-.3.1-.1.3.2.5.2 1.2.2.6 0 1.5-.2 2.3-.3.8-.1 1.3 0 1.3 0 .4 0 .8-.5.8-.5s-1.4.1-2.4-.1c-.9-.2-1.2-.9-1.3-1-.1-.1-.2-.4.3-.2s1 .2 1.6.2c.6 0 2.1-.4 2.7-.5.6-.1 1.5 0 1.5 0s-.2-.4-.1-.8.2-.5.3-.5c.1 0 .1 0 .1.1s.2.5.4.8c.3.3.4.4.5.4h.1s0-.4.2-.7c.1-.2.3-.4.4-.4.1 0 .2-.1.2.1s0 .5.1.8c.1.3.3.5.4.6l.1.1.1.1c.1 0 .1 0 .1.1s.8.5 1 .7c.2.2.3.4.5.6.1.2.2.3.4.6.2.2.6.5.6.6l.4.4c.2.2.5.5.7.8.1.3.3.6.4.8v.2s-.3-.2-.5-.2-.3 0-.3.1 0 .2.1.3c.1.1.3-.1.3-.1s.3.1.3.2c.1 0 .1.2 0 .3-.1.1-.2.5-.4.6-.2.1-.4.1-.6.1h-.2s-.1.1-.4.1c-.3 0-.4-.1-.4-.2s-.1-.3-.4-.5c-.3-.2-.6-.3-.9-.4-.2-.1-.3-.1-.5-.1s-.4.2-.8.1-1.3-.4-1.3-.4-.1 0-.2.2c.5-.2-.6 2.8-.6 2.8s-.3.7-.5.9c-.1.3-.3.6-.3.7.1.1.2.3.2.6s0 .8-.2 1.5-.5 1.3-.5 1.3.7.2 1.5.3H51c.2 0 .9-.2 1.4 0 .5.3.7.5.7.8v.6c0 .1-.1.2-.1.3v.1l-.1.8c0 .2-.1.4-.1.4s-.3-.1-.6-.3c-.3-.2-.4-.3-.5-.4v-.2s-.2-.3-.2-.4c-.1-.1-.1-.2-.1-.2s-.5 0-1.2-.1-1.2-.2-1.6-.2h-.3v.2l.6.2h.3s.2-.1.4-.1c.1 0 .2.1.2.1s.3 0 .6.1c.2.1.8.5 1 .7l.2.3s1.9 1.2 2.3 1.4c.4.2.5.2.8.3.2.1.8.3.9.6.1.2.1.4.2.4s.4.2.7.3c-.1-.1.6-.1 1.1 1.2zm-23.2-9.4c0-.2-.1-.8-.2-1.2-.1-.4-.2-.6-.9-1.4-.8-.8-1.6-.7-1.6-.7s-.1 0-.1.1.1.1.3.2c.1.1.3.2.5.3.4.3.4.3.9.9.6.7.8 1.4.9 1.7.1.2.1.4.2.4v-.3zm13.1.3s-.1-.4-.3-.9c-.2-.5-.6-1.1-1-1.5-.9-.9-.9-.9-1.4-1.2-.3-.2-.8-.3-1-.4-.2 0-.6.1-.3.2.3.2 1.3.9 2 1.6.7.7 1.3 1.3 1.5 1.6.2.3.4.6.5.6z" clip-rule="evenodd"/>
  <linearGradient id="b" x1="28.194" x2="56.639" y1="71.66" y2="71.66" gradientUnits="userSpaceOnUse">
    <stop offset="0" stop-color="#A96238"/>
    <stop offset=".009" stop-color="#AE683E"/>
    <stop offset=".066" stop-color="#C98A60"/>
    <stop offset=".112" stop-color="#D99F74"/>
    <stop offset=".143" stop-color="#DFA77C"/>
    <stop offset=".254" stop-color="#DDA175"/>
    <stop offset=".419" stop-color="#D89161"/>
    <stop offset=".585" stop-color="#D17B46"/>
    <stop offset=".623" stop-color="#BB6F40"/>
    <stop offset=".669" stop-color="#A9653C"/>
    <stop offset=".724" stop-color="#9D5D38"/>
    <stop offset=".797" stop-color="#955937"/>
    <stop offset=".955" stop-color="#935836"/>
  </linearGradient>
  <path fill="url(#b)" d="M48.1 72.4c0-.4.3-.7.7-.9-.3-.2-.6-.4-.6-.7 0-.3.3-.7.9-.7.5 0 .8.2.8.6 0 .4-.4.6-.6.7.3.1.7.4.7.9s-.4.9-1 .9c-.5-.1-.9-.4-.9-.8zm1 .5c.3 0 .5-.2.5-.6 0-.4-.3-.6-.6-.8-.2.1-.5.4-.5.7 0 .5.3.7.6.7zm0-2.6c-.3 0-.5.2-.5.4s.2.4.5.6c.1 0 .4-.2.4-.6 0-.3-.2-.4-.4-.4zm6.5 2.8c-.7 0-1-.9-1-1.4 0-.9.3-1.6 1-1.6.8 0 1 .8 1 1.4 0 1-.3 1.6-1 1.6zm0-2.8c-.3 0-.5.4-.5 1.3 0 .7.2 1.4.6 1.4.3 0 .5-.5.5-1.3 0-.7-.2-1.4-.6-1.4zm-2.8 1.5c-.1 0-.3 0-.4-.1h-.1c-.2 0-.4-.3-.4-.7 0-.5.2-.7.5-.7s.6.4.6.9c0 .3 0 .5-.1.7 0 .1-.1.3-.4.6-.2.2-.4.4-.7.5h-.6l.2.1h.2c.1 0 .3 0 .5-.1s.4-.2.6-.4l.4-.4c.2-.3.3-.6.3-1 0-.6-.4-1.1-1.1-1.1-.6 0-1 .4-1 .9s.4.8.9.8c0 0-.1 0 0 0 .3.1.6 0 .6 0zM46.3 73c-.2 0-.2 0-.2-.3v-.2-1.3-1H46h-.1c-.1.1-.7.5-.8.5l-.1.1h.2c.1 0 .4-.2.4-.2.1 0 .1 0 .1.1v2.1c0 .1 0 .1-.2.3h.9l.2-.1h-.3zm-18 .1c-.1 0-.1 0-.1-.1v-.5-.1V72.7c.1.3.3.4.5.4.3 0 .5-.2.5-.4s-.1-.4-.4-.6l-.2-.1c-.4-.3-.5-.6-.5-.9 0-.4.3-.7.9-.7.2 0 .4 0 .5.1h.1v.4s0-.1-.1-.2-.2-.2-.4-.2c-.3 0-.5.2-.5.4s.1.3.4.5l.1.1c.5.3.6.6.6 1 0 .2-.1.5-.3.7-.2.1-.4.2-.6.2-.2-.2-.4-.2-.5-.3zm5.4-.5c0 .3.1.4.1.4H34h-.5-.4-.1H33.3c.1 0 .1-.1.1-.5v-2.2-.1s.1 0 .1.1c0 0 .6.7 1.2 1.2.3.3.8.8.8.9v-1.7c0-.2 0-.3-.1-.3H35.1h.8c-.1 0-.1.1-.1.3v2.5s-.1 0-.1-.1L34.6 72c-.4-.4-.8-.9-.9-.9v1.5zm8.9.2l-.2.1c-.2.1-.2.1-.4.1h-.4c-.1 0-.4 0-.5-.1v-1.1c0-.1 0-.1.1-.1h.5v.1h.1l.2-.2h-1v-1.2h.8s0 .1-.1.1h.1l.3-.2h-1.7l-.3.1h.4v2.4c0 .2 0 .2-.1.4h1.7l.5-.4zM32 73h-.3c-.2 0-.2 0-.2-.3v-.3-1.1-.8-.1-.1l.1-.1h-.7l-.3.1h.4v2.4c0 .1 0 .1-.1.3H32zm7.4-.1c-.2.1-.4.1-.7.1-1 0-1.5-.8-1.5-1.5 0-.8.6-1.3 1.2-1.3.4 0 .7.3.8.4l-.1.2h.1l.3-.3c-.1-.1-.3-.2-.6-.3-.2-.1-.4-.1-.5-.1-1 0-1.6.8-1.6 1.6 0 .6.4 1.5 1.6 1.5.2 0 .4 0 .6-.1.1 0 .2-.1.2-.1l.2-.1z"/>
</svg>
