<svg xmlns="http://www.w3.org/2000/svg" viewBox="0 0 87.1 51.5">
  <g fill="#BF1E15">
    <path d="M34.8 31.3c.6 0 1.1.2 1.6.5l-.3.5c-.5-.3-.9-.5-1.3-.5-.3 0-.6.1-.8.2-.2.2-.3.4-.3.6 0 .2.1.4.2.5.1.1.4.2.7.4l.6.2c.4.1.8.3 1 .6.2.3.3.6.3 1 0 .5-.2 1-.7 1.3-.3.2-.7.3-1.2.3-.6 0-1.2-.2-1.7-.5l.3-.5c.4.3.9.5 1.4.5.4 0 .6-.1.9-.2.3-.2.4-.5.4-.8 0-.5-.3-.8-1-1l-.5-.2c-.5-.1-.8-.3-1-.5-.2-.2-.3-.5-.3-.9 0-.5.2-.8.5-1.1.2-.3.7-.4 1.2-.4zM37.7 36.8v-5.4h.6v5.4h-.6zM39.8 36.8v-5.3h1.1c.4 0 .8 0 1 .1.3.1.5.2.8.4.6.4.9 1.2.9 2.3 0 .9-.2 1.6-.6 2-.2.3-.5.4-.7.5-.2.1-.6.1-1 .1h-1.5zm1.3-4.8h-.6v4.3h1.2c.3-.1.6-.2.8-.5.2-.4.4-.9.4-1.5 0-.8-.1-1.4-.5-1.8-.2-.2-.3-.3-.6-.4-.2-.1-.4-.1-.7-.1zM44.7 36.8v-5.4H46c.6 0 1.1.1 1.4.3.4.3.5.7.5 1.1 0 .4-.1.8-.4 1.1-.3.3-.6.4-1 .4h-.1c.2.1.3.3.6.6.1.1.2.3.4.6.1.2.4.6.8 1.2h-.8c-.1-.2-.2-.5-.4-.7-.4-.5-.7-1-1-1.3l-.3-.3c-.1-.1-.2-.1-.3-.1v2.4h-.7zM46 32h-.6v2h.6c.5 0 .8-.1 1-.3.2-.2.3-.4.3-.8 0-.2-.1-.4-.2-.5-.1-.2-.2-.3-.4-.3-.2-.1-.5-.1-.7-.1zM50.3 31.4h.9l1.8 5.4h-.7l-.5-1.7h-2l-.5 1.7h-.7l1.7-5.4zm.1 1.4c0 .1-.2.7-.6 1.9h1.7l-.8-2.7-.3.8z"/>
  </g>
  <path fill="#A59666" d="M.4 51.3V39.9h1.4v10.2h4.5l-.2 1.2H.4zM10.5 39.9h1.8L16 51.3h-1.6l-1.1-3.5H9.1L8 51.3H6.7l3.8-11.4zm.2 2.9c0 .1-.4 1.4-1.2 3.9H13l-1.8-5.6-.5 1.7zM25.7 51.3l-3.8-11.4h1.5l2.4 7.3c.3 1 .6 1.9.7 2.5.1-.6.4-1.4.7-2.4l2.4-7.5H31l-4 11.5h-1.3zM32.7 51.3V39.9H34v11.4h-1.3zM41.2 39.8c1.1 0 2.1.3 2.9.9l-.7.9c-.6-.5-1.4-.7-2.2-.7-1.3 0-2.2.7-2.8 2-.3.7-.5 1.7-.5 3 0 1 .1 1.8.4 2.4.6 1.4 1.6 2.1 3.1 2.1.8 0 1.5-.3 2.2-.7l.7 1c-1 .6-2 .9-3.2.9-1.4 0-2.5-.5-3.4-1.6-.9-1.1-1.3-2.5-1.3-4.2 0-1.7.5-3.1 1.4-4.2.9-1.2 2-1.8 3.4-1.8zM44.8 41.1V40h7.5l-.1 1.1h-3.1v10.3h-1.3V41.1h-3zM53.7 45.6c0-1.8.4-3.2 1.2-4.3.8-1.1 1.9-1.6 3.3-1.6 1.6 0 2.8.6 3.6 1.9.7 1 1 2.4 1 4.2 0 2.1-.6 3.6-1.7 4.6-.8.7-1.8 1.1-2.9 1.1-1.3 0-2.4-.5-3.2-1.4-.8-1-1.3-2.5-1.3-4.5zm7.1-3.2c-.5-1-1.3-1.6-2.5-1.6-.5 0-1 .1-1.4.4-.4.2-.8.6-1 1-.4.7-.6 1.8-.6 3.1 0 1.8.2 3.1.7 4 .2.3.5.6 1 .9.5.2.9.3 1.4.3.9 0 1.6-.3 2.1-1 .6-.7.8-1.9.8-3.5s-.1-2.8-.5-3.6zM65.3 51.3V40H68c1.3 0 2.3.2 2.9.7.8.6 1.1 1.4 1.1 2.4 0 .9-.3 1.7-.8 2.3-.6.6-1.3.9-2.2.9h-.2c.3.3.7.7 1.1 1.3.1.2.4.6.9 1.3.3.4.8 1.2 1.7 2.5h-1.7c-.2-.5-.5-1-.9-1.6-.8-1.2-1.4-2.1-2-2.8-.2-.3-.4-.4-.6-.5-.2-.1-.4-.2-.7-.2v5.1h-1.3zm2.6-10.2h-1.3v4.3h1.2c1 0 1.6-.2 2-.6.4-.4.6-1 .6-1.7 0-.4-.1-.7-.3-1.1-.2-.3-.5-.6-.8-.7-.3-.1-.8-.2-1.4-.2zM74.8 51.3V39.9h1.3v11.4h-1.3zM81.5 39.9h1.8l3.8 11.4h-1.5l-1.1-3.5h-4.3l-1.1 3.5h-1.4l3.8-11.4zm.3 2.9c0 .1-.4 1.4-1.2 3.9h3.5l-1.8-5.6-.5 1.7z"/>
  <path d="M0 51V39.6h1.4v10.2h4.5L5.7 51H0zM10.1 39.6h1.8L15.6 51h-1.5L13 47.5H8.8L7.7 51H6.3l3.8-11.4zm.3 2.8c0 .1-.4 1.4-1.2 3.9h3.5L11 40.7l-.6 1.7zM25.3 51l-3.8-11.4H23l2.4 7.3c.3 1 .6 1.9.7 2.5.1-.6.4-1.4.7-2.4l2.4-7.5h1.4L26.7 51h-1.4zM32.3 51V39.6h1.3V51h-1.3zM40.8 39.4c1.1 0 2.1.3 2.9.9l-.7.9c-.7-.5-1.4-.7-2.2-.7-1.3 0-2.2.6-2.8 2-.3.7-.5 1.7-.5 3 0 1 .1 1.8.4 2.4.6 1.4 1.6 2.1 3.1 2.1.8 0 1.5-.2 2.2-.7l.7.9c-.9.6-2 .9-3.2.9-1.4 0-2.5-.5-3.4-1.6-.8-1.1-1.3-2.5-1.3-4.2 0-1.7.5-3.1 1.4-4.2.9-1.1 2-1.7 3.4-1.7zM44.5 40.7v-1.1H52l-.1 1.1h-3.1V51h-1.3V40.7h-3zM53.3 45.2c0-1.8.4-3.2 1.2-4.3.8-1.1 1.9-1.6 3.3-1.6 1.6 0 2.8.6 3.6 1.9.7 1 1 2.4 1 4.2 0 2.1-.6 3.6-1.7 4.6-.8.7-1.8 1.1-2.9 1.1-1.3 0-2.4-.5-3.2-1.4-.8-1-1.3-2.5-1.3-4.5zm7.1-3.2c-.5-1-1.3-1.6-2.5-1.6-.5 0-1 .1-1.4.4-.4.2-.8.6-1 1-.4.7-.6 1.8-.6 3.1 0 1.8.2 3.1.7 4 .2.4.5.6 1 .9.5.2.9.3 1.4.3.9 0 1.6-.3 2.1-1 .6-.7.8-1.9.8-3.5.1-1.6-.1-2.8-.5-3.6zM64.9 51V39.6h2.7c1.3 0 2.3.2 2.9.7.7.6 1.1 1.4 1.1 2.4 0 .9-.3 1.7-.8 2.3-.5.6-1.3.8-2.2.8h-.2c.3.3.7.7 1.1 1.3.1.2.4.6.9 1.3.3.4.8 1.2 1.7 2.5h-1.7c-.2-.5-.5-1-.9-1.6-.7-1.1-1.4-2.1-2-2.8-.2-.3-.4-.4-.6-.5-.2-.1-.4-.2-.7-.2V51h-1.3zm2.7-10.3h-1.3V45h1.2c1 0 1.6-.2 2-.6.4-.4.6-1 .6-1.7 0-.4-.1-.7-.3-1.1-.2-.3-.5-.6-.8-.7-.4-.1-.9-.2-1.4-.2zM74.4 51V39.6h1.3V51h-1.3zM81.2 39.6H83L86.7 51h-1.5l-1.1-3.5h-4.3l-1 3.5h-1.4l3.8-11.4zm.2 2.8c0 .1-.4 1.4-1.2 3.9h3.5L82 40.8l-.6 1.6z"/>
  <g>
    <path fill="none" d="M32.2 10.4z"/>
    <g fill="#7E181A">
      <path d="M29.9 4.9l.7.2.9-.7-.6-.6c-.2.7-1 1.1-1 1.1zM54.7 3.7l-.6.6.9.8.7-.2s-.8-.4-1-1.2z"/>
    </g>
    <path fill="#FFF" d="M35 3.3h.1s.1 0 .1.1l.4.8v.1s0 .1-.1.1l.1.1 1.2-.6-.1-.1-.2-.3-.1.1v.3c0 .1-.1.2-.2.2.1-.1 0-.1 0-.1h-.1l-.1-.1-.4-.8V3s0-.1.1-.1l-.1-.1-.6.4v.1zM37.3 3.7l-.1-.1h-.1-.1V3.3l.4-.2.1.1v.2l-.1.1v.1l.7-.3v-.1H38s-.1-.1-.2-.1l-.8-.9h-.1v1.2c0 .1 0 .2-.1.3l.1.1.4-.1zm.1-.6l-.4.1v-.5l.4.4zM36.8 3.9v-.1.1zM39 1.6c.1 0 .1.1 0 0l.2.2.7 1h.1l.2-1.1c0-.2.1-.3.1-.3l.1-.1v-.1l-.4.1v.1c.1 0 .2 0 .2.1v.1l-.1.7-.4-.6c0-.1-.1-.1-.1-.1 0-.1 0-.1.1-.1v-.1l-.8.2v.1l.1-.1zM40.8 1.3s0 .1.1.1l.1.9v.1s-.1 0-.2.1v.1l.8-.1v-.1h-.2v-.1l-.1-.9v-.2s.1 0 .1-.1V1l-.8.1v.1l.2.1zM42.5 2.6c.2 0 .4-.1.5-.2l.1.1h.1v-.6h-.1c0 .2-.1.3-.2.4-.1.1-.2.1-.3.1-.1 0-.2 0-.2-.1-.1 0-.1-.1-.2-.2v-.4c0-.2 0-.4.1-.5.1-.1.2-.2.3-.2.1 0 .2 0 .3.1 0 .2.1.4.1.5h.1V1H43v.1c-.2 0-.3-.1-.5-.1s-.4.1-.6.3c-.1.2-.2.3-.2.6 0 .2.1.4.2.5.2.1.4.2.6.2zM43.7 1.3l.1-.1H44.1l-.1 1c0 .1 0 .1-.1.1h-.1v.1l.8.1v-.1c-.1 0-.1 0-.1-.1v-.1l.1-1h.1c.1 0 .2 0 .2.1 0 0 .1.1.1.2h.1v-.4L43.5 1v.4h.1l.1-.1zM45.3 2.7c.1.1.2.2.4.2.3.1.5 0 .6-.1.2-.1.3-.3.3-.5s0-.4-.1-.6c-.1-.2-.3-.3-.5-.3h-.4c-.1 0-.3.1-.3.2-.1.1-.2.2-.2.4v.4s.1.2.2.3zm.3-.7c0-.2.1-.3.2-.4.1-.1.2-.1.3-.1.1 0 .2.1.2.2v.5c-.1.2-.1.4-.2.5-.1.1-.2.1-.3.1-.1 0-.2-.1-.2-.2-.1-.2-.1-.4 0-.6zM46.7 3.1l.7.3v-.1c-.1 0-.1-.1-.1-.1v-.1l.1-.3c.1 0 .1.1.1.1V3s0 .1.1.2c0 .2.1.4.1.4l.4.1v-.1s-.1 0-.1-.1c0 0-.1-.1-.1-.3.1-.3.1-.4.1-.5.2 0 .3-.1.4-.2v-.2c0-.1-.1-.1-.1-.2l-.1-.1c-.1 0-.1-.1-.3-.1l-.1-.1-.6-.2v.1c.1 0 .1 0 .1.1V2l-.3.8c0 .1-.1.1-.1.1h-.1l-.1.2zm1-1.1s.1 0 0 0c.2 0 .3.1.3.2v.2c0 .1 0 .1-.1.2h-.1s-.1 0-.2-.1l.1-.5zM48.3 3.6l.7.4v-.1c-.1 0-.1-.1-.1-.1v-.1l.4-.8c0-.1.1-.1.1-.1h.2v-.1l-.7-.3v.1c.1 0 .1.1.1.1v.2l-.4.8c0 .1-.1.1-.1.1h-.2v-.1z"/>
    <path fill="#FFF" d="M49 3.9V4l.4.3.1-.1s-.1 0-.1-.1V4l.1-.1h.1l.4.2v.2h-.1l-.1.1.6.4.1-.1s-.1 0-.1-.1v-.2l.2-1.2-.3-.2-1 .8c-.1.1-.2.1-.3.1zm1-.4v.4l-.3-.2.3-.2z"/>
    <g fill="#BF1E15">
      <path d="M43.2.3h-.9c-7.5.4-12.7 6-12.7 6 .3.3.6.6 1 .8.1.1.2.1.3.2.3.1.5.2.8.3.4.1.8.2 1 .2h.4s0-.1.1-.1l.1-.1c.3-.4.7-.8 1.1-1.2 2-2 4.7-3.2 7.6-3.4h1.5c2.9.2 5.5 1.4 7.6 3.4.4.4.7.8 1.1 1.2l.1.1s0 .1.1.1h.3c.3 0 .8-.1 1.2-.3.2-.1.5-.2.7-.3.1 0 .1-.1.2-.1.4-.2.7-.5 1-.8.1 0-5-5.5-12.6-6zm-5.7 3.3v-.1c.1 0 .1 0 .1-.1v-.1-.1l-.1-.1-.5.2v.2h.2l.1.1-.4.2-1.2.6-.1-.1c.1 0 .1-.1.1-.1v-.1l-.4-.8c0-.1-.1-.1-.1-.1H35l.7-.4.1.1-.2.1v.1l.4.8.1.1h.1s.1 0 .2-.1.2-.1.2-.2v-.3l.1-.1.2.3c.1 0 .1-.1.1-.3V2.1h.1l.8.9c.1.1.1.1.2.1h.1v.1l-.7.4zm2.9-2.2s-.1.2-.1.3l-.2 1.1H40l-.7-1c-.1-.1-.1-.1-.1-.2h-.1-.1v-.1l.8-.2v.1c-.1 0-.2.1-.1.1 0 0 0 .1.1.1l.4.6.1-.7v-.1c0-.1-.1-.1-.2-.1v-.1l.5-.1v.1c-.1.1-.2.1-.2.2zm.4 1.3v-.1c.1 0 .1 0 .2-.1v-.1l-.1-.9c0-.1 0-.1-.1-.1h-.2v-.1l.8-.1v.1c-.1 0-.1 0-.1.1v.2l.1.9v.1h.2v.1h-.8zm2.3-.2c0-.1 0-.1-.1-.1-.1.1-.3.2-.5.2s-.4-.1-.5-.2c-.1-.2-.2-.3-.2-.5s.1-.4.2-.6c.1-.2.3-.3.5-.3s.3.1.5.2v-.1h.1v.6H43c0-.1-.1-.3-.2-.3-.1-.1-.2-.1-.3-.1-.1 0-.2.1-.3.2-.1.1-.1.3-.1.5v.4c0 .1.1.2.2.2s.1.1.2.1.2 0 .3-.1c.2-.4.2-.5.3-.7h.1v.6h-.1zm1.9-.9h-.1c0-.1 0-.2-.1-.2 0 0-.1-.1-.2-.1h-.1l-.1 1v.1l.1.1v.1l-.8-.1v-.1h.1s0-.1.1-.1l.1-1H43.7s-.1 0-.1.1 0 .1-.1.2h-.1v-.4H45v.4zm1.4 1.2c-.2.1-.4.2-.6.1-.2 0-.3-.1-.4-.2-.1-.1-.2-.2-.2-.4v-.4c0-.1.1-.3.2-.4.1-.1.2-.2.3-.2h.4c.3.1.4.2.5.3.1.2.2.4.1.6 0 .3-.1.5-.3.6zm1.4.7c0-.1-.1-.2-.1-.4 0-.1 0-.2-.1-.2v-.1s-.1 0-.1-.1l-.1.3v.1s0 .1.1.1v.1l-.7-.3v-.1h.1l.1-.1.3-.8v-.2l-.1-.1v-.1l.6.2.1.1c.1 0 .2.1.3.1.1 0 .1.1.1.1 0 .1.1.1.1.2v.2c-.1.2-.2.2-.4.2 0 0 .1.2.1.4s.1.3.1.3l.1.1v.1l-.5-.1zm.5.1v-.1h.2s.1 0 .1-.1l.4-.8c0-.1.1-.1 0-.2l-.1-.1v-.1l.7.3v.1h-.2s-.1 0-.1.1l-.4.8v.1s0 .1.1.1V4l-.7-.4zm2 .9c0 .1 0 .1 0 0v.2l-.6-.4.1-.1c.1 0 .1.1.1 0V4l-.4-.2h-.1l-.1.1V4s0 .1.1.1l-.1.1L49 4v-.1c.1.1.2 0 .3-.1l1-.8.1.1-.2 1.2c.1.1.1.2.1.2z"/>
      <path d="M46 1.5c-.1 0-.2 0-.3.1-.1.1-.1.2-.2.4s-.1.4 0 .5c0 .1.1.2.2.2s.2 0 .3-.1c.1-.1.1-.2.2-.5v-.5c.1 0 0-.1-.2-.1zM50 3.9v-.4l-.4.2M48 2.2c0-.1-.1-.2-.2-.2h-.1l-.2.5c.1 0 .2.1.2.1h.1s.1-.1.1-.2c.1-.1.1-.2.1-.2zM37 3.2l.4-.1-.4-.4M29.6 5s0-.2.1-.2 1-.7.8-1.3c-.2-.6-1.5.3-1.9 1.1-.4.8-.2 1.7.7 1.6l.9-.8c.1-.1-.2-.3-.6-.4zM56.9 4.5c-.4-.8-1.7-1.7-1.9-1.1-.2.6.7 1.2.8 1.3.2.1.2.3.2.3-.4.1-.7.3-.7.3l.9.8c1 .2 1.1-.8.7-1.6zM50.9 15.1c-.3-.1-.4-.4-.4-.7 0-.1-.1-.1-.1-.1-1-.4-1.6-1.2-1.7-1.7-.1-.4-.2-.7-.2-.7v-.2c-.9-.4-1.2-1.3-1.2-1.3 0-.1 0-.2.1-.2h.2c-.2-.1-.3-.2-.3-.3-.1-.1-.1-.1-.1-.2-.6-.3-.9-.7-.9-.7-.1-.1-.1-.2 0-.3.1-.1.1-.1.2-.1h.3c-.6-.3-.9-1.1-1-1.1v-.2c0-.1.1-.1.2-.1-.6-.2-1.2-.4-1.8-.5-2.9-.5-5.7.6-7.6 2.7 0 .1-.1.4-.1.6.2-.2.5-.4.6-.4h.2c.1 0 .1.1.1.2 0 .8-.3 1.4-.6 1.8h.1c.1 0 .1.1.1.2 0 0 0 .4-.1.9h.1c.1 0 .2.1.2.2 0 .2-.1.6-.3.9.1.1.1.2 0 .2.1 0 .1.1.1.2v.2c.1-.2.2-.3.2-.3.1-.1.2-.1.2-.1.1 0 .1.1.1.2 0 0 .1-.1.2 0 .1 0 .2.1.1.2 0 0-.2.6-.2.9 0 .2-.1.4-.2.5l.4.4c.2-.4.4-.8.4-1 .1-.3.3-.8.5-1.1l.1-.4v-.1c0-.1.1-.1.1-.1s.2-.2.5-.4c0-.1.1-.3.1-.4.1-.3.3-1 .5-1.3.2-.3.2-.9.3-1.2 0-.2.1-.4.2-.5v-.2c.1-.3.2-.4.3-.5.1-.2.1-.3.3-.4.1-.1.2-.1.3-.2.4-.4.9-.9 1.7-.9.4 0 .8.2 1.2.5.1.1.2.2.3.2.1.1.1.1.1.2v.1c.1 0 .1.1.2.2V9c.2.2.2.5.2.6v.5c0 .1 0 .1-.1.2.1.1.2.3.2.3 0 .1.1.2.1.2.1.1 0 .2 0 .3-.1.1-.2.1-.3.2.1.1 0 .2 0 .2v.1c0 .1 0 .1-.1.2v.1c.1.1 0 .2 0 .3-.1.2-.5.3-1.1.2h-.2-.1V12.7l.1.1h.1l.3.2c.1.1.3.2.4.5.1.3.2.6.2.8.1.1.1.2.2.3.3.3.7.8.6 1.3-.1.5-.4 1.2-.6 1.5 0 .1-.1.1-.1.2l.1.1c0 .1.1.3.2.4.2.4.3.5.4.5.1 0 .1 0 .2.1 0-.2.1-.3.2-.5 0 0 0-.1.1-.1-.1-.2-.2-.6.1-1 0-.1.1-.1.2-.1 0-.2.1-.5.3-.7.1-.1.1-.1.2-.1 0-.2.1-.4.3-.6.1-.1.2-.1.2-.1.1-.2.2-.4.5-.6h.2c.1 0 .1.1.1.2 0 0 0 .3-.1.5.1 0 .2 0 .2.1.1.1.1.2 0 .2 0 0-.1.3-.4.6.1.1.1.2 0 .2 0 .1-.1.4-.5.6 0 .1.1.2 0 .2 0 0-.1.4-.4.6V18.4c.1-.2.2-.2.2-.2s.1 0 .1-.1c0-.4.2-.6.2-.6.6.5.7.5.8.5 0-.4.2-.7.2-.7 0-.1.1-.1.2-.1 0-.3.2-.6.2-.6 0-.1.1-.1.2-.1s.2.1.2.1c.1-.2.3-.3.3-.3h.2c.1 0 .1.1.1.2.1.3 0 .5-.1.7 0 .1.1.2 0 .2 0 .3-.2.5-.3.6 0 .1.1.1 0 .2-.1.3-.2.5-.4.6v.2c-.2.4-.5.5-.7.6v.1c0 .1-.1.2-.2.3 0 0 .6.2.8.3.9-1.1 1.6-2.4 1.9-4 .1-.2.1-.5.1-.7.2-.2.2-.4.1-.5z"/>
      <path d="M47.2 19.5v-.2c0 .1-.1.1 0 .2-.1 0-.1 0 0 0z"/>
    </g>
    <g fill="#A59666">
      <path d="M32.3 10c0 .1 0 .1-.1.2 0 .1 0 .1-.1.2v.2l.1-.1.1-.1.1-.1.2.2c.1-.1.2-.1.3-.1h.4c.2.1.3.3.4.5 0 .2-.1.3-.2.5.1.1.1.2.2.4.5-1.4 1.2-2.6 2.3-3.7 1.4-1.4 3.1-2.3 5-2.6l1-2.1v-.1c-2.8.2-5.4 1.3-7.4 3.4-.4.3-.7.7-1 1.1l-.1.1-.1.1c-.1.1-.1.1-.1.2-.2.3-.5.7-.7 1.1 0 .2-.2.5-.3.7zm8-6c.4 0 .7.2.7.6 0 .2-.1.3-.2.5-.1.1-.3.2-.4.2-.3 0-.6-.3-.6-.6-.1-.4.2-.7.5-.7zm-1.7.5c.4 0 .6.3.7.6 0 .3-.3.6-.6.7-.3 0-.6-.3-.6-.6-.1-.4.2-.7.5-.7zm-1.8 1c.1-.1.3-.2.4-.2.4 0 .7.3.7.6 0 .2 0 .3-.2.5-.1.1-.3.2-.4.2-.3 0-.6-.3-.6-.6 0-.2 0-.4.1-.5zm-.8.7c.4 0 .6.3.7.6 0 .2-.1.3-.2.5-.1.1-.3.2-.4.2-.3 0-.6-.3-.6-.6-.2-.4.1-.7.5-.7zm-1.6 1.5c.1-.1.3-.2.4-.2.4 0 .7.3.7.6s-.3.7-.6.7-.6-.3-.6-.6c-.1-.2 0-.4.1-.5zM33.5 9l.2-.2s.1-.1.2-.1h.1c.4 0 .7.3.7.6s-.3.6-.6.7c-.1 0-.2 0-.3-.1-.1 0-.1-.1-.1-.1 0-.1-.1-.1-.1-.2s-.1-.1-.1-.2c-.2-.1-.1-.3 0-.4zM33 8.2c-.7 0-1.4-.3-2-.6.1.4.4 1.1 1.1 2.1l.9-1.5zM54.5 7.7c-.5.3-1.2.5-1.9.5l.9 1.5c.7-.9.9-1.6 1-2zM51.2 19.2c-.4.8-1 1.6-1.6 2.2-1.4 1.4-3.1 2.3-4.9 2.7l-1 2.2c2.8-.2 5.4-1.4 7.4-3.4.3-.3.5-.6.8-.9-.4-.5-.8-2-.7-2.8zm-6 6.5c-.4 0-.6-.3-.7-.6 0-.2 0-.3.2-.5.1-.1.3-.2.4-.2.3 0 .6.2.7.6.1.4-.2.7-.6.7zm2.2-.7c-.1.1-.3.2-.4.2-.3 0-.6-.3-.6-.6 0-.2 0-.3.2-.5.1-.1.3-.2.4-.2.4 0 .7.2.7.6-.2.2-.2.3-.3.5zm.9-.6c-.4 0-.6-.3-.7-.6 0-.4.3-.7.6-.7s.7.2.7.6c0 .4-.3.7-.6.7zm1.7-1.2c-.1.1-.3.2-.4.2-.3 0-.6-.3-.6-.6 0-.2 0-.3.2-.5.1-.1.3-.2.4-.2.3 0 .7.2.7.6-.1.2-.2.4-.3.5zm1.3-1.7c0 .3-.2.6-.6.7-.3 0-.6-.3-.6-.6 0-.2 0-.3.2-.5.1-.1.3-.2.4-.2.3 0 .6.2.6.6zM38.1 23c-1.4-.8-2.5-1.9-3.4-3.3l-.3-.6c.1.8-.3 2.4-.6 2.8.9 1.1 2 2.1 3.3 2.9 1.5.9 3.2 1.4 4.9 1.5l-.9-2.2c-1.1-.2-2.1-.6-3-1.1zm-3.2-.8c-.4 0-.7-.3-.6-.7 0-.4.3-.6.7-.6.4 0 .6.3.6.7 0 .3-.3.6-.7.6zm1.2 1.2c-.4 0-.7-.3-.6-.7 0-.4.3-.6.7-.6.2 0 .3.1.4.2.1.1.2.3.2.5-.1.4-.4.6-.7.6zm1.3 1s-.1 0 0 0c-.2 0-.4-.1-.5-.2-.1-.1-.2-.3-.2-.5 0-.3.3-.6.7-.6.4 0 .6.3.6.7 0 .3-.3.6-.6.6zm1.3.8c-.2 0-.4-.1-.5-.2-.1-.1-.2-.3-.2-.5 0-.4.3-.6.7-.6.2 0 .3.1.4.2.1.1.2.3.2.5 0 .3-.2.6-.6.6zm1.7.5c-.4 0-.7-.3-.6-.7 0-.3.3-.6.7-.6.2 0 .3.1.4.2.1.1.2.3.2.5-.1.3-.3.6-.7.6z"/>
      <path d="M43.9 24.5l.2-.4v-.4c2-.3 3.8-1.2 5.2-2.7.8-.8 1.4-1.7 1.8-2.6v-.1-.1c.5-1.1.8-2.4.8-3.6 0-.8-.1-1.6-.3-2.4v-.1-.1c-.4-1.5-1.2-2.8-2.3-4-1.4-1.4-3.1-2.3-5-2.6l-.1-.1v-.1l-.1-.1-.8-2h-.7l-.8 1.6-.2.5-.1.1-.1.1c-2 .3-3.8 1.2-5.2 2.6-1.1 1.1-1.9 2.5-2.3 4v.2c-.2.8-.3 1.6-.3 2.4 0 1.3.3 2.5.8 3.6v.2c.2.3.3.7.5 1 .8 1.3 1.9 2.4 3.3 3.2 1 .6 2.1.9 3.3 1.1v.4l.9 2.1h.6l.9-1.7zm-.9-.7h-.2c-1.6 0-3.1-.4-4.5-1.2-1.3-.8-2.4-1.8-3.2-3.1-.3-.5-.5-1-.7-1.5v-.1-.1c-.3-1-.5-2-.5-3 0-.6.1-1.2.2-1.8v-.1-.1c.4-1.6 1.2-3.1 2.4-4.3 1.7-1.7 4-2.6 6.4-2.6 2.4 0 4.7.9 6.4 2.6 1.2 1.2 2 2.7 2.4 4.3v.2c.1.6.2 1.2.2 1.8 0 1-.2 2-.5 3v.2c-.4 1.1-1.1 2.2-2 3.1-1.8 1.7-4 2.6-6.4 2.7z"/>
      <path d="M44.7 5.5c1.8.4 3.5 1.2 4.8 2.6 1.1 1.1 1.8 2.3 2.3 3.7.1-.2.1-.3.2-.4-.1-.1-.1-.2-.1-.4s.1-.3.2-.5l.1-.1H52.5c.1 0 .2 0 .3.1.1-.1.1-.1.2-.1l.1.1.1.1.1.1v-.2-.1s-.1-.1-.1-.2 0-.1-.1-.2c-.3-.6-.6-1.2-1-1.7 0-.1-.1-.2-.2-.2l-.1-.1-.1-.1c-.3-.4-.6-.7-1-1.1-1.9-1.9-4.4-3.1-7.1-3.3l1.1 2zm7.1 3.3h.1c.1 0 .1 0 .2.1.2.1.3.3.3.6 0 .2-.1.3-.2.4l-.1.1s-.1 0-.1.1h-.2c-.3 0-.6-.3-.6-.7-.1-.4.2-.6.6-.6-.1 0 0 0 0 0zm-.9-1.3c.2 0 .3.1.4.2.1.1.2.3.2.5 0 .3-.3.6-.6.6-.2 0-.3-.1-.4-.2-.1-.1-.2-.3-.2-.5-.1-.4.2-.6.6-.6zm-1.2-1.3c.3 0 .6.3.6.7 0 .3-.3.6-.6.6-.2 0-.3-.1-.4-.2-.2-.1-.3-.3-.2-.5 0-.3.3-.6.6-.6zm-1.3-.9c.3 0 .6.3.6.7 0 .3-.3.6-.6.6s-.6-.3-.6-.7c0-.4.3-.6.6-.6zm-1.3-.8c.2 0 .3.1.4.2.1.1.2.3.2.5 0 .4-.3.6-.6.6-.4 0-.6-.3-.6-.7-.1-.3.2-.6.6-.6zM45.4 4c.3 0 .6.3.6.6s-.3.6-.6.6-.6-.3-.6-.7c-.1-.3.2-.5.6-.5zM25.2 15c-.1 0-.1 0-.2.1l.2.4c.1-.1.2-.1.2-.1v-.1s0-.1-.1-.1c0-.1-.1-.2-.1-.2zM23.9 16.3l.3-.1-.3-.3"/>
      <path d="M31 14.5s.1 0 0 0h0c.1-.1 0-.1 0-.2-.2-.4-.7-1.1-1.4-1.7 0 0-1.5.2-4.4 1.5-2.9 1.4-4.2 1.7-6.3 1.4l1.1 2.2s1.4.4 3.5-.1c2-.4 5.6-3.5 7.5-3.1zm-8.3 2.6V17c.1 0 .1 0 .1-.1V16l-.4 1.1h-.1l-.6-1 .1.7v.1l.1.1h.1v.1h-.5V17h.1l.1-.1v-.1l-.1-.7V16h-.1v-.1h.5l.5.8.3-.9h.5v.1h-.1v.1l.1.8v.1h.1v.1l-.7.1zm1.6-.4c0-.1.1-.1.1-.2v-.1-.1l-.1-.1-.4.1V16.6h.1v.1l-.4.1v-.1c.1 0 .1-.1.1-.3v-1.1h.1l.7.8c.1.1.1.1.2.1h.1v.1l-.5.4zm1.6-.8c-.1 0-.2-.1-.3-.2-.1-.1-.2-.1-.2-.1h-.1s-.1 0-.1.1l.2.3c0 .1.1.1.1.1h.1v.1l-.6.2v-.1c.1 0 .1-.1.1-.1v-.1l-.4-.7c0-.1-.1-.1-.1-.1h-.1v-.1l.4-.2.1-.1c.1-.1.2-.1.2-.1h.4l.1.1c.1.1.1.3-.1.4.1 0 .2 0 .3.1.1.1.2.1.2.1h.1v.1l-.3.3zm1.4-.8l-.1-.1c0 .2-.1.3-.3.4-.2.1-.3.1-.5.1s-.3-.2-.4-.3c-.1-.2-.1-.3-.1-.5s.1-.3.3-.4c.1-.1.3-.1.4-.1v-.1l.1-.1.2.4-.1.1c-.1-.1-.2-.2-.3-.2h-.3l-.2.2c0 .1 0 .2.1.4.1.1.1.2.2.3.1.1.1.1.2.1h.2l.2-.2v-.3l.1-.1.3.4zm.5-.3s0 .1-.1.1h-.1s-.1 0-.1-.1v-.1s0-.1.1-.1h.1s.1 0 .1.1c.1 0 .1 0 0 .1z"/>
      <path d="M20 13.6l1.5 1.5s.9-.1 1.4-.4c0 0-.6-.6-.5-1.5 0 0-.3.4-2.4.4z"/>
      <path d="M20.9 15.2l-2-2s.1-.3.3-.2c.2.1 2.8.8 3.4-.5.6-1.4-4.3-2.5-4.8.4 0 0-.4 2.5 3.1 2.3zM30.8 16H31.1c.1 0 .1 0 .1-.1h.1c.4-.3.1-.7.1-.7l-.2-.2h-.1s-.1 0-.1-.1h-.1c-1.1-.3-2.9 1-2.9 1 1-.3 1.7.3 2.8.1z"/>
      <path d="M27.8 16.5s-.1.4 0 .6c0 0 .3.5 1.4.4.6-.1 1.1-.6 1.9-.9h.1c.1 0 .1 0 .1-.1h.1c.5-.2 1.2-.3 2-.2-.1-.5-.1-1-.1-1.5 0-.4 0-.8.1-1.1-.3-.1-1.1-.2-2 .1h-.1-.1l.1.1.1.1.4.7s.5.9-.3 1.4h-.1-.1H31c-1.7.5-2.6-.4-3.2.4zM31.2 21.3s-.1 0 0 0c-.1 0 0 .2 0 0z"/>
      <path d="M32.2 19.9c0-.1 0-.1.1-.2v-.1c.1-.4.2-.8.1-1.3 0 0 0-.9-.3-.9 0 0-.2 0-.2.4v1s0 .1-.1.1v-.3-.2c0-.2 0-.4-.1-.6v.1s0 .1-.1.1c0 0-.1.1-.1.2v.1c-.3.5-.6 1.3-.4 2.2.1.6.1.9.1 1 .1-.3.6-.8 1-1.6z"/>
      <path d="M33.1 17.4s-.1.1 0 .3c.1.3.5 1.9.1 2.3 0 0-.1-2-.6-2.7 0 0 .3 1.4-.2 2.6v.1c0 .1 0 .1-.1.2v.1c-.1.2-.2.3-.3.5 0 0 .2 1 .9 1.7 0 0 .2-.3.3-.6v-.1s0-.1.1-.1v-.1s0-.1.1-.1c.4-.5 1.3-2.4-.3-4.1zM31.4 17.6s0-.1 0 0c.2-.2 0-.2 0-.2h-.1l-.1.1c-.6.5-1 1.8-1 1.8 0-.4.3-1.1.4-1.3.1-.2.1-.3.1-.3-1.3.8-.8 3-.8 3 .3-.3.7-.6.7-.6.2-1.2.5-2.1.8-2.5z"/>
      <path d="M29.5 18.9c-.1.1-.9 1.8-1.6 1.8 0 0 .9-.7 1-1.3 0 0 0-.1-.2 0s-.8.5-.9.4c0 0-.6.7-.5 1.8 0 0 .5-.2.9-.3.3-.1 1.6-.7 1.5-2.4-.1-.1-.2-.1-.2 0zM26.7 20.2l-.5.5s.1-.4.3-.5c0 0 .3-.2.1-.2-.2 0-.5-.1-.5-.1s-.4.9-.4 1.5c0 0 .4-.2.7-.2.2 0 .7-.5.7-.9-.1-.2-.2-.3-.4-.1z"/>
      <path d="M29.6 17.8c-.2.1-1.6 1.1-2.4 1.1 0 0 .8-.5 1.2-.7.4-.2.6-.2.6-.2s-.1-.3-1.3.1c-1.2.3-1.4 1-1.6 1 0 0 2 1.5 3.9-1.2-.2-.1-.2-.2-.4-.1zM26.4 18.1s.7-.4 1-.4c.3 0-.9-.4-1.1-.4 0 0-.2.6.1.8zM26.3 16.9s.8.2 1 .4c0 0-.2-.6-.1-1 0-.1-.2-.1-.9.6zM33.3 12.1c0-.2-.1-.4-.1-.5v-.1-.1c-.2-.2-.4-.4-.5-.4l-.1.1c-.1.2-.3.5-.3.8 0 .4.3 1.6.5 1.5.2-.1-.1-1.6-.1-1.6s.3.5.5 1.6c-.1-.1.2-.4.1-1.3zM31.5 12.4s0 .1 0 0c.1.2.3.5.3 1 0 0 .2-.1.2-.4 0-.2-.1-.7-.4-1.2 0 0 0-.1-.1-.1l-.1-.1-.1-.1c-.2-.2-.3-.3-.5-.3 0 0-.2 1.2.2 1.9 0 0 0 .1.1.1l.1.1.1.1.1.1c.1 0 .3-.5.1-1.1 0 .1 0 .1 0 0zM30.9 10.5s.3.2.3.3c0 0 .1-.8-.1-1.3 0 0 .3.7.4 1.2 0 .1.1.2.1.3 0 0 0 .1.1.1 0 .1.1.1.1.2 0 0 0 .1.1.1s0-.1 0-.1v-.2-.3-.1c-.1-.6-.4-1.4-1.1-1.9 0 0-.4 1.1-.1 2.3-.1-.2.1-.6.2-.6zM30.2 10.5l.1-.4s-.5-1.1-.8-1.3c0 0 .5.3.7.8 0 0 .1-.6 0-.8-.1-.2-.5-.5-1.1-.6 0 0 0 1.8 1.1 2.3zM29.7 12.2l1.2 1.3s-.3-.8-.6-1.3c-.2-.3-.5-.9-.7-1.2.2.2.6.7.8 1 0 0 .3-1.2-1.6-2.1 0 0 .1 1.5.4 2.2l.5.1zM28.3 12.5c.1-.7-.4-2.1-.4-2.1.4.4.6 1.7.6 1.9.1.2.4.1.4.1-.1-2.3-1.4-2.7-1.4-2.7-.4 2.3.8 2.8.8 2.8zM25.6 10l.1-.3.4.2s-.2-.9-.8-1.3c0 0 .8.4 1.4 1.7 0 0 .3.2.4 0 .1-.3.1-1.8-2.3-2.7 0 0-.2 1.9.8 2.4zM27.4 12.4s0-1.4-1.4-2.1c0 0 0 1.8 1.3 2.7 0 0 .1-.1 0-.2s-.8-1.2-.9-1.7c.1 0 .7 1.2 1 1.3zM24.2 10.5c1.2.5 1.4 1.1 1.4 1.1s.2-.3-.3-.9c-.4-.6-1.5-.7-1.6-1.7 0 0 .4.6.8.8.4.2 1.1 1 1.1 1s.1-.3-.6-.9c-.7-.7-.7-1.4-2.2-1.9.1-.1.1 2 1.4 2.5z"/>
      <path d="M26.8 13s-.4-1.3-3.2-1.3c0 0 .8 1.9 2.8 1.6 0 0-.5-.8-1.9-1.1 0 0 .8 0 2 .7l.3.1zM24.2 11.4s.6 0 .8.1c0 0 0-.2-.6-.4s-1.1-1.1-1.6-1.2c0 0 .4.1.6.3 0 0-.5-.6-.6-.7 0 0-.2-.2-1-.2 0 0 .5.5.6.8.2.1.8 1.2 1.8 1.3zM60.4 14.2c-2.9-1.4-4.4-1.5-4.4-1.5-.7.5-1.2 1.3-1.4 1.7 0 .1 0 .1-.1.1v.1h.1c1.9-.4 5.5 2.7 7.5 3.2s3.5.1 3.5.1l1.1-2.2c-2.1.2-3.4-.2-6.3-1.5zm-.5.6c-.1 0-.1-.1 0 0l-.3-.2-.2.4.1.1h.1s.1 0 .1-.1l.1.1-.2.4-.1-.1v-.1s0-.1-.1-.1l-.1-.2-.2.3c0 .1-.1.1-.1.1v.1s0 .1.1.1.1.1.2.1h.1c.1 0 .1-.1.2-.1l.1.1-.2.3-1-.6-.4-.2c0-.1 0-.2-.1-.4v-.2-.1s-.1 0-.1-.1l-.1.3v.1s0 .1.1.1v.1l-.6-.3v-.1h.1l.1-.1.3-.7v-.1s0-.1-.1-.1v-.1l.5.2.1.1c.1 0 .2.1.2.1l.1.1s.1.1.1.2v.2c-.1.1-.2.2-.4.2 0 0 .1.2.1.3 0 .1 0 .2.1.3 0 0 0 .1.1.1v.1-.1h.1s.1 0 .1-.1l.4-.7v-.1s0-.1-.1-.1l.1-.1.9.6-.2.3V15v-.2zm1.1 1.6l-.1.2c-.1 0-.2-.1-.3-.1-.1 0-.2-.1-.3-.1-.2-.1-.3-.2-.3-.4s0-.3.1-.5.2-.3.4-.3c.2-.1.3-.1.5 0l.3.3.1-.1h.1l-.2.4h-.1c0-.2 0-.4-.2-.5h-.3c-.1 0-.2.2-.3.3-.1.1-.1.2-.1.3v.2c0 .1.1.1.1.1h.2c.1 0 .1 0 .1-.1s0-.1-.1-.2v-.1l.5.3v.1l-.1.2c0-.1 0-.1 0 0zm1-.4l-.3.7v.1s0 .1.1.1v.1l-.6-.2v-.1h.1s.1 0 .1-.1l.3-.7v-.1l-.1-.1v-.1l.6.3v.1h-.1c-.1-.1-.1-.1-.1 0zm1 .4h-.1v-.2c0-.1-.1-.1-.2-.1h-.1s-.1 0-.1.1v.1s0 .1.1.1c0 0 .1.1.2.1l.2.2s.1.1.1.2v.2c0 .1-.1.2-.2.3-.1.1-.2.1-.3 0-.1 0-.1 0-.2-.1l-.1-.1s0 .1-.1.1h-.1l.1-.4h.1c0 .1 0 .2.1.3.1.1.1.1.2.1h.1l.1-.1v-.1s0-.1-.1-.1c-.1-.1-.2-.2-.3-.2 0-.1-.1-.1-.1-.2v-.2c0-.1.1-.2.2-.2s.2-.1.3 0c.1 0 .2.1.2.2v-.1h.1l-.1.1zm1.3 0s-.1-.1-.2-.1H64v1s.1 0 .1.1v.1l-.7-.1v-.1h.1v-.1l.1-.9h-.1-.1s-.1 0-.1.1v.1h-.1v-.4l1.3.1v.4h-.1c0-.1 0-.2-.1-.2zm.4 1.1s-.1.1-.1 0c-.1 0-.1 0-.1-.1v-.1s0-.1.1-.1h.2v.1c0 .1-.1.1-.1.2z"/>
      <path d="M58.4 14c0-.1-.1-.1-.2-.1h-.1l-.2.4c.1.1.2.1.2.1h.1l.1-.1c.1-.2.1-.3.1-.3zM64.1 15.1l1.5-1.5c-2.1 0-2.5-.4-2.5-.4.1.9-.5 1.5-.5 1.5.6.3 1.5.4 1.5.4z"/>
      <path d="M67.8 12.9c-.5-3-5.4-1.9-4.8-.4.6 1.4 3.2.7 3.4.5.2-.1.3.2.3.2l-2 2c3.5.2 3.1-2.3 3.1-2.3zM54.1 15.1s-.3.5.2.7h.5c1.1.2 1.9-.4 2.7-.3 0 0-1.8-1.2-2.9-1h-.1s-.1 0-.1.1h-.1c-.1.4-.2.5-.2.5z"/>
      <path d="M54.2 13.8c-.9-.3-1.8-.2-2.1-.1 0 .4.1.8.1 1.1 0 .5 0 1-.1 1.5.9-.1 1.5 0 2 .2H54.4c.8.3 1.2.8 1.9.9 1.1.1 1.4-.4 1.4-.4.2-.2 0-.6 0-.6-.6-.8-1.5 0-3.1-.2h-.2-.1-.1-.1c-.9-.4-.4-1.4-.4-1.4l.4-.7.1-.1.1-.1c.1-.1.1-.1-.1-.1.1 0 .1 0 0 0zM54.4 21.3c0 .2 0 0 0 0zM54 18.1c0-.1 0-.1 0 0 0-.1 0-.2-.1-.2 0 0 0-.1-.1-.1 0-.1-.1-.1-.1-.1-.1.2-.1.4-.1.6V18.9l-.1-.1v-.1-.9c0-.4-.2-.4-.2-.4-.3 0-.3.9-.3.9 0 .5 0 .9.1 1.3v.4c.3.8.9 1.2 1 1.3 0-.1 0-.4.1-1 .5-.8.2-1.6-.2-2.2.1 0 .1 0 0 0z"/>
      <path d="M53.2 20.2s-.1 0 0 0c0-.1-.1-.1-.1-.2v-.1c-.5-1.3-.2-2.6-.2-2.6-.5.7-.6 2.7-.6 2.7-.3-.4.1-2 .1-2.3.1-.2 0-.3 0-.3-1.6 1.6-.7 3.6-.5 4 0 0 0 .1.1.1v.4c.2.3.3.6.3.6.7-.7.9-1.7.9-1.7-.1-.2-.2-.3-.3-.4.3-.1.3-.1.3-.2zM54.8 17.6s0 .1.1.3c.1.2.4.9.4 1.3 0 0-.3-1.3-1-1.8 0 0-.1 0-.1-.1 0 0-.1 0 0 .2l.1.1c.2.4.6 1.3.6 2.3 0 0 .4.4.7.6 0 .1.4-2.1-.8-2.9zM56.9 19.4c-.2-.1-.2 0-.2 0 .1.6 1 1.3 1 1.3-.7 0-1.5-1.7-1.6-1.8-.1-.1-.2-.1-.2-.1 0 1.7 1.2 2.3 1.5 2.4.3.1.8.3.8.3.1-1-.5-1.8-.5-1.8 0 .2-.6-.2-.8-.3zM59 19.9c-.2 0 .1.2.1.2.2.1.3.5.3.5s-.2-.3-.5-.5c-.2-.2-.4-.1-.4-.1 0 .5.4.9.7.9.3 0 .7.2.7.2 0-.5-.4-1.5-.4-1.5s-.3.3-.5.3zM59.6 19.1c-.2 0-.4-.7-1.6-1-1.2-.3-1.3-.1-1.3-.1s.2 0 .6.2c.4.2 1.2.7 1.2.7-.9 0-2.2-1-2.4-1.1-.3-.1-.2 0-.2 0 1.7 2.7 3.7 1.3 3.7 1.3zM58.2 17.7c.3 0 1 .4 1 .4.3-.2.1-.7.1-.7-.2-.1-1.4.3-1.1.3zM59.3 16.9c-.7-.7-.9-.7-.9-.6.1.3-.1 1-.1 1 .2-.2 1-.4 1-.4zM52.8 13.4c.2.1.5-1 .5-1.5 0-.3-.1-.5-.2-.7v-.1-.1l-.1-.1s-.3.2-.5.5v.1c-.1.1-.1.3-.1.5-.1.9.2 1.2.2 1.2.1-1 .5-1.6.5-1.6s-.5 1.7-.3 1.8zM54.7 11.3c-.2 0-.4.1-.5.3l-.1.1s0 .1-.1.1c0 0 0 .1-.1.1-.3.4-.4 1-.4 1.2 0 .3.2.4.2.4 0-.4.2-.8.3-1 0 0 0-.1.1-.1 0 0 0 .1-.1.1-.2.5 0 1 0 1 .1 0 .1 0 .2-.1 0 0 .1 0 .1-.1 0 0 .1 0 .1-.1 0 0 0-.1.1-.1.4-.6.2-1.8.2-1.8zM53.8 10.7v.7l.1-.1.1-.1s0-.1.1-.1V11c0-.1.1-.2.1-.3.1-.5.4-1.2.4-1.2-.2.5-.1 1.3-.1 1.3 0-.1.3-.3.3-.3.1 0 .3.5.3.5.3-1.2-.1-2.3-.1-2.3-.7.5-1 1.3-1.1 1.9-.1 0-.1 0-.1.1zM55.3 10.1l.1.4c1-.5 1.1-2.3 1.1-2.3-.6.1-1.1.3-1.1.6-.1.2 0 .8 0 .8.2-.5.7-.8.7-.8-.3.2-.8 1.3-.8 1.3zM55.9 11.1c-.2.3-.4.8-.7 1.2-.3.5-.6 1.3-.6 1.3l1.2-1.3h.4c.3-.7.4-2.2.4-2.2-1.8.9-1.6 2.1-1.6 2.1.3-.3.7-.8.9-1.1zM57 12.3c.1-.2.2-1.5.7-1.9 0 0-.5 1.5-.4 2.1 0 0 1.2-.5.7-2.9 0 0-1.3.4-1.4 2.7 0 0 .3.2.4 0zM58.9 10.3c.5-1.4 1.4-1.7 1.4-1.7-.6.5-.8 1.3-.8 1.3l.4-.2v.3c1-.5.8-2.5.8-2.5-2.4 1-2.3 2.4-2.3 2.7.2.4.5.1.5.1zM59.1 11.1c-.1.5-.8 1.6-.9 1.7-.1.1 0 .2 0 .2 1.3-.8 1.3-2.7 1.3-2.7-1.4.7-1.4 2.1-1.4 2.1.4-.1 1-1.3 1-1.3zM59.9 10.7s.7-.7 1.1-1c.5-.1.8-.7.8-.7-.1.9-1.2 1.1-1.6 1.7-.4.6-.3.9-.3.9s.2-.5 1.5-1.1c1.3-.5 1.3-2.6 1.3-2.6-1.5.5-1.5 1.3-2.2 1.9-.7.7-.6.9-.6.9zM59.2 13.4c2 .3 2.8-1.6 2.8-1.6-2.8 0-3.2 1.3-3.2 1.3l.4-.1c1.2-.7 2-.7 2-.7-1.5.3-2 1.1-2 1.1z"/>
      <path d="M62.9 9.8c-.5.2-1 1-1.6 1.2-.6.2-.6.4-.6.4.2-.1.8-.1.8-.1 1.1-.1 1.6-1.1 1.8-1.5.2-.3.6-.8.6-.8-.7 0-1 .2-1 .2-.1.1-.6.7-.6.7.3-.1.6-.1.6-.1zM51.3 17.3v-.2c.2-.8.3-1.6.3-2.4 0-.4 0-.9-.1-1.3v-.1-.1c-.3-1.8-1.1-3.4-2.5-4.7C47.4 6.9 45.2 6 42.8 6c-2.3 0-4.6.9-6.2 2.6-1.3 1.3-2.2 3-2.5 4.7v.2c-.1.4-.1.9-.1 1.3 0 .8.1 1.6.3 2.4v.2c.2.7.5 1.4.9 2 .8 1.3 1.9 2.3 3.2 3.1 1.3.8 2.8 1.2 4.4 1.2h.2c2.3-.1 4.5-1 6.1-2.7 1-1.1 1.7-2.3 2.2-3.7-.1.1-.1 0 0 0zm-2.4 3.5c-1.6 1.6-3.7 2.5-5.9 2.6h-.2c-1.5 0-3-.4-4.2-1.1-1.2-.7-2.3-1.7-3.1-3-.6-1-1-2.2-1.2-3.4 0-.4-.1-.7-.1-1.1 0-2.3.9-4.4 2.5-6 1.6-1.6 3.8-2.5 6-2.5 2.3 0 4.4.9 6.1 2.5 1.6 1.6 2.5 3.8 2.5 6.1 0 .3 0 .7-.1 1-.1 1.8-.9 3.5-2.3 4.9z"/>
      <path d="M50.1 13.6c-.2-.3-.7-.7-.8-1.2 0 0 .3.4.6.6.1.1.1.1.2.1.2.1.5.5.6.6 0 0 0 .1.1.1 0-.1-.2-.5-.4-.9l-.1-.1c-.2-.2-.3-.4-.6-.6h-.1c-.1-.1-.2-.1-.3-.2-.2-.1-.5-.2-.7-.3 0 0 .2.3.3.8.1.4.6 1.2 1.5 1.5h.1l-.2-.4c-.1.1-.1 0-.2 0zM50.6 14.2s0 .6.3.7c0 0 .1-.4-.3-.7zM49.1 10.5s0-.1 0 0h-.8-.1-.1-.1c-.3 0-.5-.1-.7-.3 0 0 .4 1.1 1.5 1.4h.4s.4-.1.4-.4c0-.3-.5 0-1.1-.1-.2 0-.4-.1-.6-.3 0 0 .2.1.5.1.3.1.7.1.9-.1 0 0 0-.1-.1-.2 0-.1 0-.1-.1-.1.1 0 0 0 0 0zM48.3 9.5h-.8-.1-.1-.1l.4.4c.1.1.3.2.5.3h.2c.2.1.4.1.6 0 0 0 .2-.2-.7-.3 0 0 .2-.1.8.1 0 0-.2-.3-.8-.4.2-.1.2-.1.1-.1zM47.3 8.7h-.4c-.2.1-.3.1-.5.1 0 0 .3.4.9.5h1.1s-.5-.3-1-.2c0 0 .7-.3 1 0 0 0 0-.1-.1-.1-.1-.1-.3-.2-.6-.2-.1-.1-.3-.1-.4-.1z"/>
      <path d="M49.6 11.8s0 .1.1.3v.1l.3.3.3.3.1.1c.2.3.4.7.5.9v-.1c0-.2-.1-1-.9-1.8 0 0 .5.3.7.7 0 .1-.2-.9-1.1-.8zM49.4 10.5c0 .1.1.1.1.2.1 0 .1.1.2.1 0 0 .1-.4-.4-.4.1-.1.1 0 .1.1 0-.1 0-.1 0 0 0-.1 0-.1 0 0zM47.1 8.5h.2c.4.1.5 0 .9.2l-.1-.1c-.2-.2-.5-.4-1-.4-.8-.1-.7-.4-.7-.4s.1.2.5.2.6.2.6.2-.6-.6-1.4-.7h-.2s.1.2.3.4c.2.1.5.5.9.6zM35.8 11.5c0 .1 0 .1 0 0 0 .1 0 .1 0 0 .4-.2.5-.5.6-.8v-.2-.1-.2c-.7.5-.8 1.4-.8 1.4.2-.5.5-.8.5-.8 0 .1-.2.5-.3.7zM35.6 11.8c.1 0 0 0 0 0z"/>
      <path d="M35.9 11.7s-.1 0 0 0c-.1 0-.1 0 0 0-.1 0-.1 0 0 0l-.1.1c0-.1 0-.1.1-.1-.1 0-.1 0 0 0-.1 0-.1 0 0 0 .1-.1.2-.1.3-.2l.1-.1.3-.3c.1-.2.2-.4.3-.7 0 0 0 .4-.3.8-.1.2-.3.4-.7.6h-.1c.1 0 .4-.1.7-.4.3-.3.5-.8.6-1.7 0 0-.5.2-.6.4v.7c-.1.3-.2.7-.6.9zM35.9 12.5c-.2.3-.3.9-.3.9.2-.1.3-.3.3-.4v-.1c.1-.1.1-.2.1-.3v-.1c.1-.3.1-.5.1-.5-.6.1-.7.6-.7.6.4-.2.5-.1.5-.1zM36.7 12.6c.1-.5.1-.9.1-.9s-.1.1-.2.3c-.1.1-.2.3-.3.5v.1c-.1.1-.1.2-.1.3v.4l.2-.4c0 .4-.3.9-.3.9.3-.2.5-.7.6-1.2zM36.3 14.1c.1 0 .1-.1.1-.1l.2-.2v-.1-.1c.1-.1.1-.2.1-.3.1-.2.1-.3.1-.5v-.1.1c0 .1-.1.2-.1.3-.2.6-.5 1.1-.4 1zM36.5 14.3s0-.1.1-.1v-.1-.1c0-.1.1-.1.1-.1h-.1c-.1 0-.1.1-.2.2.1.1.1.1.1.2h-.1c-.1.2-.2.3-.2.4v.2c.1-.1.2-.4.3-.6z"/>
      <path d="M36.4 15.9s0-.1.1-.1c.1-.1.1-.2.1-.3.1-.2.1-.3.1-.5v-.2-.1-.6l-.1.1s0 .1-.1.1c-.2.2-.2.4-.3.6v.1c-.1.3-.1.5-.1.5.1-.4.3-.7.3-.7.1.4-.3 1.1-.3 1.1.3.1.3.1.3 0zM37 14.9c0 .1 0 .1-.1.2v.1c0 .1-.1.3-.1.5 0 .1-.1.2-.1.3 0 0 0 .1-.1.1 0 .1-.1.1-.1.1.1 0 .2-.1.3-.2l.1-.1c.1-.1.1-.3.2-.4.1-.2.1-.3.1-.4V15c0-.3.1-.7.1-.7s-.2.2-.3.6zM37.2 15.6c-.1.1-.1.3-.2.4 0 0 0 .1-.1.1v.1s.3-.2.4-.4c.1-.1.1-.2.1-.4 0-.4.2-1 .2-1l-.2.6v.2c-.1.1-.1.3-.2.4zM36.9 16.4s.5.2.6-.3l-.4.2-.2.1zM45.1 18.4c-.1.3 0 .6 0 .9h.4c.1 0 .4-.1.4-.1v.3h.1v-.1h.1v-.1c-.2-.1-.3-.1-.4-.1-.2-.1-.4-.6-.6-.8zM41.1 21.3l-1.3 1.2-.1.1s.1 0 .1.1l.1-.1 1.2-1.1v-.2zM36.8 17.4h-.2l-1.2 1-.1.1s0 .1.1.1l.1-.1 1.3-1.1zM40.1 22.6c0 .1 0 .1.1.1l.1-.1.9-.8v-.2l-1.1 1zM37.3 17.3c.1 0 .1 0 0 0 .1-.1.2-.4.3-.6h-.2c-.9-.2-1.8-.1-2.7.2h-.1c0 .1.1.3.1.4v.1c0 .1 0 .1.1.2h.1c.8-.4 1.7-.4 2.4-.3zM36.9 18l.1-.1c0-.1.1-.2.1-.3l-.1.1-1.3 1.3h-.1s0 .1.1.1l.1-.1 1.1-1z"/>
      <path d="M36.3 17.4h-.2l-.8.8-.1.1s0 .1.1.1l.1-.1.9-.9zM35.8 17.5c-.3.1-.5.1-.8.2h-.1c0 .1.1.1.1.2s.1.1.1.2l.1-.1.6-.5zM37 17.4l-1.4 1.3-.1.1s0 .1.1.1l.1-.1 1.6-1.4H37zM40.6 22.9l.1.1h.1l.2-.2v-.2l-.4.3zM41 22.9c0 .1 0 .1 0 0 0 .1 0 .1 0 0zM40.3 22.8s.1 0 .1.1l.1-.1.6-.5v-.2l-.8.7zM36.9 18.4v-.2l-.1.1-1.1 1-.1.1s0 .1.1.1l.1-.1.9-.8.2-.2zM39.4 20.4s-.1-.1 0 0c-.1-.1-.1-.1 0 0l-.1-.1h-.1l-.1.1-1.2 1.1h-.1l.1.1.1-.1 1.4-1.1zM40.1 20.5h-.2l-.1.1-1.4 1.3-.1.1.1.1.1-.1 1.6-1.5zM40.3 20.6h-.1l-.1.1-1.4 1.3h-.1s.1 0 .1.1h.1l1.5-1.5z"/>
      <path d="M39.1 20.2c0-.1-.1-.1-.1-.1l-.1.1-1.2 1.1-.1.1.1.1h.1l1.3-1.3zM38.4 20.1h-.2l-.9.8-.1.1.1.1.1-.1 1-.9zM38.8 20.1h-.1-.2l-1.1 1-.1.1.1.1 1.4-1.2zM37.3 20c0-.1 0-.1 0 0 0-.1-.1-.1-.1-.1l-.1.1-.4.4-.1.1.1.1.1-.1.5-.5zM39.7 20.4h-.1l-.1.1-1.3 1.2-.1.1.1.1.1-.1 1.4-1.4zM36.7 19.3v-.2l-.1.1-.6.5-.1.1.1.1.1-.1.6-.5zM36.8 18.8c0-.1 0-.1.1-.2l-.1.1-.8.7-.1.1.1.1.1-.1.7-.6v-.1zM40.6 20.8s-.1 0-.1-.1l-.1.1-1.5 1.3-.1.1s.1 0 .1.1l.1-.1 1.6-1.4zM41 21.2V21v.2l-1.6 1.2-.1.1s.1 0 .1.1h.1l1.5-1.4zM36.7 19.7v-.2l-.1.1-.3.3-.1.1.1.1h.1l.3-.4zM37 19.9c0-.1 0-.1 0 0-.1 0-.1 0-.1-.1l-.1.1-.3.3-.1.1.1.1.1-.1.4-.4zM38 20.1h-.2l-.1.1-.7.6.1.1h.1l.8-.8zM40.9 20.9s-.1 0-.1-.1l-.1.1-1.5 1.3-.1.1s.1 0 .1.1l.1-.1 1.6-1.4zM37.7 20h-.2l-.1.1-.5.5h-.1l.1.1.1-.1.7-.6zM41.8 23c.1-.6.1-1.1.1-1.6V21c0-.1 0-.3-.1-.4h-.7v.1c.2.7.2 1.4.1 2.1v.2H41.9h-.1c0 .1 0 .1 0 0 0 .1 0 0 0 0zM44.1 9.3c-.1.1-.1.3-.2.3-.2.1-.3.3-.4.4-.1.2-.2.3-.3.4 0 0 0-.1-.2-.2v-.1c0-.1 0-.2-.1-.2h-.1-.1-.1l-.1.1c.1 0 .2-.1.2-.1s.1 0 .1.1c.1.1 0 .3-.1.3l-.1.1v-.2l.1-.1h-.1-.1v.2c0 .1.1.1.1.1v.2c-.1 0-.1-.1-.1-.1v.1c.1.2.2.2.3.2h.1v-.1.2s-.1.1-.2.1h-.1c-.1 0-.1-.1-.2-.2-.1.1-.2.3-.2.6v.3c0 .1 0 .2.1.3l.2.2c.1.2.3.3.3.6.1.3.2.7.7 1h.5c.1 0 .1.1.2.1 0 0 0-.1-.1-.2l-.4-.7c0 .1.1.2.1.3 0-.1-.1-.3-.1-.4v-.4s0-.2.1-.3h.2c-.1 0-.2.2-.2.2s-.2-.2-.2-.3c-.1-.1-.1-.3-.1-.3.2.2.6.3.8.4.4.1.8.1.9 0v-.1-.1-.1c0-.1-.1-.1-.1-.2 0 0 0-.1-.1-.1l-.1-.1s.1 0 .2-.1.2-.1.2-.1v-.1h-.1c-.1 0-.2-.1-.2-.2 0 0 0 .1.2.1h-.1s.1-.1.2-.1.1 0 .1.1c0 0 .1 0 .1-.1v-.1s-.1-.1-.1-.2-.2-.3-.2-.3-.1-.1 0-.2v-.1-.1-.2-.4s0-.3-.2-.5h-.1c-.1 0-.3 0-.4.1-.3.1-.4.2-.4.3zm-1.5 1.3c-.1 0-.1-.3-.1-.3 0 .1 0 .2.1.3 0-.1.1-.1.1-.1l.1.1v-.1-.1h.1v.2s.1.1 0 .1h-.1s-.1 0-.2-.1zm.2.2c-.1 0-.1 0 0 0-.1-.1 0-.1 0 0 0-.1.1-.1 0 0 .1 0 .1 0 0 0 .1 0 0 .1 0 0zm1.8-.4h-.1c0-.2 0-.1.1 0-.1-.1-.1-.1 0 0 0-.1 0-.1 0 0 0-.1 0 0 0 0zm.1-.3c0 .1 0 .1-.1.1h-.1l-.1-.1h-.1-.1-.1.1s.1-.1.2-.1h.1l.2.1c-.1-.1-.2-.1-.3-.1h.1s.1 0 .2.1c0-.1 0-.1 0 0zm.2.6s-.1 0-.2.1v.1-.1s0-.1.1-.1h.1zm-.3-.9c.1 0 .2.1.2.1s.1 0 .1.1v.1h-.1-.1-.1c0-.2-.1-.2 0-.3-.1.1-.1.1 0 0l-.1.1h-.3c0-.1.3-.2.4-.1z"/>
      <path d="M45 11.4s.1 0 0 0c.1 0 .1 0 0 0 .1 0 .1 0 0 0 .1-.1.1-.1 0 0 .1-.1 0-.1 0 0 0-.1 0-.1 0 0-.1-.1-.1-.1-.2 0h.2zM44.2 19.9zM44.9 11.5h-.2l.1.1h.2l-.1-.1c.1 0 .1 0 0 0 .1 0 .1 0 0 0zM40.8 15.3s-.2 1.3.9 1.8c0 0-.4.2-.9 0 0 0-.4.3-.1.7.2.4.8.9 1.1 1 0-.1 0-.3.2-.6-.2-.1-.4-.2-.4-.3h.1c.1 0 .2 0 .3.1h.3c.3.1.5.1.7.2.1 0 .3-.1.4-.2.2-.3.6-.5.7-.5l.2-.5c.1-.2.2-.3.4-.3.1 0 .2.1.2.2s.1.2 0 .3l-.3 1 .1-.1.4-.9s.2-.2.3-.4c.2-.3.3-.8.1-1.2l-.1-.1-.4-.4c0 .1.1.2.1.3 0 .2 0 .3-.1.4-.1.1-.3.2-.5.2h-.2c-1.2 0-1.7-.2-1.7-.2-.5-1.2-.9-1.8-1-1.9-.1 0-.1-.1-.1-.1h-.2c-.1 0-.2-.1-.3-.3 0-.1 0-.1-.1-.2s-.3-.2-.4-.3h-.4c-.1 0-.1.1-.2.1l-.2.1c.3.1 1.7.5 1.1 2.1zM44.4 10.1c.1 0 .1 0 0 0zM44.4 19.5z"/>
      <path d="M44.6 15.8c.1 0 .2-.1.2-.1.1-.1.1-.2.1-.3-.1-.4-.3-.8-.5-1-.2-.1-.3-.2-.4-.3-.1-.1-.1-.1-.2-.1h-.1c-.1 0-.2.1-.3.1h-.2c-.1 0-.2 0-.4-.1-.1 0-.3-.1-.4-.1H42c-.1 0-.2-.1-.3-.1.2.2.5.7.8 1.2.3.5.5.6.8.7h.9v-.3s.2.3.4.4zM40 16.7c.2-.3.3-.4.3-.4.5-1.6.9-1.9.1-2.6-.4-.4-.9-.3-1.1-.3h-.1v.1l-.2.2V14c-.1.1-.2.3-.2.3l-.2.4s-.3.6-.3.7c0 0-.1.2-.2.5.4.1 1.2.2 1.9.8zM46.9 19.9s0-.1 0 0c.1-.1.2-.1.2-.1-.1-.1-.2-.1-.3-.2 0 0-.1 0-.1.1l.2.2c-.1 0-.1 0 0 0-.1 0-.1 0 0 0-.1 0 0 0 0 0zM46.2 20.7v-.1.1c-.1 0-.1 0 0 0-.1 0-.1 0 0 0h-.1-.1-.1l-.1.1.4-.1zM46.4 20.4v-.1-.1-.1c-.1-.1-.3-.3-.3-.5H46c0 .2-.1.3-.2.4v.1H46.1v.2h.1c.2.2.2.1.2.1zM46.3 20.7l-.1.1-.2.1-.1.1h.2l.1-.1v-.1c.1 0 .1-.1.1-.1zM42.3 20.1V20v-.2c0-.1 0-.2-.1-.4-.2-.1-.6-.2-1.1-.4-.1 0-.2 0-.2-.1h-.1c-.1 0-.2-.1-.3-.1-.2 0-.3-.1-.5-.1h-.3H38.6h-.1s-.4.3.2-.3l.2-.2v-.1s0-.1.1-.1c.1-.1.2-.3.4-.5l.1-.1c.1-.2.2-.3.3-.5-.7-.6-1.6-.8-1.8-.8-.1.1-.1.3-.2.4v.1s0 .1-.1.1c-.1.1-.1.3-.2.4 0 .1-.1.1-.1.2s-.1.1-.1.1-.1.1-.1.2V17.9c0 .1 0 .2-.1.2 0 .1 0 .2-.1.2V19.3l.1.1H40.1c.1 0 .1 0 .1.1h.8c.2 0 .5.1.7.1h.4c0 .8.1.7.2.5zM46.7 20.2c-.1 0-.1 0-.2-.1v.5l-.1.1v.1s.1-.1.2-.1v-.1c.1.1.1-.1.1-.4h0zM43.5 20.1s.1 0 0 0H43.8c.1 0 .3.1.4.1h.2v-.1s-.1 0-.1-.1c-.1-.1-.2-.1-.2-.1-.1 0-.3-.1-.4-.1H43.4c-.1 0-.1 0-.1-.1-.2-.1-.4-.2-.6-.2h-.1c.1.1.1.3 0 .4v.1c-.1.3-.3.4-.4.5l.1.1.1.1h.1c.1 0 .1 0 .2.1h.2c.1 0 .2.1.3.1h.2c.1.1.2.1.3.2h.2l-.4-.1-.1-.1-.1-.1c-.1 0-.1-.1-.2-.1v-.1H43.4c.1 0 .2.1.4.1.1 0 .1 0 .2.1 0 0 .1 0 .2.1.1 0 .1.1.2.1l-.1-.1c-.1-.1-.2-.1-.2-.1l-.5-.3v-.1s.1 0 .2.1c.1 0 .2 0 .2.1 0 0 .1.1.2.1s.1.1.2.1.1.1.2.1c-.1 0-.1-.1-.2-.1l-.1-.1h-.1-.1c-.1 0-.2-.1-.2-.1-.1 0-.1-.1-.2-.1h-.1-.1c-.1-.4-.1-.4 0-.4-.1 0-.1 0 0 0-.1 0 0 0 0 0zM46.9 20.1c-.1 0-.1 0 0 0-.1.1-.1.1 0 0 0 .1 0 .1 0 0 0 .1 0 .1 0 0v.4c0 .1 0 .1.1.1v-.1-.1-.1-.1l-.1-.1c0 .1 0 0 0 0zM39.2 20.2zM43.5 7.8c-.4 0-.6.2-.8.4-.1.2-.3.3-.5.4-.2.1-.4.2-.5.3.1-.1.3-.1.5-.1s.5-.2.7-.3c.4-.3.7-.5 1-.5.1 0 .2 0 .3.1l-.1-.1c-.1-.1-.3-.2-.5-.2h-.1zM42.8 12.8c0-.2-.2-.4-.3-.5-.1-.1-.1-.2-.2-.3-.1-.2-.1-.5 0-.7v-.1c0 .1 0 .1-.1.2-.2.2-.2.4 0 .6 0 0 .1.1.1.2.1.1.3.3.5.6 0 .1 0 0 0 0zM41.1 10.3c-.1.4 0 .8.1 1 .1.2.1.7.1 1.3.1-.3.1-.6.1-.9v-1-.2c0-.2 0-.5-.1-.7-.1-.2-.1-.4-.1-.7 0-.1 0-.2.1-.3-.2.3-.3.6-.3.9.1.3.1.5.1.6z"/>
      <path d="M43.9 8.1c-.3 0-.6.2-.9.4-.3.2-.5.4-.8.4-.3 0-.5.1-.7.3-.1.1-.1.2-.1.4v.2c0 .1.1.2.1.4v.1c0-.1.1-.3.2-.4.2-.3.6-.5 1.1-.5 0 0 .6-.1.8-.4.2-.2.4-.5.6-.6 0-.2-.1-.2-.3-.3zM41.6 8.4L42 8c.2-.2.4-.4.8-.5h.1c-.3 0-.5.1-.7.3-.1.1-.2.2-.4.3l-.3.3c-.1.1-.2.1-.2.2.1-.1.2-.1.3-.2z"/>
      <path d="M41.3 9.9c.1.3.1.5.1.8v1.2c.1.3.1.6.1.8V13.4c0 .1.1.2.2.3h.5c.4.1.7.2.7.2.1.1.2.1.3.1-.2-.1-.4-.3-.6-.4-.2-.1-.3-.1-.4-.1h-.1H41.8c-.2-.1-.2-.2-.2-.4 0-.1 0-.2-.1-.3v-.1-.1c-.1-.2-.1-.3-.1-.5-.1-.3 0-.5.1-.8 0-.1 0-.1.1-.2.1-.4 0-.7-.1-1.1 0-.1-.1-.2-.1-.4v-.1-.1c0-.5.4-.8.8-1 .2-.1.3-.2.5-.4s.4-.5.9-.4h.3s-.1 0-.2-.1c-.4-.1-1 .2-1.2.4-.1.2-.5.3-.9.5l-.1.1c-.2.2-.2.6-.2.6-.1.5 0 .6 0 .8z"/>
      <path d="M41.8 9.8c0 .1-.1.1-.1.2.2-.4.8-.6 1.3-.7h.1c-.5 0-1 .2-1.3.5zM41.1 11.7c0 .2 0 .3-.1.5 0 .2-.1.4-.1.5 0 .3 0 .5.1.7l.2.2h.2c-.2-.1-.3-.3-.3-.6v-.2c.1-.4.1-.8 0-1.1zM41.6 11.4c-.1.3-.1.6 0 .9.1.1.1.2.2.3l.1.1s0 .1.1.1h.1c.1.1.1.1.2.1 0 0 .1 0 .1-.1s0-.2-.1-.3v-.1c0-.1-.1-.1-.1-.2-.1-.2-.2-.2-.2-.5 0-.1.1-.2.1-.3 0 0 0-.1.1-.1.1-.2.1-.5.1-.7v-.1c0-.1.1-.1.1-.1v-.1c0-.2.1-.3.2-.3.1-.1.2-.1.3-.1.1 0 .1.1.1.2.1 0 .2-.1.3-.3.1-.2.2-.3.3-.4l.1-.1c-.1.1-.3.1-.5.1-.1 0-.2.1-.3.1-.7.3-1 .8-1 1.1 0 .2 0 .4-.1.5-.1.1-.2.2-.2.3z"/>
      <path d="M44 9.1c-.1.1-.2.1-.2.2-.2.1-.2.2-.3.6.1-.1.2-.3.4-.3.1 0 .2-.1.2-.3 0-.1.1-.2.2-.3-.2 0-.2.1-.3.1zM44.6 8.8h-.1c-.1 0-.2 0-.2.1.1 0 .2 0 .3-.1zM44.7 8.7zM40.9 12.1c-.1.1-.1.3-.1.5v.1c0 .2 0 .5.1.6 0 .1.1.1.1.2 0 0 0 .1.1.1 0 0-.1 0-.1-.1l-.1-.1c-.1-.2-.1-.5-.1-.7.1-.2.2-.4.1-.6.2-.5.1-1 0-1v-.2-.7-.3c-.1-.3-.1-.5-.1-.6V9c0 .1-.1.2-.1.3v.9c0 .1 0 .4.1.7.2.5.3 1 .1 1.2zM44.7 8.9c0-.1 0-.1 0 0 0-.1 0-.1 0 0 0-.1 0-.1 0 0zM42.5 13s.1 0 0 0c.1 0 .1 0 0 0 .1 0 .2 0 .2.1 0-.1-.1-.1-.2-.1.1 0 .1 0 0 0zM42.3 13.9h.2c.1 0 .2.1.4.1.1 0 .2.1.3.1h.4-.5c-.1 0-.3-.1-.4-.1-.1 0-.2-.1-.3-.1-.2 0-.4-.1-.6-.1h-.2c.1 0 .2.1.4.1h.3z"/>
      <path d="M43.1 13.7c-.1 0-.1 0 0 0-.2-.2-.3-.4-.3-.5 0-.1-.1-.1-.1-.2h-.1-.1c-.1 0-.2-.1-.3-.2l-.1-.1.2.2c.1 0 .2.2.4.3 0 .3.2.4.4.5zM41.7 12.6c0 .1 0 .1 0 0 0 .1 0 .1 0 0v.1c0 .1.1.1.1.2 0 .2.2.2.3.2h.2c-.1-.1-.2-.1-.2-.2-.1 0-.3-.2-.3-.3 0 .1 0 .1-.1 0 0 .1 0 .1 0 0 0 .1 0 .1 0 0zM46.3 19.1c0 .1 0 .1 0 0 0 .1 0 .2.1.2.1.1.1.2.1.2v-.1-.1-.1c0-.4-.1-.6-.1-.6-.2.2-.2.4-.1.5zM46.2 19.6c.1.5.5.5.5.5 0-.1-.1-.2-.1-.3v-.1-.1c-.2 0-.4-.1-.4 0 0-.1 0 0 0 0zM46.5 17.5c-.3.5.1.9.1.9.2-.4-.1-.9-.1-.9zM46.9 16.8c-.4.4-.1.9-.1.9.4-.4.1-.9.1-.9zM47.4 16.1c-.4.4-.1.9-.1.9.3-.5.1-.9.1-.9zM48.1 15.5c-.5.2-.4.8-.4.8.4-.3.4-.8.4-.8zM47.6 16.8c.5-.1.7-.6.7-.6-.6.1-.7.6-.7.6zM47.3 17.7c.5-.1.7-.6.7-.6-.6 0-.7.6-.7.6zM47.5 18c-.6 0-.7.6-.7.6.6-.1.7-.6.7-.6zM46.8 19.4c.3-.2.4-.6.4-.6-.4.1-.5.4-.5.6v.2c0-.1 0-.1.1-.2-.1 0 0 0 0 0zM47.6 19.9s-.1 0 0 0c0 .1 0 .1.1.1.2 0 .4-.1.6-.4-.1-.1-.5-.1-.7.3zM47.6 20.1s-.1-.1-.2-.1h-.1-.1-.1-.1c.1.1.3.1.6 0 .1.1 0 .1 0 .1zM48.2 19.2s.5.1.7-.4c0 0-.4 0-.7.4zM48.7 18.7s.5 0 .6-.5c0-.1-.5 0-.6.5zM49 17.9s.5 0 .6-.5c0 0-.5 0-.6.5zM49.2 17.3s.5-.2.4-.7c0-.1-.4.2-.4.7zM49 16.8s-.3.4-.1.8c0 0 .3-.4.1-.8zM48.5 17.5s-.3.4-.1.8c.1 0 .4-.4.1-.8zM48.1 18.3s-.3.4-.1.8c0 0 .4-.4.1-.8zM47.7 19s-.4.3-.3.8c0 0 .5-.3.3-.8zM43.4 19.2l-.1.3.4.1c-.1-.1-.1-.3-.3-.4zM43.8 19.7l.3.1.1-.3c-.2 0-.3.1-.4.2z"/>
      <path d="M45.8 19.5v-.1h-.2-.7l-.7-.2-.5-.2-.9-.3-.1-.1-.2-.1c-.1 0-.2-.2-.3-.2v.1c-.2.2-.2.4-.2.5.2-.1.3-.1.6-.1.2 0 .5.1.7.2h.2c.1.1.2.2.2.4.1-.1.2-.2.3-.2h.2c.2 0 .5.1.7.2h.1c.1.1.2.1.2.2v-.1c.5.3.5.2.6 0z"/>
      <path d="M44.6 16.8c-.1 0-.1 0 0 0h-.1-.1c-.1 0-.1.1-.1.2l-.4 1.2-.2.5v.1l.5.2v-.2l.1-.3.4-1.3c.1-.2 0-.3-.1-.4zM42.8 21l-.6 2h.3l.6-2h-.3zM42.7 23.1h.4l.5-1.8-.3-.2-.6 2zM40.2 12.7c0-.1-.1-.4 0-.5 0 0 0 .3.1.5-.1-.1-.2-.3 0-.8.2-.4.3-.7.3-.8v-.2-.6s0 .1-.1.1c0 .1-.1.2-.1.3 0 .3 0 .4-.2.8 0 .4-.2.9 0 1.2-.1 0-.1 0 0 0-.1.1-.1 0 0 0z"/>
    </g>
    <g fill="#211915">
      <path d="M51.5 8.1c0-.2-.1-.3-.2-.5-.1-.1-.3-.2-.4-.2-.4 0-.6.3-.7.6 0 .2 0 .3.2.5.1.1.3.2.4.2.4 0 .7-.2.7-.6zM52.1 8.9s-.1-.1-.2-.1h-.1c-.3 0-.6.3-.6.6s.3.6.6.7h.2c.1 0 .1 0 .1-.1.1 0 .1-.1.1-.1.1-.1.2-.3.2-.4 0-.3-.1-.5-.3-.6zM49.7 6.2c-.4 0-.7.3-.7.6 0 .2.1.3.2.5.1.1.3.2.4.2.3 0 .6-.3.6-.6.1-.4-.1-.7-.5-.7zM48.4 5.3c-.4 0-.7.3-.7.6s.3.6.6.7c.3 0 .6-.3.6-.6.1-.4-.1-.7-.5-.7zM47.1 4.5c-.3 0-.7.3-.7.6s.3.6.6.7c.3 0 .6-.3.6-.6 0-.2-.1-.3-.2-.5 0-.1-.2-.2-.3-.2zM45.4 4c-.4 0-.7.2-.7.6 0 .4.3.7.6.7.4 0 .7-.3.7-.7 0-.3-.3-.6-.6-.6zM34.8 8.7c.1 0 .1 0 0 0 .4 0 .6-.3.6-.7 0-.3-.3-.6-.7-.6-.2 0-.3.1-.4.2-.1.1-.2.3-.2.5.1.4.4.6.7.6zM34 10c.3 0 .6-.3.6-.7 0-.4-.3-.6-.7-.6h-.1c-.1 0-.1 0-.2.1-.1 0-.1.1-.2.2s-.2.3-.1.4c0 .1 0 .2.1.2 0 .1.1.1.1.2l.1.1c.1.1.2.2.4.1 0 .1 0 0 0 0zM36 7.5c.2 0 .4-.1.5-.2.1-.1.2-.3.2-.5 0-.3-.3-.6-.7-.6-.3 0-.6.3-.6.7 0 .3.3.6.6.6zM37.3 6.5c.2 0 .4-.1.5-.2.1-.1.2-.3.2-.5 0-.4-.3-.6-.7-.6-.2 0-.3.1-.4.2-.1.1-.2.3-.2.5 0 .4.3.6.6.6zM38.7 5.8c.4 0 .7-.3.6-.7 0-.4-.3-.6-.7-.6-.4 0-.6.3-.6.7 0 .3.3.6.7.6zM40.4 5.3c.2 0 .4-.1.5-.2 0-.2.1-.3.1-.5 0-.4-.3-.6-.7-.6-.4 0-.6.3-.6.7 0 .3.3.6.7.6z"/>
      <path d="M67.6 11.5c-.6-.6-1.6-1-2.6-1-1.1 0-2 .4-2.4 1.2 0 0-.2.5 0 1.1.2.4.2 1.1 0 1.5-.1.2-.3.3-.5.2-.7-.2-1.6-.6-1.8-.7 0 0 .1-.1.3-.2.1 0 1.8-.8 1.8-2 .1-.1.7-.5 1-1.3.4-.8 1.1-1.1 1.1-1.1s.1-.1 0-.2c0-.1-.1-.1-.2-.2-.2-.1-.4-.1-.7-.1-.3 0-.5 0-.6.1 0-.2 0-1.2-.2-1.4 0 0-.3.2-.6.2s-.8.3-1 .5c0 0-.1-.1-.1-.3v-1s-.6.5-1.1.6c-.5.1-1.3.9-1.6 1.7l-.1-.7s-.7.9-.9 1.1l-.1-.2-.3.1c0-.3.2-1.3.1-1.8 0 0-.4.1-.7.2-.3.1-.8.3-1.1.5l-.3-.2c.1-.2.1-.4.1-.6.8-.4 1.4-.9 1.4-.9 1.8-.3 1.1-2 1.1-2-1-2.1-2.4-1.7-2.4-1.7l-1 1.2C48.5 0 43.2 0 43.2 0h-.9S37 0 31.6 4.1l-1.1-1.2s-1.4-.4-2.4 1.7c0 0-.8 1.8 1.1 2 0 0 .5.4 1.3.9 0 .1 0 .3.1.6l-.3.2c-.3-.2-.8-.5-1.1-.5-.3-.1-.7-.2-.7-.2-.1.5 0 1.5.1 1.8l-.3-.1v.2c-.3-.2-.9-1.1-.9-1.1l-.1.7c-.3-.8-1.1-1.6-1.6-1.7-.5-.1-1.1-.6-1.1-.6v1c-.2.2-.2.2-.3.2-.2-.2-.8-.4-1-.5-.2-.1-.6-.2-.6-.2-.2.2-.2 1.2-.2 1.4-.1 0-.3-.1-.6-.1s-.5 0-.7.1c-.2.1-.2.2-.2.3v.2s.7.3 1.1 1.1c.3.8 1 1.2 1 1.3 0 1.2 1.8 2 1.8 2 .2.1.3.2.3.2-.2.1-1.1.5-1.8.7-.2.1-.4 0-.5-.2-.2-.4-.2-1.1 0-1.5.3-.7 0-1.1 0-1.1-.4-.7-1.3-1.2-2.4-1.2-1 0-2 .4-2.6 1-1.2 1.3-.6 2.4-.6 2.4l2.2 4.3s.7.1 1.7.1c1.2 0 3-.2 4.4-1.3v.5c0 .2 0 .5.1.7 0 .1-.4.6-.9.7 0 0 .3.4.7.5-.1.2-.4 1.6-.4 2.3 0 0 .9-.5 1.3-.5 0 .2 0 .8.3.9 0 0 .5-.5.9-.6.3-.1 1.5-.6 1.7-1.1l.2.8.7-.7c.1.2.3 1.1.3 1.4 0 0 .7-.4.9-.7.1.3.7 1.4 1.3 1.7 0 0 .2-.6.4-1 .9 1.1 2.1 2.1 3.4 2.9 1.8 1 3.8 1.6 5.8 1.6h.3c3.1-.1 6-1.3 8.1-3.6.3-.3.5-.6.8-.9.2.4.4.9.4 1 .7-.3 1.2-1.4 1.3-1.7.2.3.8.6.9.7 0-.3.3-1.2.3-1.4l.7.7.2-.8c.3.5 1.4 1 1.7 1.1.4.1.8.6.9.6.2-.1.3-.7.3-.9.5 0 1.3.5 1.3.5.1-.8-.3-2.1-.4-2.3.4-.1.7-.5.7-.5-.6 0-.9-.6-.9-.7.1-.2.1-.5.1-.7v-.2-.3c1.5 1 3.2 1.3 4.4 1.3 1 0 1.7-.1 1.7-.1l2.3-4.3c.8 0 1.4-1.1.2-2.4zm-4.4 1.7s.4.5 2.5.4l-1.5 1.5s-1-.1-1.4-.4c-.1 0 .5-.6.4-1.5zm-4 .2s.5-.8 1.9-1.1c0 0-.8 0-2 .7h-.3s.4-1.3 3.2-1.3c0 0-.8 1.9-2.8 1.7zm3.7-4.1s.2-.2 1-.2c0 0-.5.5-.6.8-.2.3-.7 1.4-1.8 1.5 0 0-.6 0-.8.1 0 0 0-.2.6-.4s1.1-1.1 1.6-1.2c0 0-.3.1-.6.3 0-.2.5-.8.6-.9zm-.2-1.4s0 2.1-1.3 2.6c-1.2.5-1.5 1.1-1.5 1.1s-.1-.3.3-.9c.4-.6 1.5-.7 1.6-1.7 0 0-.4.6-.8.8-.5.2-1.1 1-1.1 1s-.1-.3.6-.9c.7-.7.7-1.5 2.2-2zm-1.9-.3s.2 1.9-.8 2.5v-.3l-.4.2s.2-.9.8-1.3c0 0-.8.4-1.4 1.7 0 0-.3.2-.4 0-.1-.4-.2-1.9 2.2-2.8zm-1.2 2.7s0 1.8-1.3 2.7c0 0-.1-.1 0-.2s.8-1.2.9-1.7c0 0-.7 1.2-1 1.3 0 0 0-1.4 1.4-2.1zM58 9.6c.5 2.5-.7 2.9-.7 2.9-.1-.7.4-2.1.4-2.1-.4.4-.6 1.7-.7 1.9-.1.2-.4.1-.4.1.1-2.4 1.4-2.8 1.4-2.8zm-2.6 0s-.1-.6 0-.8c.1-.2.5-.5 1.1-.6 0 0-.1 1.8-1.1 2.3l-.1-.4s.5-1.1.8-1.3c0 0-.4.3-.7.8zm-.3 2.6s-.3-1.2 1.6-2.1c0 0-.1 1.5-.4 2.2h-.4l-1.2 1.3s.3-.8.6-1.3c.2-.3.5-.9.7-1.2-.3.3-.7.8-.9 1.1zm-1 .2c-.2.2-.4.6-.4 1 0 0-.2-.1-.2-.4 0-.2.1-.8.4-1.2 0 0 0-.1.1-.1l.1-.1.1-.1c.2-.1.3-.3.5-.3 0 0 .2 1.2-.2 1.9 0 0 0 .1-.1.1l-.1.1-.1.1s-.1.1-.2.1c0 0-.2-.4 0-1l.1-.1zm-1.6.9s-.3-.4-.2-1.2c0-.2.1-.4.1-.5v-.1c.2-.4.5-.5.5-.5l.1.1v.2c.1.2.3.4.2.7 0 .4-.3 1.6-.5 1.5-.2-.1.1-1.6.1-1.6s-.2.4-.3 1.4zm.7-2.8l-.1-.1-.1-.1s-.1.1-.2.1c-.1-.1-.2-.1-.3-.1H52.2l-.1.1c-.1.1-.2.3-.2.5 0 .1 0 .3.1.4-.1.1-.2.3-.2.4-.5-1.4-1.2-2.6-2.3-3.7-1.3-1.3-3-2.2-4.8-2.6l-.9-2.2c2.7.2 5.2 1.4 7.1 3.3.3.3.7.7 1 1.1l.1.1.1.1c.1.1.1.2.2.2.4.5.7 1.1 1 1.7 0 .1.1.1.1.2s.1.1.1.2V10.4l-.3.1zm-.6-2.3c.7 0 1.4-.3 1.9-.5-.1.4-.4 1.1-1.1 2-.2-.5-.5-1-.8-1.5zm2.3.4s.4 1.1.1 2.3c0 0-.2-.5-.3-.5 0 0-.3.2-.3.3 0 0-.1-.8.1-1.3 0 0-.3.7-.4 1.2 0 .1-.1.2-.1.3v.1s0 .1-.1.1c0 0 0 .1-.1.1l-.1.1v-.2-.2-.2-.1-.2c.2-.5.5-1.2 1.2-1.8zm.1-5.2c.2-.6 1.5.3 1.9 1.1.4.8.3 1.7-.7 1.6l-.9-.8s.3-.2.7-.3c0 0 0-.2-.1-.2-.2-.1-1.1-.8-.9-1.4zm-.3.3c.2.8 1 1.2 1 1.2l-.7.2-.9-.7.6-.7zm-23.8 0l.6.6-.9.7-.7-.2c0 .1.8-.3 1-1.1zm-2.2.8c.4-.8 1.7-1.7 1.9-1.1.2.6-.7 1.2-.8 1.3s-.2.3-.2.3c.4.1.7.3.7.3l-.9.8c-1 .2-1.1-.8-.7-1.6zm2 2.7c-.3-.2-.7-.5-1-.8 0 0 5.1-5.6 12.7-6h.9c7.5.4 12.7 6 12.7 6-.3.4-.7.6-1 .8-.1 0-.1.1-.2.1-.3.1-.5.2-.7.3-.5.2-.9.2-1.2.3h-.3s0-.1-.1-.1c0-.1-.1-.1-.1-.1-.3-.4-.7-.8-1.1-1.2-2-2-4.7-3.2-7.6-3.4h-1.2-.3c-2.9.2-5.5 1.4-7.6 3.4-.4.4-.7.8-1.1 1.2l-.1.1s0 .1-.1.1h-.4c-.3 0-.6-.1-1-.2-.3-.1-.5-.2-.8-.3-.3-.1-.4-.2-.4-.2zm2.8 3.2h-.2-.2c-.1 0-.2 0-.3.1l-.2-.2-.1.1-.1.1-.1.1v-.2c0-.1 0-.1.1-.2 0 0 .1-.1.1-.2.1-.3.2-.5.4-.7.2-.4.4-.7.7-1.1 0-.1.1-.1.1-.2l.1-.1.1-.1c.3-.4.6-.8 1-1.1 2-2 4.6-3.2 7.4-3.4v.1l-1 2.1c-1.9.3-3.6 1.2-5 2.6-1.1 1.1-1.8 2.3-2.3 3.7 0-.1-.1-.2-.2-.4.1-.1.2-.3.2-.5-.2-.2-.3-.4-.5-.5zm-.7 3c-.2.1-.5-1-.5-1.5 0-.3.2-.7.3-.8 0 0 0-.1.1-.1.1.1.3.2.4.5v.2c.1.1.1.3.1.5.1.9-.2 1.2-.2 1.2-.1-1-.5-1.6-.5-1.6s.5 1.5.3 1.6zm-1.3-1s0 .1.1.1c.2.5 0 .9 0 .9s-.1 0-.1-.1l-.1-.1c-.1 0-.1-.1-.1-.1s0-.1-.1-.1c-.4-.6-.2-1.9-.2-1.9.2 0 .4.1.5.3l.1.1.1.1s0 .1.1.1c.3.4.4 1 .4 1.2 0 .3-.2.4-.2.4-.1-.3-.3-.7-.5-.9 0 .1 0 0 0 0zm.6-2.6c-.7-1-1-1.7-1.1-2.1.6.3 1.3.5 2 .6-.3.4-.6.9-.9 1.5zm-1.4-1.2c.7.5 1 1.3 1.1 1.9V11.2l-.1-.1s-.1-.1-.1-.2c0 0 0-.1-.1-.1 0-.1-.1-.2-.1-.3-.1-.5-.4-1.2-.4-1.2.2.5.1 1.3.1 1.3 0-.1-.3-.3-.3-.3-.1 0-.3.5-.3.5-.2-1.1.2-2.2.2-2.2zm-.5.2c.1.2 0 .8 0 .8-.2-.5-.7-.8-.7-.8.3.2.8 1.3.8 1.3l-.1.4c-1.1-.5-1.1-2.3-1.1-2.3.6.1 1 .4 1.1.6zm.3 3.4c-.2-.3-.6-.8-.8-1 .2.3.4.8.7 1.2.3.5.6 1.3.6 1.3l-1.2-1.3h-.4c-.4-.8-.5-2.4-.5-2.4 1.8 1 1.6 2.2 1.6 2.2zm-2.9-2.6s1.3.4 1.4 2.7c0 0-.3.1-.4-.1-.1-.2-.2-1.5-.6-1.9 0 0 .4 1.5.4 2.1-.1.1-1.3-.4-.8-2.8zm-.2 2.8c-.3-.1-1-1.3-1-1.3.1.5.8 1.6.9 1.7.1.1 0 .2 0 .2-1.3-.8-1.3-2.7-1.3-2.7 1.4.7 1.4 2.1 1.4 2.1zm-2.6-4.8c2.4 1 2.3 2.4 2.3 2.7-.1.3-.4 0-.4 0-.5-1.4-1.4-1.7-1.4-1.7.6.5.8 1.3.8 1.3l-.4-.2-.1.3c-1-.5-.8-2.4-.8-2.4zm.3 2.2c.7.7.6.9.6.9s-.7-.7-1.1-1c-.5-.1-.8-.7-.8-.7.1.9 1.2 1.1 1.6 1.7.4.6.3.9.3.9s-.2-.5-1.4-1.1C23.1 10 23 7.9 23 7.9c1.4.5 1.4 1.3 2.1 1.9zm-2.7.1c-.2-.3-.6-.8-.6-.8.7 0 1 .2 1 .2.1.1.6.7.6.7-.3-.2-.6-.3-.6-.3.5.2 1 1 1.6 1.2.6.2.6.4.6.4-.2-.1-.8-.1-.8-.1-1 .1-1.6-1-1.8-1.3zm1.2 1.8c2.8 0 3.2 1.3 3.2 1.3l-.4-.1c-1.2-.7-2-.7-2-.7 1.4.3 1.9 1.1 1.9 1.1-1.9.3-2.7-1.6-2.7-1.6zm-.7 3c-.5.3-1.4.4-1.4.4L20 13.6c2.1 0 2.5-.4 2.5-.4-.2.9.4 1.5.4 1.5zm-5.1-1.8c.5-3 5.4-1.9 4.8-.4-.6 1.4-3.2.7-3.4.5-.2-.1-.3.2-.3.2l2 2c-3.5.2-3.1-2.3-3.1-2.3zm5.7 4.7c-2 .5-3.5.1-3.5.1l-1.1-2.2c2 .3 3.4 0 6.3-1.4s4.4-1.5 4.4-1.5c.7.5 1.2 1.3 1.4 1.7 0 .1.1.1.1.1v.1H31c-1.9-.4-5.5 2.7-7.5 3.1zm7.7-2.7s.1 0 0 0l.1.1c.1 0 .1.1.2.2 0 0 .3.5-.1.7h-.1s-.1 0-.1.1H30.9c-1.1.2-1.8-.4-2.7-.3 0 0 1.8-1.2 2.9-1h.1c-.1.2 0 .2 0 .2zm-4 2.4c-.1-.2-1-.4-1-.4.8-.7.9-.7.9-.6-.1.4.1 1 .1 1zm-.9 0c.1-.1 1.3.4 1.1.4-.3 0-1 .4-1 .4-.3-.2-.1-.8-.1-.8zm.1 3.7c-.3 0-.7.2-.7.2 0-.5.4-1.5.4-1.5s.3.1.5.1-.1.2-.1.2c-.2.1-.3.5-.3.5s.2-.3.5-.5c.2-.2.3-.1.3-.1.1.6-.4 1.1-.6 1.1zm1.7.2c-.4.1-.9.3-.9.3-.1-1 .5-1.8.5-1.8.2.1.8-.3.9-.4.2-.1.2 0 .2 0-.1.6-1 1.3-1 1.3.7 0 1.5-1.7 1.6-1.8.1-.1.2-.1.2-.1.1 1.8-1.2 2.4-1.5 2.5zm1.7-3.4C28 20.5 25.9 19 25.9 19c.2 0 .4-.7 1.6-1 1.2-.3 1.3-.1 1.3-.1s-.2 0-.6.2c-.4.2-1.2.7-1.2.7.9 0 2.2-1 2.4-1.1.4 0 .4.1.4.1zm-.5-.3c-1.1.1-1.4-.4-1.4-.4-.2-.2 0-.6 0-.6.6-.8 1.5 0 3.1-.2h.5c.9-.4.3-1.4.3-1.4l-.4-.7-.1-.1-.1-.1h.2c.9-.3 1.8-.1 2-.1 0 .4-.1.8-.1 1.1 0 .5 0 1 .1 1.5-.9-.1-1.5 0-2 .2h-.1s-.1 0-.1.1h-.1c-.7.2-1.2.7-1.8.7zm1.4 2.5s-.4.4-.7.6c0 0-.5-2.2.8-3 0 0 0 .1-.1.3-.1.2-.4.9-.4 1.3 0 0 .3-1.3 1-1.8 0 0 .1 0 .1-.1h.1s.2 0 0 .2c0 0 0 .1-.1.1-.3.4-.6 1.3-.7 2.4zm.5 1.3c0 .2-.1 0 0 0-.1 0 0 0 0 0 0-.1 0-.4-.1-1-.1-.9.2-1.7.4-2.2V18c0-.1.1-.1.1-.2 0 0 0-.1.1-.1v-.1c.1.2.1.4.1.6v.5s.1 0 .1-.1v-.1-.9c0-.4.2-.4.2-.4.3 0 .3.9.3.9.1.5 0 .9-.1 1.3v.1c0 .1 0 .1-.1.2v.1c-.4.9-.9 1.4-1 1.5zm2.4.2s0 .1-.1.1v.1s0 .1-.1.1v.1c-.2.3-.3.6-.3.6-.7-.7-.9-1.7-.9-1.7.1-.2.2-.3.3-.5v-.1c0-.1 0-.1.1-.2v-.1c.5-1.3.2-2.6.2-2.6.5.7.6 2.7.6 2.7.3-.4-.1-2-.1-2.3-.1-.2 0-.3 0-.3 1.4 1.7.5 3.6.3 4.1zm3.5 3.3c-1.3-.7-2.4-1.7-3.3-2.9.3-.4.8-1.9.6-2.8l.3.6c.8 1.4 2 2.5 3.4 3.3.9.5 1.9.9 3 1.1l.9 2.2c-1.7-.2-3.4-.7-4.9-1.5zm6 1.5h-.6l-.9-2.1v-.4c-1.2-.2-2.3-.5-3.3-1.1-1.3-.8-2.5-1.9-3.3-3.2-.2-.3-.4-.7-.5-1v-.1-.1c-.5-1.1-.8-2.4-.8-3.6 0-.8.1-1.6.3-2.4v-.1-.1c.4-1.5 1.2-2.8 2.3-4 1.4-1.4 3.2-2.3 5.2-2.6l.1-.1.1-.1.2-.5.8-1.6h.7l.8 2 .1.1v.1l.1.1c1.9.3 3.6 1.2 5 2.6 1.1 1.1 1.9 2.5 2.3 4v.2c.2.8.3 1.6.3 2.4 0 1.3-.3 2.5-.8 3.6v.2c-.4 1-1 1.9-1.8 2.6-1.4 1.4-3.2 2.4-5.2 2.7v.4l-.2.4-.9 1.7zm7.9-3.5c-2 2-4.6 3.2-7.4 3.4l1-2.2c1.9-.4 3.6-1.3 4.9-2.7.7-.7 1.2-1.4 1.6-2.2-.1.8.3 2.3.6 2.7-.1.4-.4.7-.7 1zm1.6-.3s-.2-.3-.3-.6v-.1-.1-.1-.1s0-.1-.1-.1c-.2-.4-1.2-2.4.5-4 0 0 .1.1 0 .3-.1.3-.5 1.9-.1 2.3 0 0 .1-2 .6-2.7 0 0-.3 1.4.2 2.6v.4c.1.1.2.3.3.4-.2.1-.4 1.1-1.1 1.8zm1.9-2.2c-.1.6-.1.9-.1 1s0 .1 0 0c-.1-.1-.7-.6-1-1.3v-.1-.1-.1-.1c-.1-.4-.2-.8-.1-1.3 0 0 0-.9.3-.9 0 0 .2 0 .2.4v1l.1.1v-.2-.2-.2c0-.2 0-.4.1-.6l.1.1s0 .1.1.1c0 0 0 .1.1.1v.1s0 .1.1.1c0 .5.3 1.3.1 2.1zm1.1.3c-.3-.3-.7-.6-.7-.6 0-1-.4-2-.6-2.3 0 0 0-.1-.1-.1-.1-.2 0-.2 0-.2l.1.1c.6.5 1 1.8 1 1.8 0-.4-.3-1.1-.4-1.3-.1-.2-.1-.3-.1-.3 1.2.7.8 2.9.8 2.9zm-1.2-3.9c0-.1 0-.1 0 0-.1 0-.1 0-.1-.1h-.1-.1c-.5-.2-1.2-.3-2-.2.1-.5.1-1 .1-1.5 0-.4 0-.8-.1-1.1.3-.1 1.2-.2 2.1.1h.2l-.1.1-.4.7s-.5 1 .4 1.4h.5c1.6.3 2.5-.6 3.1.2 0 0 .1.4 0 .6 0 0-.3.5-1.4.4-.8.2-1.3-.3-2.1-.6zm.1-1.9h.1c1.1-.3 2.9 1 2.9 1-.8-.2-1.6.4-2.7.3h-.2-.1-.1-.1c-.5-.3-.2-.7-.2-.7.1-.1.1-.2.2-.2 0-.3 0-.3.2-.4-.1.1-.1.1 0 0zm1.3 3s0-.2.2 0c.3.1 1.6 1.1 2.4 1.1 0 0-.8-.5-1.2-.7-.3-.2-.5-.2-.5-.2s.1-.3 1.3.1c1.2.3 1.4 1 1.6 1 0 0-2 1.4-3.8-1.3zm2.7-1.5c-.1-.1.1-.1.9.6 0 0-.8.2-1 .4 0 0 .2-.6.1-1zm.8 1s.2.5-.1.7c0 0-.7-.4-1-.4-.3.1.9-.3 1.1-.3zm-1 4.3s-.5-.2-.8-.3c-.3-.1-1.6-.7-1.5-2.4 0 0 .1-.1.2.1.1.1.9 1.8 1.6 1.8 0 0-.9-.7-1-1.3 0 0 0-.1.2 0s.8.5.9.4c-.1-.1.6.6.4 1.7zm1.6-.4s-.4-.2-.7-.2c-.3 0-.7-.5-.7-.9 0 0 .1-.1.4.1l.5.5s-.1-.4-.3-.5c0 0-.3-.2-.1-.2.2 0 .5-.1.5-.1s.4.8.4 1.3zm5.7-3.5s-1.4.4-3.5-.1c-2-.5-5.6-3.5-7.5-3.2h-.1v-.1s0-.1.1-.1c.2-.4.7-1.1 1.4-1.7 0 0 1.5.2 4.4 1.5 2.9 1.4 4.2 1.7 6.3 1.4l-1.1 2.3zm-.9-2.5l2-2s-.1-.3-.3-.2c-.2.1-2.8.8-3.4-.5-.6-1.4 4.3-2.5 4.8.4 0 0 .4 2.5-3.1 2.3z"/>
      <path d="M51.2 18c0-.1 0-.1 0 0 0-.1 0-.2.1-.2.3-.9.5-1.9.5-3 0-.6-.1-1.2-.2-1.8v-.1-.1c-.4-1.6-1.2-3.1-2.4-4.3-1.7-1.7-4-2.6-6.4-2.6-2.4 0-4.7.9-6.4 2.6-1.2 1.2-2 2.7-2.4 4.3v.2c-.1.6-.2 1.2-.2 1.8 0 1 .2 2 .5 3v.2c.2.5.4 1 .7 1.5.8 1.3 1.9 2.4 3.2 3.1 1.4.8 2.9 1.2 4.5 1.2h.2c2.4-.1 4.6-1 6.2-2.7 1-.9 1.7-2 2.1-3.1zM43 23.6h-.2c-1.5 0-3.1-.4-4.4-1.2-1.3-.7-2.4-1.8-3.2-3.1-.4-.6-.7-1.3-.9-2v-.1-.1c-.2-.8-.3-1.6-.3-2.4 0-.4 0-.9.1-1.3v-.1-.1c.3-1.8 1.2-3.4 2.5-4.7C38.2 6.9 40.4 6 42.8 6c2.4 0 4.6.9 6.2 2.6 1.3 1.3 2.2 3 2.5 4.7v.2c.1.4.1.8.1 1.3 0 .8-.1 1.6-.3 2.4V17.5c-.4 1.3-1.1 2.5-2.1 3.5-1.7 1.6-3.9 2.6-6.2 2.6z"/>
      <path d="M51.4 14.8c0-2.3-.9-4.4-2.5-6.1-1.6-1.6-3.8-2.5-6.1-2.5s-4.4.9-6 2.5c-1.6 1.6-2.5 3.8-2.5 6 0 .4 0 .7.1 1.1.1 1.2.5 2.4 1.2 3.4.8 1.2 1.8 2.3 3.1 3 1.3.7 2.8 1.1 4.2 1.1h.2c2.2-.1 4.3-1 5.9-2.6 1.3-1.4 2.1-3.1 2.4-5-.1-.2 0-.6 0-.9zm-1.3-1.2l.1.1.2.4h-.1c-.9-.4-1.4-1.1-1.5-1.5-.1-.5-.3-.8-.3-.8.3.1.5.2.7.3.1.1.2.1.3.2h.1l.6.6.1.1c.3.4.4.7.4.9 0 0 0 .1 0 0 0 0 0-.1-.1-.1-.1-.2-.4-.5-.6-.6-.1 0-.1-.1-.2-.1-.3-.2-.6-.6-.6-.6.3.4.7.8.9 1.1zm.8 1.3c-.2 0-.3-.7-.3-.7.4.3.3.7.3.7zm-.2-2.2c-.2-.4-.7-.7-.7-.7.8.8.9 1.5.9 1.8v.1c0-.2-.2-.6-.5-.9 0 0 0-.1-.1-.1l-.3-.3-.3-.3v-.1c-.1-.2-.1-.3-.1-.3.9-.2 1.1.8 1.1.8zm-1.3-2.4c.5.1.4.4.4.4-.1 0-.2 0-.2-.1-.1-.1-.1-.2-.1-.2-.1 0-.1 0-.1-.1 0 .1 0 .1 0 0 0 .1 0 0 0 0zm-.1.2c.1.1.1.2.1.2-.2.2-.6.2-.9.1-.3 0-.5-.1-.5-.1l.6.3c.6.1 1.1-.2 1.1.1 0 .3-.4.4-.4.4h-.4c-1.1-.2-1.5-1.4-1.5-1.4.2.2.5.2.7.3h1c0 .1.1.1.2.1-.1 0-.1 0 0 0-.1 0-.1 0 0 0zm-.1-.6c-.5-.2-.8-.1-.8-.1.9.1.7.3.7.3-.2.1-.4 0-.6 0h-.1-.1c-.2-.1-.4-.2-.5-.3-.3-.2-.4-.4-.4-.4H48.6c.5.2.6.5.6.5zm-.9-1c.1.1.1.2.1.2-.3-.2-1 0-1 0 .6-.1 1.1.2 1.1.2H47.6h-.1-.1c-.6-.1-.9-.5-.9-.5.1 0 .3 0 .5-.1h.9c.1.1.3.1.4.2zm-.7-.8l-.6-.2c-.4 0-.5-.2-.5-.2s-.2.3.5.4c.5.1.8.3 1 .4l.1.1c-.4-.2-.5-.1-.9-.2h-.1-.1c-.3-.1-.6-.4-.8-.7-.1-.1-.2-.3-.2-.3h.2c.7.1 1.4.7 1.4.7zm-11.2 2v.5c0 .3-.2.7-.6.9.1-.2.2-.6.2-.7 0 0-.3.3-.5.8 0 0 .2-.9.9-1.5zm.2 0c.1-.2.6-.4.6-.4-.1.9-.3 1.4-.6 1.7-.3.3-.5.4-.7.4h.1c.3-.2.5-.4.7-.6.3-.4.3-.8.3-.8-.1.3-.2.5-.3.7l-.3.3-.1.1c-.1.1-.2.1-.2.2.3-.2.5-.6.6-.9v-.2-.2c-.1-.2-.1-.3-.1-.3zm.7 5.6l-.4.4V16s0-.1.1-.1c.1-.1.1-.2.2-.4.1-.1.1-.3.1-.4V15v-.1l.2-.6s-.2.6-.2 1c.2.2.1.3 0 .4zm.2.3c0 .5-.6.4-.6.4l.2-.1.4-.3zm-.3-1.1s0 .1 0 0v.1c0 .1 0 .2-.1.4-.1.1-.1.3-.2.4l-.1.1c-.1.1-.2.1-.3.2 0 0 0-.1.1-.1 0 0 0-.1.1-.1 0-.1.1-.2.1-.3.1-.2.1-.3.1-.5V15c0-.1 0-.1.1-.2v-.1c.1-.3.3-.6.3-.6s-.1.6-.1.8zm-.4-.1s0 .1 0 0v.3c0 .2-.1.3-.1.5 0 .1-.1.2-.1.3 0 0 0 .1-.1.1l-.1.1s.3-.7.3-1.1c0 0-.2.2-.3.7 0 0 0-.2.1-.5v-.1l.3-.6s0-.1.1-.1l.1-.1c-.2-.1-.2.2-.2.5zm-.6.1c0 .1 0 .1 0 0 0 .1 0 0 0 0v-.2c0-.1.1-.3.2-.4v-.1l.2-.2h.1l-.1.1v.2s0 .1-.1.1c-.1.1-.2.4-.3.5zm.6-1.4c0 .1-.1.2-.1.3v.2l-.2.2h-.1-.1-.1s.3-.5.5-.9c0-.1.1-.2.1-.3v-.1.1c.1.2 0 .3 0 .5zm-.1-.9c-.1.4-.3.9-.6 1.3 0 0 .2-.5.3-.9l-.2.4v-.3-.1c0-.1.1-.2.1-.3v-.1c.1-.2.2-.4.3-.5.1-.2.2-.3.2-.3s0 .3-.1.8zm-1-.8c-.1 0-.1 0 0 0-.1 0-.1 0 0 0-.1 0-.1 0 0 0-.1 0 0 0 0 0zm.6.2s0 .2-.1.5v.1c0 .1-.1.2-.1.3v.1c-.1.2-.2.3-.3.4 0 0 .1-.6.3-.9 0 0-.1 0-.4.2-.2-.1 0-.7.6-.7zm-1.4 5.5c0-.1 0-.1-.1-.2v-.1c-.1-.1-.1-.3-.1-.4h.1c.8-.3 1.8-.4 2.7-.2h.2c-.1.2-.2.5-.3.6-.8 0-1.7 0-2.5.3.1 0 0 0 0 0zm.2.6c0-.1-.1-.1-.1-.2s0-.2-.1-.2h.1c.3-.1.5-.2.8-.2l-.7.6zm.1.3s0-.1-.1-.1l.1-.1.8-.8h.2l-1 1zm.2.2c0-.1 0-.1-.1-.1l.1-.1 1.2-1h.2l-1.4 1.2zm.1.3l-.1-.1.1-.1 1.4-1.3h.2l-1.6 1.5zm.1.3c0-.1 0-.1-.1-.1l.1-.1 1.4-1.2.1-.1c0 .1-.1.2-.1.3h-.1l-1.3 1.2zm.2.2l-.1-.1.1-.1 1.1-1 .1-.1v.2l-.1.1-1.1 1zm.2.2l-.1-.1.1-.1.8-.7.1-.1V18.9l-.1.1-.8.6zm.1.2l-.1-.1.1-.1.6-.5.1-.1v.2h-.1l-.6.6zm.2.3s0-.1 0 0l-.1-.1.1-.1.3-.3.1-.1v.2l-.1.1-.3.3zm.2.2l-.1-.1.1-.1.3-.3.1-.1h.1l-.5.6zm.2.2l-.1-.1.1.1v-.2l.4-.4.1-.1h.1l-.1.2-.5.5zm.2.2c-.1 0-.1-.1-.1-.1h.1l.5-.5.1-.1h.2l-.1.1-.7.6zm.2.2s-.1 0-.1-.1l.1-.1.7-.6.1-.1h.2-.1l-.9.9zm.2.2s-.1 0-.1-.1l.1.1v-.2l.9-.8h.2l-1.1 1zm.2.2c-.1 0-.1 0-.1-.1l.1-.1 1.1-1H38.9l-.1.1-1.3 1.1zm.3.2c-.1 0-.1 0-.1-.1l.1-.1 1.2-1.1.1-.1h.2l-.1.1-.2.1-1.2 1.2zm.2.1c-.1 0-.1 0-.1-.1h.1l1.2-1.1.1-.1h.2l-.1.1-1.4 1.2zm1.2-1.4zm-1 1.6l-.1-.1.1-.1 1.3-1.2.1-.1h.1l-.1.1-1.4 1.4zm.3.1h-.2l.1-.1 1.4-1.3.1-.1h.2l-.1.2-1.5 1.3zm.2.2h-.1.1l1.5-1.3.1-.1h.1l-.1.1-1.6 1.3zm.3.1c-.1 0-.1 0-.1-.1l.1-.1 1.5-1.3.1-.1s.1 0 .1.1l-.1.1-1.6 1.4zm.3.2c-.1 0-.1 0-.2-.1l.1-.1 1.5-1.3.1-.1.1.1-.1.1-1.5 1.4zm.3.1h-.2l.1-.1 1.5-1.3V21v.2l-1.4 1.3zm.3.1h-.2l.1-.1 1.3-1.2v.2l-1.2 1.1zm1.1.3v0zm.1-.2l-.2.2H40.6l.1-.1.4-.4v.3zm0-.5l-.6.5-.1.1h-.2l.1-.1.7-.7c.1.1.1.2.1.2zm-.9.5c-.1.1-.2 0-.2 0l.1-.1 1-.9v.2l-.9.8zm1.7.4s-.1 0 0 0h-.7V23v-.1c.1-.7.1-1.4-.1-2.1v-.1h.7c0 .1 0 .2.1.4v.4c.1.5.1 1 0 1.5-.1 0-.1.1 0 .1-.1 0-.1 0 0 0zm-.1-2.7h-.2c-.2 0-.5 0-.7-.1h-.1-.7s-.1 0-.1-.1h-1.2-.1-.8-.5-.1-.2-.1s-.1 0-.1-.1v-.2-.1-.1-.1-.2-.1-.2c0-.1 0-.2.1-.2 0-.1 0-.2.1-.2v-.2-.1c.1-.1.1-.2.1-.2l.1-.1c0-.1.1-.1.1-.2.1-.1.1-.3.2-.4 0 0 0-.1.1-.1v-.1c.1-.1.1-.3.2-.4.3 0 1.2.2 1.8.8-.1.2-.2.3-.3.5l-.1.1c-.1.2-.2.3-.4.5 0 0 0 .1-.1.1v.1l-.2.2c-.6.6-.2.3-.2.3h1.5c.2 0 .3.1.5.1.1 0 .2.1.3.1h.1c.1 0 .2.1.2.1.5.1.9.3 1.1.4.1.1.1.3.1.4V20.9c-.1.2-.3.3-.3.3.1-.8 0-.8-.1-.8zM39 13.7l.1-.1v-.1h.1c.2-.1.7-.1 1.1.3.8.7.3.9-.1 2.6 0 0-.1.2-.3.4-.7-.6-1.5-.8-1.8-.8.1-.2.2-.4.2-.5 0-.1.3-.7.3-.7l.2-.4s.1-.2.2-.3v-.2-.2zm1.7-2.9v.2c0 .2-.1.4-.3.8-.2.4-.1.7 0 .8-.2-.2-.1-.5-.1-.5-.1.2-.1.4 0 .5 0 0 0 .1-.1 0v-.1c0-.2.1-.7.3-1.1.2-.4.1-.5.2-.8 0-.1 0-.2.1-.3 0-.1.1-.1.1-.1-.3.4-.3.4-.2.6zm-.3 2.1c.2 0 .3.1.4.3 0 .1 0 .1.1.2.1.2.2.3.3.3h.2s.1 0 .1.1c.1.1.5.7 1 1.9 0 0 .5.1 1.7.2h.2c.2 0 .4 0 .5-.2.1-.1.1-.2.1-.4 0-.1 0-.2-.1-.3l.4.5.1.1c.3.4.1.9-.1 1.2-.1.3-.3.4-.3.4l-.4.9-.1.1.3-1v-.3c0-.1-.1-.2-.2-.2-.2 0-.4.1-.4.3l-.2.5c-.1.1-.4.3-.7.5-.1.2-.3.2-.4.2-.2-.1-.4-.1-.7-.2h-.3c-.1 0-.2 0-.3-.1h-.1c.1.1.3.2.4.3-.2.3-.2.5-.2.6-.3-.1-.8-.6-1.1-1-.3-.4.1-.7.1-.7.4.2.9 0 .9 0-1.2-.5-.9-1.8-.9-1.8.6-1.7-.8-2-1.2-2.1l.2-.1c.1 0 .1-.1.2-.1h.1c.1-.1.2-.1.4-.1zm.4-3.1v-.4c0-.2.1-.2.1-.3v.3c0 .2 0 .4.1.6v1.2s.1.5 0 1c0 .1-.1.3-.1.5 0 .3 0 .5.1.7l.1.1s.1 0 .1.1l-.1-.1s-.1-.1-.1-.2c-.1-.2-.1-.4-.1-.6v-.1c0-.2 0-.3.1-.5.1-.3 0-.7-.1-1.1-.1-.3-.1-.6-.1-.7v-.1-.4zm.4.1c.1.3.1.5.1.7v1.2c0 .2 0 .6-.1.9 0-.6 0-1.1-.1-1.3-.1-.2-.1-.6-.1-1v-.6c0-.3 0-.6.1-.8 0 .1-.1.2-.1.3.1.1.2.4.2.6zm.2-1.1l.2-.2c.3-.2.8-.3.9-.5.2-.2.8-.5 1.2-.4.1 0 .1 0 .2.1h-.3c-.4 0-.6.2-.9.4-.1.1-.3.3-.5.4-.4.2-.9.5-.8 1v.2c0 .1.1.3.1.4.1.3.2.6.1 1.1 0 .1 0 .1-.1.2-.1.2-.2.5-.1.8 0 .2 0 .3.1.5v.2c0 .1.1.2.1.3 0 .2 0 .3.2.4h.4c.1 0 .2 0 .4.1.1.1.3.3.6.4-.1 0-.3-.1-.3-.1s-.3-.1-.7-.2h-.4-.1c-.1-.1-.2-.2-.2-.3v-.4-.2-.1c0-.2 0-.5-.1-.8v-.5-.7c0-.3 0-.5-.1-.8 0-.2-.1-.3-.1-.5s0-.6.2-.8zm-.1-.2l.2-.2.3-.3c.1-.1.2-.2.4-.3.2-.1.3-.2.5-.2h.1c-.4.1-.6.3-.8.5-.1.1-.3.2-.4.4-.1 0-.2 0-.3.1zm3.4.3c0-.1 0-.1 0 0 0-.1 0-.1 0 0 0-.1 0-.1 0 0zm0-.2zm0 .2s.1 0 0 0c.1 0 .1 0 0 0 .1 0 .1 0 0 0 .2.2.3.5.3.5v1s.1.2.2.3c0 .1.1.2.1.2v.1l-.1.1-.1-.1c-.1 0-.2 0-.2.1h.1c-.2 0-.2-.1-.2-.1 0 .1.1.1.2.2h.1v.1c-.1 0-.1 0-.2.1s-.2.1-.2.1.1 0 .1.1l.1.1s0 .1.1.2V12.2c0 .1-.5.1-.9 0-.3-.1-.7-.2-.8-.4 0 0 .1.2.1.3 0 .1.2.3.2.3s.1-.2.2-.2h-.1-.1c-.1.1-.1.2-.1.3v.4c0 .1.1.3.1.4 0-.1-.1-.2-.1-.3l.2.2.4.7s.1.1.1.2c0 0-.1-.1-.2-.1h-.4-.1c-.5-.2-.6-.6-.7-1-.1-.3-.2-.4-.3-.6l-.2-.2c-.1-.1-.1-.2-.1-.3v-.3c0-.3 0-.5.2-.6.1.2.2.2.2.2h.1c.1 0 .1 0 .2-.1V11v-.1.1h-.1c-.1 0-.1-.1-.3-.2v-.1c0 .1.1.1.1.1v-.2l-.1-.1v-.2h.2l-.1.1c-.1.1 0 .2 0 .2l.1-.1c.1 0 .2-.2.1-.3 0 0 0-.1-.1-.1s-.2 0-.2.1l.1-.1H42.9l.1.2v.1l.2.2c.1-.1.2-.3.3-.4.1-.1.2-.3.4-.4.1 0 .2-.2.2-.3.1-.1.1-.2.2-.3.2-.3.3-.3.4-.3zm.1-.1zm.2 2.7c0 .1 0 .1 0 0l-.1.1-.1-.1s.1-.1.2 0zm0-.1h-.2c.1-.1.2-.1.2 0 0-.1 0-.1 0 0 0-.1.1-.1 0 0 .1-.1.1-.1 0 0 .1 0 .1 0 0 0 .1 0 .1 0 0 0 .1 0 0 0 0 0zm-.6 3c.2.2.4.5.5.9 0 .1 0 .3-.1.3-.1.1-.1.1-.2.1-.2-.1-.4-.4-.4-.3v.3h-.9c-.4-.1-.5-.1-.8-.7-.3-.5-.6-1-.8-1.2.1 0 .2.1.3.1h.4c.1 0 .2.1.4.1.1 0 .2.1.4.1h.2c.1 0 .2 0 .3-.1h.1c.1 0 .1.1.2.1.1.2.2.3.4.3 0 .1 0 .1 0 0 .1.1.1.1 0 0 0 .1 0 0 0 0zm-2.7-.6h.2c.2 0 .4 0 .6.1.1 0 .2 0 .3.1h1-.5c-.1 0-.2-.1-.3-.1-.1 0-.2-.1-.4-.1h-.9zm2-4.9c-.2.2-.8.4-.8.4-.5.1-.9.3-1.1.5-.1.1-.1.2-.2.4v-.1c0-.1-.1-.2-.1-.4v-.2c0-.2 0-.3.1-.4.1-.1.4-.2.7-.2.2 0 .5-.2.8-.4.3-.2.6-.4.8-.4.2 0 .2.1.3.1-.1.1-.3.5-.5.7zm.5.1c-.1.1-.2.2-.2.3-.1.1-.1.2-.2.3-.2 0-.3.2-.4.3.1-.3.1-.5.3-.6.1 0 .1-.1.2-.2.2 0 .2-.1.3-.1zm-1 .3h-.1c-.5.1-1.1.3-1.3.7 0-.1 0-.1.1-.2.2-.3.7-.5 1.3-.5zm-1.5 1.3c.1-.3.3-.8 1-1.1.1 0 .2-.1.3-.1.2 0 .4-.1.5-.1l-.1.1c-.1.1-.2.3-.3.4-.1.2-.2.3-.3.3 0-.1 0-.2-.1-.2s-.2 0-.3.1c-.1.1-.1.2-.2.3v.1l-.1.1v.1c0 .2 0 .5-.1.7 0 .1 0 .1-.1.1-.1.1-.1.2-.1.3 0 .2.1.3.2.5 0 .1.1.1.1.2v.1c.1.1.1.2.1.3l-.1.1c-.1 0-.1 0-.2-.1h-.1l-.1-.1-.1-.1c-.1-.1-.1-.2-.2-.3-.2-.4-.1-.6 0-.9 0-.1 0-.2.1-.2.2-.2.3-.4.2-.6zm1.4-.2zm-.8 1.7c-.1-.1-.1-.1-.1-.2-.2-.2-.1-.4 0-.6 0-.1 0-.1.1-.2v.1c-.1.2-.1.4 0 .7.1.1.1.2.2.3.1.1.3.3.3.5-.2-.2-.4-.4-.5-.6zm.4 1l-.1-.1h-.1.1s.1 0 .1.1zm-1-.5c0 .1 0 .1 0 0 0 .1 0 .1 0 0l.1.1c.1.1.2.3.3.3.1 0 .1.1.2.2h-.1-.1c-.1 0-.2 0-.3-.2 0-.1-.1-.2-.1-.2.1-.1 0-.1 0-.2 0 .1 0 .1 0 0 0 .1 0 .1 0 0zm.5.4c-.1 0-.1-.1-.2-.2l.1.1c.1.1.2.1.3.2h.2c.1 0 .1.1.1.2s.1.3.3.5c-.2-.1-.4-.3-.5-.4-.1-.2-.2-.4-.3-.4zm2.1-4.1c.1-.1.2-.1.3-.1h.1c-.2.1-.3.1-.4.1zm-.1-.8H43.9c-.3 0-.6.2-.9.4-.3.2-.5.3-.7.3-.2 0-.4.1-.5.1.1-.1.3-.2.5-.3.2-.1.4-.3.5-.4.2-.2.4-.4.8-.4h.1c.2 0 .3.1.5.2-.1 0 0 0 0 .1.1 0 .1 0 0 0zm-2.7 5.5h-.2c-.1 0-.2-.1-.2-.2-.1-.2-.2-.4-.1-.7 0-.2.1-.4.1-.5 0-.1.1-.3.1-.5v1.2c-.1.3 0 .6.3.7zm4.5 5.9h-.1v-.3s-.2.1-.4.1h-.4c-.1-.2-.1-.5 0-.9.1.3.4.7.6.7.1 0 .2.1.4.1v.1H46v.2zm-1.6-1l-.1.3v.2l-.5-.2v-.1l.2-.5.4-1.2c0-.1.1-.1.1-.2h.1c.1.1.2.2.2.4l-.4 1.3zm-1.8 4.6c-.1 0-.1 0 0 0h-.4l.6-2 .3.1-.5 1.9zm.5 0h-.4l.6-1.9.3.2-.5 1.7zm.3-3c0 .1 0 .1 0 0 0 .1.1.1 0 0 .1.1.1.1 0 0l.1.1h.1c.1 0 .1.1.2.1s.2.1.2.1h.2s.1 0 .1.1c.1 0 .1.1.2.1 0 0-.1 0-.2-.1 0 0-.1-.1-.2-.1s-.1-.1-.2-.1c0 0-.1 0-.2-.1-.1 0-.1 0-.2-.1v.1l.5.3s.1 0 .2.1l.1.1s-.1 0-.2-.1c-.1 0-.1-.1-.2-.1s-.1 0-.2-.1c-.1 0-.3-.1-.4-.1h-.1-.1-.1v.1c.1 0 .1.1.2.1l.1.1.1.1.2.2h-.1-.1c-.1 0-.2-.1-.3-.2H43h-.1c-.1 0-.2 0-.3-.1h-.1-.1c-.1 0-.1 0-.2-.1h-.1l-.1-.1-.1-.1c.1 0 .3-.2.4-.5v-.1-.4h.1c.2 0 .5.1.6.2 0 0 .1 0 .1.1H43.4c.2.1.4.1.4.1.1 0 .1.1.2.1 0 0 .1 0 .1.1v.1H44h-.1c-.1 0-.4-.1-.4-.1h-.1-.2l.2.2c.1 0 0 0 0 0zm-.1-.6l.1-.3c.2.1.3.3.3.4l-.4-.1zm.9.3l-.3-.1c.1-.1.2-.2.4-.2l-.1.3zm0 .1zm.1-.3c.1-.1.1-.1 0 0 .1-.1.1-.1 0 0zm1.3.4l-.3-.3h-.1c-.2-.1-.5-.2-.7-.2h-.1-.1c-.2 0-.3.1-.3.2 0-.1-.1-.2-.2-.4h-.1-.1c-.2-.1-.5-.2-.7-.2-.2 0-.4 0-.6.1 0-.1 0-.3.1-.6v-.1c.1.1.2.2.3.2l.2.1.1.1.9.3.5.2.7.2H45.9v.1c-.2 0-.2.1-.3.3 0-.1 0 0 0 0zm.3.8c0 .1 0 .1 0 0 0 .1 0 .1 0 0h-.1.1s.1 0 0 0l.1-.1v-.1.1l-.1.1c.1 0 .1 0 0 0zm.4 0s0 .1 0 0c-.1.1-.1.1 0 0l-.1.1H46l.1-.1h.2c-.1 0-.1 0 0 0v-.2.2zm0-.2s0-.1 0 0c-.1-.1-.1-.1-.1-.2v-.1h-.1-.1-.1v-.1c.1-.1.1-.2.2-.4h.1c0 .3.2.4.3.5V20.6c-.1-.2-.1-.1-.2 0zm2-4.3s-.2.5-.7.6c0-.1.1-.6.7-.6zm-.2-.8s0 .5-.4.8c0 0-.1-.6.4-.8zm-.2 1.6s-.2.5-.7.6c.1 0 .2-.6.7-.6zm-.6-.1s-.3-.5.1-.9c0 0 .2.4-.1.9zm.2 1s-.2.5-.7.6c.1 0 .2-.6.7-.6zm-.7-.3s-.3-.5.1-.9c0 0 .3.5-.1.9zm.3 1.1s0 .4-.4.6h-.1-.1v-.1-.1c.2-.1.3-.3.6-.4zm.1.5v.2l-.1-.1s.1 0 .1-.1zm-.6-.9s-.4-.4-.1-.9c0 0 .3.5.1.9zm-.1.9v.2s-.1-.1-.1-.2v-.1-.1c0-.1 0-.3.1-.5-.1 0 .1.3 0 .7zm0 .4l.1.1c0 .1.1.2.1.3 0 0-.4 0-.5-.4v-.1c0-.1.2 0 .3.1zm.3.6c-.1.1-.1.3-.1.4v.1c-.1 0-.1 0-.2.1v-.1l.1-.1v-.2-.1-.1-.1c.1 0 .1.1.2.1-.1-.1-.1-.1 0 0-.1-.1-.1-.1 0 0-.1-.1 0-.1 0 0zm0-.5c0-.1-.1-.1-.1-.2 0 0 .1 0 .1-.1.1.1.2.1.3.2h-.2c0 .1 0 .2-.1.1.1.1 0 .1 0 0 0 .1 0 .1 0 0 0 .1 0 .1 0 0zm.2.6V20.7l-.1-.1v-.2-.1l.1.1s.1 0 .1.1c-.1-.2-.1-.2-.1-.1zm.1-.3c-.1 0-.1 0 0 0L47 20h.4c.1 0 .1.1.2.1h.1c-.3.2-.5.1-.6 0zm.6-1.1c.2.5-.3.8-.3.8-.1-.5.3-.8.3-.8zm0 .9h-.1v-.1c.2-.4.7-.3.7-.3-.2.4-.5.4-.6.4zm.4-1.6c.3.5-.1.8-.1.8-.2-.4.1-.8.1-.8zm.1.9c.2-.4.7-.4.7-.4-.2.5-.7.4-.7.4zm.3-1.7c.3.5-.1.8-.1.8-.2-.4.1-.8.1-.8zm1.1-.1c-.1.6-.6.5-.6.5.1-.5.6-.5.6-.5zm-.4-.1c0-.5.4-.7.4-.7.1.5-.4.7-.4.7zm-.3.3c-.2-.4.1-.8.1-.8.2.4-.1.8-.1.8zm.4.5c-.1.5-.6.5-.6.5.1-.4.6-.5.6-.5zm1.7-1.9c-.3 1.5-.9 2.9-1.9 4-.2-.1-.8-.3-.8-.3.1-.1.1-.2.2-.3v-.1c.2 0 .5-.2.7-.6v-.2c.1-.1.3-.3.4-.6v-.2c.1-.1.3-.3.3-.6v-.2c.1-.1.2-.4.1-.7 0-.1-.1-.2-.1-.2h-.2s-.2.1-.3.3c0-.1-.1-.1-.2-.1s-.2 0-.2.1c0 0-.2.3-.2.6-.1 0-.1 0-.2.1 0 0-.2.3-.2.7-.1 0-.2 0-.2.1 0 0-.2.3-.2.6 0 0-.1 0-.1.1l-.2.2v-.2-.1c.3-.2.4-.5.4-.6v-.2c.3-.2.5-.6.5-.6V17c.3-.2.4-.5.4-.6v-.2c0-.1-.1-.1-.2-.1.1-.3.1-.5.1-.5 0-.1-.1-.2-.1-.2h-.2c-.3.1-.4.4-.5.6-.1 0-.2 0-.2.1-.9 0-.9.2-.9.4-.1 0-.2 0-.2.1-.2.2-.3.5-.3.7-.1 0-.1.1-.2.1-.3.4-.2.8-.1 1 0 0-.1 0-.1.1-.1.2-.2.3-.2.5-.1 0-.2-.1-.2-.1s-.2-.1-.4-.5c0-.1-.1-.3-.2-.4l-.1-.1s0-.1.1-.2c.2-.3.5-1 .6-1.5.1-.5-.4-1-.6-1.3-.1-.1-.1-.2-.2-.3 0-.2-.1-.6-.2-.8-.1-.2-.3-.4-.4-.5l-.3-.2h-.1l-.1-.1v-.2-.1h.1c.1 0 .1-.1.2 0 .6.1 1 .1 1.1-.2 0 0 .1-.2 0-.3v-.1c.1-.1.1-.1.1-.2v-.1s.1-.1 0-.2c.1 0 .2-.1.3-.2 0 0 .1-.2 0-.3 0 0-.1-.1-.1-.2s-.2-.3-.2-.3c.1 0 .1-.1.1-.2v-.2-.3c0-.1 0-.4-.2-.6v-.1V9c-.1-.2-.1-.2-.2-.2v-.1s-.1-.1-.1-.2-.1-.2-.3-.2c-.4-.3-.8-.5-1.2-.5-.7 0-1.3.5-1.7.9-.1.1-.2.2-.3.2-.1.1-.2.2-.3.4-.1.1-.2.2-.3.5v.2c0 .1-.2.4-.2.5-.1.3-.1.9-.3 1.2-.2.3-.4 1-.5 1.3 0 .2-.1.3-.1.4-.3.2-.5.4-.5.4-.1 0-.2.1-.1.1v.1l-.1.4c-.2.4-.4.8-.5 1.1-.1.2-.3.6-.4 1l-.4-.4c.1-.2.2-.3.2-.5 0-.4.2-.9.2-.9 0-.1 0-.2-.1-.2h-.2c0-.1 0-.2-.1-.2s-.2 0-.2.1c0 0-.1.1-.2.3v-.2c0-.1 0-.1-.1-.2v-.2c.2-.3.2-.7.3-.9 0-.1-.1-.2-.2-.2h-.1c.1-.5.1-.8.1-.9 0-.1-.1-.2-.1-.2h-.1c.4-.4.6-1 .6-1.8 0-.1 0-.1-.1-.2-.1 0-.1-.1-.2 0-.1 0-.5.2-.6.4 0-.3.1-.5.1-.6 1.8-2.1 4.7-3.2 7.6-2.7.6.1 1.2.3 1.8.5-.1 0-.1 0-.2.1v.2s.4.8 1 1.1h-.3c-.1 0-.2 0-.2.1-.1.1-.1.2 0 .3 0 0 .3.4.9.6 0 .1 0 .1.1.2l.3.3h-.2c-.1.1-.1.2-.1.2s.3.9 1.2 1.3c0 .1-.1.2 0 .2 0 0 .1.3.2.7.1.6.7 1.4 1.7 1.7l.1.1c0 .3.2.6.4.7.1.1.2.3.2.4-.4 0-.4.3-.4.5zM35 20.9c-.3 0-.6.3-.7.6 0 .3.3.6.6.7.3 0 .6-.3.6-.6.1-.4-.2-.7-.5-.7zM36.1 22.2c-.4 0-.6.2-.7.6 0 .3.2.6.6.7.3 0 .6-.3.6-.6 0-.2 0-.3-.2-.5.1-.2-.1-.2-.3-.2zM37.4 23.1c-.3 0-.6.2-.7.6 0 .2 0 .3.2.5.1.1.3.2.4.2.3 0 .6-.3.6-.6.1-.4-.1-.7-.5-.7zM38.8 23.9c-.4 0-.7.2-.7.6 0 .2.1.3.2.5.1.1.3.2.4.2.3 0 .6-.3.6-.6 0-.2-.1-.3-.2-.5 0-.1-.2-.2-.3-.2zM40.4 24.4c-.4 0-.7.2-.7.6 0 .3.2.6.6.7.3 0 .6-.3.6-.6 0-.2 0-.3-.2-.5.1-.1-.1-.2-.3-.2zM50.6 20.9c-.2 0-.3.1-.4.2-.1.1-.2.3-.2.5 0 .3.3.6.6.6s.6-.3.6-.7c.1-.4-.2-.6-.6-.6zM49.5 22.2c-.2 0-.3.1-.4.2-.1.1-.2.3-.2.5 0 .3.3.6.6.6.2 0 .3-.1.4-.2.1-.1.2-.3.2-.5 0-.4-.3-.7-.6-.6zM48.2 23.1c-.3 0-.6.3-.6.7 0 .3.3.6.6.6s.6-.3.6-.7c.1-.3-.2-.6-.6-.6zM46.9 23.9c-.2 0-.3.1-.4.2-.1.1-.2.3-.2.5 0 .3.3.6.6.6.2 0 .3-.1.4-.2.1-.1.2-.3.2-.5 0-.4-.3-.6-.6-.6zM45.2 24.4c-.2 0-.3.1-.4.2-.1.1-.2.3-.2.5 0 .3.3.6.6.6s.6-.3.6-.7c0-.3-.3-.6-.6-.6zM23.4 16.9h-.1v-.1l-.1-.8v-.1h.1v-.1h-.5l-.3.9-.5-.9h-.5v.1h.1v.1l.1.7v.1s0 .1-.1.1h-.1v.1h.5v-.1h-.1s-.1 0-.1-.1v-.1l-.1-.7.6 1h.1l.4-1.1.1.8v.1s-.1 0-.1.1v.1l.7-.1h-.1zM24.8 16.4s-.1 0-.2-.1l-.7-.8h-.1v1.1c0 .1-.1.2-.1.3v.1l.4-.1v-.1H24v-.1-.2l.4-.1.1.1v.2s-.1 0-.1.1v.1l.6-.2-.2-.3zm-.9-.1v-.4l.3.3-.3.1zM26.1 15.6s-.1 0-.2-.1c-.2-.1-.3-.1-.3-.1.1-.1.1-.3.1-.4l-.1-.1h-.4s-.1.1-.2.1h-.2l-.4.2v.1h.1s.1 0 .1.1l.4.7v.1s0 .1-.1.1l.1.1.6-.3V16h-.1s-.1 0-.1-.1l-.2-.3c.1 0 .1 0 .1-.1h.1s.1 0 .2.1c.2.1.3.2.3.2l.4-.2v-.1c-.1.1-.2.1-.2.1zm-.8-.2s-.1.1-.2.1l-.2-.4c.1-.1.2-.1.3-.1.1 0 .1.1.1.1 0 .1.1.1.1.1 0 .1-.1.2-.1.2zM27 14.7v.3c0 .1-.1.2-.2.2h-.2c-.1 0-.1 0-.2-.1 0-.1-.1-.2-.2-.3-.1-.2-.1-.3-.1-.4 0-.1.1-.2.2-.2.1-.1.2-.1.3 0 .1 0 .2.1.3.2l.1-.1-.2-.4-.2.1v.1c-.1 0-.3 0-.4.1-.2.1-.3.2-.3.4s0 .3.1.5.2.3.4.3c.2.1.3 0 .5-.1s.2-.2.3-.4c0 0 .1 0 .1.1l.1-.1-.4-.2zM27.7 14.6h-.1l-.1.1v.1l.1.1h.1l.1-.1v-.1c0-.1 0-.1-.1-.1zM59.9 15.1l.2-.3-.9-.6-.1.1.1.1v.1l-.4.7c0 .1-.1.1-.1.1h-.1v.1-.1s-.1 0-.1-.1c0 0 0-.1-.1-.3 0-.2-.1-.3-.1-.3.2 0 .3 0 .4-.2v-.2c0-.1 0-.1-.1-.2 0-.1-.1-.1-.1-.1s-.1-.1-.2-.1l-.1-.1-.5-.2v.1l.1.1v.1l-.3.7c0 .1 0 .1-.1.1h-.1v.1l.6.3v-.1c-.1 0-.1-.1-.1-.1v-.1l.1-.3c.1 0 .1.1.1.1V14.8c0 .2 0 .3.1.4l.4.2 1 .6.2-.3-.1-.1s-.1.1-.2.1h-.1s-.1 0-.2-.1c-.1 0-.1-.1-.1-.1v-.1l.1-.1.2-.3.1.1.1.1v.1l.1.1.2-.4-.1-.1c0 .1-.1.1-.1.1h-.1l-.1-.1.2-.4.2.1c.1 0 .1.1.1.1v.4zm-1.7-.8s-.1 0-.2-.1l.2-.4h.1c.1 0 .2.1.2.1v.2c0 .1-.1.1-.1.1l-.2.1zM61.2 16.2l-.5-.3v.1c.1 0 .1.1.1.2s-.1.1-.1.1h-.2c-.1 0-.1-.1-.1-.1V16c0-.1.1-.2.1-.3.1-.2.2-.3.3-.3h.3c.2.1.2.2.2.5h.1l.2-.4h-.1l-.1.1-.3-.3c-.2-.1-.3-.1-.5 0s-.3.2-.4.3c-.1.2-.1.3-.1.5.1.2.2.3.3.4.1 0 .2.1.3.1.1 0 .3.1.3.1l.1-.2c0-.1.1-.1.1-.1-.1-.2-.1-.2 0-.2zM62.2 15.9l-.6-.3v.1c.1 0 .1.1.1.1v.1l-.3.7c0 .1 0 .1-.1.1h-.1v.1l.6.2v-.1c-.1 0-.1 0-.1-.1v-.1l.3-.7c0-.1 0-.1.1-.1h.1zM63 16.1l-.2-.2h-.3c-.1.1-.2.1-.2.2v.2c0 .1 0 .1.1.2 0 0 .1.1.3.2.1 0 .1.1.1.1v.1s0 .1-.1.1h-.1c-.1 0-.1-.1-.2-.1 0-.1-.1-.2-.1-.3h-.1l-.2.5h.1s0-.1.1-.1c0 .1.1.1.1.1.1.1.1.1.2.1h.3c.1-.1.2-.1.2-.3v-.2c0-.1 0-.1-.1-.2l-.2-.2c-.1-.1-.1-.1-.2-.1l-.1-.1V16s0-.1.1-.1h.1c.2.1.2.2.4.2-.1.1 0 .2 0 .3h.1l.1-.4-.2.1c0-.1 0 0 0 0zM64.6 16.2l-1.3-.1v.4h.1v-.1s0-.1.1-.1h.2l-.1.9v.1h-.1v.1l.7.1v-.1c-.1 0-.1 0-.1-.1v-.1l.1-.9h.1c.1 0 .1 0 .2.1 0 0 .1.1.1.2h.1l-.1-.4zM64.6 17.2h-.1l-.1.1v.1l.1.1h.1l.1-.1v-.1c0-.1-.1-.1-.1-.1z"/>
      <path d="M42.8 10.7c.1-.1.1-.1.1-.2v-.1-.1h-.1v.2l-.1-.1h-.1c-.1 0-.1-.1-.1-.2 0 0 0 .2.1.3 0 0 .1 0 .1.1s.1.1.1.1zM42.8 10.8h-.1.1c0 .1.1 0 0 0 .1 0 .1 0 0 0 .1-.1 0-.1 0 0zm0 0zM44.8 10.7c-.1 0-.1.1-.1.1v.1-.1c0-.1.1-.1.2-.1h-.1zM44.6 9.8c-.1 0-.4 0-.4.1h.3l.1-.1c-.1.1-.1.1 0 0 0 .1 0 .2.1.2H45s.1-.1 0-.1l-.1-.1h-.3z"/>
      <path d="M44.5 10h-.1.1c.1 0 .1 0 0 0h-.2-.1H44.5l.1.1h.1l.1-.1v-.1c-.2.1-.3.1-.3.1zm-.1.1c.1 0 .1 0 0 0zM44.6 10.3c-.1 0-.1 0 0 0-.1 0-.1-.1-.1-.1-.1.1 0 .1.1.1-.1 0-.1.1 0 0 0 .1 0 .1 0 0 0 .1 0 0 0 0z"/>
    </g>
  </g>
</svg>
