<svg xmlns="http://www.w3.org/2000/svg" viewBox="0 0 94.8 23">
  <g fill="#5B84A1">
    <path d="M54.7 3.3c-.2.3-.9.2-.9.2v2.3h-.5v-5h.5c.3 0 .7 0 .9.1.2.2.2.3.2.6v1.3c-.1.2-.1.3-.2.5zm-.4-1.9c0-.1 0-.1-.1-.2H53.6v2h.4c.1 0 .1 0 .2-.1V1.4zM57.9.8h.5v5h-.5zM62.3 5.8c-.5 0-.7-.3-.7-.7v-.7h.4v.8c0 .2.1.3.3.3.2 0 .3-.1.3-.3v-.7-.4c0-.1-.1-.2-.2-.4l-.6-.9c-.1-.2-.2-.3-.2-.5V1.4c0-.4.2-.7.7-.7.5 0 .7.3.7.7V2h-.4v-.6c0-.2-.1-.3-.3-.3-.2 0-.2.2-.2.3v.8c0 .2.1.2.2.4l.6 1c.1.1.1.2.1.4v1.2c.1.3-.2.6-.7.6zM67 5.8c-.5 0-.7-.3-.7-.7V1.4c0-.4.2-.7.7-.7.5 0 .7.3.7.6V2h-.5v-.7c0-.2-.1-.3-.3-.3-.2 0-.3.1-.3.3v3.9c0 .1.1.2.3.2.2 0 .2-.1.2-.2v-.8h.5v.8c.1.3-.1.6-.6.6zM71.6 5.9c-.5 0-.7-.3-.7-.7V1.4c0-.4.3-.7.7-.7.4 0 .7.3.7.6v3.8c0 .4-.2.8-.7.8zm.3-4.6c0-.1-.1-.3-.3-.3-.2 0-.3.1-.3.3v3.8c0 .2.1.3.3.3.2 0 .3-.2.3-.3V1.3zM43.7.5l-.3-.3c-5.8 1.2-11.8 6.5-17.1 12.7-5.2 6-7.9 9.3-9 9.3-.3 0-.4-.1-.4-.4-.1-.7.6-1.8 4.8-7.3 3.9-5 8-9.9 12.9-14l-.2-.3C29.7.8 24.6 3.8 15.8 14c-4.9 5.5-7.9 8.3-12 8.3-1.3-.1-2-.4-2.6-.9l-.8.1c.7.6 2.1 1.2 3.2 1.1 5.2.1 7.7-2.9 16.2-12.3C23.6 6.1 28.3 2 33.7.5l.1.1c-2.8 2-5.4 4.4-7.9 6.7-3.2 3.2-10.5 11-10.2 13.9.1.9.6 1.4 1.5 1.4 1.9 0 4.4-3.7 11.2-11.4C32 7.2 37.1 2.6 42.8.7l.1.1c-1.6 1.1-3 2.3-4.4 3.6-3.3 2.9-13.3 12.4-12.8 16.8.1.9.8 1.5 1.7 1.5 1.7 0 3.3-1 6.2-3.2l.2-.2-.3-.3-.2.2c-2.1 1.7-4.3 3-6 3-.5 0-.9-.3-.9-.6-.1-.9 1.3-2.9 2.6-4.6C33.6 11.3 38.1 5.4 43.7.5z"/>
    <path d="M43.7.5l.1-.1-.3-.4h-.1c-5.9 1.2-11.9 6.6-17.2 12.7-2.6 3-4.6 5.3-6.1 6.9-.7.8-1.3 1.4-1.8 1.8-.2.2-.4.3-.6.4-.1.2-.3.2-.4.2-.1 0-.2 0-.2-.1 0 0-.1-.1-.1-.2v-.1c0-.1 0-.3.2-.6.4-.8 1.6-2.5 4.6-6.5 3.9-5 8-9.9 12.9-14l.1-.1-.4-.4h-.1c-2.4.3-4.9 1.2-7.8 3.3-3 2.1-6.4 5.4-10.8 10.5l.1.1-.1-.1c-2.4 2.7-4.4 4.8-6.3 6.2-1.9 1.4-3.6 2.1-5.6 2.1v.2-.2c-1.3-.1-2-.4-2.5-.8l-1.3.1.3.2c.7.6 2 1.2 3.2 1.2h.1v-.2.2h.3c2.6 0 4.5-.8 6.8-2.7 2.3-1.9 5.1-5 9.2-9.7 3.8-4.2 8.5-8.3 13.9-9.7V.5l-.1.1.1.1.1-.1-.1-.1c-2.8 2.1-5.5 4.4-7.9 6.8-1.6 1.6-4.1 4.3-6.3 6.9-1.1 1.3-2.1 2.7-2.8 3.8-.7 1.2-1.2 2.2-1.2 3v.2c.1.5.2.9.5 1.1.3.3.7.4 1.1.4.5 0 1.1-.3 1.7-.7.9-.7 2-2 3.6-3.7 1.5-1.8 3.5-4.1 6-6.9C32.1 7.3 37.2 2.8 42.9.8V.7l-.1.1.1.1.1-.1-.1-.1c-1.6 1.1-3 2.3-4.4 3.6-1.6 1.4-4.8 4.4-7.7 7.6-1.4 1.6-2.7 3.3-3.7 4.8-1 1.6-1.6 3-1.6 4.2v.3c0 .5.3.9.6 1.2.3.3.8.4 1.3.4.9 0 1.7-.3 2.7-.8s2.1-1.4 3.6-2.5l.2-.2.1-.1-.4-.4-.3.3c-1 .8-2.1 1.6-3.1 2.1s-2 .8-2.7.8c-.2 0-.4-.1-.5-.2-.1-.1-.2-.2-.2-.3v-.1c0-.2.1-.5.2-.8.4-1 1.4-2.4 2.4-3.6C34 11.3 38.6 5.5 44.1.6l.1-.1-.1-.1-.4.1-.1-.1C38 5.3 33.4 11.2 28.9 16.9c-.7.8-1.3 1.7-1.8 2.5-.3.4-.5.8-.6 1.1-.2.3-.2.7-.2.9v.1c0 .2.1.4.3.6.2.1.4.2.7.2.9 0 1.9-.3 2.9-.9 1-.5 2.1-1.3 3.2-2.2l.1-.1.1.1.1-.1-.1-.1-.2.2c-1.4 1.1-2.6 1.9-3.5 2.5-1 .5-1.7.8-2.6.8-.4 0-.8-.1-1.1-.3-.3-.2-.4-.6-.5-1v-.3c0-1.1.6-2.5 1.5-4C30 12.3 36.1 6.6 38.5 4.5 40 3.2 41.4 2 42.9.9l.2-.1-.2-.2-.1-.1h-.1c-5.7 2-10.8 6.6-14.5 10.7-3.4 3.8-5.7 6.7-7.4 8.5-.8.9-1.5 1.6-2.1 2.1-.6.5-1.1.7-1.5.7-.4 0-.7-.1-.9-.3-.2-.2-.4-.5-.4-.9v-.2c0-.7.4-1.7 1.1-2.9 2.1-3.5 6.7-8.4 9.1-10.7 2.4-2.4 5-4.7 7.8-6.7l.2-.1-.2-.2-.1-.1h-.1c-5.5 1.5-10.2 5.6-14 9.8-4.2 4.6-6.9 7.7-9.2 9.6-2.3 1.9-4.1 2.7-6.6 2.7h-.3-.1c-1 0-2.3-.6-3-1.1l-.1.1v.2l.8-.1v-.2l-.1.1c.6.5 1.3.8 2.7.9 2.1 0 3.9-.7 5.8-2.2 1.9-1.4 3.9-3.5 6.3-6.2 4.4-5 7.9-8.3 10.8-10.4 2.9-2.1 5.3-3 7.7-3.3V.1l-.1.1.2.3.1-.1-.1-.1c-4.9 4.1-9 9-12.9 14.1-2 2.6-3.2 4.2-3.9 5.3-.3.5-.6.9-.7 1.2-.1.3-.2.5-.2.7v.1c0 .2.1.3.2.4.1.1.3.1.4.1.2 0 .3-.1.5-.2.7-.4 1.7-1.4 3.1-2.9 1.4-1.6 3.2-3.7 5.5-6.3C31.8 6.7 37.8 1.4 43.5.2V0l-.1.1.3.3v.1l-.1-.1.1.1z"/>
    <path d="M38.6 16.2L36 19.1c-1.9 2.1-2.2 2.5-2.2 3 0 .2.3.3.5.3.7 0 2.1-.7 5.1-3.2l.2-.2.2.2-.2.2c-3 2.3-4.3 3.2-5.3 3.2-.7 0-1.2-.3-1.3-.9-.1-1.1.8-2.2 3.2-4.7-.9.8-1.8 1.6-2.6 2.2l-.2.2-.2-.2.2-.2c1-.8 2.2-1.8 3.3-2.8h1.9zm1.5-1.8l-1.1-1 1.1-1.1 1.1 1.1-1.1 1z"/>
    <path d="M38.6 16.2l-.1-.1-2.6 2.9c-.9 1-1.5 1.6-1.8 2.1-.2.2-.3.4-.3.5-.1.2-.1.3-.1.4v.1c0 .2.1.3.3.3.1.1.3.1.4.1.4 0 1-.2 1.8-.7.8-.5 1.9-1.3 3.4-2.5l.1-.1.1.1.1-.1-.1-.1-.2.2c-1.5 1.2-2.6 2-3.4 2.5-.8.5-1.4.7-1.9.7-.3 0-.6-.1-.8-.2-.2-.1-.3-.3-.3-.6v-.2c0-.5.2-1 .7-1.7.5-.7 1.3-1.5 2.5-2.7l.1-.1-.2-.2-.1-.1-.1.1c-.9.8-1.8 1.6-2.6 2.2l-.1.1-.1-.1-.1.1.1.1.2-.2c1-.8 2.1-1.8 3.3-2.8l-.1-.1v.2h1.8v-.1l-.1-.1.2.1V16h-1.9c-1.2 1-2.3 2-3.3 2.8l-.2.2-.2.2.5.4.3-.2c.8-.6 1.7-1.4 2.6-2.2l-.2-.2-.1.1.1.1.1-.1-.1-.1c-1.1 1.1-1.9 2-2.5 2.7-.5.7-.8 1.3-.8 1.9v.2c0 .3.2.6.5.8.3.2.6.2 1 .2.6 0 1.2-.2 2-.8.8-.5 1.9-1.3 3.4-2.5l.2-.2.1-.1-.4-.4-.3.3c-1.5 1.2-2.6 2-3.4 2.5-.8.5-1.3.7-1.6.7-.1 0-.2 0-.2-.1-.2-.1-.2-.1-.2-.2v-.1c0-.1 0-.2.1-.3.2-.3.7-1 2.1-2.5L39 16h-.3v.2zm1.5-1.8l.1-.1-1-.9.9-.9.9.9-1 .9.1.1.1-.1-.1.1.1.1 1.3-1.2-1.4-1.3-1.3 1.3 1.3 1.2.1-.1h-.1z"/>
    <path d="M39.5 19.2l.2-.2c1.9-1.5 3.7-3.1 5.6-4.7l.2.3-.5.5c-.4.3-.6.5-.5.8 0 .3.5 1.1.6 2.3.1.8 0 1.5-.3 2 .7-.1 1.3-.6 1.8-1l.2-.2.2.2-.2.2c-.9.7-1.6 1.2-2.2 1.3-1 1.2-2.7 2-4.5 2-.9 0-2-.2-2.1-1.2 0-.4.6.5.5.5.2.3.7.4 1.1.4 1.4 0 3.1-1.6 3.7-2.6.7-1.3.7-2.7.7-3.8-1.4 1.1-2.7 2.2-4.1 3.3l-.2.2-.2-.3z"/>
    <path d="M39.5 19.2l.1.1.2-.2c1.9-1.5 3.7-3.1 5.6-4.7l-.1-.1-.1.1.1.2-.4.4.1.1-.1-.1c-.2.1-.3.3-.4.4-.1.1-.2.3-.2.5v.1c0 .1 0 .2.1.4.2.4.4 1.1.5 1.9v.5c0 .6-.1 1.1-.3 1.5l-.1.3h.3c.7-.1 1.4-.7 1.9-1l.1-.1.1.1.1-.1-.1-.1-.2.2.1.1-.1-.1c-.9.7-1.6 1.2-2.2 1.2h-.1c-1 1.2-2.7 1.9-4.4 1.9-.5 0-.9 0-1.3-.2-.2-.1-.3-.2-.4-.3-.1-.1-.2-.3-.2-.5H38h.1-.1.1l-.1-.1v.1h.1l-.1-.1v.1-.1.1-.1.1s.1 0 .1.1c.1.1.2.2.2.3l.1.1h.1-.1.1-.1l.1-.1h-.1v.1l.1-.1h-.1.2l-.1-.1v.1h.2l-.1-.1.1.1v-.2s-.1 0-.1.1l.1.1v-.2.1l.1-.1h-.1v.1l.1-.1-.1.1.1-.1-.1.1.1-.1-.1-.1-.2.2h-.2l.1.1c.3.3.8.5 1.2.5.8 0 1.6-.4 2.3-.9.7-.5 1.3-1.2 1.6-1.8.5-1.1.7-2.2.7-3.2v-1.1l-.2.2c-1.4 1.1-2.7 2.2-4.1 3.3l-.1.1-.1-.1-.2.1.1.1-.1-.1-.1.1.2.2.1.1.3-.2-.1-.1.1.1c1.4-1.1 2.7-2.2 4.1-3.3l-.1-.2h-.2v.7c0 1-.1 2-.7 3-.3.5-.8 1.1-1.5 1.6s-1.4.9-2.1.9c-.4 0-.8-.1-1-.4v.3l.1.1.1-.1-.1-.1-.1.1h.1s.1 0 .1-.1v-.1-.2c0-.1-.1-.2-.3-.3l-.2-.2-.1-.1H38c-.1 0-.1 0-.2.1v.2c0 .3.1.5.3.7.2.3.5.4.9.5.3.1.7.1 1.1.1 1.8 0 3.6-.8 4.6-2l-.1-.1v.2c.7-.1 1.4-.6 2.3-1.3l.2-.2.1-.1-.4-.4-.3.3c-.5.4-1.1.9-1.7 1v.2l.1.1c.2-.5.3-1 .3-1.6v-.5c-.1-.6-.2-1.1-.4-1.5-.1-.2-.1-.4-.2-.5-.1-.1-.1-.2-.1-.3 0-.1 0-.2.1-.3l.4-.4.6-.5-.3-.6-.2.1c-1.9 1.6-3.7 3.2-5.6 4.7l-.2.2-.1.1.1.1.2-.1z"/>
    <path d="M51 18.5l8.5-8.8 1.2-1.2h-2.3l-.1.1-.6.6-5.3 5.3c-1.9 1.5-4 2.9-5.8 4.5l-.2.2.2.2.2-.2c2-1.5 4-3 6-4.6l.1.1c-5 4.4-6.1 5.7-6 6.9.1.8.6 1.1 1.4 1.1 1 0 2.1-.6 5.4-3.2l.2-.2-.2-.2-.2.2c-1.9 1.5-4.1 3.2-5.2 3.2-.4 0-.7-.1-.7-.4 0-.3.4-.6 3.4-3.6z"/>
    <path d="M51 18.5l.1.1 8.5-8.7 1.5-1.4h-2.7l-.2.2-.6.6-5.3 5.3.1.1-.1-.1c-1.9 1.5-3.9 2.9-5.8 4.5l.1.1-.1-.2-.3.2-.2.1.5.4.3-.2c2-1.5 4-3 6-4.6l-.1-.1-.1.1.1.1.1-.1-.1-.1c-2.4 2.1-3.9 3.5-4.8 4.5-.5.5-.8.9-1 1.3-.2.4-.3.7-.3 1v.2c0 .4.2.8.5 1 .3.2.7.3 1.1.3.6 0 1.1-.2 1.9-.7.8-.5 1.9-1.3 3.6-2.6l.2-.2.1-.1-.2-.5-.3.3c-.9.8-2 1.6-2.9 2.2-.5.3-.9.5-1.3.7-.4.2-.7.3-.9.3-.2 0-.3 0-.4-.1 0 0-.1 0-.1-.1v-.1c0-.1 0-.1.1-.2.1-.2.4-.5.9-1l2.3-2.3-.2-.2-.1-.1c-1.4 1.4-2.3 2.2-2.7 2.7-.2.3-.4.4-.5.6-.1.2-.1.3-.1.4v.1c0 .1.1.2.1.3.1.1.2.2.4.2h.4c.3 0 .7-.1 1.1-.3 1.2-.5 2.8-1.8 4.2-2.9l.1-.1.1.1.1-.1-.1-.1-.2.2c-1.7 1.3-2.8 2.1-3.6 2.6-.8.5-1.3.6-1.8.6-.4 0-.7-.1-.9-.2-.2-.1-.3-.4-.4-.7v-.2c0-.3.1-.5.3-.9.5-1 2.1-2.6 5.7-5.7l.1-.1-.2-.2-.1-.1-.1.1c-2 1.6-4 3.1-6 4.6l.1.1-.1-.1-.1.1-.1-.1-.1.1.1.1.2-.2c1.9-1.5 3.9-2.9 5.8-4.5l5.3-5.4.6-.6.1-.1h1.8l-1 .9-8.5 8.8.1.1-.1-.1.1.1z"/>
    <path d="M53.7 19.2l.3-.2c.7-.6 2.5-2.2 2.5-2.2s-.2-.8.3-.2c0 0 .4.2.8.2.6 0 1.1-.2 1.4-.3l1.1.9-.9.9c-2.6 2.7-3.4 3.4-3.4 3.7 0 .3.2.4.7.4.9 0 3.1-1.4 5.3-3.2l.2-.2.2.2-.2.2c-3.1 2.5-4.5 3.2-5.6 3.2-.9 0-1.3-.3-1.4-.9-.1-.8.3-1.5 1.7-2.9l1.9-1.9-.1-.1c-.2.1-.5.2-.9.2-.3 0-.5 0-.7-.1-1 .8-2 1.7-2.7 2.3l-.2.2-.3-.2z"/>
    <path d="M53.7 19.2l.1.1.2-.2c.7-.6 2.5-2.2 2.5-2.2l.1-.1v-.1-.2-.1h-.2l-.1-.1v.1h.1l-.1-.1v.1-.1.1-.1.1l.2.2.3-.1-.1.1h.2v-.1l-.1.1h.2-.2l.1.1v-.1h-.2l.1.1-.1-.1v.2s.1 0 .1-.1l-.1-.1v.2-.1.1-.1.1-.1.1-.1.1h.1c.2.1.5.1.7.1.6 0 1.1-.2 1.5-.3v-.2l-.1.1.9.8-.8.9-2.7 2.7c-.3.3-.4.5-.6.7-.1.2-.2.3-.2.4 0 .2.1.3.3.4.2.1.3.1.6.1s.6-.1 1-.3c1.1-.5 2.7-1.6 4.4-3l.1-.1.1.1.1-.1-.1-.1-.2.2c-1.5 1.2-2.7 2-3.5 2.5-.9.5-1.5.7-2 .7-.4 0-.7-.1-.9-.2-.2-.1-.3-.3-.3-.6v-.2c0-.3.1-.6.3-1 .3-.4.7-.9 1.3-1.5l2-2-.2-.2-.1-.1h-.1c-.2.1-.5.1-.9.1-.3 0-.5 0-.7-.1h-.1l-.1.1c-1 .8-2 1.7-2.7 2.3l.2.2-.1-.1-.2.1.1.1-.1-.1-.1.1.2.2.1.1.3-.2-.1-.1.1.1c.8-.6 1.8-1.6 2.8-2.4l-.1-.1v.2c.2.1.5.1.8.1.4 0 .7-.1 1-.1v-.2l-.3.1.1.1.1-.1-.1-.1-1.9 1.9c-.7.7-1.1 1.2-1.4 1.6-.3.4-.4.8-.4 1.2v.2c0 .4.2.6.5.8.3.2.6.3 1.1.3.6 0 1.2-.2 2.1-.7.9-.5 2-1.3 3.6-2.6l.2-.2.1-.1-.4-.5-.3.3c-1.1.9-2.2 1.7-3.1 2.3-.5.3-.9.5-1.2.7-.4.2-.6.2-.8.2-.2 0-.4 0-.5-.1-.1 0-.1-.1-.1-.2 0 0 0-.1.1-.3.2-.2.5-.6 1-1.1l2.2-2.2 1.1-1.1-1.4-1h-.1c-.3.2-.8.3-1.3.3-.1 0-.3 0-.5-.1-.1 0-.1 0-.2-.1h-.1-.2v.1h.1l.1-.1c-.1-.1-.1-.2-.2-.2-.1-.1-.1-.1-.2-.1h-.1l-.1.1v.4h.2l-.1-.1s-.4.4-1 .9c-.5.5-1.1 1-1.5 1.3l-.2.2-.1.1.1.1.1.1z"/>
    <path d="M72.4 16.2c-.6.6-5 4.9-4.9 5.8 0 .2.2.3.4.3.6 0 2.5-1.5 4.5-3.2l.2-.2.2.2-.2.2c-3.9 3.1-4.2 3.2-4.8 3.2-.8 0-1-.3-1.1-.9-.1-.6.2-1.1.4-1.5H67c-1.7 1.5-3.1 2.4-4.5 2.4-1.1 0-1.5-.6-1.6-1.5-.3-2.6 4.5-5.1 7-5.1 1.2 0 1.4.5 1.5 1.4h.1l1-1.2h1.9zm-10.6 5.6c0 .4.3.6.9.6 1 0 2.8-1.1 4.5-2.6 1.5-1.4 2.1-2.1 2-2.8 0-.5-.5-.7-1-.7-2.1 0-6.5 4.3-6.4 5.5z"/>
    <path d="M72.4 16.2l-.1-.1-2.7 2.7c-.6.6-1.2 1.3-1.6 1.8-.2.3-.4.5-.5.8-.1.2-.2.4-.2.6 0 .1.1.3.2.3.1.1.2.1.4.1.1 0 .2 0 .3-.1.4-.2 1-.6 1.8-1.1.7-.6 1.6-1.3 2.5-2l.1-.1.1.1.1-.1-.1-.1-.2.2c-2 1.5-3 2.4-3.6 2.8-.3.2-.5.3-.7.4-.2.1-.3.1-.4.1-.4 0-.6-.1-.7-.2-.1-.1-.2-.3-.2-.5v-.2c0-.5.2-.9.4-1.3l.1-.2H67c-.9.8-1.6 1.3-2.3 1.7-.7.4-1.4.6-2 .6-.5 0-.8-.1-1-.3-.2-.2-.3-.6-.4-1v-.2c0-.6.3-1.2.7-1.8.7-.8 1.8-1.6 2.9-2.1 1.1-.5 2.3-.9 3.2-.9.3 0 .5 0 .7.1.3.1.4.2.5.4.1.2.2.4.2.7v.1H69.8l1-1.2h1.8l-.1-.1-.1.1V16h-1.9l-1 1.2.1.1v-.2h-.1v.2h.2c0-.4-.1-.8-.4-1.1-.1-.1-.3-.2-.5-.3-.2-.1-.5-.1-.8-.1-1.3 0-3 .6-4.5 1.5-.7.5-1.4 1-1.9 1.6-.5.6-.8 1.3-.8 1.9v.2c.1.5.2.9.5 1.2.3.3.7.4 1.3.4.7 0 1.4-.2 2.2-.6.7-.4 1.5-1 2.4-1.8l-.1-.1v.2h.1v-.2H67c-.2.4-.4.9-.4 1.4v.2c0 .3.1.5.3.7.2.2.5.3.9.3.2 0 .3 0 .5-.1.3-.1.6-.3 1.3-.8.7-.5 1.6-1.2 3.1-2.4l.2-.2.1-.1-.4-.4-.3.3c-1 .8-2 1.6-2.8 2.2-.4.3-.8.5-1 .7-.1.1-.3.1-.4.2-.1 0-.2.1-.2.1h-.2s0-.1-.1-.1c0-.1.1-.2.2-.4.4-.7 1.5-1.9 2.5-3s2-2 2.2-2.3l.3-.3h-.4v.1zm-10.6 5.6h-.2c0 .2.1.4.3.5.2.1.4.2.8.2.6 0 1.3-.3 2-.7.8-.5 1.7-1.1 2.5-1.9.7-.6 1.2-1.1 1.6-1.6.3-.4.5-.8.5-1.2V17c0-.3-.2-.5-.4-.6-.2-.1-.5-.2-.8-.2-.6 0-1.2.3-1.9.7-1.1.6-2.2 1.6-3.1 2.5-.4.5-.8.9-1.1 1.3-.3.4-.4.8-.4 1.1v.1l.2-.1h.2c0-.1.1-.3.2-.5.4-.8 1.5-2 2.7-3 .6-.5 1.2-1 1.8-1.3.6-.3 1.1-.5 1.5-.5.3 0 .5.1.6.1.1.1.2.2.2.4v.1c0 .3-.1.6-.5 1-.3.4-.8.9-1.5 1.5-.8.8-1.7 1.4-2.5 1.9s-1.4.7-1.9.7c-.3 0-.5-.1-.6-.1v-.3h-.2z"/>
    <path d="M75.7 17c-.8.5-1.7 1.2-2.8 2.1h-.4l.3-.3c1.7-1.4 3.6-3 6.3-5.7 3-2.9 9.8-10.4 14.1-10.4.8 0 1.2.5 1.3 1.1.2 2.5-6.6 7.4-13.8 10-5.8 6.2-6.8 7.5-6.7 8.3 0 .3.3.6 1 .6.8 0 2.9-1.4 5.7-3.6l.3-.2.2.2-.2.2c-4.6 3.6-5.2 3.7-6.2 3.7s-1.5-.6-1.6-1.4c-.1-1.4 1.1-3 2.5-4.6zm5.6-4c2.9-.9 13.3-6.5 13-9.5 0-.3-.4-.6-.9-.6-2.7 0-7.7 5.1-12.1 10.1z"/>
    <path d="M75.7 17l.1-.1-.1-.1-.1-.1-.1.1c-.7.6-1.6 1.3-2.7 2.2l.1.1v-.2h-.4v.2l.1.1.3-.3-.1-.1.1.1c1.7-1.4 3.6-3.1 6.3-5.8 1.5-1.5 3.9-4.1 6.5-6.3 1.3-1.1 2.6-2.1 3.9-2.9 1.3-.7 2.5-1.2 3.5-1.2.4 0 .6.1.8.3.2.2.3.4.3.7v.1c0 .6-.4 1.3-1.1 2.1-2.2 2.5-7.3 5.7-12.6 7.5-2.8 3-4.5 4.8-5.4 6-.5.6-.8 1.1-1 1.4-.2.4-.3.6-.3.9v.1c0 .4.4.8 1.2.8.2 0 .5-.1.9-.3 1.1-.5 2.8-1.7 4.9-3.4l.2.1v.1c-2.3 1.8-3.6 2.7-4.4 3.2-.4.2-.7.3-1 .4-.3.1-.5.1-.7.1-.5 0-.8-.1-1-.4-.2-.2-.4-.5-.4-.9v-.2c0-.5.3-1.2.7-1.9.4-.7 1.1-1.5 1.8-2.3V17l-.1-.1-.2.1-.1-.1c-.7.8-1.3 1.6-1.8 2.3-.5.7-.8 1.4-.8 2.1v.2c0 .4.2.8.5 1.1.3.3.7.4 1.2.4.3 0 .5 0 .8-.1.9-.2 2.1-.9 5.5-3.6l.2-.2.1-.1-.4-.5-.4.3c-1.4 1.1-2.6 2-3.5 2.6-.5.3-.9.5-1.2.7-.3.2-.6.2-.8.2-.6 0-.9-.3-.9-.5v-.1c0-.2.1-.4.2-.7.6-1 2.2-2.9 6.4-7.4l-.1-.1.1.1c3.6-1.3 7.1-3.1 9.6-4.9 1.3-.9 2.4-1.8 3.1-2.7.7-.9 1.2-1.6 1.2-2.3v-.2c0-.3-.2-.6-.4-.8-.2-.2-.6-.4-1-.4-1.1 0-2.4.5-3.7 1.2-3.9 2.3-8.3 7-10.5 9.2-2.7 2.7-4.6 4.3-6.3 5.7l-.6.6h.8c1.3-.7 2.2-1.4 2.8-2h-.2l.1.1.1-.1-.1-.1.1.1zm5.6-4v.1c1.4-.4 4.7-2 7.6-3.9 1.4-.9 2.8-1.9 3.8-2.9.5-.5.9-1 1.2-1.4.3-.5.5-.9.5-1.3v-.1c0-.4-.5-.8-1.1-.8-.7 0-1.5.3-2.5.9-2.8 1.7-6.4 5.5-9.8 9.2v.1l.2.2.1.1h.1l-.1-.2.1-.1-.1-.1v.2c2.3-2.5 4.7-5 6.8-6.9 1.1-.9 2.1-1.7 3-2.3.8-.5 1.6-.8 2.2-.8.5 0 .8.3.8.5v.1c0 .3-.1.7-.4 1.1-1 1.5-3.5 3.3-6 4.9-2.6 1.5-5.2 2.8-6.4 3.2v.2l.1-.1-.1.1zM52.2 12.1l.2-.4h8.4l-.2.4"/>
    <path d="M52.2 12.1l.1.1.2-.3h8-8.3v.2l.1.1-.1-.1v.2h8.5l.3-.7h-8.7l-.4.7h.3M86.8 19.1c.4.3.5.8.5 1.2 0 .5-.2.9-.5 1.3-.3.3-.8.5-1.3.5s-.9-.2-1.3-.5c-.3-.3-.5-.8-.5-1.3s.2-.9.5-1.2c.3-.3.8-.5 1.3-.5s.9.2 1.3.5zm.2-.2c-.4-.4-.9-.6-1.5-.6s-1.1.2-1.5.6c-.4.4-.6.9-.6 1.4 0 .6.2 1.1.6 1.5.4.4.9.6 1.5.6s1.1-.2 1.5-.6c.4-.4.6-.9.6-1.5 0-.5-.2-1-.6-1.4zm-1.2 1.4H85v-.8h.3c.2 0 .4 0 .5.1.1.1.1.2.1.3.1.2.1.3-.1.4zm-1.2 1.2h.4v-.9h.3c.2 0 .4 0 .5.1.1.1.2.3.2.5V21.5h.4v-.1-.4c0-.1 0-.2-.1-.3-.1-.1-.2-.2-.4-.2.1 0 .3-.1.3-.1.1-.1.2-.2.2-.4 0-.3-.1-.5-.4-.6-.1-.1-.3-.1-.6-.1h-.8v2.2z"/>
  </g>
</svg>
