<svg xmlns="http://www.w3.org/2000/svg" xmlns:xlink="http://www.w3.org/1999/xlink" viewBox="0 0 84.5 45.1">
  <defs>
    <path id="a" d="M84.5 35.1c0 2.2-1.8 3.9-3.9 3.9H.1V19.3c0-2.2 1.8-4 3.9-4h80.5v19.8z"/>
  </defs>
  <use fill="#3B6435" xlink:href="#a" overflow="visible"/>
  <path fill="none" stroke="#D8AD00" stroke-width=".099" d="M1.5 19.3c0-1.3 1.1-2.4 2.4-2.4h79v18.2c0 1.3-1.1 2.4-2.4 2.4h-79V19.3z"/>
  <path fill="none" stroke="#FFF" stroke-width=".179" d="M2.5 19.3c0-.8.6-1.4 1.4-1.4h78v17.2c0 .8-.6 1.4-1.4 1.4h-78V19.3z"/>
  <path fill="#D8AD00" d="M42.5 2.6c0-.1 0-.1.1-.1h.8c.1.1.2 1 .1 1-.1.1-.8.1-.9 0-.1-.1-.1-.8-.1-.9zm0-1.3c.1-.1.2-.1.3-.1h.5c0 .1.2.8 0 .9-.1.1-.2 0-.4 0h-.4c-.1 0 0-.7 0-.8M42 3.5c-.1.1-.7 0-.9 0v-1c.1-.1.2-.1.3-.1h.6c.1.2.1 1.1 0 1.1m-.9-2.1c.1-.1.1-.1 0 0 .2-.2.3-.1.4-.2.1 0 .3 0 .4.1.1.1.1.8 0 .9-.1.1-.6.1-.7 0h-.1v-.8M57.2 9h-1.4c-.3 0-.9.1-1.1 0-.1 0-.1-.1-.2-.2s-.3-.2-.4-.3c0-.1.1-.1.1-.1h.4c.3 0 .5-.1.8-.1h-1.7c-.1 0-.3 0-.4-.1 0-.1.1-.2 0-.2 0-.1-.1-.1-.2-.1-.2-.1-.5 0-.7 0-.1 0-.3.1-.4.1.1.1 0 0 0 0 0-.1.1-.1.1-.1.2-.1.5-.1.7-.1.4-.1.9-.1 1.3-.2h-.7v-.1c.2-.1.4-.1.6-.2.4-.1.7-.2 1.1-.3-.1 0-.3 0-.4.1h-.1c-.1 0-.6.1-.7.1-.1 0-.4.1-.5.1h-.6c-.2 0-.4 0-.5.1h-.7c0-.1.2-.3.3-.4.2-.1.5-.1.7-.1.5-.2 1.1-.3 1.7-.5l.9-.3c-.1 0-.3 0-.4.1-.3.1-.5.1-.8.2-.2 0-.4.1-.5.2h-.2c-.1 0-.3-.2-.2-.3.1-.1.2-.1.3-.2.3 0 .4-.1.5-.1.5-.1 1-.3 1.5-.4.5-.1 1-.3 1.5-.4-.2 0-.4 0-.5.1h-.2c-.2 0-.5.1-.7.1-.3.1-.5.1-.8.2-.1 0-.2.1-.3.1-.2 0-.3-.1-.5-.1-.2-.1-.4-.1-.6-.1v-.1c.1-.1.2-.1.3-.2.4-.1.8-.3 1.2-.4h-.1s-.4.1-.4.2c-.3 0-.5.2-.7.2-.2.1-.4.2-.7.2h-.2v-.2h-.2c-.2 0-.5.1-.7.3-.1.1-.2.2-.3.2H51c0-.1.1-.1.2-.2.2-.3.5-.3.8-.5.3-.1.5-.3.8-.3h-.1-.1c-.3.1-.6.2-.8.3-.7.3-1.5.6-2.2.9-.2.1-.4.2-.7.3-.1 0-.2.1-.2.1-.4 0-.1-.4-.2-.5-.1-.1-.3-.1-.4-.1H47.5c-.4 0-1 .3-1.2.6-.2 0-.2-.3-.4-.3-.1 0-.1.1-.2.1-.3.3-.4.7-.4 1.2v.5c.1.2 0 .2-.1.2-.3 0-1-.4-1-.7 0-.2.3-.5.4-.6.4-.5.8-1.1 1.2-1.6.2-.2.3-.5.5-.7.1-.1.1-.2.2-.2 0 0 .1-.1.2-.1s.3.1.4.2c.2.1.4.2.6.2.4.1.7 0 1-.2.5-.4 1.2-1.3.8-2-.1-.2-.3-.4-.5-.6-.5-.5-1-.9-1.6-1.3-.2-.1-.5-.2-.7-.2-.5 0-1.2.8-1.4 1.2-.2.2-.3.4-.3.6 0 .1-.1.3 0 .4.1.3.5.6.7.9.1.1.2.1.2.3 0 .2-.4.6-.5.7-.4.6-.9 1.2-1.3 1.8-.2.2-.4.5-.6.8-.1 0-.2.1-.2.1-.1 0-.4 0-.5-.1-.1-.2 0-.4-.1-.6 0-.5-.1-1-.1-1.5v-.5c0-.1.1-.1.2-.1h.4c.1 0 .1.2.2.3.2.2.5.1.7-.1.1-.1.1-.2.1-.3 0-.7-.1-1.3-.2-2 0-.4-.1-.8-.1-1.3 0-.2 0-.4-.1-.5.1-.2 0-.3-.2-.3-.1.1-.2.1-.3.2-.1.2-.1.3-.3.4h-.3c-.1-.1-.2-.5-.5-.4-.4 0-.3.5-.7.5-.2 0-.3-.2-.4-.4-.1-.1-.2-.2-.3-.2-.1 0-.2 0-.3.1-.1.1-.2.2-.2.3-.1.5-.1 1-.1 1.5 0 .4 0 .9-.1 1.3 0 .3-.1.6 0 .9 0 .1.1.3.1.3.1.1.2.1.3.1.2 0 .3-.1.4-.2 0-.1.1-.1.1-.2.1-.1.3-.1.4-.1.1 0 .2 0 .3.1.1.2.1.9.1 1.1v1.4c0 .1 0 .1-.1.2h-.6c-.2-.1-.3-.4-.5-.6-.2-.3-.5-.5-.7-.8-.2-.3-.5-.6-.7-.9-.1-.1-.2-.2-.2-.3 0-.2.1-.3.2-.4.1-.2.2-.4.1-.6 0-.2-.2-.5-.3-.6-.2-.2-.4-.4-.5-.7-.3-.3-.6-.7-.9-1-.1-.1-.3-.4-.4-.5h-.1c-.1.3-.3.5-.4.7-.5.5-1.1.9-1.6 1.2 0 .2.8 1.1 1 1.3.2.3.4.5.7.8 0 .2.2.4.4.5.2.1.5.2.7.1.1 0 .3-.2.5-.1s.6.6.7.8c.2.2 1.4 1.5 1.3 1.7-.1.3-.9.9-1.1.6-.1-.1 0-.3 0-.4 0-.1 0-.3-.1-.4 0-.2-.1-.4-.2-.5-.1-.2-.2-.4-.4-.4-.1 0-.1 0-.2.1 0 .1-.1.2-.2.2s-.3-.2-.4-.3c-.1-.3-.8-.5-1-.4-.2 0-.7 0-.7.2-.1.2.2.5-.1.5-.2 0-.5-.2-.6-.2-.4-.2-.7-.3-1.1-.4-.2-.1-.4-.2-.7-.2 0 0 .1.1.1.2h-.5c-.1 0-.4-.2-.5-.2 0 0-.1 0-.1-.1-.1 0-.1 0-.2-.1h-.2c-.1 0-.1 0-.2.1 0 .1 0 .1-.1.2-.2.1-.9-.3-1.1-.3h-.2c0 .1.5.2.7.2.1 0 .1.1.2.1H31c-.2 0-.4.1-.5.2-.2 0-.5-.1-.7-.1-.4-.1-.7-.1-1-.2-.4-.1-.7-.2-1.1-.2h-.1.1c.3.1.6.1 1 .2.5.1 1 .2 1.6.3.2 0 .4.1.6.2.1.1.2.1.3.2.1.1.3.1.4.2v.1l-.2.2c-.2.1-.4 0-.5-.1-.5 0-.9 0-1.3-.1-.1 0-.2-.1-.3 0h.1c.7.2 1.5.4 2.2.5.1 0 .2.1.3.1.2 0 .5 0 .6.1.1.1.2.2.4.3V8c-1 0-1.9-.3-2.8-.4-.2 0-.4-.1-.6-.1h-.1s.1.1.2.1c.4.1.8.2 1.1.2.1 0 .3.1.4.1 0 .1-.5.1-.6.1.3 0 .7.1 1 .1.3 0 .8 0 1.1.2v.2c-.1.1-.8-.2-1-.1-.1 0-.2 0-.3.1-.1 0 .2.3 0 .3h-2-.1.7c.3 0 .5 0 .7.1 0 0-.4.3-.5.3v.2h-2.7c-.2 0-.3 0-.4.1h1.1c.4 0 .8-.1 1.3-.1h1.3c.1 0 .2 0 .3.1.1 0 .3 0 .4.1 0 0-.1.3-.1.4H28.9 30c.5 0 1.1 0 1.6-.1.4 0 .8-.1 1.1-.1.2 0 .4.1.7.1-.1 0-.1.1-.2.1s-.4 0-.5.1c-.1 0-.3 0-.4.1h-1H30h-.1-.3c0 .1 1.3-.1 1.4-.1l2.1-.3c.6-.1 1.2-.3 1.9-.3.1 0 .3-.1.4 0 .1 0 0 .1 0 .1-.1.2-.1.4-.2.6-.1.2-.1.5-.2.8.3 0 .6 0 .9-.1.2-.1.5-.1.7-.2.1 0 .1.1.2.1.2 0 .6 0 .7-.1.2 0 .4-.1.5-.2.2-.1.3-.3.4-.3v.1c0 .3-.1 1 .2 1.2l.1-.1c.5-.3 1-.6 1.4-1.1.1 0 .1.1.2.1s.2-.1.4-.1l.1.2c0 .2 0 .5.1.7.2 0 .4-.4.6-.3.1.1.2.3.2.5.1.2.3.4.4.7.2 0 .6-1.2.7-1.2.1 0 .5.3.6.3V11c0-.2 0-.7.2-.8h.3c.1 0 .1-.1.2-.2l.1.1c.2.2.4.4.7.6.1.1.3.1.4.2.2.1.3.2.5.3v-.1c0-.1 0-.2.1-.3v-.9c.1 0 .3.2.4.3.1.1.3.1.4.2.2.1.7.1.9.1.1 0 .1-.2.3-.2.2 0 .3.1.5.1.3 0 .5.1.8.1h.3c.2-.1-.3-1.2-.3-1.3 0-.1 0-.1.1-.2h.6c.5.1 1 .2 1.5.2.6.1 1.3.1 1.9.2.6.1 1.2.1 1.8 0-.4 0-.8 0-1.2-.1-.7 0-1.4-.1-2.1-.2-.2 0-.5 0-.7-.1v-.1h.1c.2-.1.4-.1.5-.1.5 0 .9.1 1.4.1h2.2-.7c-.2 0-.4-.1-.6 0-.2 0-.8 0-.9-.1l-.1-.1c0-.1-.1-.1-.1-.2 0 0 0-.1.1-.1.2-.1.5-.1.8-.2h.3c1.1-.1 2.2.1 3.3 0 .2.9 0 .9-.2.8"/>
  <path fill="#211915" d="M53.8 9.1h-.2c-.2 0-.8 0-.8-.2s.5-.2.6-.3c.3 0 .6.1.8.2.1.2-.3.2-.4.3zm-.6.4c-.1 0-.1.1-.2.1-.4 0-.8 0-1.1-.2-.1 0-.2-.1-.2-.2.2-.2.3-.1.5-.2.3.1.8.2 1 .5.1 0 0 0 0 0m-1.4.2h-.2c-.4 0-.8 0-1.1-.3 0 0-.1-.1 0-.2 0-.1.1-.1.2-.1.4 0 1 .1 1.2.5l-.1.1m-1.6.1c-.3 0-.6.1-.6-.3v-.3c.3 0 .8.2.8.5 0 .1-.1.1-.2.1m.1-.8c0 .2-.4.2-.4.1-.1-.1.1-.2.1-.2.1 0 .2.1.3.1m-1-.2c-.4-.4.6-.5.7-.6h.3c0 .4-.7.9-1 .6m.4 2.5c-.1.1-.2 0-.3 0-.4 0-.7 0-1-.1-.1 0-.2-.1-.3-.1-.2-.1-.1.2-.2.2h-.2c-.6 0-1-.2-1.3-.7l-.3-.6c-.1 0-.1 0-.1.1v.2c.1.4.3 1.2.1 1.7-.2 0-.4-.2-.6-.3-.3-.2-.9-.6-1-1v-.3c0-.2 0-.3.1-.5.1 0 .4 0 .5.2 0 .1 0 .2.1.2h.1v-.2c0-.4 0-.8.2-1.1.1-.1.1-.2.2-.3v-.2c0-.1-.1 0-.1 0-.3.2-.3.5-.4.8l-.1-.1c-.1-.1-.1-.3-.2-.4 0-.1-.2-.2-.2-.3 0 0 .6-.4.7-.4.1 0 .2 0 .3-.1.1-.1 0-.6 0-.8 0-.4.2-.7.4-1 .1 0 .2.3.3.4.1 0 .3-.3.4-.3.1-.1.2-.2.3-.2.1-.1.4-.1.6-.2.2 0 .5 0 .7.1.1.1-.1.3 0 .4.1.1.4.2.5.3.2.2.7.8.6 1.1-.2.1-.3.1-.5.2h-.2-.1c-.3 0-.6-.1-.9-.1l.2.1c.5.2 1.1.6 1.3 1.1 0 .1.1.2 0 .3 0 .1-.1.1-.2.2v.1c.3.4.8 1.4.6 1.6m-5.8-2.4c0-.1 0-.2.1-.2.2 0 .4 0 .5.1.2.1.5.8.2 1-.4 0-.9-.4-.8-.9m.4 2c0 .1-.1.1-.1.2-.1 0-.2 0-.2-.1-.1-.1-.2-.3-.3-.4-.1-.2-.3-.2-.5-.4.2 0 .4.2.6.2v-.1c0-.2 0-.3.1-.4.1 0 .2 0 .3.1.1.1.1.7.1.9m-.5.5c0 .2-.1.3-.1.5-.1 0-.2-.1-.3-.1-.3-.2-.7-.6-.5-1 0-.1.1-.2.2-.2.4 0 .7.4.7.8m-.9.6c0 .2-.1.3-.2.5 0 .1-.1.2-.2.3-.1 0-.4-.5-.4-.7v-.3c0-.2.2-.4.4-.5.2.1.4.4.4.7m-1.4-.1c-.1 0-.1.1-.2.1s-.1-.2-.1-.2c-.1-.4-.1-.8.2-1 .1-.1.2-.1.3-.2.1 0 .2.1.3.2.1.1.1.2.1.3-.1.4-.3.6-.6.8m-.6-.8c-.1.1-.2.1-.3.1v-.1c0-.3-.1-.8.1-1.1 0-.1.1-.1.1-.1.1.1.1.2.2.4.1.3.4.1.6 0-.1.2-.3.3-.5.4-.1.1-.1.3-.2.4m-.5-1.3c-.1 0-.2.1-.3 0-.3-.1 0-.8.1-.9.1-.1.2-.1.3-.2h.4V9c0 .4-.2.7-.5.8m0 1.1c-.2.5-.7.9-1.2 1.1-.1.1-.2.2-.4.2 0-.2-.1-.3-.1-.6s.1-.5.1-.8c0-.2.1-.4.1-.6h-.1l-.1.3c-.1.4-.4.7-.8.8-.1 0-.3.1-.4.1h-.2c-.3 0-.3 0-.4-.2-.1 0-.3.1-.4.2-.1 0-.3.1-.4.1H35.5c-.1 0-.2 0-.3-.1-.1-.2.2-.9.3-1 .1-.1.2-.3.2-.4 0-.1-.1-.1-.1-.2-.1-.2.1-.5.2-.6.2-.3.5-.6.9-.7.1-.1.4-.1.5-.3 0 0-.1 0-.1-.1-.1 0-.3 0-.4.1h-.2c-.3 0-.8 0-1-.2-.1-.1 0-.2 0-.3.2-.6.6-.9 1.1-1.2 0-.1-.1-.2-.1-.3-.1-.2.3-.2.4-.2.4 0 .9.1 1.2.3.1.1.4.4.5.4.2 0 .2-.4.3-.3.1.1.2.2.2.3.1.3.2.5.2.8 0 .2-.1.3 0 .5 0 .1.3.1.4.1.1 0 .6.3.6.4-.2.3-.3.4-.3.5-.1.2-.1.3-.2.5 0-.1-.4-.7-.5-.8 0-.1-.1 0-.1.1s.1.3.2.3c0 .1.1.2.1.4.1.2.1.4.1.6v.4c.1 0 .1-.1.1-.2.1-.2.3-.2.6-.2v.2c.1.1.1.4.1.6m-5.8-2c-.1-.1-.3-.2-.2-.3.4 0 1 .1 1.1.4 0 0-.1.2-.2.2 0 .1-.5-.2-.7-.3m-.1.5l.2-.2c.2 0 .2.1.4.1l-.1.1c-.3.2-.5.2-.5 0m.6.7c-.1 0-.1 0-.2.1-.2 0-.5 0-.5-.1l.3-.3c.1-.1.3-.1.4-.2h.1c.1.1 0 .4-.1.5m-.7-.9h-.2c-.4 0-.6-.1-.9-.3-.2-.1-.3-.2-.3-.3h.1c.4-.1 1.3.1 1.3.6m-1.1 0c.1 0 .4.1.3.2-.1.1-.3.2-.3 0-.1-.1-.1-.1 0-.2m1.1.5c0 .2-.4.3-.5.4-.1 0-.2 0-.2.1-.2 0-.5 0-.6-.1.2-.3.5-.3.8-.5 0-.1.5-.1.5.1m-2 .4c-.1 0-.1 0-.2.1-.1 0-.6 0-.6-.1 0-.3.7-.4.8-.5.2 0 .4 0 .6.1 0 0 0 .1-.1.1-.1.1-.3.2-.5.3m-1-.5c-.4 0-.7 0-1-.2 0-.2.6-.3.7-.3.3 0 .5.1.8.2.1.2-.4.3-.5.3m.3-1c.4 0 1 .1 1.2.4 0 0 .1.1.1.2-.2.2-1.6-.3-1.3-.6m1.3-1l.3-.2c.1 0 .3 0 .4-.1.3 0 .5.1.8.2 0 .2-.4.2-.5.3-.3.1-.7.1-1-.2m-.5-.2c-.2 0-.8 0-.8-.2s.4-.2.6-.3c.2 0 .9 0 .9.3 0 .1-.4.2-.4.2h-.3M31 6.1c.5 0 1.1 0 1.3.5-.3.3-1.8-.2-1.3-.5m1.1-.3c.5.1 1.1.4 1.2.9 0 .1-.1 0-.2 0-.2 0-.3-.1-.5-.2s-.6-.5-.5-.7m1.4 1c.2 0 .3.2.3.3h-.1c-.3.1-.3-.1-.2-.3m0-.6c.4 0 .9.3 1.1.7v.2c-.1.2-.7-.2-.8-.3-.2-.2-.3-.4-.3-.6m1.1.1c0 .2-.4 0-.4-.2.2.1.3.1.4.2m.5 1.9s-.1 0 0 0c-.1.1-.1.1 0 0-.3 0-.6 0-.7-.2.1 0 .1-.1.2-.1s.2-.1.3-.1h.2v.4m-.4-.8c.2 0 .3 0 .4.1v.1c-.2 0-.5 0-.4-.2m.2-.8c.2 0 .8.2.7.4 0 .1-.1.2-.2.3-.3 0-.7-.6-.5-.7m6.6 3.5c-.1 0-.2.1-.3.1-.3 0-.1-1.1-.1-1.3.1-.2.2-.2.3-.4.2 0 .2.2.2.4 0 .1.1.3.2.4.1.3-.1.6-.3.8m.9.9c-.1 0-.2-.2-.2-.2-.1-.1-.1-.2-.2-.3-.1-.2-.1-.6.1-.8.1-.1.3-.1.4-.1.1 0 .3.1.3.2.3.4-.1.8-.4 1.2m.5-1.8c0-.1.1-.2.1-.3.1-.2.1-.3.2-.4.2 0 .3.1.4.3.1.2.3 1.4.1 1.4-.1 0-.3-.1-.3-.1-.3-.3-.6-.6-.5-.9m-3-1c.1-.1.3-.2.4-.3l.3-.3c.1-.1.3-.2.5-.3.3-.1.6-.1 1 0 .1 0 .2.1.3.1.1 0 .2-.1.3-.1.1 0 .2-.1.3-.1.3 0 .6 0 .9.1.3.1.4.3.7.5 0 .2.2.2.3.3v.1c-.1 0-.1.1-.2.1s-.2.1-.3.1h-.1c-.3 0-.5 0-.7-.1-.2-.1-.3-.3-.5-.2 0 .1 0 .2-.1.2-.1.4-.2.8-.5 1-.5 0-.6-1-.8-1.3-.1 0-.4.2-.5.3-.1 0-.1.1-.2.1-.2.1-1 .1-1.1-.2 0 .1 0 0 0 0m.4-1.4c-.1-.2-.3-.4-.4-.6-.4-.5-2.2-2.3-2.1-2.8.2.1.4.2.6.4.6.6 1.1 1.3 1.6 1.9l.8.8c0 .2.1.3.2.5 0 .1-.3.2-.3.2-.2-.1-.3-.2-.4-.4m-2.1-1.9c-.2.2-.6.1-.8 0-.3-.2-.5-.5-.7-.7l-.5-.5c-.1-.1-.2-.2-.2-.3-.1-.2-.3-.3-.4-.5-.1-.1-.3-.2-.3-.4v-.1c.1-.1.3-.2.4-.3.3-.3.7-.5 1-.8.2-.1.4-.4.5-.5.3.1.6.7.8.9.2.3.5.6.7.9.2.2.4.5.5.8.1.2 0 .7-.3.8h-.1l-.3-.3c-.3-.3-.7-.7-1.2-.7 0 .1.1.2.1.3.1.4.3.7.5 1 .1.1.2.2.2.3.1 0 .1.1.1.1m2.9-.8c-.2.1-.1.4-.4.4-.1 0-.2 0-.2-.1-.1-.1-.1-.2-.1-.3v-.7V3c0-.3 0-.5.1-.8 0-.6 0-1.2.1-1.8 0-.1.1-.2.2-.3h.2l.3.3s0 .1.1.2.1.1.2.1.3 0 .4-.1c.1-.1.1-.4.3-.4.2 0 .3.1.3.3 0 .1 0 .1.1.1s.5 0 .6-.1c.1-.1.1-.2.1-.3.1-.2.2-.2.3-.3.2 0 .2.1.3.2V1c0 .3 0 .6.1.9v.4c0 .3 0 .6.1.9 0 .3.1.6.1.9 0 .1 0 .2-.1.3-.1.2-.4.2-.5 0-.1-.2-.1-.4-.3-.4h-.2c-.2 0-.5 0-.6.1-.1.1 0 .5 0 .6v2.2c0 .1-.2.1-.3.1-.1 0-.2 0-.2-.1-.1-.2 0-.4 0-.6 0-.5-.1-.9-.1-1.4 0-.2.1-.6 0-.8-.1-.1-.8 0-.9 0m2.7 2.5c.2-.2.3-.5.5-.7.5-.7 1-1.4 1.6-2.2.2 0 .4.1.4.3 0 .1-2.1 3.1-2.2 3.1-.1.1-.4 0-.5-.1 0-.1.2-.3.2-.4M45.5 3c.1-.1.3-.2.4-.3.2-.1.3-.2.4-.3.3-.3.7-.8.8-1.2 0-.2.1-.4.1-.5.2.1.3.2.4.4 0 .1.1.3 0 .5-.1.4-.6 1.1-.9 1.4-.1 0-.2 0-.3.1-.1 0-.1.1-.2.1-.3 0-.6 0-.7-.2m-.4-.6c-.1-.6.5-1.5 1-1.8.2-.1.3-.2.5-.3.8 0 .2 1.2 0 1.5-.1.2-.3.3-.4.5-.2.2-.4.3-.7.4-.2 0-.4-.1-.4-.3m3.3.1c.1.1.2.1.2.2.1.2-.1.4-.2.4l-.1-.1c-.2 0-.3-.1-.4-.2-.1-.1-.3-.2-.4-.3l-.1-.1c0-.1.2-.4.2-.5.4.1.6.4.8.6M47.8 1c.2.1 1 .7 1.1.9.1.2-.1.4-.1.6-.1 0-1-.8-1-.8v-.4V1m1.3 1.1c.2.1.3.3.3.5.1.7-.4 1.3-.9 1.6-.1.1-.3.1-.4.2-.2 0-.5 0-.7-.1 0 0 .2-.1.2-.2.5-.3.9-.8 1.2-1.3.2-.3.2-.5.3-.7m-2.2.9c0-.1.2-.3.3-.4.2.1 1 .6 1 .8 0 .1-.2.3-.2.3-.1 0-.2.1-.2 0-.2-.1-.9-.5-.9-.7m.3 1.1c-.5 0-.8-.3-1.2-.6v-.1c.1 0 .5-.2.6-.2.2.1.3.2.5.3.2.1.3.2.5.4-.1 0-.1.1-.2.1 0 0-.1.1-.2.1m2.6 2.1c.3.1-.2.6-.3.7-.1 0-.2-.1-.2-.2-.3-.3.2-.4.5-.5m.3.3c.2-.4.5-.5.9-.7.7.1-.7 1.2-.9 1-.1-.1 0-.2 0-.3m.1-.6h.2c-.1 0-.1.2-.3.1 0-.1.1-.1.1-.1m.7.8c0-.1.1-.2.2-.3.3.2 0 .4-.2.3m-1.3.5c0-.1.2-.2.2-.2h.3c0 .3-.3.3-.5.2m.1.3c.3 0 .5.1.7.2 0 .2-.3.2-.4.3-.2 0-.3 0-.3-.2s-.1-.3 0-.3m2-.3c0 .2-.4.2-.5.3-.3 0-.6 0-.9-.2 0-.2.4-.3.5-.3.2 0 .9-.1.9.2m.5-1.8c.1 0 .2 0 .3-.1h.1c.1 0 0 .2 0 .2-.2.4-.4.5-.8.7 0 0-.1 0-.1.1h-.2c-.1-.4.3-.7.7-.9m1.1.3c.2 0 .4 0 .6.1v.1h-.1c-.1.2-.3.3-.5.3-.1 0-.1.1-.2.1H53c-.1 0-.5 0-.5-.1-.1-.3.6-.5.8-.5m-.3 1c-.1.2-.3.2-.5.3h-.2c-.2 0-.8 0-.8-.2s.4-.2.5-.3c.4-.1.9-.1 1 .2.1 0 0 0 0 0M51.6 9c0 .2-.4 0-.4 0-.1 0 .2-.2.2-.2h.1c.1.1.1.1.1.2m.1-.9v.2c-.2.3-.5.4-.8.5h-.1c-.1 0-.3 0-.3-.1-.1-.1.2-.4.3-.4.2-.1.4-.2.6-.2h.3m.2.5c.1-.2.4-.4.7-.5H53.2c0 .1-.1.2-.1.2-.1.2-.3.3-.5.3-.1 0-.2.1-.3.1h-.2c-.1 0-.2 0-.3-.1 0 .1 0 0 .1 0m5.3.5h-1.4c-.3 0-.9.1-1.1 0-.1 0-.1-.1-.2-.2s-.3-.2-.5-.3c0-.1.1-.1.1-.1.1-.1.3 0 .4-.1.3 0 .5-.1.8-.1h-1.7c-.1 0-.3 0-.4-.1 0-.1.1-.2 0-.2 0-.1-.1-.1-.1-.1-.2-.1-.5 0-.7 0-.1 0-.3.1-.4.1-.1 0-.1-.1-.1-.1 0-.1.1-.1.1-.1.2-.1.5-.1.7-.1.4-.1.9-.1 1.3-.2h-.7c.2-.1.4-.1.6-.2.6-.1 1-.3 1.4-.3-.1 0-.3 0-.4.1h-.1c-.1 0-.6.1-.7.1-.1 0-.4.1-.5.1H53c-.2 0-.4 0-.5.1h-.7c0-.2.2-.3.3-.4.2-.1.5-.1.7-.1.5-.2 1.1-.3 1.7-.5l.9-.3c-.1 0-.3.1-.4.1-.3.1-.5.1-.8.2-.2 0-.4.1-.5.2h-.2c-.1 0-.3-.2-.2-.3.1 0 .2-.1.3-.2.1-.1.2-.1.4-.2.5-.1 1-.3 1.5-.4.5-.1 1-.3 1.5-.4-.1 0-.4 0-.5.1h-.2c-.3 0-.5.1-.7.2-.3.1-.5.1-.8.2-.1 0-.2.1-.3.1-.2 0-.3-.1-.5-.1-.2-.1-.4-.1-.6-.1v-.1c.1 0 .2-.1.3-.2.3-.1.7-.2 1.1-.4h-.1s-.4.1-.4.2c-.3 0-.5.2-.7.2-.2.1-.4.2-.7.2h-.2v-.2h-.2c-.3 0-.5.1-.7.3-.1.1-.2.2-.3.2H51c0-.1.1-.1.2-.2.2-.2.5-.3.8-.5.3-.1.5-.3.8-.3h-.1-.1c-.3.1-.6.2-.8.3-.7.3-1.5.6-2.2.9-.2.1-.4.2-.7.3-.1 0-.2.1-.2.1-.4 0-.1-.4-.2-.5-.1-.1-.3-.1-.4-.1H47.5c-.4 0-1 .3-1.2.6-.2 0-.2-.3-.4-.3-.1 0-.1.1-.2.1-.3.3-.4.7-.4 1.2v.5c.1.2 0 .2 0 .2-.3 0-1-.4-1-.7 0-.2.3-.5.4-.6.4-.5.8-1.1 1.2-1.6.2-.2.3-.4.5-.7.1-.1.1-.2.2-.2 0 0 .1-.1.2-.1s.3.1.4.2c.2.1.4.2.6.2.4.1.7 0 1-.2.5-.4 1.2-1.3.8-2-.1-.2-.3-.4-.5-.6-.5-.5-1-.9-1.6-1.3-.2-.1-.5-.2-.7-.2-.5 0-1.2.8-1.4 1.2-.3.3-.4.4-.4.6 0 .1-.1.3 0 .4.1.3.5.6.7.9.1.1.2.2.2.3 0 .2-.4.6-.5.7-.4.6-.9 1.2-1.3 1.8-.2.3-.4.5-.6.8-.1 0-.2.1-.2.1-.1 0-.4 0-.5-.1-.1-.2 0-.4 0-.6 0-.5-.1-1-.1-1.5v-.5c0-.1.1-.1.2-.1h.4c.1.1.1.2.2.3.2.2.5.1.7-.1.1-.1.1-.2.1-.4 0-.7-.1-1.3-.2-2 0-.4-.1-.8-.1-1.3 0-.2 0-.4-.1-.5 0-.1-.1-.2-.3-.2-.1.1-.2.1-.3.2-.1.2-.1.3-.3.4h-.2c-.1-.1-.2-.5-.5-.4-.4 0-.3.5-.6.5-.2 0-.3-.2-.4-.4-.1-.1-.2-.1-.3-.2-.1 0-.2 0-.3.1-.1.1-.2.2-.2.3-.1.5-.1 1-.1 1.5 0 .4 0 .9-.1 1.3 0 .3-.1.6 0 .9 0 .1.1.2.1.3.1.1.2.1.3.1.2 0 .3-.1.4-.2 0-.1.1-.1.1-.2.1-.1.3-.1.4-.1.1 0 .2 0 .2.1.1.2.1.9.1 1.1v.6c0 .3.1.6 0 .8 0 .1 0 .1-.1.2s-.4.1-.6 0c-.2-.1-.3-.4-.5-.6-.2-.3-.5-.5-.7-.8-.2-.3-.5-.6-.7-.9-.1-.1-.2-.2-.2-.3 0-.2.1-.3.2-.4.1-.2.2-.4.1-.6 0-.2-.2-.5-.3-.6-.2-.2-.4-.4-.5-.7-.3-.3-.6-.7-.9-1-.1-.1-.3-.4-.4-.5h-.1c-.2.4-.3.5-.5.7-.5.5-1 .9-1.6 1.2 0 .2.8 1.1 1 1.3.2.3.4.5.7.8.2.2.4.4.6.5.2.1.5.1.7.1.1 0 .3-.2.5-.1s.5.6.7.8c.2.2 1.4 1.5 1.3 1.7-.1.3-.9.9-1.1.6-.1-.1 0-.3 0-.4 0-.1 0-.3-.1-.4 0-.2-.1-.4-.2-.5-.1-.2-.2-.4-.4-.4-.1 0-.1 0-.2.1 0 .1-.1.2-.2.2s-.3-.2-.4-.3c-.2-.2-1-.5-1.2-.4-.2 0-.7 0-.7.2-.1.1.2.4-.1.5-.2 0-.5-.2-.6-.2-.4-.2-.8-.4-1.2-.5-.2-.1-.4-.2-.7-.2 0 0 .1.1.1.2h-.5c-.1 0-.4-.2-.5-.2 0 0-.1 0-.1-.1-.1 0-.1 0-.2-.1h-.2c-.1 0-.1 0-.2.1 0 .1 0 .1-.1.2-.2.1-.9-.2-1.1-.3h-.2c0 .1.5.2.6.2.1 0 .1.1.2.1 0 .1-.2.1-.3.1-.2 0-.4.1-.6.2-.2 0-.5-.1-.7-.1-.3 0-.6-.1-.9-.2-.4-.1-.7-.2-1.1-.2h-.1.1c.3.2.6.2.9.3.5.1 1 .2 1.6.3.2 0 .4.1.6.2.1.1.2.1.3.2.1.1.3.1.4.2V7c-.1.1-.1.2-.2.2-.2 0-.4 0-.5-.1-.4-.1-.8-.1-1.1-.2-.1 0-.2-.1-.3 0h.1c.7.2 1.5.4 2.2.5.1 0 .2.1.3.1.2 0 .5 0 .6.1.1.1.2.2.4.3V8c-1 0-1.9-.3-2.8-.4-.2 0-.4-.1-.6-.1h-.1s.1.1.2.1c.4.1.8.2 1.1.2.1 0 .3.1.4.1 0 .1-.5.1-.6.1.3 0 .7.1 1 .1.3 0 .8 0 1.1.1.1 0 0 .1 0 .2-.1.1-.8-.2-1-.1-.1 0-.2 0-.3.1-.1 0 .1.3 0 .3h-2-.1.7c.3 0 .5 0 .7.1l-.4.3s0 .1-.1.2h-3.1 1.1c.4 0 .8 0 1.3-.1h1.3c.1 0 .2 0 .3.1.1 0 .3 0 .4.1 0 0-.1.3-.1.4 0 0-.1 0-.1.1H29h1.1c.5 0 1.1 0 1.6-.1.4 0 .8-.1 1.1-.1.2 0 .4.1.6.1-.1 0-.2.1-.2.1-.1 0-.4 0-.5.1-.1 0-.3 0-.4.1h-1-.1c-.1 0-.2 0-.3.1h-1.1-.3c0 .1 1.3-.1 1.4-.1l2.1-.3c.6-.1 1.2-.3 1.9-.3.1 0 .3-.1.4 0v.1c-.1.2-.1.4-.2.6-.1.2-.1.5-.2.8.3 0 .6 0 .9-.1.2-.1.5-.1.7-.2.1 0 .1.1.2.1.2.1.6 0 .7-.1.2 0 .4-.1.5-.2.1-.1.3-.3.4-.3v.1c0 .3-.1 1 .2 1.2l.1-.1c.5-.3 1-.6 1.4-1.1.1 0 .1.1.2.1s.2 0 .4-.1l.1.2c0 .2 0 .5.1.7.2 0 .5-.4.6-.3.1.1.2.3.2.5.1.2.3.4.4.7.2 0 .6-1.2.7-1.2.1 0 .5.3.6.3V11c0-.2 0-.7.2-.8h.3c.1 0 .1-.1.2-.2l.1.1c.2.2.4.4.7.6.1.1.2.1.4.2s.3.2.5.3v-.1c0-.1 0-.2.1-.3v-.9c.1 0 .3.2.4.2.1.1.3.1.4.2.2.1.7.1.9.1.1 0 .1-.2.3-.2.2 0 .3.1.5.1.3 0 .5.1.8.1h.3c.2-.1-.3-1.2-.3-1.3 0-.1 0-.1.1-.2h.6c.5.1 1 .2 1.5.2.6.1 1.3.1 1.9.2.6.1 1.2.1 1.8 0-.4 0-.8 0-1.2-.1-.7 0-1.4-.1-2.1-.2-.3 0-.5 0-.7-.1v-.1s.1 0 .1-.1c.2-.1.4-.1.5-.1.5 0 .9.1 1.4.1h2.2-.7c-.2 0-.4-.1-.6 0-.2 0-.8 0-.9-.1l-.1-.1s-.1-.1-.1-.2c0 0 0-.1.1-.1.3-.1.5-.1.8-.2h.3c1.1-.1 2.2.1 3.3 0 .3 1.1.1 1.1-.1 1.1"/>
  <path fill="none" stroke="#020400" stroke-width=".021" d="M53.8 9.1h-.2c-.2 0-.8 0-.8-.2s.5-.2.6-.3c.3 0 .6.1.8.2.1.2-.3.2-.4.3zm-.6.4c-.1 0-.1.1-.2.1-.4 0-.8 0-1.1-.2-.1 0-.2-.1-.2-.2.2-.2.3-.1.5-.2.3.1.8.2 1 .5.1 0 0 0 0 0m-1.4.2h-.2c-.4 0-.8 0-1.1-.3 0 0-.1-.1 0-.2 0-.1.1-.1.2-.1.4 0 1 .1 1.2.5l-.1.1m-1.6.1c-.3 0-.6.1-.6-.3v-.3c.3 0 .8.2.8.5 0 .1-.1.1-.2.1m.1-.8c0 .2-.4.2-.4.1-.1-.1.1-.2.1-.2.1 0 .2.1.3.1m-1-.2c-.4-.4.6-.5.7-.6h.3c0 .4-.7.9-1 .6m.4 2.5c-.1.1-.2 0-.3 0-.4 0-.7 0-1-.1-.1 0-.2-.1-.3-.1-.2-.1-.1.2-.2.2h-.2c-.6 0-1-.2-1.3-.7l-.3-.6c-.1 0-.1 0-.1.1v.2c.1.4.3 1.2.1 1.7-.2 0-.4-.2-.6-.3-.3-.2-.9-.6-1-1v-.3c0-.2 0-.3.1-.5.1 0 .4 0 .5.2 0 .1 0 .2.1.2h.1v-.2c0-.4 0-.8.2-1.1.1-.1.1-.2.2-.3v-.2c0-.1-.1 0-.1 0-.3.2-.3.5-.4.8l-.1-.1c-.1-.1-.1-.3-.2-.4 0-.1-.2-.2-.2-.3 0 0 .6-.4.7-.4.1 0 .2 0 .3-.1.1-.1 0-.6 0-.8 0-.4.2-.7.4-1 .1 0 .2.3.3.4.1 0 .3-.3.4-.3.1-.1.2-.2.3-.2.1-.1.4-.1.6-.2.2 0 .5 0 .7.1.1.1-.1.3 0 .4.1.1.4.2.5.3.2.2.7.8.6 1.1-.2.1-.3.1-.5.2h-.2-.1c-.3 0-.6-.1-.9-.1l.2.1c.5.2 1.1.6 1.3 1.1 0 .1.1.2 0 .3 0 .1-.1.1-.2.2v.1c.3.4.8 1.4.6 1.6m-5.8-2.4c0-.1 0-.2.1-.2.2 0 .4 0 .5.1.2.1.5.8.2 1-.4 0-.9-.4-.8-.9m.4 2c0 .1-.1.1-.1.2-.1 0-.2 0-.2-.1-.1-.1-.2-.3-.3-.4-.1-.2-.3-.2-.5-.4.2 0 .4.2.6.2v-.1c0-.2 0-.3.1-.4.1 0 .2 0 .3.1.1.1.1.7.1.9m-.5.5c0 .2-.1.3-.1.5-.1 0-.2-.1-.3-.1-.3-.2-.7-.6-.5-1 0-.1.1-.2.2-.2.4 0 .7.4.7.8m-.9.6c0 .2-.1.3-.2.5 0 .1-.1.2-.2.3-.1 0-.4-.5-.4-.7v-.3c0-.2.2-.4.4-.5.2.1.4.4.4.7m-1.4-.1c-.1 0-.1.1-.2.1s-.1-.2-.1-.2c-.1-.4-.1-.8.2-1 .1-.1.2-.1.3-.2.1 0 .2.1.3.2.1.1.1.2.1.3-.1.4-.3.6-.6.8m-.6-.8c-.1.1-.2.1-.3.1v-.1c0-.3-.1-.8.1-1.1 0-.1.1-.1.1-.1.1.1.1.2.2.4.1.3.4.1.6 0-.1.2-.3.3-.5.4-.1.1-.1.3-.2.4m-.5-1.3c-.1 0-.2.1-.3 0-.3-.1 0-.8.1-.9.1-.1.2-.1.3-.2h.4V9c0 .4-.2.7-.5.8m0 1.1c-.2.5-.7.9-1.2 1.1-.1.1-.2.2-.4.2 0-.2-.1-.3-.1-.6s.1-.5.1-.8c0-.2.1-.4.1-.6h-.1l-.1.3c-.1.4-.4.7-.8.8-.1 0-.3.1-.4.1h-.2c-.3 0-.3 0-.4-.2-.1 0-.3.1-.4.2-.1 0-.3.1-.4.1H35.5c-.1 0-.2 0-.3-.1-.1-.2.2-.9.3-1 .1-.1.2-.3.2-.4 0-.1-.1-.1-.1-.2-.1-.2.1-.5.2-.6.2-.3.5-.6.9-.7.1-.1.4-.1.5-.3 0 0-.1 0-.1-.1-.1 0-.3 0-.4.1h-.2c-.3 0-.8 0-1-.2-.1-.1 0-.2 0-.3.2-.6.6-.9 1.1-1.2 0-.1-.1-.2-.1-.3-.1-.2.3-.2.4-.2.4 0 .9.1 1.2.3.1.1.4.4.5.4.2 0 .2-.4.3-.3.1.1.2.2.2.3.1.3.2.5.2.8 0 .2-.1.3 0 .5 0 .1.3.1.4.1.1 0 .6.3.6.4-.2.3-.3.4-.3.5-.1.2-.1.3-.2.5 0-.1-.4-.7-.5-.8 0-.1-.1 0-.1.1s.1.3.2.3c0 .1.1.2.1.4.1.2.1.4.1.6v.4c.1 0 .1-.1.1-.2.1-.2.3-.2.6-.2v.2c.1.1.1.4.1.6m-5.8-2c-.1-.1-.3-.2-.2-.3.4 0 1 .1 1.1.4 0 0-.1.2-.2.2 0 .1-.5-.2-.7-.3m-.1.5l.2-.2c.2 0 .2.1.4.1l-.1.1c-.3.2-.5.2-.5 0m.6.7c-.1 0-.1 0-.2.1-.2 0-.5 0-.5-.1l.3-.3c.1-.1.3-.1.4-.2h.1c.1.1 0 .4-.1.5m-.7-.9h-.2c-.4 0-.6-.1-.9-.3-.2-.1-.3-.2-.3-.3h.1c.4-.1 1.3.1 1.3.6m-1.1 0c.1 0 .4.1.3.2-.1.1-.3.2-.3 0-.1-.1-.1-.1 0-.2m1.1.5c0 .2-.4.3-.5.4-.1 0-.2 0-.2.1-.2 0-.5 0-.6-.1.2-.3.5-.3.8-.5 0-.1.5-.1.5.1m-2 .4c-.1 0-.1 0-.2.1-.1 0-.6 0-.6-.1 0-.3.7-.4.8-.5.2 0 .4 0 .6.1 0 0 0 .1-.1.1-.1.1-.3.2-.5.3m-1-.5c-.4 0-.7 0-1-.2 0-.2.6-.3.7-.3.3 0 .5.1.8.2.1.2-.4.3-.5.3m.3-1c.4 0 1 .1 1.2.4 0 0 .1.1.1.2-.2.2-1.6-.3-1.3-.6m1.3-1l.3-.2c.1 0 .3 0 .4-.1.3 0 .5.1.8.2 0 .2-.4.2-.5.3-.3.1-.7.1-1-.2m-.5-.2c-.2 0-.8 0-.8-.2s.4-.2.6-.3c.2 0 .9 0 .9.3 0 .1-.4.2-.4.2h-.3M31 6.1c.5 0 1.1 0 1.3.5-.3.3-1.8-.2-1.3-.5m1.1-.3c.5.1 1.1.4 1.2.9 0 .1-.1 0-.2 0-.2 0-.3-.1-.5-.2s-.6-.5-.5-.7m1.4 1c.2 0 .3.2.3.3h-.1c-.3.1-.3-.1-.2-.3m0-.6c.4 0 .9.3 1.1.7v.2c-.1.2-.7-.2-.8-.3-.2-.2-.3-.4-.3-.6m1.1.1c0 .2-.4 0-.4-.2.2.1.3.1.4.2m.5 1.9s-.1 0 0 0c-.1.1-.1.1 0 0-.3 0-.6 0-.7-.2.1 0 .1-.1.2-.1s.2-.1.3-.1h.2v.4m-.4-.8c.2 0 .3 0 .4.1v.1c-.2 0-.5 0-.4-.2m.2-.8c.2 0 .8.2.7.4 0 .1-.1.2-.2.3-.3 0-.7-.6-.5-.7m6.6 3.5c-.1 0-.2.1-.3.1-.3 0-.1-1.1-.1-1.3.1-.2.2-.2.3-.4.2 0 .2.2.2.4 0 .1.1.3.2.4.1.3-.1.6-.3.8m.9.9c-.1 0-.2-.2-.2-.2-.1-.1-.1-.2-.2-.3-.1-.2-.1-.6.1-.8.1-.1.3-.1.4-.1.1 0 .3.1.3.2.3.4-.1.8-.4 1.2m.5-1.8c0-.1.1-.2.1-.3.1-.2.1-.3.2-.4.2 0 .3.1.4.3.1.2.3 1.4.1 1.4-.1 0-.3-.1-.3-.1-.3-.3-.6-.6-.5-.9m-3-1c.1-.1.3-.2.4-.3l.3-.3c.1-.1.3-.2.5-.3.3-.1.6-.1 1 0 .1 0 .2.1.3.1.1 0 .2-.1.3-.1.1 0 .2-.1.3-.1.3 0 .6 0 .9.1.3.1.4.3.7.5 0 .2.2.2.3.3v.1c-.1 0-.1.1-.2.1s-.2.1-.3.1h-.1c-.3 0-.5 0-.7-.1-.2-.1-.3-.3-.5-.2 0 .1 0 .2-.1.2-.1.4-.2.8-.5 1-.5 0-.6-1-.8-1.3-.1 0-.4.2-.5.3-.1 0-.1.1-.2.1-.2.1-1 .1-1.1-.2 0 .1 0 0 0 0m.4-1.4c-.1-.2-.3-.4-.4-.6-.4-.5-2.2-2.3-2.1-2.8.2.1.4.2.6.4.6.6 1.1 1.3 1.6 1.9l.8.8c0 .2.1.3.2.5 0 .1-.3.2-.3.2-.2-.1-.3-.2-.4-.4m-2.1-1.9c-.2.2-.6.1-.8 0-.3-.2-.5-.5-.7-.7l-.5-.5c-.1-.1-.2-.2-.2-.3-.1-.2-.3-.3-.4-.5-.1-.1-.3-.2-.3-.4v-.1c.1-.1.3-.2.4-.3.3-.3.7-.5 1-.8.2-.1.4-.4.5-.5.3.1.6.7.8.9.2.3.5.6.7.9.2.2.4.5.5.8.1.2 0 .7-.3.8h-.1l-.3-.3c-.3-.3-.7-.7-1.2-.7 0 .1.1.2.1.3.1.4.3.7.5 1 .1.1.2.2.2.3.1 0 .1.1.1.1m2.9-.8c-.2.1-.1.4-.4.4-.1 0-.2 0-.2-.1-.1-.1-.1-.2-.1-.3v-.7V3c0-.3 0-.5.1-.8 0-.6 0-1.2.1-1.8 0-.1.1-.2.2-.3h.2l.3.3s0 .1.1.2.1.1.2.1.3 0 .4-.1c.1-.1.1-.4.3-.4.2 0 .3.1.3.3 0 .1 0 .1.1.1s.5 0 .6-.1c.1-.1.1-.2.1-.3.1-.2.2-.2.3-.3.2 0 .2.1.3.2V1c0 .3 0 .6.1.9v.4c0 .3 0 .6.1.9 0 .3.1.6.1.9 0 .1 0 .2-.1.3-.1.2-.4.2-.5 0-.1-.2-.1-.4-.3-.4h-.2c-.2 0-.5 0-.6.1-.1.1 0 .5 0 .6v2.2c0 .1-.2.1-.3.1-.1 0-.2 0-.2-.1-.1-.2 0-.4 0-.6 0-.5-.1-.9-.1-1.4 0-.2.1-.6 0-.8-.1-.1-.8 0-.9 0m2.7 2.5c.2-.2.3-.5.5-.7.5-.7 1-1.4 1.6-2.2.2 0 .4.1.4.3 0 .1-2.1 3.1-2.2 3.1-.1.1-.4 0-.5-.1 0-.1.2-.3.2-.4M45.5 3c.1-.1.3-.2.4-.3.2-.1.3-.2.4-.3.3-.3.7-.8.8-1.2 0-.2.1-.4.1-.5.2.1.3.2.4.4 0 .1.1.3 0 .5-.1.4-.6 1.1-.9 1.4-.1 0-.2 0-.3.1-.1 0-.1.1-.2.1-.3 0-.6 0-.7-.2m-.4-.6c-.1-.6.5-1.5 1-1.8.2-.1.3-.2.5-.3.8 0 .2 1.2 0 1.5-.1.2-.3.3-.4.5-.2.2-.4.3-.7.4-.2 0-.4-.1-.4-.3m3.3.1c.1.1.2.1.2.2.1.2-.1.4-.2.4l-.1-.1c-.2 0-.3-.1-.4-.2-.1-.1-.3-.2-.4-.3l-.1-.1c0-.1.2-.4.2-.5.4.1.6.4.8.6M47.8 1c.2.1 1 .7 1.1.9.1.2-.1.4-.1.6-.1 0-1-.8-1-.8v-.4V1m1.3 1.1c.2.1.3.3.3.5.1.7-.4 1.3-.9 1.6-.1.1-.3.1-.4.2-.2 0-.5 0-.7-.1 0 0 .2-.1.2-.2.5-.3.9-.8 1.2-1.3.2-.3.2-.5.3-.7m-2.2.9c0-.1.2-.3.3-.4.2.1 1 .6 1 .8 0 .1-.2.3-.2.3-.1 0-.2.1-.2 0-.2-.1-.9-.5-.9-.7m.3 1.1c-.5 0-.8-.3-1.2-.6v-.1c.1 0 .5-.2.6-.2.2.1.3.2.5.3.2.1.3.2.5.4-.1 0-.1.1-.2.1 0 0-.1.1-.2.1m2.6 2.1c.3.1-.2.6-.3.7-.1 0-.2-.1-.2-.2-.3-.3.2-.4.5-.5m.3.3c.2-.4.5-.5.9-.7.7.1-.7 1.2-.9 1-.1-.1 0-.2 0-.3m.1-.6h.2c-.1 0-.1.2-.3.1 0-.1.1-.1.1-.1m.7.8c0-.1.1-.2.2-.3.3.2 0 .4-.2.3m-1.3.5c0-.1.2-.2.2-.2h.3c0 .3-.3.3-.5.2m.1.3c.3 0 .5.1.7.2 0 .2-.3.2-.4.3-.2 0-.3 0-.3-.2s-.1-.3 0-.3m2-.3c0 .2-.4.2-.5.3-.3 0-.6 0-.9-.2 0-.2.4-.3.5-.3.2 0 .9-.1.9.2m.5-1.8c.1 0 .2 0 .3-.1h.1c.1 0 0 .2 0 .2-.2.4-.4.5-.8.7 0 0-.1 0-.1.1h-.2c-.1-.4.3-.7.7-.9m1.1.3c.2 0 .4 0 .6.1v.1h-.1c-.1.2-.3.3-.5.3-.1 0-.1.1-.2.1H53c-.1 0-.5 0-.5-.1-.1-.3.6-.5.8-.5m-.3 1c-.1.2-.3.2-.5.3h-.2c-.2 0-.8 0-.8-.2s.4-.2.5-.3c.4-.1.9-.1 1 .2.1 0 0 0 0 0M51.6 9c0 .2-.4 0-.4 0-.1 0 .2-.2.2-.2h.1c.1.1.1.1.1.2m.1-.9v.2c-.2.3-.5.4-.8.5h-.1c-.1 0-.3 0-.3-.1-.1-.1.2-.4.3-.4.2-.1.4-.2.6-.2h.3m.2.5c.1-.2.4-.4.7-.5H53.2c0 .1-.1.2-.1.2-.1.2-.3.3-.5.3-.1 0-.2.1-.3.1h-.2c-.1 0-.2 0-.3-.1 0 .1 0 0 .1 0m5.3.5h-1.4c-.3 0-.9.1-1.1 0-.1 0-.1-.1-.2-.2s-.3-.2-.5-.3c0-.1.1-.1.1-.1.1-.1.3 0 .4-.1.3 0 .5-.1.8-.1h-1.7c-.1 0-.3 0-.4-.1 0-.1.1-.2 0-.2 0-.1-.1-.1-.1-.1-.2-.1-.5 0-.7 0-.1 0-.3.1-.4.1-.1 0-.1-.1-.1-.1 0-.1.1-.1.1-.1.2-.1.5-.1.7-.1.4-.1.9-.1 1.3-.2h-.7c.2-.1.4-.1.6-.2.6-.1 1-.3 1.4-.3-.1 0-.3 0-.4.1h-.1c-.1 0-.6.1-.7.1-.1 0-.4.1-.5.1H53c-.2 0-.4 0-.5.1h-.7c0-.2.2-.3.3-.4.2-.1.5-.1.7-.1.5-.2 1.1-.3 1.7-.5l.9-.3c-.1 0-.3.1-.4.1-.3.1-.5.1-.8.2-.2 0-.4.1-.5.2h-.2c-.1 0-.3-.2-.2-.3.1 0 .2-.1.3-.2.1-.1.2-.1.4-.2.5-.1 1-.3 1.5-.4.5-.1 1-.3 1.5-.4-.1 0-.4 0-.5.1h-.2c-.3 0-.5.1-.7.2-.3.1-.5.1-.8.2-.1 0-.2.1-.3.1-.2 0-.3-.1-.5-.1-.2-.1-.4-.1-.6-.1v-.1c.1 0 .2-.1.3-.2.3-.1.7-.2 1.1-.4h-.1s-.4.1-.4.2c-.3 0-.5.2-.7.2-.2.1-.4.2-.7.2h-.2v-.2h-.2c-.3 0-.5.1-.7.3-.1.1-.2.2-.3.2H51c0-.1.1-.1.2-.2.2-.2.5-.3.8-.5.3-.1.5-.3.8-.3h-.1-.1c-.3.1-.6.2-.8.3-.7.3-1.5.6-2.2.9-.2.1-.4.2-.7.3-.1 0-.2.1-.2.1-.4 0-.1-.4-.2-.5-.1-.1-.3-.1-.4-.1H47.5c-.4 0-1 .3-1.2.6-.2 0-.2-.3-.4-.3-.1 0-.1.1-.2.1-.3.3-.4.7-.4 1.2v.5c.1.2 0 .2 0 .2-.3 0-1-.4-1-.7 0-.2.3-.5.4-.6.4-.5.8-1.1 1.2-1.6.2-.2.3-.4.5-.7.1-.1.1-.2.2-.2 0 0 .1-.1.2-.1s.3.1.4.2c.2.1.4.2.6.2.4.1.7 0 1-.2.5-.4 1.2-1.3.8-2-.1-.2-.3-.4-.5-.6-.5-.5-1-.9-1.6-1.3-.2-.1-.5-.2-.7-.2-.5 0-1.2.8-1.4 1.2-.3.3-.4.4-.4.6 0 .1-.1.3 0 .4.1.3.5.6.7.9.1.1.2.2.2.3 0 .2-.4.6-.5.7-.4.6-.9 1.2-1.3 1.8-.2.3-.4.5-.6.8-.1 0-.2.1-.2.1-.1 0-.4 0-.5-.1-.1-.2 0-.4 0-.6 0-.5-.1-1-.1-1.5v-.5c0-.1.1-.1.2-.1h.4c.1.1.1.2.2.3.2.2.5.1.7-.1.1-.1.1-.2.1-.4 0-.7-.1-1.3-.2-2 0-.4-.1-.8-.1-1.3 0-.2 0-.4-.1-.5 0-.1-.1-.2-.3-.2-.1.1-.2.1-.3.2-.1.2-.1.3-.3.4h-.2c-.1-.1-.2-.5-.5-.4-.4 0-.3.5-.6.5-.2 0-.3-.2-.4-.4-.1-.1-.2-.1-.3-.2-.1 0-.2 0-.3.1-.1.1-.2.2-.2.3-.1.5-.1 1-.1 1.5 0 .4 0 .9-.1 1.3 0 .3-.1.6 0 .9 0 .1.1.2.1.3.1.1.2.1.3.1.2 0 .3-.1.4-.2 0-.1.1-.1.1-.2.1-.1.3-.1.4-.1.1 0 .2 0 .2.1.1.2.1.9.1 1.1v.6c0 .3.1.6 0 .8 0 .1 0 .1-.1.2s-.4.1-.6 0c-.2-.1-.3-.4-.5-.6-.2-.3-.5-.5-.7-.8-.2-.3-.5-.6-.7-.9-.1-.1-.2-.2-.2-.3 0-.2.1-.3.2-.4.1-.2.2-.4.1-.6 0-.2-.2-.5-.3-.6-.2-.2-.4-.4-.5-.7-.3-.3-.6-.7-.9-1-.1-.1-.3-.4-.4-.5h-.1c-.2.4-.3.5-.5.7-.5.5-1 .9-1.6 1.2 0 .2.8 1.1 1 1.3.2.3.4.5.7.8.2.2.4.4.6.5.2.1.5.1.7.1.1 0 .3-.2.5-.1s.5.6.7.8c.2.2 1.4 1.5 1.3 1.7-.1.3-.9.9-1.1.6-.1-.1 0-.3 0-.4 0-.1 0-.3-.1-.4 0-.2-.1-.4-.2-.5-.1-.2-.2-.4-.4-.4-.1 0-.1 0-.2.1 0 .1-.1.2-.2.2s-.3-.2-.4-.3c-.2-.2-1-.5-1.2-.4-.2 0-.7 0-.7.2-.1.1.2.4-.1.5-.2 0-.5-.2-.6-.2-.4-.2-.8-.4-1.2-.5-.2-.1-.4-.2-.7-.2 0 0 .1.1.1.2h-.5c-.1 0-.4-.2-.5-.2 0 0-.1 0-.1-.1-.1 0-.1 0-.2-.1h-.2c-.1 0-.1 0-.2.1 0 .1 0 .1-.1.2-.2.1-.9-.2-1.1-.3h-.2c0 .1.5.2.6.2.1 0 .1.1.2.1 0 .1-.2.1-.3.1-.2 0-.4.1-.6.2-.2 0-.5-.1-.7-.1-.3 0-.6-.1-.9-.2-.4-.1-.7-.2-1.1-.2h-.1.1c.3.2.6.2.9.3.5.1 1 .2 1.6.3.2 0 .4.1.6.2.1.1.2.1.3.2.1.1.3.1.4.2V7c-.1.1-.1.2-.2.2-.2 0-.4 0-.5-.1-.4-.1-.8-.1-1.1-.2-.1 0-.2-.1-.3 0h.1c.7.2 1.5.4 2.2.5.1 0 .2.1.3.1.2 0 .5 0 .6.1.1.1.2.2.4.3V8c-1 0-1.9-.3-2.8-.4-.2 0-.4-.1-.6-.1h-.1s.1.1.2.1c.4.1.8.2 1.1.2.1 0 .3.1.4.1 0 .1-.5.1-.6.1.3 0 .7.1 1 .1.3 0 .8 0 1.1.1.1 0 0 .1 0 .2-.1.1-.8-.2-1-.1-.1 0-.2 0-.3.1-.1 0 .1.3 0 .3h-2-.1.7c.3 0 .5 0 .7.1l-.4.3s0 .1-.1.2h-3.1 1.1c.4 0 .8 0 1.3-.1h1.3c.1 0 .2 0 .3.1.1 0 .3 0 .4.1 0 0-.1.3-.1.4 0 0-.1 0-.1.1H29h1.1c.5 0 1.1 0 1.6-.1.4 0 .8-.1 1.1-.1.2 0 .4.1.6.1-.1 0-.2.1-.2.1-.1 0-.4 0-.5.1-.1 0-.3 0-.4.1h-1-.1c-.1 0-.2 0-.3.1h-1.1-.3c0 .1 1.3-.1 1.4-.1l2.1-.3c.6-.1 1.2-.3 1.9-.3.1 0 .3-.1.4 0v.1c-.1.2-.1.4-.2.6-.1.2-.1.5-.2.8.3 0 .6 0 .9-.1.2-.1.5-.1.7-.2.1 0 .1.1.2.1.2.1.6 0 .7-.1.2 0 .4-.1.5-.2.1-.1.3-.3.4-.3v.1c0 .3-.1 1 .2 1.2l.1-.1c.5-.3 1-.6 1.4-1.1.1 0 .1.1.2.1s.2 0 .4-.1l.1.2c0 .2 0 .5.1.7.2 0 .5-.4.6-.3.1.1.2.3.2.5.1.2.3.4.4.7.2 0 .6-1.2.7-1.2.1 0 .5.3.6.3V11c0-.2 0-.7.2-.8h.3c.1 0 .1-.1.2-.2l.1.1c.2.2.4.4.7.6.1.1.2.1.4.2s.3.2.5.3v-.1c0-.1 0-.2.1-.3v-.9c.1 0 .3.2.4.2.1.1.3.1.4.2.2.1.7.1.9.1.1 0 .1-.2.3-.2.2 0 .3.1.5.1.3 0 .5.1.8.1h.3c.2-.1-.3-1.2-.3-1.3 0-.1 0-.1.1-.2h.6c.5.1 1 .2 1.5.2.6.1 1.3.1 1.9.2.6.1 1.2.1 1.8 0-.4 0-.8 0-1.2-.1-.7 0-1.4-.1-2.1-.2-.3 0-.5 0-.7-.1v-.1s.1 0 .1-.1c.2-.1.4-.1.5-.1.5 0 .9.1 1.4.1h2.2-.7c-.2 0-.4-.1-.6 0-.2 0-.8 0-.9-.1l-.1-.1s-.1-.1-.1-.2c0 0 0-.1.1-.1.3-.1.5-.1.8-.2h.3c1.1-.1 2.2.1 3.3 0 .3 1.1.1 1.1-.1 1.1"/>
  <path fill="#211915" d="M42.7 1.4h.4c.1.1.2.5 0 .6h-.2c-.1 0-.2 0-.2-.1-.1 0-.1-.4 0-.5zm-.1.8h.8c.1-.1 0-.8 0-.9h-.5c-.1 0-.2 0-.3.1-.2 0-.2.7 0 .8M41.3 1.5l.1-.1h.4c.1.1.2.4.1.5l-.1.1h-.4c-.2 0-.2-.4-.1-.5zm-.1.7c.1 0 .6 0 .7-.1.1-.1.1-.8 0-.9-.1-.1-.3-.1-.4-.1-.1 0-.3 0-.3.1l-.1.1c0 .1-.1.7 0 .8 0 .1.1.1.1.1M43.3 3.3c-.1.1-.2 0-.3.1-.4 0-.4-.1-.4-.5v-.3c0-.1.1-.1.2-.1.4 0 .5 0 .5.5.1.1.1.3 0 .3zm.1-.8c-.2-.1-.6 0-.8 0l-.1.1v.9c.1.1.8 0 .9 0 .2 0 .1-1 0-1M41.8 3.4h-.3c-.1 0-.2 0-.3-.1-.1-.1-.1-.5 0-.6l.1-.1h.5c.1.2.1.7 0 .8zm.1-.9c-.1-.1-.4 0-.6 0-.1 0-.2 0-.3.1-.1.1-.1.9 0 1 .2 0 .8.1.9 0 .2-.1.1-1 0-1.1M33.5 5.8c0-.1 0-.1 0 0-.3-.2-.5-.2-.8-.3l-.9-.3c.2.1.5.2.8.3.4.1.6.2.9.3.1 0 .1 0 0 0z"/>
  <path fill="none" stroke="#020400" stroke-width=".021" d="M33.5 5.8c0-.1 0-.1 0 0-.3-.2-.5-.2-.8-.3l-.9-.3c.2.1.5.2.8.3.4.1.6.2.9.3.1 0 .1 0 0 0z"/>
  <path fill="#211915" d="M30.2 5.4H30s.1.1.2 0c0 .1 0 0 0 0zM46.3 7.9c.5-.4 1-.6 1.7-.6.1 0 .2 0 .2-.1v-.1h-.5c-.2 0-.3 0-.5.1-.3.1-.6.2-.8.5l-.3.3.2-.1zM38.2 7.9c.1.1.3.3.5.3 0-.4-1-.7-1.3-.8h-.7c-.1 0-.1 0-.1.1s.2 0 .2 0c.4 0 .7 0 1 .1.1.1.2.2.4.3zM55.8 8.2h-.2.2zM48 9.6c-.1-.1-.2-.2-.4-.3-.4-.3-1-.8-1.5-.9H46v.1c0 .1.6.4.7.4.5.3.9.6 1.3 1.1.1.1.2.2.3.2.1 0 .1 0 .1-.1.1-.2-.3-.4-.4-.5zM38.6 8.5c-.2.1-.3.2-.5.3-.2.1-1.8 1.3-1.7 1.6 0 .1.2-.1.3-.1.2-.2.4-.4.7-.6.5-.4.9-.7 1.5-1-.1-.2-.2-.2-.3-.2z"/>
  <g>
    <path fill="#211915" d="M20.3 23c-.4-.5-.9-.8-1.6-.9.2.2.5.3.6.5.5.6.7 1.4.5 2.3-.4 2.3-2 3.6-4.5 3.5H15c0 .2-.1 1-.1 1-.1 1-.2 2.1-.2 3.3v.1h-2.4v.5h.2c1 0 2.1-.1 3.1 0h.2v-.2c0-1.1.1-2.2.2-3.3 0 0 .1-.8.1-1h.2c2.5.1 4.2-1.2 4.6-3.5.1-.9-.1-1.7-.6-2.3z"/>
    <path fill="#211915" d="M16.4 26c.1-.8.2-1.9.3-2.3 0-.1-.1-.2-.1-.3-.2-.2-.4-.3-.8-.3 0 .2-.4 3.3-.4 3.5.2 0 .5-.1.7-.2 0 0 .2-.2.3-.4zM23.3 27.9c0-.2-.4-2.4-.5-2.9-.2.5-1.3 2.7-1.4 2.9h1.9zM23.6 29.6h-3.1c0 .1-.2.5-.2.5l-.7 1.6-.4 1h-1c-.1.1-.1.2-.1.2l-.1.3h2.2l.4-1.1.7-1.6s.1-.3.2-.4h2.2c-.1-.2-.1-.3-.1-.5zM28.1 31.4c-.3-1.4-.7-3.3-1.4-6.9l-.2-1.6-.1-.9h-.2c-.2 0-.5 0-.7.1 0 .2.1.4.1.4l.2 1.6c.8 4.6 1.2 6.5 1.7 8l.6-.7zM31.3 28.7l-.2 1.6s0 .5-.1.7h1v-.3l.2-1.6c.3-3 .6-4.7 1.1-6.9V22h-1.1c-.3 2.2-.6 3.9-.9 6.7zM40.9 26.5c-.1.4-.1.9-.2 1.3v.1h-.1c-.8-.1-1.6-.1-2.3-.1h-.6c0 .2-.1.8-.1.8l-.1.9-.1.8s-.1.5-.1.7h1v-.2l.1-.8.1-.9s.1-.5.1-.7h.5c.8 0 1.5 0 2.3.1h.2v-.2c0-.6.1-1.1.2-1.6v-.2H40.9zM42.4 22h-.8c-.1.5-.1.9-.2 1.4v.1h-.1c-.9-.1-1.6-.1-2.4-.1h-.3-.2c0 .2-.1.7-.1.7l-.1.7-.2.8s-.1.4-.1.6h1V26l.1-.7.1-.8s.1-.4.1-.6h.5c.8 0 1.6 0 2.4.1h.2v-.2c0-.5.1-1.1.2-1.6V22h-.1zM45.9 26.5l.1-.1c.1-.9.3-2.6.4-2.7h.1c0-.1-.1-.2-.2-.2-.2-.2-.5-.2-.9-.2h-.1c0 .1-.4 3.2-.5 3.4h.1c.5.1.8 0 1-.2zM44.8 28.7c0 .3-.1.7-.1.7-.1 1-.2 2-.3 3.3v.1h-.9H42c0 .1 0 .2-.1.3v.2l2.5-.1.9.1v-.2c0-.8.1-1.6.2-2.3-.3-.9-.6-1.6-.7-2.1zM50.2 31.6c-.7-1.2-1.5-2.8-1.7-3.4 0 0-.1-.2-.1-.3.4-.3 1.8-1.1 2-1.8.2-.5.3-.9.3-1.4 0-.4-.1-.8-.2-1.1-.3-.6-.8-1.1-1.5-1.4-.1 0-.3-.1-.4-.1.4.3.7.6.9 1.1.2.3.2.7.2 1.1 0 .4-.1.9-.3 1.4-.3.7-1.7 1.6-2.1 1.8 0 .1.1.3.1.3.2.7 1.4 2.9 2.1 4l.7-.2z"/>
    <path fill="#211915" d="M52.8 27c0 .1-.2.7-.2.7-.4 1.7-.8 3.4-1 5v.1s-3.1-.1-4.6 0l.1.4s3.8-.1 5.4 0V33c.2-1.4.5-2.8.8-4.3-.1-.6-.3-1.2-.5-1.7zM56.3 27.2l.4.9v.1c.1-.3.4-.7.5-.9-.8-2.2-1.2-3.5-1.6-5.2V22l-.6.1h-.2c.3 1.6.7 2.8 1.5 5.1zM63.2 22.2V22h-1c-.2 2.8-.2 5.6-.1 8.6l.1 2.1h-2.6v.5h.2c.8-.1 1.6-.1 2.4 0h1l-.1-2.1c-.1-3.2 0-6.1.1-8.9zM59.1 28.7v-1.6c-1.1 1.8-2.2 3.7-3.1 5.6v.1h-.5l.1.4H56.9l.1-.1c.6-1.3 1.3-2.6 2.1-3.9v-.5zM74.3 23.8c-.4-.5-.9-.8-1.4-1.1.2.1.3.3.5.5.9 1 1.2 2.5 1 4.1-1 5.1-4.7 5.5-4.7 5.5-1.8.4-3.3.3-4.4-.3 1.1 1.1 3.1 1.6 5.4 1 0 0 3.9-.8 4.7-5.5.1-1.7-.2-3.2-1.1-4.2z"/>
    <path fill="#211915" d="M66.6 30.6c.2.4.6.7 1.1.9 0-.1-.1-.1-.1-.2-.1-.2-.5-2.1-.3-3.3.3-2.4 1-3.7 2.2-4 .5-.1 1-.2 1.3 0-.1-.2-.3-.3-.4-.4-.5-.4-1.1-.4-1.9-.2-1.1.3-1.8 1.6-2.2 4.1-.2.9.1 2.8.3 3.1z"/>
    <path fill="#FFF" d="M15.3 22.9c.4 0 .7.1.9.3.2.3.3.7.2 1.4-.1.9-.4 1.4-.8 1.7-.2.1-.7.3-.8.3 0-.1.4-3.7.5-3.7-.1 0 0 0 0 0zm.5-1.4c-1 0-2.7.1-3.4 0 0 .5-.8 7.8-1.4 10.8 1 0 2.1-.1 3.1 0 0-1.2.1-2.2.2-3.3 0 0 .1-1 .1-1.1h.3c2.4.1 4.1-1.2 4.4-3.4.1-.9 0-1.6-.5-2.2-.5-.6-1.3-.9-2.2-.9l-.6.1M67.3 31.2c-.5-.1-1-.5-1.2-.9-.1-.2-.5-2.1-.3-3.4.4-2.5 1.1-3.8 2.2-4.1.8-.2 1.4-.2 1.9.2.6.4.9 1.2 1 2.3.1 3.8-1.3 5.2-1.7 5.5-.6.5-1.3.6-1.9.4zm1.6-9.8c-2.6 0-4.8 1.4-5.7 3.6-.7 1.7-.8 3.6-.3 4.8.7 2.3 3.1 3.3 6.2 2.6 0 0 3.8-.8 4.6-5.4.3-1.6-.1-3-.9-4-.8-1.1-2.2-1.6-3.9-1.6M52 21.5c-.6 2.8-1.1 5.5-2.2 9l-.5 1.9h1.8c.2-1.6.6-3.2 1-5 0 0 .2-.8.3-1 .4 1.2.9 2.5 1.3 4l.4 1.3.2.7h1.1c1-2 2.1-4 3.3-5.9V28.4c0 1.3-.1 2.6-.3 3.9.8-.1 1.6-.1 2.4 0h.9l-.1-2c-.1-3.1-.1-6 .1-8.9-.7.1-1.3.1-1.9 0-.9 1.8-1.4 2.9-2.9 5.4 0 0-.5.9-.7 1.2 0-.1-.1-.2-.1-.2l-.3-.8c-.8-2.4-1.2-3.7-1.7-5.4h-.5c-.6 0-1 0-1.6-.1z"/>
    <path fill="none" d="M23.1 26.7c-.3.5-.5 1.1-.7 1.4h.9c.1-.1 0-.7-.2-1.4z"/>
    <path fill="#211915" d="M22.8 24.8c-.1.2-1.6 3.1-1.6 3.2h1.2c.2-.3.4-.9.7-1.4-.1-.7-.3-1.7-.3-1.8zM20.4 29.7l-.2.5-.7 1.6-.4 1h-.6l-.2.4h1.9l.4-1 .7-1.6.2-.5h2.2c0-.1 0-.2-.1-.4-.9-.1-1.9-.1-3.2 0zM28.5 33.1c-.5-1.7-.9-3.4-1.8-8.5l-.2-1.6-.1-.8c-.3 0-.6.1-1 .1v.3l.2 1.6c.9 5.1 1.3 6.8 1.8 8.5v.1h-.1c-.8-.1-1.6-.1-2.4-.1v.4h3.6z"/>
    <path fill="#3B6435" d="M23.1 26.7c.1.7.2 1.3.2 1.4h-.9c-.1.2-.2.3-.2.4h2.2c0-.1-.6-3-.6-3.3 0 .1-.3.8-.7 1.5z"/>
    <g fill="#211915">
      <path d="M31 30.4s-.1.7-.1.8H32v-.4l.2-1.6c.3-3 .6-4.7 1.1-6.9v-.1h-.1c-.4 0-.7 0-1.1.1-.4 2-.7 3.7-1 6.5l-.1 1.6zM34.8 31.4c-.4.1-.7.1-1.1.1-.1.4-.1.8-.1 1.2-.7 0-1.3-.1-2.1-.1h-2.6l-.1.4h.1c1.2-.1 2.4-.1 3.7-.1.8 0 1.4 0 2.1.1 0-.5 0-1 .1-1.6z"/>
    </g>
    <g fill="#211915">
      <path d="M40.1 32.8c-1.6 0-3-.1-4.5 0h-.5c0 .1 0 .3-.1.4h6.1l.1-1 .1-.8h-.1c-.3 0-.7.1-1.1.1v1.3zM40.6 28c-.9-.1-1.6-.1-2.4-.1h-.6c0 .2-.1.9-.1.9l-.1.9-.1.8s-.1.7-.1.8h1.2V31l.1-.8.1-.9s.1-.7.1-.8h.6c.8 0 1.5 0 2.3.1 0-.6.1-1.1.2-1.6v-.1h-.1c-.4 0-.8.1-1.1.1.1.1 0 .5 0 1zM42.5 22.3h-1.1c-.1.4-.1.8-.1 1.3-.8-.1-1.7-.1-2.4-.1h-.3-.3c0 .1-.1.7-.1.7l-.2.7-.1.7s-.1.6-.1.7h1.1V26l.1-.7.1-.8s.1-.6.1-.7h.6c.8 0 1.6 0 2.4.1.2-.5.2-1 .3-1.6z"/>
    </g>
    <path fill="#FFF" d="M22.4 24.5c0 .2.6 3.2.6 3.3h-2.2c.1-.2 1.5-3.1 1.6-3.3zm2.4-2.9c-.9.1-1.7.1-2.6 0l-.2.5c-.5 1.4-1.6 3.6-3.9 8.1l-.6 1.1v.1l-.6 1.1h1.9l.4-1 .7-1.6.2-.5c1.2 0 2.2-.1 3.2 0l.3 2.1.1 1c1.1-.1 2.2-.1 3.4 0H27c-.5-1.7-.9-3.4-1.8-8.5l-.2-1.7-.2-.7M31.8 21.5c-1 .1-2.1.1-3.1 0-.2 3.1-.6 6.2-1.1 9.2v.1l-.3 1.6h.1c1.2-.1 2.4-.1 3.7-.1.8 0 1.4 0 2.1.1 0-.6.1-1.2.2-1.7h-.1c-1 .2-1.9.2-2.8.2 0-.1.1-.8.1-.8l.2-1.6c.3-3 .6-4.7 1-7zM41 21.5c-1.9.1-4 .1-6 0l-.1 1.6c-.3 3.6-.7 6.4-1.3 9.2h6.1l.1-1 .1-.8c-.8.1-1.6.2-2.5.2h-.3-.3c0-.1.1-.8.1-.8l.1-.8.1-.9s.1-.7.1-.9h.6c.8 0 1.5 0 2.3.1 0-.6.1-1.1.2-1.6v-.1h-.1c-.8.1-1.6.2-2.4.2h-.6c0-.1.1-.7.1-.7l.1-.7.1-.8s.1-.6.1-.7h.6c.8 0 1.6 0 2.4.1.3-.4.4-1 .4-1.6zM43 32.4h.8l.3-3.3.1-1.1c.1.3 1.3 3.2 1.6 4.4 1.2-.1 2.2-.1 3.4 0-.3-.5-2.2-3.9-2.5-4.8l-.1-.4s2-1 2.3-1.8c.7-1.7 0-3.1-1.3-3.6-.6-.2-2.4-.2-2.6-.2-1.4.1-2 .1-3 0 0 .5-.8 7.8-1.4 10.8H43zm1.4-5.8l.5-3.6h.1c1-.2 1.5.3 1.3 1.7-.2 1.5-.8 2.1-1.7 2l-.2-.1"/>
  </g>
  <g fill="#D8AD00">
    <path d="M13.4 44c0-.2-.3-.3-.5-.3-.5 0-.7.3-.7.6s.2.6.7.6c.3 0 .5-.1.6-.3l.4.1c-.2.3-.5.5-1 .5-.8 0-1.2-.4-1.2-.9s.4-.9 1.2-.9c.5 0 .9.2 1 .5l-.5.1zM14.3 43.5H16v.3h-1.3v.4h1.2v.3h-1.2v.4h1.4v.3h-1.8v-1.7zM16.5 43.5h1c.5 0 .8.2.8.5 0 .4-.4.5-.5.5l.5.7h-.5l-.5-.6H17v.6h-.5v-1.7zm.5.7h.5c.2 0 .4-.1.4-.3 0-.1-.2-.2-.5-.2H17v.5zM18.6 43.5h.5l.5 1.3.5-1.3h.5l-.7 1.6h-.6l-.7-1.6zM21 43.5h1.7v.3h-1.3v.4h1.2v.3h-1.2v.4h1.4v.3H21v-1.7zM23.1 44.8l1.3-1.1h-1.2v-.3H25v.3l-1.3 1.1H25v.3h-1.9v-.3zM26 43.5h.5l.8 1.6h-.5l-.1-.3h-.9l-.1.3h-.5l.8-1.6zm.3.3l-.3.7h.7l-.4-.7zM29.3 43.8h-.7v-.3h1.8v.3h-.7v1.3h-.5v-1.3zM30.8 43.5h1c.5 0 .8.2.8.5 0 .4-.4.5-.5.5l.5.7h-.5l-.5-.6h-.4v.6h-.5v-1.7zm.5.7h.5c.2 0 .4-.1.4-.3 0-.1-.2-.2-.5-.2h-.4v.5zM33.7 43.5h.5l.8 1.6h-.5l-.1-.3h-.9l-.1.3h-.5l.8-1.6zm.3.3l-.3.7h.7l-.4-.7zM35.4 43.5h.9c.8 0 1.2.3 1.2.8s-.4.8-1.1.8h-.9v-1.6zm.5 1.3h.4c.5 0 .7-.1.7-.5 0-.3-.2-.5-.7-.5h-.4v1zM38 43.5h.5v1.6H38v-1.6zM40.7 44c0-.2-.3-.3-.5-.3-.5 0-.7.3-.7.6s.2.6.7.6c.3 0 .5-.1.6-.3l.4.1c-.2.3-.5.5-1 .5-.8 0-1.2-.4-1.2-.9s.4-.9 1.2-.9c.5 0 .9.2 1 .5l-.5.1zM41.6 43.5h.4v1.6h-.5v-1.6zM44.9 44.3c0 .5-.4.9-1.2.9s-1.2-.4-1.2-.9.4-.9 1.2-.9 1.2.4 1.2.9zm-1.9 0c0 .3.2.6.7.6.5 0 .7-.3.7-.6s-.2-.6-.7-.6c-.5 0-.7.3-.7.6zM45.4 43.5h.4l1 1.2v-1.2h.4v1.6h-.4l-1-1.2v1.2h-.4v-1.6zM48.5 43.5h.5l.8 1.6h-.5l-.1-.3h-.9l-.1.3h-.5l.8-1.6zm.2.3l-.3.7h.7l-.4-.7zM50.2 43.5h.5v1.3h1v.3h-1.5v-1.6zM53.7 43.5h.5l.8 1.6h-.5l-.1-.3h-.9l-.1.3h-.5l.8-1.6zm.3.3l-.3.7h.7l-.4-.7zM55.4 43.5h1c.5 0 .8.2.8.5 0 .4-.4.5-.5.5l.5.7h-.5l-.5-.6h-.4v.6h-.5v-1.7zm.5.7h.5c.2 0 .4-.1.4-.3 0-.1-.2-.2-.5-.2h-.4v.5zM59.4 44c-.1-.1-.2-.3-.6-.3-.5 0-.7.3-.7.6s.2.6.7.6c.3 0 .6-.2.6-.4h-.6v-.3h1v.9h-.4V45c-.2.1-.4.2-.7.2-.8 0-1.2-.4-1.2-.9s.4-.9 1.2-.9c.5 0 .9.2 1 .5l-.3.1zM60.4 43.5h1.7v.3h-1.3v.4H62v.3h-1.2v.4h1.4v.3h-1.8v-1.7zM62.7 43.5h.4l1 1.2v-1.2h.4v1.6h-.4l-1-1.2v1.2h-.4v-1.6zM65.6 43.8h-.7v-.3h1.8v.3H66v1.3h-.5v-1.3zM67.2 43.5h.5v1.6h-.5v-1.6zM68.2 43.5h.4l1 1.2v-1.2h.4v1.6h-.4l-1-1.2v1.2h-.4v-1.6zM71.3 43.5h.5l.8 1.6h-.5l-.1-.3h-.9l-.1.3h-.5l.8-1.6zm.3.3l-.3.7h.7l-.4-.7z"/>
  </g>
</svg>
