<svg xmlns="http://www.w3.org/2000/svg" viewBox="0 0 68.8 38.7">
  <g fill="#A58C57">
    <path d="M33.7.2l.3 1.2-.5.1c-.1-.2-.3-.5-.5-.6-.2-.1-.4-.2-.7-.2-.2 0-.3 0-.4.1-.1.1-.1.1-.1.2s0 .2.1.2c.1.1.2.1.4.2l.7.2c.4.1.7.3.8.4.2.2.3.4.3.6 0 .3-.1.6-.4.8-.3.2-.6.4-1.1.4-.2 0-.4 0-.5-.1-.2-.1-.3-.1-.5-.2l-.1.3h-.4l-.3-1.4.5-.1c.1.3.3.5.5.7.2.2.5.3.8.3h.3c.1 0 .2-.1.2-.1 0-.1.1-.1.1-.2s0-.2-.2-.3c-.1-.1-.3-.2-.5-.2l-.5-.2c-.1 0-.2-.1-.4-.1-.2-.1-.3-.2-.4-.2-.1-.1-.2-.2-.2-.3v-.5c0-.2 0-.4.1-.5.1-.2.3-.3.5-.4.2-.1.5-.1.7-.1.3 0 .6.1.9.2l.1-.2h.4zM35.6.2h1.8v.5H37l-.1.1V3.2s0 .1.1.1h.4v.5h-1.8v-.5H35.9s.1 0 .1-.1V1 .8s0-.1-.1-.1h-.4V.2zM38.9.2h2c.4 0 .8.1 1 .2.3.1.5.4.6.6.2.3.2.6.2 1 0 .3 0 .5-.1.7-.1.2-.2.4-.4.6-.2.2-.3.3-.5.4-.1.1-.3.1-.6.1-.2 0-.4.1-.6.1h-1.7v-.6h.4l.1-.1V1 .8s0-.1-.1-.1H38.9V.2zm1.4.6v2.4l.1.1h.2c.3 0 .5 0 .7-.1.2-.1.3-.2.4-.4.1-.2.2-.4.2-.7 0-.3 0-.5-.1-.7-.1-.2-.2-.3-.4-.4-.1-.1-.3-.1-.6-.1h-.5zM44.3.2h2.8c.2 0 .3.1.5.2.1.1.3.2.3.3 0 .2.1.3.1.5 0 .3-.1.5-.3.7-.2.2-.4.3-.7.3l.8.9.1.1s.1 0 .1.1h.4v.5h-1.2L46 2.2h-.3v1s0 .1.1.1h.4v.5h-1.8v-.5h.4l.1-.1V1 .8s0-.1-.1-.1H44.5V.2zm1.3.6v1h.6c.2 0 .4 0 .5-.1.1 0 .2-.1.2-.2.1-.1.1-.2.1-.3 0-.1 0-.2-.1-.3-.1-.1-.1-.1-.2-.1h-1.1zM51 .2h.8L52.9 3c.1.2.1.3.2.3 0 0 .1.1.3.1v.5h-1.8v-.6H51.9l.1-.1s0-.1-.1-.2l-.1-.3h-1.1l-.1.4V3.4h.4v.5h-1.4v-.6h.2s.1 0 .1-.1c0 0 .1-.1.1-.2l1-2.8zm-.1 2h.7l-.4-1-.3 1z"/>
  </g>
  <path fill="none" stroke="#A58C57" stroke-width=".1" d="M60.1 29.6c.1-.3.2-.8.2-1.4V11.3c0-1.1-.4-2.6-3.6-2.6h-.5" stroke-linecap="round"/>
  <g fill="#A58C57">
    <path d="M66.7 21.1v-20-1c0-.2-.4-.2-.5 0-.1.3-2.8 5.1-9.9 7.4-.3.1-.1.2 0 .2.9 0 4.9-.3 4.9 3.3v16.9c0 .9-.3 1.7-.3 1.8.1-.1.8-.6 1.6-1.2.2-.1.4-.3.6-.4.2-.1.4-.3.6-.4 2-1.4 4.6-2.6 5-3.1-.9-.2-2-1.3-2-3.5zM18.9 20.2s9.6-2.6 9.6-9.2c0-5.9-5.5-7.9-10.1-7.9-2.2 0-3.7.4-4.7.7V1.1v-1c0-.2-.4-.2-.5 0-.1.3-2.3 4.7-9.1 7 0 0 .1-.1.1-.4 0-.8-.8-1.5-1.7-1.5-.9.1-1.6.8-1.6 1.6 0 1.8 2 1.5 2.3 1.5.9 0 5-.8 5 2.8V28s-1.3 1.2-3.5 3-3.3 3.2-3.3 4.4c0 1 .5 2.2 2.1 2.2.9 0 1.7-.7 1.7-1.5s-.7-1.5-1.7-1.5h-.3c.2-.6.8-1.5 2.3-1.5 1.9 0 4.7 1.7 6.1 3.3.3.3.5.7.8 1.1.9-.8 1.7-1.6 2.5-2.4 1.2-1 2.1-1.6 2.5-1.9-.5-.4-1.3-.9-2.1-1.3-2.8-1.4-5.6-2.2-7-2.3-.1 0 .3-.3 1.2-1 .2-.1.4-.3.6-.4.2-.1.4-.3.6-.4 2-1.4 4.6-2.6 5-3.1-1-.3-2.1-1.3-2.1-3.6v-16c.4-.1.7-.1 1.1-.1 3.2 0 6.8 1.3 6.8 6.8 0 6.4-6.3 8.4-6.3 8.4s3.5 3.1 6.4 9.7c5.3 12 17 6.9 17 6.9-11.4 0-8.9-16.6-19.7-16.6z"/>
    <path d="M43.7 19c0-4.9-1.8-8.5-7.8-8.5s-7.8 4-7.8 8.9c0 6.1 3.4 9.5 7.9 9.5 5.7 0 6.4-4.1 6.4-4.1s-1.3 1.5-3.6 1.5c-3.5 0-4.6-2.3-4.6-6.3 4.1-1.4 9.5-1 9.5-1zm-9.6-.1v-1.6c0-2.7.7-4.6 2.1-4.6 1.5 0 1.9 2.2 1.9 4.9-2.9.5-4 1.3-4 1.3zM58.9 16.9c0-2 .4-6.4-7-6.4-2.5 0-7.2.6-7.2 4.2s4.3 2.8 5.2 1.9c.9-.9.6-2.8-1.4-3.2 0 0 .2-.8 2.3-.8 2.1 0 2.7 1.3 2.7 2.5s.4 2.3-3.6 3.2c-4 .8-6.1 2.5-6.1 5.3 0 2.7 1.9 4.9 4.6 4.9 3.1 0 5-2.7 5-2.7s-4 .7-4-2.3c0-2.5 3-2.5 4-5.2v2.8c0 3 1 5.2 2.9 6.7.2.2.4.3.6.4.2.2.4.3.6.4.8.6 1.5 1.1 1.6 1.2 0-.1-.3-.9-.3-1.8.1-.6.1-11.1.1-11.1z"/>
  </g>
  <g fill="none" stroke="#A58C57" stroke-width=".1" stroke-linecap="round">
    <path d="M47 18.3c-3.7 0-3.2-4.3-2.7-5.2M52.6 15.7v-.3c0-.8-.3-1.8-2-1.8H50M53.3 25.3c-.5-1.2-.7-2.5-.7-4v-.5M48 29.4c-2.9-.2-5.1-2.5-5.1-5.6 0-.9.2-1.7.6-2.4M57.2 29.5c-.1-.1-.2-.1-.2-.2-.2-.1-.4-.3-.6-.4-.2-.1-.4-.3-.6-.4-.8-.6-1.4-1.3-1.9-2.1"/>
  </g>
  <g fill="none" stroke="#A58C57" stroke-width=".1" stroke-linecap="round">
    <path d="M36.1 29.8h-.2c-5.1 0-8.6-4.1-8.6-10.2 0-1.7.2-3.1.6-4.4M37.3 17.2c-.1-2.3-.5-3.6-1.2-3.6-.3 0-.5.2-.7.5"/>
  </g>
  <g fill="none" stroke="#A58C57" stroke-width=".1" stroke-linecap="round">
    <path d="M7.4 27.8V11.2c0-1.1-.3-2.2-2.8-2.2H3.1h-.5c-.6.2-1.1.1-1.5-.1C.4 8.5 0 7.8 0 7c0-.2 0-.3.1-.5M18.4 17.2c1.1-1.2 2.1-2.9 2.1-5.3 0-4-2-6.1-6-6.1h-.2M33.6 38.6h-.8c-4 0-9-1.5-12.1-8.4-2.8-6.4-6.2-9.5-6.2-9.5l-.1-.1M11.6 37.8c-.2-.2-.4-.5-.5-.7-1.3-1.4-4-3-5.6-3-.4 0-.7.1-1 .2M2.7 38.4C1.3 38.1.6 36.8.6 35.6c0-.6.2-1.2.6-1.9"/>
  </g>
  <g>
    <g fill="#D9CF7E">
      <path d="M39.3 12.5c.6 1.2 1.2 2.9 1.4 5.1h.8c-.2-1.8-.6-3.2-1-4.4-.4-.3-.8-.5-1.2-.7zM32.8 12.5c-.4.2-.8.4-1.1.7-1 2.8-1.4 6.2-.8 9.4.2 1.2.5 2.3.9 3.3.4.4.9.7 1.3 1-.7-1.2-1.2-2.7-1.5-4.4-.6-3.5-.1-7.2 1.2-10z"/>
    </g>
    <path fill="#D9CF7E" d="M64.4 21.5V4.6c-.2.2-.5.4-.8.6v16.2c0 1.8.4 3.2.9 4.1.2-.1.4-.3.6-.4-.4-.7-.7-2-.7-3.6zM57.2 26.6c-.5-4.2-.5-11.3-.5-13.2l-.1-.1c-.2-.2-.4-.3-.6-.5v.2c0 1.6-.1 8.4.3 12.9.3.2.6.5.9.7zM22.8 5.2c-.6-.2-1.2-.4-1.7-.5 1.7 1.2 3.3 3.2 3.3 6.5 0 2.4-.5 4.1-1.1 5.4.4-.3.8-.5 1.2-.8.4-1.2.7-2.7.7-4.6 0-2.7-1.1-4.6-2.4-6zM14 34.1c-2.5-1.9-5-2.8-6.8-3.3-.2.2-.4.4-.7.6 1.8.3 4.3 1.3 7 3.2.2-.2.4-.3.5-.5zM24.4 27.4c-1.1-2.2-2-3.9-2.6-5.2-.3-.1-.7-.3-1-.4.6 1.3 1.6 3.3 2.9 5.9 1.4 2.8 3.5 6.1 6.3 8.3.5.1 1.1.2 1.6.3-3.2-2.1-5.6-5.8-7.2-8.9zM11.3 25.7c.2-.1.4-.3.6-.4-.4-.8-.8-2.1-.8-3.8V4.9c-.2.2-.5.4-.7.6v16c0 1.9.4 3.3.9 4.2zM47.2 20.8c-.4.2-.7.4-1 .6-.1.5-.1 1.1-.1 1.6 0 1.3.4 2.7 1 3.8.3.2.7.2 1 .3-.8-1.1-1.3-2.6-1.3-4.1.1-.8.2-1.5.4-2.2zM47.1 13.2c0-.1 0-.1.1-.2-.5.3-.9.8-1 1.5 0 .5.1.8.2 1.2.2.2.5.3 1 .4-.3-.5-.4-1.1-.4-1.9-.1-.4 0-.7.1-1z"/>
  </g>
</svg>
