<svg xmlns="http://www.w3.org/2000/svg" viewBox="0 0 80.2 48.4">
  <path fill="#FFF" d="M33.8 27.2h5.9v20.5h-6.9c-.3.1-.7.1-1.1.1-2.4 0-4.6-1-5.7-3.7-1.6 2.9-4 4-6.7 4-1 0-1.7-.2-2.4-.4H0V28.1h8.2c3.2 0 6.2 2.4 6.2 6.4 0 1.7-.8 3-.8 3 1.1-2.2 3.5-3.3 5.8-3.2 2.4 0 4.9.7 6.3 4.4 1.1-2.7 2.6-4.3 6.1-4.2.8 0 1.1.1 2 .3v-7.6zM68.6 27.4h11.7v20.5H65.6c-1.1.4-2.2.6-3 .6-1.9 0-5.2-.6-6.1-3.7-.7 1.7-3.6 3.1-4.9 3.1h-9.5V28.4h7.6c3.1 0 6.1 1.5 6.1 5.5 0 .3 0 .7-.1 1.1h13l-.1-7.6z"/>
  <path fill="#BD003E" d="M17.2 40c0-1.2.9-2.1 2.1-2.1 1.2 0 2.1.9 2.1 2.1h-4.2zm17.9 5.2c-.9.9-2.1 1.5-3.5 1.5-2.8 0-5.1-2.5-5.1-5.6 0-3.1 2.3-5.6 5.2-5.6 1.3 0 2.5.6 3.5 1.5v-8.5h3.4v18.2H35l.1-1.5zm-28-12.9H4.9v14.2H1.2V29.3h6.6c2.9 0 5.2 2.3 5.2 5.1 0 2.4-1.7 4.4-4 4.9l5 7.2H9.8l-3.6-5.6v-4.1h.9c1.3 0 2.4-1 2.4-2.2 0-1.3-1.1-2.3-2.4-2.3zM24.8 42v-.7c0-3.7-2.4-5.8-5.5-5.8s-5.7 2.6-5.7 5.8c0 3.1 2.5 5.7 5.7 5.8 2.4 0 4.3-1.1 5.2-2.8L21.7 43c-.4.8-1.2 1.3-2.2 1.3-1.3 0-2.3-1-2.3-2.1v-.1l7.6-.1zm28.5-11.2c.8.8 1.3 1.9 1.3 3.1 0 1.3-.6 2.5-1.5 3.4 2.3 1.1 3 2.5 3 4.4 0 2.7-2.4 4.9-5.3 4.9h-7.6V29.5h5.9c1.9 0 3.4.4 4.2 1.3zm25.8 15.9h-3.4V28.6h3.4v18.1zm-5.8 0h-3.4V28.6h3.4v18.1zm-12.7-4.4v-6.2h-3.4V43c0 2.3 2.4 4.2 5.3 4.2 3 0 5.4-1.9 5.4-4.2v-6.9h-3.4v6.2c0 1-.9 1.9-2 1.9-1 0-1.9-.8-1.9-1.9z"/>
  <path fill="#F0CE00" d="M28.6 12.4C28.6 5.5 34.2 0 41 0c6.9 0 12.4 5.6 12.4 12.5s-5.6 12.4-12.5 12.4c-6.8 0-12.3-5.6-12.3-12.5z"/>
  <path fill="#FFF" d="M51 17c.1-.1.1-.2.2-.4.1-.1.1-.2.2-.3h-.8c.1.2.2.4.4.7zm-.2 2.3c-.1.5-.5.9-1.2 1-.3 0-.8-.1-1.1-.3-.2-.1-.4-.1-.5-.2-.2 0-.3-.1-.4-.1h-1c-.3 0-.8-.1-1.1-.4-.8.8-1.7 1-2.5 1-.3 0-1-.3-.9-.8-1 0-1.4-.8-.8-1.3.1-.1.2-.1.3-.2l.5-.5c.5-.5.8-1.1 1.1-1.8.3-.7.4-1.4.6-2.2.3-1.5.7-3.1 1.9-4.4.9-1 1.6-1.5 3.4-2.8.5-.4 1.1-.9 1.6-1.3s1-.8 1.5-.8c.8-.1 2.2.2 3.2 1.6h.2c.3.2.4.2.6.3.4.1 1 .2 1.5.5.3.2.6.4.8.5.1.1.2.1.3.2.1.1.2.2.3.2.1.1.3.1.5.1h.3c.1 0 .2 0 .3.1.4.1.7.3 1.1.5l.9.6c.3.2.7.3 1.1.4.2 0 .4.1.7.1.2.1.5.2.8.3.6.3 1 .5 1.4.8.4.3.7.5 1 .7.6.4 1.1.7 1.7.7.5 0 .8-.3.8-.7 0-.2-.1-.4-.3-.7L69 10l-.5-.5c-.3-.3-.7-.7-.9-1-.3-.4-.5-.8-.4-1.2 0-.5.3-.9.6-1.2.7-.6 1.3-.8 1.8-1 .2-.1.5-.1.7-.2.2-.1.3-.1.5-.2s.3-.2.4-.3c.1 0 .1-.1.2-.1s.2 0 .4.1c.1.4.2.7.2.9V6c0 1-.6 1.9-1.9 2.3 1 1 1.8 2 1.8 3.1 0 2-1.8 2.9-3.2 2.9h-.5c.1.5 0 .9 0 1.2 0 .2-.1.4-.2.6l-.1.2c0 .1 0 .1.2.1h.8c.7.2.8.7.9 1.1.1.2.1.4.2.6 0 0 0 .1.1.2.3-.3.6-.5.9-.5.4 0 1.3.8 1.5 1 .1.1.1.3.1.4v.1c0-.2.5-.2.7.2.2.3.2.5.2.9v.1c0 .1 0 .2.1.2 0 .1.1.2.1.3v.3c0 .2-.2.3-.3.4-.1.1-.3.2-.4.2-.3.1-.6.2-.8.2-.1 0-.3-.1-.4-.1h-1c-.7 0-1.1-.3-1.4-.6-.1-.1-.2-.3-.2-.4-.1 0-.1.1-.2.1s-.1.1-.2.1h-.1-.1c-.5 0-.9-.3-1.3-.5-.2-.1-.3-.3-.5-.4-.2-.1-.4-.2-.7-.3-.2 0-.4-.1-.6-.1h-.7c-.8.2-1.4-.2-1.9-.5-.1-.1-.2-.2-.4-.2-.1-.1-.3-.2-.4-.4-.4-.5-.6-1.1-.7-1.8-.3.1-.6.1-.8.1l-1.3-.1c-1 0-1.4.1-2.1.2h-1.4l-.1.1c.2 0 .2.1.3.2h1.5c.4 0 .7.2.7.7 0 .3-.5 1.6-1.4 1.8-.1.5-.5 1.3-1.5 1.3-.7 0-1.9-.4-2.9-.7-.1 0-.2-.1-.2-.1 0-.1-.1-.1-.2-.1l-.1-.1h-.5c-.1 0-.3-.1-.4-.1-.3-.3-.4-.6-.5-.9.3.1.3 0 .3 0zm-19.1-3.2c-.4.1-.7.1-1 .2.1.2.2.4.3.7.1-.2.3-.4.4-.6l.3-.3zm-17.2.1c-.2-.3-.4-1-.5-2-2.9.5-4.3-1.5-4.2-3.2.1-1.3.4-1.8 1.9-3-1.5-.2-2.3-1.5-2.2-2.5.1-.8.3-1 .5-1.3l.2-.2.2.2s1.1.7 1.5.9h.4c.2 0 .6.1.9.2.6.2 1.3.6 1.5 1.4.2.8 0 1.3-.3 1.9-.2.2-.4.4-.7.6-.3.2-.6.5-.9.7-.5.4-.7.8-.7 1.2.1.5.5.8.9.8.6 0 1.1-.3 1.8-.8.3-.2.7-.5 1-.7.3-.2.7-.5 1.1-.7.3-.2.7-.3.9-.3.3-.1.5-.1.8-.1.4-.1.8-.1 1.2-.3.1-.1.3-.2.4-.4.2-.1.4-.3.6-.5.4-.3.9-.6 1.5-.7h.5c.2 0 .3 0 .4-.1l.2-.2.4-.4c.3-.3.7-.6 1.3-.8.7-.2 1.2-.4 1.7-.6.4-.2.9-.4 1.5-.8.4-.3 1.9-.8 3.5.3.5.3.9.6 1.3 1s1 .8 1.7 1.4c.2.2.5.5.7.8.2.3.4.5.6.8.8 1 1.4 1.7 1.5 2.6.2 1.6.4 2.5 1 4.1l.1.1.1.1.1.2.2.2c.1.1.2.3.3.4.1.1.2.3.3.4.2.3.4.5.7.7.4.2.5.3.6.4.3.3.1.6-.1.8-.1.1-.3.2-.6.2.1.4-.2.9-.9.9-1.4 0-2.3-.6-2.6-1-.1.1-.4.3-.7.4-.3.2-.7.1-1 .1h-.9c-.2.1-.5.2-.8.3-.3.1-.6.2-1 .2-.6 0-1-.2-1.2-.6-.1-.1-.1-.2-.1-.3-.2.4-.5.8-.7.9-.2.1-.5.1-.7.1h-.3-.1c-.9.5-2.5 1-3 1-.7 0-1.4-.5-1.7-1.3-.3 0-.6-.1-.8-.2-.4-.4-.9-1.4-.9-1.8 0-.3.2-.5.3-.6.2-.1.4-.2.6-.2.4-.1.8-.1 1-.1h.5c.1-.2.4-.2.6-.3h.1l-.3-.3c-.1 0-.1 0-.2.1-.2 0-.4.1-.7.1-.8 0-2.1-.1-2.2-.1-.2 0-.6.1-1 .1-.3.1-.7.1-1 .1-.1.3-.3.6-.4.8-.1.3-.3.5-.4.7-.2.2-.4.4-.6.5-.1 0-.2.1-.2.1-.1 0-.1.1-.2.1-.2.1-.4.3-.7.4-.3.1-.6.2-1 .2-.7-.1-1.3-.2-1.5-.2-.1 0-.2 0-.4.1-.1.1-.2.1-.3.2-.1.1-.2.2-.3.2-.4.3-.9.7-1.6.6h-.5c-.1.1-.1.1-.1.2s-.1.1-.1.2c-.1.1-.1.2-.1.2-.2.3-.6.5-1.2.6h-.1-.2c-.1 0-.3 0-.4-.1-.2.7-.3.7-.4.7h-.1l-.1.1c-.1 0-.1.1-.2.1s-.4 0-.7-.1c-.1 0-.3-.1-.5-.2-.1-.1-.3-.2-.4-.4-.1-.3 0-.5.1-.7 0-.1.1-.1.1-.2s0-.1.1-.2c0-.1 0-.3.1-.4 0-.1.1-.3.1-.4.1-.3.4-.6.8-.6.3-.8 1.2-1.2 1.7-1.2.4.1.7.3.8.6.1-.1.2-.2.2-.3 0 0 0-.1.1-.1 0-.1 0-.1.1-.2 0-.1.1-.3.2-.5.1-.3.4-.7.8-.7s.9-.1 1.2-.2l.2-.2z"/>
  <path fill="#BD003E" d="M72.8 20c.2.2.1.6.2.8 0 .2.3.3.1.5l-.7.2c-.1 0-.1-.1-.1-.2-.1-.4-.2-.7-.3-1.1 0-.2.2-.4.4-.5.1 0 .2.2.4.3zm-63 0v.1c-.2.4-.3.8-.4 1.3-.3 0-.5-.1-.8-.2-.1-.1 0-.1 0-.2.3-.2.2-.6.3-.9 0-.2.2-.4.4-.5.2 0 .3.3.5.4zm61.3-1.5c.3.2.6.4.8.7 0 .2 0 .3-.1.4-.1.1-.2.2-.4.2s-.3-.1-.4-.2c-.2-.2-.4-.5-.4-.7.1-.3.3-.6.5-.4zm-59.9.2c-.2.3-.4.7-.7.9h-.4c-.1-.1-.2-.1-.2-.3 0-.1 0-.3.1-.4.3-.2.5-.3.8-.5.1 0 .2-.1.2 0 0 0 .1.1.2.3zm44.4-.4c0 .3-.1.6-.2.9-.1.2-.4.1-.6.1-.2-.1-.5-.1-.6-.4 0-.3.1-.5.2-.7h.9c.2 0 .3 0 .3.1zm-28.3.3c0 .1.2.3.1.4-.3.2-.6.3-.9.3-.3-.2-.2-.6-.5-.8 0-.2-.3-.2-.3-.4l.1-.1c.4 0 .7 0 1.1-.1.4 0 .3.5.4.7zM54.4 5.7c.4.2.5.7.9.8.7.2 1.4.3 2 .6.5.2.9.6 1.3.9.4.2.9.2 1.3.3.6.2 1.1.6 1.6 1 .7.6 1.7.5 2.5.8 1.3.4 2.3 1.4 3.5 2 .6.3 1.5.5 2.2.1.4-.3.7-.7.6-1.2-.2-1.3-1.7-2-2.4-3.1-.1-.3-.2-.6-.2-.9.3-.6.9-1 1.5-1.2.5-.2 1-.2 1.5-.4.2-.1.3-.2.4-.3.1 0 .1.1.1.2.1.8 0 1.6-.7 2-.3.2-.6.2-.9.3 0 .2-.6-.1-.5.4.1.2.3.4.4.5.9.7 1.7 1.7 1.8 2.9 0 .9-.6 1.7-1.4 2-.6.2-1.3.3-1.9.2-.2 0-.4-.2-.5 0 0 .2.1.4.1.7.1.4 0 1-.1 1.4-.1.3-.4.7-.1 1.1.3.4.9.3 1.3.4.3.1.3.3.4.5.1.2.1.5.2.7 0 .5.5.7.8 1 .3.3.6 1 1.2.9.2.4.3.8.3 1.2l-.1.1c-.5 0-1.1.1-1.4-.2-.4-.3-.5-1-1.1-.8-.2.2-.6.3-.9.1-.3-.1-.5-.4-.7-.5-.8-.6-1.8-.9-2.8-.6-.6.2-1-.2-1.5-.5-.6-.3-.8-.9-.9-1.5l-.1-.7c0-.1.1-.1.1-.1h.1c.4 1 .9 1.6 1.9 2 .8.4 1.6-.1 2.4.1.8.1 1.5.6 2.1 1.1.1 0 .1-.1.1-.1-.7-.9-1.7-1.6-2.9-1.5-1 .2-2-.1-2.5-1-.3-.5-.6-.8-.6-1.4-.1-.6-.2-1.3-.4-1.9l-.2-.1H62c.1.6.4 1.4.2 2-.2.5-.7.7-1.2.7h-1.4c-1.2 0-2.1.3-3.3.2.1-.3.3-.5.2-.8 0-.1-.2-.1-.3 0-.2.1-.2.4-.3.6-.3.4-.7.8-1.2.9-.3.3-.7.6-.9.9-.1.1-.1.3-.1.4.2.6.9.6 1.4.8.3 0 .5-.1.6-.3.2-.4.3-.9.8-1h1.1c.1 0 .2.1.2.2v.2c-.2.3-.4.7-.7.9-.2.1-.4 0-.5.2-.1.4-.2.8-.5 1-.3.2-.7.1-1 0-.6-.2-1.2-.3-1.8-.5-.3-.1-.4-.4-.6-.5-.3-.1-.5.1-.8-.1-.1-.3-.2-.5-.3-.8-.1-.2-.1-.4-.2-.6 0-.2 0-.3.1-.5l.8-1.5c.1-.1.1-.2.2-.2.2 0 .4.1.6.3v.1l-.9 1.3c-.2.4 0 .9.2 1.2l.1.1v-.8c.1-.2.2-.5.4-.7l.7-1c.1-.2 0-.4 0-.6-.3-.3-.7-.4-1-.8-.5-.7-.5-1.6-.5-2.5 0-.1-.1-.2-.2-.2s-.2.1-.2.1c-.2.6-.1 1.3.1 1.9.1.4.3.8.5 1.2 0 .1 0 .2-.1.2-.4 0-.9 0-1.3-.1-.6-.1-1-.5-1.5-.9 0 0-.1 0-.2.1.1.6.8 1 1.1 1.6.2.5.6.8.7 1.4 0 .1-.1.2-.1.2-.2 0-.3-.1-.5 0 0 .3.2.6 0 .9-.2.2-.4.5-.7.5-.6-.2-1.1-.4-1.7-.6-.4 0-.9 0-1.3.1-.4-.1-.6-.4-.9-.6h-.2c-.7.6-1.4 1.3-2.3 1.3-.1 0-.1-.1-.1-.1v-.1c.4-.4.9-.8 1.1-1.3.1-.4.5-.8.7-1.2 0-.1 0-.1-.1-.1h-.1c-.5.5-.8 1-1.2 1.6-.3.4-.9.6-1.4.4-.1-.1-.1-.1 0-.2 2-1.2 2.2-3.4 2.8-5.4.4-1.3.7-2.7 1.7-3.7 1.5-1.7 3.5-2.7 5.2-4.2-.1-.4.2-.6.5-.6.8-.1 1.4.3 2 .7zm-42.7-.1c.8.2 1.6.2 2.2.8.3.4.4 1.1.1 1.5-.4.8-1.3 1.2-1.9 1.8-.5.5-.8 1.2-.6 1.9.2.6.8 1 1.4 1.1 1 0 1.7-.4 2.4-.9.8-.5 1.5-1.2 2.4-1.5.6-.2 1.2-.1 1.8-.3.6-.1 1.1-.6 1.6-1.1.5-.4 1.2-.7 1.9-.7.6.1 1-.5 1.4-.9.7-.7 1.7-.7 2.6-1.1.6-.2 1.1-.6 1.7-.9.5-.2 1.3-.3 1.8-.1.4.2.7.3 1 .6L34.2 8c0 .1.1.1.2.2.7.9 1.5 1.8 2.1 2.8.2.3.3.7.4 1.1.1 1.5.5 2.8 1 4.1.1.2.4.3.5.5.4.6.7 1.3 1.3 1.7l.4.2v.1l-.1.1c-.8.1-1.4-.4-1.8-1-.3-.5-.6-1.1-1.2-1.3l-.1.1c.1.2.2.3.3.5.2.4.4.8.5 1.1.1.4.6.7.9 1l.5.3c.1 0 .1.1 0 .2H39c-.9 0-1.6-.3-2.2-.9-.2-.2-.3-.3-.5-.3-.4.3-.8.7-1.3.7-.5-.1-1.1-.1-1.6.1-.4.2-.9.3-1.4.4-.2 0-.5-.1-.6-.3 0-.3-.2-.6 0-.9l.3-.5c0-.1-.1-.1-.1-.1-.1 0-.4.2-.4 0 0-.5.5-.8.9-1.1.1-.4.2-.7.5-1.1 0 0 0-.1-.1-.1-.4.1-.8.2-1.3.2-.3.2-.8.3-1.2.2-.1-.1-.1-.2 0-.2.4-.6.6-1.4.5-2.1 0 0-.1-.1-.2-.1s-.1.1-.2.1c-.1.7-.2 1.3-.6 1.8-.3.3-.7.3-1.1.4-.1 0-.2.1-.2.2 0 .2.2.4.3.6l.9 1.5c0 .4-.2.8-.3 1.2.1.1.1 0 .2 0 .3-.3.5-.6.6-1 0-.2 0-.4-.1-.5l-.9-1.7c.1-.1.2-.1.3-.1.2 0 .4.1.6.2.2.5.4 1.1.8 1.5.1.3.2.7 0 .9-.2.4-.4.7-.6 1.1-.2.2-.6.2-.9.2H29c-.8.4-1.6.7-2.4.9-.4.2-.8.1-1.1-.2-.3-.2-.4-.6-.6-.8-.2-.3-.6 0-.8-.2-.2-.4-.4-.7-.6-1.1 0-.1 0-.2.1-.3.3-.1.6-.1.9-.1.3 0 .6 0 .8.3.4.5.5 1.1 1.1 1.4.5 0 .9-.1 1.2-.3.2-.1.5-.3.5-.6 0-.6-.4-1-.9-1.3-.5-.3-1-.6-1.3-1.1-.2-.2-.2-.5-.3-.8 0 0-.2-.1-.3 0-.2.2 0 .3 0 .5 0 .1 0 .3-.1.4-.3.2-.5.1-.9.2-.7-.1-1.3-.1-2.1-.1-.7.1-1.7.4-2.2-.3-.3-.7 0-1.5.1-2.1 0-.1-.1-.2-.2-.2s-.2 0-.2.1c-.2.7-.2 1.4-.4 2.1-.3.6-.7 1.1-1.3 1.4-.6.3-1.2.4-1.9.4-1.2 0-2.3.3-3.1 1.3-.1.1-.2.3-.1.5.1 0 .1.1.2 0 .8-.9 1.9-1.3 3.1-1.3 1.6 0 2.2-.1 3.1-1.2.2-.2.3-.4.5-.7.1 0 .2.1.3.2 0 .3-.3.6-.4.9-.1.3-.3.7-.7.9-.4.1-.7.3-1 .6-.4.2-.8.2-1.2.1-.5-.1-1.2-.2-1.7 0-.3.2-.5.5-.7.6-.4.1-.7.4-1.1.4-.3 0-.7-.3-.9 0-.3.3-.4.8-.8 1-.5.3-1 0-1.5-.1.1-.5.1-.9.5-1.3.2 0 .4-.1.5-.2.2-.2.4-.4.5-.6.4-.3.9-.5 1.2-.9.2-.4.2-.8.5-1.2l.2-.1h.9c.3-.1.7-.3 1-.6.1-.1.1-.3.1-.4-.2-.4-.3-.7-.4-1.2-.1-.5 0-.9-.1-1.4 0-.1-.1-.1-.1-.1-.6.1-1.1.3-1.8.2-.9-.1-1.8-.7-2.1-1.5-.3-.8-.2-1.8.3-2.4.2-.7.9-1.2 1.5-1.7.1-.1.1-.2.1-.3 0-.1-.1-.2-.2-.3-.4-.1-.8 0-1.2-.1-.7-.2-1.2-.9-1.3-1.6 0-.3 0-.6.2-.8.4.2.8.6 1.3.7z"/>
  <path fill="#FFF" d="M31.1 10.6c-.1.1-.1.1-.2.1-.1-.5-.2-.9-.4-1.3 0 0-.1-.1-.1-.2s-.1-.1-.1-.2c-.1-.1-.1-.3 0-.5.1-.1.2-.1.3-.1.2.1.3.3.4.5.3.5.3 1.2.1 1.7zM36.7 14.9c-.1.1-.1.2-.1.2 0 .1-.1.1-.2.2-.1 0-.2-.1-.2-.2v-.4c0-.1-.1-.3-.1-.4l-.2-.2c0-.1-.1-.1-.2-.2s-.2-.2-.3-.2c-.1 0-.2.1-.3.2 0 0-.1.1-.1.2l-.1.1c0 .1-.1.1-.2.1-.1-.2 0-.3 0-.5.1-.1.2-.3.2-.4 0 0 .1-.1.1-.2s.1-.2.1-.2c.1-.2.2-.3.5-.2.2.1.3.2.3.3 0 .1.1.1.1.2l.1.1c.5.4.7.9.6 1.5zM35.3 17.9c-.2.1-.5.1-.7.1h-.1-.1s-.1-.1 0-.2c.1-.3.4-.6.8-.7h.2s.1.1.1.2 0 .4-.2.6zM52.7 8c0 .1 0 .1 0 0l-.1.2-.7.7c-.2.2-.5.5-.6.7-.1.2-.2.4-.3.5 0 .1-.1.1-.2.1v-.4c0-.1.1-.3.1-.4.2-.6.8-1.2 1.3-1.6.1-.1.4-.1.5.1V8zM48.2 14.2v.2c0 .1-.1.1-.1.1h-.2c-.1 0-.1-.1-.1-.1v-.2c-.1-.1-.1-.1-.2-.1s-.2 0-.2.1c0 0-.1 0-.1.1 0 0-.1 0-.1.1-.1.1-.2.1-.2.2-.1.1-.2.1-.2.2-.1.1-.2.3-.3.5v.2c0 .1 0 .2-.1.2s-.3-.1-.3-.2c-.1-.5.1-1 .5-1.4l.5-.5c.2-.2.3-.4.5-.6.2 0 .3.1.4.2-.1.4 0 .6.2 1zM47.9 17.8c0 .1.1.2 0 .3-.1.1-.2.1-.3.1h-.3c-.3-.2-.3-.4-.3-.7 0-.1 0-.2.1-.2.2 0 .5 0 .7.3 0 .1.1.2.1.2z"/>
  <g>
    <path fill="#FFF" d="M30 41.2c0-1.5 1.1-2.8 2.5-2.8s2.5 1.2 2.5 2.8c0 1.5-1.1 2.7-2.5 2.7-1.3.1-2.5-1.2-2.5-2.7z"/>
  </g>
  <g>
    <path fill="#FFF" d="M50.1 43.6h-3.3V32.4h2.3c1 0 1.8.8 1.8 1.8s-.8 1.8-1.8 1.8h-1.2v3.1h2.2c1.2 0 2.1 1 2.1 2.2 0 1.4-.8 2.3-2.1 2.3z"/>
  </g>
</svg>
