<svg xmlns="http://www.w3.org/2000/svg" xmlns:xlink="http://www.w3.org/1999/xlink" viewBox="0 0 63.3 63.6">
  <g fill="#27241F" opacity=".3">
    <path d="M22.5 52.1c.1 0 .1.1.2.1-.1-.2-.2-.3-.2-.5-.4-1.5-.4-3.9.1-6.1.5-2.1 1.5-4.3 2.6-5.2v-.6c-.1.1-.2.2-.3.2-1.1.9-2.1 3-2.6 5.2s-.5 4.6-.1 6.1c0 .4.1.6.3.8zM30 51.6v.2c.1 0 .2 0 .3-.1V39c0-.2-.1-.4-.3-.4v13zM37.5 32.4v19.5c.1 0 .2 0 .3-.1V32.7c0-.2-.1-.4-.3-.6-.1.1 0 .2 0 .3zM13.6 36.4l-.4-.3C11.7 35 9.7 34.3 8 34.3c-1.1 0-2.6.3-3.3 1.8-.3.7-.3 1.2-.1 1.7.1.2.2.3.3.4l.2.2c-.1 0-.1-.1-.2-.2-.2-.5-.2-1.1.1-1.7.7-1.5 2.2-1.8 3.3-1.8 1.7 0 3.7.6 5.3 1.7 0 .1.2.2.3.1.1 0 .2-.1.3-.2l2.2-3.2c.1-.1.1-.2.1-.3 0-.1-.1-.2-.2-.3l-2.7 3.9zM53.2 45.3c-.5 2.2-.5 4.6-.1 6.1.1.3.2.5.4.7.1 0 .1.1.2.1-.1-.2-.2-.3-.2-.5-.4-1.5-.4-3.9.1-6.1.5-2.1 1.5-4.3 2.6-5.2v-.6c-.1.1-.2.2-.3.2-1.2 1-2.2 3.1-2.7 5.3zM45.5 34.4v2.9h.3v-2.6c0-.2-.1-.4-.3-.5h-.1c.1.1.1.2.1.2zM8.3 46.4c.4.2.8.3 1.2.5.9.4 1.6.8 2.2 1.3l-.2-.2c-.6-.5-1.4-1-2.3-1.4-.4-.2-.8-.3-1.2-.5-1.7-.6-3.5-1.3-4.9-2.6 1.3 1.4 3.3 2.2 5.2 2.9zM61 51.6v.2c.1 0 .2 0 .2-.1V39c0-.2-.1-.4-.3-.4v13zM52.2 56c-.7 0-1.5-.2-2.2-.8.8.8 1.6 1.2 2.5 1.2 1.5 0 2.9-.8 3.8-1.5-.1-.1-.1-.3-.2-.4-.9.6-2.3 1.5-3.9 1.5zM47.4 52.2V53.8l-.1.2c-1 .9-2 1.5-2.9 1.8-.2.1-.3.1-.5.2-.2 0-.4.1-.5.1h-.6c-.5 0-.8-.1-1.2-.3 0 .1.1.1.1.2.3.3.8.5 1.3.5h.6c.2 0 .3-.1.5-.1s.3-.1.5-.2c.9-.3 1.8-.9 2.9-1.8.1-.1.2-.2.2-.3v-1.2c.1-.4-.1-.6-.3-.7zM49.2 38.5c0-.2-.2-.4-.4-.4v.1c0 .2-.1.4-.2.6l-1.1 1c-.1.1-.3.2-.5.2h-1.6V51.9c.1 0 .2 0 .2-.1V40.3h1.6c.2 0 .4-.1.5-.2l1.1-1c.3-.2.4-.4.4-.6zM63.3 52.7c0-.3-.2-.4-.4-.5V53.8l-.1.2c-1.1.9-2.7 2.1-4.6 2.1-.5 0-.9-.1-1.2-.3 0 .1.1.1.1.2.3.3.8.5 1.3.5 1.9 0 3.5-1.2 4.6-2.1.1-.1.2-.2.2-.3l.1-1.4c0 .1 0 0 0 0zM39.4 52.2V53.8l-.2.2c-1 .9-2.7 2.1-4.5 2.1-.5 0-.9-.1-1.2-.3 0 .1.1.1.1.2.3.3.8.5 1.3.5 1.9 0 3.5-1.2 4.5-2.1l.1-.1c.1-.1.1-.2.1-.3v-1.2c.1-.3 0-.5-.2-.6z"/>
    <path d="M16.7 47.1c-.3-1.3-1-2.5-2-3.5 1.5 1.7 2.1 3.7 1.7 6.1-.6 4.4-4.8 7.8-9.4 7.8-2.4 0-4.7-.9-6.5-2.6 1.9 1.9 4.3 3 6.8 3 4.5 0 8.6-3.2 9.4-7.4 0 0 .1-.9.1-1.8.1-.7-.1-1.6-.1-1.6zM21.2 56c-.7 0-1.5-.2-2.2-.8.8.8 1.6 1.2 2.5 1.2 1.5 0 2.9-.8 3.8-1.5-.1-.1-.1-.3-.2-.4-.9.6-2.4 1.5-3.9 1.5zM31.9 52.2V53.8l-.1.2c-1.1.9-2.7 2.1-4.6 2.1-.5 0-.9-.1-1.2-.3 0 .1.1.1.1.2.3.3.8.5 1.3.5 1.9 0 3.5-1.2 4.6-2.1.1-.1.2-.2.2-.3v-1.2c.1-.4-.1-.6-.3-.7z"/>
  </g>
  <g fill="#005DB4">
    <path d="M8.3 40.6c-1.5-.5-5.4-1.6-4-4.6 1.5-3.2 6.3-2.2 9.2-.2l2.2-3.2C8.3 27.8 1 33.6 1.5 39c.5 4.8 4.4 5.7 7.9 7.1 4.4 1.7 4.1 4.6 3.6 5.7-.8 1.4-2.8 2.2-6.4 1.2-2.9-.9-4.3-2.6-4.3-2.6L0 53.7c5.5 6.5 15 2.8 16-4s-6.1-8.6-7.7-9.1zM30 52.5c-.5-.3-.4-.9-.4-.9v-13c-8.6-3.3-12.2 5.6-12.2 10.3 0 4.8 2 6.6 3.8 6.6 2.4 0 4.6-2.3 4.6-2.3 0 .9-.1 2.4 1.5 2.4s3-1 4.3-2v-1.2s0-.2-.2-.1c-.3.1-.9.5-1.4.2zm-4.4-.6c-.2.3-.6.8-1.4 1.1-.8.4-2.1 0-2.6-1.5s-.5-3.9 0-6.3 1.6-4.5 2.7-5.4c0 0 1.4-1.2 1.4.1v11.2c.1 0 .1.5-.1.8zM61 52.5c-.5-.3-.4-.9-.4-.9v-13c-8.6-3.3-12.2 5.6-12.2 10.3 0 4.8 2 6.6 3.8 6.6 2.4 0 4.6-2.3 4.6-2.3 0 .9-.1 2.4 1.5 2.4s3-1 4.3-2v-1.2s0-.2-.2-.1-.9.5-1.4.2zm-4.4-.6c-.2.3-.6.8-1.4 1.1-.8.4-2.1 0-2.6-1.5s-.5-3.9 0-6.3 1.6-4.5 2.7-5.4c0 0 1.4-1.2 1.4.1v11.2c.2 0 .2.5-.1.8zM37 32.4v19.2s0 .6.4.9h.2c.5.1 1-.2 1.1-.3.2-.1.2.1.2.1v1.2c-1.2 1.1-2.6 2-4.2 2s-1.4-1.5-1.4-2.4v-18c0-.9.5-1.2.5-1.2 1.1-.6 2.4-1.4 3-1.7 0 0 .1-.1.2 0v.2zM45 34.4v3.7h3.2s.1 0 .2.1c0 .1-.1.2-.1.2l-1.1 1c-.1.1-.1.1-.2.1h-2v12.1s0 .6.4.9c.5.3 1.2-.1 1.3-.2.2-.1.2.1.2.1v1.2c-.8.7-1.7 1.4-2.7 1.7-.2.1-.3.1-.5.1s-.3.1-.5.1h-.5c-1.6 0-1.4-1.5-1.4-2.4V36.7s0-.4.3-.6c.6-.4 2.6-1.5 3.2-1.9 0 0 .1-.1.1 0 .2.1.1.2.1.2z"/>
  </g>
  <path fill="#27241F" d="M31.6 21.4c-.2 0-2.6-.4-4.9-2.7C23 15 22.2 9.4 22.2 5.3c0-1.1.4-1.4 1.1-1.7.9-.3 2.1-.7 3.1-2.6.3-.7 1-1 1.7-.9.1 0 .3 0 .4.1.7.1 1.5.2 3.1.2S34 .3 34.7.2c.2 0 .3 0 .4-.1h.2c.6 0 1.2.4 1.5.9.9 1.9 2.2 2.3 3.1 2.6.7.2 1.1.5 1.1 1.6 0 4.1-.8 9.8-4.5 13.4-2.4 2.4-4.8 2.8-4.9 2.8z"/>
  <path fill="#CCB36C" d="M31.6 20.9s-8.9-1.4-8.9-15.7c0-.9.2-1 .8-1.2 1-.3 2.4-.9 3.4-2.9 0-.1.3-.7 1.1-.6.8.1 1.6.3 3.6.3s2.8-.2 3.6-.3c.8-.1 1.1.5 1.2.6 1 2 2.4 2.5 3.4 2.9.6.2.8.3.8 1.2-.1 14.3-9.1 15.7-9 15.7z"/>
  <path fill="#FFF" d="M31.6 19.7s-7.9-1.2-7.9-13.9c0-.8.2-.9.7-1.1.9-.3 2.1-.8 3-2.5.1-.1.4-.7 1.1-.6.7.1 1.4.2 3.2.2 1.8 0 2.5-.2 3.2-.2.7-.1 1 .4 1.1.6.9 1.8 2.1 2.2 3 2.5.5.2.7.3.7 1.1-.2 12.7-8.2 13.9-8.1 13.9z"/>
  <defs>
    <path id="a" d="M31.6 19.7s-7.9-1.2-7.9-13.9c0-.8.2-.9.7-1.1.9-.3 2.1-.8 3-2.5.1-.1.4-.7 1.1-.6.7.1 1.4.2 3.2.2 1.7 0 2.5-.2 3.2-.2.7-.1 1 .4 1.1.6.9 1.8 2.1 2.2 3 2.5.5.2.7.3.7 1.1-.2 12.6-8.1 13.9-8.1 13.9z"/>
  </defs>
  <clipPath id="b">
    <use xlink:href="#a" overflow="visible"/>
  </clipPath>
  <path fill="#CCB36C" d="M21.6.2h19.2v21.1H21.6z" clip-path="url(#b)"/>
  <radialGradient id="c" cx=".357" cy="21.946" r="9.585" gradientTransform="matrix(.9932 0 0 1.5932 31.162 -24.892)" gradientUnits="userSpaceOnUse">
    <stop offset=".476" stop-color="#1B1811" stop-opacity="0"/>
    <stop offset=".749" stop-color="#1B1811" stop-opacity=".95"/>
  </radialGradient>
  <path fill="url(#c)" d="M23.4.4h16.3v19.4H23.4z" opacity=".3" clip-path="url(#b)"/>
  <path fill="#27241F" d="M21.8 9.7s5.4-1.6 12.3-1.1c.4 0 .8-.9 1.2-.8.2 0 .4 1 .6 1 1.6.2 3.1.5 4.7.9l-.3-.7s-1.2-.5-1.7-.9c-.9-.6-.8-1.3-1.6-1-.6.2-2.3.7-3.3.4-1-.3-2.9-.6-3.6-.3-.7.3-1.8.6-2.5.3-1.4-.5-1-.7-2.4.4-1 .7-3 1.1-3 1.1s-.4.5-.4.7z" opacity=".3" clip-path="url(#b)"/>
  <g clip-path="url(#b)">
    <radialGradient id="d" cx=".125" cy="21.361" r="9.221" gradientTransform="translate(31.162 -14.91) scale(.9932)" gradientUnits="userSpaceOnUse">
      <stop offset=".345" stop-color="#FFF"/>
      <stop offset=".822" stop-color="#FFF" stop-opacity=".3"/>
    </radialGradient>
    <path fill="url(#d)" d="M40.3 8.3s-.5-.2-1.3-1.1c-.7-.9-.9-.8-1.3-.6l-.8.4s-.3-.1-.2-.8c.2-.6.3-.8.3-.8s-.6.2-.7.3c-.1.2.1-.5.1-.5s-.6.1-.9.7c0 0-1.3.6-2 1.3l-.5-.4s1-.9 1.3-1.2c.4-.3 1.1-.8 1.7-1.1.6-.3 1.3.1 1.7.5.3.3 2.3 1.8 2.8 2 .5.1.9 1.2-.2 1.3z"/>
    <radialGradient id="e" cx=".206" cy="21.265" r="8.691" gradientTransform="translate(31.162 -14.91) scale(.9932)" gradientUnits="userSpaceOnUse">
      <stop offset=".345" stop-color="#FFF"/>
      <stop offset=".822" stop-color="#FFF" stop-opacity=".3"/>
    </radialGradient>
    <path fill="url(#e)" d="M29.4 6.9l-.1.2s-.6.1-.9.1c-.3 0-.5.1-1.1-.2-.6-.3-1.2-.6-1.8 0-.6.6-1.9 1.2-2.5 1.4-.7.2-.1-.5-.1-.5s1-1.3 1.6-2.1c.8-1.1.9-1.3 2.3-.5 1.4.9 1.4 1.4 2.6 1.6z"/>
  </g>
  <g clip-path="url(#b)">
    <path fill="#27241F" d="M33.5 10.5l.2.2c.2.1.2.2.1.4-.1.1-.7.9-.7 1.7-.1.7 0 3 1.2 5.2 0 0 .2-.8.4-1.2.3-.5 1.5-1.9 1.6-3.2.1-1.4.2-2.7-.5-3.2-.4-.3-.6-.3-.9-.3-.2 0-.3.1-.5.2-.5.1-.9.2-1.2 0l.2.2c.2-.1.2 0 .1 0z"/>
    <path fill="#27241F" d="M32.4 10.7s3.5.6 5.2-1.1l-.1-.2s-1.4 1.7-4.9 1.3h-.2zM35.8 6c-.8-.4-2 0-2.8 1.1-.3.5-.5 1.2-.7 1.9-.3.9-.6 1.8-.9 1.8-.8.2.7.2.7.2l2-3.5L35.8 6zM36.9 5.5s-.1.3-.2.8c0 0-.2-.1-.3-.3.1 0 .1-.3.5-.5z"/>
    <path fill="#F4E8AA" d="M29.9 14.3s.2.6.4.8h-.2s0 .3-.1.4c-.2.1-.3.3-.3.4 0 .2 0 .5.1.6.1.1.4 1.2.3 1.7 0 0-.1.3-.1.7 0 0 .2 0 .1.2 0 .2-.1.6-.1.7 0 0 .4.3.8.1 0 0-.1-.5-.3-.8 0 0-.1-.2 0-.2 0 0 .1-.3-.2-.7 0 0-.2-.7-.1-1.2v-.4s.1-.1.1-.2.1-.3.1-.4c0-.1.1-.1.2-.2s.4-.2.6-.9c.1 0-.5-.1-1.3-.6z"/>
    <path fill="#F4E8AA" d="M35.4 13.3c.6-.6.2-1.5.2-1.5.1-.3-.5-.9-.6-1.4-.1-.5 0-1 0-1.2.1-.2.1-.4.1-.4s0-.2-.1-.4c0-.2.2-.4.2-.4-.4 1 .8 1.2 1.1 1.5.4.3.3.6.3.6.1.3.2.2.2.2h.4c.3 0 .3-.1.3-.2.1-.1.1 0 .1-.2s.1-.2.1-.2c.2-.3-.2-.5-.2-.5-.4-.8-.4-1.6-.4-1.6.2-.1 0-.5 0-.5-.1-.1-.2-.4-.2-.4 0-.1-.1-.2-.2-.3-.1-.1-.3-.3-.4-.5-.1-.2-.1-.6-.1-.6-.4.3-.4.7-.4.7-1.9-.2-2.7 1.4-3 2.5-.3 1.1-.7 1.8-1 2.2-.4.4-1.1 0-1.4-.1-.3-.1-.7-.1-.7-.1s-.2.1-.6.1c-.4 0-.8.2-.8.2-1 .8-.8 1.8-.8 2.1 0 .3.3 1.8.3 1.9 0 .1.1.6 0 1.1-.1.5-.4.6-.4.6s-.1.2 0 .3c.1.1.1.2.1.2v.3c0 .3.1.4.1.4 0 .1.3 1 .2 1.3-.1.3-.1.5 0 .5s.1.1.1.2v.5c.7.2.8 0 .8 0 0-.5-.3-.6-.3-.7-.1-.1.1-.2.1-.2 0-.3-.2-.5-.2-.5s-.1-.3-.1-.7c-.1-.3-.1-.6-.1-.6s.1-.3.2-.4c.1-.2.1-.3.1-.4v-.3l.4-.6c.4-.6.5-.9.5-1.2.1-.3.1-.4.2-.7.1-.2.4-.1.4-.1.9.6 1.8.9 2.7.8 0 .5.2 1.3.3 1.4.1.2.1.4.1.4s0 .1-.1.3v.6c0 .1.2.3.2.3.1.4 0 1.2 0 1.2-.3.6-.1.5-.1.5s-.1.2 0 .2 0 .1 0 .1c-.1.3-.1.7-.1.7.9.4.8 0 .8 0s.1.1 0 0-.2-.6-.2-.6.1 0 .1-.1c-.1-.1-.1-.3-.1-.3s.1 0 .1-.2c0-.1 0 0-.1-.3s0-1.2.1-1.4c.2-.2.1-.3.1-.5s0-.1-.1-.4c-.1-.3-.1-.8 0-.9.1-.1.1-.4.1-.5 0-.1-.1-.1.2-.4 0 0 .5-.4.6-.9.1-.5 0-.6 0-.6s.1.3.1.6c0 0 .6-.2.8-.5-.1.1 0 0 0 0z"/>
    <path fill="#F4E8AA" d="M35.5 13.5c0-.2.3.5.5.9.1.4.4.6.5.7.1.1.2.2.2.4v.2s0 .1-.1.2-.3 1-.4 1.4c0 0-.1.1-.2.3v.2h-.1c0 .1-.1.5-.3.6h-.1s-.1.3-.2.4c0 0-.6.2-.3-.5 0 0 .1-.3.2-.4 0 0 .1.1.2 0s0-.4.2-.3c0 0-.1 0 0-.3.1-.2.4-.5.4-1.2 0 0 0-.4-.1-.6 0 0-.5-.5-1.1-.8-.1-.1-.2-.1-.3-.1v-.1s.4-.1.6-.3c.2-.2.3-.6.4-.7z"/>
    <path fill="#CCB36C" d="M36.6 6.5c.1 0 .2.1.2.1v.1l.1.3c.1 0 .2.1.2.1s-.1.1-.1.2v.2c0 .1.1.5.1.6v.1c0 .1 0 .1-.1 0 0-.1-.1-.2-.1-.3 0-.1-.1-.6-.2-.6s-.2-.1-.2-.2c0 0-.1-.1 0-.1.1-.1.2 0 .1-.3 0 0 0-.1-.1-.1s0-.1 0-.1h.1c0-.1 0-.1 0 0z"/>
    <path fill="#27241F" d="M32.4 9.4s2.4 1.4 4.2.2l-.1-.2s-1.6 1.2-4 0h-.1z"/>
    <path fill="#27241F" d="M36.6 9.8s.1-.1 0-.3c0-.1 0-.3.2-.3.1 0 .2 0 .3.1h.5l-.1-.3h-.4c-.2 0-.4-.2-.6 0-.1.2-.1.4-.1.5.2.1.2.3.2.3z"/>
    <path fill="#27241F" d="M36.5 9.1s-.2-.3-.4-.5c-.3-.2-.5-.5-.5-1l-.2.1s0 .3.1.5.3.4.4.5c.1.1.4.4.5.6 0 0 .2.1.1-.2z"/>
    <ellipse cx="35.4" cy="7.5" fill="#27241F" rx=".2" ry=".3"/>
    <path fill="#27241F" d="M35.5 7.2s-.2-.7.3-1.2h-.2s-.6.6-.3 1.3l.2-.1zM35.5 7.3s.1-.2.2-.3c.1-.2.2-.3.5-.2.3.1.6.1.7 0l.1.1s-.3.1-.5 0c-.2 0-.4-.2-.5 0-.1.2-.3.4-.4.5l-.1-.1zM35.4 7.7s-.2.3-.2.6.1.4.2.5c0 0-.1-.5.1-1l-.1-.1zM28 10.8s-1.9-.3-1.9 2c0 1.3 1 2.8 1 3.6.1 0 .3-.1.4-.4.1-.3.1-.7 0-1.4 0 0-.2-.8-.2-1.3-.1-.7-.3-2 .7-2.5zM29.9 4.1s.3.1.7.2v.2c0 .1 0 .3.2.3V5l-.1.1s.2.3.2.4c.1.1.4.4.6.3.2 0 .1-.3.2-.3 0 0 .1-.1 0-.2s-.1 0-.1.2c0 .1 0-.2.1-.3.1-.1.2-.1.3-.3 0 0 .1 0 .1-.1s.1-.4.1-.4h.7c.1 0 .2 0 .2-.1 0 0 0-.1-.1-.1s-1.1-.2-1.5-.3h-.6s.3-.2 1.4.1v-.1-.4c0-.1-.1-.3-.2-.3h-.3c-.1-.1-.2-.1-.4-.1-.1 0-.3.1-.3.2s-.1.2-.2.6h-.7c-.3.2-.4.1-.3.2z"/>
    <path fill="#CCB36C" d="M30.4 4.1h.3c.2 0 .7 0 1 .1.3.1.6.1.9.2 0 0 .1 0 0 0H32c-.4 0-.7-.1-.9-.1-.1 0-.1 0 0 0s.1-.1-.1-.1c-.3-.1-.5-.1-.6-.1-.2 0-.2 0 0 0z"/>
    <path fill="#FFF" d="M32.1 4v.1s-.5-.1-.8-.1c-.3 0 0 0 0-.1s.2-.1.8.1z"/>
    <path fill="#CCB36C" d="M32.1 4v-.3s-.2-.2-.3-.2h-.1c-.1 0-.1 0-.1.1l-.2.2-.1.1s.6 0 .8.1z"/>
    <path fill="#FFF" d="M32 3.7v-.2c0-.1-.3-.1-.3-.1v.1c.1.1.2.2.3.2 0 0 0 .1 0 0 .1 0 .1 0 0 0z"/>
    <path fill="#27241F" d="M32.3 6.9c.1 0 .2.1.2.4 0 .3.1.5.1.6 0 .1.1.7-.1.7-.1 0-.2.3-.2.3H32s0-.1-.1-.1c-.1-.1-.3 0-.5 0 0 0 .1-.1.1-.2.1-.1.1-.1.1-.2 0 0-.1-.3-.1-.4 0-.1-.2-.6-.3-.8 0 0-.1-.5-.2-.8 0 0 0-.1.1-.1.1-.1.2-.1 0-.2l-.4-.4-.1-.1v-.1c0-.1.1-.2.1-.2l.4.4c.1.1.2.2.3.2.1 0 .2 0 .3-.1v-.4s.1.1.1.3c0 .2 0 0 0 0l.1.2s.1 0 .2.1.1.2.1.3c0 .1.1.2.1.4v.2z"/>
    <path fill="#FFF" d="M31.6 4.5v.2s.1.1 0 .1v.1s.1 0 .1.1v.1s-.1-.1-.1.1 0 .2.1.2c0 0 0-.1.2-.2 0 0 .1-.1.2-.3 0 0 .1 0 .1-.1 0-.2.1-.3.1-.3h-.1c-.2 0-.5-.1-.6 0z"/>
    <path fill="#81201E" d="M32.1 6.2v.2s.1 0 .1.5l.1.2s.1.1.1.3v.7c0 .1.1.3.1.3.2-.5.3-1 .6-1.4 0-.1.1-.1.1-.2-.1-.1-.4-.4-.4-.5 0-.1 0-.3-.1-.3s-.2-.2-.3-.3c-.1-.1-.2-.3-.5-.3v.3l.1.1c-.1.2.1.3.1.4z"/>
    <path fill="#27241F" d="M31.7 8.9h.3c.1 0 .3 0 .3.1s.1.2.1.2l.2.1c.1 0 .1.1.1.1h-.1s0 .1-.2 0l-.1.1c-.1 0 0 0 0 0s0 .1-.2.1c-.1-.1-.2-.1-.3-.1-.1-.1-.1-.1-.3-.1.1 0 0-.3.2-.5z"/>
    <path fill="#27241F" d="M31.8 8.8l-.1-.1h-.4l-.1.1c0 .2-.1.2-.2.4s-.2.3-.2.3h.7v-.1h-.1s-.1-.2 0-.4c.2-.1.3-.2.4-.2 0 0 .1 0 0 0 .1 0 .1 0 0 0z"/>
    <path fill="#81201E" d="M31.4 7.7c0 .1.2.5.2.6 0 0 0 .1-.1.2-.1.2-.2.3-.3.5-.1.2-.5.9-.7 1-.7.3-1.4 1.2-1.7 1.7-.3.4-.5.8-.8 1-.2.2-.5.4-.6.6-.1-.5 0-1.3.1-1.7 0 0-.2.2-.3.6 0 0-.2-.5-.3-.6-.1-.2-.1-.3.1-.4.2-.1.8-1.1 1.1-1.9.3-.8.9-2.7 1.4-3.1 0 0 .4-.5.9-.6h.2c.1 0 .2.1.2.1l.4.4s.1.1 0 .2c-.1 0-.1.1-.1.2 0 0 0 .2.1.4-.1-.2 0 .4.2.8z"/>
    <path fill="#27241F" d="M29.7 6.1s.1-.1.2-.1c.1-.1.1 0-.1.2-.1.2-.5 1.1-.6 1.6-.1.5-.7 2.7-.7 3.3 0 .6-.1.8-.3.9-.2.2-.5.4-.6.5-.1.1-.1-.5 0-1 .1-.6.7-2.3 1.1-3.3.5-1.1.7-1.6 1-2.1z" opacity=".5"/>
    <path fill="#27241F" d="M30.7 9.6l.8.1s.1 0 .2-.1l.2.1s-.1.3-.2.4c0 0-.3.2-.7.1-.4 0-.9-.1-.9-.1s.4-.1.6-.5z"/>
    <path fill="#27241F" d="M31.4 10.7c-.2.1-.2.2-.1.4.1.1.8.9.9 1.6.2.7.3 2.9-.7 5.3 0 0-.3-.7-.6-1.2-.3-.4-1.7-1.7-2-3.1-.3-1.3-.5-2.7.1-3.2s.9-.3 1.4-.2c.5.1 1 .2 1.2-.1.1 0-.1.4-.2.5z"/>
    <path fill="#FFF" d="M31.3 7.3c-.5-1-.2-1.1-.2-1.1l.1-.1c.1 0 .2.2.2.2l-.1-.2v-.2-.2.2l-.1-.1-.4-.4c-.1-.1-.2 0-.2 0 0-.1 0-.2.1-.2.1-.1.1-.2.1-.2h.1c-.1.1 0 .2 0 .2s.1.1.2.3l.4.4c.1.1.2.1.3 0 .1 0 .1-.2.1-.3v-.2c.1 0 .1.2.1.3V6l-.1.1c.3.1.4.3.5.5.1.2.1.5.1.6v.4c0 .2-.1.6-.1.6 0-.1-.1-.3-.2-.6-.2-.3-.2-.7-.2-.9 0-.2-.1-.3-.1-.3v-.2c-.1.1-.1.2-.1.2h-.1s.2.1.1.4c0 .1 0 .4.2.9 0 0 .2.4-.1.8-.2 0-.5-.9-.6-1.2z"/>
    <path fill="#27241F" d="M32 6c.1.1.3.3.4.7.2.3.2.3.2.4 0 .1.1.5.1.7l.3-.6c-.2-.1-.6-.9-.7-1 0-.1-.2-.3-.3-.2-.1-.2-.1-.1 0 0z" opacity=".5"/>
    <path fill="#27241F" d="M36.1 5.5s-.2.2-.2.5c0 0 .3 0 .5.2 0 .1-.3-.2-.3-.7z"/>
    <path fill="#27241F" d="M30.2 9.4s.3 0 .2.2c-.1.2-.3.3-.5.3s-.3-.1-.3-.3c-.1-.2-.1-1.4.2-2.2 0 0-.1 1 0 1.4.1.4.3.6.4.6z" opacity=".3"/>
  </g>
  <g>
    <path fill="#FFF" d="M34.9 1.6c.6 0 .9.5.9.6.9 1.8 2.1 2.2 3 2.5.5.2.7.3.7 1.1 0 12.5-7.7 13.9-7.9 13.9-.2 0-7.9-1.4-7.9-13.9 0-.8.2-.9.7-1.1.9-.3 2.1-.8 3-2.5.1-.1.3-.6.9-.6h.2c.7.1 1.4.2 3.2.2 1.7 0 2.5-.2 3.2-.2-.1 0-.1 0 0 0m0-.1H34.3c-.6.1-1.4.2-2.8.2s-2.2-.1-2.8-.2H28.1c-.6 0-.9.4-1 .6-.9 1.8-2.2 2.2-2.9 2.5-.5.2-.7.3-.7 1.1 0 12.6 7.7 14 8 14 .3-.1 8-1.4 8-14 0-.8-.2-1-.7-1.1-.8-.3-2.1-.7-2.9-2.5-.1-.2-.4-.6-1-.6z"/>
  </g>
  <g>
    <linearGradient id="f" x1="31.549" x2="31.563" y1="20.884" y2="20.884" gradientUnits="userSpaceOnUse">
      <stop offset="0" stop-color="#EBEAE8"/>
      <stop offset="0" stop-color="#DCDDDE"/>
      <stop offset="0" stop-color="#DADBDC"/>
      <stop offset=".082" stop-color="#F6F6F6"/>
      <stop offset=".107" stop-color="#FFF"/>
      <stop offset=".116" stop-color="#F5F5F5"/>
      <stop offset=".131" stop-color="#DCDCDB"/>
      <stop offset=".15" stop-color="#B2B2B0"/>
      <stop offset=".173" stop-color="#787876"/>
      <stop offset=".193" stop-color="#40403C"/>
      <stop offset=".205" stop-color="#504F4D"/>
      <stop offset=".229" stop-color="#787877"/>
      <stop offset=".247" stop-color="#9C9B9D"/>
      <stop offset=".271" stop-color="#9E9E9F"/>
      <stop offset=".285" stop-color="#A7A6A8"/>
      <stop offset=".297" stop-color="#B4B4B6"/>
      <stop offset=".307" stop-color="#C8C8CA"/>
      <stop offset=".315" stop-color="#DADBDC"/>
      <stop offset=".362" stop-color="#D0D1D2"/>
      <stop offset=".442" stop-color="#B7B7B8"/>
      <stop offset=".544" stop-color="#8D8D8D"/>
      <stop offset=".646" stop-color="#5C5C5C"/>
      <stop offset=".678" stop-color="#666565"/>
      <stop offset=".731" stop-color="#807F7F"/>
      <stop offset=".742" stop-color="#868585"/>
      <stop offset=".744" stop-color="#7D7B7A"/>
      <stop offset=".753" stop-color="#666360"/>
      <stop offset=".762" stop-color="#56524E"/>
      <stop offset=".771" stop-color="#4C4743"/>
      <stop offset=".781" stop-color="#49443F"/>
      <stop offset=".783" stop-color="#514C48"/>
      <stop offset=".796" stop-color="#7F7B78"/>
      <stop offset=".81" stop-color="#A6A4A1"/>
      <stop offset=".823" stop-color="#C6C5C3"/>
      <stop offset=".837" stop-color="#DFDEDE"/>
      <stop offset=".851" stop-color="#F1F1F0"/>
      <stop offset=".866" stop-color="#FCFBFB"/>
      <stop offset=".882" stop-color="#FFF"/>
      <stop offset=".893" stop-color="#F1F1F2"/>
      <stop offset=".918" stop-color="#D7D7D9"/>
      <stop offset=".944" stop-color="#C5C5C7"/>
      <stop offset=".971" stop-color="#BABABC"/>
      <stop offset="1" stop-color="#B6B6B9"/>
    </linearGradient>
    <path fill="url(#f)" d="M31.6 20.9c-.1 0-.1 0 0 0z"/>
    <radialGradient id="g" cx="31.49" cy="1.721" r="19.239" gradientUnits="userSpaceOnUse">
      <stop offset=".364" stop-color="#FFF"/>
      <stop offset="1" stop-color="#5B5B5B"/>
    </radialGradient>
    <path fill="url(#g)" d="M40.5 5.2c0-.9-.2-1-.8-1.2-1-.3-2.4-.9-3.4-2.9-.1-.2-.4-.7-1.2-.6-.8.1-1.6.3-3.6.3S28.7.6 27.9.5c-.8-.1-1.1.5-1.2.6-1 2-2.4 2.5-3.4 2.9-.6.2-.8.3-.8 1.2 0 14 8.7 15.6 8.9 15.7.4-.1 9.1-1.6 9.1-15.7zm-8.9 14.5c-.2 0-7.9-1.4-7.9-13.9 0-.8.2-.9.7-1.1.9-.3 2.1-.8 3-2.5.1-.1.4-.7 1.1-.6.7.1 1.4.2 3.2.2 1.7 0 2.5-.2 3.2-.2.7-.1 1 .4 1.1.6.9 1.8 2.1 2.2 3 2.5.5.2.7.3.7 1.1-.2 12.4-7.9 13.8-8.1 13.9z"/>
  </g>
  <g fill="#D0AD68">
    <path d="M42.4 12.4l-.2.2c-.1.1-.2.3-.3.5l.7.1c.1 0 .2-.1.2-.2.3-.2.5-.5.6-.9v-.3c-.4.2-.7.4-1 .6zM41.8 13.1c.1-.2.2-.3.3-.5 0-.1-.1-.2-.1-.2-.2-.3-.5-.5-.9-.6 0 .4.1.7.3 1.1.1.1.1.2.2.3l.2-.1zM42 11.9s.1.1.1.2.1.1.1.2l.2-.2c.1-.1.2-.1.2-.2.1-.4-.1-.9-.3-1.2-.2.4-.3.7-.3 1.2zM40.1 17.6c-.2.1-.4.2-.6.4 0 .1.1.2.1.3h.3c.2 0 .3 0 .5-.1l.6-.3c.2-.1.4-.3.5-.5-.4-.1-.8-.1-1.2 0 0 .1-.1.1-.2.2zM38.4 19.7c-.2.1-.5.2-.7.3 0 .1 0 .2.1.3.1 0 .2.1.3.1h.5c.4-.1.9-.2 1.2-.6-.3-.2-.7-.2-1.2-.2 0 0-.1 0-.2.1zM37.4 20.6l-.3.6c.2 0 .3.1.5.1s.4 0 .6-.1l.6-.3c-.3-.2-.7-.3-1.1-.3h-.3zM39.4 18.7c0 .2-.1.4-.2.7h.5c.4-.1.8-.3 1.1-.6-.3-.1-.7-.2-1.1-.1-.2-.1-.3-.1-.3 0zM41.9 13.9c.1.2.1.5.1.7.1 0 .3-.1.4-.2.2-.1.3-.3.5-.4l.3-.6c-.4 0-.7.1-1.1.4 0 0-.1.1-.2.1zM41.4 15.2c-.2.1-.4.3-.5.5.1.1.1.2.2.2h.3c.2 0 .3-.1.5-.2s.4-.2.5-.4c.2-.2.3-.4.4-.6-.4 0-.8.1-1.1.3-.1.1-.2.2-.3.2zM40.9 16.4c0 .2 0 .5-.1.7.2 0 .3-.1.5-.1.4-.2.7-.5 1-.8-.3-.1-.7 0-1.1.1-.1 0-.2.1-.3.1zM36.2 21.4c-.2 0-.5.1-.7.2v.3c.1.1.2.1.3.1.2.1.3.1.5.1.4 0 .9-.1 1.3-.3-.3-.2-.7-.4-1.1-.4h-.3zM42.1 13.4c.1 0 .2-.1.3-.1.1 0 .1-.1.2-.1l-.7-.1s0 .1-.1.1c.1.1.2.2.3.2zM32.6 23.4c-.1.2-.3.3-.5.5 2.5 1.5 4.7 1.3 5 1.2-2.2-.5-3.7-1.5-4.2-1.6-.1-.1-.2-.1-.3-.1zM35.1 22.2c-.1.2-.3.4-.4.5.1.1.3.1.5.1.4.1.9 0 1.3-.2-.3-.2-.6-.4-1-.4h-.4zM33.8 22.8h-.7v.3c.1.1.2.1.3.2.1.1.3.1.5.2.4.1.9 0 1.3-.1-.3-.3-.6-.4-1-.5-.2-.1-.3-.1-.4-.1z"/>
    <path d="M40.3 16.8c0 .1.1.2.2.3h.3c.1-.2.1-.5.1-.7v-.3c-.1-.4-.3-.7-.6-.9-.1.4-.1.8 0 1.2-.2.2-.1.3 0 .4zM31.8 23.3c0 .1 0 .2-.1.3.1.1.2.1.2.2.2-.1.4-.3.5-.5l.2-.2c.2-.4.2-.7.1-1.1-.4.2-.7.5-.9.9.1.1 0 .3 0 .4zM34.3 22.2v.3c.1.1.2.1.3.2.2-.2.4-.3.5-.6 0-.1.1-.2.1-.3.1-.4.1-.8 0-1.1-.2.1-.3.3-.4.4-.1.2-.2.3-.3.5-.1.3-.2.5-.2.6zM33.1 22.8c.2 0 .5-.1.7 0 .1-.1.1-.2.1-.2.2-.4.2-.7 0-1-.3.2-.6.5-.7.9 0 0-.1.1-.1.3zM35.5 21.5c.2-.1.5-.1.7-.1 0-.1.1-.2.1-.3.1-.4 0-.7-.1-1-.3.3-.5.6-.6 1 0 .1-.1.3-.1.4zM40.9 15.6c.1-.2.3-.3.5-.5 0-.1 0-.2-.1-.3-.1-.4-.4-.6-.7-.8-.1.4 0 .8.1 1.1 0 .3.1.4.2.5zM39.5 17.9c.2-.1.4-.3.6-.4v-.3c0-.4-.2-.7-.5-.9-.1.2-.1.4-.2.5v.6c0 .2 0 .4.1.5zM41.4 14.5c.1.1.1.2.2.2s.2 0 .3-.1c0-.2 0-.5-.1-.7 0-.1-.1-.2-.1-.3-.2-.4-.5-.6-.8-.7v.6c0 .2.1.4.2.6.1.1.2.2.3.4zM36.6 20.8c0 .1 0 .2.1.3.1 0 .2.1.3.1.2-.2.3-.4.4-.6 0-.1.1-.2.1-.3.1-.4 0-.8-.2-1.1-.1.2-.2.3-.3.5-.1.2-.2.4-.2.6-.2.2-.2.3-.2.5zM41.8 13.2c-.1-.1 0-.1 0 0zM37.7 19.9c.2-.1.4-.2.7-.3v-.3c0-.4-.1-.7-.3-1-.2.3-.4.7-.4 1.1v.5zM38.6 19c0 .1.1.2.1.3.1 0 .2.1.3.1.1-.2.2-.4.2-.7v-.3c0-.4-.2-.7-.4-1-.1.2-.2.4-.2.6-.1.2-.1.4-.1.6.1.1.1.2.1.4zM20.9 12.4l.2.2c.1.1.2.3.3.5l-.7.1c-.1 0-.2-.1-.2-.2-.3-.2-.5-.5-.6-.9v-.3c.4.2.7.4 1 .6zM21.5 13.1c-.1-.2-.2-.3-.3-.5 0-.1.1-.2.1-.2.2-.3.5-.5.9-.6 0 .4-.1.7-.3 1.1-.1.1-.1.2-.2.3l-.2-.1zM21.3 11.9s-.1.1-.1.2-.1.1-.1.2l-.2-.2-.2-.2c-.1-.4.1-.9.3-1.2.2.4.3.7.3 1.2zM23.2 17.6c.2.1.4.2.6.4 0 .1-.1.2-.1.3h-.3c-.2 0-.3 0-.5-.1l-.6-.3c-.2-.1-.4-.3-.5-.5.4-.1.8-.1 1.2 0 0 .1.1.1.2.2zM25 19.7c.2.1.5.2.7.3 0 .1 0 .2-.1.3-.1 0-.2.1-.3.1h-.5c-.4-.1-.9-.2-1.2-.6.3-.2.7-.2 1.2-.2 0 0 .1 0 .2.1zM25.9 20.6l.3.6c-.2 0-.3.1-.5.1s-.4 0-.6-.1l-.6-.3c.3-.2.7-.3 1.1-.3h.3zM24 18.7c0 .2.1.4.2.7h-.5c-.4-.1-.8-.3-1.1-.6.3-.1.7-.2 1.1-.1.1-.1.2-.1.3 0zM21.4 13.9c-.1.2-.1.5-.1.7-.2 0-.3-.1-.4-.2-.2-.1-.3-.3-.5-.4l-.3-.6c.4 0 .7.1 1.1.4.1 0 .1.1.2.1zM21.9 15.2c.2.1.4.3.5.5-.1.1-.1.2-.2.2h-.3c-.2 0-.3-.1-.5-.2s-.4-.2-.5-.4c-.2-.2-.3-.4-.4-.6.4 0 .8.1 1.1.3.1.1.2.2.3.2zM22.4 16.4c0 .2 0 .5.1.7-.2 0-.3-.1-.5-.1-.4-.2-.7-.5-1-.8.3-.1.7 0 1.1.1.2 0 .2.1.3.1zM27.1 21.4c.2 0 .5.1.7.2v.3c-.1.1-.2.1-.3.1-.2.1-.3.1-.5.1-.4 0-.9-.1-1.3-.3.3-.2.7-.4 1.1-.4h.3zM21.3 13.4c-.1 0-.2-.1-.3-.1-.1 0-.1-.1-.2-.1l.7-.1.1.1c-.2.1-.3.2-.3.2zM28.2 22.2c.1.2.3.4.4.5-.1.1-.3.1-.5.1-.4.1-.9 0-1.3-.2.3-.2.6-.4 1-.4h.4zM29.5 22.8h.7v.3c-.1.1-.2.1-.3.2-.1.1-.3.1-.5.2-.4.1-.9 0-1.3-.1.3-.3.6-.4 1-.5.2-.1.3-.1.4-.1zM23.1 16.8c0 .1-.1.2-.2.3h-.3c-.1-.2-.1-.5-.1-.7v-.3c.1-.4.3-.7.6-.9.1.4.1.8.1 1.2 0 .2-.1.3-.1.4zM31.5 23.3c0 .1 0 .2.1.3-.1.1-.2.1-.2.2-.2-.1-.4-.3-.5-.5l-.2-.2c-.2-.4-.2-.7-.1-1.1.4.2.7.5.9.9-.1.1 0 .3 0 .4zM30.7 23.4c.1.2.3.3.5.5-2.5 1.5-4.7 1.3-5 1.2 2.2-.5 3.8-1.5 4.1-1.6.2-.1.3-.1.4-.1zM29 22.2v.3c-.1.1-.2.1-.3.2-.2-.2-.3-.3-.5-.6 0-.1-.1-.2-.1-.3-.1-.4-.1-.8 0-1.1.2.1.3.3.4.4.1.2.2.3.3.5.1.3.2.5.2.6z"/>
    <path d="M30.2 22.8c-.2 0-.5-.1-.7 0 0-.1-.1-.2-.1-.2-.2-.4-.2-.7 0-1 .3.2.6.5.7.9 0 0 .1.1.1.3zM27.8 21.5c-.2-.1-.5-.1-.7-.1 0-.1-.1-.2-.1-.3-.1-.4 0-.7.1-1 .3.3.5.6.6 1 .1.1.1.3.1.4zM22.4 15.6c-.1-.2-.3-.3-.5-.5 0-.1 0-.2.1-.3.1-.4.4-.6.7-.8.1.4 0 .8-.1 1.1 0 .3-.1.4-.2.5zM23.8 17.9c-.2-.1-.4-.3-.6-.4v-.3c0-.4.2-.7.5-.9.1.2.1.4.2.5v.6c0 .2 0 .4-.1.5zM21.9 14.5c-.1.1-.1.2-.2.2s-.2 0-.3-.1c0-.2 0-.5.1-.7 0-.1.1-.2.1-.3.2-.4.5-.6.8-.7v.6c0 .2-.1.4-.2.6-.1.1-.2.2-.3.4zM26.7 20.8v.3c-.1 0-.2.1-.3.1-.2-.2-.3-.4-.4-.6 0-.1-.1-.2-.1-.3-.1-.4 0-.8.2-1.1.1.2.2.3.3.5.1.2.2.4.2.6.1.2.1.3.1.5zM21.5 13.2c.1-.1.1-.1 0 0zM25.6 19.9c-.2-.1-.4-.2-.7-.3v-.3c0-.4.1-.7.3-1 .2.3.4.7.4 1.1.1.2.1.3 0 .5zM24.7 19c0 .1-.1.2-.1.3-.1 0-.2.1-.3.1-.1-.2-.2-.4-.2-.7v-.3c0-.4.2-.7.4-1 .1.2.2.4.2.6.1.2.1.4.1.6 0 .1-.1.2-.1.4z"/>
  </g>
  <radialGradient id="h" cx="31.662" cy="10.863" r="12.825" gradientTransform="matrix(.003 1 -.9218 .0027 41.585 -20.828)" gradientUnits="userSpaceOnUse">
    <stop offset=".858" stop-color="#FFF"/>
    <stop offset="1" stop-color="#5B5B5B"/>
  </radialGradient>
  <path fill="url(#h)" d="M43.4 11.9v.3c-.1.3-.3.6-.6.9-.1.1-.2.1-.2.2l-.7-.1c.1-.2.2-.3.3-.5l.2-.2c.3-.3.6-.5 1-.6zm-1.7 1.2c.1 0 .1.1.1.1v-.1c.1-.2.2-.3.3-.5 0-.1-.1-.2-.1-.2-.2-.3-.5-.5-.9-.6 0 .4.1.7.3 1.1.1 0 .2.1.3.2zm.5-.8l.2-.2c.1-.1.2-.1.2-.2.1-.4-.1-.9-.3-1.2-.2.3-.3.7-.4 1.1 0 0 .1.1.1.2.1.1.2.2.2.3zm-1.8 5.2c-.1 0-.2.1-.3.1-.2.1-.4.2-.6.4 0 .1.1.2.1.3h.3c.2 0 .3 0 .5-.1l.6-.3c.2-.1.4-.3.5-.5-.3-.1-.7-.1-1.1.1zm-1.7 2.1c-.1 0-.2 0-.3.1-.2.1-.5.2-.7.3 0 .1 0 .2.1.3.1 0 .2.1.3.1h.5c.4-.1.9-.2 1.2-.6-.3-.2-.7-.2-1.1-.2zm-1.3 1l-.3.6c.2 0 .3.1.5.1s.4 0 .6-.1l.6-.3c-.3-.2-.7-.3-1.1-.3h-.3zm2.2-2c-.1 0-.2 0-.3.1 0 .2-.1.4-.2.7h.5c.4-.1.8-.3 1.1-.6-.3-.3-.7-.3-1.1-.2zm2.3-4.7c.1.2.1.5.1.7.1 0 .3-.1.4-.2.2-.1.3-.3.5-.4l.3-.6c-.4 0-.7.1-1.1.4 0 0-.1.1-.2.1zm-.2 1.2c-.1 0-.2.1-.2.2-.2.1-.4.3-.5.5.1.1.1.2.2.2h.3c.2 0 .3-.1.5-.2s.4-.2.5-.4c.2-.2.3-.4.4-.6-.5 0-.9 0-1.2.3zm-.5 1.2c-.1 0-.2.1-.2.1 0 .2 0 .5-.1.7.2 0 .3-.1.5-.1.4-.2.7-.5 1-.8-.5-.1-.9-.1-1.2.1zm-5 5.1c-.2 0-.5.1-.7.2v.3c.1.1.2.1.3.1.2.1.3.1.5.1.4 0 .9-.1 1.3-.3-.3-.2-.7-.4-1.1-.4h-.3zm6.2-8.1c.1 0 .1-.1.2-.1l-.7-.1s0 .1-.1.1c.1.1.2.1.2.2.2 0 .3 0 .4-.1zm-9.8 10.1c-.1.2-.3.3-.5.5 2.5 1.5 4.7 1.3 5 1.2-2.2-.5-3.7-1.5-4.2-1.6-.1-.1-.2-.1-.3-.1zm2.1-.7c.1.1.3.1.5.1.4.1.9 0 1.3-.2-.3-.2-.6-.4-1-.4h-.3c-.2.2-.3.4-.5.5zm-.9.8c.4.1.9 0 1.3-.1-.3-.3-.6-.4-1-.5h-1v.3c.1.1.2.1.3.2.1 0 .2.1.4.1zm6.5-6.7c0 .1.1.2.2.3h.3c.1-.2.1-.5.1-.7v-.3c-.1-.4-.3-.7-.6-.9-.1.4-.1.8 0 1.2-.2.2-.1.3 0 .4zm-7.8 6.5l.2-.2c.2-.4.2-.7.1-1.1-.4.2-.7.5-.9.9-.1.1-.1.3-.2.4 0 .1 0 .2-.1.3.1.1.2.1.2.2.4-.1.6-.3.7-.5zm2.6-1.2c0-.1.1-.2.1-.3.1-.4.1-.8 0-1.1-.2.1-.3.3-.4.4-.1.2-.2.3-.3.5-.1.2-.1.3-.1.5v.3c.1.1.2.1.3.2.1-.1.3-.2.4-.5zm-1.3.6c.1-.1.1-.2.1-.2.2-.4.2-.7 0-1-.3.2-.6.5-.7.9-.1.1-.1.3-.1.4.3-.1.5-.1.7-.1zm2.5-1.6c.1-.4 0-.7-.1-1-.3.3-.5.6-.6 1 0 .2-.1.3-.1.5.2-.1.5-.1.7-.1.1-.2.1-.3.1-.4zm4.6-5.5c.1-.2.3-.3.5-.5 0-.1 0-.2-.1-.3-.1-.4-.4-.6-.7-.8-.1.4 0 .8.1 1.1 0 .3.1.4.2.5zm-1.4 2.3c.2-.1.4-.3.6-.4v-.3c0-.4-.2-.7-.5-.9-.1.2-.1.4-.2.5v.6c0 .2 0 .4.1.5zm1.6-3.8c.1.2.2.3.2.4.1.1.1.2.2.2s.2 0 .3-.1c0-.2 0-.5-.1-.7 0-.1-.1-.2-.1-.3-.2-.4-.5-.6-.8-.7v.6c.2.2.3.4.3.6zm-4.4 7c.1 0 .2.1.3.1.2-.2.3-.4.4-.6 0-.1.1-.2.1-.3.1-.4 0-.8-.2-1.1-.1.2-.2.3-.3.5-.1.2-.2.4-.2.6v.5c-.2.1-.1.2-.1.3zm1.6-1.5v-.3c0-.4-.1-.7-.3-1-.2.3-.4.7-.4 1.1v.4c.3 0 .5-.1.7-.2zm.4-.3c.1 0 .2.1.3.1.1-.2.2-.4.2-.7v-.3c0-.4-.2-.7-.4-1-.1.2-.2.4-.2.6-.1.2-.1.4-.1.6 0 .2 0 .3.1.5.1 0 .1.1.1.2zm-17.9-6.1l.7-.1c-.1-.2-.2-.3-.3-.5l-.2-.2c-.3-.3-.6-.4-1-.5v.3c.1.3.3.6.6.9 0 0 .1.1.2.1zm.4-.6c.1.2.2.3.3.5v.1l.1-.1c.1-.1.1-.2.2-.3.2-.3.3-.7.3-1.1-.3.1-.7.3-.9.6.1.1 0 .2 0 .3zm-.3-.5l.2.2c0-.1.1-.2.1-.2 0-.1.1-.1.1-.2-.1-.4-.2-.8-.4-1.1-.2.3-.3.8-.3 1.2.2 0 .2 0 .3.1zm2.5 6.2h.3c.1-.1.1-.2.1-.3-.2-.2-.4-.3-.6-.4-.1 0-.2-.1-.3-.1-.4-.1-.8-.1-1.2 0 .1.2.3.3.5.5l.6.3h.6zm1.8 2c.1 0 .2 0 .3-.1 0-.1.1-.2.1-.3-.2-.1-.4-.2-.7-.3-.1 0-.2 0-.3-.1-.4-.1-.8 0-1.2.2.4.3.8.5 1.2.6.3.1.5.1.6 0zm1.1.9c-.2-.2-.3-.4-.3-.6h-.3c-.4 0-.8.1-1.1.3l.6.3c.2.1.4.1.6.1.2 0 .3 0 .5-.1zm-2.1-1.9c-.1-.2-.2-.4-.2-.7-.1 0-.2-.1-.3-.1-.4-.1-.8-.1-1.1.1.3.3.7.6 1.1.6.2.1.3.1.5.1zm-3.3-4.9c.1.1.3.2.4.2 0-.2 0-.5.1-.7l-.2-.2c-.3-.2-.7-.4-1.1-.4l.3.6c.2.2.3.4.5.5zm1 1.5h.3c.1-.1.1-.2.2-.2-.2-.2-.3-.4-.5-.5-.1-.1-.2-.1-.2-.2-.4-.2-.8-.3-1.1-.3.1.2.2.4.4.6.2.2.3.3.5.4.1.1.2.2.4.2zm.6 1.2c-.1-.2-.1-.5-.1-.7-.1-.1-.2-.1-.2-.1-.4-.2-.8-.2-1.1-.1.3.4.6.7 1 .8.1 0 .3.1.4.1zm5 4.9c.1 0 .2-.1.3-.1v-.3c-.2-.1-.5-.1-.7-.2h-.3c-.4 0-.8.1-1.1.4.4.2.9.4 1.3.3.2 0 .3 0 .5-.1zm-6.7-8.8c.1 0 .1.1.2.1s.2.1.3.1c.1-.1.2-.1.2-.2 0 0 0-.1-.1-.1l-.6.1zm7.4 9.7c.2 0 .3-.1.5-.1-.2-.2-.3-.3-.4-.5H28c-.4 0-.8.2-1 .4.3.1.8.2 1.2.2zm1.3.6c.2 0 .3-.1.5-.2.1-.1.2-.1.3-.2v-.3c-.2 0-.5-.1-.7 0h-.3c-.4.1-.8.3-1 .5.3.3.8.3 1.2.2zm-7-7.1c0 .2 0 .5.1.7h.3c.1-.1.1-.2.2-.3.1-.1.1-.3.2-.4.1-.4.1-.8-.1-1.2-.3.2-.5.5-.6.9-.1.1-.1.2-.1.3zm8.8 6.5c-.2-.4-.5-.6-.9-.9-.1.3-.1.7.1 1.1 0 .1.1.2.2.2.1.2.3.4.5.5.1-.1.2-.1.2-.2s0-.2-.1-.3c.2-.1.1-.3 0-.4zm-.6.5c-.1 0-.2 0-.3.1-.4.1-1.9 1.2-4.1 1.6.2.1 2.5.3 5-1.2-.2-.2-.4-.3-.6-.5zm-2.4-1.3c.1.2.3.4.5.6.1 0 .2-.1.3-.2v-.3c0-.2-.1-.3-.1-.5-.1-.2-.2-.4-.3-.5-.1-.2-.3-.3-.4-.4-.2.3-.2.7 0 1.1-.1.1-.1.2 0 .2zm1.2.6h.7c0-.1-.1-.3-.1-.4-.2-.4-.4-.6-.7-.9-.1.3-.1.7 0 1 0 .2 0 .3.1.3zm-2.4-1.3c.2 0 .5.1.7.1 0-.1 0-.3-.1-.5-.1-.4-.3-.7-.6-1-.2.3-.2.7-.1 1 0 .2.1.3.1.4zM22 14.9c0 .1-.1.2-.1.3.2.1.4.3.5.5.1-.1.2-.3.2-.4.1-.4.1-.7.1-1.1-.3.1-.5.3-.7.7zm1.2 2.6c.2.1.4.2.6.4.1-.1.1-.3.1-.4v-.6c0-.2-.1-.4-.2-.5-.3.2-.5.5-.5.9v.2zm-1.6-3.8c0 .1-.1.2-.1.3-.1.2-.1.5-.1.7.1 0 .2.1.3.1l.2-.2c.1-.1.2-.3.2-.4.1-.2.1-.4.2-.6 0-.2.1-.4 0-.6-.3.1-.5.3-.7.7zm4.4 6.9c.1.2.2.4.4.6.1 0 .2-.1.3-.1v-.3-.5c0-.2-.1-.4-.2-.6-.1-.2-.2-.4-.3-.5-.2.3-.3.7-.2 1.1-.1.1 0 .2 0 .3zm-.4-.7v-.4c0-.4-.2-.7-.4-1.1-.2.3-.4.6-.3 1v.3c.3 0 .5.1.7.2zm-1.3-.6c.1 0 .2 0 .3-.1 0-.1.1-.2.1-.3 0-.1.1-.3.1-.5s0-.4-.1-.6c-.1-.2-.1-.4-.2-.6-.3.3-.4.6-.4 1v.3c0 .4.1.6.2.8z" opacity=".5"/>
  <g fill="#005DB4">
    <path d="M22.1 60.2c-.7 0-1.1.5-1.1 1.4 0 .9.3 1.4 1.1 1.4h.4c.1 0 .1-.1.1-.2v-.5h.6v1c-.3.2-.8.2-1.1.2-1.1 0-1.8-.6-1.8-1.9 0-1.5.9-2 1.8-2 .3 0 .7.1 1.1.2v1h-.6v-.4c0-.1 0-.2-.1-.2h-.4zM23.6 63.5V63h.2c.1 0 .2 0 .2-.2v-2.6h-.3v-.5h2.6v.9h-.6v-.2c0-.1 0-.2-.2-.2h-.8v1H26v.6h-1.3v1.1h.9c.1 0 .2-.1.2-.2v-.3h.6v1h-2.8zM26.7 63h.2c.1 0 .2 0 .2-.2v-2.6h-.3v-.5h1.5c.8 0 1.4.3 1.4 1 0 .6-.4.9-.7 1 .2.1.2.2.3.3l.4.9h.3v.5h-1.4V63h.2c.1 0 .2-.1.1-.2l-.3-.6c-.1-.2-.2-.3-.4-.3h-.5v1h.4v.5h-1.4V63zm1.6-1.5c.5 0 .7-.2.7-.6 0-.5-.3-.6-.8-.6h-.4v1.2h.5zM31.6 62.7l.8-2.4h-.3v-.5h1.3v.5h-.2c-.1 0-.1.1-.2.2l-1 3h-.7l-1.2-3.3h-.3v-.5h1.5v.5h-.2c-.1 0-.2.1-.2.2l.7 2.3zM33.6 63.5V63h.2c.1 0 .2 0 .2-.2v-2.6h-.3v-.5h2.6v.9h-.6v-.2c0-.1 0-.2-.2-.2h-.8v1H36v.6h-1.3v1.1h.9c.1 0 .2-.1.2-.2v-.3h.6v1h-2.8zM37.5 62.9h1.1c.1 0 .1-.1.1-.2v-.4h.6v1.1h-2.6V63l1.7-2.7h-.9c-.1 0-.2.1-.2.2v.2h-.6v-.9h2.5v.5l-1.7 2.6zM40.8 60.2h-.4v-.5h1.3l1.2 3.3h.3v.5h-1.5V63h.2c.1 0 .2 0 .1-.2v-.3h-1.3l-.2.5h.3v.5h-1.3V63h.2c.1 0 .1 0 .2-.2l.9-2.6zm0 1.8h1l-.5-1.6-.5 1.6z"/>
  </g>
</svg>
