<svg xmlns="http://www.w3.org/2000/svg" xmlns:xlink="http://www.w3.org/1999/xlink" viewBox="0 0 75.3 51.2">
  <image width="137" height="86" overflow="visible" xlink:href="9140A92DD9AE81FB.png" transform="translate(-30 -1)"/>
  <path fill="#004479" d="M68.3 10.3c.4 1.2-2.6 2.6-5.9 3.3-6.7 1.4-15.2 2.6-29.3 3.9C16.1 19.4 6.5 21.2 0 24v.3c6.9-2.7 16.9-4 35-5.9 14.8-1.3 23.7-2.4 30.6-4 3.4-.7 6.5-2.3 6.1-3.6-.3-.8-2-1.2-4-1.1.3.2.5.4.6.6z"/>
  <path fill="#C2350E" d="M69 15.3c-7.2 1.6-16.5 2.8-32 4-19.3 2-29.7 2.8-37 5.3v21.8c.2-1.4 3.1-2.8 6.3-3.5 7.2-1.6 16.5-2.8 32-4 19.3-2 29.6-2.8 37-5.3V11.8c-.2 1.4-3.1 2.8-6.3 3.5z"/>
  <linearGradient id="a" x1=".016" x2="75.315" y1="29.067" y2="29.067" gradientUnits="userSpaceOnUse">
    <stop offset="0" stop-color="#7C7B80"/>
    <stop offset=".048" stop-color="#969599"/>
    <stop offset=".138" stop-color="#C1C0C3"/>
    <stop offset=".219" stop-color="#E0E0E2"/>
    <stop offset=".288" stop-color="#F3F3F4"/>
    <stop offset=".335" stop-color="#FAFAFB"/>
    <stop offset=".665" stop-color="#FAFAFB"/>
    <stop offset=".713" stop-color="#F4F4F5"/>
    <stop offset=".779" stop-color="#E2E2E4"/>
    <stop offset=".855" stop-color="#C6C5C8"/>
    <stop offset=".938" stop-color="#9E9DA1"/>
    <stop offset="1" stop-color="#7C7B80"/>
  </linearGradient>
  <path fill="url(#a)" d="M69 15.3c-7.2 1.6-16.5 2.8-32 4-19.3 2-29.7 2.8-37 5.3v21.8c.2-1.4 3.1-2.8 6.3-3.5 7.2-1.6 16.5-2.8 32-4 19.3-2 29.6-2.8 37-5.3V11.8c-.2 1.4-3.1 2.8-6.3 3.5z"/>
  <path fill="#FFF" d="M62.6 36.9l2.1-.4-2.1.4"/>
  <path fill="#004479" d="M7.2 47.8c-.4-1.2 2.6-2.6 5.9-3.3 6.6-1.4 15.1-2.6 29.2-3.9 16.9-1.9 26.5-3.7 33-6.5v-.3c-6.9 2.7-16.9 4-34.9 5.9-14.8 1.3-23.7 2.4-30.6 4-3.4.7-6.5 2.3-6 3.6.3.8 2 1.2 4 1.1-.3-.2-.5-.4-.6-.6z"/>
  <g>
    <path fill="#211915" d="M18.8 29.3l1.3-4.3-.6.1c-.4.8-1.1.4-1.1.4-.7-.3-1.6-.3-1.6-.3-4.4.1-4.7 3.8-4.7 3.8-.3 2 1 3.1 1 3.1s.8.8 1.5 1.3c0 0 2 1.4 1.3 3.7 0 0-.5 2-2.7 2.4 0 0-1.1.2-1.8-.6 0 0-.9-.7-.9-2 0 0-.4-1.8.9-3 0 0 .2-.2-.2-.2 0 0-2.4.2-2.7 2.9 0 0-.3 2.4 2.2 3.3 0 0 2.2.8 4.9-.9 2.6-1.6 2.6-4.3 2.6-4.3.1-2.5-2.3-3.8-2.3-3.8-1.1-.7-1.5-1.4-1.5-1.4s-.9-1.3.1-2.8c0 0 1-1.4 2.6-1 0 0 1.9.5 1.1 3.7l.6-.1zm31.4 2.2c-.3-.1-.7 1-1.1 1.6-.3.4-.4.7-.6.8-.2.1-.5-.2-.6-.5 0-.2 0-.5.1-.9l1.9-6.5-2.5.5L47 28s0-1.8-1.4-1.5c-1.7.3-3.3 2.9-3.7 4-.2.6-.4 1.1-.4 1.6v.1c-.1.1-.1.3-.2.4l-.6 1c-.1.2-.2.3-.3.5-.4.5-.5.6-.7.6-.3 0-.5-.3-.4-.6 0-.3.1-.5.1-.6l.2-.6 1.5-5.4 1.8-.3.2-.7-1.7.3.7-2.6c.2-.8.2-.9.1-1.2l-2.6.5c.2.3.2.5 0 1l-.8 2.8-1.4.3-.4.7 1.4-.3-1.1 3.8v.2l-.2.4c-.2.6-.4 1-.6 1.4-.3.6-.5.8-.6 1-.4.5-.6.6-.8.5-.1-.1-.3-.3-.2-.4 0-.2.1-.4.2-.7l.4-1.2.2-.6.1-.5.4-1.3c.1-.2.1-.5.2-.8.1-.9-.5-1.8-1.6-1.9-.5 0-1.1.3-1.9 1.1-.3.2-.5.5-.8 1l-.2.3-.2.3.3-1.1c.1-.3.1-.6-.1-.8l-2.5.5c.1.3.1.5 0 .9l-1 3.4c-1.2 3.3-2.3 3.5-2.3 3.5-.3.1-.6-.1-.6-.4 0-.2 0-.5.1-.9l1.9-6.5-2.5.6-.4 1.6s0-1.8-1.4-1.6c-1.7.3-3.3 2.9-3.7 4-.3.9-.4 1.5-.5 2.4-.1 1.6.7 2.6 2.1 2.5 1.3-.1 2-1.7 2.1-2.1-.1 1 .6 1.8 1.9 1.7 0 0 1.2-.1 2.6-2.2l-.5 1.6 2.6-.5 1.5-5.3.4-.7c.5-1 .9-1.5 1.2-1.7.3-.2.4-.3.5-.3.2-.1.5 0 .7.2.2.2.1.4 0 .7l-.5 1.5-.1.3c-.1.2-.2.5-.3.7-.5 1.4-.5 1.8-.6 2.2 0 1.1.3 2 1.4 2 0 0 1.4.1 2.9-2.5 0 .9.5 1.8 1.6 1.8 0 0 1.4.2 2.9-2.8.1 1.3.9 2.2 2.1 2 1.3-.1 2-1.7 2.1-2.1-.1 1 .6 1.8 1.9 1.7.8-.1 1.4-.5 1.9-1.3.3-.5.4-.8.7-1.2.2-.4.4-.9.1-.9zM23.5 35c-.5 1.3-1.2 3.2-1.9 2.7s0-2.6.4-3.9c.4-1.4 1.5-3.3 1.9-3 .8.3.1 2.8-.4 4.2zm22.4-3.3c-.5 1.3-1.2 3.2-1.9 2.6-.7-.5 0-2.5.5-3.9s1.5-3.2 2-3c.7.5 0 2.9-.6 4.3zm11.4-5.6l1.9-.4.2-.8-2 .4 1.4-5.5.1-.1.8-.2.4-.1c1.4-.1 1.9 1 1.9 1 .5.9.2 1.7.2 1.7l.6-.1.9-3.8-9.2 1.6-.1.5.3-.1s1.2-.2.9 1.2l-2.7 10.7s-.5 1.3-1.5 1.5h-.3l-.1.5 5.7-.9.1-.5h-.2s-1.3.4-1-1.1l1.7-5.5zm7.3 3.3c-.8 1.4-1.9 2.2-2.8 2.5-.6.2-1.1 0-1.2-.7-.1-.6.3-2 .4-2.3.6-.2.9-.4 1.2-.5 1.1-.5 2.4-1.6 2.8-2.2.6-.9.5-1.9-.1-2.4-.9-.7-2-.3-2.9.2-1.5.9-3.1 3.3-3.5 4.5-.8 2.5.1 4.2 2 4.2.3 0 .5 0 .8-.1 1.4-.3 2.6-1 3.7-3.1.2-.4-.1-.6-.4-.1zM62 26.3c.8-1.4 1-2 1.6-2.2 1.1-.3.5 1.6.1 2.3-.7 1-2.4 2.1-2.5 2.1 0-.3.5-1.8.8-2.2z"/>
    <path fill="#FFF" d="M18.6 28.9l1.3-4.4-.6.1c-.3.8-1.1.4-1.1.4-.7-.3-1.6-.3-1.6-.3-4.4.1-4.7 3.8-4.7 3.8-.3 2 1 3.1 1 3.1s.8.8 1.5 1.3c0 0 2 1.4 1.2 3.7 0 0-.5 2-2.7 2.4 0 0-1.1.2-1.8-.6 0 0-.9-.7-.9-2 0 0-.4-1.8.9-3 0 0 .2-.2-.2-.2 0 0-2.4.2-2.7 2.9 0 0-.3 2.4 2.2 3.3 0 0 2.2.8 4.9-.9 2.6-1.6 2.6-4.3 2.6-4.3.1-2.5-2.3-3.8-2.3-3.8-1.1-.7-1.5-1.4-1.5-1.4s-.9-1.4.1-2.8c0 0 1-1.4 2.6-1 0 0 1.9.5 1.1 3.7h.7zM50 31c-.3-.1-.7 1-1.1 1.6-.3.4-.4.7-.7.8-.2.1-.5-.2-.6-.5 0-.2 0-.5.1-.9l1.9-6.5-2.5.5-.4 1.5s-.1-1.8-1.5-1.5c-1.7.3-3.3 2.9-3.6 4-.2.6-.4 1.1-.4 1.6v.1c-.1.1-.1.2-.2.4l-.6 1c-.1.2-.2.3-.3.5-.4.5-.5.6-.7.6-.3 0-.5-.3-.4-.6 0-.3.1-.5.1-.6l.2-.6 1.5-5.4 1.7-.3.2-.7-1.7.3.7-2.6c.2-.8.2-.9.1-1.3l-2.7.6c.2.3.2.5 0 1l-.8 2.8-1.4.3-.2.7 1.4-.3-1.1 3.8v.2l-.2.5c-.2.6-.4 1-.6 1.4-.4.6-.5.8-.6 1-.4.5-.6.6-.8.5-.2-.1-.3-.3-.2-.4 0-.2.1-.4.2-.7l.4-1.2.2-.6.2-.5.4-1.3c.1-.2.1-.5.2-.8.1-.9-.6-1.8-1.6-1.9-.5 0-1.1.3-1.9 1.1-.3.2-.5.5-.8 1l-.2.3-.2.3.3-1.1c.1-.3 0-.6-.1-.9l-2.7.5c.1.3.1.5 0 .9L28 33c-1.2 3.3-2.2 3.5-2.2 3.5-.2.1-.5-.1-.6-.4 0-.2 0-.5.1-.9l1.9-6.5-2.5.5-.5 1.5s0-1.8-1.4-1.5c-1.7.3-3.3 2.9-3.7 4-.3.9-.4 1.5-.5 2.4-.1 1.6.7 2.6 2.1 2.5 1.3-.1 2-1.7 2.1-2.1-.1 1 .6 1.8 1.9 1.7 0 0 1.2-.1 2.6-2.2l-.4 1.6 2.6-.5 1.5-5.3.4-.7c.5-1 .9-1.5 1.2-1.7.3-.2.4-.3.5-.3.2-.1.5 0 .7.2.2.2.1.4 0 .7l-.5 1.5-.1.3c-.1.2-.2.5-.3.7-.4 1.4-.5 1.8-.6 2.2 0 1.1.3 2 1.3 2 0 0 1.4.1 2.9-2.5 0 .9.5 1.8 1.6 1.8 0 0 1.4.2 2.9-2.8.1 1.3.9 2.2 2.1 2 1.3-.1 2-1.7 2.1-2.1-.1 1 .6 1.8 1.9 1.7.8-.1 1.3-.5 1.9-1.3.3-.5.4-.8.7-1.2.3-.3.5-.8.3-.8zm-26.7 3.5c-.5 1.3-1.2 3.2-1.9 2.7s0-2.6.4-3.9c.4-1.4 1.5-3.3 1.9-3 .7.3.1 2.8-.4 4.2zm22.4-3.3c-.5 1.3-1.2 3.2-1.9 2.6-.7-.5 0-2.6.5-3.9.5-1.4 1.5-3.2 2-3 .6.5-.1 2.9-.6 4.3zm11.4-5.6l2-.4.2-.8-2 .4 1.4-5.5c0-.1.1-.1.1-.1l.8-.2.5-.1c1.4-.2 1.9 1 1.9 1 .5.9.2 1.7.2 1.7l.6-.1.9-3.8-9.2 1.6-.1.5.3-.1s1.1-.2.9 1.2l-2.7 10.7s-.5 1.3-1.5 1.5h-.2l-.2.7 5.7-1 .1-.5h-.2s-1.3.4-1-1.1l1.5-5.6zm7.2 3.3c-.8 1.4-1.9 2.2-2.8 2.5-.6.2-1.1 0-1.2-.7 0-.6.3-2 .4-2.3.6-.2.9-.3 1.2-.5 1.1-.5 2.4-1.6 2.8-2.2.6-.9.5-1.9-.1-2.4-.9-.7-2-.3-2.9.2-1.5.9-3.2 3.3-3.5 4.5-.8 2.5.1 4.1 2 4.2.3 0 .5 0 .8-.1 1.4-.3 2.6-1 3.7-3.1.3-.4-.1-.6-.4-.1zm-2.6-3.1c.7-1.4 1-2 1.6-2.2 1.1-.3.5 1.6.1 2.3-.7 1-2.4 2.1-2.5 2.1 0-.3.6-1.8.8-2.2z"/>
  </g>
  <g>
    <g fill="#B49E5F">
      <path d="M31.5 5.7l.2.2c.1 0 .2-.1.2-.1l-.4-.1zM31.1 5.6l.2.2c.1 0 .2 0 .1-.1l-.3-.1zM30.7 5.5s0 .1.2.2c.1 0 .1 0 .1-.1l-.3-.1zM30.4 5.5s.1.1.1.2c.1 0 .2.1.1-.1l-.2-.1zM31.6 6.1s0 .1.1.1c0 0 .2 0 .2-.1 0-.2-.3-.1-.3 0zM31.1 5.9s.1.1.2.1.1 0 .2-.1 0-.1-.1-.1c-.2.1-.3.1-.3.1zM30.8 5.8c.1.1.2.1.2.1s.1-.1 0-.1h-.2z"/>
      <path d="M31.3 6.2s.1.1.2.1.2 0 .2-.1c0 0-.1-.1-.2-.1-.2 0-.2 0-.2.1zM30.9 6.1s0 .1.1.1c.1.1.1 0 .2-.1 0 0 0-.1-.2-.1-.1 0-.1.1-.1.1zM30.5 5.8s0 .1.1.2.3.1.2 0c-.1-.2-.2-.3-.3-.2z"/>
      <path d="M30.7 6.1s0 .1.1.1.2 0 .1-.1c0 0-.1-.1-.2 0zM31.1 6.3s0 .1.1.1h.2c-.1-.1-.2-.2-.3-.1zM31.6 6.4s.1.1.2 0 .1-.2 0-.2c-.1.1-.3.2-.2.2zM31.5 5.7s.1-.1.3-.1l.1.1h-.4z"/>
      <path d="M31.1 5.6s.1-.1.3-.1c.1 0 .2.1.1.2l-.4-.1zM30.7 5.5s.1-.1.2-.1.1.1 0 .1h-.2zM30.4 5.5s.1-.1.2-.1.2 0 0 .1h-.2zM31.7 5.4s.1-.1.2 0c0 0 .1.1.1.2-.1.1-.3-.1-.3-.2z"/>
      <path d="M31.3 5.4h.2c.1 0 .1.1.1.1 0 .1-.1.1-.2 0-.1 0-.2-.1-.1-.1zM30.9 5.3s0-.1.1-.1.1 0 .2.1c0 .1.1.1-.1.1s-.2 0-.2-.1zM31.5 5.2s.1-.1.2 0c.1 0 .1.1.1.1s-.1.1-.2 0c-.1 0-.1-.1-.1-.1zM31.1 5.2h.2c.1 0 .1.1.1.1s0 .1-.2 0l-.1-.1z"/>
      <path d="M30.7 5.2s0-.1.1-.1.3.1.2.1c-.2.1-.3.2-.3 0zM31 5s.1-.1.2-.1.2.1.1.1c-.2.1-.3.1-.3 0zM31.4 5s0-.1.2-.1c.1 0 .2.1.2.1-.2.1-.4.2-.4 0zM31.9 5.1s.1 0 .2.1 0 .3-.1.2c-.1-.1-.2-.3-.1-.3zM31.9 6v.1c0 .2-.1.4-.3.5h.2c.2-.1.2-.2.2-.4 0 .1.1.2.2.2.1-.2-.2-.3-.2-.6h-.1V6z"/>
      <path d="M32.1 5.6l.1-.1c.1-.2.1-.4 0-.6.1 0 .1 0 .2.1.1.2.1.3 0 .5.1-.1.2-.1.3-.1 0 .2-.3.2-.5.5h-.1c-.1-.1-.1-.2 0-.3z"/>
      <path d="M32.1 5.8s.1-.1 0 0l-.1.1v0s.1 0 .1.1c.1.1.2.1.2 0s-.1-.2-.2-.1c.1-.1 0-.1 0-.1z"/>
    </g>
    <g fill="#B49E5F">
      <path d="M32.1 9.3s.1-.1 0-.2c0-.2-.1-.2-.1-.2l.1.4zM32.3 9.6s.1-.1 0-.2c0-.1-.1-.1-.1-.1l.1.3zM32.4 10s.1-.1 0-.2c0-.1-.1-.1-.1 0l.1.2z"/>
      <path d="M32.5 10.2s.1-.1 0-.2c0-.1-.1-.2-.1 0l.1.2zM32.4 9.1V9s-.1-.1-.2-.1.1.2.2.2zM32.5 9.5v-.2c0-.1-.1-.1-.1-.1-.1 0 0 .1 0 .2 0 0 0 .1.1.1zM32.5 9.8v-.1c0-.1 0-.1-.1-.1 0 0-.1 0 0 .1l.1.1zM32.6 9.2V9h-.1v.2s.1.1.1 0zM32.7 9.6v-.1c0-.1-.1-.1-.1-.1-.1-.1-.1-.1.1.2-.1 0 0 0 0 0zM32.7 10s.1 0 .1-.1-.1-.3-.1-.2c-.1.1-.2.3 0 .3z"/>
      <path d="M32.8 9.7v-.2c0-.1-.1-.1-.1 0 0 0 0 .2.1.2zM32.7 9.3s.1 0 0-.2c.1-.1 0-.1 0-.1 0 .1-.1.3 0 .3zM32.6 8.9s0-.1-.1-.2c-.1 0-.3 0-.2.1.1.1.3.1.3.1zM32.1 9.3s-.1 0-.2-.2v-.2l.2.4zM32.3 9.6s-.1 0-.2-.1c0-.1 0-.2.1-.1l.1.2zM32.4 10s-.1 0-.2-.1c0-.1 0-.1.1-.1l.1.2z"/>
      <path d="M32.5 10.2s-.1 0-.2-.1c0 0-.1-.2.1-.1l.1.2zM31.8 9.3s-.1 0-.1-.1c0 0 0-.1.1-.2.1 0 .1.2 0 .3zM32 9.6s-.1 0-.1-.1v-.2c0-.1.1 0 .1.1v.2zM32.2 10s-.1 0 0 0c-.2-.2-.2-.2-.2-.3 0 0 .1-.1.1 0 .1.2.1.2.1.3zM31.8 9.6s-.1 0-.1-.1v-.2s.1 0 .1.2v.1zM31.9 9.8l-.1-.1c-.1-.1 0-.1 0-.1s.1 0 .1.1c.1.1 0 .1 0 .1zM32.2 10.2s-.1 0-.1-.1c-.1-.1-.2-.3-.1-.2.1.1.3.2.2.3zM31.9 10s-.1 0-.1-.1v-.1c.1.1.2.2.1.2z"/>
      <path d="M31.7 9.7s-.1 0-.1-.1c-.1-.1 0-.2 0-.2 0 .1.2.2.1.3zM31.5 9.3s-.1-.1 0-.2.2-.1.2 0c-.1.1-.2.3-.2.2zM32.2 8.8s0-.1 0 0c.2-.2.4-.2.6-.1 0-.1 0-.1-.1-.1-.1-.1-.3 0-.4 0 .1-.1.1-.2 0-.3-.2 0-.1.3-.4.5v.1c.1 0 .2-.1.3-.1z"/>
      <path d="M31.8 8.9h-.1c-.2 0-.3.1-.4.3V9c.1-.2.2-.2.3-.2-.1 0-.2-.1-.2-.2.1-.1.3.1.6.1v.1c-.1.1-.1.1-.2.1z"/>
      <path d="M31.9 8.8h-.1H32.1v-.1l-.1.1s-.1 0 0-.1c0-.1 0-.2-.1-.1-.2 0-.2.1 0 .2 0-.1 0 0 0 0z"/>
    </g>
    <path fill="#B49E5F" fill-rule="evenodd" d="M29.5 7.9c.1 0 .1-.1.1-.1 0-.1.1-.4.4-.5h.3c.1-.1-.3-.1-.3-.1-.1 0-.1-.2-.2-.3h.2l.1-.1v-.1s.1-.2.5-.1c0 0 0-.1-.1-.1 0 0 .5.1.7.5-.1 0-.3.4-.7.5-.2.1-.5.1-.7.2.3-.2.6.2 1.5-.7 0 .1.2.2.2.3l-.1.1s.1 0 .1.1c-.1.1.2.3-.2.5 0-.1-.1-.1-.1-.1.1.1 0 .2-.1.3-.1.1-.2.1-.3.3-.1-.7-.2-.6-.2-.6 0 .3-.2.3-.3.4 0-.1 0-.2-.1-.2-.2-.1-.6-.2-.7-.2zm1.2-.8c.1 0 .3 0 .3-.1-.2.2-.5 0-.6 0-.1 0-.3.1-.4.2.3-.4.6-.2.7-.1zm.7.6s-.4-.2-.3-.4c0 0-.1.1 0 .2 0 0 .1.2.3.2zm-.6.5s.2-.1.1-.4v-.3-.1c-.1.1-.1.4-.1.4.1.2.1.3 0 .4zM31.4 3.2c0 .1.1.1 0 0 .1.1.5.1.5.3v.2c.1 0 .1-.2.1-.3 0-.1.2-.1.2-.2v.1s.1 0 .1.1h.1s.1.1.1.4c0 0 .1 0 .1-.1 0 0 0 .4-.3.6 0 0-.3-.2-.5-.5-.1-.1-.1-.4-.2-.5.2.2-.1.5.7 1.1 0 0-.1.2-.2.2H32v.1c-.1-.1-.2.2-.4-.1.1 0 .1-.1 0-.1-.1.1-.2 0-.2 0-.1 0-.1-.1-.3-.2.6-.2.5-.3.5-.3-.2 0-.2-.2-.3-.2.1 0 .1 0 .2-.1-.1-.1-.1-.4-.1-.5zm.8.9c0 .1.1.2.1.3-.2-.2-.1-.4 0-.5 0-.1-.1-.2-.2-.3.2.2.1.4.1.5zm-.4.6s.1-.3.3-.2c0 0-.1-.1-.2 0 0 0-.2 0-.1.2zm-.5-.4s.1.1.3.1h.4c-.1-.1-.3 0-.4 0-.1-.1-.2 0-.3-.1z" clip-rule="evenodd"/>
    <path fill="#B49E5F" d="M31.5 4.6c.6 0 1.2-.2 1.9-.5.1 0 .1-.1.2-.1 0 0 .1 0 .1-.1h-.1c-.1 0-.1.1-.2.1-.6.2-1.2.4-1.8.4-.9 0-1.5-.2-1.7-.6 0-.1-.1-.2-.1-.2 0-.1 0-.3.1-.4.2-.3.6-.5 1.1-.5.5 0 .8.1 1 .4 0 .1.1.2.1.2 0 .2-.1.3-.2.4l.1-.1c.1-.1.1-.2.1-.3 0-.1 0-.2-.1-.3-.2-.3-.5-.4-1-.4-.3 0-.6 0-.9.2-.1.1-.2.1-.3.3-.1.1-.1.3-.1.4 0 .1 0 .2.1.3.3.6.9.8 1.7.8zM32.8 7.6c-.2.3-.4.6-.7.8-.3.2-.6.3-1 .4h-.4c-.2 0-.4 0-.6-.1-.3-.1-.5-.2-.7-.3-.2-.2-.4-.4-.5-.6-.1-.3-.2-.5-.2-.8v-.2c0-.5.2-.9.6-1.2.3-.3.7-.5 1.2-.5.6 0 1.1.2 1.4.7-.4.2-.5.5-.5.8 0 .2 0 .3.1.4.1.2.4.4.7.5 0 .1-.1.2-.2.3-.3.4-.7.6-1.2.6-.2 0-.4-.1-.8-.2.3.1.6.2.9.2.5 0 .8-.2 1.2-.6.1-.1.1-.2.2-.3h.4c0 .1.1 0 .1.1v-.1c-.1.1-.2.1-.3.1h-.3c.1-.2.1-.4.1-.6.3-.2.5-.4.5-.7 0-.1 0-.2-.1-.3-.1-.2-.3-.2-.5-.2-.1 0-.2 0-.3.1-.3-.6-.8-.9-1.4-.9-.5 0-.9.2-1.2.5-.3.3-.5.7-.6 1.2V7c0 .3.1.6.3.8.1.2.3.4.5.5.2.1.4.2.7.3.2.1.4.1.6.1h.4c.4-.1.8-.2 1.1-.4.1-.1.3-.3.5-.7zm-.5-1.9c.2 0 .4.1.5.2 0 .1.1.2.1.2 0 .1 0 .3-.1.4l-.3.3c0-.4-.1-.8-.4-1.1-.1.1.1 0 .2 0zm0 1.2l-.2.1c.1-.1.2-.1.2-.1 0 .3 0 .5-.1.6-.3-.1-.5-.3-.6-.5-.1-.1-.1-.3-.1-.4 0-.3.2-.6.5-.8.2.3.3.7.3 1.1z"/>
    <g fill="#B49E5F">
      <path d="M42.1 5.7l-.2.2c-.2 0-.2-.1-.2-.1l.4-.1zM42.5 5.6l-.2.2c-.1 0-.2 0-.1-.1l.3-.1zM42.9 5.5l-.2.2c-.1 0-.1 0-.1-.1l.3-.1zM43.2 5.5l-.2.2c-.1 0-.2.1-.1-.1l.3-.1zM42.1 6.1s0 .1-.2.1c0 0-.2 0-.2-.1 0-.2.3-.1.4 0zM42.5 5.9s-.1.1-.2.1-.1 0-.2-.1 0-.1.1-.1c.2.1.3.1.3.1zM42.8 5.8l-.2.1s-.1-.1.1-.1h.1z"/>
      <path d="M42.3 6.2s-.1.1-.2.1-.2 0-.2-.1c0 0 .1-.1.2-.1.2 0 .2 0 .2.1zM42.7 6.1s0 .1-.1.1c-.1.1-.2 0-.2-.1 0 0 0-.1.2-.1.1 0 .1.1.1.1zM43.1 5.8s0 .1-.1.2-.3.1-.2 0c.1-.2.2-.3.3-.2z"/>
      <path d="M42.9 6.1s0 .1-.1.1-.2 0-.1-.1c0 0 .1-.1.2 0zM42.5 6.3s0 .1-.1.1h-.2c.1-.1.2-.2.3-.1zM42 6.4s-.1.1-.2 0-.1-.2 0-.2c.1.1.3.2.2.2zM42.1 5.7s-.1-.1-.3-.1l-.1.1h.4z"/>
      <path d="M42.5 5.6s-.1-.1-.3-.1c-.1 0-.2.1-.1.2l.4-.1zM42.9 5.5s-.1-.1-.2-.1c-.2 0-.1.1 0 .1h.2zM43.2 5.5s-.1-.1-.2-.1-.2 0 0 .1h.2zM41.9 5.4s0-.1-.2 0c0 0-.1.1-.1.2.1.1.3-.1.3-.2z"/>
      <path d="M42.3 5.4h-.2c-.1 0-.1 0-.1.1s.1.1.2 0c.1 0 .2-.1.1-.1zM42.7 5.3s0-.1-.1-.1-.1 0-.2.1c0 .1-.1.1.1.1s.2 0 .2-.1zM42.1 5.2s-.1-.1-.2 0c-.1 0-.1.1-.1.1s.1.1.2 0c.1 0 .1-.1.1-.1zM42.5 5.2h-.1c-.1 0-.1.1-.1.1-.1 0-.1 0 .2-.1z"/>
      <path d="M42.9 5.2s0-.1-.1-.1-.3.1-.2.1c.2.1.3.2.3 0zM42.6 5s-.1-.1-.2-.1-.2.1-.1.1c.2.1.3.1.3 0zM42.2 5s0-.1-.2-.1c-.1 0-.2.1-.2.1.2.1.4.2.4 0zM41.7 5.1s-.1 0-.2.1 0 .3.1.2c.1-.1.2-.3.1-.3zM41.7 6v.1c0 .2.1.4.3.5h-.2c-.2-.1-.2-.2-.2-.4 0 .1-.1.2-.2.2-.1-.2.2-.3.2-.6h.1V6z"/>
      <path d="M41.5 5.6s0-.1 0 0c-.2-.3-.2-.5 0-.7-.1 0-.1 0-.2.1-.1.2-.1.3 0 .5-.1-.1-.2-.1-.3-.1 0 .2.3.2.5.5h.1c0-.1 0-.2-.1-.3z"/>
      <path d="M41.5 5.8s-.1-.1 0 0l.1.2v0s-.1 0-.1.1c-.1.1-.2.1-.2 0s.1-.2.2-.1c-.1-.2 0-.2 0-.2z"/>
    </g>
    <g fill="#B49E5F">
      <path d="M41.5 9.3s-.1-.1 0-.2l.1-.1-.1.3z"/>
      <path d="M41.3 9.6s-.1-.1 0-.2c0-.1.2-.1.2-.1l-.2.3zM41.2 10s-.1-.1 0-.2c0-.1.1-.1.1 0l-.1.2z"/>
      <path d="M41.1 10.2s-.1-.1 0-.2c0-.1.1-.2.1 0l-.1.2zM41.2 9.1V9l.1-.1c.2 0 0 .2-.1.2zM41.1 9.5v-.2c0-.1.1-.1.2-.1s0 .1 0 .2c-.1 0-.1.1-.2.1zM41 9.8v-.1c0-.1 0-.1.1-.1 0 0 .1 0 .1.1-.1.1-.1.1-.2.1z"/>
      <path d="M41 9.2V9h.2v.2c-.1.1-.2.1-.2 0zM40.9 9.6v-.1c0-.1.1-.1.1-.1.1-.1.1-.1-.1.2.1 0 0 0 0 0zM40.9 10s-.1 0-.1-.1.1-.3.1-.2c.1.1.1.3 0 .3z"/>
      <path d="M40.8 9.7s-.1-.1 0-.2c0-.1.1-.1.1 0 0 0 0 .2-.1.2zM40.9 9.3s-.1 0 0-.2c-.1-.1 0-.1 0-.1 0 .1.1.3 0 .3zM41 8.9s0-.1.1-.2c.1 0 .2 0 .2.1-.1.1-.3.1-.3.1zM41.5 9.3s.1 0 .2-.2v-.2l-.2.4zM41.3 9.6s.1 0 .2-.1c0-.1 0-.2-.1-.1l-.1.2zM41.2 10s.1 0 .2-.1c0-.1 0-.1-.1-.1l-.1.2z"/>
      <path d="M41.1 10.2s.1 0 .2-.1c0 0 .1-.2-.1-.1l-.1.2zM41.8 9.3s.1 0 .1-.1c0 0 0-.1-.1-.2-.1 0-.1.2 0 .3zM41.6 9.6s.1 0 .1-.1v-.2c0-.1-.1 0-.1.1v.2zM41.4 10s.1 0 0 0c.1-.1.1-.2.1-.2s-.1-.1-.1 0v.2zM41.8 9.6s.1 0 .1-.1v-.2s-.1 0-.1.2v.1zM41.7 9.8l.1-.1c.1-.1 0-.1 0-.1s-.1 0-.1.1c-.1.1 0 .1 0 .1z"/>
      <path d="M41.4 10.2s.1 0 .1-.1c.1-.1.1-.3 0-.2 0 .1-.2.2-.1.3zM41.7 10s.1 0 .1-.1 0-.2-.1-.1c0 .1-.1.2 0 .2zM41.9 9.7s.1 0 .1-.1c.1-.1 0-.2 0-.2 0 .1-.2.2-.1.3zM42.1 9.3s.1-.1 0-.2c0-.1-.2-.1-.1 0 0 .1.1.3.1.2zM41.5 8.8c-.1 0-.1-.1 0 0-.2-.2-.4-.2-.6-.1 0-.1 0-.1.1-.1.1-.1.3 0 .4 0-.1-.1-.1-.2-.1-.3.2 0 .1.3.4.5v.1c-.1 0-.2-.1-.2-.1z"/>
      <path d="M41.8 8.9h.1c.2 0 .3.1.4.3V9c-.1-.2-.2-.2-.3-.2.1 0 .2-.1.2-.2-.1-.1-.3.1-.6.1v.1c.1.1.1.1.2.1z"/>
      <path d="M41.7 8.8h.1H41.5v-.1l.1.1s.1 0 0-.1c0-.1 0-.2.1-.1.2 0 .2.1 0 .2 0-.1 0 0 0 0z"/>
    </g>
    <path fill="#B49E5F" fill-rule="evenodd" d="M44.1 7.9c-.1 0-.1 0-.1-.1s-.1-.4-.4-.5h-.3c0-.1.3-.1.4-.1.1 0 .1-.2.1-.3h-.1l-.1-.1v-.1s-.1-.2-.5-.1c0 0 0-.1.1-.1 0 0-.5.1-.7.5.1 0 .3.4.7.5.2.1.5.1.7.2-.3-.2-.6.2-1.5-.7 0 .1-.2.2-.2.3l.1.1s-.1 0-.1.1c.1.1-.2.3.2.5 0-.1.1-.1.1-.1-.1.1 0 .2.1.3.1.1.2.1.3.3.1-.7.2-.6.2-.6 0 .3.2.3.3.4 0-.1 0-.2.1-.2.1-.1.5-.2.6-.2zm-1.2-.8c-.1 0-.3 0-.3-.1.2.2.5 0 .6 0 .1 0 .3.1.4.2-.3-.4-.6-.2-.7-.1zm-.7.6s.4-.2.3-.4c0 0 .1.1 0 .2 0 0-.1.2-.3.2zm.6.5s-.2-.1-.1-.4v-.3-.1c.1.1.1.4.1.4-.1.2-.1.3 0 .4zM42.2 3.2l-.1.1s-.3.1-.4.3v.2c-.1 0-.1-.2-.1-.3 0-.1-.1-.1-.2-.2v.1s-.1 0-.1.1h-.1s-.1.1-.1.4c0 0-.1 0-.1-.1 0 0 0 .4.3.6 0 0 .3-.2.5-.5.1-.1.1-.4.2-.5-.2.2.1.5-.7 1.1 0 0 .1.2.2.2h.1v.1c0-.1.2.2.4-.1-.1 0-.1-.1 0-.1.1.1.2 0 .2 0 .1 0 .1-.1.3-.2-.6-.3-.5-.4-.5-.4.2 0 .2-.2.3-.2 0 0-.1 0-.2-.1.1 0 .1-.4.1-.5zm-.8.9c0 .1-.1.2-.1.3.1-.2.1-.4 0-.5 0-.1.1-.2.2-.3-.2.2-.1.4-.1.5zm.4.6s-.1-.3-.3-.2c0 0 .1-.1.2 0 .1 0 .2 0 .1.2zm.6-.4s-.1.1-.3.1h-.3-.1c.1-.1.3 0 .4 0 0-.1.1 0 .3-.1z" clip-rule="evenodd"/>
    <path fill="#B49E5F" d="M42.1 4.6c-.6 0-1.2-.2-1.9-.5-.1 0-.1-.1-.2-.1h-.1.1c.1 0 .1.1.2.1.6.2 1.2.4 1.8.4.9 0 1.5-.2 1.7-.6 0-.1.1-.2.1-.2 0-.1 0-.3-.1-.4-.2-.3-.6-.5-1.2-.5-.5 0-.9.1-1 .4 0 .1-.1.2-.1.2 0 .2.1.3.2.4l-.1-.1c-.1-.1-.1-.2-.1-.3 0-.1 0-.2.1-.3.2-.3.5-.4 1-.4.3 0 .6 0 .9.2.1.1.2.1.3.3.1.1.1.3.1.4 0 .1 0 .2-.1.3-.2.5-.8.7-1.6.7z"/>
    <g>
      <path fill="#B49E5F" d="M40.8 7.6c.2.3.4.6.7.8.3.2.6.3 1 .4h.5c.2 0 .4 0 .6-.1.3-.1.5-.2.7-.3.2-.1.4-.3.6-.6.1-.3.2-.5.2-.8v-.2c0-.5-.2-.9-.6-1.2-.3-.3-.7-.5-1.2-.5-.6 0-1.1.2-1.4.7.3.2.5.5.5.8 0 .2 0 .3-.1.4-.1.2-.4.4-.7.5 0 .1.1.2.2.3.3.4.7.6 1.2.6.2 0 .4-.1.8-.2-.3.1-.6.2-.9.2-.5 0-.8-.2-1.2-.6-.1-.1-.1-.2-.2-.3h-.4c-.2.1-.3 0-.3.1v-.1c.1.1.2.1.3.1h.3c-.1-.2-.1-.4-.1-.6-.3-.2-.5-.4-.5-.7 0-.1 0-.2.1-.3.1-.2.2-.2.5-.2.1 0 .2 0 .3.1.3-.6.8-.9 1.4-.9.5 0 .9.2 1.2.5.3.3.5.7.6 1.2.1.2.1.3.1.3 0 .3-.1.6-.3.8-.1.2-.3.4-.5.5-.2.1-.4.2-.7.3-.2.1-.4.1-.6.1h-.4c-.4-.1-.8-.2-1.1-.4-.2-.1-.4-.3-.6-.7-.1 0 0 0 0 0zm.5-1.9c-.2 0-.4.1-.5.2 0 .1-.1.2-.1.2 0 .1.1.3.1.4l.3.3c0-.4.1-.8.4-1.1.1.1 0 0-.2 0zm0 1.2l.2.1c-.1-.1-.2-.1-.2-.1 0 .3 0 .5.1.6.3-.1.5-.3.7-.5.1-.1.1-.3.1-.4 0-.3-.2-.6-.5-.8-.2.3-.4.7-.4 1.1z"/>
    </g>
    <g>
      <path fill="#B49E5F" d="M36.9 12.1c-.3-.1-1.3-.4-2.2-1-.9-.6-2-1.7-2.3-3.5-.1-.7 0-1.5.2-2.4.1-.5.2-1 .2-1.5v-.2l.1-.1c1.5-.5 2.7-.7 3.9-.7 1.2 0 2.4.2 3.8.7l.2.1v.2c0 .5.1 1 .2 1.5.2.9.3 1.7.2 2.4-.3 1.7-1.4 2.8-2.3 3.5-.7.7-1.7 1-2 1z"/>
      <path fill="#C2350E" d="M33.1 3.8c0 .5-.1 1-.2 1.5-.2.8-.3 1.7-.2 2.3.3 1.7 1.3 2.7 2.2 3.3.9.7 1.8 1 2 1 .2 0 1.1-.3 2-1 .8-.6 1.9-1.7 2.2-3.3.1-.6 0-1.4-.2-2.3-.1-.5-.2-1-.2-1.5-2.9-.9-4.8-.8-7.6 0z"/>
    </g>
    <g>
      <defs>
        <path id="b" d="M33.1 3.8c0 .5-.1 1-.2 1.5-.2.8-.3 1.7-.2 2.3.3 1.7 1.3 2.7 2.2 3.3.9.7 1.8 1 2 1 .2 0 1.1-.3 2-1 .8-.6 1.9-1.7 2.2-3.3.1-.6 0-1.4-.2-2.3-.1-.5-.2-1-.2-1.5-2.9-.9-4.8-.8-7.6 0z"/>
      </defs>
      <clipPath id="c">
        <use xlink:href="#b" overflow="visible"/>
      </clipPath>
      <g fill="#FFF" fill-rule="evenodd" clip-path="url(#c)" clip-rule="evenodd">
        <path d="M36.3 1.3h1.2v12h-1.2z"/>
        <path d="M31 6.9h11.8v1.2H31z"/>
      </g>
    </g>
    <g>
      <path fill="#B49E5F" d="M40.6 7.3L36.9 11l-3.7-3.7 3.7-3.6"/>
      <path fill="#FFF" d="M40.3 7.3l-3.4 3.4-3.4-3.4L36.9 4"/>
      <path fill="#004479" d="M38.2 6.1c-.2-.7-1-.9-1.3-1.8-.2.9-1.1 1.1-1.3 1.8-.7.2-.9 1-1.8 1.3.9.2 1.1 1.1 1.8 1.3.2.7 1 .9 1.3 1.8.2-.9 1.1-1.1 1.3-1.8.7-.2.9-1 1.8-1.3-.9-.3-1.1-1.1-1.8-1.3z"/>
      <g fill="#FFF" stroke="#FFF">
        <path stroke-width=".026" d="M35.1 6.9c.1-.1.3-.2.5-.2h.4V7c0-.1-.1-.3-.4-.3-.3.1-.6.3-.6.6 0 .4.2.6.5.6.2 0 .3-.1.4-.3 0 .1-.1.2-.1.2h-.1-.3c-.2 0-.3 0-.5-.1-.1-.1-.3-.3-.3-.5.2 0 .3-.2.5-.3z"/>
        <path stroke-width=".018" d="M36.8 8.9c-.4 0-.6-.1-.7-.2 0 0-.1-.4-.1-.6h.1c.1.2.3.7.8.7.4 0 .6-.3.6-.5s0-.4-.4-.7l-.4-.3c-.2-.2-.5-.4-.5-.8s.3-.8.9-.8c.1 0 .3 0 .4.1h.2c0 .1.1.4.1.6h-.1c-.1-.2-.2-.5-.6-.5-.5 0-.5.3-.5.5 0 .3.2.5.4.6l.4.2c.3.2.6.4.6.9-.2.5-.6.8-1.2.8z"/>
        <path stroke-width=".026" d="M38.3 7.3h.4v-.2.4-.1s0-.1-.1-.1h-.2c-.1 0-.1 0-.1.1v.3c0 .2 0 .2.1.2h.1-.5c.1 0 .1 0 .1-.2V7c0-.2 0-.2-.1-.2h.7V7c0-.1 0-.2-.1-.2H38.3c-.1 0-.1 0-.1.1v.4z"/>
      </g>
      <path fill="#FFF" d="M37 5.2c0 .1-.1.1-.1.1-.1 0-.1-.1-.1-.1 0-.1.1-.1.1-.1.1 0 .1.1.1.1zM37 9.5c0 .1-.1.1-.1.1-.1 0-.1-.1-.1-.1 0-.1.1-.1.1-.1.1 0 .1 0 .1.1z"/>
    </g>
    <linearGradient id="d" x1="32.688" x2="41.139" y1="7.521" y2="7.521" gradientUnits="userSpaceOnUse">
      <stop offset="0" stop-color="#868589"/>
      <stop offset=".016" stop-color="#919093"/>
      <stop offset=".074" stop-color="#B2B2B4"/>
      <stop offset=".137" stop-color="#CECED0"/>
      <stop offset=".203" stop-color="#E4E4E5"/>
      <stop offset=".277" stop-color="#F3F3F3"/>
      <stop offset=".361" stop-color="#FCFCFC"/>
      <stop offset=".483" stop-color="#FFF"/>
      <stop offset=".659" stop-color="#FDFDFD"/>
      <stop offset=".746" stop-color="#F5F5F5"/>
      <stop offset=".813" stop-color="#E8E8E9"/>
      <stop offset=".87" stop-color="#D6D5D7"/>
      <stop offset=".921" stop-color="#BEBDBF"/>
      <stop offset=".967" stop-color="#A1A0A3"/>
      <stop offset="1" stop-color="#868589"/>
    </linearGradient>
    <path fill="url(#d)" d="M33.1 3.8c0 .5-.1 1-.2 1.5-.2.8-.3 1.7-.2 2.3.3 1.7 1.3 2.7 2.2 3.3.9.7 1.8 1 2 1 .2 0 1.1-.3 2-1 .8-.6 1.9-1.7 2.2-3.3.1-.6 0-1.4-.2-2.3-.1-.5-.2-1-.2-1.5-2.9-.9-4.8-.8-7.6 0z"/>
    <g fill-rule="evenodd" clip-rule="evenodd">
      <path fill="#B49E5F" d="M35.4 2.2c1.5-.5 3.1 0 3.1 0s0-.7.3-.7h-3.6c.1.1.2.7.2.7zm3.4-.9h-3.6s0 .1.1.1h3.5v-.1zm.4-1c-.1.3-.2.5-.3.7-.1.1-.3.3-.4 0 0-.1 0-.4.1-.6h-.1c0 .2-.1.5-.2.6-.1.2-.3.2-.4 0 0-.1-.1-.4-.1-.6h-.1c0 .2-.1.5-.1.6-.1.2-.3.2-.4 0-.1-.1-.1-.4-.1-.6h-.2c0 .2-.1.4-.1.6-.1.2-.3.2-.4 0-.1-.1-.1-.4-.1-.6h-.1c0 .2 0 .4-.1.6-.1.3-.3.2-.4 0-.1-.1-.1-.4-.2-.6h-.2c.1.2.1.4.1.6 0 .3-.3.1-.4 0-.1-.1-.2-.4-.3-.6h-.2c.1.3.4.6.5.9h3.7s.5-.5.6-.9h-.1z"/>
      <path fill="#B49E5F" d="M34.8.2c0 .1-.1.2-.2.2s-.2-.1-.2-.2.1-.2.2-.2.2.1.2.2z"/>
      <path fill="#FFF" d="M34.5.2s0 .1 0 0c0 .1 0 0 0 0s0-.1 0 0c0-.1 0 0 0 0z"/>
      <path fill="#B49E5F" d="M35.6.2c0 .1-.1.2-.2.2s-.2-.1-.2-.2.1-.2.2-.2.2.1.2.2z"/>
      <path fill="#FFF" d="M35.3.2s0 .1 0 0c0 .1 0 0 0 0s0-.1 0 0c0-.1 0 0 0 0z"/>
      <path fill="#B49E5F" d="M36.3.2c0 .1-.1.2-.2.2S36 .3 36 .2s.1-.2.1-.2.2.1.2.2z"/>
      <path fill="#FFF" d="M36.1.2s0 .1 0 0c-.1.1-.1 0 0 0-.1 0-.1-.1 0 0 0-.1 0 0 0 0z"/>
      <path fill="#B49E5F" d="M37.2.2c0 .1-.1.2-.2.2s-.2-.1-.2-.2.1-.2.2-.2.2.1.2.2z"/>
      <path fill="#FFF" d="M36.9.2s0 .1 0 0c0 .1 0 0 0 0s0-.1 0 0c0-.1 0 0 0 0z"/>
      <g>
        <path fill="#B49E5F" d="M37.9.2c0 .1-.1.2-.2.2s-.2-.1-.2-.2.1-.2.2-.2c.2 0 .2.1.2.2z"/>
        <path fill="#FFF" d="M37.7.2s0 .1 0 0c0 .1 0 0 0 0s0-.1 0 0c0-.1 0 0 0 0z"/>
      </g>
      <g>
        <path fill="#B49E5F" d="M38.7.2c0 .1-.1.2-.2.2s-.2-.1-.2-.2.1-.2.2-.2.2.1.2.2z"/>
        <path fill="#FFF" d="M38.5.2s0 .1 0 0c-.1.1-.1 0 0 0-.1 0-.1-.1 0 0 0-.1 0 0 0 0z"/>
      </g>
      <g>
        <path fill="#B49E5F" d="M39.5.2c0 .1-.1.2-.2.2s-.2-.1-.2-.2.1-.2.2-.2.2.1.2.2z"/>
        <path fill="#FFF" d="M39.2.2s0 .1 0 0c0 .1 0 0 0 0s0-.1 0 0c0-.1 0 0 0 0z"/>
      </g>
      <path fill="#B49E5F" d="M38.2 2.3c0-.1-.5-.1-1.2-.1s-1.2.1-1.2.1c0 .1.5.1 1.2.1.6 0 1.2 0 1.2-.1z"/>
    </g>
    <g>
      <path fill="#211915" fill-rule="evenodd" d="M45.8 12.7c-.1-.4-.4-.9-.8-1.4-.4-.6-1.2.5-2 .5-.1-.2-.3-.5-.5-.9-.3-.5-.9 0-1.7.3-1.3.5-2.6.8-3.8.8-1.3 0-2.6-.3-3.8-.8-.7-.3-1.3-.9-1.7-.3-.2.4-.4.7-.5.9-.8 0-1.7-1.1-2.1-.5-.4.5-.7 1-.8 1.5-.2.4.5.2.5.9l.4-.8c.3.2.6.4.8.5.5.2.9.2 1.1.1.5-.3.7-.6.9-.8.3.2.7.4 1.2.6 1.3.5 2.5.7 3.8.7 1.2 0 2.5-.3 3.8-.7.5-.2.9-.4 1.2-.6.2.3.5.6.9.8h.1c.2.1.6.1 1.1-.1.2-.1.5-.3.8-.5l.4.8c.2-.7.9-.6.7-1zm-17.7 0c0 .1 0 .1 0 0zm17.7 0c0 .1 0 .1 0 0z" opacity=".4" clip-rule="evenodd"/>
      <path fill="#B49E5F" fill-rule="evenodd" d="M28.1 12.5c-.3.5.4.3.5 1l.6-1.1c.1-.6-.2-.1.2-.7-.3.1-.2-.4-.4-.2-.2.1-.7.9-.9 1.1" clip-rule="evenodd"/>
      <linearGradient id="e" x1="28.037" x2="29.38" y1="12.479" y2="12.479" gradientUnits="userSpaceOnUse">
        <stop offset="0" stop-color="#868589"/>
        <stop offset=".037" stop-color="#979699"/>
        <stop offset=".13" stop-color="#BCBCBE"/>
        <stop offset=".223" stop-color="#D9D9DA"/>
        <stop offset=".315" stop-color="#EEEEEF"/>
        <stop offset=".404" stop-color="#FBFBFB"/>
        <stop offset=".489" stop-color="#FFF"/>
        <stop offset=".568" stop-color="#FAFAFA"/>
        <stop offset=".666" stop-color="#EBEAEB"/>
        <stop offset=".774" stop-color="#D2D1D3"/>
        <stop offset=".888" stop-color="#AFAEB1"/>
        <stop offset="1" stop-color="#868589"/>
      </linearGradient>
      <path fill="url(#e)" fill-rule="evenodd" d="M28.1 12.5c-.3.5.4.3.5 1l.6-1.1c.1-.6-.2-.1.2-.7-.3.1-.2-.4-.4-.2-.2.1-.7.9-.9 1.1" clip-rule="evenodd"/>
      <path fill="#004479" fill-rule="evenodd" d="M29.8 13.2c-.4-.2-1.1-.9-1.7-.7.1-.5.4-.9.8-1.5s1.4.6 2.2.5c.4.2.7 2.5-1.3 1.7z" clip-rule="evenodd"/>
      <path fill="#B49E5F" fill-rule="evenodd" d="M30.8 11.9c-.8.4 1.2.7.2 1.4 1.6-.9 1.2-2 1.2-2.4-.2 0-.5.8-.7.6" clip-rule="evenodd"/>
      <linearGradient id="f" x1="31.007" x2="31.94" y1="11.746" y2="12.429" gradientUnits="userSpaceOnUse">
        <stop offset="0" stop-color="#868589"/>
        <stop offset=".037" stop-color="#979699"/>
        <stop offset=".13" stop-color="#BCBCBE"/>
        <stop offset=".223" stop-color="#D9D9DA"/>
        <stop offset=".315" stop-color="#EEEEEF"/>
        <stop offset=".404" stop-color="#FBFBFB"/>
        <stop offset=".489" stop-color="#FFF"/>
        <stop offset=".568" stop-color="#FAFAFA"/>
        <stop offset=".666" stop-color="#EBEAEB"/>
        <stop offset=".774" stop-color="#D2D1D3"/>
        <stop offset=".888" stop-color="#AFAEB1"/>
        <stop offset="1" stop-color="#868589"/>
      </linearGradient>
      <path fill="url(#f)" fill-rule="evenodd" d="M30.8 11.9c-.8.4 1.2.7.2 1.4 1.6-.9 1.2-2 1.2-2.4-.2 0-.5.8-.7.6" clip-rule="evenodd"/>
      <path fill="#B49E5F" fill-rule="evenodd" d="M45.8 12.5c.3.5-.4.3-.5 1l-.6-1.1c-.1-.6.2-.1-.2-.7.3.1.2-.4.4-.2.2.1.7.9.8 1.1" clip-rule="evenodd"/>
      <linearGradient id="g" x1="44.515" x2="45.858" y1="12.479" y2="12.479" gradientUnits="userSpaceOnUse">
        <stop offset="0" stop-color="#868589"/>
        <stop offset=".037" stop-color="#979699"/>
        <stop offset=".13" stop-color="#BCBCBE"/>
        <stop offset=".223" stop-color="#D9D9DA"/>
        <stop offset=".315" stop-color="#EEEEEF"/>
        <stop offset=".404" stop-color="#FBFBFB"/>
        <stop offset=".489" stop-color="#FFF"/>
        <stop offset=".568" stop-color="#FAFAFA"/>
        <stop offset=".666" stop-color="#EBEAEB"/>
        <stop offset=".774" stop-color="#D2D1D3"/>
        <stop offset=".888" stop-color="#AFAEB1"/>
        <stop offset="1" stop-color="#868589"/>
      </linearGradient>
      <path fill="url(#g)" fill-rule="evenodd" d="M45.8 12.5c.3.5-.4.3-.5 1l-.6-1.1c-.1-.6.2-.1-.2-.7.3.1.2-.4.4-.2.2.1.7.9.8 1.1" clip-rule="evenodd"/>
      <path fill="#004479" fill-rule="evenodd" d="M44.1 13.2c.4-.2 1.1-.9 1.7-.7-.1-.5-.4-.9-.8-1.5s-1.3.6-2.2.5c-.4.2-.7 2.5 1.3 1.7z" clip-rule="evenodd"/>
      <path fill="#B49E5F" fill-rule="evenodd" d="M43.1 11.9c.8.4-1.2.7-.2 1.4-1.6-.9-1.2-2-1.2-2.4.2 0 .5.8.7.6" clip-rule="evenodd"/>
      <linearGradient id="h" x1="43.053" x2="42.004" y1="11.678" y2="12.362" gradientUnits="userSpaceOnUse">
        <stop offset="0" stop-color="#868589"/>
        <stop offset=".037" stop-color="#979699"/>
        <stop offset=".13" stop-color="#BCBCBE"/>
        <stop offset=".223" stop-color="#D9D9DA"/>
        <stop offset=".315" stop-color="#EEEEEF"/>
        <stop offset=".404" stop-color="#FBFBFB"/>
        <stop offset=".489" stop-color="#FFF"/>
        <stop offset=".568" stop-color="#FAFAFA"/>
        <stop offset=".666" stop-color="#EBEAEB"/>
        <stop offset=".774" stop-color="#D2D1D3"/>
        <stop offset=".888" stop-color="#AFAEB1"/>
        <stop offset="1" stop-color="#868589"/>
      </linearGradient>
      <path fill="url(#h)" fill-rule="evenodd" d="M43.1 11.9c.8.4-1.2.7-.2 1.4-1.6-.9-1.2-2-1.2-2.4.2 0 .5.8.7.6" clip-rule="evenodd"/>
      <path fill="#004479" fill-rule="evenodd" d="M42.4 10.6c-.3-.5-.9 0-1.7.3-1.3.5-2.6.8-3.8.8-1.3 0-2.6-.3-3.8-.8-.7-.3-1.3-.8-1.7-.3-.6 1.4-.8 1.4-.8 1.4.7-.3 1.3.5 2.6 1s2.5.7 3.8.7c1.2 0 2.5-.3 3.8-.7 1.3-.5 1.9-1.3 2.6-1-.2 0-.3 0-1-1.4z" clip-rule="evenodd"/>
      <linearGradient id="i" x1="30.587" x2="43.307" y1="12.104" y2="12.104" gradientUnits="userSpaceOnUse">
        <stop offset="0" stop-color="#868589"/>
        <stop offset=".016" stop-color="#919093"/>
        <stop offset=".074" stop-color="#B2B2B4"/>
        <stop offset=".137" stop-color="#CECED0"/>
        <stop offset=".203" stop-color="#E4E4E5"/>
        <stop offset=".277" stop-color="#F3F3F3"/>
        <stop offset=".361" stop-color="#FCFCFC"/>
        <stop offset=".483" stop-color="#FFF"/>
        <stop offset=".659" stop-color="#FDFDFD"/>
        <stop offset=".746" stop-color="#F5F5F5"/>
        <stop offset=".813" stop-color="#E8E8E9"/>
        <stop offset=".87" stop-color="#D6D5D7"/>
        <stop offset=".921" stop-color="#BEBDBF"/>
        <stop offset=".967" stop-color="#A1A0A3"/>
        <stop offset="1" stop-color="#868589"/>
      </linearGradient>
      <path fill="url(#i)" fill-rule="evenodd" d="M42.4 10.6c-.3-.5-.9 0-1.7.3-1.3.5-2.6.8-3.8.8-1.3 0-2.6-.3-3.8-.8-.7-.3-1.3-.8-1.7-.3-.6 1.4-.8 1.4-.8 1.4.7-.3 1.3.5 2.6 1s2.5.7 3.8.7c1.2 0 2.5-.3 3.8-.7 1.3-.5 1.9-1.3 2.6-1-.2 0-.3 0-1-1.4z" clip-rule="evenodd"/>
    </g>
    <g fill="#FFF">
      <path d="M33.5 11.6s-.1.1-.1.2c0-.1 0-.2-.2-.3-.1-.1-.4 0-.5.2-.1.3-.1.5.1.6.2.1.3 0 .4-.1-.1.1-.1.2-.2.2s-.2 0-.3-.1l-.3-.3c0-.1-.1-.3 0-.4l.3-.3c.1 0 .3 0 .4.1.3.1.4.2.4.2zM33.8 12.1l.1.1h.2c0 .1 0 .1-.1.2v.1h-.1c0-.1 0-.1-.1-.1h-.1l-.1.2v.1s0 .1.1.1.2.1.3-.1h.1c0 .1-.1.2-.1.2-.1 0-.2-.1-.3-.1l-.2-.1c-.1 0-.1-.1-.2-.1h.1c.1 0 .1 0 .1-.1l.2-.5v-.2c.1 0 .1 0 .2.1l.3.1c.1 0 .2.1.2.1v.2h-.1v-.1s0-.1-.1-.1h-.1H33.8z"/>
      <path d="M34.5 12.2V12v-.1c.1 0 .2 0 .3.1.1 0 .2.1.3.1.1.1.1.2.1.2 0 .1-.1.2-.2.2 0 .2.1.3.1.4l.1.1h-.1c-.1 0-.2-.1-.2-.2s0-.2-.1-.2c0 0 0-.1-.1-.1h-.1v.5c-.1 0-.1 0-.2-.1h-.2c.1 0 .1 0 .1-.1l.2-.6zm.2.2c.1.1.2.1.2.1l.1-.1c0-.1 0-.2-.1-.2s-.1 0-.1.1l-.1.1zM35.9 12.8c-.1.2-.1.3-.2.3h-.1v-.2l-.2-.6c0-.1 0-.1-.1-.2h.4v.2l.1.3v.1c0 .1 0 .1.1.1v-.2c0-.1.1-.2.2-.3H36.4v.1h-.1s-.1.1-.1.2l-.3.2z"/>
      <path d="M36.6 12.6c0 .1 0 .1 0 0l.1.1c.1 0 .1 0 .1-.1h.1v.4h-.1c0-.1 0-.1-.1-.1h-.1V13.2h.1c.1 0 .2 0 .3-.1 0 .1 0 .2-.1.2h-.7.1s.1 0 .1-.1v-.5c0-.1 0-.1-.1-.2v-.1h.7v.2h-.1s0-.1-.1-.1l-.1-.1h-.1v.2zM38 12.2v.2h-.1c-.1-.1-.1-.2-.3-.2-.2 0-.3.2-.3.5s.2.4.4.4.2-.2.3-.2h.1v.2c-.1 0-.2.1-.3.1-.1 0-.3 0-.4-.1-.1-.1-.2-.2-.2-.4s0-.3.1-.4c.1-.1.2-.2.4-.2.2.1.3.1.3.1zM38.6 12.5h.1c.1 0 .1 0 .1-.1h.1V12.7h-.1c0-.1 0-.1-.1-.1l-.1-.1v.5h.2c.1 0 .2 0 .2-.2h.1v.2c-.1 0-.2 0-.3.1h-.2c-.1 0-.1 0-.3.1v-.1h.1c.1 0 .1 0 0-.2l-.1-.5c0-.1 0-.1-.1-.1h.2l.3-.1h.2s0 .1.1.2h-.1s0-.1-.1-.1h-.2v.2zM39.2 12.2c0-.1-.1-.2-.1-.1.1 0 .2-.1.3-.1h.3c.1 0 .2.1.2.2s0 .2-.1.3c.1.2.2.2.3.3h0c-.1 0-.2 0-.3-.1l-.2-.2h-.1v.2c0 .1 0 .1.1.1h-.2c-.1 0-.1 0-.2.1.1 0 .1 0 0-.2v-.5zm.3.1s0 .1.1 0c0 0 .1 0 .1-.1V12c0-.1-.1-.2-.3-.2 0 0-.1 0 0 .1l.1.4zM40.6 12.3l.1.1v.1c-.1 0-.1 0-.2.1-.1 0-.1 0-.2.1.1 0 .1 0 0-.2l-.2-.5c0-.1 0-.1-.1-.1v-.1c.1 0 .1 0 .2-.1.1 0 .1 0 .2-.1v.1c-.1 0-.1 0 0 .2l.2.4zM41 12V12.3h.1v.1c-.1 0-.1 0-.2.1 0 0-.1 0-.1.1v-.1V11.9v-.2l.1-.1.1.1.4.4.1.1v.1s-.1.1-.2.1-.1.1-.2.1l-.1-.1-.1-.1h-.1l.2-.3zm.1-.2c.1 0 .1 0 0 0l-.1-.1-.1-.1V11.9l.2-.1z"/>
    </g>
    <g>
      <g fill="#004479">
        <path d="M20.6 6.8v-.5c0-.1 0-.1-.1-.1h-.2v-.1h.8c.4 0 .7 0 .9.2.2.2.3.4.3.7 0 .3-.1.5-.3.7-.1.3-.6.3-.7.3h-.9v-.1h.2c.1 0 .1 0 .1-.1v-1zm.4.3V8s.1.1.2.1c.2 0 .4-.1.6-.3.1-.3.2-.5.2-.7 0-.2-.1-.5-.2-.6-.2-.2-.4-.3-.6-.3H21V7.1zM22.9 7.4c0 .3.2.4.3.4.2 0 .3-.1.3-.2v.1c0 .1-.2.3-.5.3-.2 0-.3 0-.4-.1-.1-.1-.2-.3-.2-.5s0-.3.1-.4c.1-.1.2-.2.5-.2s.4.3.4.4h-.1l-.4.2zm.3-.1c.1 0 .1-.1 0 0 .1-.2.1-.3 0-.3-.2 0-.2.1-.3.3h.3zM23.8 7.7c.1-.1.1-.1 0 0l.2.1c.1.1.1.2.2.2s.2-.1.2-.2-.1-.2-.3-.2c-.2-.1-.3-.2-.3-.3 0-.2.1-.3.2-.3.1-.1.2-.1.3-.1.1 0 .2 0 .3.1h.1v.2h-.1l-.1-.1s-.1-.1-.2-.1c-.2 0-.3 0-.3.1s.1.1.3.2c.1 0 .2.1.3.1.1.1.1.1.1.2 0 .2-.2.4-.4.4s-.3 0-.3-.1l-.2-.2zM26 7.6v.2s.1 0 .1.1h.1l-.4.1v-.1c-.1.1-.3.2-.4.2-.1 0-.2 0-.3-.1-.1-.1-.2-.2-.2-.4s0-.3.2-.5c.1-.1.2-.2.4-.2h.3v-.5c0-.1 0-.1-.2-.1v-.2c.1 0 .3 0 .4-.1h.1v1.6zm-.3-.4v-.1c-.1-.1-.2-.1-.3-.1-.1 0-.1 0-.2.1s-.1.2-.1.3c0 .3.2.5.3.5.1 0 .2-.1.2-.1v-.6z"/>
        <path d="M26.5 7.4c0 .3.2.4.3.4.2 0 .3-.1.3-.2v.1c-.1.1-.2.3-.5.3-.2 0-.3 0-.4-.1-.1-.1-.2-.3-.2-.5s0-.3.1-.4c.1-.1.2-.2.5-.2s.4.3.4.4h-.1l-.4.2zm.4-.1s.1-.1 0 0c.1-.2 0-.3-.1-.3s-.2.1-.3.3h.4z"/>
      </g>
      <g fill="#004479">
        <path d="M46.5 6.4c0-.1 0-.2-.1-.2h-.1l-.2.1v-.1l.8-.4v2c0 .2 0 .2.2.2h-1v-.1h.1c.2 0 .2 0 .2-.2V6.4zM48.8 6c.2.2.2.5.2.6 0 .4-.2.9-.5 1.2-.2.1-.3.2-.5.3h-.1V8c.3-.1.7-.5.7-1-.1.1-.2.1-.4.1-.4 0-.6-.3-.6-.6 0-.2.1-.4.2-.6.1-.1.3-.2.5-.2.2.1.4.2.5.3zm-.2.9c0-.1.1-.2.1-.4 0-.3-.1-.6-.3-.6-.2 0-.3.2-.3.5-.1.3 0 .6.2.6.1 0 .2-.1.3-.1zM49.8 6.4c0-.1 0-.2-.1-.2h-.1l-.2.1v-.1l.8-.4v2c0 .2 0 .2.2.2h-.9v-.1h.1c.2 0 .2 0 .2-.2V6.4zM51.1 8H51h-.1v-.1l.7-.7c.2-.3.3-.5.3-.8 0-.3-.2-.4-.4-.4s-.3.2-.4.3H51c.1-.1.2-.5.7-.5.3 0 .6.3.6.6s-.1.5-.4.9l-.5.5h.6c.2 0 .3-.1.4-.3h.1v.1l-.2.6h-1.2z"/>
      </g>
    </g>
  </g>
</svg>
