<svg xmlns="http://www.w3.org/2000/svg" xmlns:xlink="http://www.w3.org/1999/xlink" viewBox="0 0 57 61.9">
  <path fill="#009ADA" d="M55.8 13.8c-1.6 1.9-3.5 3.8-5.6 5.7-2.1 1.9-4.2 3.8-6.4 5.5-2.2 1.7-4.4 3.3-6.7 4.7-2.3 1.4-4.5 2.5-6.6 3.3-1.6.6-3.2 1-4.5 1.3-1.4.2-2.7.4-3.9.4-6 0-9.1-2.3-9.1-6.8 0-1.8.4-3.7 1.3-5.6 2.1-4.6 5-8.8 8.8-12.4C26.9 6.3 31 3.7 35.4 2c1.3-.5 2.4-.7 3.3-.7 4.1 0 6.1 1.4 6.1 4.3 0 1.5-.5 2.5-1.2 3.4-.5.7-1.7 2-4 2.9l.2-.5c.3-.8.5-1.6.5-2.5 0-1-.4-1.9-1.2-2.8-.8-.9-2.1-1.3-3.9-1.3-2.1 0-4.1.6-6 1.9-1.9 1.2-3.6 2.9-5.1 4.9-1.5 2-2.7 4.3-3.5 7-.9 2.6-1.3 5.3-1.3 8.1 0 2.1.6 3.6 1.9 4.7 1.3 1 2.8 1.6 4.7 1.6 3.1 0 7.2-1.6 12.4-4.8C43.5 25 49.1 20.1 55 13.6c.5-.5 1-.6 1.2-.4.3-.3.1.1-.4.6z"/>
  <defs>
    <path id="a" d="M20.3 36.4c-18.6-4-1.9-22 1.6-25.6-29.2 29.1-1.6 25.6-1.6 25.6zM40 0c11.1 1.7 5.1 10.8 1.8 12.7C60.3 2 40 0 40 0zM29.7 37.3C16.6 41.1 7.3 40.1 3.9 32c-1.1-2.5-1.1-5.2-.3-8C.2 28.6-1 31 .8 35.3c3.4 8.1 16.4 10.4 28.9 5.2 8.7-3.7 13-7.6 16.8-13.6-5.3 6.5-13.4 9.4-16.8 10.4z"/>
  </defs>
  <use fill="#D8DADD" xlink:href="#a" overflow="visible"/>
  <g>
    <path fill="#707175" d="M50 28.6c0 .2-.1.4-.2.7l-.6.9c-.3.3-.5.5-.9.7-.3.2-.6.3-.9.3-.3 0-.5-.1-.7-.2-.2-.1-.3-.4-.3-.6 0-.7.3-1.3.8-1.9.5-.5 1.1-.8 1.8-.8.2 0 .4.1.7.2.1.1.3.4.3.7z"/>
  </g>
  <g fill="#211915">
    <path d="M10.3 47.7c0 .1-.1.2-.1.2-.1.1-.2.1-.3.2-.1 0-.2.1-.2.1-.1 0-.2.1-.3.1h-.8v.8c0 .1 0 .1.1.2l.1.1c.1 0 .2.1.3.1H7.6c.1 0 .1 0 .2-.1.1 0 .1-.1.2-.1v-.1-.1-.1-.1-.2-.2-.2-1-.1-.2-.1-.1s-.1-.1-.2-.1h-.2H9.5c.2 0 .3.1.4.1l.3.3c.1.1.1.3.1.4.1 0 0 .1 0 .2zm-.6-.7c-.1-.1-.2-.2-.4-.3-.1 0-.2 0-.2-.1h-.5-.1v1.5h.4c.1 0 .2 0 .3-.1.2-.1.3-.2.5-.3.1-.1.2-.3.2-.5l-.2-.2zM11 49.5c.1-.1.2-.1.2-.1.1 0 .1-.1.2-.1v-.1-.1-.1-.1-.2-.2-.2-1-.1-.1-.1-.1s-.1-.1-.2-.1H11h1.4-.2c-.1 0-.1.1-.2.1V49.4s.1.1.2.1.2 0 .2.1H11zM15.5 49.1c-.1.1-.1.2-.3.3-.1.1-.2.1-.4.2-.1 0-.3.1-.5.1h-.4c-.1 0-.2 0-.3-.1-.1 0-.1 0-.2-.1h-.1-.1l-.1.1v-.8c0 .1.1.2.1.2 0 .1.1.1.1.2s.1.1.2.2c.1 0 .1.1.2.1s.1 0 .2.1h.2c.2 0 .4-.1.6-.2.1-.1.2-.3.2-.5v-.2c0-.1-.1-.1-.1-.2 0 0-.1-.1-.2-.1s-.1-.1-.2-.1-.1 0-.2-.1H14h-.2s-.1 0-.2-.1c-.1 0-.2-.1-.2-.1l-.2-.2c-.1-.1-.1-.1-.1-.2v-.3c0-.1 0-.3.1-.4.1-.1.1-.2.2-.3.1-.1.2-.1.4-.2.1 0 .3-.1.4-.1h.4c.1 0 .2 0 .2.1.1 0 .1 0 .1.1h.1l.1-.1s0-.1.1-.1h.1v.8h-.1c0-.1-.1-.2-.1-.3-.1-.1-.1-.2-.2-.2-.1-.1-.2-.1-.3-.2-.1 0-.2-.1-.3-.1H14c-.1 0-.2.1-.2.1-.1 0-.1.1-.1.2s-.1.2-.1.3c0 .1.1.3.1.4.1.1.2.2.4.2.1 0 .1 0 .2.1h.4c.1 0 .1 0 .2.1.2.1.4.2.5.3.1.1.2.3.2.5-.1.4-.1.5-.1.6zM19.4 47.5c0-.1-.1-.3-.2-.4l-.3-.3c-.1-.1-.2-.2-.4-.2-.1-.1-.3-.1-.4-.1-.2 0-.4 0-.6.1-.2.1-.3.2-.4.3-.1.1-.2.3-.3.5-.1.2-.1.4-.1.5 0 .2 0 .4.1.6.1.2.2.3.3.5.1.1.3.2.4.3.2.1.4.1.6.1.2 0 .3 0 .4-.1.1-.1.3-.1.4-.2l.3-.3c.1-.1.1-.2.2-.3h.1v.9h-.1l-.1-.1-.1-.1h-.1c-.1 0-.1.1-.2.1s-.2.1-.3.1h-.5c-.3 0-.5 0-.8-.1l-.6-.3c-.2-.1-.3-.3-.4-.5-.1-.2-.1-.4-.1-.6v-.2-.2c0-.1.1-.2.1-.2 0-.1.1-.2.1-.2.1-.1.1-.2.2-.3.1-.1.2-.2.3-.2.1-.1.3-.1.4-.2.2 0 .3-.1.5-.1h.5c.1 0 .3.1.3.1.1 0 .2.1.2.1h.2l.1-.1.1-.1h.1l.1 1.2zM23.5 48.6c-.1.2-.2.4-.4.5-.2.1-.3.2-.6.3-.2.1-.4.1-.7.1-.2 0-.5 0-.7-.1-.2-.1-.4-.2-.5-.3-.2-.1-.3-.3-.4-.5-.1-.2-.1-.4-.1-.6 0-.2.1-.4.1-.6.1-.2.2-.3.4-.5.2-.1.3-.2.6-.3.2-.1.4-.1.7-.1.3 0 .5 0 .7.1.2.1.4.2.5.3.1.1.3.3.3.5.1.2.1.4.1.6.1.2.1.4 0 .6zm-.5-1.1c0-.2-.1-.3-.2-.5-.1-.1-.2-.2-.4-.3-.1-.1-.3-.1-.5-.1s-.4 0-.5.1c-.1.1-.3.2-.4.3-.1.1-.2.3-.2.5s-.1.4-.1.5c0 .2 0 .4.1.5.1.2.1.3.2.5.1.1.2.2.4.3.2.1.3.1.5.1s.4 0 .5-.1c.1-.1.3-.2.4-.3.1-.1.2-.3.2-.5s.1-.3.1-.5c-.1-.1-.1-.3-.1-.5zM28.3 47.7c0 .1-.1.2-.1.2-.1.1-.2.1-.3.2-.1 0-.2.1-.2.1-.1 0-.2.1-.3.1H26.5v.8c0 .1 0 .1.1.2l.1.1c.1 0 .2.1.3.1h-1.5c.1 0 .1 0 .2-.1.1 0 .1-.1.2-.1v-.1-.1-.1-.1-.2-.2-.2-1-.1-.2-.1-.1s-.1-.1-.2-.1h-.2H27.4c.2 0 .3.1.4.1l.3.3c.1.1.1.3.1.4.1 0 .1.1.1.2zm-.6-.7c-.1-.1-.2-.2-.4-.3-.1 0-.2 0-.2-.1h-.5-.1v1.5h.4c.1 0 .2 0 .3-.1.2-.1.3-.2.4-.3.1-.1.2-.3.2-.5 0 0 0-.1-.1-.2zM31.5 49.5l-.1-.1-.1-.1-.1-.1-.2-.2c0-.1-.1-.1-.1-.2s-.1-.1-.2-.2c0-.1-.1-.1-.2-.2l-.2-.2c-.1-.1-.2-.1-.2-.1H30h-.1v1.2l.1.1c.1 0 .2.1.3.1H29c.1 0 .2 0 .2-.1.1 0 .1-.1.2-.1v-.1-.1-.1-.1-.2-.2-.2-1-.1-.2-.1-.1s-.1-.1-.2-.1H29h1.8c.2 0 .3 0 .4.1.1.1.2.1.3.3.1.1.1.2.1.4 0 .1 0 .2-.1.3 0 .1-.1.1-.2.2s-.2.1-.2.2c-.1 0-.2.1-.3.1 0 0 .1.1.2.1 0 0 .1.1.1.2l.3.3.3.3.3.3c.1.1.2.1.4.1h-.9zM31 47l-.3-.3c-.1 0-.1-.1-.2-.1H30h-.1v1.3h.4c.1 0 .2 0 .3-.1.1 0 .2-.1.3-.1.1 0 .1-.1.2-.2 0-.1.1-.1.1-.2v-.2c0 .1-.1 0-.2-.1zM35.6 49.5h-2.8c.1 0 .1 0 .2-.1.1 0 .1-.1.2-.1v-.1-.1-.1-.1-.2-.2-.2-1-.2-.2-.1-.1c-.1 0-.1-.1-.2-.1h-.2 2.5l.3.7c-.2-.3-.5-.5-.7-.6-.1 0-.2 0-.3-.1H33.8V48h.7c.1 0 .2 0 .2-.1.1 0 .1-.1.2-.1 0 0 .1-.1.1-.2s0-.1.1-.2H35v1.3h-.1c0-.1-.1-.2-.1-.3-.1-.1-.1-.2-.2-.2 0 0-.1-.1-.2-.1h-.2-.1-.1-.1-.1V49.2c0 .1 0 .1.1.2 0 0 .1.1.2.1h.8c.1 0 .2 0 .3-.1.1 0 .2-.1.2-.1.1-.1.2-.1.2-.2.1-.1.1-.2.2-.3h.1l-.3.7zM39.1 49.5c.1 0 .2-.1.3-.1.1 0 .2-.1.2-.2v-.1-.2-.5-1.7l-.3.6c-.1.2-.2.3-.2.5-.1.2-.2.3-.3.5l-.3.6s0 .1-.1.1c0 .1-.1.1-.1.2s-.1.1-.1.2v.1l-.3-.6-.3-.6c-.1-.2-.2-.4-.3-.5-.1-.2-.2-.3-.2-.4-.1-.1-.1-.2-.2-.3 0-.1-.1-.1-.1-.2V49c0 .1 0 .2.1.2 0 .1.1.1.2.2.1 0 .2.1.3.1h-1.2c.1 0 .2-.1.3-.1.1 0 .1-.1.2-.2 0-.1.1-.2.1-.2v-.4-.4-.5-.2-.2-.2-.2c0-.1 0-.1-.1-.2l-.1-.1s-.1 0-.2-.1h-.1 1l1.1 2.3c.1-.3.3-.5.4-.8.1-.3.2-.5.3-.7.1-.2.2-.4.3-.5.1-.1.1-.2.1-.2h1c-.1 0-.2 0-.3.1-.1 0-.1.1-.1.2v2.6l.1.1s.1 0 .1.1h.2-1.4zM41.4 49.5c.1-.1.2-.1.2-.1.1 0 .1-.1.2-.1v-.1-.1-.1-.1-.2-.2-.2-1-.1-.1-.1-.1s-.1-.1-.2-.1h-.2 1.4-.2c-.1 0-.1.1-.2.1V49.4s.1.1.2.1.2 0 .2.1h-1.4zM46.9 46.7c-.1 0-.1.1-.2.2V49c0 .1-.1.2-.1.3-.1.1-.1.2-.2.2-.1.1-.2.1-.4.2-.2 0-.3.1-.6.1s-.4 0-.6-.1c-.2 0-.3-.1-.4-.2-.1-.1-.2-.1-.2-.2-.1-.3-.2-.4-.2-.4v-.2-.2-.3-.9-.1-.1-.1-.1s-.1-.1-.2-.1h-.2H44.9s-.1 0-.1.1l-.1.1s0 .1-.1.2v1.7c0 .1 0 .3.1.4 0 .1.1.2.2.3.1.1.2.2.3.2.1 0 .3.1.4.1.2 0 .3 0 .4-.1.1 0 .2-.1.3-.2l.2-.2c.1-.1.1-.2.1-.3v-.3-.3-.2-.2-.2-.2-.2-.2-.1-.1c0-.1-.1-.1-.2-.2s-.2-.1-.3-.1h1.1c-.2-.2-.3-.2-.3-.1zM50.4 49.5c.1 0 .2-.1.3-.1.1 0 .2-.1.2-.2v-.1-.2-.5-1.7l-.3.6c-.1.2-.2.3-.2.5-.1.2-.2.3-.3.5l-.3.6s0 .1-.1.1c0 .1-.1.1-.1.2s-.1.1-.1.2v.1l-.3-.6-.3-.6c-.1-.2-.2-.4-.3-.5-.1-.2-.2-.3-.2-.4-.1-.1-.1-.2-.2-.3 0-.1-.1-.1-.1-.2V49c0 .1 0 .2.1.2 0 .1.1.1.2.2.1 0 .2.1.3.1h-1.2c.1 0 .2-.1.3-.1.1 0 .1-.1.2-.2 0-.1.1-.2.1-.2v-.4-.4-.5-.2-.2-.2-.2c0-.1 0-.1-.1-.2l-.1-.1s-.1 0-.2-.1h-.1 1l1.1 2.3c.1-.3.3-.5.4-.8.1-.3.2-.5.3-.7.1-.2.2-.4.3-.5.1-.1.1-.2.1-.2h1c-.1 0-.2 0-.3.1-.1 0-.1.1-.1.2v2.6l.1.1s.1 0 .1.1h.2-1.4z"/>
  </g>
  <g fill="#211915">
    <path d="M6.9 53.5c0 .3-.1.6-.2.9-.1.3-.3.7-.5 1s-.4.7-.7 1.1c-.2.4-.5.7-.8 1.1-.3.3-.5.7-.8 1-.3.3-.5.6-.7.8l-.5.5-.2.2c-.1 0-.2 0-.2-.1v-.1l.8-.8c.3-.3.6-.6.9-1 .3-.3.7-.7 1-1.1.3-.4.6-.8.8-1.1.2-.4.4-.7.6-1.1.1-.4.2-.7.2-1 0-.4-.1-.7-.3-1-.2-.3-.4-.5-.7-.6-.3-.2-.6-.3-1-.4-.4-.1-.7-.1-1.1-.1-.4 0-.8 0-1.2.1-.3.1-.7.2-1 .3-.3.1-.6.2-.8.4-.2.2-.3.3-.3.5 0 .1 0 .2.1.3.1.1.1.1.2.1v.1H.4c-.1 0-.2-.1-.2-.1s-.1-.1-.1-.2-.1-.2-.1-.3c0-.3.1-.5.3-.7.2-.2.4-.4.8-.6.3-.2.7-.3 1.1-.3.4-.1.8-.1 1.3-.1.4 0 .8 0 1.3.1.4.1.8.2 1.1.4.3.2.6.4.8.7.1.4.2.7.2 1.1zM8.1 55.1l-1 1.9c.1-.1.2-.3.3-.4.1-.2.2-.3.4-.5.1-.2.3-.3.4-.5.2-.2.3-.3.5-.4 0-.1.1-.1.1-.2 0 0 .1-.1.2-.1H9.3c-.1.1-.2.3-.3.4-.1.2-.1.3-.1.5s0 .3.1.4c.1.1.1.1.2.1s.2 0 .2-.1c.1 0 .2-.1.2-.2l.2-.2c.1.2.2.2.2.1h.1c-.1.1-.1.2-.2.3l-.2.2c-.1.1-.2.1-.3.2-.1 0-.2.1-.3.1-.2 0-.3-.1-.4-.2-.1-.1-.2-.3-.2-.6 0-.2 0-.3.1-.4-.2.2-.5.4-.7.7-.3.3-.5.7-.8 1.1-.1.1-.2.3-.3.6-.1.2-.2.5-.3.8h-.7c.3-.6.6-1.2.9-1.7l.9-1.8h.5zM11.3 55.1c-.3.5-.5 1-.8 1.4-.2.4-.4.7-.5.9l-.3.6c-.1.1-.1.3-.1.3 0 .2.1.3.2.3s.2-.1.4-.1c.1-.1.3-.2.5-.4l.5-.5c.2-.2.3-.4.4-.6.1-.2.3-.4.4-.6.1-.2.2-.3.2-.4l.1.1c-.1.1-.2.3-.3.5-.1.2-.2.4-.4.6-.1.2-.3.4-.4.6-.2.2-.3.4-.5.5-.2.2-.3.3-.5.4-.2.1-.3.1-.4.1-.1 0-.3-.1-.3-.2-.1-.1-.1-.2-.1-.3 0-.1 0-.3.1-.5s.1-.4.2-.6c.1-.2.3-.5.4-.8.2-.3.4-.7.7-1.2h.5zm.7-1.8c0 .1.1.1.1.2s0 .2-.1.2c0 .1-.1.1-.2.1s-.1 0-.2-.1-.1-.1-.1-.2 0-.2.1-.2c0-.1.1-.1.2-.1s.1 0 .2.1zM14.6 53.1c-.3.5-.6 1.1-.9 1.6-.3.5-.6 1.1-.9 1.6.1-.1.2-.3.3-.4.1-.2.2-.3.4-.4.1-.1.3-.3.4-.3.1-.2.3-.2.4-.2.2 0 .3.1.4.2.1.1.2.3.2.6 0 .2 0 .3-.1.5 0 .2-.1.3-.2.5-.1.1-.1.3-.2.4-.1.1-.2.2-.2.3.4-.1.7-.3 1.1-.5.3-.2.6-.6.9-1.1h.1c-.2.4-.5.7-.7.9-.2.2-.4.4-.6.5-.2.1-.3.2-.5.2s-.3.1-.4.1l-.3.3-.4.4c-.1.1-.3.2-.4.3-.1.1-.3.1-.4.1-.1 0-.2 0-.2-.1-.1 0-.1-.1-.1-.2s.1-.3.2-.4c.1-.1.2-.2.4-.2.2-.1.3-.1.5-.1s.3-.1.4-.1c.1-.1.1-.2.2-.4.1-.1.1-.3.2-.5s.1-.3.1-.5.1-.3.1-.5 0-.4-.1-.5c-.1-.1-.1-.1-.2-.1s-.3.1-.4.2l-.4.4c-.1.2-.3.4-.4.6-.1.2-.3.4-.4.7l-.3.6c-.1.2-.2.4-.2.5 0 .1-.1.2-.2.4l-.3.6c-.1.2-.2.5-.4.7-.1.3-.3.5-.4.8-.1.3-.2.5-.4.7-.1.2-.2.5-.3.6h-.5c.7-1.5 1.5-2.9 2.2-4.4.8-1.5 1.5-2.9 2.3-4.4h.6zM13 58.5c.1-.1.2-.1.3-.2l.3-.3c.1-.1.1-.2.2-.2-.1 0-.2 0-.3.1-.1 0-.3.1-.4.1-.1 0-.2.1-.3.2-.1.1-.1.2-.1.3 0 .1 0 .1.1.2 0 0 .1.1.2.1-.2-.2-.1-.3 0-.3zM19.4 51.5c-.5.9-.9 1.7-1.3 2.4s-.7 1.2-.9 1.7c-.3.5-.5.9-.6 1.2-.2.3-.3.6-.4.8-.1.2-.2.3-.2.5 0 .1-.1.2-.1.3 0 .2.1.3.2.3s.3-.1.5-.2.4-.3.6-.6c.2-.2.4-.5.6-.8.2-.3.4-.7.6-1h.1c-.2.3-.4.7-.6 1-.2.3-.4.6-.6.8l-.7.7c-.2.1-.4.2-.5.2-.2 0-.3 0-.4-.1-.1-.1-.1-.2-.1-.4 0-.1 0-.3.1-.4 0-.2.1-.3.2-.6.1-.2.2-.5.4-.8.2-.3.4-.7.6-1.1l.8-1.6c.3-.6.7-1.3 1.1-2.2h.6zM21.7 56l-.3.6c-.1.2-.3.4-.4.6-.2.2-.3.4-.5.6l-.5.5c-.2.1-.4.3-.6.3-.2.1-.4.1-.6.1-.2 0-.4-.1-.5-.2-.1-.1-.2-.4-.2-.6 0-.3.1-.6.2-.9.1-.3.3-.6.6-.9.2-.3.5-.5.7-.7.3-.2.5-.3.8-.3.1 0 .2 0 .3.1.1.1.1.2.1.3 0 .2-.1.3-.2.5s-.3.3-.5.4c-.2.1-.4.2-.7.3-.2.1-.4.2-.6.2-.1.1-.1.3-.1.5s-.1.3-.1.5v.2c0 .1 0 .1.1.2 0 .1.1.1.1.2.1 0 .1.1.2.1.2 0 .4-.1.6-.2.2-.1.5-.3.7-.6.3-.2.5-.5.7-.8.3-.4.5-.8.7-1zm-1.4-.8s-.1-.1-.2-.1-.2.1-.4.2l-.4.4c-.1.2-.2.3-.4.5-.1.2-.2.4-.2.5.1 0 .3-.1.5-.2s.3-.2.5-.3c.2-.1.3-.2.4-.4.1-.2.2-.3.2-.5.1 0 0-.1 0-.1zM31.6 53.5c0 .4-.1.8-.2 1.2-.1.4-.3.9-.5 1.3s-.5.8-.8 1.2c-.3.4-.6.7-1 1-.4.3-.8.5-1.2.7-.4.2-.9.2-1.4.2-.4 0-.7-.1-.9-.2-.3-.1-.5-.2-.6-.4-.2-.2-.3-.3-.5-.6-.2.2-.4.3-.6.5-.1.1-.2.1-.2.2-.1.1-.2.1-.2.2-.1 0-.1.1-.2.1h-.1-.1v-.1c0-.1.1-.2.2-.4s.3-.5.4-.7c.2-.3.4-.6.6-1 .2-.3.5-.7.7-1.1v-.1c0-.5.1-.9.2-1.3s.3-.8.5-1.1c.2-.3.5-.6.8-.9.3-.3.6-.5.9-.7.3-.2.6-.3 1-.4.3-.1.6-.1.9-.1.4 0 .8.1 1.1.2.3.1.5.3.7.5.2.2.3.5.4.8.1.4.1.7.1 1zm-.3.3c0-.3 0-.7-.1-1-.1-.3-.2-.6-.4-.8-.2-.2-.5-.4-.8-.5-.3-.1-.7-.2-1.1-.2-.5 0-.9.1-1.3.3-.4.2-.8.5-1.1.9-.3.4-.6.8-.8 1.2-.2.5-.3.9-.3 1.4v.1c.2-.2.3-.5.5-.7.2-.2.3-.4.4-.6.1-.2.2-.3.4-.5.1-.1.2-.3.2-.3l.1-.1s.1-.1.2-.1h.1v.1s0 .1-.1.1c-.2.3-.5.7-.9 1.1-.3.4-.7.9-1 1.3 0 .4.1.8.3 1.1.1.3.3.6.4.7v.2s0 .1-.1.1l-.1.1h-.1c-.4-.5-.6-1-.7-1.7-.2.3-.4.6-.7.9-.2.3-.4.6-.5.8-.2.2-.3.4-.4.6-.1.2-.1.3-.1.3v.1s.1 0 .2-.1.2-.1.3-.2l.3-.3.3-.3.2-.2.1-.1.1-.1v.1c.1.2.2.4.4.6.2.2.3.3.5.4.2.1.3.1.5.2h.5c.4 0 .8-.1 1.2-.2.4-.1.7-.3 1.1-.6.3-.2.6-.5.9-.9.3-.3.5-.7.7-1 .2-.4.3-.7.4-1.1.2-.3.3-.7.3-1.1zM34.6 56l-.3.6c-.1.2-.3.4-.4.6-.2.2-.3.4-.5.6-.2.2-.4.4-.6.5-.2.1-.4.3-.6.3-.2.1-.4.1-.6.1-.2 0-.4-.1-.5-.2-.1-.1-.2-.4-.2-.6 0-.3.1-.6.2-.9.1-.3.3-.6.6-.9.2-.3.5-.5.7-.7.3-.2.5-.3.8-.3.1 0 .2 0 .3.1.1.1.1.2.1.3 0 .2-.1.3-.2.5s-.3.3-.5.4c-.2.1-.4.2-.7.3-.2.1-.4.2-.6.2-.1.1-.1.3-.1.5s-.1.3-.1.5v.2c0 .1 0 .1.1.2 0 .1.1.1.1.2.1 0 .1.1.2.1.2 0 .4-.1.6-.2.2-.1.5-.3.7-.6.3-.2.5-.5.7-.8.4-.4.6-.8.8-1zm-1.3-.8s-.1-.1-.2-.1-.2.1-.4.2l-.4.4c-.1.2-.3.3-.4.5-.1.2-.2.4-.2.5.1 0 .3-.1.5-.2s.3-.2.5-.3c.2-.1.3-.2.4-.4.1-.2.2-.3.2-.5v-.1z"/>
    <path d="M37.7 56c-.2.3-.3.7-.6 1-.2.3-.5.6-.7.9-.3.3-.5.5-.8.6-.3.2-.6.2-1 .2-.1 0-.3 0-.4-.1-.1 0-.2-.1-.3-.2-.1-.1-.2-.2-.2-.3-.1-.1-.1-.3-.1-.4 0-.2 0-.3.1-.5.1-.1.2-.2.4-.2.1 0 .1 0 .2.1s.1.1.1.2 0 .2-.1.2c0 .1-.1.1-.2.1s-.1 0-.1-.1c0 0-.1-.1-.1-.2-.1 0-.1.1-.1.2v.2c0 .2.1.4.2.5.1.1.3.2.5.2.1 0 .2 0 .3-.1.1-.1.2-.1.2-.2.1-.1.1-.2.1-.3v-.4c0-.1 0-.3-.1-.4 0-.1-.1-.3-.1-.4 0-.1-.1-.3-.1-.4 0-.1-.1-.3-.1-.4 0-.2 0-.3.1-.4 0-.1.1-.2.2-.3.1-.1.2-.1.3-.2.1 0 .2-.1.3-.1.2 0 .4.1.5.2.1.1.2.3.2.5s-.1.3-.2.4c-.1.1-.2.1-.4.1 0-.1.1-.2.1-.3v-.3c0-.1 0-.2-.1-.3-.1-.1-.2-.1-.3-.1-.2 0-.3.1-.3.2-.1.1-.1.3-.1.4 0 .2 0 .3.1.4 0 .1.1.3.1.4.1.1.1.3.1.4 0 .1.1.3.1.5 0 .1 0 .3-.1.4-.1.1-.1.2-.2.3l-.3.3c-.1.1-.2.1-.3.1.3 0 .6-.1.8-.3.3-.2.5-.4.8-.6.2-.3.4-.5.6-.8.7-.2.8-.5 1-.7z"/>
    <path d="M39.5 53.9l-.6 1.2H40v.1h-1.1l-.6 1.2c-.2.3-.3.6-.4.8l-.3.6c-.1.2-.1.3-.1.4 0 .1 0 .2.1.3.1.1.2.1.3.1.2 0 .4-.1.6-.3.2-.2.5-.4.7-.7.2-.3.5-.6.7-.9.2-.3.4-.6.5-.8l-.6.9c-.2.3-.5.6-.7.9-.2.3-.5.5-.7.7-.2.2-.5.3-.7.3-.2 0-.3-.1-.4-.2-.1-.1-.2-.3-.2-.5s0-.3.1-.5l.3-.6c.1-.2.2-.5.4-.7.1-.3.3-.5.4-.8h-.4l.1-.1h.5l.6-1.2h.4zM41.7 55.1c-.3.5-.6 1-.8 1.4-.2.4-.4.7-.5.9l-.3.6c-.1.1-.1.3-.1.3 0 .2.1.3.2.3s.2-.1.4-.1c.1-.1.3-.2.5-.4l.5-.5c.2-.2.3-.4.4-.6.1-.2.3-.4.4-.6.1-.2.2-.3.2-.4l.1.1c-.1.1-.2.3-.3.5-.1.2-.2.4-.4.6-.1.2-.3.4-.4.6-.2.2-.3.4-.5.5-.2.2-.3.3-.5.4s-.3.1-.4.1c-.1 0-.3-.1-.3-.2-.1-.1-.1-.2-.1-.3 0-.1 0-.3.1-.5s.1-.4.3-.6c.1-.2.3-.5.4-.8.2-.3.4-.7.7-1.2h.4zm.7-1.8c.1.1.1.1.1.2s0 .2-.1.2c0 .1-.1.1-.2.1s-.1 0-.2-.1-.1-.1-.1-.2 0-.2.1-.2c0-.1.1-.1.2-.1s.1 0 .2.1zM45.7 51.5c-.5.9-.9 1.7-1.3 2.4s-.7 1.2-.9 1.7c-.3.5-.5.9-.6 1.2-.2.3-.3.6-.4.8-.1.2-.2.3-.2.5 0 .1-.1.2-.1.3 0 .2.1.3.2.3s.3-.1.5-.2.4-.3.6-.6.4-.5.6-.8c.2-.3.4-.7.6-1h.1c-.2.3-.4.7-.6 1-.2.3-.4.6-.6.8l-.7.7c-.2.1-.4.2-.5.2-.2 0-.3 0-.4-.1v-.5c0-.1 0-.3.1-.4 0-.2.1-.3.2-.6.1-.2.2-.5.4-.8.2-.3.4-.7.6-1.1l.8-1.6c.3-.6.7-1.3 1.1-2.2h.5zM47.4 55.1h.5c-.2.4-.4.7-.6 1-.2.3-.3.6-.5.9-.1.3-.3.5-.3.7-.1.2-.1.4-.1.5 0 .2.1.3.2.3s.3-.1.4-.2c.2-.1.4-.3.6-.6.2-.2.4-.5.6-.9.2-.3.4-.7.6-1-.1.3-.3.6-.5.9l-.6.9c-.2.3-.4.5-.7.7-.2.2-.4.3-.6.3-.2 0-.3 0-.3-.1-.1-.1-.1-.2-.1-.3v-.3c0-.1.1-.2.1-.3l-.3.3-.3.3c-.1.1-.3.2-.4.3-.1.1-.3.1-.4.1-.2 0-.3-.1-.4-.2-.1-.2-.1-.3-.1-.5 0-.3.1-.6.2-.9.1-.3.3-.7.5-1 .2-.3.5-.5.7-.7.3-.2.5-.3.7-.3.1 0 .2 0 .3.1.1 0 .2.1.2.2.1.1.1.1.1.2s0 .2.1.3l.4-.7zm-2.6 3.2c.1.1.1.1.2.1s.2 0 .3-.1c.1-.1.3-.2.4-.3.1-.1.3-.3.4-.5.1-.2.3-.4.4-.6l.3-.6c.1-.2.1-.4.1-.6 0-.2 0-.3-.1-.4-.1-.1-.2-.1-.3-.1-.2 0-.3.1-.5.3-.2.2-.4.4-.6.7-.2.3-.3.6-.5.9-.1.3-.2.7-.2 1 0 0 .1.1.1.2zM53.8 51.5c-.2.4-.4.9-.7 1.3-.2.5-.5.9-.8 1.4-.2.5-.5.9-.7 1.3l-.6 1.2c-.2.4-.3.7-.4.9-.1.3-.2.5-.2.6v.2l.1.1c.1 0 .3-.1.5-.2s.4-.4.6-.6c.2-.3.4-.5.6-.9.2-.3.4-.6.5-.9h.1c0 .1-.1.2-.2.4-.1.1-.2.3-.3.5-.1.2-.2.3-.3.5-.1.2-.2.3-.3.5-.2.3-.4.5-.7.7-.2.2-.4.3-.6.3-.2 0-.3 0-.4-.1-.1-.1-.1-.2-.1-.4 0-.1 0-.3.1-.4 0-.1.1-.2.1-.3-.1.1-.2.3-.3.4-.1.1-.2.3-.3.4-.1.1-.2.2-.4.3-.1.1-.3.1-.4.1-.2 0-.3-.1-.5-.2-.1-.1-.2-.3-.2-.5 0-.3.1-.6.2-.9.2-.3.4-.7.6-.9.2-.3.5-.5.8-.7.3-.2.5-.3.8-.3.2 0 .3.1.4.2.1.1.2.3.1.5l2.1-4.2h.8zm-3 3.8c0-.1-.1-.2-.3-.2-.1 0-.2 0-.4.1-.1.1-.3.2-.4.4-.1.2-.3.3-.4.5l-.3.6c-.1.2-.2.4-.2.6-.1.2-.1.4-.1.5 0 .1 0 .3.1.4 0 .1.1.1.2.1s.2 0 .3-.1c.1-.1.3-.2.4-.4.1-.2.3-.3.4-.5.1-.2.3-.4.4-.6l.3-.6c.1-.2.1-.3.1-.5 0 0 0-.2-.1-.3zM57 56c-.1.2-.3.3-.4.4-.2.1-.3.2-.5.2s-.3 0-.4-.1l-.3-.3c-.1.3-.2.5-.3.8-.1.3-.3.6-.5.8-.2.3-.4.5-.7.6-.2.2-.5.2-.8.2-.2 0-.4-.1-.5-.3-.1-.2-.2-.4-.2-.7 0-.1 0-.3.1-.5s.1-.4.2-.6c.1-.2.2-.4.4-.6.1-.2.3-.4.5-.5.2-.2.3-.3.5-.4.2-.1.4-.1.6-.1.2 0 .4.1.5.2.1.2.2.4.2.6 0 .2.1.3.2.4.1.1.3.2.4.2.2 0 .3 0 .5-.2.1.2.3 0 .5-.1zm-4.1 2.4c.1.1.1.2.2.2.2 0 .3-.1.4-.1.1-.1.3-.2.4-.4.1-.2.3-.3.4-.5l.3-.6c.1-.2.2-.4.2-.6.2-.4.2-.6.2-.8 0-.1 0-.3-.1-.4-.1-.1-.1-.2-.3-.2-.1 0-.2 0-.4.1-.1.1-.3.2-.4.4-.1.1-.3.3-.4.5l-.3.6c-.1.2-.2.4-.2.6-.1.2-.1.4-.1.6.1.4.1.5.1.6z"/>
  </g>
</svg>
