<?xml version="1.0" encoding="utf-8"?>
<!-- Generator: Adobe Illustrator 18.0.0, SVG Export Plug-In . SVG Version: 6.00 Build 0)  -->
<!DOCTYPE svg PUBLIC "-//W3C//DTD SVG 1.1//EN" "http://www.w3.org/Graphics/SVG/1.1/DTD/svg11.dtd">
<svg version="1.1" id="Capa_1" xmlns="http://www.w3.org/2000/svg" xmlns:xlink="http://www.w3.org/1999/xlink" x="0px" y="0px"
	 viewBox="93.2 0 425.7 792" enable-background="new 93.2 0 425.7 792" xml:space="preserve">
<g>
	<g>
		<path fill="#6C6C6C" d="M449.4,379.8c-2.2-2.2-5.6-4.5-9-4.5H326.2V272.2c0-11.2-9-20.2-20.2-20.2s-20.2,9-20.2,20.2v103.1H170.5
			c-3.4,0-6.7,1.1-9,4.5c-1.1,2.2-1.1,5.6-1.1,9l43.7,144.5c1.1,4.5,5.6,7.8,10.1,7.8h183.7c4.5,0,9-3.4,10.1-7.8l43.7-144.5
			C451.6,385.4,451.6,382,449.4,379.8z M351.9,520.9h-90.7c-5.6,0-10.1-4.5-10.1-10.1c0-5.6,4.5-10.1,10.1-10.1h90.7
			c5.6,0,10.1,4.5,10.1,10.1C362,516.4,357.5,520.9,351.9,520.9z M371,470.5H241c-5.6,0-10.1-4.5-10.1-10.1s4.5-10.1,10.1-10.1
			h131.1c5.6,0,10.1,4.5,10.1,10.1C381.1,466,376.6,470.5,371,470.5z M391.1,421.2H220.9c-5.6,0-10.1-4.5-10.1-10.1
			s4.5-10.1,10.1-10.1h170.3c5.6,0,10.1,4.5,10.1,10.1C401.2,416.7,396.7,421.2,391.1,421.2z"/>
	</g>
</g>
<g>
	<path fill="#6C6C6C" d="M461.7,0H150.3c-31.4,0-57.1,25.8-57.1,57.1v677.7c0,31.4,25.8,57.1,57.1,57.1h311.4
		c31.4,0,57.1-25.8,57.1-57.1V57.1C518.8,25.8,493.1,0,461.7,0z M267.9,33.6h76.2c2.2,0,4.5,2.2,4.5,4.5c0,2.2-2.2,4.5-4.5,4.5
		h-76.2c-2.2,0-4.5-2.2-4.5-4.5C263.4,35.8,264.6,33.6,267.9,33.6z M191.7,21.3c4.5,0,7.8,3.4,7.8,7.8s-3.4,9-7.8,9
		c-4.5,0-7.8-4.5-7.8-7.8S187.3,21.3,191.7,21.3z M155.9,16.8c6.7,0,12.3,5.6,12.3,12.3s-5.6,13.4-12.3,13.4s-12.3-5.6-12.3-12.3
		S148,16.8,155.9,16.8z M326.2,762.9h-40.3c-12.3,0-22.4-10.1-22.4-22.4c0-12.3,10.1-22.4,22.4-22.4h40.3
		c12.3,0,22.4,10.1,22.4,22.4C348.6,752.8,338.5,762.9,326.2,762.9z M494.2,699H117.8V93h377.5v606H494.2z"/>
</g>
<g>
	<g>
		<path fill="#6C6C6C" d="M405.7,329.3c-1.1-3.4-2.2-19-2.2-35.8l0,0c1.1,0,2.2-1.1,2.2-2.2v-12.3c0-1.1-1.1-2.2-2.2-2.2h-25.8
			c-1.1,0-2.2,1.1-2.2,2.2v12.3c0,1.1,1.1,2.2,2.2,2.2l0,0c0,17.9-1.1,32.5-2.2,35.8c-7.8,19-24.6,17.9-24.6,41.4v22.4h16.8
			c2.2-2.2,5.6-4.5,10.1-4.5c3.4,0,6.7,2.2,9,4.5h7.8c2.2-2.2,5.6-4.5,9-4.5c3.4,0,6.7,1.1,10.1,4.5h15.7v-22.4
			C429.2,347.3,413.5,348.4,405.7,329.3z"/>
	</g>
</g>
<g>
	<g>
		<path fill="#6C6C6C" d="M238.8,329.3c-1.1-3.4-2.2-19-2.2-35.8l0,0c1.1,0,2.2-1.1,2.2-2.2v-12.3c0-1.1-1.1-2.2-2.2-2.2h-25.8
			c-1.1,0-2.2,1.1-2.2,2.2v12.3c0,1.1,1.1,2.2,2.2,2.2l0,0c0,17.9-1.1,32.5-2.2,35.8c-7.8,20.2-23.5,17.9-23.5,41.4v22.4h16.8
			c2.2-2.2,5.6-4.5,10.1-4.5c3.4,0,6.7,2.2,9,4.5h6.7c2.2-2.2,5.6-4.5,9-4.5c3.4,0,6.7,1.1,10.1,4.5h16.8v-22.4
			C262.3,347.3,246.6,348.4,238.8,329.3z"/>
	</g>
</g>
</svg>
