<?xml version="1.0" encoding="utf-8"?>
<!-- Generator: Adobe Illustrator 18.0.0, SVG Export Plug-In . SVG Version: 6.00 Build 0)  -->
<!DOCTYPE svg PUBLIC "-//W3C//DTD SVG 1.1//EN" "http://www.w3.org/Graphics/SVG/1.1/DTD/svg11.dtd">
<svg version="1.1" id="Capa_1" xmlns="http://www.w3.org/2000/svg" xmlns:xlink="http://www.w3.org/1999/xlink" x="0px" y="0px"
	 viewBox="0 184.5 612 424.2" enable-background="new 0 184.5 612 424.2" xml:space="preserve">
<g>
	<path fill="#6C6C6C" d="M588.6,481.5H567v-3.6c7.2-5.4,11.4-13.8,11.4-23.4c0-13.8-10.2-25.8-23.4-28.2
		c-3.6-14.4-16.8-24.6-32.4-24.6c-8.4,0-16.8,3-22.8,9c-2.4-0.6-4.2-0.6-6.6-0.6c-10.8,0-20.4,6.6-24.6,16.2c-0.6,0-1.2,0-1.8,0
		c-15.6,0-28.8,13.2-28.8,28.8c0,9,4.2,16.8,10.2,21.6v119.4c0,7.2,5.4,12.6,12.6,12.6h93.6c7.2,0,12.6-5.4,12.6-12.6v-18.6h21.6
		c13.2,0,23.4-10.8,23.4-23.4v-48.6C612,491.7,601.2,481.5,588.6,481.5L588.6,481.5z M549.6,467.1h-73.8v25.8c0,4.2-3.6,7.8-7.8,7.8
		c-4.2,0-7.8-3.6-7.8-7.8v-27.6c-3.6-2.4-6-6-6-10.8c0-7.2,6-12.6,12.6-12.6c1.8,0,3,0,4.8,0.6c2.4,1.2,4.8,0.6,7.2-0.6
		c2.4-1.2,3.6-3.6,3.6-6c0.6-5.4,4.8-10.2,10.8-10.2c1.8,0,3.6,0.6,5.4,1.2c3.6,1.8,7.8,1.2,10.2-2.4c3.6-4.8,8.4-7.2,14.4-7.2
		c9.6,0,16.8,7.2,17.4,16.8c0,2.4,1.2,4.2,2.4,5.4c1.8,1.2,3.6,2.4,6,1.8c0.6,0,0.6,0,1.2,0c7.2,0,12.6,6,12.6,12.6
		C562.2,461.7,556.8,467.1,549.6,467.1L549.6,467.1z M590.4,553.5c0,0.6-0.6,1.8-1.8,1.8H567v-52.2h21.6c0.6,0,1.8,0.6,1.8,1.8
		V553.5z"/>
</g>
<g>
	<g>
		<path fill="#6C6C6C" d="M373.8,327.9c-2.4-6-4.2-33.6-4.8-64.2c0,0,0-0.6,0.6-0.6c2.4,0,3.6-1.8,3.6-4.8v-21.6
			c0-2.4-2.4-4.8-4.8-4.8h-45.6c-2.4,0-4.8,2.4-4.8,4.8v21.6c0,2.4,1.2,4.2,3.6,4.8c0.6,0,0.6,0.6,0.6,0.6
			c-0.6,31.2-2.4,58.2-4.8,64.2c-13.2,35.4-42,31.8-42,74.4v150.6c0,58.2,29.4,55.2,69.6,54.6c40.2,0,69.6,3,69.6-54.6V402.3
			C415.8,360.3,387,363.3,373.8,327.9L373.8,327.9z"/>
	</g>
</g>
<g>
	<g>
		<path fill="#6C6C6C" d="M198,582.3v-70.2c33-3.6,56.4-31.2,56.4-63c0-12-3.6-27-9-41.4c-1.2-3-4.2-4.8-7.2-4.8H144
			c-3,0-6,1.8-7.2,4.8c-5.4,13.2-9,28.2-9,42.6l0,0c0.6,31.2,24,58.2,56.4,61.8v70.2c-21.6,1.8-37.8,11.4-37.8,16.2
			c0,5.4,19.8,9.6,45,9.6s45-4.2,45-9.6C235.8,593.7,219.6,584.1,198,582.3L198,582.3z M148.2,416.7H234c4.2,12,6.6,23.4,6.6,32.4
			c0,2.4,0,4.2-0.6,6.6c-4.2-1.2-9-1.2-13.2,0.6c-12.6,4.2-20.4,7.2-33,2.4c-12.6-4.8-20.4-27.6-35.4-25.8c-6,0.6-11.4,2.4-15.6,5.4
			C143.4,431.7,145.2,423.9,148.2,416.7L148.2,416.7z"/>
	</g>
</g>
<g>
	<path fill="#6C6C6C" d="M72.6,289.5v-105H36v105c0,19.2-36,42-36,69.6v230.4c0,7.2,4.8,18.6,15,18.6h78.6c10.2,0,15-11.4,15-18.6
		V359.1C108.6,331.5,72.6,308.7,72.6,289.5L72.6,289.5z M43.8,320.7c-2.4,3-4.8,7.2-7.8,12s-5.4,10.2-8.4,15.6c-1.2,3-2.4,6-3,9
		c0,3.6-1.2,6-0.6,10.2c0,7.8,0.6,15.6,0.6,24.6c0.6,16.8,0.6,34.8,0.6,52.8c0,36-1.2,72-3,99c-0.6,13.8-1.8,24.6-2.4,32.4
		c-0.6,7.8-1.2,12.6-1.2,12.6s0-5.4-0.6-13.2s-1.8-19.2-2.4-32.4c-1.8-27-3-63-3-99c0-18,0-36,0.6-52.8c0.6-8.4,0.6-16.8,0.6-24.6
		c0-3.6,1.2-8.4,1.8-12.6c1.2-3.6,3-7.2,4.8-10.2s3.6-6,5.4-8.4c1.8-2.4,3.6-4.8,5.4-7.2c4.8-3.6,7.8-7.2,10.8-9.6
		c5.4-5.4,9-8.4,9-8.4S48,314.1,43.8,320.7L43.8,320.7z"/>
</g>
</svg>
