<?xml version="1.0" encoding="utf-8"?>
<!-- Generator: Adobe Illustrator 18.0.0, SVG Export Plug-In . SVG Version: 6.00 Build 0)  -->
<!DOCTYPE svg PUBLIC "-//W3C//DTD SVG 1.1//EN" "http://www.w3.org/Graphics/SVG/1.1/DTD/svg11.dtd">
<svg version="1.1" id="Capa_1" xmlns="http://www.w3.org/2000/svg" xmlns:xlink="http://www.w3.org/1999/xlink" x="0px" y="0px"
	 viewBox="0 0 595.3 841.9" enable-background="new 0 0 595.3 841.9" xml:space="preserve">
<g>
	<g>
		
			<path fill="none" stroke="#FD9E20" stroke-width="1.7" stroke-linecap="round" stroke-linejoin="round" stroke-miterlimit="10" d="
			M381.7,423.1c0.3-6.3,2-12.4,4.6-18.2c0.5-1.2,1.2-2.4,2.2-3.2c1.7-1.5,3.9-1.9,6.3-2.2c-1-1.5-1.9-3.2-2.9-4.8
			c-1.2-2-2.4-4.4-1.2-6.6c0.3,3.6,1.5,7.3,3.6,10.2c1.2-1.7,3.2-2.6,5.4-2.9c8.3-1.7,17.7,2.4,22.1,9.7c-3.4,2.2-7,3.4-11.1,2.9
			c1.7-1,3.4-1.9,5.1-2.9c0.7-0.3,1.4-0.9,1.4-1.7c0-0.7-0.7-1.2-1.4-1.4c-5.6-2.4-12.2-2-17.5,0.9c2.9-1.4,6.3-2.2,9.5-2.6
			c-1.7-1.5-4.6-0.2-6.5,1.4c-2.4,2.2-4.4,4.8-6.3,7.7c0.7-2,1.4-4.1,1.9-6.3c-0.7-0.5-1.7,0.2-2.2,0.7c-2.4,2.4-4.3,5.3-5.8,8.3
			c1.4-3.7,2.9-7.7,4.3-11.4c-2.6,4.4-4.6,9.4-6,14.3c-0.9,3.4-1.7,7.3-4.6,9c0.9-1.7,2.9-2,4.6-2.9c2.9-1.4,5.3-4.1,6-7.5
			c2.9,3.1,6.8,5.3,10.9,6.1c4.1-4.3,6.6-10,6.8-16.2c0-1-0.2-2.4-1.2-2.7c-1.2-0.3-2,1-2.4,2.2c-1,2.4-1.9,4.8-2.9,7.3
			c1.2-2.2,1.9-4.8,2-7.5c-3.2,2-5.8,5.1-7.3,8.7c0.9-2,1.9-4.1,2.7-6.5c0.5-1.2,0.9-2.9-0.3-3.4c-0.7-0.3-1.5,0.2-2.2,0.7
			c-3.7,3.4-4.1,10-1,13.9c1.7-1.2,3.4-2.7,4.8-4.3c-2-0.2-4.3,0.2-6.3,1c1.5,1.7,3.4,2.9,5.8,3.4c1.4-2.4,1.7-5.6,0.5-8.2
			c-1.9,2.2-1.7,5.8,0.2,7.8c1.2-1.7,2.4-3.4,2.9-5.4c0.5-2,0.5-4.1-0.7-6c-0.2-0.2-0.3-0.5-0.7-0.5c-0.5-0.2-0.9,0.3-1.2,0.7
			c-1.7,2-3.4,4.6-2.4,7.1c2.2-1.9,3.4-4.8,3.1-7.8c-0.2-1.5-0.9-3.2-2.4-3.7c-2.2-0.9-4.4,1.4-6,3.2c0.7-1.7,0.9-3.4,0.5-5.3
			c-4.8,3.4-7,10.4-5.1,16.2c1-2.6,2-5.4,3.1-8c-1.4,2.7-2.7,5.4-3.9,8.2c-0.2-3.6-0.5-7.3-0.7-10.7c-3.4,4.3-5.4,9.5-5.8,15.1
			c1.5-2,3.4-3.7,5.6-5.3c-0.9,2.2-1.7,4.3-2.6,6.6c1.5-2,3.1-4.1,4.6-6.3c-2,2-4.1,4.1-6.3,6.3c3.7-2.2,7.5-5.1,10.5-8.2
			c0.9-0.9,1.9-2,2-3.2c0.2-1.4-0.9-2.9-2.2-2.7c0.5-2.2,1.2-4.4,2.7-6.5c1.4-1.7,3.7-3.1,6.1-2.6c-1.7,1.4-3.6,2.7-5.6,3.7
			c2.7-1.2,6-2.2,9-2.4c3.1-0.2,6.5,1,8.3,3.4"/>
		
			<path fill="none" stroke="#FD9E20" stroke-width="1.7" stroke-linecap="round" stroke-linejoin="round" stroke-miterlimit="10" d="
			M391.7,396.5c0,0.7,0.3,1.4,0.9,1.7c-0.9,0.5-1.7,1-2.4,1.7c-0.3,0.2-0.7,0.5-0.9,0.7c-0.2,0.2-0.5,0.3-0.7,0.7
			c-3.1,2.6-5.4,6.1-6.5,10c-0.2,0.3-0.2,0.7-0.2,1c-0.2,0.9,0,1.5,0.2,2.4"/>
		
			<path fill="none" stroke="#FD9E20" stroke-width="1.7" stroke-linecap="round" stroke-linejoin="round" stroke-miterlimit="10" d="
			M390.7,388.4c-0.2-0.5,0.5-0.9,1-0.9c0.5,0.2,0.9,0.5,1,1c0.2,0.5,0.3,0.9,0.3,1.4c0.2,1.2-0.3,2.6,0.2,3.7
			c0.5,0.9,1.5,1.5,1.5,2.6c-0.5-1.2-1.2-2.4-1.9-3.6c-0.5-1.2-1-2.6-0.9-3.9c1,2,1.9,4.3,2.2,6.6"/>
		
			<path fill="none" stroke="#FD9E20" stroke-width="1.7" stroke-linecap="round" stroke-linejoin="round" stroke-miterlimit="10" d="
			M397.1,398.6c1.7-1.7,3.7-2.9,6.3-3.4c-1.2,0.5-2.4,1.2-3.6,1.7c-1,0.5-2,1-2.7,1.9c1.9-0.9,3.7-1.9,6-2.2c2-0.3,4.3-0.3,6.3,0.9
			c-3.2,0.3-6.6,0.2-9.7-0.9c0.9-0.3,1.9-0.3,2.9-0.2c2.9,0.3,6,0.7,8.7,1.9c2.7,1.2,5.3,2.9,6.8,5.6c-0.2-0.7-0.3-1.2-0.5-1.9
			c0.5,0.5,0.7,1,0.9,1.5c0.2-0.5,0.3-1,0.5-1.4c-0.7,0.7-0.9,1.9-0.3,2.9c0.2-0.3,0.5-0.5,0.7-0.9c-0.9,0.7-1.7,1.2-2.7,1.4
			c0.7-0.3,1.4-0.7,2-1c-1.4,0.2-2.7,0.9-3.7,1.9c1.4,0.7,3.2-0.3,3.4-1.9c-0.9-0.3-1.9,0.2-2.2,1c1.2,0.2,2.6-0.3,3.4-1.2
			c0.2-0.2,0.3-0.5,0.3-0.7s-0.2-0.3-0.2-0.5c-0.9-0.9-2.4-0.7-3.2,0c-0.9,0.7-1.4,1.9-1.7,3.1c0.5-0.9,1-1.9,1.4-2.7
			c-0.9-0.2-1.9,0.2-2.6,0.9c0.5,0.3,1.4,0,1.2-0.5c-0.7-0.7-1.9-0.9-2.6-0.3c-0.7,0.5-0.7,1.9,0.2,2.4c0.5-1.2,0.5-2.6,0-3.6
			c-0.2-0.5-0.7-1-1-0.9c-0.2,0-0.3,0.2-0.3,0.3c-1.4,1.5-2,3.6-1.9,5.8c0.9-1.5,1.4-3.4,1.2-5.4c-1,2.6-2,5.3-3.1,8
			c0.5-2.2,1-4.3,1.5-6.6c-0.7,3.1-1.4,6.3-2,9.5c0.9-2.2,1.9-4.4,2.7-6.8c-0.3,2.4-1,4.6-1.7,7.1c0.9-2,1.5-4.3,2.4-6.5
			c-1.2,3.1-2.4,6.3-3.9,9.4c0.3-0.9,0.7-1.7,0.9-2.6c-0.7,2-2,3.7-3.9,5.1c0.3,0,0.7,0,1,0.2c-0.3,0.3-0.9,0.2-1.2,0
			c-1.7-0.7-3.4-1.2-5.3-1.9c-0.3-0.2-0.9-0.3-1-0.5c-0.3-0.3-0.3-0.9-0.2-1.2c-0.7-0.2-1.7-0.5-1.9-1.2c-0.2-0.7,0.3-1.2,0.5-1.7
			c0.2-0.7,0-1.5-0.5-2c-0.5,1.4-1.2,2.9-1.5,4.4c0.7-2.4,1.2-4.6,1.7-7.1c-1.2,1.4-2.4,2.7-3.2,4.4c1-2.7,2.7-5.4,5.1-7.5
			c0,0.5-0.2,1-0.3,1.4c0.2-0.2,0.3-0.3,0.3-0.5c1.4,0.2,2.2,1.7,2,3.1c0.5-1.2,0.9-2.6,1.4-3.7c0,1.4-0.2,2.7-0.5,4.1
			c0.5-1.4,1.2-2.7,1.9-3.9c-0.5,1.7-1.4,3.4-2.6,4.8c0.3-1.9,0.7-3.6,0.9-5.6c0-0.5,0-1-0.3-1.4c-0.2-0.2-0.5-0.2-0.9-0.2
			c-1.9,0.2-3.7,1.4-4.6,3.2c0.5-1,1-2.2,1.5-3.2c-1.2,1-2.6,1.9-4.1,2.7c0.5-0.9,1.2-1.7,1.9-2.4c-0.9,0.7-1.9,1.5-2.7,2.2
			c0.3-1,1-2,1.9-2.9c-1.4,1.2-2.7,2.6-4.1,3.9c0.3-1.2,0.9-2.2,1.5-3.1c-2,2.4-3.4,5.3-4.3,8.2c0.9-1,1.4-2.2,1.7-3.6
			c-0.5,2.4-0.9,5.1-1,7.7c0.3-1.2,0.9-2.2,1.4-3.2c0,2-0.3,4.3-0.9,6.5c0.2-1.9,0.3-3.9,0.5-6c-0.5,1.9-1.2,3.7-1.7,5.8
			c0.2-1.5,0.3-3.1,0.5-4.6c0-0.5,0-1.2-0.3-1.5c-1.4,1.4-2.4,3.1-3.1,5.1c0.2-0.5,0.3-1.2,0.3-1.9c-0.7,1.2-0.9,2.4-0.9,3.7
			c0.3-1,0.3-2.2,0-3.4c-0.7,1.4-0.7,3.1-0.2,4.4c0-0.3,0.2-0.7,0.2-1"/>
		
			<path fill="none" stroke="#FD9E20" stroke-width="1.7" stroke-linecap="round" stroke-linejoin="round" stroke-miterlimit="10" d="
			M380.5,419c0.2,0.7,0.3,1.5,0.5,2.2c0.2,0.5,0.2,1.2,0.3,1.7c0.2,0.2,0.2,0.5,0.2,0.7c0.9-1.4,1.7-2.6,2.4-3.9"/>
		
			<path fill="none" stroke="#FD9E20" stroke-width="1.7" stroke-linecap="round" stroke-linejoin="round" stroke-miterlimit="10" d="
			M386.6,427.8c2.9-1.4,5.6-3.2,7.7-5.8c-2,2.6-4.3,5.1-6.6,7.3c1.2-2.9,5.6-3.7,6.6-6.8c1.4,0.9,3.1,1.2,4.6,1.4
			c-1.9-0.3-3.6-1-5.6-1.9c1.7,0.9,3.6,1.5,5.4,2.4c0.2,5.6-2,11.1-6,15.1c-0.5-0.9-1.2-1.5-1.7-2.4c-0.9-1.2-1.4-2.6-2-3.7
			c-0.7-1.5-1.4-2.9-1.4-4.6c0-0.5,0-1.2-0.5-1.4c-1.2,2.7-0.2,6,1.2,8.7c0.7,1.2,1.5,2.6,2.9,2.9c0.9-1.7,0.2-3.6-0.5-5.4
			c-0.7-1.7-1.4-3.6-0.9-5.4c1,3.6,1.5,7.5,1.4,11.2c1-2.2,2.9-3.9,4.1-6.1c1-1.9,1.7-4.1,1.7-6.5c0-0.3,0-0.9-0.3-1.2
			c-0.3-0.3-1-0.3-1.4-0.2c-0.5,0.2-0.9,0.7-1.2,1c-0.5,0.7-1.2,1.4-1.5,2.2c-0.7,1.9-0.3,3.9,0.2,6c-0.7-3.6-0.7-7.3,0-10.9
			c-0.3,2.2-1.2,4.3-2.4,6.1c-0.3-1.7,1-3.2,2.4-4.4c0.5-0.5,1-0.9,1.5-1.4c0.3-0.3,0.7-0.5,1-0.3c0.5,0.2,0.5,0.9,0.3,1.2
			c-0.5,3.9-2,7.7-3.6,11.2c1.9-4.1,3.6-8.3,5.6-12.2c0.5,0,0.9,0.2,1.4,0.2c-0.3,2-0.5,4.1-0.9,6.3c0.3-1.4,0.5-2.7,0.5-4.1
			c0.7,5.3-2,10.5-6.6,12.9c0.9-0.5,1.9-0.9,2.9-1.4c1.9-1,3.2-3.1,3.7-5.3c0.5-2,0.3-4.4-0.5-6.6c-0.3,2.2-1.4,4.4-2.7,6.5
			c-0.2,0.2-0.3,0.5-0.7,0.5c-0.7,0.2-1.4-0.7-1.4-1.4c0-0.9,0.3-1.7,0.5-2.4c0.2-0.9,0.3-1.7-0.2-2.4c-1.5,2.4-1.7,5.4-2.6,8
			c0,0.2-0.2,0.3-0.3,0.5c-0.3,0.3-0.9,0.3-1.2,0c-0.3-0.3-0.5-0.7-0.7-1c-0.7-2,0.2-4.3,1-6.3c0.5,2.4,0.7,4.8,0.3,7.3
			c-0.7-0.2-1.4-0.5-1.7-0.9"/>
		
			<path fill="none" stroke="#FD9E20" stroke-width="1.7" stroke-linecap="round" stroke-linejoin="round" stroke-miterlimit="10" d="
			M397.1,443c2-1,3.6-2.7,4.6-4.8c0.3,1.4,1.7,2.2,2.9,3.1c1.7,0.9,3.4,1.7,5.3,2.2c-1,2.7-2.2,5.4-3.9,7.7c-1-0.7-2.2-1.4-3.2-2
			c-2.2-1.4-4.8-3.1-5.8-5.8c0-0.5,0.7-0.9,1.2-1c1.2-0.5,1.7-1.5,2.4-2.6c0.5,1.9-0.5,4.1-2,5.3c0.5,0.3,1,0.2,1.5-0.2
			c0.5-0.3,0.7-0.9,0.9-1.4c0.3-0.7,0.7-1.2,0.9-1.9c0.3-0.2,0.9,0.2,1,0.5c0.2,0.3,0.2,0.9,0.2,1.2c-0.2,1.9-0.9,3.6-1.9,5.3
			c1.2-0.5,2-1.4,2.6-2.6c0.5-1.2,0.7-2.6,1.7-3.4c0.7,0.2,0.7,1,0.7,1.7c-0.2,1.7-0.7,3.2-1.4,4.8c0.2,0.2,0.3,0.3,0.5,0.5
			c1.5-1,2.7-2.6,3.2-4.3c-1.4-1.5-3.7-1.7-5.4-3.2c-0.3-0.3-0.7-0.7-1-1c-0.3-0.3-0.9-0.3-1.4-0.2c-0.2,0.9-0.7,1.7-1.5,2.4
			c-0.2,0.2-0.3,0.2-0.5,0.5c0,0.2,0.2,0.5,0.3,0.7c1.7,2,3.9,3.7,6.6,4.6c0.3-0.5,0.5-1,0.7-1.5c-1.9-1-3.7-2-5.8-2.9"/>
		
			<path fill="none" stroke="#FD9E20" stroke-width="1.7" stroke-linecap="round" stroke-linejoin="round" stroke-miterlimit="10" d="
			M423.3,411.5c-2.9,1.2-6.1,1.9-9.4,1.7c3.2,0.2,6.6,0.2,9.9,0c-3.1-1-6.6,1.5-9.5,0.3c-0.3,1.5-1,3.1-2.2,4.3
			c0.9-1.7,1.7-3.4,2.2-5.3c-0.7,1.9-1.2,3.7-1.9,5.6c3.9,3.7,9.5,6,15.1,5.8c-0.3-0.9-0.3-1.9-0.7-2.9c-0.3-1.4-1-2.7-1.5-4.1
			c-0.7-1.5-1.4-2.9-2.6-4.1c-0.3-0.3-0.9-0.9-0.7-1.2c2.7,0.9,4.4,3.7,5.6,6.6c0.5,1.4,0.9,2.7,0.2,4.1c-1.7-0.5-2.9-2.2-3.6-3.9
			c-0.9-1.7-1.7-3.4-3.2-4.3c1.9,3.2,4.4,6.3,7.5,8.5c-2.2-0.7-4.8-0.5-7.3-1c-2.2-0.5-4.3-1.5-6-3.1c-0.3-0.3-0.7-0.7-0.7-1
			c0-0.5,0.3-1,0.9-1.2c0.5-0.2,1-0.2,1.5-0.2c0.9,0,1.9,0.2,2.7,0.3c1.9,0.7,3.1,2.4,4.3,4.1c-2.2-2.9-4.8-5.4-8-7.3
			c1.9,1.2,3.9,1.9,6.3,2.2c-1-1.4-3.1-1.4-4.8-1.2c-0.7,0-1.4,0.2-1.9,0.2c-0.3,0-0.9,0.2-1,0.5c-0.2,0.5,0.3,0.9,0.7,1.2
			c3.2,2.2,7,3.6,10.7,4.8c-4.3-1.4-8.7-2.7-12.8-4.1c-0.3,0.3-0.5,0.7-0.9,1c1.7,1.2,3.4,2.4,5.4,3.6c-1.2-0.7-2.4-1.5-3.4-2.4
			c3.4,3.7,9.2,5.4,13.9,3.7c-1,0.3-1.9,0.9-2.9,1.2c-2,0.7-4.4,0.3-6.5-0.7c-1.9-1-3.4-2.7-4.4-4.6c1.9,1.2,4.3,1.9,6.6,2.2
			c0.3,0,0.7,0,0.9-0.2c0.7-0.3,0.3-1.4-0.2-1.9c-0.7-0.5-1.4-0.9-2.2-1.2c-0.7-0.3-1.5-1-1.5-1.7c2.7,0.5,5.1,2.2,7.7,3.4
			c0.2,0.2,0.3,0.2,0.7,0.2s0.7-0.3,0.9-0.9c0-0.3-0.2-0.9-0.3-1.2c-1-1.9-3.2-2.7-5.4-3.2c1.4,2,3.1,3.7,5.1,5.3
			c0.3-0.5,0.5-1.2,0.5-1.9"/>
		
			<path fill="none" stroke="#FD9E20" stroke-width="1.7" stroke-linecap="round" stroke-linejoin="round" stroke-miterlimit="10" d="
			M427.4,429.5c-2.2,0.7-4.4,0.9-6.8,0.2c0.7,1.2,0.7,2.7,0.3,4.1c-0.3,1.9-1,3.6-1.7,5.4c2.6,1,5.6,1.9,8.3,2
			c0.3-1.2,0.5-2.6,0.7-3.7c0.5-2.7,0.9-5.8-0.5-8.2c-0.3-0.3-1,0-1.5,0.2c-1,0.5-2.4,0.3-3.6,0c1,1.5,3.2,2.4,5.3,1.9
			c0,0.5-0.7,0.9-1.2,1c-0.5,0.2-1,0-1.7-0.2c-0.7-0.2-1.4-0.3-2-0.5c-0.3,0.2-0.3,0.7-0.2,1c0.2,0.3,0.5,0.7,0.9,0.9
			c1.5,1.2,3.2,1.9,5.1,2c-1.2,0.5-2.4,0.7-3.6,0.3c-1.2-0.3-2.4-1.2-3.6-1c-0.3,0.5,0.3,1.2,0.9,1.5c1.4,0.9,2.9,1.7,4.4,2
			c0,0.2,0,0.5,0,0.7c-1.7,0.3-3.7,0.2-5.4-0.5c-0.2-2,1.2-3.9,1.2-6.1c0-0.5-0.2-0.9,0-1.4c0-0.5,0.3-1,0.7-1
			c0.9,0.5,1.9,0.7,2.7,0.3c0.2,0,0.5-0.2,0.7,0c0.2,0.2,0.3,0.3,0.3,0.7c0.3,2.7,0.2,5.6-0.9,8c-0.5-0.2-1.2-0.3-1.7-0.5
			c0.5-2,1-4.1,1.5-6.3"/>
		
			<path fill="none" stroke="#FD9E20" stroke-width="1.7" stroke-linecap="round" stroke-linejoin="round" stroke-miterlimit="10" d="
			M404.6,433.1c0-0.2,0-0.3,0-0.5c0.7-2.6,0.9-5.6,0.2-8.2c0.5,0.2,1,0.3,1.5,0.5c0.9-0.5,1.7-1.2,2.2-2c1.4,2.7,4.4,3.9,7.3,5.1
			c0.3,2.6-0.5,5.1-1.5,7.5c-0.3,0.9-0.7,1.7-1.2,2.4c-0.2,0.2-0.2,0.3-0.5,0.3c-0.2,0-0.3,0-0.3,0c-2.9-0.7-5.6-2.2-7.5-4.6
			C404.8,433.4,404.6,433.3,404.6,433.1z"/>
		
			<path fill="none" stroke="#FD9E20" stroke-width="1.7" stroke-linecap="round" stroke-linejoin="round" stroke-miterlimit="10" d="
			M406.3,426.6c1.4,0,2.7-0.3,4.1-0.9c-1,2.7-2,5.8-2.9,8.7c0.9-1.5,1.4-3.1,1.9-4.8c0.2-0.7,0.2-1.7-0.5-1.9
			c-0.5,1.2-0.9,2.4-1.4,3.6c-0.3,0.2-1-0.2-1-0.7c0-0.5,0.3-0.9,0.9-1s0.9,0,1.4,0c1,0.2,2,0.3,3.2,0.5c-0.2-1-1-1.9-2-2
			c-0.5,1.9,0.9,3.9,0.9,6.1c-0.3-0.3-0.9-0.3-1.4-0.3s-1,0.2-1.4-0.2c-0.3-0.3-0.5-0.9-0.2-1.2c1.9,1.4,3.4,2.9,4.8,4.8
			c1.5-1.7,2.2-4.4,1.7-6.8c-0.2-0.5-0.3-1-0.9-1s-0.7,0.5-0.9,1c-0.5,1.4-0.9,2.7-0.5,4.1c0,0.2,0.2,0.5,0,0.7
			c-0.2,0.3-0.5,0.3-0.9,0.3c-0.7,0-1.5-0.3-2-0.7"/>
		
			<path fill="none" stroke="#FD9E20" stroke-width="1.7" stroke-linecap="round" stroke-linejoin="round" stroke-miterlimit="10" d="
			M413.1,434c0.3-1.7,0.7-3.4,1-5.3c-0.7,0.2-1.4,0-1.9-0.3c-0.9-0.3-1.5-0.7-2.2-1.4c-0.2-0.2-0.3-0.5-0.5-0.9
			c-0.3-0.5-0.5-0.9-0.9-1.4c-0.7,0.7-1.4,1.4-1.7,2.2c-0.2,0.7-0.2,1.5-0.3,2.4c-0.2,1.2-1,2.4-0.3,3.4c0.2,0.3,0.5,0.7,0.9,1
			c0.9,0.7,1.7,1.4,2.6,1.9"/>
		
			<path fill="none" stroke="#FD9E20" stroke-width="1.7" stroke-linecap="round" stroke-linejoin="round" stroke-miterlimit="10" d="
			M412.6,450.5c1.4-1.9,2.2-4.3,2.4-6.8c0.7,0,1.2-0.3,1.5-0.9c1.9,1.4,4.1,2.6,6.6,3.1c0,2.9-0.5,6.3-2.7,8.3
			c-1.9-0.7-3.6-1.2-5.6-1.9c-0.9-0.3-1.7-0.7-2-1.5c2.2,1.2,4.6,2.4,7.1,3.4c0.7-1.4,1.2-2.7,1.5-4.1c0.2-0.5,0.3-1.2,0-1.5
			c-0.2-0.2-0.5-0.3-0.7-0.5c-1.4-0.7-2.7-1.4-4.3-2c-0.3,1.4-0.9,2.6-1.2,3.9c1.9,0.7,3.7,1.5,5.6,2.4c0.2-1.4,0.5-2.9,1-4.1
			c-1.5-0.7-3.2-1.2-4.8-1.9c-0.2,1.5-0.5,3.1-0.7,4.6c0.2-1.4,0.5-2.9,0.9-4.3c0.2,1.5,0.2,3.1,0,4.6c0.3-1.2,0.7-2.4,1-3.4
			c0,1,0,2.2,0,3.2c0-0.3,0.2-0.9,0.2-1.2c0.2,0,0.2,0.2,0.3,0.2"/>
		
			<path fill="none" stroke="#FD9E20" stroke-width="1.7" stroke-linecap="round" stroke-linejoin="round" stroke-miterlimit="10" d="
			M416.4,444.2c1.4,0.7,2.7,1.4,4.3,2c-0.7,2-1.4,4.3-2,6.5c-1.2-0.5-2.4-1-3.6-1.5"/>
	</g>
	<g>
		<path fill="#FFFFFF" d="M37.6,411.7c-1-0.9-2.2-1.5-3.7-2c-1.5-0.5-3.1-0.7-4.4-0.7c-1.7,0-3.1,0.3-4.4,0.9
			c-1.4,0.5-2.6,1.4-3.4,2.4c-1,1-1.7,2.2-2.4,3.7c-0.5,1.5-0.9,3.1-0.9,4.8c0,1.7,0.3,3.2,0.9,4.8c0.7,1.5,1.5,2.7,2.6,3.7
			c1,1,2.4,1.9,3.7,2.4c1.4,0.5,2.9,0.9,4.6,0.9c1.9,0,3.6-0.3,5.4-1.2c1.5-0.9,2.9-1.9,4.1-3.4h-5.3v-11.9h21.9v19
			c-1.4,2.2-2.9,4.4-4.6,6.5c-1.9,1.9-3.7,3.4-6.1,4.8c-2.4,1.7-4.8,2.7-7.3,3.4s-5.4,1-8.2,1c-4.1,0-8-0.7-11.6-2.2
			c-3.6-1.5-6.8-3.6-9.5-6.5c-2.7-2.6-4.9-5.8-6.5-9.4C0.9,429.2,0,425.1,0,421c0-4.1,0.7-8,2.2-11.6c1.5-3.6,3.4-6.8,6.1-9.5
			s5.6-4.9,9.4-6.5c3.7-1.5,7.5-2.4,11.4-2.4c3.1,0,6,0.3,8.3,0.9c2.2,0.7,4.3,1.4,6,2.2c1.9,0.9,3.4,1.9,4.6,2.9L37.6,411.7z"/>
		<path fill="#FFFFFF" d="M60.4,392.3h19.7c3.6,0,7.1,0.5,10.2,1.4c3.1,1,6,2.4,8.2,4.3s3.9,4.1,5.4,7c1.5,2.9,1.9,6,1.9,9.5
			c0,2.7-0.3,5.3-1.2,7.3c-0.9,2-1.7,3.6-2.6,5.1c-1.2,1.5-2.4,2.7-3.7,3.7l10.5,18.9H87.3L78.7,435v14.5H60.4V392.3z M78.6,420.3h1
			c2.2,0,3.9-0.5,5.6-1.4c1.5-1,2.2-2.6,2.2-4.8c0-2.2-0.7-3.9-2.2-4.8c-1.5-1-3.2-1.4-5.6-1.4h-0.9v12.4h-0.2V420.3z"/>
		<path fill="#FFFFFF" d="M109.4,420.9c0-4.1,0.9-8,2.4-11.6s3.6-6.8,6.5-9.5c2.7-2.7,6-4.8,9.5-6.3c3.6-1.5,7.5-2.4,11.6-2.4
			s8,0.7,11.6,2.4c3.6,1.7,6.8,3.6,9.5,6.5s4.8,6,6.5,9.5c1.5,3.6,2.4,7.5,2.4,11.6c0,4.1-0.9,7.8-2.4,11.6
			c-1.5,3.6-3.6,6.8-6.5,9.5c-2.7,2.7-6,4.8-9.5,6.5c-3.6,1.7-7.5,2.4-11.6,2.4s-8-0.9-11.6-2.4c-3.6-1.5-6.8-3.6-9.5-6.5
			c-2.7-2.7-4.8-6-6.5-9.5C110.2,428.9,109.4,425.1,109.4,420.9z M127.4,420.9c0,1.7,0.3,3.2,0.9,4.6c0.7,1.4,1.5,2.7,2.6,3.7
			c1,1,2.4,1.9,3.7,2.6c1.4,0.7,2.9,0.9,4.6,0.9c1.7,0,3.2-0.3,4.6-0.9c1.4-0.7,2.7-1.5,3.7-2.6c1-1,1.9-2.4,2.6-3.7
			c0.7-1.4,0.9-2.9,0.9-4.6c0-1.7-0.3-3.2-0.9-4.6c-0.7-1.4-1.5-2.7-2.6-3.7c-1-1-2.4-1.9-3.7-2.6s-2.9-0.9-4.6-0.9
			c-1.7,0-3.2,0.3-4.6,0.9c-1.4,0.7-2.7,1.5-3.7,2.6c-1,1-1.9,2.4-2.6,3.7C127.7,417.6,127.4,419.2,127.4,420.9z"/>
		<path fill="#FFFFFF" d="M165.8,392.3h19.4l6.6,19.9l6.6-19.9h12.4l6.6,19.9l6.6-19.9h19.4l-19,57.1h-14.1l-5.8-17.3l-5.8,17.3
			h-14.1L165.8,392.3z"/>
		<path fill="#FFFFFF" d="M245.4,392.3h19v42h15.8v15h-34.9V392.3z"/>
		<path fill="#FFFFFF" d="M284.5,392.3H318v15h-15.3v6.5h15.1v14.1h-15.1v6.6h16v15h-34.2L284.5,392.3L284.5,392.3z"/>
		<path fill="#FFFFFF" d="M323.3,392.3h19.7c3.6,0,7.1,0.5,10.2,1.4c3.1,1,6,2.4,8.2,4.3c2.2,1.9,3.9,4.1,5.4,7
			c1.2,2.7,1.9,6,1.9,9.5c0,2.7-0.3,5.3-1.2,7.3c-0.9,2-1.7,3.6-2.6,5.1c-1.2,1.5-2.4,2.7-3.7,3.7l10.7,18.9h-21.4L342,435v14.5
			h-18.2v-57.1H323.3z M341.4,420.3h0.9c2.2,0,3.9-0.5,5.6-1.4c1.5-1,2.2-2.6,2.2-4.8c0-2.2-0.7-3.9-2.2-4.8c-1.5-1-3.2-1.4-5.6-1.4
			h-0.9V420.3z"/>
	</g>
	<g>
		<path fill="#FFFFFF" d="M444.8,392.1H467c2.7,0,5.6,0.3,7.8,1c2.4,0.7,4.3,1.5,6.1,2.9c1.7,1.2,2.9,2.9,3.9,4.8
			c0.9,1.9,1.4,4.1,1.4,6.8c0,1.9-0.2,3.4-0.7,4.6c-0.5,1.2-0.9,2.4-1.4,3.2c-0.7,1-1.4,1.9-2,2.6c1.2,0.9,2.4,1.9,3.4,3.1
			c0.9,1,1.5,2.4,2.4,4.1c0.7,1.7,1,3.6,1,6.1c0,2.7-0.5,5.3-1.4,7.5c-1,2.2-2.4,4.1-4.1,5.8c-1.7,1.5-3.9,2.7-6.6,3.6
			c-2.7,0.9-5.6,1.2-8.7,1.2h-23.5L444.8,392.1L444.8,392.1z M468.6,409.5c0-2.6-1.4-3.9-4.3-3.9h-2v7.8h2
			C467.2,413.5,468.6,412,468.6,409.5z M464.5,435.8c4.3,0,6.6-1.7,6.6-5.1s-2.2-5.1-6.6-5.1h-2v9.9h2V435.8z"/>
		<path fill="#FFFFFF" d="M508.7,392.1h13.6l21.6,57.1h-18L524,444h-17.2l-1.9,5.3h-18L508.7,392.1z M519.4,431.4l-3.7-10l-3.7,10
			H519.4z"/>
		<path fill="#FFFFFF" d="M546.8,392.1h19.7c3.6,0,7.1,0.5,10.2,1.4c3.1,1,5.8,2.4,8.2,4.3c2.2,1.9,3.9,4.1,5.4,7
			c1.4,2.7,1.9,6,1.9,9.5c0,2.7-0.3,5.3-1.2,7.3s-1.7,3.6-2.6,5.1c-1.2,1.5-2.4,2.7-3.7,3.7l10.7,18.9H574l-8.5-14.5v14.5H547v-57.1
			H546.8z M565.2,420.2h0.9c2,0,3.9-0.5,5.6-1.4c1.5-1,2.2-2.6,2.2-4.8c0-2.2-0.7-3.9-2.2-4.8c-1.5-1-3.2-1.4-5.6-1.4h-0.9V420.2z"
			/>
	</g>
</g>
</svg>
